<svg width="87" height="87" viewBox="0 0 87 87" fill="none" xmlns="http://www.w3.org/2000/svg">
<path d="M33.1336 86.3743C35.8454 72.6967 38.2538 62.5926 43.3741 48.7387C48.8179 62.4652 51.3539 72.8531 54.1934 86.2859L66.4121 81.1946C58.7752 69.485 53.2139 60.7713 46.9673 47.1036C60.8114 53.1932 69.8483 58.6661 81.3036 66.3027L86.375 53.9859C72.6973 51.2741 62.5247 49.0321 48.5729 43.6768C62.5344 38.1351 72.6188 35.8635 86.2866 32.9261L81.1952 20.7074C69.7206 28.2464 60.772 33.9055 47.0063 39.9172C53.1939 26.308 58.5982 17.4376 66.3033 5.8159L53.9865 0.744493C51.2747 14.4222 48.7978 24.6926 43.6089 38.713C38.0672 24.7515 35.7956 14.6671 32.9267 0.832904L20.708 5.92426C28.3449 17.6338 33.9062 26.3475 39.7514 40.0446C26.3087 33.9256 17.4382 28.5213 5.81654 20.8161L0.745132 33.1329C14.3543 36.0112 24.5268 38.2531 38.5472 43.442C24.4193 48.9152 14.3349 51.1868 0.833551 54.1927L5.92489 66.4115C17.6345 58.7745 26.2796 53.3797 40.1138 47.2016C33.9262 60.8108 28.5219 69.6812 20.8168 81.3029L33.1336 86.3743Z" fill="#E52421" style="mix-blend-mode:multiply"/>
</svg>
