<svg width="79" height="82" viewBox="0 0 79 82" fill="none" xmlns="http://www.w3.org/2000/svg">
<path d="M28.9268 41.7935C30.7341 41.4188 32.3032 40.7202 33.6341 39.6976C34.8194 38.8033 35.8214 37.6879 36.5848 36.4126C37.8208 34.4453 38.4387 32.2245 38.4387 29.75C38.4387 27.3524 37.8979 25.313 36.8164 23.6319C35.7348 21.9507 34.1304 20.7221 32.0034 19.9461C33.4025 19.2297 34.4622 18.4364 35.1823 17.5663C36.4666 16.0199 37.1098 13.9702 37.112 11.4172C37.112 8.94281 36.4735 6.81741 35.1965 5.04105C33.0788 2.15245 29.4804 0.670015 24.4012 0.59375H4.26721V42.3613H23.0403C25.1552 42.3613 27.1173 42.172 28.9268 41.7935ZM12.5765 7.84754H21.6436C23.6391 7.84754 25.2801 8.0652 26.5666 8.50052C28.0601 9.12233 28.8066 10.4066 28.8061 12.3533C28.8061 14.1102 28.2411 15.3349 27.1112 16.0274C25.9814 16.7199 24.5125 17.0647 22.7047 17.062H12.5765V7.84754ZM12.5765 35.1075V23.9734H22.8296C24.6219 23.9909 26.0061 24.2239 26.9938 24.6806C28.7628 25.4923 29.6472 26.9839 29.6472 29.1555C29.6472 31.7246 28.7344 33.4634 26.9089 34.3719C25.9094 34.8637 24.4936 35.1075 22.6922 35.1075H12.5765Z" fill="#3A3A39"/>
<path d="M45.4936 39.6082C48.6279 42.1445 52.2447 43.4117 56.3439 43.4101C61.3127 43.4101 65.1754 41.907 67.9321 38.901C69.7088 37.0083 70.7052 35.1479 70.9212 33.3197H62.6968C62.2188 34.2249 61.6661 34.9324 61.0387 35.4423C59.891 36.3887 58.3999 36.8619 56.5655 36.8619C54.8348 36.8619 53.3551 36.4744 52.1264 35.6995C50.1037 34.452 49.0296 32.279 48.9041 29.1805H71.3401C71.3801 26.514 71.2918 24.471 71.0752 23.0515C70.7016 20.63 69.8832 18.5018 68.62 16.667C67.2242 14.5867 65.4494 13.0636 63.2957 12.0978C61.1503 11.133 58.735 10.6512 56.0499 10.6523C51.5376 10.6523 47.8661 12.0797 45.0356 14.9343C42.205 17.789 40.7892 21.8908 40.7881 27.24C40.7914 32.952 42.3599 37.0748 45.4936 39.6082ZM51.2478 19.076C52.3882 17.9008 53.9906 17.313 56.0549 17.3124C57.956 17.3124 59.5492 17.8669 60.8346 18.9758C62.12 20.0847 62.8351 21.7116 62.98 23.8565H49.1023C49.3966 21.8457 50.1118 20.2523 51.2478 19.076Z" fill="#3A3A39"/>
<path d="M64.5798 2.99414H46.4763V7.2093H64.5798V2.99414Z" fill="#3A3A39"/>
<path d="M1.245 78.002V67.502H6.375C7.695 67.502 8.685 67.752 9.345 68.252C10.015 68.752 10.35 69.412 10.35 70.232C10.35 70.782 10.215 71.262 9.945 71.672C9.675 72.072 9.305 72.382 8.835 72.602C8.365 72.822 7.825 72.932 7.215 72.932L7.5 72.317C8.16 72.317 8.745 72.427 9.255 72.647C9.765 72.857 10.16 73.172 10.44 73.592C10.73 74.012 10.875 74.527 10.875 75.137C10.875 76.037 10.52 76.742 9.81 77.252C9.1 77.752 8.055 78.002 6.675 78.002H1.245ZM3.66 76.172H6.495C7.125 76.172 7.6 76.072 7.92 75.872C8.25 75.662 8.415 75.332 8.415 74.882C8.415 74.442 8.25 74.117 7.92 73.907C7.6 73.687 7.125 73.577 6.495 73.577H3.48V71.807H6.075C6.665 71.807 7.115 71.707 7.425 71.507C7.745 71.297 7.905 70.982 7.905 70.562C7.905 70.152 7.745 69.847 7.425 69.647C7.115 69.437 6.665 69.332 6.075 69.332H3.66V76.172ZM14.9497 71.732H20.0047V73.622H14.9497V71.732ZM15.1297 76.052H20.8447V78.002H12.7147V67.502H20.6497V69.452H15.1297V76.052ZM29.9782 67.502H32.4082V78.002H29.9782V67.502ZM25.2082 78.002H22.7782V67.502H25.2082V78.002ZM30.1582 73.697H25.0282V71.642H30.1582V73.697ZM33.5125 78.002L38.1925 67.502H40.5925L45.2875 78.002H42.7375L38.8975 68.732H39.8575L36.0025 78.002H33.5125ZM35.8525 75.752L36.4975 73.907H41.8975L42.5575 75.752H35.8525ZM46.3768 78.002V67.502H48.3868L54.5818 75.062H53.6068V67.502H56.0068V78.002H54.0118L47.8018 70.442H48.7768V78.002H46.3768ZM63.5161 78.182C62.7061 78.182 61.9511 78.052 61.2511 77.792C60.5611 77.522 59.9611 77.142 59.4511 76.652C58.9411 76.162 58.5411 75.587 58.2511 74.927C57.9711 74.267 57.8311 73.542 57.8311 72.752C57.8311 71.962 57.9711 71.237 58.2511 70.577C58.5411 69.917 58.9411 69.342 59.4511 68.852C59.9711 68.362 60.5761 67.987 61.2661 67.727C61.9561 67.457 62.7111 67.322 63.5311 67.322C64.4411 67.322 65.2611 67.482 65.9911 67.802C66.7311 68.112 67.3511 68.572 67.8511 69.182L66.2911 70.622C65.9311 70.212 65.5311 69.907 65.0911 69.707C64.6511 69.497 64.1711 69.392 63.6511 69.392C63.1611 69.392 62.7111 69.472 62.3011 69.632C61.8911 69.792 61.5361 70.022 61.2361 70.322C60.9361 70.622 60.7011 70.977 60.5311 71.387C60.3711 71.797 60.2911 72.252 60.2911 72.752C60.2911 73.252 60.3711 73.707 60.5311 74.117C60.7011 74.527 60.9361 74.882 61.2361 75.182C61.5361 75.482 61.8911 75.712 62.3011 75.872C62.7111 76.032 63.1611 76.112 63.6511 76.112C64.1711 76.112 64.6511 76.012 65.0911 75.812C65.5311 75.602 65.9311 75.287 66.2911 74.867L67.8511 76.307C67.3511 76.917 66.7311 77.382 65.9911 77.702C65.2611 78.022 64.4361 78.182 63.5161 78.182ZM71.7271 71.732H76.7821V73.622H71.7271V71.732ZM71.9071 76.052H77.6221V78.002H69.4921V67.502H77.4271V69.452H71.9071V76.052Z" fill="#3A3A39"/>
</svg>
