<svg width="35" height="35" viewBox="0 0 35 35" fill="none" xmlns="http://www.w3.org/2000/svg">
<g opacity="0.9">
<path d="M15.0068 30.4323C13.2745 30.4659 11.5596 30.0805 10.0074 29.3087C8.45515 28.5369 7.11132 27.4013 6.08968 25.9983C5.06804 24.5953 4.39866 22.9661 4.13829 21.2487C3.87793 19.5312 4.03425 17.7762 4.59395 16.1322C5.50158 13.4522 7.49638 11.6422 9.84026 10.1322C12.6529 8.3322 15.8246 7.64215 19.0163 6.95215C21.1108 6.50215 23.3749 6.36217 24.8909 4.47217C25.0246 4.40124 25.1736 4.36426 25.3248 4.36426C25.476 4.36426 25.625 4.40124 25.7587 4.47217C27.042 5.71217 28.2954 6.98223 29.5189 8.28223C29.595 8.41448 29.6351 8.56445 29.6351 8.71716C29.6351 8.86988 29.595 9.01997 29.5189 9.15222C28.1225 10.5922 27.8034 12.4522 27.4742 14.3022C26.9057 17.4322 26.7162 20.6622 25.1303 23.5222C23.3549 26.7522 21.041 29.3522 17.2908 30.2722C17.1142 30.337 16.9297 30.3773 16.7422 30.3922C16.1438 30.4422 15.5553 30.4323 15.0068 30.4323Z" fill="black"/>
<path d="M34.3762 17.2922C34.361 20.9268 33.1991 24.4634 31.0568 27.3957C28.9146 30.3279 25.9019 32.5053 22.4501 33.6161C18.9983 34.7269 15.2845 34.7142 11.8403 33.5798C8.39621 32.4453 5.39843 30.2472 3.27627 27.3003C1.15412 24.3535 0.0164441 20.8089 0.0260924 17.1742C0.0357406 13.5395 1.1922 10.0011 3.32997 7.0656C5.46774 4.1301 8.47717 1.94805 11.9273 0.831953C15.3774 -0.284143 19.0912 -0.277124 22.5371 0.852095C23.2552 1.06209 24.0731 1.33217 24.0332 2.30217C24.0643 2.77983 23.9348 3.25414 23.6654 3.64934C23.396 4.04453 23.0023 4.33773 22.5471 4.4821C20.273 5.1021 17.969 5.63216 15.665 6.17216C11.883 6.91977 8.42186 8.81539 5.75089 11.6021C1.00329 16.7821 1.39227 24.0021 6.61862 28.7321C12.8823 34.3921 22.0882 32.6121 26.008 24.9921C27.3638 22.3386 28.2353 19.4633 28.5813 16.5021C28.7829 15.0146 29.0795 13.5416 29.469 12.0921C29.6609 11.4404 29.9833 10.8348 30.4165 10.3122C30.5735 10.0686 30.7988 9.87702 31.0641 9.76152C31.3294 9.64602 31.6228 9.6117 31.9074 9.66301C32.1921 9.71432 32.4553 9.84894 32.6638 10.0498C32.8724 10.2508 33.0171 10.509 33.0796 10.7922C33.4367 11.7439 33.7266 12.7196 33.9473 13.7121C34.1867 14.8921 34.2465 16.1022 34.3762 17.2922Z" fill="black"/>
</g>
</svg>
