<svg width="82" height="97" viewBox="0 0 82 97" fill="none" xmlns="http://www.w3.org/2000/svg">
<g clip-path="url(#clip0_271_1750)">
<path d="M40.5012 0C23.1328 0 9.00244 14.133 9.00244 31.5002C9.00244 48.8675 23.1333 62.9995 40.5012 62.9995C57.8691 62.9995 72 48.8695 72 31.5002C72 14.131 57.8686 0 40.5012 0ZM61.227 14.8674C64.9432 19.4657 67.0125 25.1786 67.1043 31.0931C65.9087 30.8477 60.8456 29.903 54.795 29.903C52.7672 29.8966 50.7409 30.0145 48.7275 30.256C48.5532 29.8321 48.3808 29.413 48.1966 28.9841C47.6627 27.726 47.0867 26.4778 46.4904 25.248C55.8014 21.4063 60.2954 16.0739 61.227 14.8679V14.8674ZM40.5012 4.93068C46.9538 4.92463 53.1871 7.27447 58.0335 11.54C57.2906 12.5536 53.2686 17.5899 44.289 20.9853C40.1327 13.3783 35.5832 7.07841 34.5006 5.61601C36.4683 5.15992 38.4815 4.92999 40.5012 4.93068ZM29.068 7.51281C29.9858 8.77784 34.5422 15.1446 38.8054 22.6912C27.3648 25.7027 17.204 25.8986 14.7515 25.8986H14.491C16.2526 17.7699 21.7381 11.0148 29.068 7.51281ZM13.8867 31.5414C13.8867 31.3227 13.8907 31.103 13.8976 30.8848C14.0566 30.8848 14.2914 30.8848 14.5959 30.8848C17.8984 30.8848 29.3622 30.6111 41.1758 27.1012C41.8924 28.505 42.5754 29.9307 43.2098 31.355C42.9126 31.4407 42.6155 31.5265 42.3253 31.6222C29.024 35.9231 21.7134 47.3109 20.5881 49.172C16.42 44.4699 13.8867 38.2965 13.8867 31.5394V31.5414ZM40.5012 58.1506C34.6271 58.156 28.9177 56.2072 24.2699 52.6105C25.0307 51.1179 30.5484 41.1702 45.125 36.0907C45.1345 36.0869 45.1443 36.0836 45.1542 36.0808C48.8088 45.6085 50.3545 53.6053 50.7814 56.0833C47.5267 57.4522 44.0314 58.1552 40.5012 58.1506ZM55.575 53.46C55.218 51.4099 53.7842 43.9155 50.4738 34.7751C52.2461 34.5032 54.0367 34.3684 55.8296 34.372C61.3919 34.372 65.7428 35.5914 66.7536 35.9008C65.5516 43.1587 61.4013 49.4388 55.5745 53.46H55.575Z" fill="#3A3A39"/>
</g>
<path d="M1.245 93V82.5H6.015C7.155 82.5 8.16 82.72 9.03 83.16C9.9 83.59 10.58 84.195 11.07 84.975C11.56 85.755 11.805 86.68 11.805 87.75C11.805 88.81 11.56 89.735 11.07 90.525C10.58 91.305 9.9 91.915 9.03 92.355C8.16 92.785 7.155 93 6.015 93H1.245ZM3.675 91.005H5.895C6.595 91.005 7.2 90.875 7.71 90.615C8.23 90.345 8.63 89.965 8.91 89.475C9.2 88.985 9.345 88.41 9.345 87.75C9.345 87.08 9.2 86.505 8.91 86.025C8.63 85.535 8.23 85.16 7.71 84.9C7.2 84.63 6.595 84.495 5.895 84.495H3.675V91.005ZM13.6376 93V82.5H18.1826C19.1226 82.5 19.9326 82.655 20.6126 82.965C21.2926 83.265 21.8176 83.7 22.1876 84.27C22.5576 84.84 22.7426 85.52 22.7426 86.31C22.7426 87.09 22.5576 87.765 22.1876 88.335C21.8176 88.895 21.2926 89.325 20.6126 89.625C19.9326 89.925 19.1226 90.075 18.1826 90.075H14.9876L16.0676 89.01V93H13.6376ZM20.3126 93L17.6876 89.19H20.2826L22.9376 93H20.3126ZM16.0676 89.28L14.9876 88.14H18.0476C18.7976 88.14 19.3576 87.98 19.7276 87.66C20.0976 87.33 20.2826 86.88 20.2826 86.31C20.2826 85.73 20.0976 85.28 19.7276 84.96C19.3576 84.64 18.7976 84.48 18.0476 84.48H14.9876L16.0676 83.325V89.28ZM24.6679 93V82.5H27.0979V93H24.6679ZM29.5897 93V82.5H34.7197C36.0397 82.5 37.0297 82.75 37.6897 83.25C38.3597 83.75 38.6947 84.41 38.6947 85.23C38.6947 85.78 38.5597 86.26 38.2897 86.67C38.0197 87.07 37.6497 87.38 37.1797 87.6C36.7097 87.82 36.1697 87.93 35.5597 87.93L35.8447 87.315C36.5047 87.315 37.0897 87.425 37.5997 87.645C38.1097 87.855 38.5047 88.17 38.7847 88.59C39.0747 89.01 39.2197 89.525 39.2197 90.135C39.2197 91.035 38.8647 91.74 38.1547 92.25C37.4447 92.75 36.3997 93 35.0197 93H29.5897ZM32.0047 91.17H34.8397C35.4697 91.17 35.9447 91.07 36.2647 90.87C36.5947 90.66 36.7597 90.33 36.7597 89.88C36.7597 89.44 36.5947 89.115 36.2647 88.905C35.9447 88.685 35.4697 88.575 34.8397 88.575H31.8247V86.805H34.4197C35.0097 86.805 35.4597 86.705 35.7697 86.505C36.0897 86.295 36.2497 85.98 36.2497 85.56C36.2497 85.15 36.0897 84.845 35.7697 84.645C35.4597 84.435 35.0097 84.33 34.4197 84.33H32.0047V91.17ZM41.0595 93V82.5H46.1895C47.5095 82.5 48.4995 82.75 49.1595 83.25C49.8295 83.75 50.1645 84.41 50.1645 85.23C50.1645 85.78 50.0295 86.26 49.7595 86.67C49.4895 87.07 49.1195 87.38 48.6495 87.6C48.1795 87.82 47.6395 87.93 47.0295 87.93L47.3145 87.315C47.9745 87.315 48.5595 87.425 49.0695 87.645C49.5795 87.855 49.9745 88.17 50.2545 88.59C50.5445 89.01 50.6895 89.525 50.6895 90.135C50.6895 91.035 50.3345 91.74 49.6245 92.25C48.9145 92.75 47.8695 93 46.4895 93H41.0595ZM43.4745 91.17H46.3095C46.9395 91.17 47.4145 91.07 47.7345 90.87C48.0645 90.66 48.2295 90.33 48.2295 89.88C48.2295 89.44 48.0645 89.115 47.7345 88.905C47.4145 88.685 46.9395 88.575 46.3095 88.575H43.2945V86.805H45.8895C46.4795 86.805 46.9295 86.705 47.2395 86.505C47.5595 86.295 47.7195 85.98 47.7195 85.56C47.7195 85.15 47.5595 84.845 47.2395 84.645C46.9295 84.435 46.4795 84.33 45.8895 84.33H43.4745V91.17ZM52.5292 93V82.5H57.6592C58.9792 82.5 59.9692 82.75 60.6292 83.25C61.2992 83.75 61.6342 84.41 61.6342 85.23C61.6342 85.78 61.4992 86.26 61.2292 86.67C60.9592 87.07 60.5892 87.38 60.1192 87.6C59.6492 87.82 59.1092 87.93 58.4992 87.93L58.7842 87.315C59.4442 87.315 60.0292 87.425 60.5392 87.645C61.0492 87.855 61.4442 88.17 61.7242 88.59C62.0142 89.01 62.1592 89.525 62.1592 90.135C62.1592 91.035 61.8042 91.74 61.0942 92.25C60.3842 92.75 59.3392 93 57.9592 93H52.5292ZM54.9442 91.17H57.7792C58.4092 91.17 58.8842 91.07 59.2042 90.87C59.5342 90.66 59.6992 90.33 59.6992 89.88C59.6992 89.44 59.5342 89.115 59.2042 88.905C58.8842 88.685 58.4092 88.575 57.7792 88.575H54.7642V86.805H57.3592C57.9492 86.805 58.3992 86.705 58.7092 86.505C59.0292 86.295 59.1892 85.98 59.1892 85.56C59.1892 85.15 59.0292 84.845 58.7092 84.645C58.3992 84.435 57.9492 84.33 57.3592 84.33H54.9442V91.17ZM63.9989 93V82.5H66.4289V91.02H71.6939V93H63.9989ZM75.2866 86.73H80.3416V88.62H75.2866V86.73ZM75.4666 91.05H81.1816V93H73.0516V82.5H80.9866V84.45H75.4666V91.05Z" fill="#3A3A39"/>
<defs>
<clipPath id="clip0_271_1750">
<rect width="63" height="63" fill="white" transform="translate(9)"/>
</clipPath>
</defs>
</svg>
