<svg width="31" height="44" viewBox="0 0 31 44" fill="none" xmlns="http://www.w3.org/2000/svg">
<path opacity="0.9" d="M3.3456 28.3316C2.31263 27.5484 1.47482 26.5358 0.897948 25.3733C0.321072 24.2108 0.0208435 22.9301 0.0208435 21.6316C0.0208435 20.3332 0.321072 19.0523 0.897948 17.8898C1.47482 16.7273 2.31263 15.7147 3.3456 14.9316L2.83692 14.4516C1.58545 13.3513 0.696255 11.8963 0.28669 10.2787C-0.122875 8.66118 -0.0335423 6.95709 0.542918 5.39152C1.10359 3.81685 2.13542 2.45412 3.49748 1.48942C4.85954 0.524717 6.48542 0.00519299 8.15305 0.00162531C12.5815 0.00162531 17 0.00162531 21.4284 0.00162531C23.1402 -0.0324399 24.82 0.469724 26.2337 1.43815C27.6474 2.40657 28.7246 3.79293 29.3152 5.40421C29.9058 7.0155 29.9803 8.77138 29.5285 10.4272C29.0766 12.0829 28.1209 13.5561 26.7944 14.6415L26.4652 14.9316C27.5285 15.6733 28.4048 16.6533 29.0246 17.7937C29.6444 18.9342 29.9906 20.2037 30.0359 21.5016C30.1258 23.5126 29.4563 25.4836 28.1608 27.0215C25.787 29.9415 21.0793 31.4515 16.5013 28.1715V29.1715C16.5714 31.553 16.5115 33.9366 16.3217 36.3116C15.833 40.1416 12.9206 42.7216 8.95096 43.2216C7.20985 43.3618 5.46932 42.9442 3.98011 42.029C2.4909 41.1138 1.32987 39.7482 0.664366 38.1291C-0.00113994 36.5099 -0.136789 34.7206 0.27695 33.0192C0.690688 31.3178 1.63246 29.7919 2.96658 28.6615L3.3456 28.3316ZM13.3196 3.12162H8.70161C8.43231 3.12162 8.15303 3.12162 7.88374 3.12162C6.67361 3.23103 5.54001 3.76211 4.67994 4.6226C3.81987 5.48308 3.28775 6.61853 3.17606 7.83158C3.05993 9.01761 3.37712 10.2056 4.06869 11.1748C4.76025 12.1441 5.77921 12.8287 6.93626 13.1016C9.055 13.3469 11.1868 13.4604 13.3196 13.4416V3.12162ZM13.3196 26.6216V16.5215C11.4445 16.5215 9.63918 16.4415 7.84386 16.5215C6.61978 16.6283 5.47536 17.1749 4.62132 18.0606C3.76728 18.9463 3.26113 20.1114 3.19602 21.3416C3.12498 22.5595 3.50045 23.7614 4.2518 24.721C5.00315 25.6806 6.0785 26.3316 7.27534 26.5516C9.27054 26.6882 11.2719 26.7116 13.2697 26.6216H13.3196ZM16.591 3.14152V13.3016C18.4661 13.3016 20.3013 13.4216 22.1166 13.3016C23.3671 13.1984 24.5329 12.6265 25.3814 11.6997C26.23 10.773 26.6989 9.55956 26.6947 8.30155C26.7198 7.03458 26.2641 5.80537 25.4198 4.86234C24.5755 3.91931 23.4056 3.33286 22.1465 3.2216C20.2515 3.0216 18.4263 3.14152 16.5312 3.14152H16.591ZM13.2697 29.9215C11.3946 29.9215 9.49957 29.8115 7.62446 29.9215C6.37992 30.0591 5.23248 30.6611 4.4102 31.6078C3.58792 32.5545 3.15095 33.7767 3.18604 35.0315C3.21256 36.2788 3.69061 37.4739 4.5311 38.3938C5.3716 39.3138 6.51711 39.8959 7.75407 40.0315C10.4271 40.2315 12.9406 38.5115 13.2298 36.0315C13.3589 33.9973 13.3722 31.9573 13.2697 29.9215ZM26.6847 21.5716C26.6768 20.5653 26.3716 19.584 25.8076 18.7516C25.2437 17.9192 24.4463 17.2732 23.5163 16.8949C22.5862 16.5167 21.5652 16.4233 20.5822 16.6266C19.5993 16.83 18.6985 17.3209 17.9937 18.0373C17.2889 18.7537 16.8117 19.6636 16.6225 20.6518C16.4332 21.64 16.5403 22.6622 16.9302 23.5894C17.3202 24.5166 17.9756 25.3071 18.8135 25.861C19.6514 26.4149 20.6342 26.7075 21.6379 26.7016C22.9782 26.6831 24.2566 26.1329 25.1932 25.1714C26.1297 24.2099 26.6481 22.9155 26.6348 21.5716H26.6847Z" fill="black"/>
</svg>
