<svg width="1082" height="700" viewBox="0 0 1082 700" fill="none" xmlns="http://www.w3.org/2000/svg">
<rect width="1081.36" height="700" fill="#FAFAFA"/>
<path d="M552.708 528.524V518.254H551.036V528.524H552.708ZM556.219 528.524V520.874H556.369L559.035 528.524H561.384V518.254H559.773V525.904H559.622L556.957 518.254H554.592V528.524H556.219ZM563.266 518.254V528.524H566.639C568.687 528.524 570.133 527.275 570.133 524.76V522.019C570.133 519.504 568.687 518.254 566.639 518.254H563.266ZM568.476 524.76C568.476 526.461 567.889 526.973 566.639 526.973H564.937V519.805H566.639C567.889 519.805 568.476 520.302 568.476 522.019V524.76ZM574.943 528.675C576.991 528.675 578.316 527.47 578.316 525.181V518.254H576.645V525.181C576.645 526.672 576.193 527.169 574.943 527.169H574.853C573.603 527.169 573.151 526.672 573.151 525.181V518.254H571.48V525.181C571.48 527.47 572.805 528.675 574.853 528.675H574.943ZM583.021 528.675C585.084 528.675 586.5 527.726 586.5 525.769C586.5 523.856 585.054 523.133 583.172 522.546C582.148 522.23 581.244 521.914 581.244 520.874C581.244 520.001 581.756 519.61 582.735 519.61H582.825C584.06 519.61 584.602 520.001 584.602 521.432H586.259C586.259 519.128 584.858 518.104 582.825 518.104H582.735C580.958 518.104 579.588 519.052 579.558 520.874C579.543 522.516 580.536 523.314 582.313 523.916C583.413 524.293 584.843 524.564 584.843 525.769C584.843 526.793 584.271 527.169 583.021 527.169H582.931C581.621 527.169 581.033 526.778 581.033 525.362H579.377C579.377 527.651 580.823 528.675 582.931 528.675H583.021ZM586.558 518.254V519.805H589.344V528.524H591V519.805H593.786V518.254H586.558ZM601.533 528.524L599.259 524.79V524.654C600.735 524.323 601.503 523.299 601.503 521.537V521.477C601.503 519.323 600.358 518.254 598.144 518.254H594.681V528.524H596.352V524.76H597.422L599.68 528.524H601.533ZM599.861 521.537C599.861 522.757 599.5 523.224 598.144 523.224H596.352V519.805H598.144C599.5 519.805 599.861 520.242 599.861 521.477V521.537ZM604.408 528.524V518.254H602.737V528.524H604.408ZM613.28 528.524L610.66 518.254H608.145L605.449 528.524H607.241L607.934 525.618H610.856L611.548 528.524H613.28ZM609.32 519.805H609.485L610.494 524.067H608.311L609.32 519.805ZM615.976 518.254H614.305V528.524H620.072V526.973H615.976V518.254ZM624.122 518.254V528.524H627.495C629.543 528.524 630.989 527.275 630.989 524.76V522.019C630.989 519.504 629.543 518.254 627.495 518.254H624.122ZM629.333 524.76C629.333 526.461 628.745 526.973 627.495 526.973H625.794V519.805H627.495C628.745 519.805 629.333 520.302 629.333 522.019V524.76ZM638.811 518.254H632.502V528.524H638.811V526.973H634.173V524.127H637.607V522.591H634.173V519.805H638.811V518.254ZM642.966 528.675C645.029 528.675 646.444 527.726 646.444 525.769C646.444 523.856 644.999 523.133 643.116 522.546C642.092 522.23 641.189 521.914 641.189 520.874C641.189 520.001 641.701 519.61 642.68 519.61H642.77C644.005 519.61 644.547 520.001 644.547 521.432H646.204C646.204 519.128 644.803 518.104 642.77 518.104H642.68C640.903 518.104 639.532 519.052 639.502 520.874C639.487 522.516 640.481 523.314 642.258 523.916C643.357 524.293 644.788 524.564 644.788 525.769C644.788 526.793 644.216 527.169 642.966 527.169H642.875C641.565 527.169 640.978 526.778 640.978 525.362H639.322C639.322 527.651 640.767 528.675 642.875 528.675H642.966ZM649.315 528.524V518.254H647.643V528.524H649.315ZM656.229 524.865V524.91C656.229 526.627 655.491 527.169 654.376 527.169H654.301C653.066 527.169 652.494 526.627 652.494 524.91V521.868C652.494 520.152 653.066 519.61 654.331 519.61H654.422C655.656 519.61 656.229 520.152 656.229 521.868H657.9C657.9 519.354 656.455 518.104 654.422 518.104H654.331C652.268 518.104 650.822 519.354 650.822 521.868V524.91C650.822 527.425 652.042 528.675 653.895 528.675H653.985C655.144 528.675 655.807 528.238 656.168 527.335H656.349V528.524H657.9V523.329H654.557V524.865H656.229ZM661.014 528.524V520.874H661.164L663.83 528.524H666.179V518.254H664.568V525.904H664.417L661.752 518.254H659.387V528.524H661.014ZM674.054 528.675C676.117 528.675 677.533 527.726 677.533 525.769C677.533 523.856 676.087 523.133 674.205 522.546C673.181 522.23 672.277 521.914 672.277 520.874C672.277 520.001 672.789 519.61 673.768 519.61H673.859C675.093 519.61 675.636 520.001 675.636 521.432H677.292C677.292 519.128 675.892 518.104 673.859 518.104H673.768C671.991 518.104 670.621 519.052 670.591 520.874C670.576 522.516 671.57 523.314 673.347 523.916C674.446 524.293 675.876 524.564 675.876 525.769C675.876 526.793 675.304 527.169 674.054 527.169H673.964C672.654 527.169 672.067 526.778 672.067 525.362H670.41C670.41 527.651 671.856 528.675 673.964 528.675H674.054ZM677.591 518.254V519.805H680.377V528.524H682.033V519.805H684.819V518.254H677.591ZM689.012 528.675C691.06 528.675 692.385 527.47 692.385 525.181V518.254H690.714V525.181C690.714 526.672 690.262 527.169 689.012 527.169H688.922C687.672 527.169 687.22 526.672 687.22 525.181V518.254H685.548V525.181C685.548 527.47 686.873 528.675 688.922 528.675H689.012ZM694.108 518.254V528.524H697.481C699.529 528.524 700.975 527.275 700.975 524.76V522.019C700.975 519.504 699.529 518.254 697.481 518.254H694.108ZM699.319 524.76C699.319 526.461 698.731 526.973 697.481 526.973H695.78V519.805H697.481C698.731 519.805 699.319 520.302 699.319 522.019V524.76ZM704.159 528.524V518.254H702.488V528.524H704.159ZM709.251 528.675C711.299 528.675 712.745 527.425 712.745 524.91V521.868C712.745 519.354 711.299 518.104 709.251 518.104H709.161C707.113 518.104 705.667 519.354 705.667 521.868V524.91C705.667 527.425 707.113 528.675 709.161 528.675H709.251ZM709.161 527.169C707.911 527.169 707.339 526.612 707.339 524.91V521.868C707.339 520.167 707.911 519.61 709.161 519.61H709.251C710.501 519.61 711.073 520.167 711.073 521.868V524.91C711.073 526.612 710.501 527.169 709.251 527.169H709.161Z" fill="#222222"/>
<path d="M554.625 545.597C555.336 545.348 555.687 544.795 555.687 543.982V543.846C555.687 542.649 554.952 541.915 553.518 541.915H551.112V549.617H553.812C555.212 549.617 555.969 548.861 555.969 547.539V547.449C555.969 546.466 555.517 545.902 554.625 545.698V545.597ZM554.998 543.993C554.998 544.93 554.557 545.382 553.518 545.382H551.801V542.559H553.518C554.557 542.559 554.998 543.01 554.998 543.891V543.993ZM555.28 547.505C555.28 548.522 554.817 548.974 553.8 548.974H551.801V546.026H553.8C554.817 546.026 555.28 546.478 555.28 547.426V547.505ZM559.692 549.73C561.183 549.73 562.131 548.962 562.131 547.11V541.915H561.442V547.11C561.442 548.556 560.866 549.087 559.692 549.087H559.635C558.472 549.087 557.896 548.556 557.896 547.11V541.915H557.207V547.11C557.207 548.974 558.167 549.73 559.635 549.73H559.692ZM568.309 541.915H563.814V549.617H568.309V548.974H564.514V546.071H567.36V545.427H564.514V542.559H568.309V541.915ZM570.137 549.617V542.841H570.227L573.197 549.617H574.259V541.915H573.581V548.68H573.491L570.521 541.915H569.448V549.617H570.137ZM578.311 549.73C579.802 549.73 580.807 548.94 580.807 546.997V544.524C580.807 542.581 579.802 541.802 578.311 541.802H578.266C576.786 541.802 575.759 542.57 575.759 544.524V546.997C575.759 548.962 576.786 549.73 578.266 549.73H578.311ZM578.266 549.087C577.091 549.087 576.459 548.544 576.459 546.997V544.512C576.459 542.976 577.091 542.446 578.266 542.446H578.311C579.474 542.446 580.118 542.976 580.118 544.512V546.997C580.118 548.544 579.474 549.087 578.311 549.087H578.266ZM584.439 549.73C585.93 549.73 586.935 548.985 586.935 547.675C586.935 546.015 585.421 545.664 584.518 545.36C583.671 545.066 582.62 544.84 582.62 543.756C582.62 542.92 583.129 542.434 584.213 542.434H584.269C585.354 542.434 586.065 542.886 586.065 544.275H586.754C586.754 542.491 585.681 541.802 584.269 541.802H584.213C582.824 541.802 581.931 542.525 581.92 543.756C581.92 545.28 583.321 545.653 584.201 545.958C585.128 546.274 586.246 546.478 586.246 547.675C586.246 548.612 585.613 549.087 584.439 549.087H584.371C583.117 549.087 582.44 548.646 582.44 547.257H581.739C581.739 549.019 582.812 549.73 584.371 549.73H584.439ZM595.428 549.617L593.236 541.915H592.163L589.95 549.617H590.707L591.395 547.155H594.004L594.682 549.617H595.428ZM592.66 542.581H592.739L593.824 546.512H591.565L592.66 542.581ZM597.27 549.617V541.915H596.569V549.617H597.27ZM603.838 544.196C603.838 542.559 602.957 541.915 601.601 541.915H599.049V549.617H599.749V546.5H601.014L602.945 549.617H603.736L601.838 546.557V546.489C603.058 546.421 603.838 545.755 603.838 544.219V544.196ZM603.149 544.219C603.149 545.484 602.64 545.845 601.601 545.845H599.749V542.559H601.601C602.64 542.559 603.149 542.931 603.149 544.196V544.219ZM609.542 541.915H605.047V549.617H609.542V548.974H605.747V546.071H608.593V545.427H605.747V542.559H609.542V541.915ZM612.738 549.73C614.229 549.73 615.234 548.985 615.234 547.675C615.234 546.015 613.721 545.664 612.817 545.36C611.97 545.066 610.92 544.84 610.92 543.756C610.92 542.92 611.428 542.434 612.512 542.434H612.569C613.653 542.434 614.365 542.886 614.365 544.275H615.053C615.053 542.491 613.981 541.802 612.569 541.802H612.512C611.123 541.802 610.231 542.525 610.22 543.756C610.22 545.28 611.62 545.653 612.501 545.958C613.427 546.274 614.545 546.478 614.545 547.675C614.545 548.612 613.913 549.087 612.738 549.087H612.67C611.417 549.087 610.739 548.646 610.739 547.257H610.039C610.039 549.019 611.112 549.73 612.67 549.73H612.738ZM623.52 546.681V546.026H620.922V546.681H623.52ZM632.18 549.617L629.989 541.915H628.916L626.702 549.617H627.459L628.148 547.155H630.757L631.435 549.617H632.18ZM629.413 542.581H629.492L630.576 546.512H628.317L629.413 542.581ZM638.111 544.196C638.111 542.559 637.23 541.915 635.874 541.915H633.322V549.617H634.022V546.5H635.287L637.218 549.617H638.009L636.112 546.557V546.489C637.331 546.421 638.111 545.755 638.111 544.219V544.196ZM637.422 544.219C637.422 545.484 636.913 545.845 635.874 545.845H634.022V542.559H635.874C636.913 542.559 637.422 542.931 637.422 544.196V544.219ZM643.386 546.613V546.997C643.386 548.533 642.719 549.087 641.522 549.087H641.477C640.359 549.087 639.726 548.533 639.726 546.997V544.524C639.726 542.988 640.359 542.446 641.533 542.446H641.579C642.742 542.446 643.386 542.988 643.386 544.524H644.075C644.075 542.581 643.069 541.802 641.579 541.802H641.533C640.054 541.802 639.026 542.57 639.026 544.524V546.997C639.026 548.962 640.02 549.73 641.409 549.73H641.454C642.403 549.73 643.002 549.403 643.295 548.635H643.397V549.617H644.075V545.969H641.906V546.613H643.386ZM650.055 541.915H645.56V549.617H650.055V548.974H646.26V546.071H649.107V545.427H646.26V542.559H650.055V541.915ZM651.883 549.617V542.841H651.973L654.944 549.617H656.005V541.915H655.328V548.68H655.237L652.267 541.915H651.194V549.617H651.883ZM656.918 541.915V542.559H659.176V549.617H659.865V542.559H662.124V541.915H656.918ZM663.714 549.617V541.915H663.013V549.617H663.714ZM666.182 549.617V542.841H666.272L669.242 549.617H670.304V541.915H669.626V548.68H669.536L666.566 541.915H665.493V549.617H666.182ZM676.931 549.617L674.74 541.915H673.667L671.453 549.617H672.21L672.899 547.155H675.508L676.186 549.617H676.931ZM674.164 542.581H674.243L675.327 546.512H673.069L674.164 542.581Z" fill="#222222"/>
<path d="M451.242 336.198H452.883V334.557V197.445L500.845 335.097L501.229 336.198H502.395H514.151H515.792H545.068H545.608H546.709H547.25V334.557V202.982H547.547L577.479 270.936L577.91 271.916H578.981H594.846H595.909L596.344 270.946L626.82 202.982H626.851V334.557V336.198H628.492H658.309H659.95V334.557V148V146.359H658.309H623.021H621.941L621.514 147.352L587.474 226.507H586.627L552.587 147.352L552.16 146.359H551.079H546.709H545.068H515.798H515.792H514.157H514.151V148V285.094L466.196 147.46L465.812 146.359H464.646H421.699H420.058V148V334.557V336.198H421.699H451.242ZM421.699 360.27H420.058V361.912V548.469V550.11H421.699H452.063H453.704V548.469V481.724H487.897C508.242 481.724 523.969 476.812 534.609 466.67C545.262 456.515 550.539 441.382 550.539 421.544V420.45C550.539 400.612 545.262 385.479 534.609 375.324C523.969 365.183 508.242 360.27 487.897 360.27H421.699ZM517.44 421.544C517.44 432.564 515.781 439.637 511.54 444.032C507.31 448.415 500.112 450.54 487.897 450.54H453.704V391.728H487.897C500.135 391.728 507.329 393.725 511.552 398.009C515.778 402.296 517.44 409.286 517.44 420.45V421.544Z" fill="#222222" stroke="#222222" stroke-width="3.28253"/>
<path d="M508.958 551.477V514.549H472.03V551.477H508.958Z" fill="#222222"/>
<path d="M508.958 551.477V514.549H472.03V551.477H508.958Z" stroke="#222222"/>
<path d="M942.023 52.2973V60H944.553C946.089 60 947.173 59.0626 947.173 57.1764V55.1209C947.173 53.2348 946.089 52.2973 944.553 52.2973H942.023ZM945.931 57.1764C945.931 58.4527 945.49 58.8367 944.553 58.8367H943.277V53.4606H944.553C945.49 53.4606 945.931 53.8334 945.931 55.1209V57.1764ZM950.713 60.1129C952.249 60.1129 953.334 59.1755 953.334 57.2894V55.008C953.334 53.1218 952.249 52.1844 950.713 52.1844H950.646C949.11 52.1844 948.025 53.1218 948.025 55.008V57.2894C948.025 59.1755 949.11 60.1129 950.646 60.1129H950.713ZM950.646 58.9835C949.708 58.9835 949.279 58.5656 949.279 57.2894V55.008C949.279 53.7317 949.708 53.3138 950.646 53.3138H950.713C951.651 53.3138 952.08 53.7317 952.08 55.008V57.2894C952.08 58.5656 951.651 58.9835 950.713 58.9835H950.646ZM956.685 60.1129C958.232 60.1129 959.294 59.4014 959.294 57.9332C959.294 56.4988 958.21 55.9567 956.798 55.5162C956.03 55.279 955.352 55.0418 955.352 54.2625C955.352 53.6075 955.736 53.3138 956.471 53.3138H956.538C957.464 53.3138 957.871 53.6075 957.871 54.6804H959.113C959.113 52.9524 958.063 52.1844 956.538 52.1844H956.471C955.138 52.1844 954.11 52.8959 954.087 54.2625C954.076 55.4936 954.822 56.0922 956.154 56.544C956.979 56.8263 958.052 57.0296 958.052 57.9332C958.052 58.7012 957.623 58.9835 956.685 58.9835H956.617C955.635 58.9835 955.194 58.6899 955.194 57.6282H953.952C953.952 59.3449 955.036 60.1129 956.617 60.1129H956.685ZM963.683 60V54.4997H963.807L965.061 57.3459H965.716L966.992 54.4997H967.105V60H968.336V52.2973H966.879L965.456 55.6066H965.332L963.909 52.2973H962.452V60H963.683ZM970.994 60V52.2973H969.74V60H970.994ZM973.661 52.2973H972.407V60H976.733V58.8367H973.661V52.2973ZM983.046 60L985.011 52.2973H983.712L982.165 58.8367H982.041L980.482 52.2973H979.138L981.16 60H983.046ZM990.512 52.2973H985.779V60H990.512V58.8367H987.033V56.7021H989.608V55.5501H987.033V53.4606H990.512V52.2973ZM992.678 60V52.2973H991.424V60H992.678ZM995.311 60V54.2625H995.424L997.423 60H999.185V52.2973H997.976V58.0348H997.863L995.864 52.2973H994.091V60H995.311ZM999.862 52.2973V53.4606H1001.95V60H1003.19V53.4606H1005.28V52.2973H999.862ZM1007.21 60V52.2973H1005.95V60H1007.21ZM1007.89 52.2973V53.4606H1009.98V60H1011.22V53.4606H1013.31V52.2973H1007.89ZM1019.12 60L1017.41 57.199V57.0974C1018.52 56.8489 1019.1 56.0809 1019.1 54.7595V54.7143C1019.1 53.0992 1018.24 52.2973 1016.58 52.2973H1013.98V60H1015.23V57.1764H1016.04L1017.73 60H1019.12ZM1017.86 54.7595C1017.86 55.6743 1017.59 56.0244 1016.58 56.0244H1015.23V53.4606H1016.58C1017.59 53.4606 1017.86 53.7882 1017.86 54.7143V54.7595ZM1024.75 52.2973H1020.02V60H1024.75V58.8367H1021.28V56.7021H1023.85V55.5501H1021.28V53.4606H1024.75V52.2973ZM1027.87 60.1129C1029.42 60.1129 1030.48 59.4014 1030.48 57.9332C1030.48 56.4988 1029.39 55.9567 1027.98 55.5162C1027.21 55.279 1026.54 55.0418 1026.54 54.2625C1026.54 53.6075 1026.92 53.3138 1027.65 53.3138H1027.72C1028.65 53.3138 1029.06 53.6075 1029.06 54.6804H1030.3C1030.3 52.9524 1029.25 52.1844 1027.72 52.1844H1027.65C1026.32 52.1844 1025.29 52.8959 1025.27 54.2625C1025.26 55.4936 1026.01 56.0922 1027.34 56.544C1028.16 56.8263 1029.24 57.0296 1029.24 57.9332C1029.24 58.7012 1028.81 58.9835 1027.87 58.9835H1027.8C1026.82 58.9835 1026.38 58.6899 1026.38 57.6282H1025.14C1025.14 59.3449 1026.22 60.1129 1027.8 60.1129H1027.87Z" fill="#222222"/>
<path d="M55.9633 54.5788C55.9633 52.9411 55.0824 52.2973 53.7271 52.2973H51.1746V60H51.8748V56.8828H53.1398L55.0711 60H55.8617L53.9643 56.9393V56.8715C55.184 56.8037 55.9633 56.1374 55.9633 54.6014V54.5788ZM55.2744 54.6014C55.2744 55.8663 54.7662 56.2277 53.7271 56.2277H51.8748V52.9411H53.7271C54.7662 52.9411 55.2744 53.3138 55.2744 54.5788V54.6014ZM62.0064 60L59.8153 52.2973H58.7423L56.5287 60H57.2854L57.9743 57.5379H60.5833L61.2609 60H62.0064ZM59.2393 52.9637H59.3183L60.4026 56.8941H58.1437L59.2393 52.9637ZM63.8372 60V53.2799H63.9275L65.6555 57.2781H66.0283L67.7563 53.2799H67.8466V60H68.5356V52.2973H67.4852L65.8814 56.16H65.7911L64.1986 52.2973H63.1482V60H63.8372ZM71.0154 60V52.2973H70.3152V60H71.0154ZM77.5834 54.5788C77.5834 52.9411 76.7024 52.2973 75.3471 52.2973H72.7946V60H73.4949V56.8828H74.7598L76.6911 60H77.4817L75.5843 56.9393V56.8715C76.8041 56.8037 77.5834 56.1374 77.5834 54.6014V54.5788ZM76.8944 54.6014C76.8944 55.8663 76.3862 56.2277 75.3471 56.2277H73.4949V52.9411H75.3471C76.3862 52.9411 76.8944 53.3138 76.8944 54.5788V54.6014ZM81.0513 60.1129C82.5422 60.1129 83.5473 59.3223 83.5473 57.3797V54.9063C83.5473 52.9637 82.5422 52.1844 81.0513 52.1844H81.0061C79.5266 52.1844 78.4988 52.9524 78.4988 54.9063V57.3797C78.4988 59.3449 79.5266 60.1129 81.0061 60.1129H81.0513ZM81.0061 59.4692C79.8315 59.4692 79.1991 58.927 79.1991 57.3797V54.895C79.1991 53.359 79.8315 52.8282 81.0061 52.8282H81.0513C82.2146 52.8282 82.8584 53.359 82.8584 54.895V57.3797C82.8584 58.927 82.2146 59.4692 81.0513 59.4692H81.0061ZM88.1352 60V53.2235H88.2255L91.1959 60H92.2576V52.2973H91.5799V59.0626H91.4896L88.5192 52.2973H87.4462V60H88.1352ZM94.7509 60V52.2973H94.0507V60H94.7509ZM101.025 52.2973H96.5301V60H101.025V59.3562H97.2304V56.4536H100.077V55.8098H97.2304V52.9411H101.025V52.2973ZM101.283 52.2973V52.9411H103.542V60H104.231V52.9411H106.49V52.2973H101.283ZM109.483 60.1129C110.974 60.1129 111.979 59.3223 111.979 57.3797V54.9063C111.979 52.9637 110.974 52.1844 109.483 52.1844H109.438C107.958 52.1844 106.931 52.9524 106.931 54.9063V57.3797C106.931 59.3449 107.958 60.1129 109.438 60.1129H109.483ZM109.438 59.4692C108.263 59.4692 107.631 58.927 107.631 57.3797V54.895C107.631 53.359 108.263 52.8282 109.438 52.8282H109.483C110.646 52.8282 111.29 53.359 111.29 54.895V57.3797C111.29 58.927 110.646 59.4692 109.483 59.4692H109.438ZM116.567 60V53.2799H116.657L118.385 57.2781H118.758L120.486 53.2799H120.576V60H121.265V52.2973H120.215L118.611 56.16H118.521L116.928 52.2973H115.878V60H116.567ZM125.304 60.1129C126.795 60.1129 127.8 59.3223 127.8 57.3797V54.9063C127.8 52.9637 126.795 52.1844 125.304 52.1844H125.259C123.779 52.1844 122.751 52.9524 122.751 54.9063V57.3797C122.751 59.3449 123.779 60.1129 125.259 60.1129H125.304ZM125.259 59.4692C124.084 59.4692 123.452 58.927 123.452 57.3797V54.895C123.452 53.359 124.084 52.8282 125.259 52.8282H125.304C126.467 52.8282 127.111 53.359 127.111 54.895V57.3797C127.111 58.927 126.467 59.4692 125.304 59.4692H125.259ZM134.074 54.5788C134.074 52.9411 133.193 52.2973 131.838 52.2973H129.286V60H129.986V56.8828H131.251L133.182 60H133.973L132.075 56.9393V56.8715C133.295 56.8037 134.074 56.1374 134.074 54.6014V54.5788ZM133.385 54.6014C133.385 55.8663 132.877 56.2277 131.838 56.2277H129.986V52.9411H131.838C132.877 52.9411 133.385 53.3138 133.385 54.5788V54.6014ZM139.778 52.2973H135.283V60H139.778V59.3562H135.984V56.4536H138.83V55.8098H135.984V52.9411H139.778V52.2973ZM141.606 60V53.2235H141.697L144.667 60H145.729V52.2973H145.051V59.0626H144.961L141.99 52.2973H140.917V60H141.606ZM149.781 60.1129C151.271 60.1129 152.277 59.3223 152.277 57.3797V54.9063C152.277 52.9637 151.271 52.1844 149.781 52.1844H149.735C148.256 52.1844 147.228 52.9524 147.228 54.9063V57.3797C147.228 59.3449 148.256 60.1129 149.735 60.1129H149.781ZM149.735 59.4692C148.561 59.4692 147.928 58.927 147.928 57.3797V54.895C147.928 53.359 148.561 52.8282 149.735 52.8282H149.781C150.944 52.8282 151.588 53.359 151.588 54.895V57.3797C151.588 58.927 150.944 59.4692 149.781 59.4692H149.735ZM156.221 61.5925L159.022 51.2922H158.344L155.554 61.5925H156.221ZM163.29 60V52.2973H162.59V60H163.29ZM169.136 56.9957V57.3797C169.136 58.9158 168.469 59.4692 167.272 59.4692H167.227C166.109 59.4692 165.476 58.9158 165.476 57.3797V54.9063C165.476 53.3703 166.109 52.8282 167.283 52.8282H167.329C168.492 52.8282 169.136 53.3703 169.136 54.9063H169.825C169.825 52.9637 168.819 52.1844 167.329 52.1844H167.283C165.804 52.1844 164.776 52.9524 164.776 54.9063V57.3797C164.776 59.3449 165.77 60.1129 167.159 60.1129H167.204C168.153 60.1129 168.752 59.7854 169.045 59.0174H169.147V60H169.825V56.352H167.656V56.9957H169.136ZM171.999 60V53.2235H172.089L175.06 60H176.122V52.2973H175.444V59.0626H175.354L172.383 52.2973H171.31V60H171.999ZM182.749 60L180.557 52.2973H179.485L177.271 60H178.028L178.717 57.5379H181.325L182.003 60H182.749ZM179.981 52.9637H180.061L181.145 56.8941H178.886L179.981 52.9637ZM185.973 60.1129C187.464 60.1129 188.469 59.3223 188.469 57.3797H187.78C187.78 58.9158 187.136 59.4692 185.973 59.4692H185.928C184.753 59.4692 184.121 58.9158 184.121 57.3797V54.9063C184.121 53.3703 184.753 52.8282 185.928 52.8282H185.973C187.136 52.8282 187.78 53.3703 187.78 54.9063H188.469C188.469 52.9637 187.464 52.1844 185.973 52.1844H185.928C184.448 52.1844 183.42 52.9524 183.42 54.9063V57.3797C183.42 59.3449 184.448 60.1129 185.928 60.1129H185.973ZM190.655 60V52.2973H189.954V60H190.655ZM194.693 60.1129C196.184 60.1129 197.189 59.3223 197.189 57.3797V54.9063C197.189 52.9637 196.184 52.1844 194.693 52.1844H194.648C193.168 52.1844 192.14 52.9524 192.14 54.9063V57.3797C192.14 59.3449 193.168 60.1129 194.648 60.1129H194.693ZM194.648 59.4692C193.473 59.4692 192.84 58.927 192.84 57.3797V54.895C192.84 53.359 193.473 52.8282 194.648 52.8282H194.693C195.856 52.8282 196.5 53.359 196.5 54.895V57.3797C196.5 58.927 195.856 59.4692 194.693 59.4692H194.648ZM201.088 52.2973V60H201.788V56.8828H203.708C205.063 56.8828 205.944 56.239 205.944 54.6014V54.5788C205.944 52.9411 205.063 52.2973 203.708 52.2973H201.088ZM205.255 54.6014C205.255 55.8663 204.747 56.2277 203.708 56.2277H201.788V52.9411H203.708C204.747 52.9411 205.255 53.3138 205.255 54.5788V54.6014ZM211.514 52.2973H207.019V60H211.514V59.3562H207.72V56.4536H210.566V55.8098H207.72V52.9411H211.514V52.2973ZM212.653 52.2973V60H215.081C216.561 60 217.577 59.2094 217.577 57.2668V55.0193C217.577 53.0766 216.561 52.2973 215.081 52.2973H212.653ZM216.889 57.2668C216.889 58.7915 216.245 59.3562 215.081 59.3562H213.353V52.9411H215.081C216.245 52.9411 216.889 53.4945 216.889 55.0193V57.2668ZM223.859 54.5788C223.859 52.9411 222.978 52.2973 221.623 52.2973H219.07V60H219.77V56.8828H221.035L222.967 60H223.757L221.86 56.9393V56.8715C223.08 56.8037 223.859 56.1374 223.859 54.6014V54.5788ZM223.17 54.6014C223.17 55.8663 222.662 56.2277 221.623 56.2277H219.77V52.9411H221.623C222.662 52.9411 223.17 53.3138 223.17 54.5788V54.6014ZM229.902 60L227.711 52.2973H226.638L224.424 60H225.181L225.87 57.5379H228.479L229.156 60H229.902ZM227.135 52.9637H227.214L228.298 56.8941H226.039L227.135 52.9637ZM235.302 60V59.3562H231.349V59.2659L235.268 52.975V52.2973H230.773V52.9411H234.5V53.0315L230.569 59.3336V60H235.302ZM241.445 60L239.254 52.2973H238.181L235.968 60H236.724L237.413 57.5379H240.022L240.7 60H241.445ZM238.678 52.9637H238.757L239.842 56.8941H237.583L238.678 52.9637Z" fill="#222222"/>
</svg>
