<svg width="100" height="100" viewBox="0 0 100 100" fill="none" xmlns="http://www.w3.org/2000/svg">
<g clip-path="url(#clip0_304_1123)">
<path d="M51.0162 98.2701C77.114 98.2701 98.2704 77.1137 98.2704 51.0159C98.2704 24.9181 77.114 3.76172 51.0162 3.76172C24.9185 3.76172 3.76204 24.9181 3.76204 51.0159C3.76204 77.1137 24.9185 98.2701 51.0162 98.2701Z" fill="#F8F4EF"/>
<path d="M51.0162 100C44.581 100.018 38.2061 98.7586 32.2607 96.2959C26.3153 93.8333 20.9174 90.2158 16.3794 85.653C11.8167 81.1149 8.19926 75.717 5.73661 69.7716C3.27395 63.8262 2.01497 57.4514 2.03247 51.0162C2.01486 44.5809 3.27375 38.2061 5.73641 32.2607C8.19907 26.3153 11.8166 20.9173 16.3794 16.3794C20.9174 11.8165 26.3153 8.19909 32.2607 5.73642C38.2061 3.27376 44.581 2.0148 51.0162 2.03241C57.4515 2.0148 63.8263 3.27376 69.7717 5.73642C75.7171 8.19909 81.115 11.8165 85.653 16.3794C90.2158 20.9173 93.8333 26.3153 96.296 32.2607C98.7587 38.2061 100.018 44.5809 99.9999 51.0162C100.017 57.4514 98.7585 63.8262 96.2958 69.7716C93.8331 75.717 90.2157 81.1149 85.653 85.653C81.115 90.2158 75.7171 93.8333 69.7717 96.2959C63.8263 98.7586 57.4515 100.018 51.0162 100ZM51.0162 5.4916C25.9136 5.4916 5.4896 25.9135 5.4896 51.0182C5.4896 76.1229 25.9136 96.5448 51.0162 96.5448C76.1188 96.5448 96.5428 76.1208 96.5428 51.0182C96.5428 25.9156 76.1188 5.48956 51.0162 5.48956V5.4916Z" fill="#3A3A39"/>
<path d="M48.9838 96.2378C75.0815 96.2378 96.238 75.0814 96.238 48.9837C96.238 22.8859 75.0815 1.72949 48.9838 1.72949C22.886 1.72949 1.7296 22.8859 1.7296 48.9837C1.7296 75.0814 22.886 96.2378 48.9838 96.2378Z" fill="#F8F4EF"/>
<path d="M48.9838 97.9677C42.5485 97.9853 36.1737 96.7264 30.2283 94.2637C24.2829 91.801 18.8849 88.1836 14.347 83.6208C9.78422 79.0827 6.16682 73.6848 3.70417 67.7394C1.24151 61.794 -0.0174686 55.4192 2.9652e-05 48.9839C-0.0175809 42.5487 1.24131 36.1739 3.70397 30.2285C6.16663 24.283 9.78413 18.8851 14.347 14.3472C18.8849 9.78431 24.2829 6.16686 30.2283 3.7042C36.1737 1.24153 42.5485 -0.0174283 48.9838 0.000182229C55.419 -0.0174283 61.7938 1.24153 67.7393 3.7042C73.6847 6.16686 79.0826 9.78431 83.6206 14.3472C88.1834 18.8851 91.8009 24.283 94.2636 30.2285C96.7262 36.1739 97.9851 42.5487 97.9675 48.9839C97.985 55.4192 96.726 61.794 94.2634 67.7394C91.8007 73.6848 88.1833 79.0827 83.6206 83.6208C79.0826 88.1836 73.6847 91.801 67.7393 94.2637C61.7938 96.7264 55.419 97.9853 48.9838 97.9677ZM48.9838 3.45937C23.8811 3.45937 3.45716 23.8813 3.45716 48.986C3.45716 74.0906 23.8811 94.5126 48.9838 94.5126C74.0864 94.5126 94.5104 74.0886 94.5104 48.986C94.5104 23.8833 74.0864 3.45734 48.9838 3.45734V3.45937Z" fill="#3A3A39"/>
<path d="M18.2473 32.7915C18.0405 33.2016 17.7609 33.5708 17.4221 33.8809C17.1065 34.1705 16.7351 34.3925 16.3306 34.5333C15.9333 34.671 15.5125 34.7277 15.0929 34.7C14.6485 34.6665 14.2156 34.5427 13.8207 34.3361C13.4226 34.1389 13.069 33.8623 12.782 33.5232C12.5126 33.1984 12.3121 32.8222 12.1926 32.4175C12.0724 32.0069 12.0345 31.5766 12.0809 31.1513C12.1338 30.6929 12.2716 30.2483 12.4874 29.8404C12.7102 29.3879 13.0235 28.986 13.408 28.6595C13.7643 28.3578 14.1894 28.1484 14.6457 28.0498L14.9872 29.2693C14.6923 29.3401 14.4154 29.4716 14.1742 29.6554C13.942 29.8388 13.7532 30.0713 13.6214 30.3363C13.4926 30.5796 13.4113 30.8451 13.3816 31.1188C13.3547 31.3721 13.381 31.6282 13.4588 31.8708C13.5376 32.1144 13.6656 32.3393 13.8348 32.5313C14.02 32.739 14.2436 32.9088 14.4933 33.0313C14.7389 33.1615 15.0074 33.2429 15.284 33.2712C15.5389 33.2957 15.7962 33.268 16.0401 33.1898C16.2825 33.1115 16.5055 32.9827 16.6945 32.8118C16.8982 32.627 17.0658 32.4057 17.1884 32.1594C17.3256 31.897 17.4033 31.6077 17.416 31.3119C17.4231 31.0055 17.3642 30.7012 17.2432 30.4196L18.4302 29.9827C18.6183 30.4107 18.7005 30.8778 18.67 31.3444C18.6295 31.8506 18.4856 32.3431 18.2473 32.7915Z" fill="#3A3A39"/>
<path d="M20.0215 29.5169L15.032 25.7345L15.9078 24.5801L19.9545 27.6491L21.8507 25.1471L22.7917 25.8605L20.0215 29.5169Z" fill="#3A3A39"/>
<path d="M23.5723 25.1389L19.1009 20.7631L20.1171 19.7266L24.5885 24.1044L23.5723 25.1389Z" fill="#3A3A39"/>
<path d="M28.2143 21.1395C27.8498 21.4228 27.4365 21.6371 26.9948 21.7716C26.5852 21.8966 26.1545 21.9374 25.7286 21.8915C25.3108 21.8447 24.9065 21.7148 24.5396 21.5094C24.1527 21.2891 23.8151 20.9916 23.5478 20.6355C23.2726 20.2859 23.0726 19.8831 22.9604 19.4526C22.8548 19.0438 22.8347 18.6175 22.9015 18.2006C22.9684 17.7781 23.1191 17.3731 23.3446 17.0096C23.5881 16.6165 23.9023 16.2719 24.2714 15.9934C24.6669 15.6811 25.122 15.4529 25.6088 15.3227C26.0605 15.205 26.534 15.1987 26.9887 15.3044L26.7733 16.5523C26.4758 16.4893 26.1683 16.4893 25.8708 16.5523C25.582 16.6183 25.3113 16.7474 25.0782 16.9303C24.8575 17.0966 24.6705 17.3036 24.5274 17.5401C24.3942 17.7567 24.3083 17.9992 24.2755 18.2514C24.2428 18.5053 24.2621 18.7633 24.3323 19.0095C24.4104 19.2765 24.5387 19.5262 24.7103 19.7452C24.876 19.9677 25.083 20.1561 25.3201 20.3001C25.5389 20.4316 25.7824 20.5168 26.0355 20.5501C26.2883 20.5825 26.5452 20.5618 26.7895 20.4891C27.053 20.4108 27.2992 20.2832 27.5152 20.1131C27.752 19.9351 27.9463 19.7067 28.0842 19.4444C28.2224 19.1716 28.3001 18.8721 28.3119 18.5664L29.572 18.6802C29.558 19.148 29.431 19.6054 29.202 20.0135C28.9527 20.4521 28.6167 20.8352 28.2143 21.1395Z" fill="#3A3A39"/>
<path d="M31.1858 18.9176L28.3952 13.3142L29.6838 12.6719L32.4743 18.2753L31.1858 18.9176ZM31.7081 17.0579L30.8951 15.5966L32.1714 11.4362L33.6125 10.7188L32.4885 14.5255L32.1512 15.6515L31.7081 17.0579ZM35.0189 17.0091L31.8117 15.56L32.202 14.2166L36.5331 16.249L35.0189 17.0091Z" fill="#3A3A39"/>
<path d="M39.972 15.136L38.9862 8.95532L40.1691 8.7663L43.4962 12.7092L42.8702 12.8088L44.7624 8.03462L45.9351 7.84766L46.9391 14.0262L45.5977 14.2295L44.9311 10.1057L45.177 10.0671L43.6649 13.8677L43.0206 13.9694L40.356 10.8353L40.6568 10.7886L41.3133 14.9124L39.972 15.136Z" fill="#3A3A39"/>
<path d="M50.0508 12.9897L53.4532 13.1645L53.3921 14.325L48.5529 14.075L48.8761 7.82324L53.5994 8.06712L53.5405 9.22967L50.2541 9.05896L50.0508 12.9897ZM50.0752 10.4105L53.0853 10.567L53.0283 11.691L50.0183 11.5365L50.0752 10.4105Z" fill="#3A3A39"/>
<path d="M58.8756 15.5625L57.4936 15.1255L59.3837 9.15625L63.8937 10.579L63.5421 11.6866L60.4162 10.709L58.8756 15.5625ZM59.8106 12.2476L62.6763 13.1541L62.3247 14.2617L59.461 13.3553L59.8106 12.2476Z" fill="#3A3A39"/>
<path d="M65.6275 18.4908C65.2135 18.2709 64.844 17.976 64.538 17.6209C64.2553 17.2935 64.0411 16.9127 63.908 16.501C63.7781 16.0994 63.7324 15.6752 63.7739 15.2551C63.8173 14.8153 63.9509 14.3891 64.1662 14.0031C64.3743 13.6105 64.6606 13.2646 65.0075 12.9869C65.3411 12.7266 65.7242 12.5371 66.1335 12.43C66.5524 12.3236 66.9879 12.2995 67.416 12.3589C67.8759 12.4223 68.3198 12.5712 68.7249 12.7979C69.136 13.0168 69.5027 13.3104 69.8062 13.6637C70.0856 13.991 70.2976 14.3702 70.4301 14.7796C70.5578 15.181 70.6055 15.6036 70.5703 16.0234C70.529 16.4656 70.3953 16.8941 70.178 17.2815C69.9689 17.6752 69.6803 18.0212 69.3305 18.2977C68.9968 18.5576 68.6137 18.7471 68.2045 18.8546C67.7891 18.9607 67.3571 18.9856 66.9323 18.9277C66.4737 18.8656 66.031 18.7174 65.6275 18.4908ZM66.2107 17.4034C66.4413 17.5341 66.6955 17.6178 66.9587 17.6494C67.2083 17.6794 67.4615 17.6579 67.7026 17.5863C67.9477 17.5143 68.1753 17.3926 68.3713 17.2286C68.5843 17.0499 68.761 16.8319 68.8916 16.5864C69.0276 16.3439 69.1159 16.0776 69.1517 15.8019C69.1832 15.5486 69.1639 15.2915 69.0948 15.0458C69.026 14.8045 68.9077 14.5802 68.7473 14.3873C68.5778 14.1838 68.3708 14.0148 68.1376 13.8893C67.9067 13.7594 67.6525 13.6758 67.3896 13.6434C67.1406 13.6143 66.8883 13.6357 66.6478 13.7064C66.4024 13.7792 66.1742 13.9009 65.977 14.0641C65.7645 14.2429 65.5886 14.4609 65.4588 14.7064C65.3234 14.9484 65.2351 15.214 65.1986 15.4889C65.1653 15.7427 65.184 16.0006 65.2534 16.247C65.3229 16.488 65.4412 16.7121 65.601 16.9055C65.7704 17.109 65.9774 17.2781 66.2107 17.4034Z" fill="#3A3A39"/>
<path d="M69.6334 20.806L73.6982 16.042L75.7611 17.8001C76.1466 18.1128 76.4617 18.5035 76.6859 18.9464C76.8706 19.3194 76.9413 19.7386 76.8891 20.1516C76.8261 20.5761 76.6396 20.9726 76.3526 21.2918C76.0849 21.622 75.7258 21.8659 75.3201 21.993C74.9206 22.1068 74.4962 22.0997 74.1007 21.9727C73.6282 21.8185 73.1929 21.568 72.8223 21.2369L71.3731 20.0012L72.2755 19.9361L70.7329 21.7471L69.6334 20.806ZM72.1759 20.0581L72.1251 19.1232L73.5153 20.306C73.7692 20.5595 74.1065 20.7119 74.4645 20.7349C74.6143 20.7302 74.7613 20.6924 74.8948 20.6243C75.0283 20.5561 75.1451 20.4592 75.2368 20.3406C75.3403 20.2313 75.4182 20.1004 75.4649 19.9574C75.5117 19.8143 75.5261 19.6627 75.5071 19.5134C75.4239 19.1647 75.2193 18.857 74.9299 18.6456L73.5417 17.4627L74.4787 17.357L72.1759 20.0581ZM72.6617 23.3872L72.9442 20.6434L74.123 21.6474L73.8527 24.4034L72.6617 23.3872Z" fill="#3A3A39"/>
<path d="M77.3018 28.6755L76.4786 27.4825L81.6329 23.9277L84.3177 27.8219L83.3625 28.4824L81.4987 25.7793L77.3018 28.6755ZM80.076 26.6309L81.7813 29.1043L80.824 29.7649L79.1187 27.2914L80.076 26.6309Z" fill="#3A3A39"/>
<path d="M80.7651 34.9558C80.4074 34.1428 80.3531 33.407 80.6024 32.7485C80.8524 32.092 81.3971 31.5758 82.2284 31.2059L85.4356 29.7832L86.0209 31.1084L82.8646 32.5046C82.3226 32.7472 81.9791 33.0324 81.8341 33.3603C81.7652 33.5371 81.7345 33.7264 81.744 33.9159C81.7534 34.1054 81.8028 34.2908 81.889 34.4598C81.9554 34.638 82.059 34.7999 82.1929 34.9348C82.3267 35.0697 82.4878 35.1746 82.6654 35.2423C83.0049 35.3582 83.4458 35.2972 83.9926 35.0574L87.1489 33.6611L87.7282 34.97L84.521 36.3927C83.681 36.7653 82.9357 36.8222 82.2853 36.5634C81.635 36.3046 81.1282 35.7687 80.7651 34.9558Z" fill="#3A3A39"/>
<path d="M82.4397 39.0395L88.537 37.6006L88.8704 39.0091L83.9254 40.1777L84.647 43.2264L83.4986 43.4967L82.4397 39.0395Z" fill="#3A3A39"/>
<path d="M83.586 44.5126L89.8297 44.0654L89.9333 45.5105L84.8664 45.8723L85.09 49.0043L83.9112 49.0876L83.586 44.5126Z" fill="#3A3A39"/>
<path d="M83.6958 52.917L89.85 54.0633L89.3541 56.7278C89.2748 57.2184 89.0927 57.6866 88.8196 58.1017C88.5895 58.4488 88.2622 58.7203 87.8786 58.8822C87.4791 59.0393 87.042 59.0746 86.6225 58.9838C86.2013 58.917 85.8095 58.7267 85.4965 58.4371C85.1965 58.1489 84.9886 57.7783 84.899 57.3721C84.7939 56.8858 84.7939 56.3828 84.899 55.8965L85.2465 54.0247L85.7709 54.7767L83.4316 54.3417L83.6958 52.917ZM85.6103 54.7462L86.4051 54.2381L86.0717 56.0327C85.9779 56.3787 86.0126 56.7469 86.1693 57.0692C86.2466 57.1968 86.3516 57.3053 86.4765 57.3869C86.6014 57.4685 86.7429 57.5211 86.8907 57.5408C87.037 57.5768 87.1895 57.5794 87.3369 57.5484C87.4843 57.5174 87.623 57.4537 87.7424 57.3619C88.0043 57.1176 88.1695 56.7872 88.2078 56.4311L88.5411 54.6364L89.1 55.3966L85.6103 54.7462Z" fill="#3A3A39"/>
<path d="M80.8829 63.0868L83.5698 62.4649L83.0027 63.9038L80.3077 64.5441L80.8829 63.0868ZM82.3422 59.3857L88.1651 61.6804L87.1713 64.2006C87.0007 64.6672 86.7333 65.0925 86.3867 65.4485C86.0946 65.7456 85.7213 65.9499 85.3136 66.0359C84.8917 66.1132 84.4564 66.0652 84.0616 65.8977C83.6622 65.7518 83.315 65.4908 83.0637 65.1477C82.8275 64.8075 82.6967 64.4053 82.6877 63.9913C82.6821 63.4914 82.7803 62.9959 82.9763 62.536L83.6755 60.7658L84.0291 61.597L81.8158 60.7251L82.3422 59.3857ZM83.8726 61.5462L84.7425 61.1967L84.0738 62.8937C83.9161 63.2165 83.8814 63.5858 83.9762 63.9323C84.0285 64.0739 84.1116 64.2021 84.2195 64.3075C84.3274 64.413 84.4575 64.4931 84.6003 64.542C84.7373 64.6042 84.8863 64.6352 85.0367 64.6327C85.1872 64.6303 85.3352 64.5944 85.4701 64.5278C85.7736 64.3372 85.998 64.0435 86.1022 63.7006L86.7729 62.0035L87.1794 62.8551L83.8726 61.5462Z" fill="#3A3A39"/>
<path d="M78.0151 68.0559C78.2682 67.6613 78.5921 67.3168 78.9704 67.0397C79.3205 66.7848 79.7177 66.6017 80.139 66.5011C80.5499 66.4057 80.976 66.3953 81.391 66.4706C81.8274 66.5487 82.2428 66.7169 82.6105 66.9645C82.9823 67.2037 83.3005 67.5172 83.5453 67.8852C83.7791 68.2377 83.9369 68.635 84.0088 69.0518C84.0828 69.4779 84.0725 69.9143 83.9783 70.3363C83.8766 70.7894 83.6912 71.2195 83.4316 71.6046C83.1818 71.9976 82.8588 72.3391 82.4804 72.6106C82.1318 72.8626 81.7366 73.0429 81.3178 73.1411C80.908 73.2383 80.4829 73.2514 80.0679 73.1797C79.6313 73.1034 79.2158 72.9358 78.8484 72.6879C78.4758 72.4465 78.1569 72.131 77.9115 71.7611C77.6797 71.4076 77.522 71.0107 77.448 70.5945C77.3767 70.1709 77.3878 69.7375 77.4806 69.3181C77.5772 68.8673 77.7586 68.439 78.0151 68.0559ZM79.0497 68.7266C78.902 68.9465 78.7985 69.1929 78.7448 69.4522C78.6939 69.6976 78.6939 69.9507 78.7448 70.1961C78.7974 70.4463 78.8997 70.6833 79.0456 70.8932C79.2072 71.1201 79.4106 71.314 79.6451 71.4643C79.8758 71.6191 80.1338 71.7288 80.4053 71.7875C80.6554 71.8382 80.9132 71.8382 81.1634 71.7875C81.4095 71.7385 81.6428 71.6388 81.8483 71.4948C82.0656 71.3406 82.2512 71.146 82.3951 70.9217C82.5432 70.7028 82.6467 70.457 82.6999 70.1981C82.7517 69.9522 82.7517 69.6982 82.6999 69.4522C82.6482 69.2018 82.5459 68.9645 82.3991 68.7551C82.238 68.5284 82.0343 68.3351 81.7995 68.186C81.5705 68.0314 81.3138 67.9223 81.0435 67.8649C80.7928 67.8131 80.5341 67.8131 80.2833 67.8649C80.0371 67.9135 79.8037 68.0132 79.5984 68.1576C79.3807 68.3104 79.1945 68.5036 79.0497 68.7266Z" fill="#3A3A39"/>
<path d="M74.5254 72.5233C74.799 72.2302 75.1315 71.9981 75.501 71.8425C75.8441 71.6952 76.2188 71.6371 76.5904 71.6738L76.7367 72.9237C76.487 72.8908 76.2334 72.9046 75.9888 72.9644C75.778 73.0194 75.5871 73.1328 75.438 73.2916C75.0315 73.7198 75.0782 74.1716 75.5782 74.6472L77.7387 76.7L79.2529 75.1045L80.0963 75.9053L77.5883 78.5475L74.6433 75.7468C74.0823 75.2143 73.7937 74.6757 73.7795 74.1371C73.7653 73.5985 74.0173 73.0599 74.5254 72.5233Z" fill="#3A3A39"/>
<path d="M71.43 77.1453L68.7188 79.2103L68.0135 78.2855L71.8751 75.3486L75.6697 80.3281L71.9056 83.1938L71.2004 82.2691L73.8202 80.2753L71.43 77.1453ZM73.0742 79.129L70.6781 80.9582L69.9951 80.0618L72.3914 78.2327L73.0742 79.129Z" fill="#3A3A39"/>
<path d="M64.1722 80.2305C64.5806 80.0198 65.0243 79.8861 65.4811 79.8362C65.9068 79.7897 66.3375 79.8297 66.7473 79.954C67.1506 80.0808 67.524 80.2882 67.8448 80.5638C68.1851 80.8512 68.4619 81.2063 68.6577 81.6064C68.8626 82.0015 68.9837 82.4347 69.0134 82.8787C69.0408 83.3004 68.9806 83.7232 68.8367 84.1205C68.6916 84.5231 68.4677 84.8928 68.1781 85.2079C67.8646 85.544 67.4918 85.8196 67.0785 86.0209C66.6308 86.2529 66.1405 86.3912 65.6376 86.4274C65.1719 86.4575 64.7059 86.3738 64.2799 86.1835L64.725 84.9986C65.0053 85.1165 65.3071 85.1746 65.6112 85.1693C65.9073 85.1576 66.1973 85.0813 66.4608 84.9457C66.7076 84.8247 66.9295 84.6586 67.1151 84.4559C67.2866 84.2674 67.4167 84.0452 67.4972 83.8035C67.5768 83.5606 67.6058 83.304 67.5826 83.0495C67.5563 82.7727 67.477 82.5036 67.3489 82.2568C67.227 82.0066 67.058 81.7823 66.851 81.5963C66.6598 81.4259 66.4356 81.2965 66.1924 81.2162C65.9503 81.1363 65.6942 81.1079 65.4405 81.1329C65.1673 81.1623 64.9019 81.2422 64.658 81.3686C64.3924 81.4995 64.1586 81.6868 63.973 81.9174C63.7883 82.1581 63.6567 82.4351 63.5869 82.7304L62.3674 82.3828C62.4687 81.9268 62.6778 81.5017 62.9771 81.143C63.3082 80.7596 63.7151 80.4489 64.1722 80.2305Z" fill="#3A3A39"/>
<path d="M59.6277 82.1738L61.0768 87.0517L62.9954 86.4806L63.3328 87.6106L58.1034 89.1675L57.768 88.0354L59.6886 87.4643L58.2395 82.5966L59.6277 82.1738Z" fill="#3A3A39"/>
<path d="M53.3942 83.7227L50.7641 90.0517L49.3414 90.0883L46.3823 83.9015L47.9026 83.8629L50.3415 89.3281L49.7704 89.3424L51.9267 83.7593L53.3942 83.7227ZM52.0344 85.0986L51.6768 86.2083L48.4594 86.2896L48.0387 85.2002L52.0344 85.0986Z" fill="#3A3A39"/>
<path d="M44.5774 83.5532L43.8377 88.5794L45.8193 88.87L45.6465 90.0387L40.2504 89.244L40.4211 88.0754L42.4028 88.368L43.1446 83.3418L44.5774 83.5532Z" fill="#3A3A39"/>
<path d="M37.5187 82.0009L35.0107 87.7384L32.208 86.519C31.4872 86.206 31.0041 85.8327 30.7589 85.3991C30.6396 85.202 30.5706 84.9787 30.5578 84.7487C30.5451 84.5187 30.589 84.2891 30.6858 84.08C30.8003 83.8003 30.9965 83.5617 31.2487 83.3951C31.4971 83.2361 31.7851 83.1502 32.08 83.1472C32.4122 83.1425 32.7413 83.2119 33.0433 83.3504L32.7405 83.6187C32.4094 83.4816 32.1094 83.279 31.8585 83.0232C31.6392 82.8005 31.4912 82.5174 31.4336 82.2102C31.3817 81.8887 31.4292 81.5589 31.5698 81.2651C31.6597 81.036 31.8062 80.8334 31.9956 80.6763C32.1851 80.5192 32.4113 80.4127 32.6531 80.3668C33.1612 80.2611 33.7927 80.3722 34.5474 80.7001L37.5187 82.0009ZM35.7628 82.4256L34.214 81.7488C33.9493 81.614 33.6526 81.5542 33.3563 81.5761C33.243 81.5951 33.1368 81.6441 33.0489 81.7181C32.9609 81.7921 32.8944 81.8883 32.8563 81.9968C32.8043 82.0989 32.78 82.2129 32.7857 82.3273C32.7914 82.4418 32.827 82.5527 32.8889 82.6492C33.0696 82.8858 33.3143 83.0657 33.5941 83.1675L35.2425 83.887L34.8197 84.8544L33.397 84.2447C33.1463 84.1168 32.8642 84.0632 32.584 84.0902C32.4748 84.1089 32.3726 84.1564 32.2879 84.2279C32.2032 84.2994 32.1391 84.3922 32.1023 84.4967C32.0545 84.5927 32.033 84.6997 32.0398 84.8067C32.0466 84.9138 32.0814 85.0172 32.1409 85.1064C32.3135 85.3296 32.5451 85.5 32.8096 85.5983L34.1287 86.1735L35.7628 82.4256Z" fill="#3A3A39"/>
<path d="M29.3504 79.176L26.5376 77.2513L27.194 76.292L31.1959 79.0297L27.6595 84.1961L23.7552 81.5235L24.4116 80.5642L27.1269 82.4238L29.3504 79.176ZM27.9847 81.3629L25.4969 79.6597L26.1331 78.7309L28.6208 80.4321L27.9847 81.3629Z" fill="#3A3A39"/>
<path d="M18.7024 76.8074L17.6862 75.7749L22.1455 71.3828L23.1617 72.4153L18.7024 76.8074ZM21.2593 74.1388L23.4055 76.3176L22.5316 77.1773L20.3854 74.9985L21.2593 74.1388ZM25.1575 74.4416L26.1737 75.4721L21.7146 79.8662L20.6984 78.8337L25.1575 74.4416Z" fill="#3A3A39"/>
<path d="M21.5967 70.7936L14.8246 71.8444L14.0482 70.6432L17.7899 64.8955L18.6151 66.1739L15.2128 71.0944L14.9019 70.6128L20.7959 69.5478L21.5967 70.7936ZM19.7147 70.3506L18.5806 70.6229L16.8347 67.9177L17.546 66.991L19.7147 70.3506Z" fill="#3A3A39"/>
<path d="M17.483 64.1623L11.6397 66.398L11.2089 65.2801L14.0909 60.2153L14.2941 60.7579L10.087 62.3839L9.57275 61.0486L15.416 58.8027L15.8428 59.9124L12.9649 64.9935L12.7616 64.4509L16.9688 62.8249L17.483 64.1623Z" fill="#3A3A39"/>
<path d="M14.6457 54.2558C14.7252 54.7079 14.7212 55.1709 14.6336 55.6216C14.5516 56.0416 14.3849 56.4406 14.1438 56.7943C13.9064 57.1421 13.6008 57.4381 13.2455 57.6642C12.8696 57.903 12.4479 58.0608 12.0076 58.1276C11.5693 58.206 11.1195 58.1928 10.6866 58.0889C10.2769 57.9883 9.89183 57.8057 9.55452 57.5524C9.21405 57.2931 8.92808 56.9692 8.71306 56.5992C8.48246 56.2002 8.32813 55.7619 8.25785 55.3065C8.16733 54.81 8.17971 54.3002 8.29437 53.8086C8.40405 53.3564 8.62249 52.9378 8.9306 52.5892L9.93054 53.3676C9.73343 53.5991 9.5879 53.8701 9.50371 54.1623C9.42575 54.4484 9.41183 54.7482 9.46302 55.0403C9.50635 55.3117 9.59938 55.5729 9.73742 55.8106C9.86606 56.0302 10.0391 56.2206 10.2455 56.3695C10.4545 56.5166 10.6908 56.6203 10.9406 56.6744C11.2127 56.7333 11.4939 56.7381 11.7679 56.6886C12.0431 56.6466 12.3076 56.5513 12.5463 56.4081C12.766 56.277 12.9563 56.102 13.1052 55.8939C13.2534 55.6867 13.3559 55.4505 13.406 55.2008C13.4599 54.9328 13.4633 54.6571 13.4162 54.3879C13.3693 54.0968 13.2597 53.8194 13.095 53.5749C12.9179 53.3265 12.69 53.1186 12.4263 52.9652L13.1214 51.9062C13.5259 52.1398 13.8688 52.4666 14.1214 52.8595C14.3903 53.284 14.5687 53.7593 14.6457 54.2558Z" fill="#3A3A39"/>
<path d="M12.973 49.1222L13.036 45.7158L14.1986 45.7382L14.1092 50.5835L7.84924 50.4677L7.93866 45.7382L9.10126 45.7605L9.04032 49.049L12.973 49.1222ZM10.3959 49.1832L10.4528 46.169L11.5788 46.1894L11.5239 49.2035L10.3959 49.1832Z" fill="#3A3A39"/>
<path d="M12.3979 41.2726L11.3492 41.0165L11.9284 38.6406L12.9792 38.8967L12.3979 41.2726Z" fill="#3A3A39"/>
<path d="M43.6669 48.5568C44.3538 48.9084 45.1059 49.2133 45.7745 49.6462C48.7317 51.5607 49.5853 54.9671 48.9431 58.0503C48.3476 60.8957 46.3762 62.5826 43.732 63.4444C42.4142 63.8789 41.0399 64.1185 39.6528 64.1558C34.8034 64.2391 29.95 64.1883 25.1006 64.1862C24.9502 64.1862 24.7998 64.1659 24.6169 64.1517V33.7627H40.2829C43.7685 33.7627 46.055 35.3378 47.3171 38.6101C48.5244 41.7359 47.6241 45.5 45.1567 47.5406C44.6775 47.9041 44.1802 48.2433 43.6669 48.5568ZM30.5374 59.1803C33.4499 59.1803 36.2892 59.1803 39.1305 59.1803C41.7402 59.1803 43.5266 57.0626 43.0958 54.4875C42.7441 52.3778 41.3256 51.1807 39.1753 51.1807H30.5394L30.5374 59.1803ZM30.5557 38.7909V46.4614C33.3056 46.4614 36.0087 46.5244 38.7058 46.439C40.3764 46.3862 41.5511 45.2866 41.8926 43.6546C42.4088 41.2156 41.2118 38.6548 38.096 38.7767C35.8014 38.8661 33.5007 38.795 31.204 38.795L30.5557 38.7909Z" fill="#E52421"/>
<path d="M56.459 54.6746C56.331 56.7762 58.0606 59.0525 60.3369 59.8309C62.5726 60.5972 66.0034 59.8309 67.3692 57.1888L72.2125 58.5343C71.5743 59.3757 71.0683 60.1907 70.4199 60.8736C68.5745 62.8145 66.2554 63.8409 63.6112 64.1255C60.5402 64.4446 57.6298 63.969 55.075 62.1215C52.193 60.0443 50.7012 57.1806 50.5203 53.6564C50.3333 49.9777 51.4898 46.801 54.3047 44.3397C56.4306 42.48 58.9793 41.6711 61.7658 41.6325C65.1234 41.5837 68.0663 42.6243 70.4036 45.1323C72.5905 47.4839 73.7754 51.4329 73.2246 54.6848L56.459 54.6746ZM67.548 51.0305C67.4647 48.2379 65.2636 45.5429 61.784 45.6669C58.713 45.7726 56.022 48.5346 56.4041 51.0305H67.548Z" fill="#E52421"/>
<path d="M69.1557 38.7568H54.6299V35.2285H69.1557V38.7568Z" fill="#E52421"/>
</g>
<defs>
<clipPath id="clip0_304_1123">
<rect width="100" height="100" fill="white"/>
</clipPath>
</defs>
</svg>
