<svg width="194" height="195" viewBox="0 0 194 195" fill="none" xmlns="http://www.w3.org/2000/svg">
<path d="M142.297 89.2239C142.297 107.809 127.272 122.862 108.754 122.862C90.2367 122.862 75.2118 107.809 75.2118 89.2239C75.2118 70.6388 90.2367 55.5859 108.754 55.5859C127.272 55.5859 142.297 70.6388 142.297 89.2239Z" fill="#F8F5EF" stroke="#3A3A39" stroke-width="6"/>
<g filter="url(#filter0_d_271_4093)">
<ellipse cx="107.035" cy="87.069" rx="36.5425" ry="37.069" fill="#F8F5EF"/>
<path d="M141.577 87.069C141.577 106.464 126.085 122.138 107.035 122.138C87.9843 122.138 72.4922 106.464 72.4922 87.069C72.4922 67.6738 87.9843 52 107.035 52C126.085 52 141.577 67.6738 141.577 87.069Z" stroke="#3A3A39" stroke-width="4"/>
</g>
<path d="M88.0539 99.7313V94.3533H85.969V93.1035H91.6465V94.3533H89.5617V99.7313H88.0539Z" fill="#3A3A39"/>
<path d="M91.2743 99.7313L94.1782 93.1035H95.6674L98.5806 99.7313H96.9983L94.6156 93.8799H95.2113L92.8193 99.7313H91.2743ZM92.7262 98.3111L93.1265 97.1465H96.4771L96.8866 98.3111H92.7262Z" fill="#3A3A39"/>
<path d="M100.606 98.2164L100.522 96.4458L103.64 93.1035H105.316L102.505 96.1807L101.667 97.0897L100.606 98.2164ZM99.2565 99.7313V93.1035H100.755V99.7313H99.2565ZM103.715 99.7313L101.397 96.8435L102.384 95.7546L105.474 99.7313H103.715Z" fill="#3A3A39"/>
<path d="M107.533 95.7736H110.67V96.9666H107.533V95.7736ZM107.645 98.5005H111.191V99.7313H106.146V93.1035H111.07V94.3344H107.645V98.5005Z" fill="#3A3A39"/>
<path d="M115.026 99.7313V93.1035H116.274L119.047 97.7809H118.386L121.113 93.1035H122.351L122.37 99.7313H120.955L120.946 95.3096H121.206L119.029 99.0307H118.349L116.125 95.3096H116.441V99.7313H115.026Z" fill="#3A3A39"/>
<path d="M125.302 95.7736H128.439V96.9666H125.302V95.7736ZM125.414 98.5005H128.96V99.7313H123.916V93.1035H128.839V94.3344H125.414V98.5005Z" fill="#3A3A39"/>
<path d="M102.906 111.207C101.981 111.207 101.258 110.945 100.737 110.421C100.216 109.897 99.9551 109.149 99.9551 108.177V104.466H101.463V108.12C101.463 108.752 101.59 109.206 101.844 109.484C102.099 109.761 102.456 109.9 102.915 109.9C103.374 109.9 103.731 109.761 103.985 109.484C104.24 109.206 104.367 108.752 104.367 108.12V104.466H105.856V108.177C105.856 109.149 105.595 109.897 105.074 110.421C104.553 110.945 103.83 111.207 102.906 111.207Z" fill="#3A3A39"/>
<path d="M107.346 111.093V104.466H110.166C110.749 104.466 111.252 104.563 111.674 104.759C112.096 104.948 112.422 105.223 112.651 105.583C112.881 105.943 112.996 106.372 112.996 106.87C112.996 107.363 112.881 107.789 112.651 108.149C112.422 108.508 112.096 108.786 111.674 108.982C111.252 109.171 110.749 109.266 110.166 109.266H108.184L108.854 108.575V111.093H107.346ZM108.854 108.745L108.184 108.016H110.082C110.548 108.016 110.895 107.915 111.125 107.713C111.354 107.511 111.469 107.23 111.469 106.87C111.469 106.504 111.354 106.22 111.125 106.018C110.895 105.816 110.548 105.715 110.082 105.715H108.184L108.854 104.986V108.745Z" fill="#3A3A39"/>
<path d="M114.163 108.793L113.874 104.466H115.606L115.317 108.793H114.163ZM114.74 111.169C114.479 111.169 114.265 111.084 114.098 110.913C113.93 110.743 113.846 110.541 113.846 110.307C113.846 110.068 113.93 109.869 114.098 109.711C114.265 109.547 114.479 109.465 114.74 109.465C115.007 109.465 115.221 109.547 115.382 109.711C115.55 109.869 115.633 110.068 115.633 110.307C115.633 110.541 115.55 110.743 115.382 110.913C115.221 111.084 115.007 111.169 114.74 111.169Z" fill="#3A3A39"/>
<path d="M119.502 85.345H111.767L104.805 64.2361L109.264 64.2361L102.303 85.345H94.5673L102.985 61.207L111.084 61.207L119.502 85.345Z" fill="#E52421"/>
<defs>
<filter id="filter0_d_271_4093" x="0.492188" y="0" width="193.085" height="194.139" filterUnits="userSpaceOnUse" color-interpolation-filters="sRGB">
<feFlood flood-opacity="0" result="BackgroundImageFix"/>
<feColorMatrix in="SourceAlpha" type="matrix" values="0 0 0 0 0 0 0 0 0 0 0 0 0 0 0 0 0 0 127 0" result="hardAlpha"/>
<feOffset dx="-10" dy="10"/>
<feGaussianBlur stdDeviation="30"/>
<feComposite in2="hardAlpha" operator="out"/>
<feColorMatrix type="matrix" values="0 0 0 0 0 0 0 0 0 0 0 0 0 0 0 0 0 0 0.1 0"/>
<feBlend mode="normal" in2="BackgroundImageFix" result="effect1_dropShadow_271_4093"/>
<feBlend mode="normal" in="SourceGraphic" in2="effect1_dropShadow_271_4093" result="shape"/>
</filter>
</defs>
</svg>
