<svg width="87" height="88" viewBox="0 0 87 88" fill="none" xmlns="http://www.w3.org/2000/svg">
<circle cx="44.5" cy="45.5" r="39.5" fill="#F8F5EF" stroke="#3A3A39" stroke-width="6"/>
<path d="M20.4247 57.6883V51.4498H18V50H24.6031V51.4498H22.1784V57.6883H20.4247Z" fill="#3A3A39"/>
<path d="M24.1702 57.6883L27.5475 50H29.2795L32.6676 57.6883H30.8274L28.0563 50.9006H28.7491L25.9671 57.6883H24.1702ZM25.8588 56.0408L26.3243 54.6899H30.2212L30.6975 56.0408H25.8588Z" fill="#3A3A39"/>
<path d="M35.0233 55.931L34.9259 53.8771L38.5522 50H40.5007L37.2316 53.5696L36.2574 54.624L35.0233 55.931ZM33.4538 57.6883V50H35.1965V57.6883H33.4538ZM38.6388 57.6883L35.9435 54.3384L37.0909 53.0753L40.6847 57.6883H38.6388Z" fill="#3A3A39"/>
<path d="M43.0795 53.0973H46.7274V54.4812H43.0795V53.0973ZM43.2094 56.2605H47.3336V57.6883H41.4666V50H47.1929V51.4278H43.2094V56.2605Z" fill="#3A3A39"/>
<path d="M51.7945 57.6883V50H53.245L56.4708 55.4257H55.7022L58.8739 50H60.3136L60.3352 57.6883H58.6899L58.6791 52.5591H58.9821L56.4492 56.8755H55.6589L53.0718 52.5591H53.4399V57.6883H51.7945Z" fill="#3A3A39"/>
<path d="M63.7459 53.0973H67.3938V54.4812H63.7459V53.0973ZM63.8758 56.2605H68V57.6883H62.133V50H67.8593V51.4278H63.8758V56.2605Z" fill="#3A3A39"/>
<path d="M37.6977 71C36.6224 71 35.7817 70.6961 35.1755 70.0884C34.5693 69.4806 34.2662 68.613 34.2662 67.4854V63.1799H36.0198V67.4195C36.0198 68.1517 36.1678 68.6789 36.4636 69.001C36.7595 69.3232 37.1745 69.4843 37.7085 69.4843C38.2425 69.4843 38.6574 69.3232 38.9533 69.001C39.2492 68.6789 39.3971 68.1517 39.3971 67.4195V63.1799H41.1291V67.4854C41.1291 68.613 40.826 69.4806 40.2198 70.0884C39.6136 70.6961 38.7729 71 37.6977 71Z" fill="#3A3A39"/>
<path d="M42.862 70.8682V63.1799H46.1419C46.8202 63.1799 47.4048 63.2934 47.8955 63.5204C48.3862 63.7401 48.7651 64.0586 49.0321 64.4759C49.2991 64.8933 49.4326 65.3912 49.4326 65.9697C49.4326 66.5408 49.2991 67.035 49.0321 67.4524C48.7651 67.8698 48.3862 68.1919 47.8955 68.4189C47.4048 68.6386 46.8202 68.7484 46.1419 68.7484H43.8362L44.6156 67.9467V70.8682H42.862ZM44.6156 68.1444L43.8362 67.2986H46.0445C46.5857 67.2986 46.9898 67.1815 47.2568 66.9472C47.5238 66.7129 47.6573 66.387 47.6573 65.9697C47.6573 65.545 47.5238 65.2155 47.2568 64.9812C46.9898 64.7469 46.5857 64.6297 46.0445 64.6297H43.8362L44.6156 63.784V68.1444Z" fill="#3A3A39"/>
<path d="M50.7903 68.1993L50.4547 63.1799H52.4681L52.1325 68.1993H50.7903ZM51.4614 70.9561C51.1583 70.9561 50.9093 70.8572 50.7145 70.6595C50.5196 70.4618 50.4222 70.2275 50.4222 69.9566C50.4222 69.6783 50.5196 69.4477 50.7145 69.2646C50.9093 69.0743 51.1583 68.9791 51.4614 68.9791C51.7717 68.9791 52.0207 69.0743 52.2083 69.2646C52.4032 69.4477 52.5006 69.6783 52.5006 69.9566C52.5006 70.2275 52.4032 70.4618 52.2083 70.6595C52.0207 70.8572 51.7717 70.9561 51.4614 70.9561Z" fill="#3A3A39"/>
<path d="M57 41H48.0037L39.9069 16.5137L45.0931 16.5137L36.9963 41H28L37.7901 13L47.2099 13L57 41Z" fill="#E52421"/>
</svg>
