<svg width="162" height="7" viewBox="0 0 162 7" fill="none" xmlns="http://www.w3.org/2000/svg">
<path d="M2.01304 6.49048H3.01784V0.760166H2.00509L0.507812 1.81251V2.75366L1.98921 1.73706H2.01304V6.49048Z" fill="white"/>
<path d="M6.31043 0.660889C5.07527 0.660889 4.16578 1.49085 4.16578 2.64644V2.65439C4.16578 3.73056 4.94421 4.52478 6.0483 4.52478C6.82276 4.52478 7.39466 4.12767 7.62104 3.60348H7.64487C7.64487 3.66702 7.6409 3.72658 7.63693 3.78615C7.59721 4.87026 7.21197 5.75185 6.29057 5.75185C5.77824 5.75185 5.42874 5.4977 5.27385 5.10456L5.26193 5.06882H4.24521L4.25316 5.1125C4.43188 5.9782 5.22619 6.58975 6.2866 6.58975C7.74813 6.58975 8.62585 5.45799 8.62585 3.56377V3.55583C8.62585 1.54645 7.57338 0.660889 6.31043 0.660889ZM6.31043 3.73453C5.65909 3.73453 5.17456 3.26991 5.17456 2.61865V2.6107C5.17456 1.99121 5.68689 1.49879 6.32234 1.49879C6.96573 1.49879 7.46615 1.99518 7.46615 2.63056V2.63453C7.46615 3.27388 6.96573 3.73453 6.31043 3.73453Z" fill="white"/>
<path d="M9.74202 2.74175C10.0637 2.74175 10.3139 2.4876 10.3139 2.16594C10.3139 1.84428 10.0637 1.5941 9.74202 1.5941C9.42032 1.5941 9.16614 1.84428 9.16614 2.16594C9.16614 2.4876 9.42032 2.74175 9.74202 2.74175ZM9.74202 5.65654C10.0637 5.65654 10.3139 5.40239 10.3139 5.08073C10.3139 4.75907 10.0637 4.50889 9.74202 4.50889C9.42032 4.50889 9.16614 4.75907 9.16614 5.08073C9.16614 5.40239 9.42032 5.65654 9.74202 5.65654Z" fill="white"/>
<path d="M13.114 6.58975C14.516 6.58975 15.3659 5.45005 15.3659 3.62731V3.61936C15.3659 1.79663 14.516 0.660889 13.114 0.660889C11.7081 0.660889 10.8622 1.79663 10.8622 3.61936V3.62731C10.8622 5.45005 11.7081 6.58975 13.114 6.58975ZM13.114 5.75185C12.3396 5.75185 11.8948 4.94969 11.8948 3.62731V3.61936C11.8948 2.29699 12.3396 1.50276 13.114 1.50276C13.8845 1.50276 14.3333 2.29699 14.3333 3.61936V3.62731C14.3333 4.94969 13.8845 5.75185 13.114 5.75185Z" fill="white"/>
<path d="M15.9141 6.49048H19.9413V5.65257H17.2684V5.60889L18.5314 4.40962C19.5402 3.44067 19.8539 2.98399 19.8539 2.3089V2.30096C19.8539 1.35583 19.0517 0.660889 17.9039 0.660889C16.7402 0.660889 15.8585 1.41143 15.8585 2.4598V2.4876H16.8197V2.4598C16.8316 1.90782 17.2764 1.48291 17.9118 1.48291C18.4639 1.48291 18.8491 1.84825 18.8531 2.36052V2.36847C18.8531 2.79337 18.6903 3.08327 17.9396 3.81792L15.9141 5.79156V6.49048Z" fill="white"/>
<path d="M142.315 1.96072C143.554 1.96078 144.746 2.44671 145.644 3.31808C145.711 3.38535 145.819 3.3845 145.886 3.31618L146.532 2.65034C146.566 2.61568 146.585 2.56874 146.584 2.5199C146.584 2.47106 146.565 2.42434 146.531 2.39009C144.174 0.0846506 140.456 0.0846506 138.1 2.39009C138.066 2.42432 138.046 2.47102 138.046 2.51986C138.046 2.5687 138.064 2.61566 138.098 2.65034L138.744 3.31618C138.811 3.38461 138.919 3.38546 138.987 3.31808C139.885 2.44665 141.076 1.96072 142.315 1.96072ZM142.315 4.12698C142.996 4.12693 143.652 4.3852 144.157 4.8516C144.225 4.91779 144.333 4.91636 144.399 4.84836L145.045 4.18253C145.079 4.1476 145.098 4.10022 145.097 4.05099C145.097 4.00176 145.077 3.95478 145.042 3.92057C143.506 2.46159 141.126 2.46159 139.59 3.92057C139.555 3.95478 139.535 4.00178 139.535 4.05103C139.534 4.10028 139.553 4.14765 139.587 4.18253L140.233 4.84836C140.299 4.91636 140.407 4.91779 140.475 4.8516C140.979 4.38551 141.635 4.12726 142.315 4.12698ZM143.556 5.71604C143.591 5.68146 143.61 5.63386 143.609 5.58449C143.608 5.53511 143.587 5.48835 143.551 5.45523C142.838 4.83949 141.793 4.83949 141.08 5.45523C141.044 5.48832 141.023 5.53507 141.022 5.58444C141.021 5.63382 141.04 5.68143 141.075 5.71604L142.191 6.86642C142.224 6.90023 142.269 6.91926 142.315 6.91926C142.362 6.91926 142.407 6.90023 142.439 6.86642L143.556 5.71604Z" fill="white"/>
<path d="M149.868 2.20397C149.868 1.86311 150.141 1.58679 150.477 1.58679H158.839C159.175 1.58679 159.447 1.86311 159.447 2.20397V5.1356C159.447 5.47646 159.175 5.75278 158.839 5.75278H150.477C150.141 5.75278 149.868 5.47646 149.868 5.1356V2.20397Z" fill="white"/>
<path fill-rule="evenodd" clip-rule="evenodd" d="M148.956 2.20397C148.956 1.35182 149.637 0.661011 150.477 0.661011H158.839C159.679 0.661011 160.359 1.35182 160.359 2.20397V5.1356C160.359 5.98775 159.679 6.67856 158.839 6.67856H150.477C149.637 6.67856 148.956 5.98775 148.956 5.1356V2.20397ZM150.477 1.1239H158.839C159.427 1.1239 159.903 1.60746 159.903 2.20397V5.1356C159.903 5.7321 159.427 6.21567 158.839 6.21567H150.477C149.889 6.21567 149.412 5.7321 149.412 5.1356V2.20397C149.412 1.60746 149.889 1.1239 150.477 1.1239Z" fill="white"/>
<path d="M161.576 3.66978C161.576 4.14402 161.251 4.54139 160.815 4.64587V2.6937C161.251 2.79818 161.576 3.19554 161.576 3.66978Z" fill="white"/>
<path d="M134.18 1.14241C133.918 1.14241 133.705 1.35795 133.705 1.62382V5.95645C133.705 6.22232 133.918 6.43785 134.18 6.43785H134.796C135.058 6.43785 135.271 6.22232 135.271 5.95645V1.62382C135.271 1.35795 135.058 1.14241 134.796 1.14241H134.18Z" fill="white"/>
<path d="M131.357 2.68286C131.357 2.41699 131.57 2.20146 131.832 2.20146H132.448C132.71 2.20146 132.923 2.41699 132.923 2.68286V5.95641C132.923 6.22228 132.71 6.43781 132.448 6.43781H131.832C131.57 6.43781 131.357 6.22228 131.357 5.95641V2.68286Z" fill="white"/>
<path d="M129.484 3.26061C129.222 3.26061 129.009 3.47614 129.009 3.74201V5.95647C129.009 6.22234 129.222 6.43788 129.484 6.43788H130.1C130.362 6.43788 130.575 6.22234 130.575 5.95647V3.74202C130.575 3.47614 130.362 3.26061 130.1 3.26061H129.484Z" fill="white"/>
<path d="M127.183 6.43785C126.895 6.43785 126.661 6.20077 126.661 5.90831V4.58445C126.661 4.29199 126.895 4.05491 127.183 4.05491H127.705C127.993 4.05491 128.227 4.29199 128.227 4.58445V5.90831C128.227 6.20077 127.993 6.43785 127.705 6.43785H127.183Z" fill="white"/>
</svg>
