<svg width="1069" height="1052" viewBox="0 0 1069 1052" fill="none" xmlns="http://www.w3.org/2000/svg">
<path d="M-134.448 192.72C-209.109 274.82 -144.099 450.271 -122.679 508.023C-106.203 552.612 -64.3773 661.086 42.0825 740.802C183.072 846.516 262.157 770.15 421.317 873.411C547.478 955.274 560.188 1043.65 659.469 1050.35C725.539 1054.83 804.248 1021.47 827.032 964.711C867.046 864.871 720.431 726.812 697.576 705.415C592.999 606.99 515.138 612.275 500.615 546.289C485.245 476.552 552.703 382.067 632.895 354.748C722.338 324.291 767.741 397.638 876.931 378.34C967.48 362.321 1065.68 288.951 1068.01 216.265C1071.26 115.151 889.383 -0.40086 721.114 1.15619C546.937 2.78402 525.753 128.41 312.457 175.027C76.3529 226.598 -56.9866 107.578 -134.448 192.72Z" stroke="#D71A17" stroke-opacity="0.25" stroke-miterlimit="10"/>
</svg>
