<svg width="704" height="799" viewBox="0 0 704 799" fill="none" xmlns="http://www.w3.org/2000/svg">
<path d="M453.081 1050.82C575.792 1019.69 545.754 771.765 714.987 702.171C754.817 685.789 806.091 679.125 840.746 630.774C845.007 624.833 882.35 571.048 863.643 516.169C849.929 475.944 813.252 456.13 769.581 432.554C722.339 407.036 705.223 410.425 677.776 396.66C599.306 357.299 610.526 265.028 554.857 171.46C506.925 90.9886 406.561 4.66073 292.977 1.15146C146.048 -3.36259 -8.08634 131.147 1.73926 234.343C13.1539 354.388 237.914 341.683 295.386 504.655C351.778 664.497 175.467 789.941 248.662 933.418C286.527 1007.74 382.165 1068.79 453.081 1050.82Z" stroke="#D71A17" stroke-opacity="0.25" stroke-miterlimit="10"/>
</svg>
