<svg width="943" height="886" viewBox="0 0 943 886" fill="none" xmlns="http://www.w3.org/2000/svg">
<g clip-path="url(#clip0_271_1788)">
<path d="M692.081 1137.82C814.792 1106.69 784.754 858.765 953.987 789.171C993.817 772.789 1045.09 766.125 1079.75 717.774C1084.01 711.833 1121.35 658.048 1102.64 603.169C1088.93 562.944 1052.25 543.13 1008.58 519.554C961.339 494.036 944.223 497.425 916.776 483.66C838.306 444.299 849.526 352.028 793.857 258.46C745.925 177.989 645.561 91.6607 531.977 88.1515C385.048 83.6374 230.914 218.147 240.739 321.343C252.154 441.388 476.914 428.683 534.386 591.655C590.778 751.497 414.467 876.941 487.662 1020.42C525.527 1094.74 621.165 1155.79 692.081 1137.82Z" stroke="#D71A17" stroke-opacity="0.25" stroke-miterlimit="10"/>
</g>
<defs>
<clipPath id="clip0_271_1788">
<rect width="955" height="945" fill="white" transform="translate(1232.13 351.027) rotate(111.805)"/>
</clipPath>
</defs>
</svg>
