<svg width="719" height="856" viewBox="0 0 719 856" fill="none" xmlns="http://www.w3.org/2000/svg">
<g clip-path="url(#clip0_271_1745)">
<path d="M149.171 656.094C238.406 633.826 281.086 599.643 354.422 619.208C415.997 635.656 432.382 672.242 485.463 670.924C543.405 669.461 600.416 623.922 624.54 574.278C677.894 464.299 580.645 312.725 494.111 236.596C378.963 135.257 242.722 132.547 154.52 130.608C125.865 130.027 -84.8876 125.707 -115.925 211.907C-125.618 238.864 -118.796 277.549 -103.635 283.373C-89.4938 288.791 -74.8753 263.005 -41.7441 261.291C-25.2841 260.439 -12.6947 266.018 -1.88997 270.95C34.5626 287.59 114.041 345.298 103.236 405.04C92.0517 466.76 -11.8521 509.538 -81.313 486.533C-154.625 462.246 -161.147 374.111 -223.787 371.408C-258.365 369.905 -292.255 395.186 -305.901 423.173C-333.775 480.372 -283.896 562.45 -234.857 605.67C-107.704 717.244 122.471 662.723 149.171 656.094Z" stroke="#D71A17" stroke-opacity="0.25" stroke-miterlimit="10"/>
</g>
<defs>
<clipPath id="clip0_271_1745">
<rect width="944" height="621" fill="white" transform="translate(548.897 855.82) rotate(-164.103)"/>
</clipPath>
</defs>
</svg>
