<svg width="595" height="778" viewBox="0 0 595 778" fill="none" xmlns="http://www.w3.org/2000/svg">
<g clip-path="url(#clip0_271_1770)">
<path d="M184.738 717.238C270.714 684.072 227.208 550.488 327.083 407.813C409.853 289.55 514.096 275.064 504.467 226.813C494.43 176.544 369.168 131.306 269.715 162.854C158.851 198.017 143.944 308.317 8.42045 339.178C-28.5601 347.56 -49.0282 344.308 -65.8451 363.793C-110.766 415.879 -48.7048 537.046 -18.7643 595.498C21.4924 674.1 52.3945 693.339 62.2127 699.005C70.1642 703.553 131.395 737.804 184.738 717.238Z" stroke="#D71A17" stroke-opacity="0.25" stroke-miterlimit="10"/>
</g>
<defs>
<clipPath id="clip0_271_1770">
<rect width="659.177" height="434.41" fill="white" transform="matrix(0.691112 -0.722748 0.720945 0.692992 -174.544 476.418)"/>
</clipPath>
</defs>
</svg>
