<svg width="588" height="801" viewBox="0 0 588 801" fill="none" xmlns="http://www.w3.org/2000/svg">
<g clip-path="url(#clip0_271_1768)">
<path d="M67.0887 386.679C75.4935 492.418 142.788 580.271 220.575 622.182C320.653 676.082 360.667 612.293 519.389 646.715C698.708 685.675 794.9 798.921 857.211 753.885C869.275 745.157 884.039 727.572 880.296 713.59C873.262 687.402 804.968 687.262 764.967 682.688C689.563 674.081 533.663 631.162 507.304 545.28C484.284 470.273 564.56 374.881 573.665 364.305C615.242 315.986 649.323 311.248 655.814 275.287C666.245 217.495 590.983 159.446 571.52 144.433C552.763 129.973 405.564 16.4567 241.359 92.05C126.025 145.219 57.5239 266.342 67.0887 386.679Z" stroke="#D71A17" stroke-opacity="0.25" stroke-miterlimit="10"/>
</g>
<defs>
<clipPath id="clip0_271_1768">
<rect width="890.95" height="589.999" fill="white" transform="translate(152.703) rotate(15)"/>
</clipPath>
</defs>
</svg>
