<svg width="100%" height="auto" viewBox="0 0 1915 429" fill="none" xmlns="http://www.w3.org/2000/svg">
<mask id="path-1-outside-1_271_1779" maskUnits="userSpaceOnUse" x="-907" y="0" width="4308" height="429" fill="black">
<rect fill="white" x="-907" width="4308" height="429"/>
<path d="M-730.903 379.052C-646.856 379.052 -581.281 355.539 -581.281 276.701C-581.281 212.617 -625.152 184.032 -686.571 173.89C-632.541 163.747 -608.527 138.39 -608.527 94.1299C-608.527 22.6688 -669.023 10.2208 -739.215 10.2208H-905C-900.844 43.4156 -899.458 65.5455 -899.458 113.032V276.24C-899.458 323.727 -900.844 345.857 -905 379.052H-730.903ZM-803.867 21.2857H-777.544C-735.521 21.2857 -704.581 43.8766 -704.581 94.1299C-704.581 143 -723.514 167.896 -775.236 167.896H-803.867V21.2857ZM-803.867 178.961H-770.618C-730.441 178.961 -684.262 196.02 -684.262 278.084C-684.262 346.318 -724.9 367.987 -772.927 367.987H-803.867V178.961ZM-253.389 294.221C-277.402 238.435 -317.117 215.383 -365.605 207.084C-293.103 201.091 -236.302 178.961 -236.302 109.344C-236.302 25.8961 -318.502 10.2208 -410.861 10.2208H-540.164C-536.008 43.4156 -534.622 65.5455 -534.622 113.032V276.24C-534.622 323.727 -536.008 345.857 -540.164 379.052H-433.489C-437.645 345.857 -439.031 323.727 -439.031 276.24V208.468H-432.565C-390.542 208.468 -377.15 220.916 -352.675 297.448C-328.661 371.675 -266.319 379.052 -170.727 379.052V369.37C-211.365 369.37 -230.761 347.701 -253.389 294.221ZM-439.031 21.2857H-412.246C-368.376 21.2857 -332.356 39.7273 -332.356 109.344C-332.356 178.961 -368.376 197.403 -412.246 197.403H-439.031V21.2857ZM39.0972 388.273C166.553 388.273 263.991 318.195 263.991 194.636C263.991 71.539 166.553 1 39.0972 1C-89.2819 1 -186.259 71.539 -186.259 194.636C-186.259 318.195 -89.2819 388.273 39.0972 388.273ZM39.0972 377.208C-46.335 377.208 -83.7404 291.916 -83.7404 194.636C-83.7404 97.8182 -46.335 12.0649 39.0972 12.0649C123.606 12.0649 161.473 97.8182 161.473 194.636C161.473 291.916 123.606 377.208 39.0972 377.208ZM491.061 140.695L572.337 58.1688C590.347 40.1883 602.816 28.2013 627.291 10.2208H600.507C588.038 28.2013 576.493 40.1883 556.636 59.0909L406.091 208.007V113.032C406.091 65.5455 407.476 43.4156 411.632 10.2208H304.958C309.114 43.4156 310.499 65.5455 310.499 113.032V276.24C310.499 323.727 309.114 345.857 304.958 379.052H411.632C407.476 345.857 406.091 323.727 406.091 276.24V223.682L420.407 208.007L512.304 329.26C530.314 353.695 535.855 361.071 543.706 379.052H682.245C659.155 361.533 648.533 350.007 632.832 329.26L491.061 140.695ZM970.802 379.052L989.735 337.097C922.775 364.76 897.376 367.987 847.502 367.987H812.868V190.948H835.034C859.509 190.948 884.446 190.948 927.393 195.558V175.273C884.446 179.883 859.509 179.883 835.034 179.883H812.868V21.2857H851.197C879.828 21.2857 913.539 25.8961 950.944 53.5584L980.961 10.2208H711.734C715.891 43.4156 717.738 65.5455 717.738 113.032V276.24C717.738 323.727 715.891 345.857 711.734 379.052H970.802ZM1357.83 388.273L1497.29 32.3507V276.24C1497.29 323.727 1495.44 345.857 1491.75 379.052H1597.96C1594.27 345.857 1592.42 323.727 1592.42 276.24V113.032C1592.42 65.5455 1594.27 43.4156 1597.96 10.2208H1494.52L1393.85 261.026L1284.87 10.2208H1171.73C1175.88 43.4156 1177.27 65.5455 1177.27 113.032V276.24C1177.27 323.727 1175.88 345.857 1171.73 379.052H1194.35C1190.2 345.857 1188.35 323.727 1188.35 276.24V33.7338L1340.28 388.273H1357.83ZM1830.62 388.273C1920.21 388.273 1959 343.091 1959 222.299V113.032C1959 65.5455 1960.84 43.4156 1964.54 10.2208H1942.37C1946.07 43.4156 1947.91 65.5455 1947.91 113.032V222.299C1947.91 332.948 1914.66 369.831 1847.7 369.831C1774.74 369.831 1753.04 328.338 1753.04 222.299V113.032C1753.04 65.5455 1754.42 43.4156 1758.58 10.2208H1651.9C1656.06 43.4156 1657.44 65.5455 1657.44 113.032V222.299C1657.44 355.539 1730.87 388.273 1830.62 388.273ZM2177.71 388.273C2240.52 388.273 2295.01 356.922 2295.01 289.61C2295.01 224.143 2249.75 193.714 2157.86 135.162C2086.74 90.4416 2069.65 77.0714 2069.65 52.1753C2069.65 30.0455 2089.97 12.0649 2125.07 12.0649C2185.56 12.0649 2209.12 66.0065 2224.82 119.487L2289.01 91.8247C2241.9 25.8961 2192.03 1 2130.61 1C2069.65 1 2017.47 29.1234 2017.47 86.2922C2017.47 138.851 2048.87 166.052 2129.23 219.071C2206.35 270.247 2242.83 293.299 2242.83 326.032C2242.83 357.383 2221.58 377.208 2184.64 377.208C2122.76 377.208 2078.89 316.351 2060.88 236.591L1996.23 273.935C2041.95 357.844 2098.75 388.273 2177.71 388.273ZM2442.36 379.052C2438.2 345.857 2436.82 323.727 2436.82 276.24V113.032C2436.82 65.5455 2438.2 43.4156 2442.36 10.2208H2335.68C2339.84 43.4156 2341.23 65.5455 2341.23 113.032V276.24C2341.23 323.727 2339.84 345.857 2335.68 379.052H2442.36ZM2685.74 388.273C2784.56 388.273 2840.9 325.571 2866.3 220.455H2856.6C2834.9 314.045 2781.79 360.61 2713.45 360.61C2625.24 360.61 2586.92 281.773 2586.92 183.571C2586.92 88.5974 2620.17 12.0649 2683.43 12.0649C2731.92 12.0649 2755.47 64.6234 2764.24 137.007L2851.99 112.571C2820.12 44.7987 2764.71 1 2683.43 1C2575.37 1 2484.4 70.1559 2484.4 190.026C2484.4 309.896 2564.29 388.273 2685.74 388.273ZM3052.73 427C3176.03 422.39 3276.7 422.39 3400 427V394.266C3276.7 398.877 3176.03 398.877 3052.73 394.266V427Z"/>
</mask>
<path d="M-730.903 379.052C-646.856 379.052 -581.281 355.539 -581.281 276.701C-581.281 212.617 -625.152 184.032 -686.571 173.89C-632.541 163.747 -608.527 138.39 -608.527 94.1299C-608.527 22.6688 -669.023 10.2208 -739.215 10.2208H-905C-900.844 43.4156 -899.458 65.5455 -899.458 113.032V276.24C-899.458 323.727 -900.844 345.857 -905 379.052H-730.903ZM-803.867 21.2857H-777.544C-735.521 21.2857 -704.581 43.8766 -704.581 94.1299C-704.581 143 -723.514 167.896 -775.236 167.896H-803.867V21.2857ZM-803.867 178.961H-770.618C-730.441 178.961 -684.262 196.02 -684.262 278.084C-684.262 346.318 -724.9 367.987 -772.927 367.987H-803.867V178.961ZM-253.389 294.221C-277.402 238.435 -317.117 215.383 -365.605 207.084C-293.103 201.091 -236.302 178.961 -236.302 109.344C-236.302 25.8961 -318.502 10.2208 -410.861 10.2208H-540.164C-536.008 43.4156 -534.622 65.5455 -534.622 113.032V276.24C-534.622 323.727 -536.008 345.857 -540.164 379.052H-433.489C-437.645 345.857 -439.031 323.727 -439.031 276.24V208.468H-432.565C-390.542 208.468 -377.15 220.916 -352.675 297.448C-328.661 371.675 -266.319 379.052 -170.727 379.052V369.37C-211.365 369.37 -230.761 347.701 -253.389 294.221ZM-439.031 21.2857H-412.246C-368.376 21.2857 -332.356 39.7273 -332.356 109.344C-332.356 178.961 -368.376 197.403 -412.246 197.403H-439.031V21.2857ZM39.0972 388.273C166.553 388.273 263.991 318.195 263.991 194.636C263.991 71.539 166.553 1 39.0972 1C-89.2819 1 -186.259 71.539 -186.259 194.636C-186.259 318.195 -89.2819 388.273 39.0972 388.273ZM39.0972 377.208C-46.335 377.208 -83.7404 291.916 -83.7404 194.636C-83.7404 97.8182 -46.335 12.0649 39.0972 12.0649C123.606 12.0649 161.473 97.8182 161.473 194.636C161.473 291.916 123.606 377.208 39.0972 377.208ZM491.061 140.695L572.337 58.1688C590.347 40.1883 602.816 28.2013 627.291 10.2208H600.507C588.038 28.2013 576.493 40.1883 556.636 59.0909L406.091 208.007V113.032C406.091 65.5455 407.476 43.4156 411.632 10.2208H304.958C309.114 43.4156 310.499 65.5455 310.499 113.032V276.24C310.499 323.727 309.114 345.857 304.958 379.052H411.632C407.476 345.857 406.091 323.727 406.091 276.24V223.682L420.407 208.007L512.304 329.26C530.314 353.695 535.855 361.071 543.706 379.052H682.245C659.155 361.533 648.533 350.007 632.832 329.26L491.061 140.695ZM970.802 379.052L989.735 337.097C922.775 364.76 897.376 367.987 847.502 367.987H812.868V190.948H835.034C859.509 190.948 884.446 190.948 927.393 195.558V175.273C884.446 179.883 859.509 179.883 835.034 179.883H812.868V21.2857H851.197C879.828 21.2857 913.539 25.8961 950.944 53.5584L980.961 10.2208H711.734C715.891 43.4156 717.738 65.5455 717.738 113.032V276.24C717.738 323.727 715.891 345.857 711.734 379.052H970.802ZM1357.83 388.273L1497.29 32.3507V276.24C1497.29 323.727 1495.44 345.857 1491.75 379.052H1597.96C1594.27 345.857 1592.42 323.727 1592.42 276.24V113.032C1592.42 65.5455 1594.27 43.4156 1597.96 10.2208H1494.52L1393.85 261.026L1284.87 10.2208H1171.73C1175.88 43.4156 1177.27 65.5455 1177.27 113.032V276.24C1177.27 323.727 1175.88 345.857 1171.73 379.052H1194.35C1190.2 345.857 1188.35 323.727 1188.35 276.24V33.7338L1340.28 388.273H1357.83ZM1830.62 388.273C1920.21 388.273 1959 343.091 1959 222.299V113.032C1959 65.5455 1960.84 43.4156 1964.54 10.2208H1942.37C1946.07 43.4156 1947.91 65.5455 1947.91 113.032V222.299C1947.91 332.948 1914.66 369.831 1847.7 369.831C1774.74 369.831 1753.04 328.338 1753.04 222.299V113.032C1753.04 65.5455 1754.42 43.4156 1758.58 10.2208H1651.9C1656.06 43.4156 1657.44 65.5455 1657.44 113.032V222.299C1657.44 355.539 1730.87 388.273 1830.62 388.273ZM2177.71 388.273C2240.52 388.273 2295.01 356.922 2295.01 289.61C2295.01 224.143 2249.75 193.714 2157.86 135.162C2086.74 90.4416 2069.65 77.0714 2069.65 52.1753C2069.65 30.0455 2089.97 12.0649 2125.07 12.0649C2185.56 12.0649 2209.12 66.0065 2224.82 119.487L2289.01 91.8247C2241.9 25.8961 2192.03 1 2130.61 1C2069.65 1 2017.47 29.1234 2017.47 86.2922C2017.47 138.851 2048.87 166.052 2129.23 219.071C2206.35 270.247 2242.83 293.299 2242.83 326.032C2242.83 357.383 2221.58 377.208 2184.64 377.208C2122.76 377.208 2078.89 316.351 2060.88 236.591L1996.23 273.935C2041.95 357.844 2098.75 388.273 2177.71 388.273ZM2442.36 379.052C2438.2 345.857 2436.82 323.727 2436.82 276.24V113.032C2436.82 65.5455 2438.2 43.4156 2442.36 10.2208H2335.68C2339.84 43.4156 2341.23 65.5455 2341.23 113.032V276.24C2341.23 323.727 2339.84 345.857 2335.68 379.052H2442.36ZM2685.74 388.273C2784.56 388.273 2840.9 325.571 2866.3 220.455H2856.6C2834.9 314.045 2781.79 360.61 2713.45 360.61C2625.24 360.61 2586.92 281.773 2586.92 183.571C2586.92 88.5974 2620.17 12.0649 2683.43 12.0649C2731.92 12.0649 2755.47 64.6234 2764.24 137.007L2851.99 112.571C2820.12 44.7987 2764.71 1 2683.43 1C2575.37 1 2484.4 70.1559 2484.4 190.026C2484.4 309.896 2564.29 388.273 2685.74 388.273ZM3052.73 427C3176.03 422.39 3276.7 422.39 3400 427V394.266C3276.7 398.877 3176.03 398.877 3052.73 394.266V427Z" stroke="#E4DED5" stroke-width="2" mask="url(#path-1-outside-1_271_1779)"/>
</svg>
