<svg width="1915" height="402" viewBox="0 0 1915 402" fill="none" xmlns="http://www.w3.org/2000/svg">
<mask id="path-1-outside-1_485_562" maskUnits="userSpaceOnUse" x="-411.927" y="0" width="3681" height="402" fill="black">
<rect fill="white" x="-411.927" width="3681" height="402"/>
<path d="M-144.743 391.476L-125.29 348.143C-194.089 376.714 -220.186 380.048 -271.43 380.048H-307.016V197.19H-284.241C-259.093 197.19 -233.471 197.19 -189.345 201.952V181C-233.471 185.762 -259.093 185.762 -284.241 185.762H-307.016V21.9524H-267.634C-238.216 21.9524 -203.579 26.7143 -165.146 55.2857L-134.305 10.5238H-410.927C-406.657 44.8095 -404.759 67.6667 -404.759 116.714V285.286C-404.759 334.333 -406.657 357.19 -410.927 391.476H-144.743Z"/>
<path d="M67.5903 401C132.12 401 188.108 368.619 188.108 299.095C188.108 231.476 141.609 200.048 47.1876 139.571C-25.8824 93.381 -43.4382 79.5714 -43.4382 53.8571C-43.4382 31 -22.561 12.4286 13.4995 12.4286C75.6565 12.4286 99.855 68.1429 115.987 123.381L181.94 94.8095C133.543 26.7143 82.2992 1 19.1933 1C-43.4381 1 -97.0545 30.0476 -97.0545 89.0952C-97.0545 143.381 -64.7898 171.476 17.7698 226.238C97.0081 279.095 134.492 302.905 134.492 336.714C134.492 369.095 112.666 389.571 74.7075 389.571C11.1271 389.571 -33.9485 326.714 -52.4533 244.333L-118.881 282.905C-71.907 369.571 -13.5459 401 67.5903 401Z"/>
<path d="M416.133 391.476C411.863 357.19 410.44 334.333 410.44 285.286V21.9524H416.608C446.5 21.9524 476.867 26.7143 514.825 55.2857L546.141 10.5238H176.521L207.836 55.2857C246.269 26.7143 276.162 21.9524 306.054 21.9524H312.222V285.286C312.222 334.333 310.799 357.19 306.528 391.476H416.133Z"/>
<path d="M761.396 401C853.445 401 893.302 354.333 893.302 229.571V116.714C893.302 67.6667 895.199 44.8095 898.995 10.5238H876.22C880.016 44.8095 881.914 67.6667 881.914 116.714V229.571C881.914 343.857 847.751 381.952 778.952 381.952C703.984 381.952 681.683 339.095 681.683 229.571V116.714C681.683 67.6667 683.107 44.8095 687.377 10.5238H577.772C582.042 44.8095 583.466 67.6667 583.466 116.714V229.571C583.466 367.19 658.908 401 761.396 401Z"/>
<path d="M1089.56 391.476C1222.41 391.476 1304.02 326.238 1304.02 201C1304.02 70.5238 1220.04 10.5238 1089.56 10.5238H945.791C950.061 44.8095 951.485 67.6667 951.485 116.714V285.286C951.485 334.333 950.061 357.19 945.791 391.476H1089.56ZM1049.7 21.9524H1086.24C1154.09 21.9524 1198.69 77.1905 1198.69 201C1198.69 320.048 1154.09 380.048 1086.24 380.048H1049.7V21.9524Z"/>
<path d="M1455.74 391.476C1451.47 357.19 1450.05 334.333 1450.05 285.286V116.714C1450.05 67.6667 1451.47 44.8095 1455.74 10.5238H1346.13C1350.4 44.8095 1351.83 67.6667 1351.83 116.714V285.286C1351.83 334.333 1350.4 357.19 1346.13 391.476H1455.74Z"/>
<path d="M1730.48 401C1861.43 401 1961.55 328.619 1961.55 201C1961.55 73.8571 1861.43 1 1730.48 1C1598.57 1 1498.93 73.8571 1498.93 201C1498.93 328.619 1598.57 401 1730.48 401ZM1730.48 389.571C1642.7 389.571 1604.27 301.476 1604.27 201C1604.27 101 1642.7 12.4286 1730.48 12.4286C1817.31 12.4286 1856.22 101 1856.22 201C1856.22 301.476 1817.31 389.571 1730.48 389.571Z"/>
<path d="M2317.73 401C2394.12 401 2466.24 357.667 2466.24 280.048C2466.24 203.857 2408.83 176.714 2342.88 179.571C2392.7 162.905 2434.45 136.714 2434.45 85.2857C2434.45 25.2857 2371.35 1 2308.24 1C2238.02 1 2188.2 40.0476 2166.84 83.8571L2232.8 113.857C2245.61 50.0476 2264.59 12.4286 2304.44 12.4286C2334.34 12.4286 2349.05 33.381 2349.05 66.2381C2349.05 109.571 2332.91 153.857 2262.69 194.333L2264.59 205.762C2333.86 189.571 2374.19 227.667 2374.19 280.048C2374.19 331.952 2346.2 372.429 2285.46 372.429C2230.42 372.429 2174.44 347.19 2159.73 265.286H2149.76C2161.15 359.095 2224.73 401 2317.73 401Z"/>
<path d="M2782.19 391.476L2809.71 297.19C2747.56 332.429 2720.04 334.81 2662.15 335.286L2515.06 337.19C2538.79 275.286 2578.64 255.762 2667.37 227.19C2727.63 205.286 2801.65 181.952 2801.65 104.81C2801.65 31 2718.61 1 2646.97 1C2576.27 1 2497.03 32.4286 2497.03 95.7619C2497.03 131 2516.96 161.952 2557.29 183.381L2618.02 134.81C2586.23 123.381 2570.58 101.476 2570.58 74.3334C2570.58 40.5238 2597.62 12.4286 2638.43 12.4286C2678.28 12.4286 2702.96 43.8572 2702.96 90.5238C2702.96 142.905 2669.27 173.857 2613.28 212.905C2553.02 254.81 2503.67 284.333 2492.76 391.476H2782.19Z"/>
<path d="M2998.01 284.81C3083.42 280.048 3183.53 280.048 3268.47 284.81V250.524C3183.53 255.286 3083.42 255.286 2998.01 250.524V284.81Z"/>
</mask>
<path d="M-144.743 391.476L-125.29 348.143C-194.089 376.714 -220.186 380.048 -271.43 380.048H-307.016V197.19H-284.241C-259.093 197.19 -233.471 197.19 -189.345 201.952V181C-233.471 185.762 -259.093 185.762 -284.241 185.762H-307.016V21.9524H-267.634C-238.216 21.9524 -203.579 26.7143 -165.146 55.2857L-134.305 10.5238H-410.927C-406.657 44.8095 -404.759 67.6667 -404.759 116.714V285.286C-404.759 334.333 -406.657 357.19 -410.927 391.476H-144.743Z" stroke="#E4DED5" mask="url(#path-1-outside-1_485_562)"/>
<path d="M67.5903 401C132.12 401 188.108 368.619 188.108 299.095C188.108 231.476 141.609 200.048 47.1876 139.571C-25.8824 93.381 -43.4382 79.5714 -43.4382 53.8571C-43.4382 31 -22.561 12.4286 13.4995 12.4286C75.6565 12.4286 99.855 68.1429 115.987 123.381L181.94 94.8095C133.543 26.7143 82.2992 1 19.1933 1C-43.4381 1 -97.0545 30.0476 -97.0545 89.0952C-97.0545 143.381 -64.7898 171.476 17.7698 226.238C97.0081 279.095 134.492 302.905 134.492 336.714C134.492 369.095 112.666 389.571 74.7075 389.571C11.1271 389.571 -33.9485 326.714 -52.4533 244.333L-118.881 282.905C-71.907 369.571 -13.5459 401 67.5903 401Z" stroke="#E4DED5" mask="url(#path-1-outside-1_485_562)"/>
<path d="M416.133 391.476C411.863 357.19 410.44 334.333 410.44 285.286V21.9524H416.608C446.5 21.9524 476.867 26.7143 514.825 55.2857L546.141 10.5238H176.521L207.836 55.2857C246.269 26.7143 276.162 21.9524 306.054 21.9524H312.222V285.286C312.222 334.333 310.799 357.19 306.528 391.476H416.133Z" stroke="#E4DED5" mask="url(#path-1-outside-1_485_562)"/>
<path d="M761.396 401C853.445 401 893.302 354.333 893.302 229.571V116.714C893.302 67.6667 895.199 44.8095 898.995 10.5238H876.22C880.016 44.8095 881.914 67.6667 881.914 116.714V229.571C881.914 343.857 847.751 381.952 778.952 381.952C703.984 381.952 681.683 339.095 681.683 229.571V116.714C681.683 67.6667 683.107 44.8095 687.377 10.5238H577.772C582.042 44.8095 583.466 67.6667 583.466 116.714V229.571C583.466 367.19 658.908 401 761.396 401Z" stroke="#E4DED5" mask="url(#path-1-outside-1_485_562)"/>
<path d="M1089.56 391.476C1222.41 391.476 1304.02 326.238 1304.02 201C1304.02 70.5238 1220.04 10.5238 1089.56 10.5238H945.791C950.061 44.8095 951.485 67.6667 951.485 116.714V285.286C951.485 334.333 950.061 357.19 945.791 391.476H1089.56ZM1049.7 21.9524H1086.24C1154.09 21.9524 1198.69 77.1905 1198.69 201C1198.69 320.048 1154.09 380.048 1086.24 380.048H1049.7V21.9524Z" stroke="#E4DED5" mask="url(#path-1-outside-1_485_562)"/>
<path d="M1455.74 391.476C1451.47 357.19 1450.05 334.333 1450.05 285.286V116.714C1450.05 67.6667 1451.47 44.8095 1455.74 10.5238H1346.13C1350.4 44.8095 1351.83 67.6667 1351.83 116.714V285.286C1351.83 334.333 1350.4 357.19 1346.13 391.476H1455.74Z" stroke="#E4DED5" mask="url(#path-1-outside-1_485_562)"/>
<path d="M1730.48 401C1861.43 401 1961.55 328.619 1961.55 201C1961.55 73.8571 1861.43 1 1730.48 1C1598.57 1 1498.93 73.8571 1498.93 201C1498.93 328.619 1598.57 401 1730.48 401ZM1730.48 389.571C1642.7 389.571 1604.27 301.476 1604.27 201C1604.27 101 1642.7 12.4286 1730.48 12.4286C1817.31 12.4286 1856.22 101 1856.22 201C1856.22 301.476 1817.31 389.571 1730.48 389.571Z" stroke="#E4DED5" mask="url(#path-1-outside-1_485_562)"/>
<path d="M2317.73 401C2394.12 401 2466.24 357.667 2466.24 280.048C2466.24 203.857 2408.83 176.714 2342.88 179.571C2392.7 162.905 2434.45 136.714 2434.45 85.2857C2434.45 25.2857 2371.35 1 2308.24 1C2238.02 1 2188.2 40.0476 2166.84 83.8571L2232.8 113.857C2245.61 50.0476 2264.59 12.4286 2304.44 12.4286C2334.34 12.4286 2349.05 33.381 2349.05 66.2381C2349.05 109.571 2332.91 153.857 2262.69 194.333L2264.59 205.762C2333.86 189.571 2374.19 227.667 2374.19 280.048C2374.19 331.952 2346.2 372.429 2285.46 372.429C2230.42 372.429 2174.44 347.19 2159.73 265.286H2149.76C2161.15 359.095 2224.73 401 2317.73 401Z" stroke="#E4DED5" mask="url(#path-1-outside-1_485_562)"/>
<path d="M2782.19 391.476L2809.71 297.19C2747.56 332.429 2720.04 334.81 2662.15 335.286L2515.06 337.19C2538.79 275.286 2578.64 255.762 2667.37 227.19C2727.63 205.286 2801.65 181.952 2801.65 104.81C2801.65 31 2718.61 1 2646.97 1C2576.27 1 2497.03 32.4286 2497.03 95.7619C2497.03 131 2516.96 161.952 2557.29 183.381L2618.02 134.81C2586.23 123.381 2570.58 101.476 2570.58 74.3334C2570.58 40.5238 2597.62 12.4286 2638.43 12.4286C2678.28 12.4286 2702.96 43.8572 2702.96 90.5238C2702.96 142.905 2669.27 173.857 2613.28 212.905C2553.02 254.81 2503.67 284.333 2492.76 391.476H2782.19Z" stroke="#E4DED5" mask="url(#path-1-outside-1_485_562)"/>
<path d="M2998.01 284.81C3083.42 280.048 3183.53 280.048 3268.47 284.81V250.524C3183.53 255.286 3083.42 255.286 2998.01 250.524V284.81Z" stroke="#E4DED5" mask="url(#path-1-outside-1_485_562)"/>
</svg>
