<svg width="473" height="1001" viewBox="0 0 473 1001" fill="none" xmlns="http://www.w3.org/2000/svg">
<path d="M-304.571 838.635C-237.936 978.831 -12.9742 1042.55 87.4031 969.46C208.599 881.187 76.4141 645.625 223.456 506.745C317.028 418.39 430.437 457.218 464.154 374.54C499.659 287.464 404.422 169.518 346.64 117.166C253.717 32.9202 83.9071 -39.1385 -17.1341 25.7925C-131.538 99.2579 -77.8204 296.983 -184.245 334.941C-253.958 359.836 -318.619 289.918 -388.614 333.672C-422.446 354.837 -447.536 396.353 -437.082 415.384C-420.095 446.302 -325.771 387.497 -215.008 425.684C-157.111 445.641 -90.9035 493.484 -96.6352 531.636C-104.75 586.615 -253.102 564.689 -308.878 658.665C-353.114 733.082 -308.82 829.675 -304.571 838.635Z" stroke="#E52421" stroke-opacity="0.25" stroke-miterlimit="10"/>
</svg>
