<svg width="1915" height="403" viewBox="0 0 1915 403" fill="none" xmlns="http://www.w3.org/2000/svg">
<mask id="path-1-outside-1_271_1742" maskUnits="userSpaceOnUse" x="-924" y="0" width="3769" height="403" fill="black">
<rect fill="white" x="-924" width="3769" height="403"/>
<path d="M-811.885 392.452C-816.195 358.081 -818.111 335.167 -818.111 285.996V211.525H-791.29C-765.906 211.525 -740.043 211.525 -695.502 216.299V195.294C-740.043 200.068 -765.906 200.068 -791.29 200.068H-818.111V22.0048H-768.78C-739.085 22.0048 -704.123 26.7786 -665.328 55.4214L-634.197 10.5476H-923C-918.69 44.919 -916.774 67.8334 -916.774 117.004V285.996C-916.774 335.167 -918.69 358.081 -923 392.452H-811.885Z"/>
<path d="M-295.366 304.614C-320.271 246.851 -361.461 222.982 -411.75 214.389C-336.555 208.183 -277.645 185.269 -277.645 113.185C-277.645 26.7786 -362.897 10.5476 -458.686 10.5476H-592.79C-588.48 44.919 -587.043 67.8334 -587.043 117.004V285.996C-587.043 335.167 -588.48 358.081 -592.79 392.452H-482.154C-486.465 358.081 -487.902 335.167 -487.902 285.996V215.821H-481.197C-437.613 215.821 -423.723 228.711 -398.339 307.956C-373.434 384.814 -308.777 392.452 -209.635 392.452V382.427C-251.782 382.427 -271.898 359.99 -295.366 304.614ZM-487.902 22.0048H-460.123C-414.623 22.0048 -377.266 41.1 -377.266 113.185C-377.266 185.269 -414.623 204.364 -460.123 204.364H-487.902V22.0048Z"/>
<path d="M7.98132 402C140.17 402 241.227 329.438 241.227 201.5C241.227 74.0393 140.17 1 7.98132 1C-125.165 1 -225.743 74.0393 -225.743 201.5C-225.743 329.438 -125.165 402 7.98132 402ZM7.98132 390.543C-80.6234 390.543 -119.418 302.227 -119.418 201.5C-119.418 101.25 -80.6234 12.4571 7.98132 12.4571C95.6281 12.4571 134.901 101.25 134.901 201.5C134.901 302.227 95.6281 390.543 7.98132 390.543Z"/>
<path d="M491.296 402C582.774 402 630.19 350.92 648.868 273.107V286.474C648.868 323.232 646.953 356.649 642.163 392.452H673.773C668.984 356.649 667.068 323.232 667.068 286.474V212.002H704.905V200.545H490.338L521.948 245.419C560.264 216.776 595.227 212.002 624.921 212.002H648.868C643.6 309.865 598.1 372.88 523.385 372.88C438.133 372.88 396.944 291.725 396.944 190.043C396.944 91.7024 431.428 12.4571 498.48 12.4571C550.685 12.4571 575.111 66.8786 584.69 135.144L675.21 109.843C642.163 46.3512 584.69 1 498.48 1C384.97 1 290.618 72.6072 290.618 196.726C290.618 320.845 373.476 402 491.296 402Z"/>
<path d="M1069.5 392.452C1156.67 392.452 1224.68 368.106 1224.68 286.474C1224.68 220.118 1179.18 190.52 1115.48 180.018C1171.52 169.515 1196.43 143.26 1196.43 97.431C1196.43 23.4369 1133.68 10.5476 1060.88 10.5476H888.943C893.253 44.919 894.69 67.8334 894.69 117.004V285.996C894.69 335.167 893.253 358.081 888.943 392.452H1069.5ZM993.832 22.0048H1021.13C1064.72 22.0048 1096.8 45.3964 1096.8 97.431C1096.8 148.033 1077.17 173.812 1023.53 173.812H993.832V22.0048ZM993.832 185.269H1028.32C1069.98 185.269 1117.88 202.932 1117.88 287.906C1117.88 358.558 1075.73 380.995 1025.92 380.995H993.832V185.269Z"/>
<path d="M1462.99 10.5476H1345.17C1349.96 26.3012 1348.53 33.9393 1344.7 49.2155L1266.63 338.986C1261.84 356.649 1258.96 367.629 1246.99 392.452H1268.06C1269.5 369.061 1273.81 356.649 1278.6 338.508L1300.15 257.354H1425.16L1445.75 332.302C1452.46 356.649 1455.33 367.151 1456.77 392.452H1574.59C1564.05 373.357 1558.3 359.513 1551.12 332.302L1462.99 10.5476ZM1361.94 27.7333L1421.81 245.896H1303.51L1361.94 27.7333Z"/>
<path d="M1924.18 392.452L1944.3 349.011C1874.85 377.654 1843.24 380.995 1800.14 380.995H1720.15L1931.85 30.1202V10.5476H1614.31L1645.92 53.9893C1684.23 25.3464 1719.2 22.0048 1748.89 22.0048H1818.82L1607.6 372.88V392.452H1924.18Z"/>
<path d="M2187.02 10.5476H2069.2C2073.99 26.3012 2072.56 33.9393 2068.72 49.2155L1990.66 338.986C1985.87 356.649 1982.99 367.629 1971.02 392.452H1992.09C1993.53 369.061 1997.84 356.649 2002.63 338.508L2024.18 257.354H2149.19L2169.78 332.302C2176.49 356.649 2179.36 367.151 2180.8 392.452H2298.62C2288.08 373.357 2282.33 359.513 2275.15 332.302L2187.02 10.5476ZM2085.97 27.7333L2145.83 245.896H2027.54L2085.97 27.7333Z"/>
<path d="M2637.23 304.614C2612.33 246.851 2571.14 222.982 2520.85 214.389C2596.04 208.183 2654.95 185.269 2654.95 113.185C2654.95 26.7786 2569.7 10.5476 2473.91 10.5476H2339.81C2344.12 44.919 2345.55 67.8334 2345.55 117.004V285.996C2345.55 335.167 2344.12 358.081 2339.81 392.452H2450.44C2446.13 358.081 2444.7 335.167 2444.7 285.996V215.821H2451.4C2494.98 215.821 2508.87 228.711 2534.26 307.956C2559.16 384.814 2623.82 392.452 2722.96 392.452V382.427C2680.81 382.427 2660.7 359.99 2637.23 304.614ZM2444.7 22.0048H2472.47C2517.97 22.0048 2555.33 41.1 2555.33 113.185C2555.33 185.269 2517.97 204.364 2472.47 204.364H2444.7V22.0048Z"/>
<path d="M2844 362.377L2804.25 322.755L2764.5 362.377L2804.25 402L2844 362.377Z"/>
</mask>
<path d="M-811.885 392.452C-816.195 358.081 -818.111 335.167 -818.111 285.996V211.525H-791.29C-765.906 211.525 -740.043 211.525 -695.502 216.299V195.294C-740.043 200.068 -765.906 200.068 -791.29 200.068H-818.111V22.0048H-768.78C-739.085 22.0048 -704.123 26.7786 -665.328 55.4214L-634.197 10.5476H-923C-918.69 44.919 -916.774 67.8334 -916.774 117.004V285.996C-916.774 335.167 -918.69 358.081 -923 392.452H-811.885Z" stroke="#E4DED5" mask="url(#path-1-outside-1_271_1742)"/>
<path d="M-295.366 304.614C-320.271 246.851 -361.461 222.982 -411.75 214.389C-336.555 208.183 -277.645 185.269 -277.645 113.185C-277.645 26.7786 -362.897 10.5476 -458.686 10.5476H-592.79C-588.48 44.919 -587.043 67.8334 -587.043 117.004V285.996C-587.043 335.167 -588.48 358.081 -592.79 392.452H-482.154C-486.465 358.081 -487.902 335.167 -487.902 285.996V215.821H-481.197C-437.613 215.821 -423.723 228.711 -398.339 307.956C-373.434 384.814 -308.777 392.452 -209.635 392.452V382.427C-251.782 382.427 -271.898 359.99 -295.366 304.614ZM-487.902 22.0048H-460.123C-414.623 22.0048 -377.266 41.1 -377.266 113.185C-377.266 185.269 -414.623 204.364 -460.123 204.364H-487.902V22.0048Z" stroke="#E4DED5" mask="url(#path-1-outside-1_271_1742)"/>
<path d="M7.98132 402C140.17 402 241.227 329.438 241.227 201.5C241.227 74.0393 140.17 1 7.98132 1C-125.165 1 -225.743 74.0393 -225.743 201.5C-225.743 329.438 -125.165 402 7.98132 402ZM7.98132 390.543C-80.6234 390.543 -119.418 302.227 -119.418 201.5C-119.418 101.25 -80.6234 12.4571 7.98132 12.4571C95.6281 12.4571 134.901 101.25 134.901 201.5C134.901 302.227 95.6281 390.543 7.98132 390.543Z" stroke="#E4DED5" mask="url(#path-1-outside-1_271_1742)"/>
<path d="M491.296 402C582.774 402 630.19 350.92 648.868 273.107V286.474C648.868 323.232 646.953 356.649 642.163 392.452H673.773C668.984 356.649 667.068 323.232 667.068 286.474V212.002H704.905V200.545H490.338L521.948 245.419C560.264 216.776 595.227 212.002 624.921 212.002H648.868C643.6 309.865 598.1 372.88 523.385 372.88C438.133 372.88 396.944 291.725 396.944 190.043C396.944 91.7024 431.428 12.4571 498.48 12.4571C550.685 12.4571 575.111 66.8786 584.69 135.144L675.21 109.843C642.163 46.3512 584.69 1 498.48 1C384.97 1 290.618 72.6072 290.618 196.726C290.618 320.845 373.476 402 491.296 402Z" stroke="#E4DED5" mask="url(#path-1-outside-1_271_1742)"/>
<path d="M1069.5 392.452C1156.67 392.452 1224.68 368.106 1224.68 286.474C1224.68 220.118 1179.18 190.52 1115.48 180.018C1171.52 169.515 1196.43 143.26 1196.43 97.431C1196.43 23.4369 1133.68 10.5476 1060.88 10.5476H888.943C893.253 44.919 894.69 67.8334 894.69 117.004V285.996C894.69 335.167 893.253 358.081 888.943 392.452H1069.5ZM993.832 22.0048H1021.13C1064.72 22.0048 1096.8 45.3964 1096.8 97.431C1096.8 148.033 1077.17 173.812 1023.53 173.812H993.832V22.0048ZM993.832 185.269H1028.32C1069.98 185.269 1117.88 202.932 1117.88 287.906C1117.88 358.558 1075.73 380.995 1025.92 380.995H993.832V185.269Z" stroke="#E4DED5" mask="url(#path-1-outside-1_271_1742)"/>
<path d="M1462.99 10.5476H1345.17C1349.96 26.3012 1348.53 33.9393 1344.7 49.2155L1266.63 338.986C1261.84 356.649 1258.96 367.629 1246.99 392.452H1268.06C1269.5 369.061 1273.81 356.649 1278.6 338.508L1300.15 257.354H1425.16L1445.75 332.302C1452.46 356.649 1455.33 367.151 1456.77 392.452H1574.59C1564.05 373.357 1558.3 359.513 1551.12 332.302L1462.99 10.5476ZM1361.94 27.7333L1421.81 245.896H1303.51L1361.94 27.7333Z" stroke="#E4DED5" mask="url(#path-1-outside-1_271_1742)"/>
<path d="M1924.18 392.452L1944.3 349.011C1874.85 377.654 1843.24 380.995 1800.14 380.995H1720.15L1931.85 30.1202V10.5476H1614.31L1645.92 53.9893C1684.23 25.3464 1719.2 22.0048 1748.89 22.0048H1818.82L1607.6 372.88V392.452H1924.18Z" stroke="#E4DED5" mask="url(#path-1-outside-1_271_1742)"/>
<path d="M2187.02 10.5476H2069.2C2073.99 26.3012 2072.56 33.9393 2068.72 49.2155L1990.66 338.986C1985.87 356.649 1982.99 367.629 1971.02 392.452H1992.09C1993.53 369.061 1997.84 356.649 2002.63 338.508L2024.18 257.354H2149.19L2169.78 332.302C2176.49 356.649 2179.36 367.151 2180.8 392.452H2298.62C2288.08 373.357 2282.33 359.513 2275.15 332.302L2187.02 10.5476ZM2085.97 27.7333L2145.83 245.896H2027.54L2085.97 27.7333Z" stroke="#E4DED5" mask="url(#path-1-outside-1_271_1742)"/>
<path d="M2637.23 304.614C2612.33 246.851 2571.14 222.982 2520.85 214.389C2596.04 208.183 2654.95 185.269 2654.95 113.185C2654.95 26.7786 2569.7 10.5476 2473.91 10.5476H2339.81C2344.12 44.919 2345.55 67.8334 2345.55 117.004V285.996C2345.55 335.167 2344.12 358.081 2339.81 392.452H2450.44C2446.13 358.081 2444.7 335.167 2444.7 285.996V215.821H2451.4C2494.98 215.821 2508.87 228.711 2534.26 307.956C2559.16 384.814 2623.82 392.452 2722.96 392.452V382.427C2680.81 382.427 2660.7 359.99 2637.23 304.614ZM2444.7 22.0048H2472.47C2517.97 22.0048 2555.33 41.1 2555.33 113.185C2555.33 185.269 2517.97 204.364 2472.47 204.364H2444.7V22.0048Z" stroke="#E4DED5" mask="url(#path-1-outside-1_271_1742)"/>
<path d="M2844 362.377L2804.25 322.755L2764.5 362.377L2804.25 402L2844 362.377Z" stroke="#E4DED5" mask="url(#path-1-outside-1_271_1742)"/>
</svg>
