<svg width="510" height="662" viewBox="0 0 510 662" fill="none" xmlns="http://www.w3.org/2000/svg">
<path d="M616.828 661.298C647.544 660.723 706.558 658.81 762.185 617.669C821.729 573.649 841.219 511.449 846.476 491.641C880.893 362.233 797.867 200.573 690.772 160.88C649.663 145.603 617.627 153.095 584.836 120.716C544.201 80.7212 559.849 36.6103 522.127 12.9942C484.751 -10.4138 420.485 2.23327 399.907 34.9005C385.92 57.0738 401.312 73.8423 392.596 142.808C388.408 175.836 386.061 192.614 373.668 204.648C350.768 226.864 306.588 224.122 275.282 211.509C212.826 186.368 221.178 129.855 144.977 77.7399C119.581 60.3725 85.2544 36.8557 51.1659 49.2903C20.3478 60.5064 -4.68547 99.085 2.19703 136.175C7.81631 166.476 32.2711 182.604 34.7558 184.174C60.366 200.501 83.6005 191.191 106.425 194.718C157.531 202.673 183.603 271.72 206.978 321.795C219.662 348.943 287.163 493.492 393.297 578.559C417.486 597.946 501.576 663.412 616.828 661.298Z" stroke="#D71A17" stroke-opacity="0.25" stroke-miterlimit="10"/>
</svg>
