<svg width="524" height="471" viewBox="0 0 524 471" fill="none" xmlns="http://www.w3.org/2000/svg">
    <g clip-path="url(#clip0_1157_2012)">
    <path d="M633.714 445.56C568.784 380.423 517.537 361.352 496.667 288.376C479.162 227.094 502.142 194.247 473.755 149.375C442.746 100.407 374.395 74.871 319.408 79.6625C197.639 90.3534 117.512 251.635 96.621 364.981C68.7907 515.826 136.425 634.124 180.052 710.806C194.268 735.693 298.782 918.756 388.688 901.125C416.796 895.6 446.488 869.882 443.701 853.882C441.089 838.965 411.456 839.662 392.972 812.113C383.789 798.426 382.111 784.759 380.795 772.955C376.356 733.13 385.062 635.298 441.875 613.893C500.579 591.796 590.641 658.989 606.569 730.405C623.374 805.785 551.095 856.639 580.941 911.778C597.407 942.221 636.503 958.319 667.525 955.658C730.92 950.205 775.738 865.257 787.643 800.984C818.091 634.582 653.113 465.068 633.714 445.56Z" stroke="#D71A17" stroke-opacity="0.25" stroke-miterlimit="10"/>
    </g>
    <defs>
    <clipPath id="clip0_1157_2012">
    <rect width="944" height="621" fill="white" transform="translate(599.84) rotate(75)"/>
    </clipPath>
    </defs>
</svg>
