<svg width="585" height="458" viewBox="0 0 585 458" fill="none" xmlns="http://www.w3.org/2000/svg">
    <path d="M260.177 255.594C315.868 182.4 327.783 129.033 397.238 98.422C455.567 72.7358 491.236 91.0302 531.825 56.7976C576.116 19.411 592.108 -51.781 579.875 -105.603C552.704 -224.783 382.015 -282.205 266.88 -287.469C113.651 -294.502 5.66209 -211.391 -64.3656 -157.73C-87.0852 -140.258 -254.214 -11.7929 -224.506 74.8751C-215.205 101.97 -185.684 127.883 -170.213 122.944C-155.79 118.325 -160.516 89.0627 -135.739 67.0004C-123.43 56.0389 -110.118 52.5164 -98.6038 49.6051C-59.7545 39.7851 38.3525 35.0903 67.2933 88.4595C97.1768 143.609 42.8719 241.98 -25.711 267.483C-98.1009 294.395 -158.322 229.713 -208.884 266.788C-236.801 287.246 -247.427 328.169 -240.567 358.541C-226.533 420.603 -136.274 453.437 -70.9785 456.481C98.0189 463.989 243.493 277.468 260.177 255.594Z" stroke="#D71A17" stroke-opacity="0.25" stroke-miterlimit="10"/>
</svg>    