<svg width="100%" height="auto" viewBox="0 0 1915 460" fill="none" xmlns="http://www.w3.org/2000/svg">
<mask id="path-1-outside-1_271_1765" maskUnits="userSpaceOnUse" x="-58" y="0" width="6010" height="460" fill="black">
<rect fill="white" x="-58" width="6010" height="460"/>
<path d="M130.182 141.011L211.492 58.2983C229.51 40.2771 241.983 28.2629 266.469 10.2417H239.673C227.2 28.2629 215.65 40.2771 195.784 59.2225L45.1757 208.475V113.286C45.1757 65.6916 46.5617 43.5116 50.7196 10.2417H-56C-51.8421 43.5116 -50.4561 65.6916 -50.4561 113.286V276.864C-50.4561 324.458 -51.8421 346.638 -56 379.908H50.7196C46.5617 346.638 45.1757 324.458 45.1757 276.864V224.186L59.4974 208.475L151.433 330.003C169.451 354.493 174.995 361.887 182.849 379.908H321.446C298.346 362.349 287.72 350.797 272.013 330.003L130.182 141.011ZM457.668 379.908C453.51 346.638 452.124 324.458 452.124 276.864V208.937H480.305C572.703 208.937 654.937 193.227 654.937 109.589C654.937 25.9525 572.703 10.2417 480.305 10.2417H350.948C355.106 43.5116 356.492 65.6916 356.492 113.286V276.864C356.492 324.458 355.106 346.638 350.948 379.908H457.668ZM452.124 21.3317H478.919C522.808 21.3317 558.843 39.815 558.843 109.589C558.843 179.364 522.808 197.847 478.919 197.847H452.124V21.3317ZM953.043 379.908C948.885 346.638 947.499 324.458 947.499 276.864V113.286C947.499 65.6916 948.885 43.5116 953.043 10.2417H846.324C850.482 43.5116 851.867 65.6916 851.867 113.286V276.864C851.867 324.458 850.482 346.638 846.324 379.908H953.043ZM1024.12 379.908C1019.96 346.638 1018.57 324.458 1018.57 276.864V33.3458L1021.81 33.8079L1201.52 379.908H1317.02C1312.86 346.638 1311.48 324.458 1311.48 276.864V113.286C1311.48 65.6916 1312.86 43.5116 1317.02 10.2417H1296.23C1299.93 43.5116 1301.77 65.6916 1301.77 113.286V356.804L1298.54 356.342L1118.83 10.2417H1003.33C1007.49 43.5116 1008.87 65.6916 1008.87 113.286V276.864C1008.87 324.458 1007.49 346.638 1003.33 379.908H1024.12ZM1580.78 379.908C1576.62 346.638 1575.24 324.458 1575.24 276.864V21.3317H1581.24C1610.35 21.3317 1639.91 25.9525 1676.87 53.6775L1707.36 10.2417H1347.47L1377.97 53.6775C1415.39 25.9525 1444.49 21.3317 1473.6 21.3317H1479.6V276.864C1479.6 324.458 1478.22 346.638 1474.06 379.908H1580.78ZM1991.13 379.908L2010.07 337.858C1943.08 365.583 1917.67 368.818 1867.78 368.818H1833.13V191.378H1855.31C1879.79 191.378 1904.74 191.378 1947.7 195.999V175.667C1904.74 180.288 1879.79 180.288 1855.31 180.288H1833.13V21.3317H1871.48C1900.12 21.3317 1933.84 25.9525 1971.27 53.6775L2001.29 10.2417H1731.95C1736.11 43.5116 1737.96 65.6916 1737.96 113.286V276.864C1737.96 324.458 1736.11 346.638 1731.95 379.908H1991.13ZM2333.31 294.885C2309.29 238.973 2269.56 215.869 2221.05 207.551C2293.58 201.544 2350.4 179.364 2350.4 109.589C2350.4 25.9525 2268.17 10.2417 2175.77 10.2417H2046.41C2050.57 43.5116 2051.96 65.6916 2051.96 113.286V276.864C2051.96 324.458 2050.57 346.638 2046.41 379.908H2153.13C2148.98 346.638 2147.59 324.458 2147.59 276.864V208.937H2154.06C2196.1 208.937 2209.5 221.414 2233.98 298.119C2258.01 372.515 2320.37 379.908 2416.01 379.908V370.204C2375.35 370.204 2355.95 348.486 2333.31 294.885ZM2147.59 21.3317H2174.39C2218.27 21.3317 2254.31 39.815 2254.31 109.589C2254.31 179.364 2218.27 197.847 2174.39 197.847H2147.59V21.3317ZM2554.67 379.908C2550.51 346.638 2549.12 324.458 2549.12 276.864V113.286C2549.12 65.6916 2550.51 43.5116 2554.67 10.2417H2447.95C2452.11 43.5116 2453.49 65.6916 2453.49 113.286V276.864C2453.49 324.458 2452.11 346.638 2447.95 379.908H2554.67ZM2822.17 389.15C2949.68 389.15 3047.16 318.913 3047.16 195.075C3047.16 71.6987 2949.68 1 2822.17 1C2693.74 1 2596.72 71.6987 2596.72 195.075C2596.72 318.913 2693.74 389.15 2822.17 389.15ZM2822.17 378.06C2736.71 378.06 2699.28 292.574 2699.28 195.075C2699.28 98.0374 2736.71 12.09 2822.17 12.09C2906.72 12.09 2944.6 98.0374 2944.6 195.075C2944.6 292.574 2906.72 378.06 2822.17 378.06ZM3375.04 294.885C3351.02 238.973 3311.29 215.869 3262.78 207.551C3335.31 201.544 3392.14 179.364 3392.14 109.589C3392.14 25.9525 3309.9 10.2417 3217.5 10.2417H3088.15C3092.3 43.5116 3093.69 65.6916 3093.69 113.286V276.864C3093.69 324.458 3092.3 346.638 3088.15 379.908H3194.87C3190.71 346.638 3189.32 324.458 3189.32 276.864V208.937H3195.79C3237.83 208.937 3251.23 221.414 3275.71 298.119C3299.74 372.515 3362.11 379.908 3457.74 379.908V370.204C3417.08 370.204 3397.68 348.486 3375.04 294.885ZM3189.32 21.3317H3216.12C3260.01 21.3317 3296.04 39.815 3296.04 109.589C3296.04 179.364 3260.01 197.847 3216.12 197.847H3189.32V21.3317ZM3781.25 379.908C3910.61 379.908 3990.07 316.603 3990.07 195.075C3990.07 68.4641 3908.3 10.2417 3781.25 10.2417H3641.27C3645.43 43.5116 3646.82 65.6916 3646.82 113.286V276.864C3646.82 324.458 3645.43 346.638 3641.27 379.908H3781.25ZM3742.45 21.3317H3778.02C3844.08 21.3317 3887.51 74.9333 3887.51 195.075C3887.51 310.596 3844.08 368.818 3778.02 368.818H3742.45V21.3317ZM4290.25 379.908L4309.19 337.858C4242.2 365.583 4216.79 368.818 4166.9 368.818H4132.25V191.378H4154.43C4178.91 191.378 4203.86 191.378 4246.82 195.999V175.667C4203.86 180.288 4178.91 180.288 4154.43 180.288H4132.25V21.3317H4170.6C4199.24 21.3317 4232.96 25.9525 4270.39 53.6775L4300.42 10.2417H4031.07C4035.23 43.5116 4037.08 65.6916 4037.08 113.286V276.864C4037.08 324.458 4035.23 346.638 4031.07 379.908H4290.25ZM4497 389.15C4559.83 389.15 4614.34 357.728 4614.34 290.264C4614.34 224.648 4569.07 194.151 4477.13 135.466C4405.98 90.6441 4388.89 77.2437 4388.89 52.2912C4388.89 30.1112 4409.22 12.09 4444.33 12.09C4504.85 12.09 4528.41 66.1537 4544.12 119.755L4608.33 92.0303C4561.21 25.9525 4511.32 1 4449.87 1C4388.89 1 4336.68 29.187 4336.68 86.4853C4336.68 139.163 4368.1 166.426 4448.49 219.565C4525.64 270.856 4562.14 293.961 4562.14 326.768C4562.14 358.19 4540.88 378.06 4503.93 378.06C4442.02 378.06 4398.13 317.065 4380.11 237.124L4315.43 274.553C4361.17 358.652 4417.99 389.15 4497 389.15ZM4761.75 379.908C4757.59 346.638 4756.21 324.458 4756.21 276.864V113.286C4756.21 65.6916 4757.59 43.5116 4761.75 10.2417H4655.03C4659.19 43.5116 4660.58 65.6916 4660.58 113.286V276.864C4660.58 324.458 4659.19 346.638 4655.03 379.908H4761.75ZM4997.38 389.15C5085.62 389.15 5131.36 339.707 5149.38 264.387V277.326C5149.38 312.906 5147.53 345.252 5142.91 379.908H5173.4C5168.78 345.252 5166.93 312.906 5166.93 277.326V205.241H5203.43V194.151H4996.46L5026.95 237.586C5063.91 209.861 5097.63 205.241 5126.28 205.241H5149.38C5144.29 299.968 5100.4 360.963 5028.33 360.963C4946.1 360.963 4906.37 282.409 4906.37 183.985C4906.37 88.7957 4939.63 12.09 5004.31 12.09C5054.67 12.09 5078.23 64.7675 5087.47 130.845L5174.78 106.355C5142.91 44.8979 5087.47 1 5004.31 1C4894.82 1 4803.81 70.3125 4803.81 190.454C4803.81 310.596 4883.73 389.15 4997.38 389.15ZM5258.27 379.908C5254.11 346.638 5252.73 324.458 5252.73 276.864V33.3458L5255.96 33.8079L5435.68 379.908H5551.17C5547.02 346.638 5545.63 324.458 5545.63 276.864V113.286C5545.63 65.6916 5547.02 43.5116 5551.17 10.2417H5530.38C5534.08 43.5116 5535.93 65.6916 5535.93 113.286V356.804L5532.69 356.342L5352.98 10.2417H5237.48C5241.64 43.5116 5243.03 65.6916 5243.03 113.286V276.864C5243.03 324.458 5241.64 346.638 5237.48 379.908H5258.27ZM5769.36 458C5814.64 333.7 5895.49 135.928 5950 15.3246L5932.44 8.85542C5887.17 133.156 5806.32 330.927 5751.81 451.531L5769.36 458Z"/>
</mask>
<path d="M130.182 141.011L211.492 58.2983C229.51 40.2771 241.983 28.2629 266.469 10.2417H239.673C227.2 28.2629 215.65 40.2771 195.784 59.2225L45.1757 208.475V113.286C45.1757 65.6916 46.5617 43.5116 50.7196 10.2417H-56C-51.8421 43.5116 -50.4561 65.6916 -50.4561 113.286V276.864C-50.4561 324.458 -51.8421 346.638 -56 379.908H50.7196C46.5617 346.638 45.1757 324.458 45.1757 276.864V224.186L59.4974 208.475L151.433 330.003C169.451 354.493 174.995 361.887 182.849 379.908H321.446C298.346 362.349 287.72 350.797 272.013 330.003L130.182 141.011ZM457.668 379.908C453.51 346.638 452.124 324.458 452.124 276.864V208.937H480.305C572.703 208.937 654.937 193.227 654.937 109.589C654.937 25.9525 572.703 10.2417 480.305 10.2417H350.948C355.106 43.5116 356.492 65.6916 356.492 113.286V276.864C356.492 324.458 355.106 346.638 350.948 379.908H457.668ZM452.124 21.3317H478.919C522.808 21.3317 558.843 39.815 558.843 109.589C558.843 179.364 522.808 197.847 478.919 197.847H452.124V21.3317ZM953.043 379.908C948.885 346.638 947.499 324.458 947.499 276.864V113.286C947.499 65.6916 948.885 43.5116 953.043 10.2417H846.324C850.482 43.5116 851.867 65.6916 851.867 113.286V276.864C851.867 324.458 850.482 346.638 846.324 379.908H953.043ZM1024.12 379.908C1019.96 346.638 1018.57 324.458 1018.57 276.864V33.3458L1021.81 33.8079L1201.52 379.908H1317.02C1312.86 346.638 1311.48 324.458 1311.48 276.864V113.286C1311.48 65.6916 1312.86 43.5116 1317.02 10.2417H1296.23C1299.93 43.5116 1301.77 65.6916 1301.77 113.286V356.804L1298.54 356.342L1118.83 10.2417H1003.33C1007.49 43.5116 1008.87 65.6916 1008.87 113.286V276.864C1008.87 324.458 1007.49 346.638 1003.33 379.908H1024.12ZM1580.78 379.908C1576.62 346.638 1575.24 324.458 1575.24 276.864V21.3317H1581.24C1610.35 21.3317 1639.91 25.9525 1676.87 53.6775L1707.36 10.2417H1347.47L1377.97 53.6775C1415.39 25.9525 1444.49 21.3317 1473.6 21.3317H1479.6V276.864C1479.6 324.458 1478.22 346.638 1474.06 379.908H1580.78ZM1991.13 379.908L2010.07 337.858C1943.08 365.583 1917.67 368.818 1867.78 368.818H1833.13V191.378H1855.31C1879.79 191.378 1904.74 191.378 1947.7 195.999V175.667C1904.74 180.288 1879.79 180.288 1855.31 180.288H1833.13V21.3317H1871.48C1900.12 21.3317 1933.84 25.9525 1971.27 53.6775L2001.29 10.2417H1731.95C1736.11 43.5116 1737.96 65.6916 1737.96 113.286V276.864C1737.96 324.458 1736.11 346.638 1731.95 379.908H1991.13ZM2333.31 294.885C2309.29 238.973 2269.56 215.869 2221.05 207.551C2293.58 201.544 2350.4 179.364 2350.4 109.589C2350.4 25.9525 2268.17 10.2417 2175.77 10.2417H2046.41C2050.57 43.5116 2051.96 65.6916 2051.96 113.286V276.864C2051.96 324.458 2050.57 346.638 2046.41 379.908H2153.13C2148.98 346.638 2147.59 324.458 2147.59 276.864V208.937H2154.06C2196.1 208.937 2209.5 221.414 2233.98 298.119C2258.01 372.515 2320.37 379.908 2416.01 379.908V370.204C2375.35 370.204 2355.95 348.486 2333.31 294.885ZM2147.59 21.3317H2174.39C2218.27 21.3317 2254.31 39.815 2254.31 109.589C2254.31 179.364 2218.27 197.847 2174.39 197.847H2147.59V21.3317ZM2554.67 379.908C2550.51 346.638 2549.12 324.458 2549.12 276.864V113.286C2549.12 65.6916 2550.51 43.5116 2554.67 10.2417H2447.95C2452.11 43.5116 2453.49 65.6916 2453.49 113.286V276.864C2453.49 324.458 2452.11 346.638 2447.95 379.908H2554.67ZM2822.17 389.15C2949.68 389.15 3047.16 318.913 3047.16 195.075C3047.16 71.6987 2949.68 1 2822.17 1C2693.74 1 2596.72 71.6987 2596.72 195.075C2596.72 318.913 2693.74 389.15 2822.17 389.15ZM2822.17 378.06C2736.71 378.06 2699.28 292.574 2699.28 195.075C2699.28 98.0374 2736.71 12.09 2822.17 12.09C2906.72 12.09 2944.6 98.0374 2944.6 195.075C2944.6 292.574 2906.72 378.06 2822.17 378.06ZM3375.04 294.885C3351.02 238.973 3311.29 215.869 3262.78 207.551C3335.31 201.544 3392.14 179.364 3392.14 109.589C3392.14 25.9525 3309.9 10.2417 3217.5 10.2417H3088.15C3092.3 43.5116 3093.69 65.6916 3093.69 113.286V276.864C3093.69 324.458 3092.3 346.638 3088.15 379.908H3194.87C3190.71 346.638 3189.32 324.458 3189.32 276.864V208.937H3195.79C3237.83 208.937 3251.23 221.414 3275.71 298.119C3299.74 372.515 3362.11 379.908 3457.74 379.908V370.204C3417.08 370.204 3397.68 348.486 3375.04 294.885ZM3189.32 21.3317H3216.12C3260.01 21.3317 3296.04 39.815 3296.04 109.589C3296.04 179.364 3260.01 197.847 3216.12 197.847H3189.32V21.3317ZM3781.25 379.908C3910.61 379.908 3990.07 316.603 3990.07 195.075C3990.07 68.4641 3908.3 10.2417 3781.25 10.2417H3641.27C3645.43 43.5116 3646.82 65.6916 3646.82 113.286V276.864C3646.82 324.458 3645.43 346.638 3641.27 379.908H3781.25ZM3742.45 21.3317H3778.02C3844.08 21.3317 3887.51 74.9333 3887.51 195.075C3887.51 310.596 3844.08 368.818 3778.02 368.818H3742.45V21.3317ZM4290.25 379.908L4309.19 337.858C4242.2 365.583 4216.79 368.818 4166.9 368.818H4132.25V191.378H4154.43C4178.91 191.378 4203.86 191.378 4246.82 195.999V175.667C4203.86 180.288 4178.91 180.288 4154.43 180.288H4132.25V21.3317H4170.6C4199.24 21.3317 4232.96 25.9525 4270.39 53.6775L4300.42 10.2417H4031.07C4035.23 43.5116 4037.08 65.6916 4037.08 113.286V276.864C4037.08 324.458 4035.23 346.638 4031.07 379.908H4290.25ZM4497 389.15C4559.83 389.15 4614.34 357.728 4614.34 290.264C4614.34 224.648 4569.07 194.151 4477.13 135.466C4405.98 90.6441 4388.89 77.2437 4388.89 52.2912C4388.89 30.1112 4409.22 12.09 4444.33 12.09C4504.85 12.09 4528.41 66.1537 4544.12 119.755L4608.33 92.0303C4561.21 25.9525 4511.32 1 4449.87 1C4388.89 1 4336.68 29.187 4336.68 86.4853C4336.68 139.163 4368.1 166.426 4448.49 219.565C4525.64 270.856 4562.14 293.961 4562.14 326.768C4562.14 358.19 4540.88 378.06 4503.93 378.06C4442.02 378.06 4398.13 317.065 4380.11 237.124L4315.43 274.553C4361.17 358.652 4417.99 389.15 4497 389.15ZM4761.75 379.908C4757.59 346.638 4756.21 324.458 4756.21 276.864V113.286C4756.21 65.6916 4757.59 43.5116 4761.75 10.2417H4655.03C4659.19 43.5116 4660.58 65.6916 4660.58 113.286V276.864C4660.58 324.458 4659.19 346.638 4655.03 379.908H4761.75ZM4997.38 389.15C5085.62 389.15 5131.36 339.707 5149.38 264.387V277.326C5149.38 312.906 5147.53 345.252 5142.91 379.908H5173.4C5168.78 345.252 5166.93 312.906 5166.93 277.326V205.241H5203.43V194.151H4996.46L5026.95 237.586C5063.91 209.861 5097.63 205.241 5126.28 205.241H5149.38C5144.29 299.968 5100.4 360.963 5028.33 360.963C4946.1 360.963 4906.37 282.409 4906.37 183.985C4906.37 88.7957 4939.63 12.09 5004.31 12.09C5054.67 12.09 5078.23 64.7675 5087.47 130.845L5174.78 106.355C5142.91 44.8979 5087.47 1 5004.31 1C4894.82 1 4803.81 70.3125 4803.81 190.454C4803.81 310.596 4883.73 389.15 4997.38 389.15ZM5258.27 379.908C5254.11 346.638 5252.73 324.458 5252.73 276.864V33.3458L5255.96 33.8079L5435.68 379.908H5551.17C5547.02 346.638 5545.63 324.458 5545.63 276.864V113.286C5545.63 65.6916 5547.02 43.5116 5551.17 10.2417H5530.38C5534.08 43.5116 5535.93 65.6916 5535.93 113.286V356.804L5532.69 356.342L5352.98 10.2417H5237.48C5241.64 43.5116 5243.03 65.6916 5243.03 113.286V276.864C5243.03 324.458 5241.64 346.638 5237.48 379.908H5258.27ZM5769.36 458C5814.64 333.7 5895.49 135.928 5950 15.3246L5932.44 8.85542C5887.17 133.156 5806.32 330.927 5751.81 451.531L5769.36 458Z" stroke="#E4DED5" stroke-width="2" mask="url(#path-1-outside-1_271_1765)"/>
</svg>
