<svg width="1915" height="429" viewBox="0 0 1915 429" fill="none" xmlns="http://www.w3.org/2000/svg">
<mask id="path-1-outside-1_271_1743" maskUnits="userSpaceOnUse" x="-856" y="0" width="3632" height="429" fill="black">
<rect fill="white" x="-856" width="3632" height="429"/>
<path d="M-603.876 382.574L-585.264 341.237C-651.086 368.493 -676.053 371.672 -725.079 371.672H-753.678V120.469C-753.678 73.6809 -752.316 51.8766 -748.23 19.1702H-853.092C-849.007 51.8766 -847.645 73.6809 -847.645 120.469V281.276C-847.645 328.064 -849.914 349.868 -854 382.574H-603.876Z"/>
<path d="M-363.493 391.66C-238.204 391.66 -142.421 322.613 -142.421 200.872C-142.421 79.5861 -238.204 10.0851 -363.493 10.0851C-489.69 10.0851 -585.019 79.5861 -585.019 200.872C-585.019 322.613 -489.69 391.66 -363.493 391.66ZM-363.493 380.757C-447.473 380.757 -484.243 296.72 -484.243 200.872C-484.243 105.479 -447.473 20.9872 -363.493 20.9872C-280.421 20.9872 -243.197 105.479 -243.197 200.872C-243.197 296.72 -280.421 380.757 -363.493 380.757Z"/>
<path d="M94.5955 391.66C181.299 391.66 226.24 343.054 243.944 269.011V281.73C243.944 316.707 242.128 348.505 237.589 382.574H267.549C263.01 348.505 261.194 316.707 261.194 281.73V210.866H297.056V199.964H93.6876L123.648 242.664C159.964 215.409 193.102 210.866 221.247 210.866H243.944C238.95 303.988 195.826 363.95 125.01 363.95C44.2075 363.95 5.16803 286.727 5.16803 189.97C5.16803 96.3936 37.8522 20.9872 101.405 20.9872C150.885 20.9872 174.036 72.7723 183.115 137.731L268.911 113.655C237.589 53.2394 183.115 10.0851 101.405 10.0851C-6.1806 10.0851 -95.608 78.2234 -95.608 196.33C-95.608 314.436 -17.0753 391.66 94.5955 391.66Z"/>
<path d="M548.389 391.66C673.679 391.66 769.461 322.613 769.461 200.872C769.461 79.5861 673.679 10.0851 548.389 10.0851C422.192 10.0851 326.864 79.5861 326.864 200.872C326.864 322.613 422.192 391.66 548.389 391.66ZM548.389 380.757C464.409 380.757 427.64 296.72 427.64 200.872C427.64 105.479 464.409 20.9872 548.389 20.9872C631.462 20.9872 668.685 105.479 668.685 200.872C668.685 296.72 631.462 380.757 548.389 380.757Z"/>
<path d="M915.047 382.574C910.961 349.868 909.146 328.064 909.146 281.276V210.412H934.567C958.626 210.412 983.139 210.412 1025.36 214.954V194.967C983.139 199.51 958.626 199.51 934.567 199.51H909.146V30.0723H955.902C984.047 30.0723 1017.18 34.6149 1053.95 61.8702L1083.46 19.1702H809.731C813.817 51.8766 815.633 73.6809 815.633 120.469V281.276C815.633 328.064 813.817 349.868 809.731 382.574H915.047Z"/>
<path d="M1295.36 391.66C1420.65 391.66 1516.43 322.613 1516.43 200.872C1516.43 79.5861 1420.65 10.0851 1295.36 10.0851C1169.16 10.0851 1073.84 79.5861 1073.84 200.872C1073.84 322.613 1169.16 391.66 1295.36 391.66ZM1295.36 380.757C1211.38 380.757 1174.61 296.72 1174.61 200.872C1174.61 105.479 1211.38 20.9872 1295.36 20.9872C1378.43 20.9872 1415.66 105.479 1415.66 200.872C1415.66 296.72 1378.43 380.757 1295.36 380.757Z"/>
<path d="M1806.83 382.574L1825.44 341.237C1759.62 368.493 1734.65 371.672 1685.62 371.672H1657.03V120.469C1657.03 73.6809 1658.39 51.8766 1662.47 19.1702H1557.61C1561.7 51.8766 1563.06 73.6809 1563.06 120.469V281.276C1563.06 328.064 1560.79 349.868 1556.7 382.574H1806.83Z"/>
<path d="M1962.57 382.574C1958.49 349.868 1957.12 328.064 1957.12 281.276V120.469C1957.12 73.6809 1958.49 51.8766 1962.57 19.1702H1857.71C1861.79 51.8766 1863.16 73.6809 1863.16 120.469V281.276C1863.16 328.064 1861.79 349.868 1857.71 382.574H1962.57Z"/>
<path d="M2225.42 391.66C2350.71 391.66 2446.49 322.613 2446.49 200.872C2446.49 79.5861 2350.71 10.0851 2225.42 10.0851C2099.22 10.0851 2003.89 79.5861 2003.89 200.872C2003.89 322.613 2099.22 391.66 2225.42 391.66ZM2225.42 380.757C2141.44 380.757 2104.67 296.72 2104.67 200.872C2104.67 105.479 2141.44 20.9872 2225.42 20.9872C2308.49 20.9872 2345.72 105.479 2345.72 200.872C2345.72 296.72 2308.49 380.757 2225.42 380.757Z"/>
<path d="M2614.3 428C2695.11 428 2746.4 391.66 2729.61 314.89C2710.99 231.307 2736.87 219.043 2775 219.043V209.503C2736.87 209.503 2710.99 197.693 2729.61 114.11C2746.4 37.3404 2695.11 1 2614.3 1V10.5393C2665.6 10.5393 2663.78 38.2489 2650.62 104.57C2633.37 189.97 2698.28 211.32 2730.51 214.046V214.5C2698.28 217.68 2633.82 239.03 2650.62 324.43C2663.78 390.751 2665.6 418.461 2614.3 418.461V428Z"/>
</mask>
<path d="M-603.876 382.574L-585.264 341.237C-651.086 368.493 -676.053 371.672 -725.079 371.672H-753.678V120.469C-753.678 73.6809 -752.316 51.8766 -748.23 19.1702H-853.092C-849.007 51.8766 -847.645 73.6809 -847.645 120.469V281.276C-847.645 328.064 -849.914 349.868 -854 382.574H-603.876Z" stroke="#E4DED5" stroke-width="2" mask="url(#path-1-outside-1_271_1743)"/>
<path d="M-363.493 391.66C-238.204 391.66 -142.421 322.613 -142.421 200.872C-142.421 79.5861 -238.204 10.0851 -363.493 10.0851C-489.69 10.0851 -585.019 79.5861 -585.019 200.872C-585.019 322.613 -489.69 391.66 -363.493 391.66ZM-363.493 380.757C-447.473 380.757 -484.243 296.72 -484.243 200.872C-484.243 105.479 -447.473 20.9872 -363.493 20.9872C-280.421 20.9872 -243.197 105.479 -243.197 200.872C-243.197 296.72 -280.421 380.757 -363.493 380.757Z" stroke="#E4DED5" stroke-width="2" mask="url(#path-1-outside-1_271_1743)"/>
<path d="M94.5955 391.66C181.299 391.66 226.24 343.054 243.944 269.011V281.73C243.944 316.707 242.128 348.505 237.589 382.574H267.549C263.01 348.505 261.194 316.707 261.194 281.73V210.866H297.056V199.964H93.6876L123.648 242.664C159.964 215.409 193.102 210.866 221.247 210.866H243.944C238.95 303.988 195.826 363.95 125.01 363.95C44.2075 363.95 5.16803 286.727 5.16803 189.97C5.16803 96.3936 37.8522 20.9872 101.405 20.9872C150.885 20.9872 174.036 72.7723 183.115 137.731L268.911 113.655C237.589 53.2394 183.115 10.0851 101.405 10.0851C-6.1806 10.0851 -95.608 78.2234 -95.608 196.33C-95.608 314.436 -17.0753 391.66 94.5955 391.66Z" stroke="#E4DED5" stroke-width="2" mask="url(#path-1-outside-1_271_1743)"/>
<path d="M548.389 391.66C673.679 391.66 769.461 322.613 769.461 200.872C769.461 79.5861 673.679 10.0851 548.389 10.0851C422.192 10.0851 326.864 79.5861 326.864 200.872C326.864 322.613 422.192 391.66 548.389 391.66ZM548.389 380.757C464.409 380.757 427.64 296.72 427.64 200.872C427.64 105.479 464.409 20.9872 548.389 20.9872C631.462 20.9872 668.685 105.479 668.685 200.872C668.685 296.72 631.462 380.757 548.389 380.757Z" stroke="#E4DED5" stroke-width="2" mask="url(#path-1-outside-1_271_1743)"/>
<path d="M915.047 382.574C910.961 349.868 909.146 328.064 909.146 281.276V210.412H934.567C958.626 210.412 983.139 210.412 1025.36 214.954V194.967C983.139 199.51 958.626 199.51 934.567 199.51H909.146V30.0723H955.902C984.047 30.0723 1017.18 34.6149 1053.95 61.8702L1083.46 19.1702H809.731C813.817 51.8766 815.633 73.6809 815.633 120.469V281.276C815.633 328.064 813.817 349.868 809.731 382.574H915.047Z" stroke="#E4DED5" stroke-width="2" mask="url(#path-1-outside-1_271_1743)"/>
<path d="M1295.36 391.66C1420.65 391.66 1516.43 322.613 1516.43 200.872C1516.43 79.5861 1420.65 10.0851 1295.36 10.0851C1169.16 10.0851 1073.84 79.5861 1073.84 200.872C1073.84 322.613 1169.16 391.66 1295.36 391.66ZM1295.36 380.757C1211.38 380.757 1174.61 296.72 1174.61 200.872C1174.61 105.479 1211.38 20.9872 1295.36 20.9872C1378.43 20.9872 1415.66 105.479 1415.66 200.872C1415.66 296.72 1378.43 380.757 1295.36 380.757Z" stroke="#E4DED5" stroke-width="2" mask="url(#path-1-outside-1_271_1743)"/>
<path d="M1806.83 382.574L1825.44 341.237C1759.62 368.493 1734.65 371.672 1685.62 371.672H1657.03V120.469C1657.03 73.6809 1658.39 51.8766 1662.47 19.1702H1557.61C1561.7 51.8766 1563.06 73.6809 1563.06 120.469V281.276C1563.06 328.064 1560.79 349.868 1556.7 382.574H1806.83Z" stroke="#E4DED5" stroke-width="2" mask="url(#path-1-outside-1_271_1743)"/>
<path d="M1962.57 382.574C1958.49 349.868 1957.12 328.064 1957.12 281.276V120.469C1957.12 73.6809 1958.49 51.8766 1962.57 19.1702H1857.71C1861.79 51.8766 1863.16 73.6809 1863.16 120.469V281.276C1863.16 328.064 1861.79 349.868 1857.71 382.574H1962.57Z" stroke="#E4DED5" stroke-width="2" mask="url(#path-1-outside-1_271_1743)"/>
<path d="M2225.42 391.66C2350.71 391.66 2446.49 322.613 2446.49 200.872C2446.49 79.5861 2350.71 10.0851 2225.42 10.0851C2099.22 10.0851 2003.89 79.5861 2003.89 200.872C2003.89 322.613 2099.22 391.66 2225.42 391.66ZM2225.42 380.757C2141.44 380.757 2104.67 296.72 2104.67 200.872C2104.67 105.479 2141.44 20.9872 2225.42 20.9872C2308.49 20.9872 2345.72 105.479 2345.72 200.872C2345.72 296.72 2308.49 380.757 2225.42 380.757Z" stroke="#E4DED5" stroke-width="2" mask="url(#path-1-outside-1_271_1743)"/>
<path d="M2614.3 428C2695.11 428 2746.4 391.66 2729.61 314.89C2710.99 231.307 2736.87 219.043 2775 219.043V209.503C2736.87 209.503 2710.99 197.693 2729.61 114.11C2746.4 37.3404 2695.11 1 2614.3 1V10.5393C2665.6 10.5393 2663.78 38.2489 2650.62 104.57C2633.37 189.97 2698.28 211.32 2730.51 214.046V214.5C2698.28 217.68 2633.82 239.03 2650.62 324.43C2663.78 390.751 2665.6 418.461 2614.3 418.461V428Z" stroke="#E4DED5" stroke-width="2" mask="url(#path-1-outside-1_271_1743)"/>
</svg>
