<svg width="100%" height="auto" viewBox="0 0 1915 399" fill="none" xmlns="http://www.w3.org/2000/svg">
<mask id="path-1-outside-1_271_2015" maskUnits="userSpaceOnUse" x="-220" y="0" width="4201" height="399" fill="black">
<rect fill="white" x="-220" width="4201" height="399"/>
<path d="M-28.3499 398L114.519 33.1381V283.154C114.519 331.833 112.627 354.519 108.843 388.548H217.65C213.866 354.519 211.973 331.833 211.973 283.154V115.846C211.973 67.1667 213.866 44.481 217.65 10.4524H111.681L8.55013 267.557L-103.096 10.4524H-219C-214.742 44.481 -213.323 67.1667 -213.323 115.846V283.154C-213.323 331.833 -214.742 354.519 -219 388.548H-195.819C-200.077 354.519 -201.969 331.833 -201.969 283.154V34.556L-46.3268 398H-28.3499Z"/>
<path d="M378.604 388.548C374.346 354.519 372.927 331.833 372.927 283.154V115.846C372.927 67.1667 374.346 44.481 378.604 10.4524H269.323C273.581 44.481 275 67.1667 275 115.846V283.154C275 331.833 273.581 354.519 269.323 388.548H378.604Z"/>
<path d="M627.93 398C729.169 398 786.884 333.724 812.903 225.967H802.969C780.734 321.908 726.33 369.643 656.315 369.643C565.957 369.643 526.692 288.825 526.692 188.157C526.692 90.7976 560.753 12.3429 625.565 12.3429C675.238 12.3429 699.365 66.2214 708.353 140.423L798.238 115.374C765.596 45.8988 708.826 1 625.565 1C514.865 1 421.669 71.8929 421.669 194.774C421.669 317.655 503.511 398 627.93 398Z"/>
<path d="M1199.06 115.846C1199.06 67.1667 1200.96 44.481 1204.74 10.4524H1095.46C1099.72 44.481 1101.14 67.1667 1101.14 115.846V193.829H958.267V115.846C958.267 67.1667 959.687 44.481 963.944 10.4524H854.664C858.921 44.481 860.34 67.1667 860.34 115.846V283.154C860.34 331.833 858.921 354.519 854.664 388.548H963.944C959.687 354.519 958.267 331.833 958.267 283.154V205.171H1101.14V283.154C1101.14 331.833 1099.72 354.519 1095.46 388.548H1204.74C1200.96 354.519 1199.06 331.833 1199.06 283.154V115.846Z"/>
<path d="M1365.41 388.548C1361.16 354.519 1359.74 331.833 1359.74 283.154V115.846C1359.74 67.1667 1361.16 44.481 1365.41 10.4524H1256.13C1260.39 44.481 1261.81 67.1667 1261.81 115.846V283.154C1261.81 331.833 1260.39 354.519 1256.13 388.548H1365.41Z"/>
<path d="M1749.1 388.548C1835.2 388.548 1902.37 364.444 1902.37 283.626C1902.37 217.932 1857.43 188.63 1794.51 178.232C1849.86 167.835 1874.46 141.84 1874.46 96.4691C1874.46 23.2131 1812.49 10.4524 1740.58 10.4524H1570.75C1575 44.481 1576.42 67.1667 1576.42 115.846V283.154C1576.42 331.833 1575 354.519 1570.75 388.548H1749.1ZM1674.35 21.7953H1701.32C1744.37 21.7953 1776.06 44.9536 1776.06 96.4691C1776.06 146.567 1756.67 172.088 1703.68 172.088H1674.35V21.7953ZM1674.35 183.431H1708.41C1749.57 183.431 1796.88 200.918 1796.88 285.044C1796.88 354.992 1755.25 377.205 1706.05 377.205H1674.35V183.431Z"/>
<path d="M2053.78 388.548C2049.52 354.519 2048.1 331.833 2048.1 283.154V115.846C2048.1 67.1667 2049.52 44.481 2053.78 10.4524H1944.5C1948.75 44.481 1950.17 67.1667 1950.17 115.846V283.154C1950.17 331.833 1948.75 354.519 1944.5 388.548H2053.78Z"/>
<path d="M2277 398C2341.33 398 2397.16 365.862 2397.16 296.86C2397.16 229.748 2350.8 198.555 2256.65 138.532C2183.8 92.6881 2166.3 78.9821 2166.3 53.4607C2166.3 30.775 2187.11 12.3429 2223.07 12.3429C2285.04 12.3429 2309.17 67.6393 2325.25 122.463L2391.01 94.106C2342.75 26.5214 2291.66 1 2228.74 1C2166.3 1 2112.84 29.8298 2112.84 88.4345C2112.84 142.313 2145.01 170.198 2227.32 224.549C2306.33 277.01 2343.7 300.64 2343.7 334.196C2343.7 366.335 2321.94 386.657 2284.09 386.657C2220.7 386.657 2175.76 324.271 2157.31 242.508L2091.08 280.79C2137.91 366.807 2196.1 398 2277 398Z"/>
<path d="M2624.51 388.548C2620.25 354.519 2618.83 331.833 2618.83 283.154V21.7953H2624.98C2654.79 21.7953 2685.06 26.5214 2722.91 54.8786L2754.13 10.4524H2385.6L2416.83 54.8786C2455.15 26.5214 2484.95 21.7953 2514.75 21.7953H2520.9V283.154C2520.9 331.833 2519.49 354.519 2515.23 388.548H2624.51Z"/>
<path d="M3073.09 301.586C3048.49 244.399 3007.81 220.768 2958.13 212.261C3032.41 206.117 3090.6 183.431 3090.6 112.065C3090.6 26.5214 3006.39 10.4524 2911.77 10.4524H2779.31C2783.57 44.481 2784.99 67.1667 2784.99 115.846V283.154C2784.99 331.833 2783.57 354.519 2779.31 388.548H2888.59C2884.33 354.519 2882.92 331.833 2882.92 283.154V213.679H2889.54C2932.59 213.679 2946.31 226.439 2971.38 304.894C2995.98 380.986 3059.85 388.548 3157.77 388.548V378.623C3116.14 378.623 3096.27 356.41 3073.09 301.586ZM2882.92 21.7953H2910.35C2955.3 21.7953 2992.2 40.7 2992.2 112.065C2992.2 183.431 2955.3 202.336 2910.35 202.336H2882.92V21.7953Z"/>
<path d="M3372.72 398C3503.29 398 3603.11 326.162 3603.11 199.5C3603.11 73.3107 3503.29 1 3372.72 1C3241.21 1 3141.86 73.3107 3141.86 199.5C3141.86 326.162 3241.21 398 3372.72 398ZM3372.72 386.657C3285.21 386.657 3246.89 299.223 3246.89 199.5C3246.89 100.25 3285.21 12.3429 3372.72 12.3429C3459.3 12.3429 3498.09 100.25 3498.09 199.5C3498.09 299.223 3459.3 386.657 3372.72 386.657Z"/>
<path d="M3882.07 41.6452L3842.81 2.41787L3803.54 41.6452L3842.81 80.4L3803.54 158.855L3807.8 163.108L3882.07 41.6452ZM3980 41.6452L3940.73 2.41787L3901.94 41.6452L3940.73 80.4L3901.94 158.855L3905.73 163.108L3980 41.6452Z"/>
</mask>
<path d="M-28.3499 398L114.519 33.1381V283.154C114.519 331.833 112.627 354.519 108.843 388.548H217.65C213.866 354.519 211.973 331.833 211.973 283.154V115.846C211.973 67.1667 213.866 44.481 217.65 10.4524H111.681L8.55013 267.557L-103.096 10.4524H-219C-214.742 44.481 -213.323 67.1667 -213.323 115.846V283.154C-213.323 331.833 -214.742 354.519 -219 388.548H-195.819C-200.077 354.519 -201.969 331.833 -201.969 283.154V34.556L-46.3268 398H-28.3499Z" stroke="#E4DED5" mask="url(#path-1-outside-1_271_2015)"/>
<path d="M378.604 388.548C374.346 354.519 372.927 331.833 372.927 283.154V115.846C372.927 67.1667 374.346 44.481 378.604 10.4524H269.323C273.581 44.481 275 67.1667 275 115.846V283.154C275 331.833 273.581 354.519 269.323 388.548H378.604Z" stroke="#E4DED5" mask="url(#path-1-outside-1_271_2015)"/>
<path d="M627.93 398C729.169 398 786.884 333.724 812.903 225.967H802.969C780.734 321.908 726.33 369.643 656.315 369.643C565.957 369.643 526.692 288.825 526.692 188.157C526.692 90.7976 560.753 12.3429 625.565 12.3429C675.238 12.3429 699.365 66.2214 708.353 140.423L798.238 115.374C765.596 45.8988 708.826 1 625.565 1C514.865 1 421.669 71.8929 421.669 194.774C421.669 317.655 503.511 398 627.93 398Z" stroke="#E4DED5" mask="url(#path-1-outside-1_271_2015)"/>
<path d="M1199.06 115.846C1199.06 67.1667 1200.96 44.481 1204.74 10.4524H1095.46C1099.72 44.481 1101.14 67.1667 1101.14 115.846V193.829H958.267V115.846C958.267 67.1667 959.687 44.481 963.944 10.4524H854.664C858.921 44.481 860.34 67.1667 860.34 115.846V283.154C860.34 331.833 858.921 354.519 854.664 388.548H963.944C959.687 354.519 958.267 331.833 958.267 283.154V205.171H1101.14V283.154C1101.14 331.833 1099.72 354.519 1095.46 388.548H1204.74C1200.96 354.519 1199.06 331.833 1199.06 283.154V115.846Z" stroke="#E4DED5" mask="url(#path-1-outside-1_271_2015)"/>
<path d="M1365.41 388.548C1361.16 354.519 1359.74 331.833 1359.74 283.154V115.846C1359.74 67.1667 1361.16 44.481 1365.41 10.4524H1256.13C1260.39 44.481 1261.81 67.1667 1261.81 115.846V283.154C1261.81 331.833 1260.39 354.519 1256.13 388.548H1365.41Z" stroke="#E4DED5" mask="url(#path-1-outside-1_271_2015)"/>
<path d="M1749.1 388.548C1835.2 388.548 1902.37 364.444 1902.37 283.626C1902.37 217.932 1857.43 188.63 1794.51 178.232C1849.86 167.835 1874.46 141.84 1874.46 96.4691C1874.46 23.2131 1812.49 10.4524 1740.58 10.4524H1570.75C1575 44.481 1576.42 67.1667 1576.42 115.846V283.154C1576.42 331.833 1575 354.519 1570.75 388.548H1749.1ZM1674.35 21.7953H1701.32C1744.37 21.7953 1776.06 44.9536 1776.06 96.4691C1776.06 146.567 1756.67 172.088 1703.68 172.088H1674.35V21.7953ZM1674.35 183.431H1708.41C1749.57 183.431 1796.88 200.918 1796.88 285.044C1796.88 354.992 1755.25 377.205 1706.05 377.205H1674.35V183.431Z" stroke="#E4DED5" mask="url(#path-1-outside-1_271_2015)"/>
<path d="M2053.78 388.548C2049.52 354.519 2048.1 331.833 2048.1 283.154V115.846C2048.1 67.1667 2049.52 44.481 2053.78 10.4524H1944.5C1948.75 44.481 1950.17 67.1667 1950.17 115.846V283.154C1950.17 331.833 1948.75 354.519 1944.5 388.548H2053.78Z" stroke="#E4DED5" mask="url(#path-1-outside-1_271_2015)"/>
<path d="M2277 398C2341.33 398 2397.16 365.862 2397.16 296.86C2397.16 229.748 2350.8 198.555 2256.65 138.532C2183.8 92.6881 2166.3 78.9821 2166.3 53.4607C2166.3 30.775 2187.11 12.3429 2223.07 12.3429C2285.04 12.3429 2309.17 67.6393 2325.25 122.463L2391.01 94.106C2342.75 26.5214 2291.66 1 2228.74 1C2166.3 1 2112.84 29.8298 2112.84 88.4345C2112.84 142.313 2145.01 170.198 2227.32 224.549C2306.33 277.01 2343.7 300.64 2343.7 334.196C2343.7 366.335 2321.94 386.657 2284.09 386.657C2220.7 386.657 2175.76 324.271 2157.31 242.508L2091.08 280.79C2137.91 366.807 2196.1 398 2277 398Z" stroke="#E4DED5" mask="url(#path-1-outside-1_271_2015)"/>
<path d="M2624.51 388.548C2620.25 354.519 2618.83 331.833 2618.83 283.154V21.7953H2624.98C2654.79 21.7953 2685.06 26.5214 2722.91 54.8786L2754.13 10.4524H2385.6L2416.83 54.8786C2455.15 26.5214 2484.95 21.7953 2514.75 21.7953H2520.9V283.154C2520.9 331.833 2519.49 354.519 2515.23 388.548H2624.51Z" stroke="#E4DED5" mask="url(#path-1-outside-1_271_2015)"/>
<path d="M3073.09 301.586C3048.49 244.399 3007.81 220.768 2958.13 212.261C3032.41 206.117 3090.6 183.431 3090.6 112.065C3090.6 26.5214 3006.39 10.4524 2911.77 10.4524H2779.31C2783.57 44.481 2784.99 67.1667 2784.99 115.846V283.154C2784.99 331.833 2783.57 354.519 2779.31 388.548H2888.59C2884.33 354.519 2882.92 331.833 2882.92 283.154V213.679H2889.54C2932.59 213.679 2946.31 226.439 2971.38 304.894C2995.98 380.986 3059.85 388.548 3157.77 388.548V378.623C3116.14 378.623 3096.27 356.41 3073.09 301.586ZM2882.92 21.7953H2910.35C2955.3 21.7953 2992.2 40.7 2992.2 112.065C2992.2 183.431 2955.3 202.336 2910.35 202.336H2882.92V21.7953Z" stroke="#E4DED5" mask="url(#path-1-outside-1_271_2015)"/>
<path d="M3372.72 398C3503.29 398 3603.11 326.162 3603.11 199.5C3603.11 73.3107 3503.29 1 3372.72 1C3241.21 1 3141.86 73.3107 3141.86 199.5C3141.86 326.162 3241.21 398 3372.72 398ZM3372.72 386.657C3285.21 386.657 3246.89 299.223 3246.89 199.5C3246.89 100.25 3285.21 12.3429 3372.72 12.3429C3459.3 12.3429 3498.09 100.25 3498.09 199.5C3498.09 299.223 3459.3 386.657 3372.72 386.657Z" stroke="#E4DED5" mask="url(#path-1-outside-1_271_2015)"/>
<path d="M3882.07 41.6452L3842.81 2.41787L3803.54 41.6452L3842.81 80.4L3803.54 158.855L3807.8 163.108L3882.07 41.6452ZM3980 41.6452L3940.73 2.41787L3901.94 41.6452L3940.73 80.4L3901.94 158.855L3905.73 163.108L3980 41.6452Z" stroke="#E4DED5" mask="url(#path-1-outside-1_271_2015)"/>
</svg>
