<svg width="659" height="905" viewBox="0 0 659 905" fill="none" xmlns="http://www.w3.org/2000/svg">
<path d="M811.16 868.929C903.047 782.097 756.716 580.001 870.52 436.948C897.303 403.277 938.771 372.539 945.55 313.442C946.386 306.179 952.875 241.025 909.972 202.148C878.524 173.654 836.949 174.156 787.453 174.769C733.903 175.419 720.625 186.698 690.027 188.002C602.546 191.726 567.612 105.627 473.739 50.8936C392.956 3.84854 263.629 -22.8404 162.911 29.2799C32.6378 96.7234 -36.5452 289.178 22.0304 374.601C90.156 473.978 279.933 353.668 409.013 468.186C535.633 580.493 442.725 775.8 576.064 865.64C645.091 912.203 758.049 919.095 811.16 868.929Z" stroke="#D71A17" stroke-opacity="0.25" stroke-miterlimit="10"/>
</svg>
