<svg width="615" height="950" viewBox="0 0 615 950" fill="none" xmlns="http://www.w3.org/2000/svg">
<g clip-path="url(#clip0_271_1774)">
<path d="M-4.57219 284.723C86.8705 274.872 133.825 246.849 203.796 276.262C262.542 300.978 273.768 339.462 326.53 345.418C384.127 351.895 446.832 314.583 477.52 268.706C545.418 167.059 469.818 3.60712 394.512 -83.6438C294.31 -199.782 159.72 -221.104 72.612 -235.091C44.3059 -239.587 -163.874 -272.697 -206.412 -191.552C-219.701 -166.175 -218.235 -126.921 -204.014 -119.077C-190.747 -111.775 -172.738 -135.319 -139.684 -132.485C-123.262 -131.077 -111.554 -123.828 -101.526 -117.465C-67.6924 -95.9943 3.14469 -27.9566 -15.732 29.7454C-35.2539 89.3556 -144.033 117.517 -209.694 85.2269C-278.994 51.1393 -273.398 -37.06 -335.079 -48.3066C-369.127 -54.5256 -406.156 -34.1178 -423.503 -8.26109C-458.94 44.5868 -420.757 132.717 -378.092 182.239C-267.397 310.158 -31.9282 287.637 -4.57219 284.723Z" stroke="#D71A17" stroke-opacity="0.25" stroke-width="2" stroke-miterlimit="10"/>
</g>
<defs>
<clipPath id="clip0_271_1774">
<rect width="944" height="621" fill="white" transform="translate(364.074 949.254) rotate(-156.24)"/>
</clipPath>
</defs>
</svg>
