<svg width="377" height="1001" viewBox="0 0 377 1001" fill="none" xmlns="http://www.w3.org/2000/svg">
<path d="M135.631 838.773C202.266 978.969 427.228 1042.69 527.605 969.599C648.801 881.325 516.616 645.763 663.658 506.884C757.231 418.529 870.639 457.356 904.356 374.679C939.861 287.603 844.624 169.657 786.843 117.305C693.919 33.0589 524.109 -38.9998 423.068 25.9311C308.665 99.3965 362.382 297.121 255.957 335.08C186.244 359.975 121.583 290.056 51.5887 333.811C17.7562 354.976 -7.33354 396.492 3.12058 415.523C20.107 446.44 114.431 387.635 225.195 425.823C283.091 445.78 349.299 493.623 343.567 531.775C335.452 586.753 187.1 564.827 131.324 658.804C87.0882 733.22 131.383 829.814 135.631 838.773Z" stroke="#E52421" stroke-opacity="0.25" stroke-miterlimit="10"/>
</svg>
