<svg width="1915" height="424" viewBox="0 0 1915 424" fill="none" xmlns="http://www.w3.org/2000/svg">
<mask id="path-1-outside-1_271_1744" maskUnits="userSpaceOnUse" x="-446" y="0" width="3917" height="424" fill="black">
<rect fill="white" x="-446" width="3917" height="424"/>
<path d="M-282.601 383.727C-209.196 383.727 -139.895 342.265 -139.895 267.998C-139.895 195.097 -195.063 169.127 -258.437 171.86C-210.564 155.913 -170.442 130.854 -170.442 81.6461C-170.442 24.237 -231.081 1 -291.72 1C-359.197 1 -407.07 38.3615 -427.587 80.2792L-364.212 108.984C-351.902 47.9297 -333.665 11.9351 -295.367 11.9351C-266.643 11.9351 -252.51 31.9827 -252.51 63.421C-252.51 104.883 -268.011 147.257 -335.489 185.985L-333.665 196.92C-267.099 181.429 -228.345 217.879 -228.345 267.998C-228.345 317.661 -255.245 356.39 -313.604 356.39C-366.492 356.39 -420.292 332.241 -434.425 253.873H-444C-433.058 343.632 -371.963 383.727 -282.601 383.727Z"/>
<path d="M45.2869 374.615C172.947 374.615 251.367 312.194 251.367 192.364C251.367 67.5217 170.667 10.1126 45.2869 10.1126H-92.8596C-88.7563 42.9178 -87.3885 64.7879 -87.3885 111.718V273.01C-87.3885 319.939 -88.7563 341.81 -92.8596 374.615H45.2869ZM6.98889 21.0476H42.0954C107.293 21.0476 150.151 73.9005 150.151 192.364C150.151 306.271 107.293 363.68 42.0954 363.68H6.98889V21.0476Z"/>
<path d="M628.289 383.727L765.979 31.9827V273.01C765.979 319.939 764.156 341.81 760.508 374.615H865.372C861.724 341.81 859.901 319.939 859.901 273.01V111.718C859.901 64.7879 861.724 42.9178 865.372 10.1126H763.244L663.851 257.974L556.252 10.1126H444.549C448.653 42.9178 450.02 64.7879 450.02 111.718V273.01C450.02 319.939 448.653 341.81 444.549 374.615H466.89C462.786 341.81 460.963 319.939 460.963 273.01V33.3496L610.963 383.727H628.289Z"/>
<path d="M1020.49 374.615C1016.39 341.81 1015.02 319.939 1015.02 273.01V111.718C1015.02 64.7879 1016.39 42.9178 1020.49 10.1126H915.172C919.275 42.9178 920.643 64.7879 920.643 111.718V273.01C920.643 319.939 919.275 341.81 915.172 374.615H1020.49Z"/>
<path d="M1235.62 383.727C1297.62 383.727 1351.42 352.745 1351.42 286.223C1351.42 221.524 1306.74 191.452 1216.01 133.588C1145.8 89.3918 1128.93 76.1786 1128.93 51.5747C1128.93 29.7046 1148.99 11.9351 1183.64 11.9351C1243.37 11.9351 1266.62 65.2435 1282.12 118.096L1345.5 90.7587C1298.99 25.6039 1249.75 1 1189.11 1C1128.93 1 1077.41 28.7933 1077.41 85.2911C1077.41 137.233 1108.41 164.115 1187.75 216.512C1263.89 267.087 1299.9 289.868 1299.9 322.218C1299.9 353.2 1278.93 372.792 1242.46 372.792C1181.36 372.792 1138.05 312.649 1120.27 233.826L1056.44 270.732C1101.58 353.656 1157.65 383.727 1235.62 383.727Z"/>
<path d="M1584.92 383.727C1682.49 383.727 1738.11 321.762 1763.19 217.879H1753.61C1732.18 310.371 1679.75 356.39 1612.27 356.39C1525.19 356.39 1487.35 278.477 1487.35 181.429C1487.35 87.5693 1520.18 11.9351 1582.64 11.9351C1630.51 11.9351 1653.76 63.8766 1662.43 135.41L1749.05 111.262C1717.59 44.2846 1662.88 1 1582.64 1C1475.95 1 1386.13 69.3442 1386.13 187.807C1386.13 306.271 1465.01 383.727 1584.92 383.727Z"/>
<path d="M2143.75 10.1126H2031.59C2036.15 25.1483 2034.78 32.4383 2031.14 47.0184L1956.82 323.584C1952.26 340.443 1949.53 350.922 1938.13 374.615H1958.19C1959.56 352.289 1963.66 340.443 1968.22 323.129L1988.74 245.672H2107.73L2127.34 317.206C2133.72 340.443 2136.46 350.466 2137.82 374.615H2249.98C2239.95 356.39 2234.48 343.176 2227.64 317.206L2143.75 10.1126ZM2047.55 26.5152L2104.54 234.737H1991.93L2047.55 26.5152Z"/>
<path d="M2572.32 290.779C2548.62 235.648 2509.41 212.867 2461.53 204.666C2533.11 198.742 2589.19 176.872 2589.19 108.073C2589.19 25.6039 2508.04 10.1126 2416.85 10.1126H2289.19C2293.3 42.9178 2294.66 64.7879 2294.66 111.718V273.01C2294.66 319.939 2293.3 341.81 2289.19 374.615H2394.51C2390.41 341.81 2389.04 319.939 2389.04 273.01V206.033H2395.42C2436.91 206.033 2450.14 218.334 2474.3 293.969C2498.01 367.325 2559.56 374.615 2653.94 374.615V365.047C2613.81 365.047 2594.67 343.632 2572.32 290.779ZM2389.04 21.0476H2415.49C2458.8 21.0476 2494.36 39.2727 2494.36 108.073C2494.36 176.872 2458.8 195.097 2415.49 195.097H2389.04V21.0476Z"/>
<path d="M2827.01 374.615C2822.91 341.81 2821.54 319.939 2821.54 273.01V21.0476H2827.47C2856.19 21.0476 2885.37 25.6039 2921.84 52.9416L2951.94 10.1126H2596.77L2626.86 52.9416C2663.79 25.6039 2692.51 21.0476 2721.24 21.0476H2727.16V273.01C2727.16 319.939 2725.79 341.81 2721.69 374.615H2827.01Z"/>
<path d="M3127.14 422C3248.87 417.444 3348.27 417.444 3470 422V389.65C3348.27 394.207 3248.87 394.207 3127.14 389.65V422Z"/>
</mask>
<path d="M-282.601 383.727C-209.196 383.727 -139.895 342.265 -139.895 267.998C-139.895 195.097 -195.063 169.127 -258.437 171.86C-210.564 155.913 -170.442 130.854 -170.442 81.6461C-170.442 24.237 -231.081 1 -291.72 1C-359.197 1 -407.07 38.3615 -427.587 80.2792L-364.212 108.984C-351.902 47.9297 -333.665 11.9351 -295.367 11.9351C-266.643 11.9351 -252.51 31.9827 -252.51 63.421C-252.51 104.883 -268.011 147.257 -335.489 185.985L-333.665 196.92C-267.099 181.429 -228.345 217.879 -228.345 267.998C-228.345 317.661 -255.245 356.39 -313.604 356.39C-366.492 356.39 -420.292 332.241 -434.425 253.873H-444C-433.058 343.632 -371.963 383.727 -282.601 383.727Z" stroke="#E4DED5" stroke-width="2" mask="url(#path-1-outside-1_271_1744)"/>
<path d="M45.2869 374.615C172.947 374.615 251.367 312.194 251.367 192.364C251.367 67.5217 170.667 10.1126 45.2869 10.1126H-92.8596C-88.7563 42.9178 -87.3885 64.7879 -87.3885 111.718V273.01C-87.3885 319.939 -88.7563 341.81 -92.8596 374.615H45.2869ZM6.98889 21.0476H42.0954C107.293 21.0476 150.151 73.9005 150.151 192.364C150.151 306.271 107.293 363.68 42.0954 363.68H6.98889V21.0476Z" stroke="#E4DED5" stroke-width="2" mask="url(#path-1-outside-1_271_1744)"/>
<path d="M628.289 383.727L765.979 31.9827V273.01C765.979 319.939 764.156 341.81 760.508 374.615H865.372C861.724 341.81 859.901 319.939 859.901 273.01V111.718C859.901 64.7879 861.724 42.9178 865.372 10.1126H763.244L663.851 257.974L556.252 10.1126H444.549C448.653 42.9178 450.02 64.7879 450.02 111.718V273.01C450.02 319.939 448.653 341.81 444.549 374.615H466.89C462.786 341.81 460.963 319.939 460.963 273.01V33.3496L610.963 383.727H628.289Z" stroke="#E4DED5" stroke-width="2" mask="url(#path-1-outside-1_271_1744)"/>
<path d="M1020.49 374.615C1016.39 341.81 1015.02 319.939 1015.02 273.01V111.718C1015.02 64.7879 1016.39 42.9178 1020.49 10.1126H915.172C919.275 42.9178 920.643 64.7879 920.643 111.718V273.01C920.643 319.939 919.275 341.81 915.172 374.615H1020.49Z" stroke="#E4DED5" stroke-width="2" mask="url(#path-1-outside-1_271_1744)"/>
<path d="M1235.62 383.727C1297.62 383.727 1351.42 352.745 1351.42 286.223C1351.42 221.524 1306.74 191.452 1216.01 133.588C1145.8 89.3918 1128.93 76.1786 1128.93 51.5747C1128.93 29.7046 1148.99 11.9351 1183.64 11.9351C1243.37 11.9351 1266.62 65.2435 1282.12 118.096L1345.5 90.7587C1298.99 25.6039 1249.75 1 1189.11 1C1128.93 1 1077.41 28.7933 1077.41 85.2911C1077.41 137.233 1108.41 164.115 1187.75 216.512C1263.89 267.087 1299.9 289.868 1299.9 322.218C1299.9 353.2 1278.93 372.792 1242.46 372.792C1181.36 372.792 1138.05 312.649 1120.27 233.826L1056.44 270.732C1101.58 353.656 1157.65 383.727 1235.62 383.727Z" stroke="#E4DED5" stroke-width="2" mask="url(#path-1-outside-1_271_1744)"/>
<path d="M1584.92 383.727C1682.49 383.727 1738.11 321.762 1763.19 217.879H1753.61C1732.18 310.371 1679.75 356.39 1612.27 356.39C1525.19 356.39 1487.35 278.477 1487.35 181.429C1487.35 87.5693 1520.18 11.9351 1582.64 11.9351C1630.51 11.9351 1653.76 63.8766 1662.43 135.41L1749.05 111.262C1717.59 44.2846 1662.88 1 1582.64 1C1475.95 1 1386.13 69.3442 1386.13 187.807C1386.13 306.271 1465.01 383.727 1584.92 383.727Z" stroke="#E4DED5" stroke-width="2" mask="url(#path-1-outside-1_271_1744)"/>
<path d="M2143.75 10.1126H2031.59C2036.15 25.1483 2034.78 32.4383 2031.14 47.0184L1956.82 323.584C1952.26 340.443 1949.53 350.922 1938.13 374.615H1958.19C1959.56 352.289 1963.66 340.443 1968.22 323.129L1988.74 245.672H2107.73L2127.34 317.206C2133.72 340.443 2136.46 350.466 2137.82 374.615H2249.98C2239.95 356.39 2234.48 343.176 2227.64 317.206L2143.75 10.1126ZM2047.55 26.5152L2104.54 234.737H1991.93L2047.55 26.5152Z" stroke="#E4DED5" stroke-width="2" mask="url(#path-1-outside-1_271_1744)"/>
<path d="M2572.32 290.779C2548.62 235.648 2509.41 212.867 2461.53 204.666C2533.11 198.742 2589.19 176.872 2589.19 108.073C2589.19 25.6039 2508.04 10.1126 2416.85 10.1126H2289.19C2293.3 42.9178 2294.66 64.7879 2294.66 111.718V273.01C2294.66 319.939 2293.3 341.81 2289.19 374.615H2394.51C2390.41 341.81 2389.04 319.939 2389.04 273.01V206.033H2395.42C2436.91 206.033 2450.14 218.334 2474.3 293.969C2498.01 367.325 2559.56 374.615 2653.94 374.615V365.047C2613.81 365.047 2594.67 343.632 2572.32 290.779ZM2389.04 21.0476H2415.49C2458.8 21.0476 2494.36 39.2727 2494.36 108.073C2494.36 176.872 2458.8 195.097 2415.49 195.097H2389.04V21.0476Z" stroke="#E4DED5" stroke-width="2" mask="url(#path-1-outside-1_271_1744)"/>
<path d="M2827.01 374.615C2822.91 341.81 2821.54 319.939 2821.54 273.01V21.0476H2827.47C2856.19 21.0476 2885.37 25.6039 2921.84 52.9416L2951.94 10.1126H2596.77L2626.86 52.9416C2663.79 25.6039 2692.51 21.0476 2721.24 21.0476H2727.16V273.01C2727.16 319.939 2725.79 341.81 2721.69 374.615H2827.01Z" stroke="#E4DED5" stroke-width="2" mask="url(#path-1-outside-1_271_1744)"/>
<path d="M3127.14 422C3248.87 417.444 3348.27 417.444 3470 422V389.65C3348.27 394.207 3248.87 394.207 3127.14 389.65V422Z" stroke="#E4DED5" stroke-width="2" mask="url(#path-1-outside-1_271_1744)"/>
</svg>
