<svg width="199" height="616" viewBox="0 0 199 616" fill="none" xmlns="http://www.w3.org/2000/svg">
<path d="M55.4227 613.242C73.8329 614.948 121.857 619.508 145.123 588.959C166.89 560.382 153.891 518.316 152.17 513.008C137.735 468.426 99.76 460.861 102.397 429.714C104.034 410.457 120.056 395.467 126.041 389.861C143.055 373.955 153.648 377.884 168.557 366.287C194.14 346.4 206.741 300.804 191.485 274.658C178.101 251.759 152.755 259.946 135.943 235.815C132.771 231.253 121.98 214.185 131.636 161.251C146.486 79.7302 183.912 55.0514 170.068 27.3246C158.116 3.32388 119.076 -0.415797 99.2334 0.972069C50.1486 4.46304 20.6699 46.7701 11.8314 59.4549C-20.5864 105.988 -8.32735 138.676 -21.2996 209.598C-45.6914 342.858 -113.065 359.064 -101.499 450.588C-100.001 462.423 -92.0808 515.879 -48.9608 560.298C-38.6427 570.978 -1.77174 607.834 55.4227 613.242Z" stroke="#E52421" stroke-opacity="0.25" stroke-miterlimit="10"/>
</svg>
