<svg width="261" height="1007" viewBox="0 0 261 1007" fill="none" xmlns="http://www.w3.org/2000/svg">
<g clip-path="url(#clip0_271_1760)">
<path d="M137.563 560.832C191.885 635.048 239.655 661.656 249.237 736.95C257.265 800.176 229.577 829.166 250.845 877.818C274.083 930.915 337.782 966.504 392.86 970.091C514.845 977.956 618.462 830.662 656.27 721.784C706.613 576.891 657.665 449.717 626.148 367.315C615.863 340.563 540.265 143.789 448.726 147.608C420.105 148.814 386.862 169.741 387.195 185.979C387.519 201.119 416.917 204.916 431.017 234.946C438.023 249.865 437.612 263.629 437.126 275.496C435.486 315.533 412.071 410.921 352.673 423.479C291.3 436.435 212.447 356.384 207.513 283.379C202.312 206.324 281.457 166.997 260.301 107.976C248.633 75.3912 212.424 53.5604 181.356 51.4947C117.866 47.2885 60.7064 124.474 39.2088 186.204C-16.0765 346.079 121.341 538.613 137.563 560.832Z" stroke="#E52421" stroke-opacity="0.25" stroke-miterlimit="10"/>
</g>
<defs>
<clipPath id="clip0_271_1760">
<rect width="944" height="621" fill="white" transform="translate(103.601 1006.39) rotate(-96.2935)"/>
</clipPath>
</defs>
</svg>
