<svg width="532" height="911" viewBox="0 0 532 911" fill="none" xmlns="http://www.w3.org/2000/svg">
<path d="M376.365 765.65C515.008 695.84 573.589 469.486 498.232 370.799C407.222 251.644 174.731 389.158 32.5398 245.317C-57.9232 153.78 -21.6877 39.5169 -105.112 7.69146C-192.973 -25.8224 -308.72 72.0757 -359.743 131.034C-441.852 225.852 -510.025 397.258 -442.811 496.795C-366.76 609.496 -170.309 551.291 -129.938 656.823C-103.462 725.952 -171.89 792.188 -126.553 861.168C-104.623 894.51 -62.5469 918.648 -43.7589 907.763C-13.236 890.077 -74.1733 797.116 -38.5175 685.512C-19.8839 627.176 26.4395 559.896 64.7119 564.758C119.861 571.619 101.318 720.432 196.541 774.054C271.945 816.584 367.504 770.102 376.365 765.65Z" stroke="#E52421" stroke-opacity="0.25" stroke-miterlimit="10"/>
</svg>
