<svg width="1915" height="399" viewBox="0 0 1915 399" fill="none" xmlns="http://www.w3.org/2000/svg">
<mask id="path-1-outside-1_837_1355" maskUnits="userSpaceOnUse" x="-316" y="-1" width="5534" height="401" fill="black">
<rect fill="white" x="-316" y="-1" width="5534" height="401"/>
<path d="M-83.308 398.478C47.4857 398.478 147.477 326.446 147.477 199.444C147.477 72.9151 47.4857 0.409838 -83.308 0.409838C-215.05 0.409838 -314.567 72.9151 -314.567 199.444C-314.567 326.446 -215.05 398.478 -83.308 398.478ZM-83.308 387.104C-170.978 387.104 -209.363 299.435 -209.363 199.444C-209.363 99.9268 -170.978 11.7832 -83.308 11.7832C3.41389 11.7832 42.2729 99.9268 42.2729 199.444C42.2729 299.435 3.41389 387.104 -83.308 387.104ZM298.985 389C294.72 354.88 293.298 332.133 293.298 283.322V213.661H322.205C416.983 213.661 501.336 197.548 501.336 111.774C501.336 25.9999 416.983 9.88767 322.205 9.88767H189.516C193.781 44.0078 195.203 66.7545 195.203 115.565V283.322C195.203 332.133 193.781 354.88 189.516 389H298.985ZM293.298 21.261H320.783C365.803 21.261 402.767 40.2166 402.767 111.774C402.767 183.332 365.803 202.287 320.783 202.287H293.298V21.261ZM701.051 9.88767H584.474C589.213 25.526 587.791 33.1083 584 48.2728L506.756 335.924C502.017 353.458 499.174 364.358 487.326 389H508.178C509.599 365.779 513.864 353.458 518.603 335.45L539.928 254.889H663.614L683.991 329.29C690.625 353.458 693.469 363.884 694.89 389H811.467C801.042 370.044 795.355 356.302 788.247 329.29L701.051 9.88767ZM601.06 26.9477L660.296 243.516H543.245L601.06 26.9477ZM1043.2 398.478L1186.31 32.6344V283.322C1186.31 332.133 1184.42 354.88 1180.63 389H1289.62C1285.83 354.88 1283.94 332.133 1283.94 283.322V115.565C1283.94 66.7545 1285.83 44.0078 1289.62 9.88767H1183.47L1080.16 267.684L968.325 9.88767H852.222C856.487 44.0078 857.909 66.7545 857.909 115.565V283.322C857.909 332.133 856.487 354.88 852.222 389H875.443C871.178 354.88 869.282 332.133 869.282 283.322V34.0561L1025.19 398.478H1043.2ZM1607.24 389L1626.67 345.876C1557.95 374.309 1531.89 377.627 1480.71 377.627H1445.17V195.653H1467.91C1493.03 195.653 1518.62 195.653 1562.69 200.392V179.54C1518.62 184.279 1493.03 184.279 1467.91 184.279H1445.17V21.261H1484.5C1513.88 21.261 1548.47 25.9999 1586.86 54.4334L1617.66 9.88767H1341.38C1345.65 44.0078 1347.54 66.7545 1347.54 115.565V283.322C1347.54 332.133 1345.65 354.88 1341.38 389H1607.24ZM2015.3 398.478C2116.71 398.478 2174.53 334.029 2200.59 225.982H2190.64C2168.37 322.181 2113.87 370.044 2043.73 370.044C1953.22 370.044 1913.89 289.009 1913.89 188.07C1913.89 90.449 1948.01 11.7832 2012.93 11.7832C2062.69 11.7832 2086.86 65.8067 2095.86 140.208L2185.9 115.091C2153.2 45.4294 2096.34 0.409838 2012.93 0.409838C1902.04 0.409838 1808.68 71.4934 1808.68 194.705C1808.68 317.916 1890.67 398.478 2015.3 398.478ZM2471.26 398.478C2602.05 398.478 2702.04 326.446 2702.04 199.444C2702.04 72.9151 2602.05 0.409838 2471.26 0.409838C2339.52 0.409838 2240 72.9151 2240 199.444C2240 326.446 2339.52 398.478 2471.26 398.478ZM2471.26 387.104C2383.59 387.104 2345.2 299.435 2345.2 199.444C2345.2 99.9268 2383.59 11.7832 2471.26 11.7832C2557.98 11.7832 2596.84 99.9268 2596.84 199.444C2596.84 299.435 2557.98 387.104 2471.26 387.104ZM3005.19 389L3024.62 345.876C2955.91 374.309 2929.85 377.627 2878.67 377.627H2848.81V115.565C2848.81 66.7545 2850.23 44.0078 2854.5 9.88767H2745.03C2749.29 44.0078 2750.72 66.7545 2750.72 115.565V283.322C2750.72 332.133 2748.35 354.88 2744.08 389H3005.19ZM3319.43 389L3338.85 345.876C3270.14 374.309 3244.08 377.627 3192.9 377.627H3163.04V115.565C3163.04 66.7545 3164.46 44.0078 3168.73 9.88767H3059.26C3063.52 44.0078 3064.95 66.7545 3064.95 115.565V283.322C3064.95 332.133 3062.58 354.88 3058.31 389H3319.43ZM3638.39 389L3657.82 345.876C3589.11 374.309 3563.05 377.627 3511.87 377.627H3476.32V195.653H3499.07C3524.19 195.653 3549.78 195.653 3593.85 200.392V179.54C3549.78 184.279 3524.19 184.279 3499.07 184.279H3476.32V21.261H3515.66C3545.04 21.261 3579.63 25.9999 3618.02 54.4334L3648.82 9.88767H3372.54C3376.81 44.0078 3378.7 66.7545 3378.7 115.565V283.322C3378.7 332.133 3376.81 354.88 3372.54 389H3638.39ZM3870.6 398.478C3972.01 398.478 4029.83 334.029 4055.89 225.982H4045.94C4023.67 322.181 3969.17 370.044 3899.03 370.044C3808.52 370.044 3769.19 289.009 3769.19 188.07C3769.19 90.449 3803.31 11.7832 3868.23 11.7832C3917.99 11.7832 3942.16 65.8067 3951.16 140.208L4041.2 115.091C4008.5 45.4294 3951.64 0.409838 3868.23 0.409838C3757.34 0.409838 3663.98 71.4934 3663.98 194.705C3663.98 317.916 3745.97 398.478 3870.6 398.478ZM4273.08 389C4268.82 354.88 4267.39 332.133 4267.39 283.322V21.261H4273.56C4303.41 21.261 4333.74 25.9999 4371.65 54.4334L4402.93 9.88767H4033.77L4065.04 54.4334C4103.43 25.9999 4133.28 21.261 4163.14 21.261H4169.3V283.322C4169.3 332.133 4167.88 354.88 4163.61 389H4273.08ZM4537.62 389C4533.35 354.88 4531.93 332.133 4531.93 283.322V115.565C4531.93 66.7545 4533.35 44.0078 4537.62 9.88767H4428.15C4432.42 44.0078 4433.84 66.7545 4433.84 115.565V283.322C4433.84 332.133 4432.42 354.88 4428.15 389H4537.62ZM4802.55 389C4797.81 373.362 4799.23 365.779 4803.02 350.615L4880.27 62.9634C4885.01 45.4294 4887.85 34.53 4899.7 9.88767H4879.32C4877.43 33.1083 4873.63 45.4294 4868.42 63.4373L4785.96 371.94L4703.03 69.5979C4696.4 45.4294 4693.56 35.0038 4692.13 9.88767H4575.56C4585.98 28.8433 4591.67 42.5861 4599.25 69.5979L4685.97 389H4802.55ZM5197.05 389L5216.48 345.876C5147.76 374.309 5121.7 377.627 5070.52 377.627H5034.98V195.653H5057.73C5082.84 195.653 5108.43 195.653 5152.5 200.392V179.54C5108.43 184.279 5082.84 184.279 5057.73 184.279H5034.98V21.261H5074.31C5103.69 21.261 5138.29 25.9999 5176.67 54.4334L5207.47 9.88767H4931.2C4935.46 44.0078 4937.36 66.7545 4937.36 115.565V283.322C4937.36 332.133 4935.46 354.88 4931.2 389H5197.05Z"/>
</mask>
<path d="M-83.308 399.121C-17.7993 399.121 40.0522 381.083 81.5397 347.084C123.041 313.074 148.12 263.13 148.12 199.444H146.833C146.833 262.76 121.916 312.333 80.7242 346.089C39.5178 379.857 -18.023 397.835 -83.308 397.835V399.121ZM148.12 199.444C148.12 135.994 123.041 86.0501 81.5401 51.9813C40.053 17.9239 -17.7983 -0.233482 -83.308 -0.233482V1.05316C-18.024 1.05316 39.517 19.1484 80.7238 52.9758C121.917 86.7918 146.833 136.365 146.833 199.444H148.12ZM-83.308 -0.233482C-149.291 -0.233482 -207.261 17.9234 -248.749 51.9813C-290.25 86.0507 -315.21 135.995 -315.21 199.444H-313.923C-313.923 136.364 -289.124 86.7912 -247.932 52.9758C-206.726 19.1489 -149.067 1.05316 -83.308 1.05316V-0.233482ZM-315.21 199.444C-315.21 263.13 -290.251 313.074 -248.748 347.084C-207.26 381.083 -149.29 399.121 -83.308 399.121V397.835C-149.068 397.835 -206.727 379.857 -247.933 346.089C-289.124 312.333 -313.923 262.761 -313.923 199.444H-315.21ZM-83.308 386.461C-126.883 386.461 -158.202 364.693 -178.659 330.441C-199.134 296.159 -208.72 249.371 -208.72 199.444H-210.006C-210.006 249.507 -200.399 296.55 -179.764 331.101C-159.111 365.681 -127.402 387.748 -83.308 387.748V386.461ZM-208.72 199.444C-208.72 149.754 -199.134 102.966 -178.659 68.6241C-158.201 34.3119 -126.882 12.4265 -83.308 12.4265V11.1399C-127.404 11.1399 -159.112 33.3264 -179.764 67.9652C-200.399 102.575 -210.006 149.617 -210.006 199.444H-208.72ZM-83.308 12.4265C-40.2102 12.4265 -9.00836 34.3096 11.4506 68.6241C31.9263 102.967 41.6296 149.755 41.6296 199.444H42.9162C42.9162 149.616 33.1901 102.574 12.5557 67.9652C-8.09531 33.3286 -39.6839 11.1399 -83.308 11.1399V12.4265ZM41.6296 199.444C41.6296 249.37 31.9261 296.158 11.4509 330.441C-9.00739 364.695 -40.2088 386.461 -83.308 386.461V387.748C-39.6853 387.748 -8.09628 365.679 12.5555 331.101C33.1902 296.551 42.9162 249.508 42.9162 199.444H41.6296ZM298.985 389V389.643H299.713L299.623 388.92L298.985 389ZM293.298 213.661V213.017H292.655V213.661H293.298ZM189.516 9.88766V9.24435H188.787L188.878 9.96746L189.516 9.88766ZM189.516 389L188.878 388.92L188.787 389.643H189.516V389ZM293.298 21.261V20.6177H292.655V21.261H293.298ZM293.298 202.287H292.655V202.93H293.298V202.287ZM299.623 388.92C295.362 354.832 293.941 332.113 293.941 283.322H292.655C292.655 332.154 294.077 354.928 298.346 389.08L299.623 388.92ZM293.941 283.322V213.661H292.655V283.322H293.941ZM293.298 214.304H322.205V213.017H293.298V214.304ZM322.205 214.304C369.605 214.304 414.507 210.279 447.575 195.47C464.122 188.06 477.732 177.938 487.204 164.246C496.678 150.55 501.979 133.328 501.979 111.774H500.692C500.692 133.107 495.449 150.065 486.146 163.514C476.839 176.967 463.438 186.956 447.049 194.296C414.247 208.986 369.583 213.017 322.205 213.017V214.304ZM501.979 111.774C501.979 90.2204 496.678 72.9982 487.204 59.3024C477.732 45.6105 464.122 35.4887 447.575 28.0784C414.507 13.2689 369.605 9.24435 322.205 9.24435V10.531C369.583 10.531 414.247 14.5625 447.049 29.2527C463.438 36.5923 476.839 46.5812 486.146 60.0343C495.449 73.4836 500.692 90.4408 500.692 111.774H501.979ZM322.205 9.24435H189.516V10.531H322.205V9.24435ZM188.878 9.96746C193.138 44.0555 194.559 66.7749 194.559 115.565H195.846C195.846 66.7341 194.423 43.96 190.154 9.80787L188.878 9.96746ZM194.559 115.565V283.322H195.846V115.565H194.559ZM194.559 283.322C194.559 332.113 193.138 354.832 188.878 388.92L190.154 389.08C194.423 354.928 195.846 332.154 195.846 283.322H194.559ZM189.516 389.643H298.985V388.357H189.516V389.643ZM293.298 21.9044H320.784V20.6177H293.298V21.9044ZM320.784 21.9044C343.218 21.9044 363.523 26.6296 378.222 40.1569C392.911 53.6752 402.123 76.0992 402.123 111.774H403.41C403.41 75.8915 394.141 53.059 379.093 39.2102C364.055 25.3703 343.368 20.6177 320.784 20.6177V21.9044ZM402.123 111.774C402.123 147.449 392.911 169.873 378.222 183.391C363.523 196.919 343.218 201.644 320.784 201.644V202.93C343.368 202.93 364.055 198.178 379.093 184.338C394.141 170.489 403.41 147.657 403.41 111.774H402.123ZM320.784 201.644H293.298V202.93H320.784V201.644ZM293.941 202.287V21.261H292.655V202.287H293.941ZM701.051 9.88766L701.672 9.71824L701.542 9.24435H701.051V9.88766ZM584.474 9.88766V9.24435H583.607L583.858 10.0742L584.474 9.88766ZM584 48.2728L584.621 48.4396L584.624 48.4288L584 48.2728ZM506.756 335.924L507.377 336.092L507.377 336.091L506.756 335.924ZM487.326 389L486.747 388.721L486.303 389.643H487.326V389ZM508.178 389V389.643H508.783L508.82 389.039L508.178 389ZM518.603 335.45L517.981 335.286L517.981 335.287L518.603 335.45ZM539.928 254.889V254.246H539.433L539.306 254.724L539.928 254.889ZM663.614 254.889L664.234 254.719L664.104 254.246H663.614V254.889ZM683.991 329.29L683.37 329.46V329.46L683.991 329.29ZM694.89 389L694.248 389.036L694.282 389.643H694.89V389ZM811.467 389V389.643H812.555L812.031 388.69L811.467 389ZM788.247 329.29L788.869 329.126L788.867 329.12L788.247 329.29ZM601.06 26.9477L601.681 26.778L601.053 24.4818L600.439 26.7818L601.06 26.9477ZM660.296 243.516V244.159H661.139L660.917 243.346L660.296 243.516ZM543.245 243.516L542.624 243.35L542.408 244.159H543.245V243.516ZM701.051 9.24435H584.474V10.531H701.051V9.24435ZM583.858 10.0742C586.213 17.8448 587.026 23.5761 586.793 29.2314C586.559 34.9027 585.273 40.5293 583.376 48.1167L584.624 48.4288C586.518 40.8518 587.838 35.105 588.078 29.2844C588.319 23.4479 587.474 17.5689 585.09 9.7011L583.858 10.0742ZM583.379 48.1059L506.135 335.757L507.377 336.091L584.621 48.4396L583.379 48.1059ZM506.135 335.756C501.401 353.272 498.57 364.129 486.747 388.721L487.906 389.279C499.777 364.586 502.633 353.645 507.377 336.092L506.135 335.756ZM487.326 389.643H508.178V388.357H487.326V389.643ZM508.82 389.039C510.237 365.897 514.48 353.647 519.225 335.614L517.981 335.287C513.249 353.27 508.962 365.662 507.535 388.961L508.82 389.039ZM519.225 335.615L540.55 255.054L539.306 254.724L517.981 335.286L519.225 335.615ZM539.928 255.532H663.614V254.246H539.928V255.532ZM662.993 255.059L683.37 329.46L684.611 329.12L664.234 254.719L662.993 255.059ZM683.37 329.46C690.001 353.615 692.83 363.988 694.248 389.036L695.533 388.964C694.107 363.779 691.25 353.302 684.611 329.12L683.37 329.46ZM694.89 389.643H811.467V388.357H694.89V389.643ZM812.031 388.69C801.633 369.784 795.965 356.091 788.869 329.126L787.625 329.454C794.745 356.512 800.451 370.304 810.904 389.31L812.031 388.69ZM788.867 329.12L701.672 9.71824L700.43 10.0571L787.626 329.459L788.867 329.12ZM600.44 27.1174L659.676 243.685L660.917 243.346L601.681 26.778L600.44 27.1174ZM660.296 242.872H543.245V244.159H660.296V242.872ZM543.867 243.682L601.682 27.1136L600.439 26.7818L542.624 243.35L543.867 243.682ZM1043.2 398.478V399.121H1043.64L1043.8 398.712L1043.2 398.478ZM1186.31 32.6344H1186.96L1185.72 32.4L1186.31 32.6344ZM1180.63 389L1179.99 388.929L1179.91 389.643H1180.63V389ZM1289.62 389V389.643H1290.34L1290.26 388.929L1289.62 389ZM1289.62 9.88766L1290.26 9.95871L1290.34 9.24435H1289.62V9.88766ZM1183.47 9.88766V9.24435H1183.04L1182.87 9.64837L1183.47 9.88766ZM1080.16 267.684L1079.57 267.94L1080.19 269.355L1080.76 267.923L1080.16 267.684ZM968.325 9.88766L968.915 9.63163L968.747 9.24435H968.325V9.88766ZM852.222 9.88766V9.24435H851.493L851.583 9.96746L852.222 9.88766ZM852.222 389L851.583 388.92L851.493 389.643H852.222V389ZM875.443 389V389.643H876.171L876.081 388.92L875.443 389ZM869.282 34.0561L869.873 33.803L868.639 34.0561H869.282ZM1025.19 398.478L1024.6 398.731L1024.77 399.121H1025.19V398.478ZM1043.8 398.712L1186.91 32.8688L1185.72 32.4L1042.6 398.243L1043.8 398.712ZM1185.67 32.6344V283.322H1186.96V32.6344H1185.67ZM1185.67 283.322C1185.67 332.106 1183.78 354.829 1179.99 388.929L1181.27 389.071C1185.06 354.931 1186.96 332.16 1186.96 283.322H1185.67ZM1180.63 389.643H1289.62V388.357H1180.63V389.643ZM1290.26 388.929C1286.47 354.829 1284.58 332.106 1284.58 283.322H1283.29C1283.29 332.16 1285.19 354.931 1288.98 389.071L1290.26 388.929ZM1284.58 283.322V115.565H1283.29V283.322H1284.58ZM1284.58 115.565C1284.58 66.7813 1286.47 44.0584 1290.26 9.95871L1288.98 9.81662C1285.19 43.9571 1283.29 66.7278 1283.29 115.565H1284.58ZM1289.62 9.24435H1183.47V10.531H1289.62V9.24435ZM1182.87 9.64837L1079.57 267.445L1080.76 267.923L1184.07 10.127L1182.87 9.64837ZM1080.75 267.428L968.915 9.63163L967.735 10.1437L1079.57 267.94L1080.75 267.428ZM968.325 9.24435H852.222V10.531H968.325V9.24435ZM851.583 9.96746C855.845 44.0555 857.265 66.7749 857.265 115.565H858.552C858.552 66.7341 857.129 43.96 852.86 9.80787L851.583 9.96746ZM857.265 115.565V283.322H858.552V115.565H857.265ZM857.265 283.322C857.265 332.113 855.845 354.832 851.583 388.92L852.86 389.08C857.129 354.928 858.552 332.154 858.552 283.322H857.265ZM852.222 389.643H875.443V388.357H852.222V389.643ZM876.081 388.92C871.819 354.826 869.925 332.106 869.925 283.322H868.639C868.639 332.16 870.536 354.934 874.804 389.08L876.081 388.92ZM869.925 283.322V34.0561H868.639V283.322H869.925ZM868.69 34.3091L1024.6 398.731L1025.78 398.225L869.873 33.803L868.69 34.3091ZM1025.19 399.121H1043.2V397.835H1025.19V399.121ZM1607.24 389V389.643H1607.65L1607.82 389.264L1607.24 389ZM1626.67 345.876L1627.25 346.14L1627.92 344.661L1626.42 345.282L1626.67 345.876ZM1445.17 377.627H1444.52V378.27H1445.17V377.627ZM1445.17 195.653V195.009H1444.52V195.653H1445.17ZM1562.69 200.392L1562.62 201.031L1563.33 201.108V200.392H1562.69ZM1562.69 179.54H1563.33V178.824L1562.62 178.901L1562.69 179.54ZM1445.17 184.279H1444.52V184.923H1445.17V184.279ZM1445.17 21.261V20.6177H1444.52V21.261H1445.17ZM1586.86 54.4334L1586.48 54.9503L1587.01 55.3459L1587.39 54.7992L1586.86 54.4334ZM1617.66 9.88766L1618.19 10.2536L1618.89 9.24435H1617.66V9.88766ZM1341.38 9.88766V9.24435H1340.66L1340.75 9.96746L1341.38 9.88766ZM1341.38 389L1340.75 388.92L1340.66 389.643H1341.38V389ZM1607.82 389.264L1627.25 346.14L1626.08 345.612L1606.65 388.736L1607.82 389.264ZM1626.42 345.282C1592.08 359.492 1568.43 367.412 1546.98 371.783C1525.54 376.154 1506.28 376.983 1480.71 376.983V378.27C1506.31 378.27 1525.67 377.441 1547.24 373.044C1568.8 368.649 1592.54 360.693 1626.91 346.47L1626.42 345.282ZM1480.71 376.983H1445.17V378.27H1480.71V376.983ZM1445.81 377.627V195.653H1444.52V377.627H1445.81ZM1445.17 196.296H1467.91V195.009H1445.17V196.296ZM1467.91 196.296C1493.02 196.296 1518.58 196.296 1562.62 201.031L1562.76 199.752C1518.65 195.009 1493.04 195.009 1467.91 195.009V196.296ZM1563.33 200.392V179.54H1562.05V200.392H1563.33ZM1562.62 178.901C1518.58 183.636 1493.02 183.636 1467.91 183.636V184.923C1493.04 184.923 1518.65 184.923 1562.76 180.18L1562.62 178.901ZM1467.91 183.636H1445.17V184.923H1467.91V183.636ZM1445.81 184.279V21.261H1444.52V184.279H1445.81ZM1445.17 21.9044H1484.5V20.6177H1445.17V21.9044ZM1484.5 21.9044C1513.79 21.9044 1548.23 26.6232 1586.48 54.9503L1587.24 53.9164C1548.71 25.3767 1513.97 20.6177 1484.5 20.6177V21.9044ZM1587.39 54.7992L1618.19 10.2536L1617.13 9.52177L1586.33 54.0675L1587.39 54.7992ZM1617.66 9.24435H1341.38V10.531H1617.66V9.24435ZM1340.75 9.96746C1345.01 44.0615 1346.9 66.7816 1346.9 115.565H1348.19C1348.19 66.7274 1346.29 43.954 1342.02 9.80787L1340.75 9.96746ZM1346.9 115.565V283.322H1348.19V115.565H1346.9ZM1346.9 283.322C1346.9 332.106 1345.01 354.826 1340.75 388.92L1342.02 389.08C1346.29 354.934 1348.19 332.16 1348.19 283.322H1346.9ZM1341.38 389.643H1607.24V388.357H1341.38V389.643ZM2200.59 225.982L2201.22 226.133L2201.41 225.338H2200.59V225.982ZM2190.64 225.982V225.338H2190.13L2190.01 225.837L2190.64 225.982ZM2095.86 140.208L2095.22 140.285L2095.31 141.028L2096.04 140.827L2095.86 140.208ZM2185.9 115.091L2186.07 115.711L2186.81 115.507L2186.48 114.818L2185.9 115.091ZM2015.3 399.121C2066.16 399.121 2106.13 382.955 2136.65 353.208C2167.16 323.476 2188.17 280.225 2201.22 226.133L2199.97 225.831C2186.95 279.786 2166.02 322.783 2135.75 352.287C2105.5 381.776 2065.86 397.835 2015.3 397.835V399.121ZM2200.59 225.338H2190.64V226.625H2200.59V225.338ZM2190.01 225.837C2178.9 273.852 2159.75 309.741 2134.69 333.622C2109.64 357.494 2078.64 369.401 2043.73 369.401V370.688C2078.96 370.688 2110.28 358.663 2135.58 334.554C2160.87 310.453 2180.11 274.312 2191.27 226.127L2190.01 225.837ZM2043.73 369.401C1998.71 369.401 1966.44 349.262 1945.41 316.561C1924.35 283.827 1914.53 238.471 1914.53 188.07H1913.25C1913.25 238.609 1923.09 284.24 1944.33 317.257C1965.59 350.309 1998.25 370.688 2043.73 370.688V369.401ZM1914.53 188.07C1914.53 139.322 1923.05 95.3627 1939.63 63.6166C1956.21 31.8836 1980.78 12.4265 2012.93 12.4265V11.1399C1980.16 11.1399 1955.21 31.0158 1938.49 63.021C1921.78 95.0131 1913.25 139.198 1913.25 188.07H1914.53ZM2012.93 12.4265C2037.52 12.4265 2055.82 25.7531 2069.12 48.4207C2082.45 71.1146 2090.73 103.118 2095.22 140.285L2096.5 140.13C2091.99 102.896 2083.69 70.6875 2070.23 47.7694C2056.77 24.8251 2038.1 11.1399 2012.93 11.1399V12.4265ZM2096.04 140.827L2186.07 115.711L2185.73 114.472L2095.69 139.588L2096.04 140.827ZM2186.48 114.818C2153.7 44.9695 2096.63 -0.233482 2012.93 -0.233482V1.05316C2096.05 1.05316 2152.71 45.8894 2185.32 115.365L2186.48 114.818ZM2012.93 -0.233482C1957.35 -0.233482 1906.13 17.5807 1868.8 50.8729C1831.45 84.173 1808.04 132.925 1808.04 194.705H1809.33C1809.33 133.274 1832.6 84.8777 1869.65 51.8332C1906.72 18.7807 1957.62 1.05316 2012.93 1.05316V-0.233482ZM1808.04 194.705C1808.04 256.457 1828.59 307.574 1864.8 343.254C1901.02 378.933 1952.84 399.121 2015.3 399.121V397.835C1953.12 397.835 1901.64 377.742 1865.71 342.337C1829.77 306.934 1809.33 256.164 1809.33 194.705H1808.04ZM2471.26 399.121C2536.77 399.121 2594.62 381.083 2636.11 347.084C2677.61 313.074 2702.69 263.13 2702.69 199.444H2701.4C2701.4 262.76 2676.48 312.333 2635.29 346.089C2594.08 379.857 2536.54 397.835 2471.26 397.835V399.121ZM2702.69 199.444C2702.69 135.994 2677.61 86.0501 2636.11 51.9813C2594.62 17.9239 2536.77 -0.233482 2471.26 -0.233482V1.05316C2536.54 1.05316 2594.08 19.1484 2635.29 52.9758C2676.48 86.7918 2701.4 136.365 2701.4 199.444H2702.69ZM2471.26 -0.233482C2405.27 -0.233482 2347.3 17.9234 2305.82 51.9813C2264.32 86.0507 2239.36 135.995 2239.36 199.444H2240.64C2240.64 136.364 2265.44 86.7912 2306.63 52.9758C2347.84 19.1489 2405.5 1.05316 2471.26 1.05316V-0.233482ZM2239.36 199.444C2239.36 263.13 2264.31 313.074 2305.82 347.084C2347.31 381.083 2405.28 399.121 2471.26 399.121V397.835C2405.5 397.835 2347.84 379.857 2306.63 346.089C2265.44 312.333 2240.64 262.761 2240.64 199.444H2239.36ZM2471.26 386.461C2427.68 386.461 2396.36 364.693 2375.91 330.441C2355.43 296.159 2345.85 249.371 2345.85 199.444H2344.56C2344.56 249.507 2354.17 296.55 2374.8 331.101C2395.45 365.681 2427.16 387.748 2471.26 387.748V386.461ZM2345.85 199.444C2345.85 149.754 2355.43 102.966 2375.91 68.6241C2396.36 34.3119 2427.68 12.4265 2471.26 12.4265V11.1399C2427.16 11.1399 2395.45 33.3264 2374.8 67.9652C2354.17 102.575 2344.56 149.617 2344.56 199.444H2345.85ZM2471.26 12.4265C2514.36 12.4265 2545.56 34.3096 2566.02 68.6241C2586.49 102.967 2596.2 149.755 2596.2 199.444H2597.48C2597.48 149.616 2587.76 102.574 2567.12 67.9652C2546.47 33.3286 2514.88 11.1399 2471.26 11.1399V12.4265ZM2596.2 199.444C2596.2 249.37 2586.49 296.158 2566.02 330.441C2545.56 364.695 2514.36 386.461 2471.26 386.461V387.748C2514.88 387.748 2546.47 365.679 2567.12 331.101C2587.76 296.551 2597.48 249.508 2597.48 199.444H2596.2ZM3005.19 389V389.643H3005.61L3005.78 389.264L3005.19 389ZM3024.62 345.876L3025.21 346.14L3025.88 344.661L3024.38 345.282L3024.62 345.876ZM2848.81 377.627H2848.17V378.27H2848.81V377.627ZM2854.5 9.88766L2855.14 9.96746L2855.23 9.24435H2854.5V9.88766ZM2745.03 9.88766V9.24435H2744.3L2744.39 9.96746L2745.03 9.88766ZM2744.08 389L2743.44 388.92L2743.35 389.643H2744.08V389ZM3005.78 389.264L3025.21 346.14L3024.04 345.612L3004.61 388.736L3005.78 389.264ZM3024.38 345.282C2990.04 359.492 2966.39 367.412 2944.94 371.783C2923.5 376.154 2904.24 376.983 2878.67 376.983V378.27C2904.27 378.27 2923.63 377.441 2945.2 373.044C2966.76 368.649 2990.5 360.693 3024.87 346.47L3024.38 345.282ZM2878.67 376.983H2848.81V378.27H2878.67V376.983ZM2849.45 377.627V115.565H2848.17V377.627H2849.45ZM2849.45 115.565C2849.45 66.7749 2850.88 44.0555 2855.14 9.96746L2853.86 9.80787C2849.59 43.96 2848.17 66.7341 2848.17 115.565H2849.45ZM2854.5 9.24435H2745.03V10.531H2854.5V9.24435ZM2744.39 9.96746C2748.65 44.0555 2750.07 66.7749 2750.07 115.565H2751.36C2751.36 66.7341 2749.94 43.96 2745.67 9.80787L2744.39 9.96746ZM2750.07 115.565V283.322H2751.36V115.565H2750.07ZM2750.07 283.322C2750.07 332.1 2747.71 354.819 2743.44 388.92L2744.72 389.08C2748.99 354.94 2751.36 332.166 2751.36 283.322H2750.07ZM2744.08 389.643H3005.19V388.357H2744.08V389.643ZM3319.43 389V389.643H3319.84L3320.01 389.264L3319.43 389ZM3338.85 345.876L3339.44 346.14L3340.11 344.661L3338.61 345.282L3338.85 345.876ZM3163.04 377.627H3162.4V378.27H3163.04V377.627ZM3168.73 9.88766L3169.37 9.96746L3169.46 9.24435H3168.73V9.88766ZM3059.26 9.88766V9.24435H3058.53L3058.62 9.96746L3059.26 9.88766ZM3058.31 389L3057.67 388.92L3057.58 389.643H3058.31V389ZM3320.01 389.264L3339.44 346.14L3338.27 345.612L3318.84 388.736L3320.01 389.264ZM3338.61 345.282C3304.27 359.492 3280.62 367.412 3259.17 371.783C3237.73 376.154 3218.47 376.983 3192.9 376.983V378.27C3218.5 378.27 3237.86 377.441 3259.43 373.044C3280.99 368.649 3304.73 360.693 3339.1 346.47L3338.61 345.282ZM3192.9 376.983H3163.04V378.27H3192.9V376.983ZM3163.68 377.627V115.565H3162.4V377.627H3163.68ZM3163.68 115.565C3163.68 66.7749 3165.11 44.0555 3169.37 9.96746L3168.09 9.80787C3163.82 43.96 3162.4 66.7341 3162.4 115.565H3163.68ZM3168.73 9.24435H3059.26V10.531H3168.73V9.24435ZM3058.62 9.96746C3062.88 44.0555 3064.3 66.7749 3064.3 115.565H3065.59C3065.59 66.7341 3064.17 43.96 3059.9 9.80787L3058.62 9.96746ZM3064.3 115.565V283.322H3065.59V115.565H3064.3ZM3064.3 283.322C3064.3 332.1 3061.94 354.819 3057.67 388.92L3058.95 389.08C3063.22 354.94 3065.59 332.166 3065.59 283.322H3064.3ZM3058.31 389.643H3319.43V388.357H3058.31V389.643ZM3638.39 389V389.643H3638.81L3638.98 389.264L3638.39 389ZM3657.82 345.876L3658.41 346.14L3659.08 344.661L3657.58 345.282L3657.82 345.876ZM3476.32 377.627H3475.68V378.27H3476.32V377.627ZM3476.32 195.653V195.009H3475.68V195.653H3476.32ZM3593.85 200.392L3593.78 201.031L3594.49 201.108V200.392H3593.85ZM3593.85 179.54H3594.49V178.824L3593.78 178.901L3593.85 179.54ZM3476.32 184.279H3475.68V184.923H3476.32V184.279ZM3476.32 21.261V20.6177H3475.68V21.261H3476.32ZM3618.02 54.4334L3617.63 54.9503L3618.17 55.3459L3618.55 54.7992L3618.02 54.4334ZM3648.82 9.88766L3649.35 10.2536L3650.05 9.24435H3648.82V9.88766ZM3372.54 9.88766V9.24435H3371.81L3371.9 9.96746L3372.54 9.88766ZM3372.54 389L3371.9 388.92L3371.81 389.643H3372.54V389ZM3638.98 389.264L3658.41 346.14L3657.24 345.612L3637.81 388.736L3638.98 389.264ZM3657.58 345.282C3623.24 359.492 3599.58 367.412 3578.14 371.783C3556.7 376.154 3537.44 376.983 3511.87 376.983V378.27C3537.47 378.27 3556.83 377.441 3578.4 373.044C3599.96 368.649 3623.7 360.693 3658.07 346.47L3657.58 345.282ZM3511.87 376.983H3476.32V378.27H3511.87V376.983ZM3476.97 377.627V195.653H3475.68V377.627H3476.97ZM3476.32 196.296H3499.07V195.009H3476.32V196.296ZM3499.07 196.296C3524.18 196.296 3549.74 196.296 3593.78 201.031L3593.92 199.752C3549.81 195.009 3524.2 195.009 3499.07 195.009V196.296ZM3594.49 200.392V179.54H3593.21V200.392H3594.49ZM3593.78 178.901C3549.74 183.636 3524.18 183.636 3499.07 183.636V184.923C3524.2 184.923 3549.81 184.923 3593.92 180.18L3593.78 178.901ZM3499.07 183.636H3476.32V184.923H3499.07V183.636ZM3476.97 184.279V21.261H3475.68V184.279H3476.97ZM3476.32 21.9044H3515.66V20.6177H3476.32V21.9044ZM3515.66 21.9044C3544.95 21.9044 3579.39 26.6232 3617.63 54.9503L3618.4 53.9164C3579.87 25.3767 3545.13 20.6177 3515.66 20.6177V21.9044ZM3618.55 54.7992L3649.35 10.2536L3648.29 9.52177L3617.49 54.0675L3618.55 54.7992ZM3648.82 9.24435H3372.54V10.531H3648.82V9.24435ZM3371.9 9.96746C3376.16 44.0615 3378.06 66.7816 3378.06 115.565H3379.35C3379.35 66.7274 3377.45 43.954 3373.18 9.80787L3371.9 9.96746ZM3378.06 115.565V283.322H3379.35V115.565H3378.06ZM3378.06 283.322C3378.06 332.106 3376.16 354.826 3371.9 388.92L3373.18 389.08C3377.45 354.934 3379.35 332.16 3379.35 283.322H3378.06ZM3372.54 389.643H3638.39V388.357H3372.54V389.643ZM4055.89 225.982L4056.52 226.133L4056.71 225.338H4055.89V225.982ZM4045.94 225.982V225.338H4045.43L4045.31 225.837L4045.94 225.982ZM3951.16 140.208L3950.52 140.285L3950.61 141.028L3951.33 140.827L3951.16 140.208ZM4041.2 115.091L4041.37 115.711L4042.11 115.507L4041.78 114.818L4041.2 115.091ZM3870.6 399.121C3921.46 399.121 3961.43 382.955 3991.95 353.208C4022.46 323.476 4043.47 280.225 4056.52 226.133L4055.27 225.831C4042.25 279.786 4021.32 322.783 3991.05 352.287C3960.8 381.776 3921.16 397.835 3870.6 397.835V399.121ZM4055.89 225.338H4045.94V226.625H4055.89V225.338ZM4045.31 225.837C4034.2 273.852 4015.05 309.741 3989.99 333.622C3964.94 357.494 3933.94 369.401 3899.03 369.401V370.688C3934.26 370.688 3965.58 358.663 3990.88 334.554C4016.17 310.453 4035.41 274.312 4046.57 226.127L4045.31 225.837ZM3899.03 369.401C3854.01 369.401 3821.74 349.262 3800.71 316.561C3779.65 283.827 3769.83 238.471 3769.83 188.07H3768.54C3768.54 238.609 3778.39 284.24 3799.63 317.257C3820.89 350.309 3853.55 370.688 3899.03 370.688V369.401ZM3769.83 188.07C3769.83 139.322 3778.35 95.3627 3794.93 63.6166C3811.51 31.8836 3836.08 12.4265 3868.23 12.4265V11.1399C3835.45 11.1399 3810.51 31.0158 3793.79 63.021C3777.08 95.0131 3768.54 139.198 3768.54 188.07H3769.83ZM3868.23 12.4265C3892.82 12.4265 3911.12 25.7531 3924.42 48.4207C3937.75 71.1146 3946.03 103.118 3950.52 140.285L3951.8 140.13C3947.29 102.896 3938.99 70.6875 3925.53 47.7694C3912.07 24.8251 3893.4 11.1399 3868.23 11.1399V12.4265ZM3951.33 140.827L4041.37 115.711L4041.03 114.472L3950.99 139.588L3951.33 140.827ZM4041.78 114.818C4009 44.9695 3951.93 -0.233482 3868.23 -0.233482V1.05316C3951.35 1.05316 4008.01 45.8894 4040.62 115.365L4041.78 114.818ZM3868.23 -0.233482C3812.65 -0.233482 3761.43 17.5807 3724.1 50.8729C3686.75 84.173 3663.34 132.925 3663.34 194.705H3664.63C3664.63 133.274 3687.89 84.8777 3724.95 51.8332C3762.02 18.7807 3812.92 1.05316 3868.23 1.05316V-0.233482ZM3663.34 194.705C3663.34 256.457 3683.89 307.574 3720.1 343.254C3756.32 378.933 3808.14 399.121 3870.6 399.121V397.835C3808.42 397.835 3756.94 377.742 3721.01 342.337C3685.07 306.934 3664.63 256.164 3664.63 194.705H3663.34ZM4273.08 389V389.643H4273.81L4273.72 388.92L4273.08 389ZM4267.4 21.261V20.6177H4266.75V21.261H4267.4ZM4371.65 54.4334L4371.26 54.948L4371.8 55.3463L4372.18 54.803L4371.65 54.4334ZM4402.93 9.88766L4403.45 10.2573L4404.17 9.24435H4402.93V9.88766ZM4033.77 9.88766V9.24435H4032.53L4033.24 10.2573L4033.77 9.88766ZM4065.04 54.4334L4064.52 54.803L4064.9 55.3431L4065.43 54.9503L4065.04 54.4334ZM4169.3 21.261H4169.94V20.6177H4169.3V21.261ZM4163.61 389L4162.97 388.92L4162.88 389.643H4163.61V389ZM4273.72 388.92C4269.46 354.832 4268.04 332.113 4268.04 283.322H4266.75C4266.75 332.154 4268.17 354.928 4272.44 389.08L4273.72 388.92ZM4268.04 283.322V21.261H4266.75V283.322H4268.04ZM4267.4 21.9044H4273.56V20.6177H4267.4V21.9044ZM4273.56 21.9044C4303.3 21.9044 4333.49 26.6159 4371.26 54.948L4372.04 53.9187C4333.99 25.3839 4303.52 20.6177 4273.56 20.6177V21.9044ZM4372.18 54.803L4403.45 10.2573L4402.4 9.51799L4371.12 54.0637L4372.18 54.803ZM4402.93 9.24435H4033.77V10.531H4402.93V9.24435ZM4033.24 10.2573L4064.52 54.803L4065.57 54.0637L4034.29 9.51799L4033.24 10.2573ZM4065.43 54.9503C4103.68 26.6147 4133.39 21.9044 4163.14 21.9044V20.6177C4133.17 20.6177 4103.18 25.3852 4064.66 53.9164L4065.43 54.9503ZM4163.14 21.9044H4169.3V20.6177H4163.14V21.9044ZM4168.66 21.261V283.322H4169.94V21.261H4168.66ZM4168.66 283.322C4168.66 332.113 4167.24 354.832 4162.97 388.92L4164.25 389.08C4168.52 354.928 4169.94 332.154 4169.94 283.322H4168.66ZM4163.61 389.643H4273.08V388.357H4163.61V389.643ZM4537.62 389V389.643H4538.35L4538.26 388.92L4537.62 389ZM4537.62 9.88766L4538.26 9.96746L4538.35 9.24435H4537.62V9.88766ZM4428.15 9.88766V9.24435H4427.42L4427.51 9.96746L4428.15 9.88766ZM4428.15 389L4427.51 388.92L4427.42 389.643H4428.15V389ZM4538.26 388.92C4534 354.832 4532.58 332.113 4532.58 283.322H4531.29C4531.29 332.154 4532.71 354.928 4536.98 389.08L4538.26 388.92ZM4532.58 283.322V115.565H4531.29V283.322H4532.58ZM4532.58 115.565C4532.58 66.7749 4534 44.0555 4538.26 9.96746L4536.98 9.80787C4532.71 43.96 4531.29 66.7341 4531.29 115.565H4532.58ZM4537.62 9.24435H4428.15V10.531H4537.62V9.24435ZM4427.51 9.96746C4431.77 44.0555 4433.19 66.7749 4433.19 115.565H4434.48C4434.48 66.7341 4433.06 43.96 4428.79 9.80787L4427.51 9.96746ZM4433.19 115.565V283.322H4434.48V115.565H4433.19ZM4433.19 283.322C4433.19 332.113 4431.77 354.832 4427.51 388.92L4428.79 389.08C4433.06 354.928 4434.48 332.154 4434.48 283.322H4433.19ZM4428.15 389.643H4537.62V388.357H4428.15V389.643ZM4802.55 389V389.643H4803.42L4803.17 388.813L4802.55 389ZM4803.02 350.615L4802.4 350.448L4802.4 350.459L4803.02 350.615ZM4880.27 62.9634L4879.65 62.7955L4879.65 62.7965L4880.27 62.9634ZM4899.7 9.88766L4900.28 10.1664L4900.72 9.24435H4899.7V9.88766ZM4879.32 9.88766V9.24435H4878.73L4878.68 9.83532L4879.32 9.88766ZM4868.42 63.4373L4867.8 63.2584L4867.8 63.2712L4868.42 63.4373ZM4785.96 371.94L4785.34 372.11L4785.97 374.401L4786.59 372.106L4785.96 371.94ZM4703.03 69.5979L4703.65 69.4277V69.4276L4703.03 69.5979ZM4692.13 9.88766L4692.78 9.85131L4692.74 9.24435H4692.13V9.88766ZM4575.56 9.88766V9.24435H4574.47L4574.99 10.1977L4575.56 9.88766ZM4599.25 69.5979L4599.87 69.4293L4599.87 69.424L4599.25 69.5979ZM4685.97 389L4685.35 389.169L4685.48 389.643H4685.97V389ZM4803.17 388.813C4800.81 381.043 4800 375.312 4800.23 369.656C4800.47 363.985 4801.75 358.358 4803.65 350.771L4802.4 350.459C4800.51 358.036 4799.19 363.783 4798.95 369.603C4798.71 375.44 4799.55 381.319 4801.93 389.187L4803.17 388.813ZM4803.65 350.782L4880.89 63.1302L4879.65 62.7965L4802.4 350.448L4803.65 350.782ZM4880.89 63.1312C4885.62 45.616 4888.45 34.7586 4900.28 10.1664L4899.12 9.60892C4887.25 34.3013 4884.39 45.2429 4879.65 62.7955L4880.89 63.1312ZM4899.7 9.24435H4879.32V10.531H4899.7V9.24435ZM4878.68 9.83532C4876.79 32.9867 4873.01 45.2547 4867.8 63.2584L4869.04 63.6161C4874.25 45.6042 4878.06 33.2298 4879.96 9.94001L4878.68 9.83532ZM4867.8 63.2712L4785.34 371.774L4786.59 372.106L4869.04 63.6034L4867.8 63.2712ZM4786.58 371.77L4703.65 69.4277L4702.41 69.768L4785.34 372.11L4786.58 371.77ZM4703.65 69.4276C4697.02 45.2731 4694.19 34.8992 4692.78 9.85131L4691.49 9.92402C4692.92 35.1085 4695.77 45.5858 4702.41 69.7682L4703.65 69.4276ZM4692.13 9.24435H4575.56V10.531H4692.13V9.24435ZM4574.99 10.1977C4585.39 29.1045 4591.06 42.8007 4598.63 69.7717L4599.87 69.424C4592.28 42.3715 4586.57 28.582 4576.12 9.57764L4574.99 10.1977ZM4598.63 69.7664L4685.35 389.169L4686.59 388.831L4599.87 69.4293L4598.63 69.7664ZM4685.97 389.643H4802.55V388.357H4685.97V389.643ZM5197.05 389V389.643H5197.46L5197.64 389.264L5197.05 389ZM5216.48 345.876L5217.07 346.14L5217.73 344.661L5216.23 345.282L5216.48 345.876ZM5034.98 377.627H5034.34V378.27H5034.98V377.627ZM5034.98 195.653V195.009H5034.34V195.653H5034.98ZM5152.5 200.392L5152.43 201.031L5153.15 201.108V200.392H5152.5ZM5152.5 179.54H5153.15V178.824L5152.43 178.901L5152.5 179.54ZM5034.98 184.279H5034.34V184.923H5034.98V184.279ZM5034.98 21.261V20.6177H5034.34V21.261H5034.98ZM5176.67 54.4334L5176.29 54.9503L5176.82 55.3459L5177.2 54.7992L5176.67 54.4334ZM5207.48 9.88766L5208 10.2536L5208.7 9.24435H5207.48V9.88766ZM4931.2 9.88766V9.24435H4930.47L4930.56 9.96746L4931.2 9.88766ZM4931.2 389L4930.56 388.92L4930.47 389.643H4931.2V389ZM5197.64 389.264L5217.07 346.14L5215.89 345.612L5196.46 388.736L5197.64 389.264ZM5216.23 345.282C5181.89 359.492 5158.24 367.412 5136.8 371.783C5115.36 376.154 5096.1 376.983 5070.52 376.983V378.27C5096.12 378.27 5115.49 377.441 5137.05 373.044C5158.61 368.649 5182.35 360.693 5216.72 346.47L5216.23 345.282ZM5070.52 376.983H5034.98V378.27H5070.52V376.983ZM5035.62 377.627V195.653H5034.34V377.627H5035.62ZM5034.98 196.296H5057.73V195.009H5034.98V196.296ZM5057.73 196.296C5082.83 196.296 5108.4 196.296 5152.43 201.031L5152.57 199.752C5108.47 195.009 5082.85 195.009 5057.73 195.009V196.296ZM5153.15 200.392V179.54H5151.86V200.392H5153.15ZM5152.43 178.901C5108.4 183.636 5082.83 183.636 5057.73 183.636V184.923C5082.85 184.923 5108.47 184.923 5152.57 180.18L5152.43 178.901ZM5057.73 183.636H5034.98V184.923H5057.73V183.636ZM5035.62 184.279V21.261H5034.34V184.279H5035.62ZM5034.98 21.9044H5074.31V20.6177H5034.98V21.9044ZM5074.31 21.9044C5103.6 21.9044 5138.05 26.6232 5176.29 54.9503L5177.05 53.9164C5138.53 25.3767 5103.78 20.6177 5074.31 20.6177V21.9044ZM5177.2 54.7992L5208 10.2536L5206.95 9.52177L5176.14 54.0675L5177.2 54.7992ZM5207.48 9.24435H4931.2V10.531H5207.48V9.24435ZM4930.56 9.96746C4934.82 44.0615 4936.71 66.7816 4936.71 115.565H4938C4938 66.7274 4936.1 43.954 4931.83 9.80787L4930.56 9.96746ZM4936.71 115.565V283.322H4938V115.565H4936.71ZM4936.71 283.322C4936.71 332.106 4934.82 354.826 4930.56 388.92L4931.83 389.08C4936.1 354.934 4938 332.16 4938 283.322H4936.71ZM4931.2 389.643H5197.05V388.357H4931.2V389.643Z" fill="#E4DED5" mask="url(#path-1-outside-1_837_1355)"/>
</svg>
