<svg width="649" height="1063" viewBox="0 0 649 1063" fill="none" xmlns="http://www.w3.org/2000/svg">
<g clip-path="url(#clip0_837_1454)">
<path d="M709.151 137.822C609.621 101.147 501.655 125.436 431.006 178.503C340.131 246.785 381.282 309.847 283.52 439.538C173.006 586.031 29.8749 625.917 44.6566 701.365C47.5267 715.976 57.3066 736.75 71.5701 739.211C98.2962 743.797 127.039 681.847 147.954 647.443C187.365 582.585 291.66 459.016 380.684 471.069C458.435 481.598 511.411 594.458 517.198 607.156C543.649 665.154 533.67 698.084 563.602 719.046C611.704 752.734 695.948 708.722 717.735 697.341C738.724 686.369 903.474 600.282 903.643 419.512C903.695 292.513 822.422 179.562 709.151 137.822Z" stroke="#D71A17" stroke-opacity="0.25" stroke-miterlimit="10"/>
</g>
<defs>
<clipPath id="clip0_837_1454">
<rect width="890.95" height="589.999" fill="white" transform="translate(1024.37 377.586) rotate(129.773)"/>
</clipPath>
</defs>
</svg>
