<svg width="100%" height="auto" viewBox="0 0 1915 477" fill="none" xmlns="http://www.w3.org/2000/svg">
<mask id="path-1-outside-1_925_1845" maskUnits="userSpaceOnUse" x="-1328" y="-1" width="6033" height="479" fill="black">
<rect fill="white" x="-1328" y="-1" width="6033" height="479"/>
<path d="M-1305.61 395C-1309.94 360.319 -1311.39 337.199 -1311.39 287.586V33.743L-1308.02 34.2247L-1120.64 395H-1000.22C-1004.56 360.319 -1006 337.199 -1006 287.586V117.073C-1006 67.4604 -1004.56 44.3399 -1000.22 9.65927H-1021.9C-1018.05 44.3399 -1016.12 67.4604 -1016.12 117.073V370.916L-1019.49 370.435L-1206.86 9.65927H-1327.28C-1322.95 44.3399 -1321.5 67.4604 -1321.5 117.073V287.586C-1321.5 337.199 -1322.95 360.319 -1327.28 395H-1305.61ZM-852.67 364.654L-892.649 324.675L-932.628 364.654L-892.649 404.634L-852.67 364.654ZM-591.282 404.634L-445.816 32.7797V287.586C-445.816 337.199 -447.742 360.319 -451.596 395H-340.81C-344.664 360.319 -346.591 337.199 -346.591 287.586V117.073C-346.591 67.4604 -344.664 44.3399 -340.81 9.65927H-448.706L-553.711 271.691L-667.387 9.65927H-785.397C-781.062 44.3399 -779.617 67.4604 -779.617 117.073V287.586C-779.617 337.199 -781.062 360.319 -785.397 395H-761.795C-766.13 360.319 -768.057 337.199 -768.057 287.586V34.2247L-609.586 404.634H-591.282ZM-61.7205 404.634C71.222 404.634 172.856 331.419 172.856 202.33C172.856 73.7221 71.222 0.025734 -61.7205 0.025734C-195.626 0.025734 -296.778 73.7221 -296.778 202.33C-296.778 331.419 -195.626 404.634 -61.7205 404.634ZM-61.7205 393.073C-150.831 393.073 -189.846 303.963 -189.846 202.33C-189.846 101.178 -150.831 11.586 -61.7205 11.586C26.4261 11.586 65.9236 101.178 65.9236 202.33C65.9236 303.963 26.4261 393.073 -61.7205 393.073ZM514.706 306.372C489.659 248.089 448.235 224.005 397.659 215.335C473.282 209.073 532.528 185.953 532.528 113.22C532.528 26.0362 446.79 9.65927 350.455 9.65927H215.585C219.921 44.3399 221.366 67.4604 221.366 117.073V287.586C221.366 337.199 219.921 360.319 215.585 395H326.853C322.518 360.319 321.073 337.199 321.073 287.586V216.78H327.816C371.648 216.78 385.617 229.785 411.146 309.743C436.193 387.293 501.219 395 600.926 395V384.885C558.539 384.885 538.308 362.246 514.706 306.372ZM321.073 21.2195H349.01C394.769 21.2195 432.34 40.4865 432.34 113.22C432.34 185.953 394.769 205.22 349.01 205.22H321.073V21.2195ZM904.45 395L924.198 351.167C854.355 380.068 827.863 383.44 775.842 383.44H739.717V198.476H762.837C788.366 198.476 814.376 198.476 859.172 203.293V182.099C814.376 186.916 788.366 186.916 762.837 186.916H739.717V21.2195H779.696C809.56 21.2195 844.722 26.0362 883.738 54.9368L915.047 9.65927H634.23C638.565 44.3399 640.491 67.4604 640.491 117.073V287.586C640.491 337.199 638.565 360.319 634.23 395H904.45ZM983.765 395C979.429 360.319 977.984 337.199 977.984 287.586V33.743L981.356 34.2247L1168.73 395H1289.15C1284.81 360.319 1283.37 337.199 1283.37 287.586V117.073C1283.37 67.4604 1284.81 44.3399 1289.15 9.65927H1267.47C1271.33 44.3399 1273.25 67.4604 1273.25 117.073V370.916L1269.88 370.435L1082.51 9.65927H962.089C966.424 44.3399 967.869 67.4604 967.869 117.073V287.586C967.869 337.199 966.424 360.319 962.089 395H983.765ZM1568.17 404.634C1701.11 404.634 1802.75 331.419 1802.75 202.33C1802.75 73.7221 1701.11 0.025734 1568.17 0.025734C1434.26 0.025734 1333.11 73.7221 1333.11 202.33C1333.11 331.419 1434.26 404.634 1568.17 404.634ZM1568.17 393.073C1479.06 393.073 1440.04 303.963 1440.04 202.33C1440.04 101.178 1479.06 11.586 1568.17 11.586C1656.32 11.586 1695.81 101.178 1695.81 202.33C1695.81 303.963 1656.32 393.073 1568.17 393.073ZM1883.54 476.403C1930.74 346.832 2015.03 140.675 2071.87 14.9577L2053.57 8.21423C2006.36 137.785 1922.07 343.942 1865.23 469.66L1883.54 476.403ZM2250.73 395C2246.4 360.319 2244.95 337.199 2244.95 287.586V216.78H2274.34C2370.67 216.78 2456.41 200.403 2456.41 113.22C2456.41 26.0362 2370.67 9.65927 2274.34 9.65927H2139.47C2143.8 44.3399 2145.25 67.4604 2145.25 117.073V287.586C2145.25 337.199 2143.8 360.319 2139.47 395H2250.73ZM2244.95 21.2195H2272.89C2318.65 21.2195 2356.22 40.4865 2356.22 113.22C2356.22 185.953 2318.65 205.22 2272.89 205.22H2244.95V21.2195ZM2769.53 395L2789.28 351.167C2719.44 380.068 2692.95 383.44 2640.93 383.44H2604.8V198.476H2627.92C2653.45 198.476 2679.46 198.476 2724.26 203.293V182.099C2679.46 186.916 2653.45 186.916 2627.92 186.916H2604.8V21.2195H2644.78C2674.64 21.2195 2709.8 26.0362 2748.82 54.9368L2780.13 9.65927H2499.31C2503.65 44.3399 2505.57 67.4604 2505.57 117.073V287.586C2505.57 337.199 2503.65 360.319 2499.31 395H2769.53ZM2973.12 395C3107.99 395 3190.84 329.01 3190.84 202.33C3190.84 70.3504 3105.58 9.65927 2973.12 9.65927H2827.17C2831.51 44.3399 2832.95 67.4604 2832.95 117.073V287.586C2832.95 337.199 2831.51 360.319 2827.17 395H2973.12ZM2932.66 21.2195H2969.75C3038.63 21.2195 3083.91 77.0939 3083.91 202.33C3083.91 322.749 3038.63 383.44 2969.75 383.44H2932.66V21.2195ZM3532.71 306.372C3507.66 248.089 3466.24 224.005 3415.66 215.335C3491.28 209.073 3550.53 185.953 3550.53 113.22C3550.53 26.0362 3464.79 9.65927 3368.46 9.65927H3233.59C3237.92 44.3399 3239.37 67.4604 3239.37 117.073V287.586C3239.37 337.199 3237.92 360.319 3233.59 395H3344.85C3340.52 360.319 3339.07 337.199 3339.07 287.586V216.78H3345.82C3389.65 216.78 3403.62 229.785 3429.15 309.743C3454.19 387.293 3519.22 395 3618.93 395V384.885C3576.54 384.885 3556.31 362.246 3532.71 306.372ZM3339.07 21.2195H3367.01C3412.77 21.2195 3450.34 40.4865 3450.34 113.22C3450.34 185.953 3412.77 205.22 3367.01 205.22H3339.07V21.2195ZM3863.13 9.65927H3744.63C3749.45 25.5546 3748 33.2614 3744.15 48.675L3665.64 341.052C3660.82 358.874 3657.93 369.953 3645.89 395H3667.08C3668.53 371.398 3672.86 358.874 3677.68 340.571L3699.36 258.686H3825.07L3845.78 334.309C3852.53 358.874 3855.42 369.471 3856.86 395H3975.36C3964.76 375.733 3958.98 361.764 3951.75 334.309L3863.13 9.65927ZM3761.49 26.9996L3821.7 247.125H3702.73L3761.49 26.9996ZM4326.95 395L4347.18 351.167C4277.33 380.068 4245.54 383.44 4202.19 383.44H4121.75L4334.65 29.408V9.65927H4015.3L4047.09 53.4918C4085.63 24.5912 4120.79 21.2195 4150.65 21.2195H4220.98L4008.56 375.251V395H4326.95ZM4591.28 9.65927H4472.79C4477.61 25.5546 4476.16 33.2614 4472.31 48.675L4393.8 341.052C4388.98 358.874 4386.09 369.953 4374.05 395H4395.24C4396.69 371.398 4401.02 358.874 4405.84 340.571L4427.51 258.686H4553.23L4573.94 334.309C4580.69 358.874 4583.58 369.471 4585.02 395H4703.51C4692.92 375.733 4687.14 361.764 4679.91 334.309L4591.28 9.65927ZM4489.65 26.9996L4549.86 247.125H4430.89L4489.65 26.9996Z"/>
</mask>
<path d="M-1305.61 395V395.5H-1305.04L-1305.11 394.938L-1305.61 395ZM-1311.39 33.743L-1311.32 33.2481L-1311.89 33.1665V33.743H-1311.39ZM-1308.02 34.2247L-1307.57 33.9943L-1307.69 33.7661L-1307.94 33.7298L-1308.02 34.2247ZM-1120.64 395L-1121.09 395.23L-1120.95 395.5H-1120.64V395ZM-1000.22 395V395.5H-999.658L-999.729 394.938L-1000.22 395ZM-1000.22 9.65927L-999.729 9.72129L-999.658 9.15927H-1000.22V9.65927ZM-1021.9 9.65927V9.15927H-1022.46L-1022.4 9.71449L-1021.9 9.65927ZM-1016.12 370.916L-1016.19 371.411L-1015.62 371.493V370.916H-1016.12ZM-1019.49 370.435L-1019.94 370.665L-1019.82 370.893L-1019.56 370.93L-1019.49 370.435ZM-1206.86 9.65927L-1206.42 9.42882L-1206.56 9.15927H-1206.86V9.65927ZM-1327.28 9.65927V9.15927H-1327.85L-1327.78 9.72129L-1327.28 9.65927ZM-1327.28 395L-1327.78 394.938L-1327.85 395.5H-1327.28V395ZM-1305.11 394.938C-1309.44 360.282 -1310.89 337.183 -1310.89 287.586H-1311.89C-1311.89 337.215 -1310.44 360.356 -1306.1 395.062L-1305.11 394.938ZM-1310.89 287.586V33.743H-1311.89V287.586H-1310.89ZM-1311.46 34.238L-1308.09 34.7197L-1307.94 33.7298L-1311.32 33.2481L-1311.46 34.238ZM-1308.46 34.4552L-1121.09 395.23L-1120.2 394.77L-1307.57 33.9943L-1308.46 34.4552ZM-1120.64 395.5H-1000.22V394.5H-1120.64V395.5ZM-999.729 394.938C-1004.06 360.282 -1005.5 337.183 -1005.5 287.586H-1006.5C-1006.5 337.215 -1005.06 360.356 -1000.72 395.062L-999.729 394.938ZM-1005.5 287.586V117.073H-1006.5V287.586H-1005.5ZM-1005.5 117.073C-1005.5 67.4763 -1004.06 44.3771 -999.729 9.72129L-1000.72 9.59726C-1005.06 44.3028 -1006.5 67.4445 -1006.5 117.073H-1005.5ZM-1000.22 9.15927H-1021.9V10.1593H-1000.22V9.15927ZM-1022.4 9.71449C-1018.55 44.3793 -1016.62 67.4812 -1016.62 117.073H-1015.62C-1015.62 67.4396 -1017.55 44.3005 -1021.4 9.60406L-1022.4 9.71449ZM-1016.62 117.073V370.916H-1015.62V117.073H-1016.62ZM-1016.05 370.421L-1019.42 369.94L-1019.56 370.93L-1016.19 371.411L-1016.05 370.421ZM-1019.05 370.204L-1206.42 9.42882L-1207.31 9.88972L-1019.94 370.665L-1019.05 370.204ZM-1206.86 9.15927H-1327.28V10.1593H-1206.86V9.15927ZM-1327.78 9.72129C-1323.45 44.3771 -1322 67.4763 -1322 117.073H-1321C-1321 67.4445 -1322.45 44.3028 -1326.79 9.59726L-1327.78 9.72129ZM-1322 117.073V287.586H-1321V117.073H-1322ZM-1322 287.586C-1322 337.183 -1323.45 360.282 -1327.78 394.938L-1326.79 395.062C-1322.45 360.356 -1321 337.215 -1321 287.586H-1322ZM-1327.28 395.5H-1305.61V394.5H-1327.28V395.5ZM-852.67 364.654L-852.317 365.008L-851.963 364.654L-852.317 364.301L-852.67 364.654ZM-892.649 324.675L-892.296 324.322L-892.649 323.968L-893.003 324.322L-892.649 324.675ZM-932.628 364.654L-932.982 364.301L-933.335 364.654L-932.982 365.008L-932.628 364.654ZM-892.649 404.634L-893.003 404.987L-892.649 405.341L-892.296 404.987L-892.649 404.634ZM-852.317 364.301L-892.296 324.322L-893.003 325.029L-853.024 365.008L-852.317 364.301ZM-893.003 324.322L-932.982 364.301L-932.275 365.008L-892.296 325.029L-893.003 324.322ZM-932.982 365.008L-893.003 404.987L-892.296 404.28L-932.275 364.301L-932.982 365.008ZM-892.296 404.987L-852.317 365.008L-853.024 364.301L-893.003 404.28L-892.296 404.987ZM-591.282 404.634V405.134H-590.941L-590.816 404.816L-591.282 404.634ZM-445.816 32.7797H-445.316L-446.281 32.5975L-445.816 32.7797ZM-451.596 395L-452.093 394.945L-452.155 395.5H-451.596V395ZM-340.81 395V395.5H-340.252L-340.313 394.945L-340.81 395ZM-340.81 9.65927L-340.313 9.71449L-340.252 9.15927H-340.81V9.65927ZM-448.706 9.65927V9.15927H-449.044L-449.17 9.47328L-448.706 9.65927ZM-553.711 271.691L-554.17 271.89L-553.693 272.989L-553.247 271.877L-553.711 271.691ZM-667.387 9.65927L-666.928 9.46028L-667.059 9.15927H-667.387V9.65927ZM-785.397 9.65927V9.15927H-785.964L-785.893 9.72129L-785.397 9.65927ZM-785.397 395L-785.893 394.938L-785.964 395.5H-785.397V395ZM-761.795 395V395.5H-761.229L-761.299 394.938L-761.795 395ZM-768.057 34.2247L-767.597 34.0281L-768.557 34.2247H-768.057ZM-609.586 404.634L-610.045 404.83L-609.916 405.134H-609.586V404.634ZM-590.816 404.816L-445.35 32.9619L-446.281 32.5975L-591.748 404.451L-590.816 404.816ZM-446.316 32.7797V287.586H-445.316V32.7797H-446.316ZM-446.316 287.586C-446.316 337.178 -448.241 360.28 -452.093 394.945L-451.099 395.055C-447.244 360.359 -445.316 337.22 -445.316 287.586H-446.316ZM-451.596 395.5H-340.81V394.5H-451.596V395.5ZM-340.313 394.945C-344.165 360.28 -346.091 337.178 -346.091 287.586H-347.091C-347.091 337.22 -345.163 360.359 -341.307 395.055L-340.313 394.945ZM-346.091 287.586V117.073H-347.091V287.586H-346.091ZM-346.091 117.073C-346.091 67.4812 -344.165 44.3793 -340.313 9.71449L-341.307 9.60406C-345.163 44.3005 -347.091 67.4396 -347.091 117.073H-346.091ZM-340.81 9.15927H-448.706V10.1593H-340.81V9.15927ZM-449.17 9.47328L-554.175 271.505L-553.247 271.877L-448.242 9.84526L-449.17 9.47328ZM-553.253 271.492L-666.928 9.46028L-667.845 9.85826L-554.17 271.89L-553.253 271.492ZM-667.387 9.15927H-785.397V10.1593H-667.387V9.15927ZM-785.893 9.72129C-781.561 44.3771 -780.117 67.4763 -780.117 117.073H-779.117C-779.117 67.4445 -780.563 44.3028 -784.901 9.59726L-785.893 9.72129ZM-780.117 117.073V287.586H-779.117V117.073H-780.117ZM-780.117 287.586C-780.117 337.183 -781.561 360.282 -785.893 394.938L-784.901 395.062C-780.563 360.356 -779.117 337.215 -779.117 287.586H-780.117ZM-785.397 395.5H-761.795V394.5H-785.397V395.5ZM-761.299 394.938C-765.632 360.278 -767.557 337.178 -767.557 287.586H-768.557C-768.557 337.22 -766.629 360.361 -762.291 395.062L-761.299 394.938ZM-767.557 287.586V34.2247H-768.557V287.586H-767.557ZM-768.517 34.4214L-610.045 404.83L-609.126 404.437L-767.597 34.0281L-768.517 34.4214ZM-609.586 405.134H-591.282V404.134H-609.586V405.134ZM-61.7206 405.134C4.83765 405.134 63.6024 386.806 105.738 352.277C147.884 317.738 173.356 267.018 173.356 202.33H172.356C172.356 266.73 147.01 317.162 105.104 351.503C63.1871 385.854 4.66382 404.134 -61.7206 404.134V405.134ZM173.356 202.33C173.356 137.881 147.884 87.1617 105.738 52.5634C63.6031 17.974 4.83838 -0.474266 -61.7206 -0.474266V0.525734C4.66309 0.525734 63.1864 18.9257 105.104 53.3363C147.01 87.7381 172.356 138.17 172.356 202.33H173.356ZM-61.7206 -0.474266C-128.76 -0.474266 -187.646 17.9736 -229.781 52.5634C-271.928 87.1621 -297.278 137.882 -297.278 202.33H-296.278C-296.278 138.17 -271.053 87.7377 -229.147 53.3363C-187.23 18.9261 -128.587 0.525734 -61.7206 0.525734V-0.474266ZM-297.278 202.33C-297.278 267.017 -271.928 317.738 -229.781 352.277C-187.645 386.806 -128.76 405.134 -61.7206 405.134V404.134C-128.587 404.134 -187.231 385.853 -229.147 351.503C-271.053 317.162 -296.278 266.731 -296.278 202.33H-297.278ZM-61.7206 392.573C-106.074 392.573 -137.954 370.412 -158.771 335.558C-179.601 300.68 -189.346 253.094 -189.346 202.33H-190.346C-190.346 253.199 -180.584 300.984 -159.629 336.07C-138.66 371.18 -106.477 393.573 -61.7206 393.573V392.573ZM-189.346 202.33C-189.346 151.807 -179.601 104.22 -158.77 69.2819C-137.953 34.3669 -106.073 12.0859 -61.7206 12.0859V11.0859C-106.478 11.0859 -138.661 33.6009 -159.629 68.7698C-180.584 103.916 -190.346 151.701 -190.346 202.33H-189.346ZM-61.7206 12.0859C-17.8517 12.0859 13.9089 34.3651 34.7271 69.2819C55.5581 104.22 65.4236 151.808 65.4236 202.33H66.4236C66.4236 151.7 56.5403 103.915 35.5859 68.7698C14.6187 33.6027 -17.4426 11.0859 -61.7206 11.0859V12.0859ZM65.4236 202.33C65.4236 253.093 55.558 300.68 34.7273 335.558C13.9098 370.413 -17.8507 392.573 -61.7206 392.573V393.573C-17.4437 393.573 14.6179 371.178 35.5858 336.07C56.5404 300.985 66.4236 253.2 66.4236 202.33H65.4236ZM514.706 306.372L515.167 306.177L515.166 306.174L514.706 306.372ZM397.659 215.335L397.618 214.837L397.574 215.828L397.659 215.335ZM215.585 9.65927V9.15927H215.019L215.089 9.72129L215.585 9.65927ZM215.585 395L215.089 394.938L215.019 395.5H215.585V395ZM326.853 395V395.5H327.419L327.349 394.938L326.853 395ZM321.073 216.78V216.28H320.573V216.78H321.073ZM411.146 309.743L410.67 309.895L410.67 309.897L411.146 309.743ZM600.926 395V395.5H601.426V395H600.926ZM600.926 384.885H601.426V384.385H600.926V384.885ZM321.073 21.2195V20.7195H320.573V21.2195H321.073ZM321.073 205.22H320.573V205.72H321.073V205.22ZM515.166 306.174C502.611 276.96 485.94 256.293 466.05 241.844C446.163 227.397 423.085 219.186 397.743 214.842L397.574 215.828C422.809 220.154 445.731 228.32 465.462 242.653C485.19 256.984 501.754 277.5 514.247 306.569L515.166 306.174ZM397.7 215.833C435.535 212.7 469.353 205.347 493.723 189.624C518.133 173.876 533.028 149.753 533.028 113.22H532.028C532.028 149.42 517.3 173.223 493.181 188.784C469.023 204.37 435.406 211.708 397.618 214.837L397.7 215.833ZM533.028 113.22C533.028 91.3381 527.647 73.8647 518.038 59.9734C508.43 46.0851 494.621 35.8129 477.822 28.2893C444.241 13.2508 398.631 9.15927 350.455 9.15927V10.1593C398.614 10.1593 444.04 14.2562 477.413 29.202C494.09 36.6706 507.736 46.8396 517.215 60.5423C526.692 74.2419 532.028 91.5094 532.028 113.22H533.028ZM350.455 9.15927H215.585V10.1593H350.455V9.15927ZM215.089 9.72129C219.421 44.3771 220.866 67.4763 220.866 117.073H221.866C221.866 67.4445 220.42 44.3028 216.082 9.59726L215.089 9.72129ZM220.866 117.073V287.586H221.866V117.073H220.866ZM220.866 287.586C220.866 337.183 219.421 360.282 215.089 394.938L216.082 395.062C220.42 360.356 221.866 337.215 221.866 287.586H220.866ZM215.585 395.5H326.853V394.5H215.585V395.5ZM327.349 394.938C323.017 360.282 321.573 337.183 321.573 287.586H320.573C320.573 337.215 322.018 360.356 326.356 395.062L327.349 394.938ZM321.573 287.586V216.78H320.573V287.586H321.573ZM321.073 217.28H327.816V216.28H321.073V217.28ZM327.816 217.28C349.682 217.28 363.956 220.524 375.977 233.615C388.053 246.768 397.9 269.901 410.67 309.895L411.622 309.591C398.863 269.627 388.961 246.279 376.713 232.939C364.409 219.538 349.782 216.28 327.816 216.28V217.28ZM410.67 309.897C423.241 348.818 445.871 370.249 477.867 381.923C509.813 393.578 551.082 395.5 600.926 395.5V394.5C551.064 394.5 509.966 392.569 478.21 380.983C446.505 369.416 424.098 348.219 411.622 309.59L410.67 309.897ZM601.426 395V384.885H600.426V395H601.426ZM600.926 384.385C579.838 384.385 564.314 378.76 551.116 366.219C537.889 353.65 526.964 334.105 515.167 306.177L514.246 306.566C526.051 334.513 537.041 354.224 550.427 366.944C563.842 379.69 579.627 385.385 600.926 385.385V384.385ZM321.073 21.7195H349.01V20.7195H321.073V21.7195ZM349.01 21.7195C371.831 21.7195 392.515 26.5256 407.496 40.3125C422.469 54.0925 431.84 76.9337 431.84 113.22H432.84C432.84 76.7724 423.425 53.6135 408.173 39.5767C392.928 25.5469 371.948 20.7195 349.01 20.7195V21.7195ZM431.84 113.22C431.84 149.505 422.469 172.347 407.496 186.127C392.515 199.914 371.831 204.72 349.01 204.72V205.72C371.948 205.72 392.928 200.892 408.173 186.862C423.425 172.826 432.84 149.667 432.84 113.22H431.84ZM349.01 204.72H321.073V205.72H349.01V204.72ZM321.573 205.22V21.2195H320.573V205.22H321.573ZM904.45 395V395.5H904.773L904.906 395.205L904.45 395ZM924.198 351.167L924.654 351.373L925.172 350.223L924.007 350.705L924.198 351.167ZM739.717 383.44H739.217V383.94H739.717V383.44ZM739.717 198.476V197.976H739.217V198.476H739.717ZM859.172 203.293L859.119 203.79L859.672 203.85V203.293H859.172ZM859.172 182.099H859.672V181.543L859.119 181.602L859.172 182.099ZM739.717 186.916H739.217V187.416H739.717V186.916ZM739.717 21.2195V20.7195H739.217V21.2195H739.717ZM883.738 54.9368L883.44 55.3386L883.855 55.646L884.149 55.2212L883.738 54.9368ZM915.047 9.65927L915.458 9.94365L916 9.15927H915.047V9.65927ZM634.229 9.65927V9.15927H633.663L633.733 9.72129L634.229 9.65927ZM634.229 395L633.733 394.938L633.663 395.5H634.229V395ZM904.906 395.205L924.654 351.373L923.743 350.962L903.994 394.795L904.906 395.205ZM924.007 350.705C889.097 365.151 865.047 373.205 843.237 377.651C821.431 382.097 801.843 382.94 775.842 382.94V383.94C801.863 383.94 821.531 383.097 843.437 378.631C865.339 374.166 889.457 366.085 924.39 351.629L924.007 350.705ZM775.842 382.94H739.717V383.94H775.842V382.94ZM740.217 383.44V198.476H739.217V383.44H740.217ZM739.717 198.976H762.837V197.976H739.717V198.976ZM762.837 198.976C788.359 198.976 814.349 198.976 859.119 203.79L859.226 202.796C814.404 197.976 788.373 197.976 762.837 197.976V198.976ZM859.672 203.293V182.099H858.672V203.293H859.672ZM859.119 181.602C814.349 186.416 788.359 186.416 762.837 186.416V187.416C788.373 187.416 814.404 187.416 859.226 182.596L859.119 181.602ZM762.837 186.416H739.717V187.416H762.837V186.416ZM740.217 186.916V21.2195H739.217V186.916H740.217ZM739.717 21.7195H779.696V20.7195H739.717V21.7195ZM779.696 21.7195C809.489 21.7195 844.536 26.5207 883.44 55.3386L884.035 54.535C844.908 25.5518 809.63 20.7195 779.696 20.7195V21.7195ZM884.149 55.2212L915.458 9.94365L914.635 9.37489L883.326 54.6524L884.149 55.2212ZM915.047 9.15927H634.229V10.1593H915.047V9.15927ZM633.733 9.72129C638.066 44.3817 639.991 67.4814 639.991 117.073H640.991C640.991 67.4393 639.063 44.2982 634.726 9.59726L633.733 9.72129ZM639.991 117.073V287.586H640.991V117.073H639.991ZM639.991 287.586C639.991 337.178 638.066 360.278 633.733 394.938L634.726 395.062C639.063 360.361 640.991 337.22 640.991 287.586H639.991ZM634.229 395.5H904.45V394.5H634.229V395.5ZM983.765 395V395.5H984.331L984.261 394.938L983.765 395ZM977.984 33.743L978.055 33.2481L977.484 33.1665V33.743H977.984ZM981.356 34.2247L981.8 33.9943L981.681 33.7661L981.427 33.7298L981.356 34.2247ZM1168.73 395L1168.28 395.23L1168.42 395.5H1168.73V395ZM1289.15 395V395.5H1289.71L1289.64 394.938L1289.15 395ZM1289.15 9.65927L1289.64 9.72129L1289.71 9.15927H1289.15V9.65927ZM1267.47 9.65927V9.15927H1266.91L1266.97 9.71449L1267.47 9.65927ZM1273.25 370.916L1273.18 371.411L1273.75 371.493V370.916H1273.25ZM1269.88 370.435L1269.44 370.665L1269.55 370.893L1269.81 370.93L1269.88 370.435ZM1082.51 9.65927L1082.95 9.42882L1082.81 9.15927H1082.51V9.65927ZM962.089 9.65927V9.15927H961.523L961.593 9.72129L962.089 9.65927ZM962.089 395L961.593 394.938L961.523 395.5H962.089V395ZM984.261 394.938C979.929 360.282 978.484 337.183 978.484 287.586H977.484C977.484 337.215 978.93 360.356 983.268 395.062L984.261 394.938ZM978.484 287.586V33.743H977.484V287.586H978.484ZM977.914 34.238L981.285 34.7197L981.427 33.7298L978.055 33.2481L977.914 34.238ZM980.912 34.4552L1168.28 395.23L1169.17 394.77L981.8 33.9943L980.912 34.4552ZM1168.73 395.5H1289.15V394.5H1168.73V395.5ZM1289.64 394.938C1285.31 360.282 1283.87 337.183 1283.87 287.586H1282.87C1282.87 337.215 1284.31 360.356 1288.65 395.062L1289.64 394.938ZM1283.87 287.586V117.073H1282.87V287.586H1283.87ZM1283.87 117.073C1283.87 67.4763 1285.31 44.3771 1289.64 9.72129L1288.65 9.59726C1284.31 44.3028 1282.87 67.4445 1282.87 117.073H1283.87ZM1289.15 9.15927H1267.47V10.1593H1289.15V9.15927ZM1266.97 9.71449C1270.83 44.3793 1272.75 67.4812 1272.75 117.073H1273.75C1273.75 67.4396 1271.82 44.3005 1267.97 9.60406L1266.97 9.71449ZM1272.75 117.073V370.916H1273.75V117.073H1272.75ZM1273.32 370.421L1269.95 369.94L1269.81 370.93L1273.18 371.411L1273.32 370.421ZM1270.32 370.204L1082.95 9.42882L1082.06 9.88972L1269.44 370.665L1270.32 370.204ZM1082.51 9.15927H962.089V10.1593H1082.51V9.15927ZM961.593 9.72129C965.925 44.3771 967.369 67.4763 967.369 117.073H968.369C968.369 67.4445 966.924 44.3028 962.585 9.59726L961.593 9.72129ZM967.369 117.073V287.586H968.369V117.073H967.369ZM967.369 287.586C967.369 337.183 965.925 360.282 961.593 394.938L962.585 395.062C966.924 360.356 968.369 337.215 968.369 287.586H967.369ZM962.089 395.5H983.765V394.5H962.089V395.5ZM1568.17 405.134C1634.73 405.134 1693.49 386.806 1735.63 352.277C1777.77 317.738 1803.25 267.018 1803.25 202.33H1802.25C1802.25 266.73 1776.9 317.162 1734.99 351.503C1693.08 385.854 1634.55 404.134 1568.17 404.134V405.134ZM1803.25 202.33C1803.25 137.881 1777.77 87.1617 1735.63 52.5634C1693.49 17.974 1634.73 -0.474266 1568.17 -0.474266V0.525734C1634.55 0.525734 1693.08 18.9257 1734.99 53.3363C1776.9 87.7381 1802.25 138.17 1802.25 202.33H1803.25ZM1568.17 -0.474266C1501.13 -0.474266 1442.24 17.9736 1400.11 52.5634C1357.96 87.1621 1332.61 137.882 1332.61 202.33H1333.61C1333.61 138.17 1358.84 87.7377 1400.74 53.3363C1442.66 18.9261 1501.3 0.525734 1568.17 0.525734V-0.474266ZM1332.61 202.33C1332.61 267.017 1357.96 317.738 1400.11 352.277C1442.24 386.806 1501.13 405.134 1568.17 405.134V404.134C1501.3 404.134 1442.66 385.853 1400.74 351.503C1358.84 317.162 1333.61 266.731 1333.61 202.33H1332.61ZM1568.17 392.573C1523.82 392.573 1491.94 370.412 1471.12 335.558C1450.29 300.68 1440.54 253.094 1440.54 202.33H1439.54C1439.54 253.199 1449.31 300.984 1470.26 336.07C1491.23 371.18 1523.41 393.573 1568.17 393.573V392.573ZM1440.54 202.33C1440.54 151.807 1450.29 104.22 1471.12 69.2819C1491.94 34.3669 1523.82 12.0859 1568.17 12.0859V11.0859C1523.41 11.0859 1491.23 33.6009 1470.26 68.7698C1449.31 103.916 1439.54 151.701 1439.54 202.33H1440.54ZM1568.17 12.0859C1612.04 12.0859 1643.8 34.3651 1664.62 69.2819C1685.45 104.22 1695.31 151.808 1695.31 202.33H1696.31C1696.31 151.7 1686.43 103.915 1665.48 68.7698C1644.51 33.6027 1612.45 11.0859 1568.17 11.0859V12.0859ZM1695.31 202.33C1695.31 253.093 1685.45 300.68 1664.62 335.558C1643.8 370.413 1612.04 392.573 1568.17 392.573V393.573C1612.45 393.573 1644.51 371.178 1665.48 336.07C1686.43 300.985 1696.31 253.2 1696.31 202.33H1695.31ZM1883.54 476.403L1883.36 476.872L1883.83 477.046L1884 476.574L1883.54 476.403ZM2071.87 14.9577L2072.33 15.1637L2072.55 14.6742L2072.04 14.4885L2071.87 14.9577ZM2053.57 8.21423L2053.74 7.74506L2053.27 7.57158L2053.1 8.04308L2053.57 8.21423ZM1865.23 469.66L1864.78 469.454L1864.55 469.943L1865.06 470.129L1865.23 469.66ZM1884 476.574C1931.2 347.016 2015.49 140.87 2072.33 15.1637L2071.41 14.7517C2014.57 140.48 1930.27 346.649 1883.07 476.232L1884 476.574ZM2072.04 14.4885L2053.74 7.74506L2053.39 8.68341L2071.7 15.4269L2072.04 14.4885ZM2053.1 8.04308C2005.9 137.602 1921.61 343.747 1864.78 469.454L1865.69 469.866C1922.53 344.137 2006.83 137.968 2054.04 8.38539L2053.1 8.04308ZM1865.06 470.129L1883.36 476.872L1883.71 475.934L1865.4 469.191L1865.06 470.129ZM2250.73 395V395.5H2251.3L2251.23 394.938L2250.73 395ZM2244.95 216.78V216.28H2244.45V216.78H2244.95ZM2139.47 9.65927V9.15927H2138.9L2138.97 9.72129L2139.47 9.65927ZM2139.47 395L2138.97 394.938L2138.9 395.5H2139.47V395ZM2244.95 21.2195V20.7195H2244.45V21.2195H2244.95ZM2244.95 205.22H2244.45V205.72H2244.95V205.22ZM2251.23 394.938C2246.9 360.282 2245.45 337.183 2245.45 287.586H2244.45C2244.45 337.215 2245.9 360.356 2250.24 395.062L2251.23 394.938ZM2245.45 287.586V216.78H2244.45V287.586H2245.45ZM2244.95 217.28H2274.34V216.28H2244.95V217.28ZM2274.34 217.28C2322.51 217.28 2368.12 213.188 2401.7 198.15C2418.5 190.626 2432.31 180.354 2441.92 166.466C2451.53 152.574 2456.91 135.101 2456.91 113.22H2455.91C2455.91 134.93 2450.57 152.197 2441.1 165.897C2431.62 179.6 2417.97 189.769 2401.29 197.237C2367.92 212.183 2322.5 216.28 2274.34 216.28V217.28ZM2456.91 113.22C2456.91 91.3381 2451.53 73.8647 2441.92 59.9734C2432.31 46.0851 2418.5 35.8129 2401.7 28.2893C2368.12 13.2508 2322.51 9.15927 2274.34 9.15927V10.1593C2322.5 10.1593 2367.92 14.2562 2401.29 29.202C2417.97 36.6706 2431.62 46.8396 2441.1 60.5423C2450.57 74.2419 2455.91 91.5094 2455.91 113.22H2456.91ZM2274.34 9.15927H2139.47V10.1593H2274.34V9.15927ZM2138.97 9.72129C2143.3 44.3771 2144.75 67.4763 2144.75 117.073H2145.75C2145.75 67.4445 2144.3 44.3028 2139.96 9.59726L2138.97 9.72129ZM2144.75 117.073V287.586H2145.75V117.073H2144.75ZM2144.75 287.586C2144.75 337.183 2143.3 360.282 2138.97 394.938L2139.96 395.062C2144.3 360.356 2145.75 337.215 2145.75 287.586H2144.75ZM2139.47 395.5H2250.73V394.5H2139.47V395.5ZM2244.95 21.7195H2272.89V20.7195H2244.95V21.7195ZM2272.89 21.7195C2295.71 21.7195 2316.4 26.5256 2331.38 40.3125C2346.35 54.0925 2355.72 76.9337 2355.72 113.22H2356.72C2356.72 76.7724 2347.31 53.6135 2332.05 39.5767C2316.81 25.5469 2295.83 20.7195 2272.89 20.7195V21.7195ZM2355.72 113.22C2355.72 149.505 2346.35 172.347 2331.38 186.127C2316.4 199.914 2295.71 204.72 2272.89 204.72V205.72C2295.83 205.72 2316.81 200.892 2332.05 186.862C2347.31 172.826 2356.72 149.667 2356.72 113.22H2355.72ZM2272.89 204.72H2244.95V205.72H2272.89V204.72ZM2245.45 205.22V21.2195H2244.45V205.22H2245.45ZM2769.53 395V395.5H2769.86L2769.99 395.205L2769.53 395ZM2789.28 351.167L2789.74 351.373L2790.26 350.223L2789.09 350.705L2789.28 351.167ZM2604.8 383.44H2604.3V383.94H2604.8V383.44ZM2604.8 198.476V197.976H2604.3V198.476H2604.8ZM2724.26 203.293L2724.2 203.79L2724.76 203.85V203.293H2724.26ZM2724.26 182.099H2724.76V181.543L2724.2 181.602L2724.26 182.099ZM2604.8 186.916H2604.3V187.416H2604.8V186.916ZM2604.8 21.2195V20.7195H2604.3V21.2195H2604.8ZM2748.82 54.9368L2748.52 55.3386L2748.94 55.646L2749.23 55.2212L2748.82 54.9368ZM2780.13 9.65927L2780.54 9.94365L2781.08 9.15927H2780.13V9.65927ZM2499.31 9.65927V9.15927H2498.75L2498.82 9.72129L2499.31 9.65927ZM2499.31 395L2498.82 394.938L2498.75 395.5H2499.31V395ZM2769.99 395.205L2789.74 351.373L2788.83 350.962L2769.08 394.795L2769.99 395.205ZM2789.09 350.705C2754.18 365.151 2730.13 373.205 2708.32 377.651C2686.51 382.097 2666.93 382.94 2640.93 382.94V383.94C2666.95 383.94 2686.61 383.097 2708.52 378.631C2730.42 374.166 2754.54 366.085 2789.47 351.629L2789.09 350.705ZM2640.93 382.94H2604.8V383.94H2640.93V382.94ZM2605.3 383.44V198.476H2604.3V383.44H2605.3ZM2604.8 198.976H2627.92V197.976H2604.8V198.976ZM2627.92 198.976C2653.44 198.976 2679.43 198.976 2724.2 203.79L2724.31 202.796C2679.49 197.976 2653.46 197.976 2627.92 197.976V198.976ZM2724.76 203.293V182.099H2723.76V203.293H2724.76ZM2724.2 181.602C2679.43 186.416 2653.44 186.416 2627.92 186.416V187.416C2653.46 187.416 2679.49 187.416 2724.31 182.596L2724.2 181.602ZM2627.92 186.416H2604.8V187.416H2627.92V186.416ZM2605.3 186.916V21.2195H2604.3V186.916H2605.3ZM2604.8 21.7195H2644.78V20.7195H2604.8V21.7195ZM2644.78 21.7195C2674.57 21.7195 2709.62 26.5207 2748.52 55.3386L2749.12 54.535C2709.99 25.5518 2674.71 20.7195 2644.78 20.7195V21.7195ZM2749.23 55.2212L2780.54 9.94365L2779.72 9.37489L2748.41 54.6524L2749.23 55.2212ZM2780.13 9.15927H2499.31V10.1593H2780.13V9.15927ZM2498.82 9.72129C2503.15 44.3817 2505.07 67.4814 2505.07 117.073H2506.07C2506.07 67.4393 2504.15 44.2982 2499.81 9.59726L2498.82 9.72129ZM2505.07 117.073V287.586H2506.07V117.073H2505.07ZM2505.07 287.586C2505.07 337.178 2503.15 360.278 2498.82 394.938L2499.81 395.062C2504.15 360.361 2506.07 337.22 2506.07 287.586H2505.07ZM2499.31 395.5H2769.53V394.5H2499.31V395.5ZM2827.17 9.65927V9.15927H2826.61L2826.68 9.72129L2827.17 9.65927ZM2827.17 395L2826.68 394.938L2826.61 395.5H2827.17V395ZM2932.66 21.2195V20.7195H2932.16V21.2195H2932.66ZM2932.66 383.44H2932.16V383.94H2932.66V383.44ZM2973.12 395.5C3040.63 395.5 3095.19 378.985 3132.88 346.549C3170.58 314.103 3191.34 265.785 3191.34 202.33H3190.34C3190.34 265.555 3169.67 313.572 3132.23 345.791C3094.78 378.02 3040.48 394.5 2973.12 394.5V395.5ZM3191.34 202.33C3191.34 136.226 3169.98 87.9036 3131.97 56.1187C3093.98 24.3464 3039.42 9.15927 2973.12 9.15927V10.1593C3039.28 10.1593 3093.58 25.3177 3131.33 56.8858C3169.06 88.4413 3190.34 136.454 3190.34 202.33H3191.34ZM2973.12 9.15927H2827.17V10.1593H2973.12V9.15927ZM2826.68 9.72129C2831.01 44.3771 2832.45 67.4763 2832.45 117.073H2833.45C2833.45 67.4445 2832.01 44.3028 2827.67 9.59726L2826.68 9.72129ZM2832.45 117.073V287.586H2833.45V117.073H2832.45ZM2832.45 287.586C2832.45 337.183 2831.01 360.282 2826.68 394.938L2827.67 395.062C2832.01 360.356 2833.45 337.215 2833.45 287.586H2832.45ZM2827.17 395.5H2973.12V394.5H2827.17V395.5ZM2932.66 21.7195H2969.75V20.7195H2932.66V21.7195ZM2969.75 21.7195C3004.03 21.7195 3032.41 35.613 3052.24 65.0903C3072.09 94.5962 3083.41 139.759 3083.41 202.33H3084.41C3084.41 139.664 3073.08 94.2722 3053.07 64.5321C3033.04 34.7631 3004.34 20.7195 2969.75 20.7195V21.7195ZM3083.41 202.33C3083.41 262.488 3072.09 307.655 3052.24 337.767C3032.4 367.854 3004.02 382.94 2969.75 382.94V383.94C3004.36 383.94 3033.05 368.68 3053.07 338.317C3073.08 307.979 3084.41 262.591 3084.41 202.33H3083.41ZM2969.75 382.94H2932.66V383.94H2969.75V382.94ZM2933.16 383.44V21.2195H2932.16V383.44H2933.16ZM3532.71 306.372L3533.17 306.177L3533.17 306.174L3532.71 306.372ZM3415.66 215.335L3415.62 214.837L3415.58 215.828L3415.66 215.335ZM3233.59 9.65927V9.15927H3233.02L3233.09 9.72129L3233.59 9.65927ZM3233.59 395L3233.09 394.938L3233.02 395.5H3233.59V395ZM3344.85 395V395.5H3345.42L3345.35 394.938L3344.85 395ZM3339.07 216.78V216.28H3338.57V216.78H3339.07ZM3429.15 309.743L3428.67 309.895L3428.67 309.897L3429.15 309.743ZM3618.93 395V395.5H3619.43V395H3618.93ZM3618.93 384.885H3619.43V384.385H3618.93V384.885ZM3339.07 21.2195V20.7195H3338.57V21.2195H3339.07ZM3339.07 205.22H3338.57V205.72H3339.07V205.22ZM3533.17 306.174C3520.61 276.96 3503.94 256.293 3484.05 241.844C3464.16 227.397 3441.08 219.186 3415.74 214.842L3415.58 215.828C3440.81 220.154 3463.73 228.32 3483.46 242.653C3503.19 256.984 3519.75 277.5 3532.25 306.569L3533.17 306.174ZM3415.7 215.833C3453.54 212.7 3487.35 205.347 3511.72 189.624C3536.13 173.876 3551.03 149.753 3551.03 113.22H3550.03C3550.03 149.42 3535.3 173.223 3511.18 188.784C3487.02 204.37 3453.41 211.708 3415.62 214.837L3415.7 215.833ZM3551.03 113.22C3551.03 91.3381 3545.65 73.8647 3536.04 59.9734C3526.43 46.0851 3512.62 35.8129 3495.82 28.2893C3462.24 13.2508 3416.63 9.15927 3368.46 9.15927V10.1593C3416.61 10.1593 3462.04 14.2562 3495.41 29.202C3512.09 36.6706 3525.74 46.8396 3535.22 60.5423C3544.69 74.2419 3550.03 91.5094 3550.03 113.22H3551.03ZM3368.46 9.15927H3233.59V10.1593H3368.46V9.15927ZM3233.09 9.72129C3237.42 44.3771 3238.87 67.4763 3238.87 117.073H3239.87C3239.87 67.4445 3238.42 44.3028 3234.08 9.59726L3233.09 9.72129ZM3238.87 117.073V287.586H3239.87V117.073H3238.87ZM3238.87 287.586C3238.87 337.183 3237.42 360.282 3233.09 394.938L3234.08 395.062C3238.42 360.356 3239.87 337.215 3239.87 287.586H3238.87ZM3233.59 395.5H3344.85V394.5H3233.59V395.5ZM3345.35 394.938C3341.02 360.282 3339.57 337.183 3339.57 287.586H3338.57C3338.57 337.215 3340.02 360.356 3344.36 395.062L3345.35 394.938ZM3339.57 287.586V216.78H3338.57V287.586H3339.57ZM3339.07 217.28H3345.82V216.28H3339.07V217.28ZM3345.82 217.28C3367.68 217.28 3381.96 220.524 3393.98 233.615C3406.05 246.768 3415.9 269.901 3428.67 309.895L3429.62 309.591C3416.86 269.627 3406.96 246.279 3394.71 232.939C3382.41 219.538 3367.78 216.28 3345.82 216.28V217.28ZM3428.67 309.897C3441.24 348.818 3463.87 370.249 3495.87 381.923C3527.81 393.578 3569.08 395.5 3618.93 395.5V394.5C3569.06 394.5 3527.97 392.569 3496.21 380.983C3464.51 369.416 3442.1 348.219 3429.62 309.59L3428.67 309.897ZM3619.43 395V384.885H3618.43V395H3619.43ZM3618.93 384.385C3597.84 384.385 3582.31 378.76 3569.12 366.219C3555.89 353.65 3544.96 334.105 3533.17 306.177L3532.25 306.566C3544.05 334.513 3555.04 354.224 3568.43 366.944C3581.84 379.69 3597.63 385.385 3618.93 385.385V384.385ZM3339.07 21.7195H3367.01V20.7195H3339.07V21.7195ZM3367.01 21.7195C3389.83 21.7195 3410.52 26.5256 3425.5 40.3125C3440.47 54.0925 3449.84 76.9337 3449.84 113.22H3450.84C3450.84 76.7724 3441.43 53.6135 3426.17 39.5767C3410.93 25.5469 3389.95 20.7195 3367.01 20.7195V21.7195ZM3449.84 113.22C3449.84 149.505 3440.47 172.347 3425.5 186.127C3410.52 199.914 3389.83 204.72 3367.01 204.72V205.72C3389.95 205.72 3410.93 200.892 3426.17 186.862C3441.43 172.826 3450.84 149.667 3450.84 113.22H3449.84ZM3367.01 204.72H3339.07V205.72H3367.01V204.72ZM3339.57 205.22V21.2195H3338.57V205.22H3339.57ZM3863.13 9.65927L3863.61 9.52759L3863.51 9.15927H3863.13V9.65927ZM3744.63 9.65927V9.15927H3743.96L3744.15 9.80428L3744.63 9.65927ZM3744.15 48.675L3744.63 48.8047L3744.64 48.7963L3744.15 48.675ZM3665.64 341.052L3666.12 341.183V341.182L3665.64 341.052ZM3645.89 395L3645.44 394.783L3645.09 395.5H3645.89V395ZM3667.08 395V395.5H3667.55L3667.58 395.031L3667.08 395ZM3677.68 340.571L3677.2 340.443V340.443L3677.68 340.571ZM3699.36 258.686V258.186H3698.97L3698.87 258.558L3699.36 258.686ZM3825.07 258.686L3825.56 258.554L3825.45 258.186H3825.07V258.686ZM3845.79 334.309L3845.3 334.441V334.441L3845.79 334.309ZM3856.86 395L3856.36 395.028L3856.39 395.5H3856.86V395ZM3975.36 395V395.5H3976.2L3975.79 394.759L3975.36 395ZM3951.75 334.309L3952.24 334.182L3952.24 334.177L3951.75 334.309ZM3761.49 26.9996L3761.97 26.8677L3761.49 25.083L3761.01 26.8706L3761.49 26.9996ZM3821.7 247.125V247.625H3822.36L3822.18 246.994L3821.7 247.125ZM3702.73 247.125L3702.24 246.997L3702.08 247.625H3702.73V247.125ZM3863.13 9.15927H3744.63V10.1593H3863.13V9.15927ZM3744.15 9.80428C3746.55 17.7142 3747.38 23.5573 3747.14 29.3272C3746.91 35.1095 3745.59 40.8428 3743.67 48.5537L3744.64 48.7963C3746.56 41.0935 3747.9 35.2667 3748.14 29.3684C3748.39 23.4576 3747.53 17.4997 3745.11 9.51427L3744.15 9.80428ZM3743.67 48.5453L3665.16 340.923L3666.12 341.182L3744.63 48.8047L3743.67 48.5453ZM3665.16 340.922C3660.34 358.729 3657.46 369.775 3645.44 394.783L3646.34 395.217C3658.4 370.131 3661.3 359.019 3666.12 341.183L3665.16 340.922ZM3645.89 395.5H3667.08V394.5H3645.89V395.5ZM3667.58 395.031C3669.02 371.489 3673.34 359.021 3678.16 340.698L3677.2 340.443C3672.38 358.728 3668.03 371.307 3666.58 394.969L3667.58 395.031ZM3678.16 340.699L3699.84 258.814L3698.87 258.558L3677.2 340.443L3678.16 340.699ZM3699.36 259.186H3825.07V258.186H3699.36V259.186ZM3824.59 258.818L3845.3 334.441L3846.27 334.177L3825.56 258.554L3824.59 258.818ZM3845.3 334.441C3852.04 358.996 3854.92 369.552 3856.36 395.028L3857.36 394.972C3855.91 369.39 3853.01 358.753 3846.27 334.176L3845.3 334.441ZM3856.86 395.5H3975.36V394.5H3856.86V395.5ZM3975.79 394.759C3965.22 375.531 3959.45 361.601 3952.24 334.182L3951.27 334.436C3958.5 361.928 3964.3 375.935 3974.92 395.241L3975.79 394.759ZM3952.24 334.177L3863.61 9.52759L3862.64 9.79095L3951.27 334.441L3952.24 334.177ZM3761.01 27.1315L3821.22 247.257L3822.18 246.994L3761.97 26.8677L3761.01 27.1315ZM3821.7 246.625H3702.73V247.625H3821.7V246.625ZM3703.21 247.254L3761.97 27.1285L3761.01 26.8706L3702.24 246.997L3703.21 247.254ZM4326.95 395V395.5H4327.27L4327.4 395.21L4326.95 395ZM4347.18 351.167L4347.63 351.377L4348.17 350.217L4346.98 350.705L4347.18 351.167ZM4121.75 383.44L4121.32 383.182L4120.87 383.94H4121.75V383.44ZM4334.65 29.408L4335.08 29.6656L4335.15 29.5467V29.408H4334.65ZM4334.65 9.65927H4335.15V9.15927H4334.65V9.65927ZM4015.3 9.65927V9.15927H4014.32L4014.9 9.95283L4015.3 9.65927ZM4047.09 53.4918L4046.69 53.7853L4046.98 54.1966L4047.39 53.8918L4047.09 53.4918ZM4220.98 21.2195L4221.41 21.4767L4221.86 20.7195H4220.98V21.2195ZM4008.56 375.251L4008.13 374.994L4008.06 375.113V375.251H4008.56ZM4008.56 395H4008.06V395.5H4008.56V395ZM4327.4 395.21L4347.63 351.377L4346.72 350.958L4326.49 394.79L4327.4 395.21ZM4346.98 350.705C4277.2 379.582 4245.47 382.94 4202.19 382.94V383.94C4245.61 383.94 4277.46 380.554 4347.37 351.629L4346.98 350.705ZM4202.19 382.94H4121.75V383.94H4202.19V382.94ZM4122.18 383.697L4335.08 29.6656L4334.22 29.1503L4121.32 383.182L4122.18 383.697ZM4335.15 29.408V9.65927H4334.15V29.408H4335.15ZM4334.65 9.15927H4015.3V10.1593H4334.65V9.15927ZM4014.9 9.95283L4046.69 53.7853L4047.5 53.1982L4015.71 9.36572L4014.9 9.95283ZM4047.39 53.8918C4085.8 25.0826 4120.84 21.7195 4150.65 21.7195V20.7195C4120.73 20.7195 4085.45 24.0998 4046.79 53.0918L4047.39 53.8918ZM4150.65 21.7195H4220.98V20.7195H4150.65V21.7195ZM4220.55 20.9622L4008.13 374.994L4008.99 375.509L4221.41 21.4767L4220.55 20.9622ZM4008.06 375.251V395H4009.06V375.251H4008.06ZM4008.56 395.5H4326.95V394.5H4008.56V395.5ZM4591.28 9.65927L4591.77 9.52759L4591.67 9.15927H4591.28V9.65927ZM4472.79 9.65927V9.15927H4472.12L4472.31 9.80428L4472.79 9.65927ZM4472.31 48.675L4472.79 48.8047L4472.79 48.7963L4472.31 48.675ZM4393.8 341.052L4394.28 341.183V341.182L4393.8 341.052ZM4374.05 395L4373.6 394.783L4373.25 395.5H4374.05V395ZM4395.24 395V395.5H4395.71L4395.74 395.031L4395.24 395ZM4405.84 340.571L4405.35 340.443V340.443L4405.84 340.571ZM4427.51 258.686V258.186H4427.13L4427.03 258.558L4427.51 258.686ZM4553.23 258.686L4553.71 258.554L4553.61 258.186H4553.23V258.686ZM4573.94 334.309L4573.46 334.441V334.441L4573.94 334.309ZM4585.02 395L4584.52 395.028L4584.55 395.5H4585.02V395ZM4703.51 395V395.5H4704.36L4703.95 394.759L4703.51 395ZM4679.91 334.309L4680.4 334.182L4680.39 334.177L4679.91 334.309ZM4489.65 26.9996L4490.13 26.8677L4489.64 25.083L4489.17 26.8706L4489.65 26.9996ZM4549.86 247.125V247.625H4550.51L4550.34 246.994L4549.86 247.125ZM4430.89 247.125L4430.4 246.997L4430.23 247.625H4430.89V247.125ZM4591.28 9.15927H4472.79V10.1593H4591.28V9.15927ZM4472.31 9.80428C4474.71 17.7142 4475.54 23.5573 4475.3 29.3272C4475.06 35.1095 4473.75 40.8428 4471.82 48.5537L4472.79 48.7963C4474.72 41.0935 4476.06 35.2667 4476.3 29.3684C4476.54 23.4576 4475.69 17.4997 4473.27 9.51427L4472.31 9.80428ZM4471.83 48.5453L4393.31 340.923L4394.28 341.182L4472.79 48.8047L4471.83 48.5453ZM4393.31 340.922C4388.5 358.729 4385.62 369.775 4373.6 394.783L4374.5 395.217C4386.56 370.131 4389.46 359.019 4394.28 341.183L4393.31 340.922ZM4374.05 395.5H4395.24V394.5H4374.05V395.5ZM4395.74 395.031C4397.18 371.489 4401.5 359.021 4406.32 340.698L4405.35 340.443C4400.54 358.728 4396.19 371.307 4394.74 394.969L4395.74 395.031ZM4406.32 340.699L4428 258.814L4427.03 258.558L4405.35 340.443L4406.32 340.699ZM4427.51 259.186H4553.23V258.186H4427.51V259.186ZM4552.75 258.818L4573.46 334.441L4574.43 334.177L4553.71 258.554L4552.75 258.818ZM4573.46 334.441C4580.2 358.996 4583.08 369.552 4584.52 395.028L4585.52 394.972C4584.07 369.39 4581.17 358.753 4574.43 334.176L4573.46 334.441ZM4585.02 395.5H4703.51V394.5H4585.02V395.5ZM4703.95 394.759C4693.38 375.531 4687.61 361.601 4680.4 334.182L4679.43 334.436C4686.66 361.928 4692.46 375.935 4703.08 395.241L4703.95 394.759ZM4680.39 334.177L4591.77 9.52759L4590.8 9.79095L4679.43 334.441L4680.39 334.177ZM4489.17 27.1315L4549.38 247.257L4550.34 246.994L4490.13 26.8677L4489.17 27.1315ZM4549.86 246.625H4430.89V247.625H4549.86V246.625ZM4431.37 247.254L4490.13 27.1285L4489.17 26.8706L4430.4 246.997L4431.37 247.254Z" fill="#E4DED5" mask="url(#path-1-outside-1_925_1845)"/>
</svg>
