<svg width="739" height="945" viewBox="0 0 739 945" fill="none" xmlns="http://www.w3.org/2000/svg">
<g clip-path="url(#clip0_216_27)">
<path d="M931.099 209.148C856.613 106.781 637.588 226.763 510.11 95.489C480.105 64.594 454.872 19.4643 397.108 5.24945C390.009 3.49993 326.201 -11.1921 282.197 26.5617C249.945 54.236 245.173 95.6481 239.506 144.953C233.361 198.293 242.866 212.926 240.281 243.522C232.884 330.998 143.047 354.856 76.8526 441.298C19.9439 515.692 -22.9264 640.942 16.0069 747.703C66.3936 885.796 248.533 978.938 340.696 931.482C447.912 876.292 352.627 672.334 482.59 558.436C610.048 446.705 792.009 563.804 898.032 442.55C952.972 379.786 974.129 268.314 931.099 209.148Z" stroke="#D71A17" stroke-opacity="0.25" stroke-miterlimit="10"/>
</g>
<defs>
<clipPath id="clip0_216_27">
<rect width="955" height="945" fill="white"/>
</clipPath>
</defs>
</svg>
