<svg width="1920" height="9484" viewBox="0 0 1920 9484" fill="none" xmlns="http://www.w3.org/2000/svg">
<g clip-path="url(#clip0_200_62)">
<rect width="1920" height="9484" fill="#F8F4EF"/>
<g filter="url(#filter0_f_200_62)">
<ellipse cx="1746.5" cy="9419.2" rx="710.5" ry="646.201" fill="url(#paint0_linear_200_62)" fill-opacity="0.5"/>
</g>
<path d="M2112.1 1022.15C2037.61 919.781 1818.59 1039.76 1691.11 908.489C1661.11 877.594 1635.87 832.464 1578.11 818.249C1571.01 816.5 1507.2 801.808 1463.2 839.562C1430.95 867.236 1426.17 908.648 1420.51 957.953C1414.36 1011.29 1423.87 1025.93 1421.28 1056.52C1413.88 1144 1324.05 1167.86 1257.85 1254.3C1200.94 1328.69 1158.07 1453.94 1197.01 1560.7C1247.39 1698.8 1429.53 1791.94 1521.7 1744.48C1628.91 1689.29 1533.63 1485.33 1663.59 1371.44C1791.05 1259.71 1973.01 1376.8 2079.03 1255.55C2133.97 1192.79 2155.13 1081.31 2112.1 1022.15Z" stroke="#D71A17" stroke-opacity="0.25" stroke-miterlimit="10"/>
<path d="M260.178 255.594C315.868 182.4 327.784 129.033 397.239 98.422C455.567 72.7358 491.236 91.0302 531.826 56.7976C576.116 19.411 592.108 -51.781 579.875 -105.603C552.704 -224.783 382.015 -282.205 266.88 -287.469C113.651 -294.502 5.66233 -211.391 -64.3653 -157.73C-87.085 -140.258 -254.214 -11.7929 -224.506 74.8751C-215.205 101.97 -185.684 127.883 -170.212 122.944C-155.79 118.325 -160.515 89.0627 -135.739 67.0004C-123.43 56.0389 -110.118 52.5164 -98.6035 49.6051C-59.7543 39.7851 38.3527 35.0903 67.2935 88.4595C97.177 143.609 42.8722 241.98 -25.7108 267.483C-98.1006 294.395 -158.322 229.713 -208.884 266.788C-236.801 287.246 -247.427 328.169 -240.567 358.541C-226.533 420.603 -136.274 453.437 -70.9782 456.481C98.0191 463.989 243.493 277.468 260.178 255.594Z" stroke="#D71A17" stroke-opacity="0.25" stroke-width="2" stroke-miterlimit="10"/>
<path d="M428.456 4799.23C579.148 4761.68 686.501 4553.33 634.912 4440.15C572.6 4303.5 315.367 4386.47 208.622 4214.35C140.716 4104.81 201.406 4001.12 127.114 3951.53C48.87 3899.3 -85.7263 3969.39 -148.565 4015.74C-249.675 4090.27 -354.19 4242.77 -310.729 4354.97C-261.573 4482 -57.0841 4468.59 -41.1312 4580.72C-30.6513 4654.17 -112.078 4703.78 -83.1723 4781.26C-69.1856 4818.72 -33.5095 4851.64 -12.7727 4845.16C20.917 4834.62 -17.8807 4730.24 41.6539 4629.01C72.7692 4576.1 132.871 4520.57 169.115 4533.8C221.373 4552.72 170.27 4694.12 251.231 4767.63C315.326 4825.91 418.828 4801.62 428.456 4799.23Z" stroke="#E52421" stroke-opacity="0.25" stroke-miterlimit="10"/>
<g filter="url(#filter1_f_200_62)">
<ellipse cx="92.5002" cy="4571.2" rx="710.5" ry="646.201" fill="url(#paint1_linear_200_62)" fill-opacity="0.5"/>
</g>
<path d="M186.171 9019.1C275.406 8996.83 318.086 8962.65 391.422 8982.21C452.997 8998.66 469.382 9035.24 522.463 9033.93C580.405 9032.46 637.416 8986.92 661.54 8937.28C714.894 8827.3 617.645 8675.73 531.111 8599.6C415.963 8498.26 279.722 8495.55 191.52 8493.61C162.865 8493.03 -47.8879 8488.71 -78.925 8574.91C-88.6179 8601.87 -81.7961 8640.55 -66.6353 8646.38C-52.494 8651.79 -37.8755 8626.01 -4.74432 8624.29C11.7157 8623.44 24.305 8629.02 35.1098 8633.95C71.5624 8650.59 151.041 8708.3 140.235 8768.04C129.051 8829.76 25.1476 8872.54 -44.3133 8849.54C-117.625 8825.25 -124.148 8737.11 -186.787 8734.41C-221.365 8732.91 -255.255 8758.19 -268.902 8786.17C-296.776 8843.37 -246.896 8925.45 -197.857 8968.67C-70.7044 9080.25 159.47 9025.72 186.171 9019.1Z" stroke="#D71A17" stroke-opacity="0.25" stroke-miterlimit="10"/>
<path d="M1701.08 9735.82C1823.79 9704.69 1793.75 9456.77 1962.99 9387.17C2002.82 9370.79 2054.09 9364.12 2088.75 9315.77C2093.01 9309.83 2130.35 9256.05 2111.64 9201.17C2097.93 9160.94 2061.25 9141.13 2017.58 9117.55C1970.34 9092.04 1953.22 9095.43 1925.78 9081.66C1847.31 9042.3 1858.53 8950.03 1802.86 8856.46C1754.92 8775.99 1654.56 8689.66 1540.98 8686.15C1394.05 8681.64 1239.91 8816.15 1249.74 8919.34C1261.15 9039.39 1485.91 9026.68 1543.39 9189.66C1599.78 9349.5 1423.47 9474.94 1496.66 9618.42C1534.53 9692.74 1630.17 9753.79 1701.08 9735.82Z" stroke="#D71A17" stroke-opacity="0.25" stroke-miterlimit="10"/>
</g>
<defs>
<filter id="filter0_f_200_62" x="836" y="8573" width="1821" height="1692.4" filterUnits="userSpaceOnUse" color-interpolation-filters="sRGB">
<feFlood flood-opacity="0" result="BackgroundImageFix"/>
<feBlend mode="normal" in="SourceGraphic" in2="BackgroundImageFix" result="shape"/>
<feGaussianBlur stdDeviation="100" result="effect1_foregroundBlur_200_62"/>
</filter>
<filter id="filter1_f_200_62" x="-818" y="3725" width="1821" height="1692.4" filterUnits="userSpaceOnUse" color-interpolation-filters="sRGB">
<feFlood flood-opacity="0" result="BackgroundImageFix"/>
<feBlend mode="normal" in="SourceGraphic" in2="BackgroundImageFix" result="shape"/>
<feGaussianBlur stdDeviation="100" result="effect1_foregroundBlur_200_62"/>
</filter>
<linearGradient id="paint0_linear_200_62" x1="1746.5" y1="8773" x2="1746.5" y2="10065.4" gradientUnits="userSpaceOnUse">
<stop stop-color="#D61917" stop-opacity="0.1"/>
<stop offset="1" stop-color="#F6F2EB"/>
</linearGradient>
<linearGradient id="paint1_linear_200_62" x1="92.5002" y1="3925" x2="92.5002" y2="5217.4" gradientUnits="userSpaceOnUse">
<stop stop-color="#D61917" stop-opacity="0.1"/>
<stop offset="1" stop-color="#F6F2EB"/>
</linearGradient>
<clipPath id="clip0_200_62">
<rect width="1920" height="9484" fill="white"/>
</clipPath>
</defs>
</svg>
