<svg width="910" height="1693" viewBox="0 0 910 1693" fill="none" xmlns="http://www.w3.org/2000/svg">
<path d="M335.456 1074.23C486.148 1036.68 593.5 828.33 541.912 715.153C479.6 578.497 222.367 661.471 115.622 489.345C47.7158 379.814 108.406 276.118 34.1141 226.528C-44.1302 174.305 -178.727 244.395 -241.565 290.743C-342.675 365.27 -447.19 517.766 -403.73 629.971C-354.574 757.004 -150.084 743.594 -134.131 855.718C-123.652 929.171 -205.078 978.781 -176.173 1056.26C-162.186 1093.72 -126.51 1126.64 -105.773 1120.16C-72.0833 1109.62 -110.881 1005.24 -51.3463 904.011C-20.231 851.099 39.8712 795.574 76.1149 808.802C128.372 827.722 77.2701 969.118 158.231 1042.63C222.326 1100.91 325.828 1076.62 335.456 1074.23Z" stroke="#E52421" stroke-opacity="0.25" stroke-miterlimit="10"/>
<g filter="url(#filter0_f_2775_651)">
<ellipse cx="-0.499996" cy="846.201" rx="710.5" ry="646.201" fill="url(#paint0_linear_2775_651)" fill-opacity="0.5"/>
</g>
<defs>
<filter id="filter0_f_2775_651" x="-911" y="0" width="1821" height="1692.4" filterUnits="userSpaceOnUse" color-interpolation-filters="sRGB">
<feFlood flood-opacity="0" result="BackgroundImageFix"/>
<feBlend mode="normal" in="SourceGraphic" in2="BackgroundImageFix" result="shape"/>
<feGaussianBlur stdDeviation="100" result="effect1_foregroundBlur_2775_651"/>
</filter>
<linearGradient id="paint0_linear_2775_651" x1="-0.5" y1="200" x2="-0.5" y2="1492.4" gradientUnits="userSpaceOnUse">
<stop stop-color="#D61917" stop-opacity="0.05"/>
<stop offset="1" stop-color="#F6F2EB" stop-opacity="0.5"/>
</linearGradient>
</defs>
</svg>
