<svg width="648" height="710" viewBox="0 0 648 710" fill="none" xmlns="http://www.w3.org/2000/svg">
<path d="M21.1585 380.767C10.3272 409.591 -9.73382 465.268 7.80875 532.305C26.5687 604.054 76.9944 645.221 93.4037 657.445C200.583 737.381 381.098 719.854 457.501 634.783C486.866 602.143 491.776 569.532 533.911 550.967C586.005 527.913 621.09 558.808 656.929 532.409C692.447 506.254 704.505 441.713 681.848 410.46C666.476 389.229 645.244 397.361 584.563 363.728C555.508 347.608 540.829 339.213 534.263 323.218C522.15 293.668 541.036 253.53 564.306 229.036C610.709 180.161 659.985 208.849 736.468 157.151C761.957 139.921 796.448 116.647 797.537 80.2946C798.546 47.4388 772.06 9.84816 735.145 2.53687C704.988 -3.43951 680.996 13.3726 678.623 15.1064C654.018 32.9207 654.049 58.0074 642.336 77.9625C616.058 122.623 542.431 121.364 487.382 124.61C457.534 126.381 298.618 135.778 180.525 203.166C153.612 218.525 61.8389 272.632 21.1585 380.767Z" stroke="#D71A17" stroke-opacity="0.25" stroke-miterlimit="10"/>
</svg>
