<svg width="984" height="1693" viewBox="0 0 984 1693" fill="none" xmlns="http://www.w3.org/2000/svg">
<g filter="url(#filter0_f_2091_654)">
<ellipse cx="70.5" cy="846.201" rx="713.5" ry="646.201" fill="url(#paint0_linear_2091_654)" fill-opacity="0.5"/>
</g>
<g clip-path="url(#clip0_2091_654)">
<path d="M403.456 1074.23C554.148 1036.68 661.501 828.33 609.912 715.153C547.6 578.497 290.367 661.471 183.622 489.345C115.716 379.814 176.406 276.118 102.114 226.528C23.87 174.305 -110.726 244.395 -173.565 290.743C-274.675 365.27 -379.19 517.766 -335.729 629.971C-286.573 757.004 -82.0841 743.594 -66.1312 855.718C-55.6513 929.171 -137.078 978.781 -108.172 1056.26C-94.1856 1093.72 -58.5095 1126.64 -37.7727 1120.16C-4.08305 1109.62 -42.8807 1005.24 16.6539 904.011C47.7692 851.099 107.871 795.574 144.115 808.802C196.373 827.722 145.27 969.118 226.231 1042.63C290.326 1100.91 393.828 1076.62 403.456 1074.23Z" stroke="#E52421" stroke-opacity="0.25" stroke-miterlimit="10"/>
</g>
<defs>
<filter id="filter0_f_2091_654" x="-843" y="0" width="1827" height="1692.4" filterUnits="userSpaceOnUse" color-interpolation-filters="sRGB">
<feFlood flood-opacity="0" result="BackgroundImageFix"/>
<feBlend mode="normal" in="SourceGraphic" in2="BackgroundImageFix" result="shape"/>
<feGaussianBlur stdDeviation="100" result="effect1_foregroundBlur_2091_654"/>
</filter>
<linearGradient id="paint0_linear_2091_654" x1="70.5" y1="200" x2="70.5" y2="1492.4" gradientUnits="userSpaceOnUse">
<stop stop-color="#D61917" stop-opacity="0.05"/>
<stop offset="1" stop-color="#F6F2EB" stop-opacity="0.5"/>
</linearGradient>
<clipPath id="clip0_2091_654">
<rect width="915" height="971" fill="white" transform="translate(-347 1122) rotate(-90)"/>
</clipPath>
</defs>
</svg>
