<svg width="458" height="283" viewBox="0 0 458 283" fill="none" xmlns="http://www.w3.org/2000/svg">
<g clip-path="url(#clip0_271_2979)">
<path d="M22.6699 194.29C14.9499 194.54 9.38998 192.76 5.97998 189.08C2.56998 185.4 0.870117 180.63 0.870117 174.79C0.890967 169.355 1.96372 163.976 4.02979 158.95C7.47538 150.495 12.0504 142.546 17.6299 135.32C23.2476 127.836 29.8779 121.169 37.3301 115.51C44.5967 110.023 51.7403 107 58.7603 106.44C66.0803 105.95 69.7603 109.82 69.7603 118.2C69.6129 122.746 68.5086 127.209 66.52 131.3C64.1838 136.375 60.8943 140.955 56.8301 144.79C56.1726 145.76 55.2585 146.528 54.1899 147.01C53.2189 147.458 52.1762 147.733 51.1099 147.82C50.5025 147.879 49.8896 147.811 49.3101 147.62C49.0775 147.563 48.8729 147.425 48.7334 147.231C48.5939 147.036 48.5287 146.798 48.5498 146.56C48.5498 145.56 50.2098 144.01 53.5498 141.76C57.6812 138.956 61.0219 135.137 63.25 130.67C65.8 125.84 67.0801 121.36 67.0801 117.26C67.2333 114.839 66.453 112.452 64.8999 110.59C63.4399 109.01 61.1199 108.31 57.8999 108.48C52.3799 108.9 46.2899 111.79 39.6299 117.08C32.6048 122.736 26.2714 129.2 20.7603 136.34C15.1345 143.406 10.3863 151.13 6.62012 159.34C4.03168 164.556 2.64434 170.287 2.56006 176.11C2.56006 181.25 4.00992 185.18 6.91992 187.85C9.82992 190.52 14.9199 191.99 22.1099 192.1C29.6992 191.748 37.1286 189.795 43.9102 186.37C51.2196 182.847 58.0426 178.393 64.21 173.12C69.7587 168.504 74.6653 163.166 78.7998 157.25C79.3998 156.49 79.8998 156.09 80.2998 156.05C80.5998 156.05 80.7999 156.22 80.8999 156.64C80.8652 157.014 80.7072 157.366 80.4502 157.64C76.2065 163.767 71.2067 169.334 65.5698 174.21C59.3039 179.742 52.3541 184.447 44.8901 188.21C38.02 191.844 30.4333 193.92 22.6699 194.29Z" fill="#3A3A39"/>
<path d="M21.2603 195.141C14.0703 195.141 8.72008 193.29 5.33008 189.63C1.94008 185.97 0 180.821 0 174.791C0.0273846 169.254 1.12083 163.774 3.22021 158.65C6.70094 150.131 11.3123 142.12 16.9302 134.831C22.6035 127.283 29.2893 120.553 36.7998 114.831C44.1698 109.271 51.5399 106.16 58.6899 105.59C62.2899 105.36 65.1199 106.131 67.1099 107.911C69.4299 109.981 70.6001 113.431 70.6001 118.181C70.4491 122.839 69.3247 127.413 67.2998 131.61C64.9268 136.754 61.594 141.397 57.48 145.291C56.7435 146.362 55.7264 147.209 54.54 147.74C53.4705 148.232 52.3231 148.534 51.1499 148.63C50.4131 148.696 49.671 148.607 48.9702 148.371C48.5847 148.247 48.2491 148.002 48.0146 147.672C47.7802 147.342 47.6594 146.945 47.6699 146.541C47.6699 145.621 48.3 144.25 53 141.07C57.0065 138.333 60.2486 134.62 62.4199 130.28C64.8999 125.58 66.1602 121.19 66.1602 117.28C66.2955 115.06 65.5804 112.872 64.1602 111.161C62.8802 109.771 60.8199 109.161 57.8599 109.331C52.5999 109.731 46.6201 112.57 40.1001 117.74C33.1338 123.363 26.848 129.78 21.3701 136.86C15.8029 143.873 11.1022 151.532 7.37012 159.671C4.82788 164.784 3.46121 170.401 3.37012 176.11C3.37012 181.01 4.74996 184.751 7.45996 187.251C10.17 189.751 15.1601 191.161 22.0601 191.251C29.5102 190.894 36.8016 188.972 43.46 185.61C50.6991 182.11 57.4607 177.697 63.5801 172.481C69.0641 167.909 73.9167 162.63 78.0103 156.78C78.8303 155.78 79.4799 155.271 80.1499 155.201C80.5164 155.172 80.8802 155.284 81.1665 155.514C81.4528 155.745 81.64 156.076 81.6899 156.441V156.621C81.6558 157.169 81.4333 157.688 81.0601 158.09C76.7836 164.261 71.7436 169.866 66.0601 174.771C59.7423 180.365 52.7316 185.124 45.2002 188.931C38.2232 192.61 30.5273 194.722 22.6499 195.121L21.2603 195.141ZM7.62012 189.49C10.9301 192.34 15.9901 193.67 22.6201 193.49C30.2395 193.098 37.682 191.05 44.4302 187.49C51.688 183.812 58.4571 179.24 64.5801 173.88C58.3881 179.14 51.5536 183.592 44.2402 187.13C37.3426 190.599 29.7924 192.579 22.0801 192.941C15.6701 192.811 10.8201 191.66 7.62012 189.49ZM59.9399 107.231C59.5799 107.231 59.2098 107.231 58.8198 107.231C52.0298 107.771 44.9701 110.761 37.8701 116.121C30.4832 121.74 23.9077 128.352 18.3301 135.771C12.8052 142.944 8.26494 150.824 4.83008 159.201C2.98738 163.726 1.94865 168.538 1.76025 173.421C2.19246 168.389 3.54845 163.48 5.76025 158.941C9.55727 150.684 14.335 142.914 19.9902 135.8C25.5478 128.617 31.9242 122.106 38.9902 116.4C45.7902 111 52.1 108.04 57.75 107.61C61.25 107.43 63.83 108.231 65.46 110.001C67.1521 112.013 68.0106 114.596 67.8599 117.221C67.8599 121.441 66.5402 126.08 63.9302 131.01C61.624 135.601 58.1815 139.526 53.9302 142.411C49.4802 145.411 49.3501 146.411 49.3501 146.521C49.3501 146.631 49.3498 146.74 49.5498 146.8C50.0105 146.951 50.4981 147.002 50.98 146.951C51.942 146.871 52.883 146.624 53.7603 146.221C54.6792 145.797 55.4639 145.13 56.0298 144.291L56.1401 144.161C60.1269 140.401 63.3582 135.914 65.6602 130.941C67.5895 126.946 68.6654 122.594 68.8198 118.161C68.8198 113.891 67.8199 110.851 65.8799 109.101C64.1984 107.766 62.0828 107.1 59.9399 107.231Z" fill="#3A3A39"/>
<path d="M74.8499 182.47C74.5894 182.498 74.3258 182.453 74.0896 182.339C73.9825 182.262 73.8982 182.157 73.8455 182.036C73.7927 181.914 73.7735 181.781 73.7898 181.649V181.129C73.7898 177.459 74.85 171.2 76.95 162.31C79.05 153.42 81.4396 144.729 84.0896 136.209C86.7396 127.689 89.0896 121.699 91.0896 118.209C91.2469 117.939 91.4639 117.709 91.7239 117.536C91.9839 117.362 92.2799 117.251 92.5896 117.209C93.061 117.146 93.5397 117.252 93.9397 117.509C94.1344 117.634 94.2932 117.808 94.4002 118.014C94.5071 118.219 94.5585 118.448 94.5496 118.68C94.4911 119.153 94.2765 119.593 93.9397 119.93C92.5397 121.49 90.6632 125.603 88.3098 132.27C85.9565 138.936 83.6232 146.29 81.3098 154.33C79.0098 162.37 77.3066 169.233 76.2 174.919C77.7406 171.563 79.5253 168.325 81.5398 165.229C83.5585 162.041 85.9045 159.071 88.5398 156.37C91.0498 153.83 93.5997 152.369 96.2097 152.109H97.2097C97.3088 152.09 97.411 152.09 97.51 152.109C97.6078 152.139 97.712 152.139 97.8098 152.109C97.8098 152.203 97.8597 152.243 97.9597 152.229C98.7457 152.478 99.4452 152.944 99.9763 153.574C100.507 154.204 100.848 154.973 100.96 155.79C101.372 157.786 101.573 159.821 101.56 161.859C101.548 163.272 101.648 164.683 101.86 166.08C101.947 167.078 102.374 168.017 103.07 168.739C103.248 168.906 103.464 169.026 103.699 169.089C103.935 169.152 104.182 169.155 104.42 169.1C107.23 168.75 113.89 163.179 124.42 152.209L124.87 152.009C125.085 151.994 125.299 152.058 125.47 152.189C125.554 152.24 125.626 152.31 125.678 152.393C125.73 152.477 125.761 152.571 125.77 152.669L125.62 153.089C121.397 157.792 116.824 162.168 111.94 166.18C108.53 168.81 105.94 170.18 104.12 170.45C103.728 170.519 103.327 170.509 102.939 170.421C102.551 170.334 102.184 170.17 101.86 169.939C101.382 169.546 100.99 169.059 100.706 168.509C100.423 167.959 100.254 167.357 100.21 166.739C100.004 165.188 99.9037 163.625 99.9099 162.06C99.9248 160.432 99.7973 158.806 99.5295 157.2C99.4931 156.62 99.2828 156.064 98.926 155.606C98.5693 155.147 98.0826 154.807 97.5295 154.629H96.6296C93.8163 154.956 90.7829 157.153 87.5295 161.22C84.3849 165.11 81.5686 169.253 79.1096 173.609C76.763 177.809 75.4862 180.66 75.2795 182.16C75.1809 182.314 75.0274 182.425 74.8499 182.47Z" fill="#3A3A39"/>
<path d="M74.6698 183.301C74.3216 183.306 73.9777 183.224 73.6698 183.061C73.4276 182.919 73.2306 182.711 73.1015 182.461C72.9723 182.212 72.9162 181.931 72.9398 181.651V181.131C72.9398 177.381 73.94 171.131 76.12 162.131C78.22 153.261 80.6299 144.461 83.2699 135.971C85.9099 127.481 88.2697 121.331 90.3397 117.851C90.5755 117.476 90.8916 117.157 91.265 116.918C91.6385 116.68 92.0603 116.527 92.4999 116.471C93.1778 116.393 93.862 116.548 94.4398 116.911C94.7552 117.106 95.0138 117.38 95.1894 117.707C95.3649 118.033 95.4513 118.4 95.4398 118.771C95.3914 119.435 95.1118 120.061 94.6498 120.541C93.7198 121.541 92.0201 124.491 89.1601 132.621C86.8201 139.241 84.4701 146.621 82.1601 154.621C80.6701 159.811 79.4201 164.551 78.4301 168.781C79.1701 167.494 79.9633 166.187 80.81 164.861C82.8636 161.626 85.2428 158.611 87.9101 155.861C90.5501 153.191 93.31 151.671 96.1 151.341H97.2699C97.4594 151.325 97.6501 151.349 97.83 151.411L98.83 151.291V151.731C99.6424 152.081 100.353 152.632 100.895 153.332C101.437 154.031 101.793 154.856 101.93 155.731C102.354 157.783 102.562 159.875 102.55 161.971C102.539 163.34 102.636 164.707 102.84 166.061C102.901 166.872 103.232 167.639 103.78 168.24C103.869 168.313 103.975 168.365 104.088 168.391C104.2 168.417 104.317 168.417 104.43 168.391C105.92 168.201 110.43 165.791 123.9 151.751L124.02 151.631L124.87 151.301C125.31 151.249 125.754 151.367 126.11 151.631C126.303 151.756 126.462 151.926 126.576 152.126C126.689 152.326 126.752 152.551 126.76 152.781L126.71 153.061L126.53 153.541L126.39 153.751C122.134 158.491 117.524 162.9 112.6 166.941C109.04 169.681 106.34 171.131 104.35 171.381C103.846 171.463 103.33 171.446 102.832 171.329C102.335 171.213 101.865 170.999 101.45 170.701C100.879 170.245 100.407 169.677 100.063 169.032C99.7195 168.387 99.5108 167.679 99.4501 166.951C99.2348 165.367 99.1311 163.769 99.14 162.171C99.1552 160.59 99.0344 159.011 98.7797 157.451C98.5397 156.121 97.9299 155.731 97.4599 155.571H96.7401C94.2001 155.901 91.3599 158.001 88.2899 161.831C85.1776 165.688 82.3883 169.795 79.9501 174.111C77.6501 178.211 76.3899 180.991 76.2099 182.381V182.661L75.9999 182.851C75.728 183.107 75.3729 183.256 74.9999 183.271H74.7401L74.6698 183.301ZM74.6698 180.471C74.6698 180.701 74.6698 180.921 74.6698 181.131V181.191C75.6389 178.456 76.8819 175.826 78.3798 173.341C80.8657 168.948 83.7087 164.767 86.8798 160.841C90.3098 156.551 93.4797 154.291 96.5497 153.931H96.62L97.81 153.99C98.3785 154.145 98.898 154.442 99.3197 154.853C99.7415 155.264 100.052 155.776 100.22 156.341C100.22 156.261 100.22 156.181 100.22 156.111C100.139 155.472 99.8877 154.868 99.4916 154.361C99.0955 153.854 98.5698 153.464 97.9701 153.231H97.7899L97.5102 153.051L97.3397 153.001H96.2499C93.9799 153.271 91.5699 154.621 89.2499 157.001C86.662 159.659 84.3565 162.578 82.37 165.711C80.3795 168.777 78.6116 171.981 77.08 175.301L74.6698 180.471ZM92.85 118.111H92.6898C92.5053 118.135 92.3291 118.202 92.1747 118.306C92.0203 118.41 91.8919 118.549 91.7997 118.711C89.8797 122.021 87.5498 128.011 84.9198 136.441C82.2898 144.871 79.9197 153.65 77.7997 162.49C76.4397 168.23 75.5199 172.891 75.0399 176.431L75.35 174.851C76.46 169.141 78.1799 162.191 80.4799 154.191C82.7799 146.191 85.1399 138.721 87.4799 132.081C89.8799 125.251 91.7797 121.131 93.2797 119.471C93.6597 119.011 93.6698 118.791 93.6698 118.761C93.6816 118.668 93.6672 118.574 93.6283 118.49C93.5894 118.405 93.5279 118.332 93.4501 118.281C93.2709 118.167 93.0623 118.108 92.85 118.111ZM101.08 166.481C101.08 166.581 101.08 166.681 101.08 166.781C101.108 167.29 101.241 167.788 101.47 168.244C101.698 168.7 102.019 169.104 102.41 169.431C101.652 168.622 101.184 167.584 101.08 166.481Z" fill="#3A3A39"/>
<path d="M119.66 170.811C117.85 171.051 116.85 169.971 116.66 167.551C116.66 164.331 118.087 160.607 120.94 156.381C123.793 152.154 126.927 149.621 130.34 148.781C131.252 148.663 132.178 148.791 133.024 149.151C133.87 149.512 134.603 150.092 135.15 150.831C135.412 149.989 135.822 149.2 136.36 148.501C136.704 147.965 137.241 147.582 137.86 147.431C138.359 147.35 138.87 147.46 139.29 147.741C139.488 147.842 139.656 147.995 139.776 148.183C139.895 148.372 139.963 148.588 139.97 148.811L139.81 149.361C138.955 151.149 138.204 152.986 137.56 154.861C136.803 156.863 136.396 158.981 136.36 161.121C136.359 161.986 136.46 162.849 136.66 163.691C136.685 163.875 136.75 164.052 136.851 164.209C136.951 164.366 137.084 164.5 137.241 164.601C137.398 164.702 137.574 164.767 137.759 164.793C137.943 164.819 138.132 164.805 138.31 164.751C139.31 164.611 140.77 163.611 142.67 161.751C144.57 159.891 146.73 157.691 149.14 155.141C152.24 151.694 155.397 148.427 158.61 145.341C161.823 142.254 164.63 140.517 167.03 140.131C167.268 140.055 167.521 140.035 167.769 140.074C168.016 140.112 168.251 140.207 168.456 140.351C168.66 140.496 168.828 140.685 168.947 140.906C169.066 141.126 169.132 141.371 169.14 141.621C169.092 142.509 168.889 143.383 168.54 144.201C166.88 148.701 165.213 153.197 163.54 157.691C165.369 153.857 167.506 150.178 169.93 146.691C172.29 143.357 174.473 141.514 176.48 141.161C178.38 140.934 179.33 142.344 179.33 145.391C179.282 148.438 178.828 151.464 177.98 154.391C178.254 153.892 178.555 153.408 178.88 152.941C179.959 151.024 181.137 149.165 182.41 147.371C183.87 145.301 185.41 144.121 187 143.851C187.783 143.766 188.573 143.926 189.26 144.311C189.486 144.549 189.657 144.833 189.76 145.144C189.864 145.455 189.898 145.785 189.86 146.111C189.761 148.07 189.247 149.986 188.35 151.731C187.698 152.925 187.289 154.237 187.15 155.591L187.3 155.701C187.281 155.9 187.335 156.098 187.45 156.261C187.55 156.381 187.8 156.401 188.2 156.331C189.534 156.111 191.867 154.731 195.2 152.191C198.55 149.651 201.69 147.041 204.59 144.351C206.508 142.67 208.318 140.869 210.01 138.961C210.093 138.827 210.202 138.712 210.331 138.622C210.46 138.533 210.606 138.471 210.76 138.441C210.839 138.415 210.923 138.413 211.002 138.434C211.082 138.456 211.154 138.5 211.21 138.561C211.314 138.679 211.367 138.833 211.36 138.991L211.21 139.411C210.165 140.575 209.06 141.683 207.9 142.731C206 144.551 203.72 146.581 201.06 148.821C198.4 151.061 195.733 153.111 193.06 154.971C191.124 156.48 188.898 157.572 186.52 158.181C185.848 158.283 185.161 158.218 184.52 157.991C184.12 157.797 183.92 157.307 183.92 156.521C183.968 155.534 184.199 154.564 184.6 153.661C185.05 152.541 185.53 151.411 186.03 150.281C186.823 148.87 187.332 147.317 187.53 145.711C187.53 145.364 187.48 145.154 187.38 145.081C187.193 144.987 186.989 144.932 186.78 144.921C185.88 145.074 184.703 146.101 183.25 148.001C181.815 149.874 180.509 151.842 179.34 153.891C178.562 155.166 177.893 156.504 177.34 157.891C177.147 158.342 176.836 158.732 176.44 159.021C176.033 159.304 175.569 159.491 175.08 159.571C174.66 159.674 174.22 159.674 173.8 159.571C173.645 159.533 173.508 159.443 173.413 159.315C173.318 159.187 173.271 159.03 173.28 158.871C173.575 157.342 173.977 155.835 174.48 154.361C175.08 152.687 175.633 151.004 176.14 149.311C176.602 147.85 176.854 146.332 176.89 144.801C176.944 144.317 176.838 143.829 176.59 143.411C176.473 143.294 176.327 143.209 176.167 143.167C176.008 143.125 175.839 143.126 175.68 143.171C174.38 143.391 172.804 144.784 170.95 147.351C169.084 149.946 167.374 152.651 165.83 155.451C164.283 158.284 163.207 160.354 162.6 161.661C162.488 161.955 162.275 162.199 162 162.351C161.677 162.539 161.32 162.661 160.95 162.711C160.596 162.785 160.227 162.754 159.89 162.621C159.748 162.567 159.628 162.469 159.546 162.341C159.465 162.213 159.428 162.062 159.44 161.911V161.781C160.04 160.021 160.75 157.991 161.55 155.681C163.24 151.501 164.647 147.21 165.76 142.841C165.76 142.401 165.51 142.231 165.01 142.311C164.104 142.451 162.65 143.471 160.65 145.371C158.65 147.271 156.393 149.501 153.88 152.061C150.773 155.428 147.64 158.571 144.48 161.491C141.32 164.421 138.79 166.011 136.89 166.291C136.323 166.449 135.718 166.393 135.19 166.133C134.663 165.872 134.249 165.427 134.03 164.881C133.536 163.762 133.281 162.553 133.28 161.331C133.277 160.104 133.405 158.881 133.66 157.681C133.869 156.599 134.142 155.53 134.48 154.481C132.178 158.164 129.667 161.713 126.96 165.111C124.2 168.624 121.767 170.524 119.66 170.811ZM119.5 169.811C120.413 169.691 121.693 168.731 123.34 166.931C124.99 165.131 126.7 163.061 128.45 160.721C130.2 158.381 131.74 156.161 133.04 154.051C132.769 153.501 132.337 153.047 131.8 152.75C131.264 152.453 130.65 152.328 130.04 152.391C128.44 152.621 126.73 153.821 124.93 155.991C123.135 158.154 121.573 160.5 120.27 162.991C118.937 165.477 118.27 167.377 118.27 168.691C118.29 169.531 118.707 169.894 119.52 169.781L119.5 169.811Z" fill="#3A3A39"/>
<path d="M119.18 171.671C118.492 171.692 117.818 171.477 117.27 171.061C116.792 170.626 116.412 170.094 116.155 169.501C115.898 168.908 115.77 168.267 115.78 167.621C115.78 164.181 117.27 160.271 120.21 155.921C123.15 151.571 126.51 148.861 130.12 147.981C130.956 147.844 131.812 147.894 132.626 148.128C133.441 148.361 134.193 148.772 134.83 149.331C135.055 148.859 135.33 148.413 135.65 148.001C136.134 147.285 136.875 146.783 137.72 146.601C138.418 146.508 139.126 146.664 139.72 147.041C140.043 147.21 140.313 147.465 140.501 147.777C140.69 148.089 140.79 148.446 140.79 148.811V149.021L140.59 149.721C139.743 151.479 139.002 153.285 138.37 155.131C137.644 157.05 137.252 159.079 137.21 161.131C137.211 161.932 137.306 162.731 137.49 163.511C137.59 163.911 137.68 164.021 138.17 163.941C138.66 163.861 139.73 163.431 142.04 161.181C143.97 159.291 146.14 157.081 148.49 154.591C151.58 151.151 154.78 147.851 157.99 144.771C161.36 141.531 164.27 139.771 166.88 139.321C167.587 139.165 168.327 139.294 168.94 139.681C169.22 139.899 169.454 140.172 169.626 140.483C169.797 140.794 169.904 141.137 169.94 141.491V141.621C169.9 142.612 169.68 143.588 169.29 144.501L168 148.001C168.39 147.411 168.79 146.831 169.19 146.261C171.7 142.681 174.03 140.751 176.3 140.371C176.732 140.296 177.175 140.314 177.6 140.424C178.024 140.535 178.42 140.734 178.76 141.011C179.71 141.811 180.17 143.251 180.17 145.421C180.163 146.83 180.056 148.237 179.85 149.631C180.4 148.781 181 147.871 181.67 146.931C183.25 144.671 184.98 143.361 186.82 143.051H186.96C187.947 142.955 188.938 143.187 189.78 143.711C190.109 144.018 190.362 144.398 190.52 144.819C190.677 145.241 190.736 145.693 190.69 146.141C190.59 148.212 190.055 150.24 189.12 152.091C188.607 153.076 188.236 154.131 188.02 155.221L188.14 155.291V155.521C188.99 155.331 190.79 154.471 194.63 151.521C197.95 149.011 201.09 146.391 203.96 143.731C205.847 142.089 207.624 140.326 209.28 138.451C209.428 138.231 209.618 138.042 209.84 137.896C210.061 137.75 210.309 137.65 210.57 137.601C210.797 137.552 211.034 137.562 211.256 137.63C211.478 137.698 211.679 137.822 211.84 137.991C212.08 138.267 212.209 138.624 212.2 138.991V139.261L211.94 139.891C210.876 141.105 209.737 142.25 208.53 143.321C206.6 145.161 204.29 147.221 201.65 149.451C199.01 151.681 196.28 153.791 193.65 155.641C191.02 157.491 188.65 158.641 186.75 159.001C185.907 159.125 185.047 159.032 184.25 158.731C183.874 158.509 183.572 158.18 183.382 157.787C183.192 157.394 183.121 156.954 183.18 156.521C183.224 155.431 183.472 154.359 183.91 153.361C184.37 152.231 184.85 151.091 185.35 149.961C186.069 148.68 186.553 147.282 186.78 145.831C185.688 146.506 184.76 147.414 184.06 148.491C182.653 150.337 181.37 152.275 180.22 154.291C179.445 155.511 178.775 156.796 178.22 158.131C177.975 158.759 177.55 159.301 177 159.691C176.661 159.94 176.282 160.129 175.88 160.251L175.06 161.801L175.46 160.361H175.28C174.711 160.471 174.124 160.44 173.57 160.271C173.248 160.181 172.965 159.987 172.764 159.719C172.563 159.451 172.456 159.125 172.46 158.791V158.661C172.765 157.092 173.175 155.544 173.69 154.031C174.303 152.337 174.853 150.671 175.34 149.031C175.781 147.645 176.024 146.204 176.06 144.751C176.074 144.471 176.043 144.191 175.97 143.921H175.87C175.14 144.041 173.87 144.801 171.7 147.761C169.85 150.32 168.16 152.992 166.64 155.761C165.1 158.561 164.02 160.631 163.44 161.911C163.257 162.362 162.926 162.736 162.5 162.971C162.079 163.218 161.613 163.381 161.13 163.451C160.609 163.546 160.073 163.494 159.58 163.301C159.281 163.19 159.024 162.989 158.845 162.726C158.665 162.462 158.573 162.15 158.58 161.831V161.441C159.18 159.681 159.883 157.647 160.69 155.341C162.275 151.378 163.611 147.32 164.69 143.191C163.384 143.894 162.199 144.802 161.18 145.881C159.23 147.721 157.02 149.881 154.44 152.551C151.34 155.911 148.16 159.101 145.01 162.011C141.7 165.081 139.06 166.721 136.95 167.011C136.194 167.199 135.396 167.111 134.7 166.76C134.005 166.409 133.458 165.821 133.16 165.101C132.622 163.881 132.343 162.564 132.34 161.231C132.34 160.445 132.39 159.66 132.49 158.881C130.97 161.101 129.32 163.321 127.58 165.511C124.58 169.261 122.01 171.241 119.65 171.511C119.497 171.573 119.34 171.627 119.18 171.671ZM130.45 153.161H130.16C128.79 153.351 127.25 154.461 125.6 156.461C123.838 158.572 122.306 160.865 121.03 163.301C119.8 165.661 119.17 167.451 119.17 168.621C119.156 168.734 119.156 168.848 119.17 168.961H119.34C119.66 168.961 120.6 168.581 122.65 166.351C124.28 164.581 125.98 162.511 127.71 160.211C129.44 157.911 130.77 155.961 131.97 154.041C131.804 153.785 131.58 153.572 131.315 153.419C131.051 153.266 130.755 153.178 130.45 153.161ZM131.06 149.561C130.859 149.562 130.658 149.579 130.46 149.611C127.37 150.371 124.38 152.801 121.66 156.831C118.94 160.861 117.52 164.501 117.51 167.551C117.515 167.587 117.515 167.624 117.51 167.661C117.919 165.874 118.593 164.158 119.51 162.571C120.848 160.037 122.443 157.648 124.27 155.441C126.27 153.071 128.09 151.801 129.93 151.531C130.711 151.427 131.505 151.57 132.2 151.939C132.896 152.309 133.459 152.886 133.81 153.591L133.96 153.821L135.07 152.021L134.51 151.361C134.106 150.822 133.586 150.381 132.989 150.07C132.392 149.758 131.733 149.584 131.06 149.561ZM137.35 148.641L135.35 154.701C135.019 155.72 134.752 156.759 134.55 157.811C134.31 158.959 134.19 160.128 134.19 161.301C134.187 162.413 134.419 163.514 134.87 164.531C135.11 165.081 135.52 165.621 136.8 165.441H136.96C136.657 165.297 136.392 165.083 136.187 164.817C135.981 164.551 135.842 164.241 135.78 163.911C135.567 163.006 135.459 162.08 135.46 161.151C135.503 158.919 135.925 156.711 136.71 154.621C137.361 152.741 138.116 150.898 138.97 149.101L139.06 148.761C139.06 148.691 138.99 148.591 138.79 148.461C138.543 148.306 138.249 148.242 137.96 148.281C137.724 148.334 137.511 148.46 137.35 148.641ZM160.35 161.851C160.511 161.887 160.679 161.887 160.84 161.851C161.097 161.816 161.345 161.731 161.57 161.601C161.681 161.546 161.769 161.454 161.82 161.341C162.23 160.441 162.82 159.261 163.62 157.761L162.72 157.411L167.72 143.911C168.026 143.2 168.212 142.443 168.27 141.671C168.242 141.419 168.125 141.184 167.94 141.011C167.702 140.901 167.434 140.877 167.18 140.941C166.599 141.036 166.032 141.201 165.49 141.431C165.756 141.457 166.009 141.558 166.22 141.721C166.378 141.851 166.503 142.017 166.584 142.204C166.666 142.392 166.702 142.596 166.69 142.801V142.991C165.57 147.398 164.154 151.725 162.45 155.941C161.65 158.161 160.97 160.141 160.38 161.851H160.35ZM174.2 158.771C174.454 158.821 174.716 158.821 174.97 158.771C175.331 158.719 175.673 158.582 175.97 158.371H176.02L177.15 154.231C177.977 151.376 178.421 148.423 178.47 145.451C178.47 143.451 178.03 142.601 177.66 142.281C177.51 142.165 177.336 142.085 177.151 142.045C176.966 142.005 176.774 142.007 176.59 142.051C176.243 142.106 175.907 142.21 175.59 142.361C175.892 142.294 176.208 142.307 176.504 142.398C176.8 142.489 177.067 142.655 177.28 142.881C177.669 143.445 177.846 144.129 177.78 144.811C177.745 146.416 177.482 148.009 177 149.541C176.5 151.231 175.94 152.951 175.33 154.641C174.877 155.993 174.51 157.372 174.23 158.771H174.2ZM188.27 144.771C188.41 145.06 188.475 145.38 188.46 145.701C188.268 147.432 187.728 149.105 186.87 150.621C186.39 151.721 185.92 152.841 185.47 153.951C185.108 154.759 184.898 155.626 184.85 156.511C184.85 157.101 184.99 157.241 184.99 157.251C185.471 157.387 185.976 157.418 186.47 157.341C186.762 157.296 187.05 157.225 187.33 157.131C187.118 157.072 186.927 156.954 186.78 156.791C186.62 156.606 186.513 156.382 186.47 156.141L186.27 156.001V155.581C186.406 154.104 186.845 152.671 187.56 151.371C188.395 149.732 188.878 147.937 188.98 146.101C189.03 145.692 188.926 145.278 188.69 144.941C188.571 144.866 188.438 144.815 188.3 144.791L188.27 144.771Z" fill="#3A3A39"/>
<path d="M210.78 172.851C209.984 172.989 209.177 173.042 208.37 173.011C207.942 172.949 207.533 172.796 207.17 172.561C206.858 172.321 206.612 172.007 206.455 171.646C206.298 171.286 206.234 170.892 206.27 170.501V169.841C206.76 168.358 207.468 166.956 208.37 165.681C210.277 163.014 213.836 159.558 219.05 155.311C224.251 151.069 229.672 147.104 235.29 143.431C235.821 141.814 236.123 140.131 236.19 138.431C236.19 134.498 234.386 132.894 230.78 133.621C227.666 134.174 224.107 136.544 220.1 140.731C217.925 143.353 215.94 146.126 214.16 149.031C212.413 151.911 210.533 155.401 208.52 159.501L208.22 159.551C208.099 159.671 207.94 159.745 207.77 159.761C207.519 159.818 207.256 159.793 207.02 159.691C206.82 159.598 206.72 159.377 206.72 159.031V158.641C206.72 155.154 207.746 149.174 209.8 140.701C211.853 132.228 214.21 123.894 216.87 115.701C219.537 107.508 221.87 101.624 223.87 98.0507C224.237 97.5682 224.773 97.2433 225.37 97.1411C225.835 97.0427 226.32 97.1208 226.73 97.3608C226.914 97.4545 227.067 97.598 227.173 97.7749C227.279 97.9517 227.334 98.1546 227.33 98.3608C227.274 98.8412 227.063 99.2908 226.73 99.6411C225.217 101.394 223.16 105.811 220.56 112.891C217.96 119.971 215.503 127.598 213.19 135.771C211.268 142.252 209.761 148.848 208.68 155.521C209.793 153.414 211.197 150.987 212.89 148.241C214.662 145.414 216.623 142.712 218.76 140.151C223.374 135.417 227.733 132.691 231.84 131.971C233.705 131.53 235.668 131.816 237.33 132.771C238.78 133.691 239.51 135.381 239.51 137.821C239.495 138.847 239.395 139.871 239.21 140.881C245.923 136.474 250.883 133.341 254.09 131.481C254.371 131.263 254.676 131.079 255 130.931L255.75 130.671C256 130.611 256.263 130.632 256.5 130.731C256.585 130.762 256.659 130.818 256.712 130.891C256.765 130.963 256.796 131.051 256.8 131.141C256.8 131.401 256.45 131.771 255.75 132.241C255.369 132.514 254.968 132.758 254.55 132.971C251.036 135.064 245.723 138.398 238.61 142.971C237.046 147.442 234.814 151.649 231.99 155.451C228.974 159.69 225.466 163.557 221.54 166.971C217.673 170.311 214.086 172.271 210.78 172.851ZM210.78 171.281C215.086 170.534 219.547 167.484 224.16 162.131C228.466 157.27 231.97 151.755 234.54 145.791C229.32 149.244 224.507 152.751 220.1 156.311C215.087 160.411 211.68 163.744 209.88 166.311C209.093 167.355 208.481 168.52 208.07 169.761V170.281C208.07 170.811 208.17 171.141 208.37 171.281L208.97 171.431C209.576 171.426 210.181 171.375 210.78 171.281Z" fill="#3A3A39"/>
<path d="M208.85 173.851H208.33C207.735 173.776 207.164 173.567 206.66 173.241C206.236 172.93 205.897 172.517 205.677 172.039C205.456 171.561 205.361 171.035 205.4 170.511V169.641C205.912 168.075 206.657 166.595 207.61 165.251C209.61 162.461 213.13 159.011 218.46 154.691C223.602 150.494 228.959 146.569 234.51 142.931C234.97 141.48 235.232 139.973 235.29 138.451C235.29 136.661 234.9 135.451 234.12 134.831C233.645 134.547 233.115 134.367 232.565 134.303C232.015 134.239 231.458 134.293 230.93 134.461C228 134.971 224.57 137.281 220.71 141.311C218.574 143.888 216.625 146.615 214.88 149.471C213.16 152.301 211.27 155.801 209.28 159.871L209.09 160.261L208.56 160.351C208.359 160.478 208.135 160.563 207.9 160.601C207.466 160.691 207.015 160.642 206.61 160.461C206.352 160.332 206.14 160.129 205.999 159.877C205.858 159.626 205.795 159.338 205.82 159.051V158.661C205.82 155.081 206.82 149.151 208.93 140.531C210.98 132.081 213.36 123.661 216.01 115.531C218.66 107.401 221.01 101.341 223.07 97.7407L223.14 97.6309C223.63 96.986 224.344 96.5473 225.14 96.4009C225.825 96.2582 226.538 96.376 227.14 96.731C227.445 96.8999 227.699 97.1478 227.875 97.4488C228.051 97.7497 228.143 98.0924 228.14 98.4409C228.087 99.1079 227.812 99.738 227.36 100.231C225.9 101.921 223.88 106.291 221.36 113.231C218.84 120.171 216.3 127.931 214.01 136.041C212.41 141.701 211.19 146.631 210.37 150.781C210.92 149.851 211.51 148.881 212.13 147.881C213.92 145.02 215.901 142.284 218.06 139.691C222.83 134.801 227.39 131.961 231.66 131.211C233.748 130.736 235.938 131.068 237.79 132.141C239.49 133.221 240.36 135.141 240.36 137.881C240.36 138.291 240.36 138.741 240.29 139.211C246.19 135.361 250.67 132.541 253.63 130.821C253.94 130.589 254.275 130.395 254.63 130.241L255.63 129.911C256.063 129.818 256.514 129.863 256.92 130.041C257.149 130.139 257.345 130.3 257.485 130.505C257.625 130.711 257.703 130.953 257.71 131.201C257.71 131.781 257.28 132.311 256.29 132.981C255.88 133.272 255.449 133.533 255 133.761C251.59 135.761 246.32 139.091 239.38 143.531C237.787 147.974 235.55 152.159 232.74 155.951C229.686 160.241 226.134 164.155 222.16 167.611C218.16 171.041 214.44 173.081 210.98 173.691C210.276 173.807 209.564 173.86 208.85 173.851ZM207.13 169.951V170.501C207.13 171.501 207.55 171.801 207.68 171.891C207.758 171.944 207.842 171.988 207.93 172.021H207.87C207.637 171.815 207.455 171.558 207.339 171.27C207.223 170.982 207.175 170.671 207.2 170.361V169.771C207.18 169.832 207.156 169.892 207.13 169.951ZM208.96 170.601H209.07C209.59 170.581 210.108 170.524 210.62 170.431C214.71 169.721 219.04 166.741 223.49 161.571C227.056 157.493 230.081 152.972 232.49 148.121C228.26 151.011 224.28 153.961 220.62 156.911C215.7 160.911 212.31 164.261 210.56 166.771C209.859 167.714 209.299 168.755 208.9 169.861V170.281C208.911 170.389 208.931 170.496 208.96 170.601ZM236.4 143.551L235.34 146.101C232.733 152.141 229.186 157.731 224.83 162.661L224.54 162.991C226.988 160.503 229.238 157.828 231.27 154.991C234.043 151.256 236.235 147.122 237.77 142.731L237.86 142.461L238.08 142.321L238.34 140.781C238.517 139.817 238.614 138.841 238.63 137.861C238.63 135.721 238.03 134.261 236.84 133.501C235.726 132.839 234.429 132.554 233.14 132.691C233.903 132.778 234.628 133.068 235.24 133.531C236.45 134.471 237.06 136.121 237.06 138.441C236.991 140.216 236.674 141.973 236.12 143.661V143.751L236.4 143.551ZM224.59 98.5508C222.59 102.061 220.31 107.931 217.7 115.981C215.09 124.031 212.7 132.491 210.64 140.901C209.355 145.864 208.386 150.904 207.74 155.991L207.81 155.451C208.899 148.741 210.415 142.107 212.35 135.591C214.65 127.441 217.13 119.721 219.74 112.661C222.4 105.411 224.47 101.001 226.05 99.1612C226.44 98.6612 226.45 98.4309 226.45 98.4009C226.45 98.3709 226.45 98.2011 226.26 98.1011C226.035 97.9766 225.772 97.9372 225.52 97.9907C225.153 98.0592 224.822 98.2581 224.59 98.5508Z" fill="#3A3A39"/>
<path d="M255.59 148.52C253.755 148.938 251.835 148.77 250.1 148.04C249.394 147.7 248.807 147.154 248.418 146.474C248.028 145.793 247.855 145.011 247.92 144.23C248.063 142.151 248.653 140.128 249.65 138.299C250.9 135.759 252.496 133.403 254.39 131.299C258.09 127.606 261.197 125.546 263.71 125.12C265.71 124.77 266.81 125.46 267.02 127.17C267.02 128.816 265.414 131.073 262.2 133.94C258.836 136.896 254.841 139.048 250.52 140.23C250.161 141.278 249.956 142.372 249.91 143.48C249.91 146.35 251.52 147.43 254.73 146.69C257.53 146.21 261.064 144.663 265.33 142.049C269.465 139.539 273.409 136.729 277.13 133.64C279.954 131.445 282.482 128.894 284.65 126.049C284.713 125.932 284.798 125.828 284.901 125.744C285.004 125.66 285.123 125.597 285.25 125.56C285.361 125.545 285.473 125.557 285.577 125.596C285.682 125.634 285.775 125.697 285.85 125.779C285.934 125.845 286.004 125.926 286.055 126.019C286.107 126.112 286.139 126.214 286.15 126.319L286 126.609C283.329 129.709 280.442 132.617 277.36 135.31C273.33 138.975 268.98 142.272 264.36 145.16C261.644 146.759 258.68 147.894 255.59 148.52ZM251.23 138.68C253.291 137.701 255.276 136.571 257.17 135.299C259.179 133.991 261.067 132.505 262.81 130.859C264.41 129.319 265.21 128.16 265.21 127.37C265.21 126.76 264.71 126.5 263.71 126.58C262.1 126.86 260.05 128.11 257.54 130.33C255.018 132.576 252.929 135.268 251.38 138.27C251.28 138.37 251.23 138.439 251.23 138.489V138.68Z" fill="#3A3A39"/>
<path d="M253.41 149.55C252.135 149.575 250.869 149.312 249.71 148.78C248.862 148.375 248.155 147.725 247.681 146.914C247.206 146.103 246.986 145.167 247.05 144.23C247.188 142.029 247.806 139.886 248.86 137.95C250.15 135.356 251.789 132.95 253.73 130.8C257.63 126.9 260.84 124.8 263.56 124.33C264.082 124.195 264.625 124.168 265.158 124.248C265.691 124.329 266.202 124.516 266.66 124.8C267.017 125.072 267.311 125.419 267.521 125.816C267.732 126.213 267.854 126.651 267.88 127.1C267.88 129.1 266.22 131.52 262.79 134.58C259.433 137.519 255.469 139.68 251.18 140.91C250.919 141.75 250.771 142.621 250.74 143.5C250.692 143.905 250.735 144.315 250.866 144.701C250.998 145.087 251.214 145.439 251.5 145.73C252.08 146.17 253.09 146.23 254.5 145.91C257.22 145.43 260.68 143.91 264.83 141.37C268.928 138.882 272.838 136.098 276.53 133.04C279.294 130.891 281.768 128.394 283.89 125.61C284.017 125.394 284.188 125.207 284.391 125.061C284.594 124.914 284.825 124.812 285.07 124.76C285.314 124.718 285.564 124.737 285.799 124.814C286.034 124.89 286.247 125.023 286.42 125.2C286.59 125.339 286.728 125.512 286.827 125.709C286.925 125.905 286.981 126.12 286.99 126.34V126.54L286.66 127.14C283.958 130.272 281.037 133.209 277.92 135.93C273.848 139.631 269.454 142.961 264.79 145.88C262 147.518 258.959 148.687 255.79 149.34C255.004 149.478 254.208 149.548 253.41 149.55ZM249.2 141.77C248.944 142.565 248.806 143.394 248.79 144.23C248.717 144.854 248.842 145.484 249.147 146.033C249.452 146.582 249.922 147.022 250.49 147.29C252.053 147.94 253.781 148.084 255.43 147.7C258.406 147.091 261.26 145.996 263.88 144.46C267.046 142.478 270.086 140.301 272.98 137.94C270.68 139.62 268.26 141.24 265.75 142.78C261.35 145.47 257.75 147.02 254.84 147.53C252.95 147.97 251.45 147.8 250.43 147.03C249.93 146.596 249.54 146.051 249.293 145.437C249.046 144.823 248.949 144.159 249.01 143.5C249.016 142.918 249.079 142.339 249.2 141.77ZM250.36 138.77C250.25 139.01 250.14 139.24 250.04 139.47L250.23 139.42H250.36V138.77ZM265.14 125.9C265.298 125.963 265.444 126.055 265.57 126.17C265.735 126.314 265.866 126.492 265.955 126.693C266.043 126.893 266.086 127.111 266.08 127.33C266.08 128.33 265.23 129.67 263.42 131.41C261.64 133.09 259.713 134.606 257.66 135.94C256.66 136.63 255.61 137.25 254.66 137.8C257.209 136.674 259.57 135.163 261.66 133.32C265.4 129.98 266.19 128.12 266.19 127.16C266.179 126.956 266.126 126.757 266.035 126.575C265.944 126.393 265.816 126.231 265.66 126.1C265.501 126.008 265.323 125.953 265.14 125.94V125.9ZM264.05 127.36H263.78C262.43 127.6 260.5 128.79 258.13 130.89C256.246 132.567 254.61 134.503 253.27 136.64C254.35 136.04 255.49 135.35 256.68 134.56C258.647 133.287 260.492 131.834 262.19 130.22C264.04 128.45 264.31 127.64 264.34 127.38C264.243 127.372 264.145 127.379 264.05 127.4V127.36Z" fill="#3A3A39"/>
<path d="M290.92 152.371C288.52 152.761 287.21 151.54 287.01 148.69C287.162 146.279 287.671 143.903 288.52 141.641C288.838 140.671 289.24 139.731 289.72 138.831C290.829 136.954 291.448 134.829 291.52 132.65C291.553 131.555 291.179 130.486 290.47 129.65C289.739 128.815 288.932 128.049 288.06 127.36C287.302 126.828 286.599 126.222 285.96 125.55C285.356 124.9 285.032 124.038 285.06 123.15C285.09 122.511 285.19 121.877 285.36 121.26C285.564 120.441 285.902 119.661 286.36 118.951C286.574 118.596 286.865 118.293 287.211 118.065C287.557 117.837 287.95 117.688 288.36 117.63C288.989 117.515 289.638 117.566 290.24 117.78C290.79 118 291.06 118.32 291.06 118.78L290.91 119.331C289.51 121.557 288.81 123.197 288.81 124.251C288.778 124.794 288.881 125.337 289.11 125.831C289.42 126.306 289.83 126.708 290.31 127.01C290.837 127.514 291.338 128.045 291.81 128.601C292.977 130.033 293.616 131.823 293.62 133.67C293.563 136.453 292.879 139.188 291.62 141.67V141.8C290.862 143.718 290.407 145.742 290.27 147.8C290.27 149.72 291.07 150.5 292.68 150.15C295.08 149.757 298.613 147.474 303.28 143.3C307.947 139.127 312.357 134.794 316.51 130.3C320.67 125.8 323.4 122.467 324.7 120.3C325.1 119.72 325.46 119.41 325.76 119.36C325.846 119.342 325.935 119.341 326.021 119.359C326.107 119.378 326.189 119.414 326.259 119.466C326.33 119.518 326.39 119.585 326.433 119.661C326.476 119.738 326.503 119.823 326.51 119.911L326.21 120.74C323.538 124.986 320.413 128.929 316.89 132.501C312.484 137.206 307.759 141.603 302.75 145.661C297.777 149.654 293.833 151.891 290.92 152.371Z" fill="#3A3A39"/>
<path d="M290.1 153.231C289.276 153.256 288.466 153.006 287.8 152.521C287.268 152.041 286.846 151.452 286.561 150.795C286.277 150.138 286.136 149.427 286.15 148.711C286.287 146.193 286.806 143.712 287.69 141.351C288.027 140.337 288.448 139.354 288.95 138.411C289.993 136.65 290.581 134.656 290.66 132.611C290.7 131.7 290.396 130.808 289.81 130.111C289.108 129.319 288.338 128.59 287.51 127.931C286.718 127.374 285.983 126.737 285.32 126.031C284.943 125.63 284.649 125.159 284.455 124.644C284.261 124.129 284.171 123.58 284.19 123.031C284.222 122.331 284.329 121.637 284.51 120.961C284.738 120.06 285.101 119.201 285.59 118.411C285.875 117.949 286.258 117.556 286.713 117.26C287.168 116.965 287.683 116.774 288.22 116.701C289.007 116.556 289.819 116.625 290.57 116.901C290.956 117.006 291.298 117.233 291.545 117.549C291.792 117.864 291.931 118.25 291.94 118.651V118.861L291.69 119.631C290.06 122.231 289.69 123.511 289.69 124.121C289.661 124.528 289.729 124.936 289.89 125.311C290.158 125.676 290.499 125.983 290.89 126.211C291.475 126.753 292.029 127.327 292.55 127.931C293.834 129.52 294.539 131.498 294.55 133.541C294.512 136.388 293.846 139.191 292.6 141.751L292.55 141.971C291.83 143.798 291.392 145.723 291.25 147.681C291.25 148.431 291.39 148.971 291.65 149.161C291.795 149.233 291.952 149.276 292.114 149.286C292.275 149.296 292.437 149.274 292.59 149.221C294.87 148.851 298.28 146.621 302.79 142.571C307.3 138.521 311.79 134.091 315.97 129.571C318.958 126.52 321.666 123.207 324.06 119.671C324.233 119.343 324.471 119.054 324.76 118.822C325.049 118.589 325.383 118.419 325.74 118.321C325.932 118.283 326.128 118.285 326.319 118.324C326.51 118.364 326.691 118.442 326.851 118.553C327.012 118.664 327.148 118.805 327.253 118.97C327.357 119.134 327.428 119.318 327.46 119.51L327.52 119.74L327.08 120.921C324.378 125.227 321.213 129.224 317.64 132.841C313.208 137.573 308.456 141.997 303.42 146.081C298.23 150.281 294.21 152.571 291.13 153.081C290.791 153.157 290.447 153.207 290.1 153.231ZM291.58 129.641C292.138 130.54 292.42 131.583 292.39 132.641C292.314 134.955 291.661 137.213 290.49 139.211C290.032 140.066 289.647 140.96 289.34 141.881C288.525 144.064 288.033 146.355 287.88 148.681C287.862 149.155 287.941 149.627 288.113 150.07C288.285 150.512 288.546 150.914 288.88 151.251C289.162 151.427 289.477 151.544 289.805 151.593C290.134 151.643 290.469 151.626 290.79 151.541C291.53 151.405 292.254 151.194 292.95 150.911H292.88C292.481 151.028 292.061 151.054 291.651 150.986C291.24 150.919 290.851 150.759 290.51 150.521C290.138 150.168 289.853 149.733 289.679 149.25C289.506 148.767 289.448 148.25 289.51 147.74C289.643 145.645 290.102 143.584 290.87 141.631V141.451L290.95 141.291C292.136 138.898 292.775 136.271 292.82 133.601C292.802 132.2 292.371 130.837 291.58 129.681V129.641ZM320.31 127.311C319.39 128.361 318.31 129.511 317.21 130.751C315.21 132.931 313.133 135.077 310.98 137.191C312.8 135.444 314.57 133.651 316.29 131.811C317.777 130.244 319.117 128.757 320.31 127.351V127.311ZM289.08 118.311C288.89 118.297 288.7 118.297 288.51 118.311C288.218 118.345 287.937 118.446 287.689 118.606C287.441 118.765 287.233 118.979 287.08 119.231C286.681 119.874 286.384 120.576 286.2 121.311C286.045 121.862 285.951 122.429 285.92 123.001C285.896 123.683 286.14 124.347 286.6 124.851C287.206 125.485 287.877 126.054 288.6 126.551C289.52 127.28 290.374 128.09 291.15 128.971C291.283 129.124 291.406 129.284 291.52 129.451C291.41 129.281 291.28 129.111 291.15 128.931C290.61 128.321 290.15 127.811 289.74 127.451C289.19 127.095 288.723 126.624 288.37 126.071C288.069 125.449 287.931 124.76 287.97 124.071C287.97 122.871 288.68 121.151 290.14 118.821L290.21 118.551C290.129 118.478 290.034 118.424 289.93 118.391C289.651 118.33 289.362 118.323 289.08 118.371V118.311Z" fill="#3A3A39"/>
<path d="M328.06 141.96C327.322 142.113 326.556 142.066 325.842 141.824C325.128 141.581 324.492 141.151 324 140.58C323 139.42 322.5 137.319 322.5 134.259C322.537 131.994 322.738 129.736 323.1 127.5C324.671 119.422 326.96 111.5 329.94 103.83C332.862 95.6621 336.458 87.7516 340.69 80.1797C340.938 79.7722 341.266 79.4194 341.655 79.1426C342.043 78.8659 342.484 78.6706 342.95 78.5694C343.358 78.4964 343.778 78.5559 344.15 78.7393C344.29 78.8167 344.407 78.9314 344.486 79.0708C344.566 79.2103 344.605 79.369 344.6 79.5293C344.558 80.0848 344.348 80.6146 344 81.0494C342.191 84.1139 340.558 87.279 339.11 90.5293C336.663 95.7027 334.133 101.676 331.52 108.45C329.115 114.549 327.205 120.833 325.81 127.239C325.37 129.549 325.116 131.889 325.05 134.239C325.26 138.489 326.56 140.429 328.96 140.089C330.96 139.809 333.37 138.49 336.18 136.14C339.191 133.606 342.005 130.848 344.6 127.89C348.142 123.954 351.457 119.821 354.53 115.509C354.688 115.337 354.899 115.221 355.13 115.18C355.384 115.137 355.646 115.171 355.88 115.279C355.966 115.314 356.04 115.373 356.094 115.45C356.147 115.526 356.177 115.616 356.18 115.71L356.03 115.989C353.084 120.152 349.924 124.157 346.56 127.989C343.569 131.422 340.272 134.575 336.71 137.41C333.35 140.12 330.52 141.62 328.06 141.96Z" fill="#3A3A39"/>
<path d="M327.19 142.861C326.456 142.877 325.729 142.729 325.061 142.426C324.392 142.123 323.801 141.673 323.33 141.111C322.19 139.791 321.63 137.541 321.63 134.261C321.671 131.959 321.875 129.664 322.24 127.391C323.823 119.256 326.126 111.278 329.12 103.551C332.065 95.3426 335.684 87.3922 339.94 79.7807C340.257 79.2654 340.678 78.8217 341.175 78.4775C341.673 78.1332 342.236 77.8958 342.83 77.7807C343.435 77.673 344.058 77.7719 344.6 78.061C344.867 78.2115 345.089 78.431 345.242 78.6967C345.395 78.9624 345.474 79.2642 345.47 79.5707C345.434 80.2991 345.172 80.9982 344.72 81.5707C342.943 84.5997 341.333 87.7248 339.9 90.9311C337.47 96.0611 334.9 102.071 332.33 108.791C329.949 114.858 328.053 121.104 326.66 127.471C326.222 129.736 325.974 132.034 325.92 134.341C326.07 137.401 326.79 138.591 327.37 139.051C327.578 139.207 327.816 139.317 328.07 139.372C328.324 139.427 328.586 139.427 328.84 139.371C330.66 139.111 332.94 137.851 335.61 135.621C338.585 133.108 341.37 130.377 343.94 127.451C347.46 123.551 350.752 119.45 353.8 115.171L353.91 115.041C354.2 114.723 354.593 114.518 355.02 114.461C355.457 114.394 355.904 114.464 356.3 114.661C356.52 114.763 356.708 114.924 356.841 115.128C356.973 115.331 357.046 115.568 357.05 115.811V116.011L356.8 116.471C353.828 120.698 350.634 124.764 347.23 128.651C344.195 132.13 340.848 135.323 337.23 138.191C333.71 140.951 330.74 142.471 328.16 142.841C327.838 142.87 327.513 142.877 327.19 142.861ZM343.29 79.3808H343.07C342.722 79.4677 342.396 79.6242 342.111 79.8407C341.826 80.0573 341.587 80.3297 341.41 80.641C337.219 88.1503 333.657 95.9935 330.76 104.091C327.797 111.717 325.518 119.591 323.95 127.621C323.604 129.812 323.41 132.023 323.37 134.241C323.37 137.081 323.8 139.031 324.67 140.031C325.065 140.492 325.578 140.837 326.154 141.029C326.73 141.221 327.347 141.253 327.94 141.121C328.189 141.084 328.436 141.035 328.68 140.971C327.814 141.052 326.95 140.794 326.27 140.251C325.01 139.251 324.33 137.311 324.19 134.301C324.244 131.881 324.498 129.469 324.95 127.091C326.363 120.631 328.289 114.294 330.71 108.141C333.31 101.381 335.87 95.331 338.33 90.141C339.79 86.8464 341.442 83.6408 343.28 80.5409C343.534 80.2406 343.695 79.8718 343.74 79.4809C343.608 79.3919 343.447 79.3561 343.29 79.3808Z" fill="#3A3A39"/>
<path d="M350.32 133.611C348.61 133.821 347.56 132.741 347.16 130.341C347.16 127.471 348.56 123.881 351.37 119.611C354.18 115.341 357.23 112.741 360.54 111.831C361.502 111.752 362.469 111.906 363.358 112.28C364.248 112.654 365.034 113.238 365.65 113.981C366.189 113.481 366.648 112.901 367.01 112.261C367.166 111.903 367.368 111.567 367.61 111.261C367.724 111.133 367.862 111.029 368.017 110.955C368.171 110.882 368.339 110.839 368.51 110.831C368.969 110.799 369.423 110.933 369.79 111.211C369.99 111.321 370.157 111.482 370.276 111.676C370.396 111.871 370.462 112.093 370.47 112.321L370.32 112.861C369.449 114.633 368.694 116.461 368.06 118.331C367.317 120.299 366.911 122.378 366.86 124.481C366.807 125.511 367.069 126.533 367.61 127.411C367.879 127.778 368.249 128.059 368.675 128.221C369.101 128.382 369.565 128.417 370.01 128.321C371.92 128.121 374.4 126.931 377.46 124.791C380.52 122.651 383.46 120.361 386.4 117.911C389.34 115.461 391.52 113.531 393.02 112.091L393.47 111.661L394.07 111.351C394.169 111.345 394.269 111.362 394.36 111.4C394.452 111.438 394.534 111.496 394.6 111.571C394.738 111.702 394.821 111.881 394.83 112.071C394.818 112.179 394.785 112.283 394.731 112.378C394.678 112.472 394.606 112.555 394.52 112.621L393.92 113.201C392.32 114.734 390.04 116.734 387.08 119.201C384.091 121.722 380.952 124.06 377.68 126.201C374.347 128.374 371.49 129.591 369.11 129.851C368.391 130.01 367.643 129.977 366.941 129.756C366.239 129.535 365.608 129.133 365.11 128.591C364.223 127.451 363.77 126.033 363.83 124.591C363.834 123.341 363.984 122.095 364.28 120.881C364.58 119.621 364.88 118.541 365.18 117.641C362.926 121.227 360.465 124.68 357.81 127.981C355.023 131.481 352.526 133.357 350.32 133.611ZM350.02 132.611C351.52 132.424 353.623 130.614 356.33 127.181C359.037 123.748 361.433 120.431 363.52 117.231C363.262 116.666 362.834 116.195 362.297 115.883C361.76 115.571 361.139 115.434 360.52 115.491C358.92 115.681 357.21 116.841 355.41 118.981C353.605 121.108 352.042 123.428 350.75 125.901C349.45 128.371 348.75 130.221 348.75 131.441C348.81 132.401 349.21 132.791 350.02 132.601V132.611Z" fill="#3A3A39"/>
<path d="M349.92 134.461C348.64 134.461 346.86 133.821 346.3 130.461V130.32C346.3 127.32 347.76 123.541 350.65 119.151C353.54 114.761 356.81 111.97 360.31 111.01H360.45C361.389 110.914 362.338 111.024 363.231 111.332C364.124 111.639 364.939 112.137 365.62 112.791C365.859 112.512 366.069 112.21 366.25 111.891C366.425 111.465 366.657 111.065 366.94 110.701C367.32 110.275 367.851 110.013 368.42 109.971C369.087 109.914 369.752 110.102 370.29 110.501C370.605 110.683 370.868 110.943 371.052 111.257C371.236 111.571 371.335 111.927 371.34 112.291V112.501L371.13 113.191C370.283 114.937 369.545 116.733 368.92 118.57C368.206 120.451 367.814 122.44 367.76 124.451C367.713 125.317 367.925 126.176 368.37 126.921C368.59 127.231 368.96 127.571 369.96 127.471C371.69 127.281 374.06 126.141 376.96 124.091C379.86 122.041 382.96 119.66 385.84 117.26C388.72 114.86 390.94 112.881 392.42 111.481L393.07 110.901L393.83 110.51H394.01C394.24 110.495 394.471 110.531 394.686 110.615C394.9 110.7 395.093 110.832 395.25 111.001C395.531 111.283 395.692 111.663 395.7 112.061C395.691 112.279 395.636 112.493 395.54 112.69C395.443 112.886 395.307 113.06 395.14 113.201L394.55 113.771C392.95 115.291 390.7 117.271 387.66 119.841C384.641 122.374 381.475 124.728 378.18 126.891C374.72 129.151 371.78 130.391 369.18 130.671C368.318 130.845 367.425 130.793 366.589 130.519C365.753 130.246 365.003 129.761 364.41 129.111C363.403 127.809 362.886 126.195 362.95 124.55C362.953 123.781 363.01 123.012 363.12 122.251C361.7 124.251 360.12 126.361 358.49 128.441C355.49 132.181 352.86 134.151 350.4 134.441C350.24 134.457 350.08 134.463 349.92 134.461ZM360.92 116.3H360.68C359.31 116.46 357.78 117.54 356.13 119.49C354.354 121.564 352.808 123.824 351.52 126.231C350.28 128.591 349.66 130.321 349.66 131.401C349.65 131.524 349.65 131.648 349.66 131.771H349.76H349.85C350.56 131.681 352.24 130.901 355.59 126.671C358.14 123.451 360.45 120.28 362.47 117.24C362.301 116.969 362.069 116.742 361.794 116.578C361.52 116.415 361.209 116.319 360.89 116.3H360.92ZM348.05 130.3V130.441C348.468 128.726 349.121 127.077 349.99 125.541C351.324 123.023 352.919 120.654 354.75 118.471C356.75 116.141 358.58 114.901 360.44 114.681C361.225 114.602 362.015 114.766 362.703 115.15C363.392 115.535 363.946 116.121 364.29 116.831L364.48 117.131L365.74 115.131L365.64 115.231L365.02 114.591C364.502 113.956 363.842 113.453 363.093 113.121C362.344 112.789 361.528 112.639 360.71 112.681C357.71 113.551 354.76 116.041 352.1 120.091C349.44 124.141 348.05 127.58 348.02 130.28L348.05 130.3ZM367.74 112.78L366.06 117.841C365.77 118.721 365.47 119.79 365.17 121.01C364.895 122.167 364.754 123.352 364.75 124.541C364.678 125.81 365.065 127.063 365.84 128.07C366.191 128.451 366.63 128.74 367.117 128.914C367.605 129.088 368.127 129.142 368.64 129.07C367.937 128.893 367.323 128.467 366.91 127.871C366.277 126.857 365.966 125.675 366.02 124.481C366.073 122.289 366.495 120.121 367.27 118.07C367.911 116.193 368.666 114.356 369.53 112.57L369.62 112.231C369.62 112.151 369.54 112.041 369.32 111.891C369.127 111.737 368.887 111.652 368.64 111.651C368.522 111.661 368.408 111.703 368.31 111.771C368.119 112.034 367.961 112.319 367.84 112.621C367.794 112.665 367.751 112.711 367.71 112.76L367.74 112.78Z" fill="#3A3A39"/>
<path d="M395.88 128.691C395.108 128.833 394.311 128.756 393.58 128.47C392.848 128.184 392.211 127.699 391.74 127.071C390.887 125.838 390.44 124.37 390.46 122.871C390.511 120.272 391.023 117.702 391.97 115.281C392.97 112.581 393.82 110.418 394.52 108.791C394.654 108.5 394.866 108.253 395.133 108.076C395.4 107.9 395.71 107.801 396.03 107.791C396.52 107.748 397.013 107.844 397.45 108.071C397.91 108.291 398.13 108.581 398.13 108.931V109.191C397.007 111.507 396.006 113.88 395.13 116.301C394.066 118.862 393.457 121.59 393.33 124.361C393.215 125.199 393.43 126.049 393.93 126.731C394.548 127.154 395.294 127.348 396.04 127.281C398.24 127.101 400.87 125.841 403.93 123.531C406.939 121.274 409.807 118.836 412.52 116.231C415.18 113.661 417.16 111.751 418.46 110.451C418.54 110.301 418.642 110.163 418.76 110.041C418.921 109.879 419.133 109.776 419.36 109.751C419.572 109.739 419.782 109.796 419.96 109.911C420.048 109.948 420.123 110.009 420.178 110.087C420.233 110.165 420.265 110.256 420.27 110.351C420.17 110.531 420.07 110.711 419.96 110.891C418.96 111.991 417.06 113.891 414.25 116.641C411.323 119.491 408.209 122.143 404.93 124.581C401.504 127.108 398.487 128.478 395.88 128.691ZM398.58 103.231C398.18 103.231 397.98 103.011 397.98 102.491C398.018 101.91 398.171 101.342 398.43 100.821C398.715 100.171 399.096 99.5674 399.56 99.0308C399.83 98.6381 400.23 98.3546 400.69 98.231C400.855 98.205 401.024 98.2205 401.181 98.2764C401.338 98.3323 401.479 98.4266 401.59 98.5508C401.8 98.8409 401.906 99.1932 401.89 99.5508C401.805 100.432 401.404 101.253 400.76 101.861C400.234 102.578 399.455 103.068 398.58 103.231Z" fill="#3A3A39"/>
<path d="M395.25 129.551C394.433 129.605 393.616 129.45 392.875 129.1C392.135 128.75 391.497 128.217 391.02 127.551C390.078 126.181 389.582 124.554 389.6 122.891C389.649 120.197 390.173 117.533 391.15 115.021C392.15 112.261 393.02 110.121 393.72 108.491C393.912 108.052 394.222 107.674 394.616 107.401C395.009 107.127 395.471 106.968 395.95 106.941C396.606 106.882 397.265 107.01 397.85 107.311C398.178 107.435 398.462 107.653 398.666 107.938C398.871 108.222 398.987 108.561 399 108.911V109.361L398.91 109.541C397.784 111.819 396.782 114.155 395.91 116.541C394.883 119.015 394.291 121.646 394.16 124.321C394.16 125.781 394.47 126.071 394.48 126.081C394.49 126.091 394.95 126.401 396 126.411C397.94 126.241 400.44 125.041 403.36 122.841C406.33 120.594 409.165 118.173 411.85 115.591C414.45 113.081 416.4 111.191 417.7 109.901C417.812 109.713 417.95 109.542 418.11 109.391C418.419 109.087 418.827 108.903 419.26 108.871C419.647 108.86 420.029 108.96 420.36 109.161C420.571 109.269 420.748 109.432 420.873 109.633C420.999 109.834 421.066 110.064 421.07 110.301V110.511L420.56 111.391C419.56 112.461 417.76 114.301 414.81 117.181C411.849 120.048 408.705 122.72 405.4 125.181C401.82 127.861 398.72 129.281 395.92 129.511L395.25 129.551ZM396.25 108.551H396.1C395.928 108.552 395.761 108.605 395.62 108.703C395.479 108.802 395.371 108.941 395.31 109.101C394.63 110.681 393.8 112.801 392.78 115.531C391.872 117.864 391.382 120.338 391.33 122.841C391.308 124.178 391.702 125.489 392.46 126.591C392.829 127.12 393.37 127.506 393.99 127.681C393.751 127.579 393.528 127.441 393.33 127.271C392.73 126.741 392.45 125.791 392.45 124.271C392.581 121.404 393.21 118.582 394.31 115.931C395.185 113.547 396.187 111.21 397.31 108.931V108.861C397.31 108.861 397.25 108.811 397.09 108.731C396.828 108.608 396.539 108.552 396.25 108.571V108.551ZM398.51 104.041C398.173 104.05 397.844 103.932 397.59 103.711C397.427 103.55 397.302 103.356 397.221 103.142C397.14 102.929 397.105 102.7 397.12 102.472C397.154 101.776 397.331 101.095 397.64 100.472C397.952 99.7424 398.377 99.0673 398.9 98.4715C399.1 98.1839 399.355 97.9386 399.65 97.7499C399.946 97.5611 400.275 97.4325 400.62 97.3714C400.927 97.3308 401.238 97.368 401.527 97.4798C401.815 97.5917 402.071 97.7743 402.27 98.0111C402.61 98.4464 402.784 98.9893 402.76 99.5414C402.682 100.625 402.204 101.64 401.42 102.391C400.742 103.275 399.75 103.862 398.65 104.031L398.51 104.041ZM400.76 99.0311C400.564 99.1863 400.383 99.3605 400.22 99.5511C399.812 100.026 399.475 100.559 399.22 101.131C399.044 101.499 398.92 101.89 398.85 102.291C399.34 102.061 399.768 101.718 400.1 101.291C400.596 100.822 400.917 100.198 401.01 99.5213C401.024 99.3443 400.985 99.1669 400.9 99.0111H400.75L400.76 99.0311Z" fill="#3A3A39"/>
<path d="M415.72 125.47C415.407 125.482 415.096 125.409 414.82 125.259C414.692 125.209 414.581 125.123 414.501 125.011C414.422 124.899 414.376 124.767 414.37 124.629V124.37C415.917 119.13 417.47 113.896 419.03 108.669C419.119 108.33 419.334 108.037 419.63 107.85C419.95 107.655 420.315 107.548 420.69 107.54C421.06 107.508 421.431 107.603 421.74 107.81C421.878 107.9 421.991 108.023 422.069 108.168C422.148 108.313 422.189 108.475 422.19 108.64V109.029C420.99 112.623 419.787 116.216 418.58 119.81C420.737 116.436 423.151 113.233 425.8 110.229C428.2 107.549 430.36 106.179 432.26 106.109H432.87C433.645 106.186 434.359 106.56 434.863 107.153C435.367 107.747 435.62 108.513 435.57 109.29C435.432 112.003 434.717 114.655 433.47 117.069C432.666 118.594 432.154 120.257 431.96 121.97C431.944 122.145 431.978 122.322 432.057 122.479C432.137 122.636 432.259 122.768 432.41 122.859L433.02 122.97C434.52 122.92 436.97 121.81 440.38 119.68C443.79 117.55 446.97 115.37 449.93 113.16C451.806 111.894 453.546 110.436 455.12 108.81C455.184 108.702 455.271 108.61 455.374 108.541C455.478 108.472 455.597 108.427 455.72 108.41C455.916 108.409 456.104 108.479 456.25 108.609C456.321 108.663 456.378 108.732 456.416 108.812C456.455 108.893 456.473 108.981 456.47 109.069L456.32 109.459C454.404 111.363 452.315 113.084 450.08 114.6C446.927 116.9 443.543 119.119 439.93 121.259C436.32 123.399 433.47 124.53 431.36 124.6L430.16 124.39C429.767 124.221 429.439 123.931 429.223 123.562C429.007 123.193 428.915 122.764 428.96 122.339C429.132 119.794 429.849 117.315 431.06 115.069C432.06 113.211 432.676 111.171 432.87 109.069C432.904 108.782 432.829 108.493 432.661 108.258C432.493 108.023 432.243 107.86 431.96 107.799H431.81C430.41 107.846 428.683 109.026 426.63 111.339C424.566 113.661 422.681 116.134 420.99 118.739C419.284 121.359 418.08 123.3 417.38 124.56C417.266 124.835 417.051 125.057 416.78 125.18C416.449 125.344 416.089 125.443 415.72 125.47Z" fill="#3A3A39"/>
<path d="M415.63 126.301C415.2 126.297 414.777 126.187 414.4 125.981C414.138 125.863 413.915 125.674 413.756 125.436C413.597 125.197 413.508 124.918 413.5 124.631V124.142L418.16 108.441C418.307 107.912 418.646 107.456 419.11 107.162C419.557 106.88 420.072 106.721 420.6 106.702C421.166 106.671 421.726 106.821 422.2 107.131C422.453 107.293 422.661 107.517 422.804 107.781C422.948 108.045 423.022 108.341 423.02 108.642V109.281L421.3 114.401C422.58 112.681 423.87 111.111 425.14 109.691C427.74 106.801 430.05 105.361 432.23 105.281H432.94H433.05C434.017 105.394 434.905 105.87 435.534 106.613C436.163 107.355 436.487 108.309 436.44 109.281C436.297 112.112 435.554 114.88 434.26 117.401C433.497 118.816 433.011 120.364 432.83 121.961C432.824 122.005 432.824 122.048 432.83 122.091H433.06C434.01 122.021 435.95 121.412 439.9 118.932C443.29 116.812 446.48 114.631 449.39 112.461C452.99 109.761 454.1 108.702 454.39 108.292C454.514 108.094 454.68 107.925 454.876 107.798C455.072 107.671 455.293 107.587 455.524 107.554C455.755 107.521 455.991 107.538 456.215 107.605C456.439 107.672 456.645 107.787 456.82 107.941C456.978 108.074 457.105 108.239 457.193 108.426C457.281 108.612 457.328 108.815 457.33 109.021V109.301L457.03 109.941C455.071 111.892 452.935 113.656 450.65 115.211C447.51 117.501 444.07 119.761 440.43 121.921C436.79 124.081 433.7 125.301 431.43 125.381H431.33L429.86 125.102C429.302 124.886 428.83 124.494 428.516 123.984C428.201 123.475 428.062 122.877 428.12 122.281C428.294 119.615 429.037 117.017 430.3 114.662C431.241 112.928 431.829 111.024 432.03 109.062C432.03 108.752 431.96 108.662 431.87 108.622C431.1 108.622 429.67 109.232 427.33 111.872C425.293 114.162 423.431 116.602 421.76 119.171C420.12 121.681 418.93 123.612 418.21 124.892C418.01 125.336 417.654 125.691 417.21 125.892C416.775 126.1 416.302 126.216 415.82 126.231L415.63 126.301ZM415.24 124.521C415.369 124.601 415.518 124.643 415.67 124.642C415.808 124.633 415.945 124.613 416.08 124.582L421.32 108.901V108.642C421.327 108.611 421.323 108.579 421.308 108.552C421.293 108.524 421.269 108.502 421.24 108.491C421.09 108.391 420.909 108.349 420.73 108.372C420.511 108.375 420.297 108.437 420.11 108.551C420.048 108.588 419.995 108.637 419.954 108.696C419.912 108.754 419.884 108.821 419.87 108.892L415.24 124.521ZM430.41 123.571L431.41 123.751C431.681 123.735 431.952 123.705 432.22 123.662L431.98 123.571C431.693 123.414 431.456 123.178 431.299 122.891C431.141 122.604 431.069 122.278 431.09 121.952C431.27 120.123 431.804 118.347 432.66 116.722C433.845 114.407 434.527 111.868 434.66 109.271C434.716 108.705 434.545 108.14 434.186 107.7C433.826 107.259 433.306 106.979 432.74 106.921H432.25C432.082 106.928 431.915 106.945 431.75 106.972H432.01H432.14C432.6 107.079 433.007 107.346 433.289 107.725C433.57 108.104 433.709 108.57 433.68 109.042C433.492 111.248 432.851 113.392 431.8 115.341C430.647 117.483 429.966 119.845 429.8 122.271C429.82 123.231 430.19 123.471 430.41 123.571Z" fill="#3A3A39"/>
<path d="M109.43 79.3105C109.407 79.6283 109.353 79.943 109.27 80.2505C109.181 80.5671 109.064 80.875 108.92 81.1704C108.748 81.5869 108.495 81.9651 108.176 82.2827C107.857 82.6004 107.477 82.8512 107.06 83.0205C106.148 83.2827 105.17 83.1821 104.33 82.7402C103.868 82.5478 103.444 82.2738 103.08 81.9307C102.761 81.6217 102.509 81.2504 102.34 80.8403C102.187 80.4421 102.119 80.0164 102.14 79.5903C102.167 79.1237 102.289 78.6677 102.5 78.2505C102.639 77.9569 102.803 77.676 102.99 77.4106C103.16 77.1591 103.361 76.9304 103.59 76.7305L104.59 77.1904C104.334 77.3816 104.102 77.6034 103.9 77.8506C103.704 78.0947 103.537 78.3597 103.4 78.6406C103.274 78.8997 103.206 79.1829 103.2 79.4707C103.189 79.756 103.243 80.0396 103.36 80.3003C103.481 80.5824 103.658 80.8374 103.88 81.0503C104.143 81.2976 104.448 81.4976 104.78 81.6406C105.395 81.964 106.109 82.0423 106.78 81.8604C107.065 81.7545 107.325 81.5921 107.545 81.3823C107.765 81.1726 107.94 80.9202 108.06 80.6406C108.188 80.362 108.285 80.0702 108.35 79.7705C108.413 79.4716 108.437 79.1654 108.42 78.8604L109.43 79.3105Z" fill="#3A3A39"/>
<path d="M114.32 63.9895C114.443 64.0567 114.564 64.1303 114.68 64.2098L114.95 64.3899L112.4 68.3899C112.901 68.7203 113.512 68.839 114.1 68.72C114.688 68.5451 115.183 68.1462 115.48 67.6097C115.59 67.4397 115.68 67.2699 115.78 67.0999C115.88 66.9299 115.95 66.7596 116.03 66.5896C116.11 66.4196 116.17 66.2599 116.23 66.0999L116.39 65.6497L117.22 66.1497C117.116 66.4911 116.988 66.8251 116.84 67.1497C116.665 67.5264 116.465 67.8905 116.24 68.2395C115.976 68.6721 115.637 69.055 115.24 69.3699C114.902 69.6268 114.507 69.8012 114.09 69.8797C113.666 69.9453 113.234 69.9216 112.82 69.8099C112.332 69.6729 111.865 69.471 111.43 69.2098C111.033 68.9815 110.675 68.6913 110.37 68.3499C110.081 68.0373 109.856 67.6701 109.71 67.2698C109.569 66.8864 109.518 66.4758 109.56 66.0696C109.611 65.6298 109.765 65.2083 110.01 64.8396C110.236 64.4753 110.531 64.1595 110.88 63.91C111.177 63.6906 111.518 63.537 111.88 63.4598C112.262 63.3754 112.658 63.3754 113.04 63.4598C113.493 63.564 113.926 63.7429 114.32 63.9895ZM113.52 64.9197C113.287 64.7625 113.031 64.6442 112.76 64.5696C112.52 64.4993 112.267 64.4825 112.02 64.5198C111.781 64.5535 111.553 64.6388 111.35 64.7698C111.128 64.9224 110.94 65.1201 110.8 65.3499C110.666 65.5474 110.58 65.7731 110.55 66.0096C110.528 66.2353 110.553 66.4635 110.62 66.68C110.707 66.9126 110.832 67.1286 110.99 67.3196C111.171 67.5395 111.383 67.7319 111.62 67.8899L113.52 64.9197Z" fill="#3A3A39"/>
<path d="M117.81 54.0601L118.47 53.2598L119.37 53.8901C119.316 53.6265 119.282 53.3587 119.27 53.0898C119.26 52.8753 119.277 52.6606 119.32 52.4502C119.348 52.2611 119.409 52.0783 119.5 51.9102C119.593 51.7412 119.7 51.5806 119.82 51.4302C119.994 51.1925 120.218 50.9944 120.475 50.8496C120.731 50.7048 121.016 50.6162 121.31 50.5898C121.985 50.6119 122.631 50.8664 123.14 51.3101L126.68 54L125.94 54.8999L122.52 52.23C122.204 51.9518 121.809 51.7801 121.39 51.7397C121.222 51.7432 121.056 51.7857 120.907 51.8638C120.758 51.9418 120.629 52.0536 120.53 52.1899C120.438 52.2976 120.364 52.4189 120.31 52.5498C120.256 52.701 120.226 52.8597 120.22 53.02C120.197 53.2294 120.197 53.4405 120.22 53.6499C120.261 53.9394 120.318 54.2264 120.39 54.5098L123.98 57.2397L123.24 58.1401L117.81 54.0601Z" fill="#3A3A39"/>
<path d="M137.3 42.9009C137.16 43.1406 136.996 43.3651 136.81 43.5708C136.627 43.7927 136.43 44.0035 136.22 44.2012C135.754 44.7138 135.118 45.0405 134.43 45.1211C134.102 45.113 133.78 45.0375 133.482 44.8999C133.185 44.7623 132.919 44.5652 132.7 44.3208L130.15 41.8711L128.78 43.1812L128.07 42.501L129.44 41.1909L128.1 39.8911L128.73 38.8911L130.29 40.3911L132.49 38.291L133.2 38.9712L131 41.0811L133.48 43.4609C133.613 43.6112 133.777 43.7321 133.959 43.8164C134.141 43.9007 134.339 43.9468 134.54 43.9512C134.959 43.9156 135.348 43.7226 135.63 43.4111C135.8 43.247 135.96 43.0733 136.11 42.8911C136.278 42.6784 136.432 42.4547 136.57 42.2212L137.3 42.9009Z" fill="#3A3A39"/>
<path d="M140.9 31.1495L141.76 30.4996L142.58 31.4395C142.579 30.919 142.677 30.403 142.87 29.9195C143.024 29.5267 143.279 29.1817 143.61 28.9195C143.842 28.7202 144.118 28.5768 144.414 28.5005C144.711 28.4243 145.02 28.4171 145.32 28.4796C146.011 28.689 146.606 29.1349 147 29.7393L146.05 30.4595C145.807 30.0864 145.459 29.7941 145.05 29.6197C144.895 29.574 144.731 29.5664 144.573 29.5977C144.414 29.6291 144.266 29.6981 144.14 29.7994C144.015 29.9048 143.904 30.0261 143.81 30.1597C143.712 30.3142 143.637 30.4828 143.59 30.6597C143.526 30.8855 143.483 31.1163 143.46 31.3497C143.426 31.6518 143.41 31.9553 143.41 32.2593L146.16 35.6094L145.16 36.3296L140.9 31.1495Z" fill="#3A3A39"/>
<path d="M161.43 25.4908L160.93 24.7408C160.823 25.1856 160.633 25.6065 160.37 25.981C160.122 26.3114 159.809 26.5872 159.45 26.7911C159.161 26.9701 158.843 27.0985 158.51 27.1709C158.244 27.2311 157.967 27.2311 157.7 27.1709C157.458 27.1239 157.231 27.0173 157.04 26.8609C156.834 26.703 156.658 26.5102 156.52 26.2911C156.346 26.0433 156.239 25.7551 156.207 25.4541C156.176 25.1532 156.221 24.8492 156.34 24.5708C156.696 23.8612 157.276 23.2886 157.99 22.941L159.21 22.231L158.89 21.731C158.8 21.5763 158.679 21.442 158.535 21.3369C158.39 21.2319 158.225 21.1585 158.05 21.1211C157.62 21.0686 157.186 21.1751 156.83 21.4209C156.5 21.6099 156.195 21.8384 155.92 22.1011C155.627 22.3765 155.357 22.6737 155.11 22.9908L154.54 22.1109L154.89 21.7212L155.32 21.3111C155.48 21.1711 155.64 21.0412 155.82 20.9112C156 20.7729 156.191 20.6491 156.39 20.5411C156.704 20.3483 157.04 20.1939 157.39 20.0811C157.715 19.9903 158.055 19.963 158.39 20.001C158.684 20.0431 158.965 20.1524 159.21 20.3208C159.488 20.5112 159.72 20.7605 159.89 21.0508L162.37 24.9512L161.43 25.4908ZM159.69 22.981L158.39 23.7408C158.164 23.8662 157.956 24.0213 157.77 24.2012C157.631 24.3336 157.523 24.4935 157.45 24.6709C157.395 24.8245 157.377 24.9892 157.4 25.1509C157.424 25.319 157.486 25.4798 157.58 25.6211C157.651 25.7282 157.738 25.8226 157.84 25.9009C157.935 25.9827 158.048 26.0408 158.17 26.0708C158.312 26.102 158.458 26.102 158.6 26.0708C158.777 26.0382 158.946 25.9739 159.1 25.8809C159.37 25.7018 159.601 25.4709 159.78 25.2012C160.022 24.8248 160.204 24.4131 160.32 23.981L159.69 22.981Z" fill="#3A3A39"/>
<path d="M169.86 11.8105L168 12.6206L167.59 11.7603L170.59 10.4707L174.22 18.0903L176.09 17.2705L176.5 18.1406L171.5 20.3506L171.09 19.4707L173.15 18.5703L169.86 11.8105Z" fill="#3A3A39"/>
<path d="M205.76 9.78062L204.83 5.10093C204.799 4.93218 204.759 4.76526 204.71 4.60093C204.673 4.49975 204.626 4.40254 204.57 4.31089C204.532 4.24876 204.477 4.1997 204.41 4.17075C204.344 4.1554 204.276 4.1554 204.21 4.17075C204.119 4.18939 204.036 4.23452 203.97 4.30064C203.889 4.3885 203.825 4.4904 203.78 4.60093C203.699 4.76526 203.633 4.93558 203.58 5.1107C203.51 5.3207 203.43 5.59097 203.34 5.89097L204.18 10.0809L203.1 10.2709L202.19 5.72105C202.158 5.52867 202.114 5.33804 202.06 5.15073C202.026 5.03427 201.975 4.92311 201.91 4.82066C201.876 4.75337 201.819 4.70035 201.75 4.67075C201.681 4.65525 201.609 4.65525 201.54 4.67075C201.461 4.68702 201.388 4.725 201.33 4.78062C201.248 4.86169 201.18 4.9567 201.13 5.06089C201.054 5.22711 200.987 5.39713 200.93 5.57066C200.86 5.79066 200.78 6.06097 200.69 6.39097L201.53 10.5707L200.45 10.7709L199.15 4.2606L200.05 4.09068L200.35 5.32066C200.404 5.08611 200.474 4.85563 200.56 4.63072C200.626 4.46032 200.713 4.29904 200.82 4.15073C200.909 4.03016 201.021 3.92844 201.15 3.85093C201.281 3.7695 201.428 3.71495 201.58 3.69077C201.735 3.65281 201.896 3.65007 202.052 3.68296C202.208 3.71585 202.354 3.78348 202.48 3.88072C202.75 4.15004 202.923 4.50205 202.97 4.88072C203.04 4.64072 203.1 4.42105 203.17 4.22105C203.231 4.04408 203.315 3.87595 203.42 3.72105C203.512 3.58856 203.628 3.47312 203.76 3.38072C203.906 3.28593 204.069 3.22138 204.24 3.19077C205.09 3.03077 205.65 3.59068 205.9 4.84068L206.85 9.59068L205.76 9.78062Z" fill="#3A3A39"/>
<path d="M220.87 8.10055L220.78 7.22067C220.472 7.56602 220.103 7.85074 219.69 8.06051C219.315 8.24576 218.908 8.35436 218.49 8.38034C218.156 8.41326 217.818 8.38977 217.49 8.31051C217.229 8.24356 216.984 8.12442 216.77 7.96042C216.58 7.80619 216.426 7.61165 216.32 7.39059C216.218 7.15607 216.157 6.90552 216.14 6.65036C216.106 6.34816 216.149 6.0421 216.264 5.76071C216.379 5.47932 216.564 5.2318 216.8 5.04049C217.454 4.57443 218.237 4.32264 219.04 4.32028L220.47 4.22067V3.64059C220.465 3.46457 220.42 3.29191 220.341 3.13473C220.261 2.97756 220.149 2.8395 220.01 2.73044C219.652 2.49159 219.216 2.39528 218.79 2.46042C218.404 2.48153 218.021 2.54887 217.65 2.66061C217.256 2.77818 216.872 2.9252 216.5 3.10055L216.42 2.10055L216.92 1.91061L217.49 1.7402L218.13 1.60055C218.355 1.55912 218.582 1.53232 218.81 1.52047C219.191 1.49028 219.574 1.50687 219.95 1.57028C220.262 1.62512 220.558 1.74443 220.82 1.92038C221.066 2.08254 221.269 2.30236 221.41 2.56051C221.561 2.85537 221.647 3.1792 221.66 3.51022L222 8.07028L220.87 8.10055ZM220.52 5.10055L219 5.20065C218.739 5.21481 218.48 5.2615 218.23 5.3403C218.044 5.40038 217.871 5.49568 217.72 5.62057C217.599 5.72986 217.506 5.8671 217.45 6.02047C217.391 6.18006 217.367 6.3507 217.38 6.52047C217.39 6.64787 217.421 6.77294 217.47 6.89059C217.52 7.00345 217.595 7.10294 217.69 7.18063C217.8 7.27306 217.93 7.33811 218.07 7.37057C218.249 7.4028 218.432 7.4028 218.61 7.37057C218.936 7.34356 219.251 7.24054 219.53 7.07028C219.929 6.8494 220.291 6.56594 220.6 6.23044L220.52 5.10055Z" fill="#3A3A39"/>
<path d="M232.72 1.30078L233.82 1.35107V2.5708C234.174 2.1622 234.602 1.8231 235.08 1.5708C235.459 1.38487 235.878 1.29578 236.3 1.31104C236.603 1.30428 236.904 1.36621 237.179 1.49268C237.455 1.61914 237.698 1.80681 237.89 2.04102C238.268 2.63463 238.417 3.34547 238.31 4.04102L237.1 3.98096C237.167 3.54606 237.093 3.10119 236.89 2.71094C236.799 2.57985 236.678 2.47227 236.537 2.39746C236.396 2.32266 236.24 2.28263 236.08 2.28076C235.914 2.27115 235.748 2.29153 235.59 2.34082C235.407 2.3976 235.232 2.47854 235.07 2.58105C234.867 2.71029 234.676 2.85749 234.5 3.021C234.271 3.22857 234.054 3.44908 233.85 3.68115L233.64 7.94092L232.43 7.89111L232.72 1.30078Z" fill="#3A3A39"/>
<path d="M253.89 10.1597L252.27 9.89941L249.69 5.89941L249.09 9.40967L247.9 9.21973L249.5 0.0195312L250.68 0.199707L249.68 5.85938L253.26 3.35938L254.83 3.59961L251.1 6.10938L253.89 10.1597Z" fill="#3A3A39"/>
<path d="M269.77 10.2313C269.77 10.3913 269.68 10.5214 269.65 10.6214C269.62 10.7214 269.57 10.8215 269.54 10.9115L264.88 9.61117C264.778 9.87955 264.735 10.167 264.754 10.4535C264.773 10.7399 264.854 11.0187 264.99 11.2713C265.334 11.7857 265.865 12.1448 266.47 12.2713L267.06 12.4115L267.64 12.5111L268.18 12.5711H268.67L268.4 13.4813C268.022 13.478 267.644 13.4481 267.27 13.3914C266.848 13.3282 266.431 13.238 266.02 13.1214C265.522 12.9903 265.049 12.777 264.62 12.4911C264.278 12.252 264 11.933 263.81 11.5614C263.631 11.1904 263.538 10.7835 263.54 10.3714C263.547 9.88209 263.628 9.3967 263.78 8.93148C263.907 8.49464 264.107 8.08201 264.37 7.71127C264.61 7.36242 264.916 7.06367 265.27 6.83139C265.625 6.601 266.023 6.44459 266.44 6.37143C266.894 6.3031 267.358 6.33364 267.8 6.46127C268.221 6.57428 268.618 6.76419 268.97 7.02133C269.268 7.24666 269.513 7.53294 269.69 7.86117C269.853 8.20236 269.945 8.57359 269.96 8.9515C269.967 9.38566 269.902 9.81776 269.77 10.2313ZM268.63 9.74106C268.725 9.48493 268.776 9.21453 268.78 8.94125C268.783 8.69958 268.732 8.46006 268.63 8.24106C268.534 8.02501 268.387 7.83624 268.2 7.69125C267.989 7.5204 267.743 7.3977 267.48 7.33139C267.243 7.26096 266.994 7.24359 266.75 7.28109C266.515 7.30954 266.289 7.39189 266.09 7.52133C265.881 7.66119 265.695 7.83309 265.54 8.03109C265.37 8.2522 265.235 8.49846 265.14 8.76107L268.63 9.74106Z" fill="#3A3A39"/>
<path d="M283.12 18.9897C282.839 18.9466 282.562 18.8831 282.29 18.7998C282.008 18.7181 281.731 18.6213 281.46 18.5098C280.804 18.2984 280.249 17.8536 279.9 17.2598C279.786 16.9626 279.737 16.6443 279.758 16.3267C279.779 16.009 279.868 15.6997 280.02 15.4199L281.44 12.2397L279.66 11.5098L280.06 10.6201L281.84 11.3501L282.58 9.66992L283.81 9.8501L282.94 11.7998L285.79 12.9702L285.4 13.8599L282.54 12.6899L281.16 15.79C281.069 15.9627 281.016 16.1529 281.004 16.3477C280.992 16.5424 281.021 16.7373 281.09 16.9199C281.295 17.2798 281.626 17.5509 282.02 17.6802C282.244 17.7748 282.474 17.8517 282.71 17.9102C282.977 17.9804 283.247 18.0371 283.52 18.0801L283.12 18.9897Z" fill="#3A3A39"/>
<path d="M312.33 32.1607C312.032 32.5519 311.67 32.8899 311.26 33.1607C310.895 33.4108 310.483 33.584 310.05 33.6705C309.628 33.7604 309.192 33.7604 308.77 33.6705C308.311 33.5563 307.879 33.3523 307.5 33.0704C307.132 32.8199 306.816 32.5008 306.57 32.1304C306.352 31.8037 306.215 31.4304 306.17 31.0406C306.134 30.6263 306.192 30.2092 306.34 29.8204C306.51 29.3528 306.756 28.9168 307.07 28.5303C307.367 28.1419 307.725 27.8041 308.13 27.5303C308.499 27.2884 308.909 27.1158 309.34 27.0206C309.762 26.9306 310.198 26.9306 310.62 27.0206C311.079 27.1327 311.511 27.3369 311.89 27.6207C312.26 27.8685 312.576 28.1881 312.82 28.5606C313.043 28.8844 313.181 29.2592 313.22 29.6505C313.258 30.0607 313.203 30.4741 313.06 30.8604C312.887 31.3297 312.641 31.7688 312.33 32.1607ZM311.33 31.5006C311.565 31.197 311.754 30.86 311.89 30.5006C312 30.2346 312.051 29.9482 312.04 29.6607C312.033 29.399 311.957 29.1435 311.82 28.9205C311.674 28.6829 311.48 28.4785 311.25 28.3204C310.998 28.1287 310.702 28.002 310.39 27.9508C310.108 27.9141 309.821 27.9378 309.55 28.0206C309.266 28.1163 309.002 28.2621 308.77 28.4508C308.52 28.6494 308.295 28.8774 308.1 29.1304C307.869 29.4152 307.68 29.7317 307.54 30.0704C307.429 30.3397 307.374 30.6292 307.38 30.9205C307.396 31.1806 307.471 31.4339 307.6 31.6607C307.753 31.896 307.95 32.0993 308.18 32.2603C308.431 32.4538 308.727 32.5812 309.04 32.6304C309.322 32.667 309.608 32.6434 309.88 32.5606C310.161 32.4645 310.425 32.3227 310.66 32.1407C310.898 31.9505 311.116 31.7359 311.31 31.5006H311.33Z" fill="#3A3A39"/>
<path d="M327.98 38.8999C327.672 38.4622 327.32 38.0568 326.93 37.69C326.782 37.5211 326.597 37.3877 326.39 37.2998C326.183 37.212 325.958 37.1721 325.733 37.1827C325.509 37.1932 325.289 37.254 325.091 37.3609C324.893 37.4677 324.722 37.6178 324.59 37.7998L323.76 38.6402L325.96 40.6402L325.27 41.3399L323.07 39.3399L319.69 42.7598L318.81 41.96L322.19 38.5401L320.57 37.0699L321.26 36.3799L322.87 37.8501L323.66 37.0498C324.927 35.7698 326.26 35.7698 327.66 37.0498C328.029 37.404 328.364 37.7925 328.66 38.21L327.98 38.8999Z" fill="#3A3A39"/>
<path d="M132.1 234.729C131.829 234.27 131.514 233.838 131.16 233.439C131.025 233.26 130.851 233.113 130.651 233.01C130.452 232.906 130.231 232.849 130.007 232.843C129.782 232.836 129.559 232.88 129.354 232.971C129.148 233.062 128.966 233.199 128.82 233.37L127.92 234.14L129.92 236.31L129.17 236.95L127.17 234.779L123.51 237.919L122.7 237.049L126.36 233.91L124.88 232.319L125.62 231.68L127.1 233.27L127.95 232.54C129.33 231.37 130.65 231.46 131.95 232.83C132.298 233.216 132.612 233.631 132.89 234.069L132.1 234.729Z" fill="#3A3A39"/>
<path d="M140.8 242.609L139.27 241.31L139.92 240.609L142.36 242.68L136.58 248.959L138.13 250.259L137.47 250.979L133.31 247.459L133.97 246.75L135.68 248.189L140.8 242.609Z" fill="#3A3A39"/>
<path d="M153.18 258.061C152.902 258.446 152.565 258.784 152.18 259.061C151.825 259.324 151.42 259.512 150.99 259.611C150.569 259.706 150.131 259.706 149.71 259.611C149.245 259.522 148.805 259.335 148.42 259.061C148.031 258.825 147.692 258.516 147.42 258.151C147.191 257.832 147.043 257.461 146.99 257.071C146.934 256.665 146.972 256.251 147.1 255.861C147.254 255.385 147.487 254.939 147.79 254.541C148.064 254.154 148.403 253.816 148.79 253.541C149.145 253.281 149.55 253.097 149.98 253.001C150.401 252.906 150.839 252.906 151.26 253.001C151.724 253.093 152.162 253.281 152.55 253.551C152.938 253.787 153.278 254.097 153.55 254.461C153.777 254.778 153.925 255.145 153.98 255.531C154.036 255.941 153.999 256.358 153.87 256.751C153.711 257.222 153.478 257.664 153.18 258.061ZM152.18 257.441C152.403 257.136 152.579 256.799 152.7 256.441C152.797 256.169 152.837 255.88 152.82 255.591C152.802 255.333 152.716 255.085 152.57 254.871C152.415 254.637 152.215 254.436 151.98 254.281C151.718 254.1 151.416 253.987 151.1 253.951C150.816 253.919 150.529 253.953 150.26 254.051C149.982 254.149 149.727 254.302 149.51 254.501C149.266 254.707 149.047 254.943 148.86 255.201C148.636 255.506 148.461 255.843 148.34 256.201C148.235 256.472 148.191 256.762 148.21 257.051C148.232 257.311 148.318 257.562 148.46 257.781C148.617 258.014 148.821 258.212 149.06 258.361C149.317 258.545 149.616 258.662 149.93 258.701C150.214 258.728 150.5 258.694 150.77 258.601C151.047 258.496 151.304 258.344 151.53 258.151C151.758 257.937 151.962 257.699 152.14 257.441H152.18Z" fill="#3A3A39"/>
<path d="M169.25 263.15L165.13 268.56L163.85 267.91L164.32 265.01L164.47 264.33L163.92 264.86L161.74 266.86L160.52 266.23L162.87 259.92L163.87 260.45L162.18 264.69L161.8 265.63L162.49 264.99L164.83 262.8L165.6 263.19L165.12 266.27L164.97 267.19L165.51 266.41L168.2 262.64L169.25 263.15Z" fill="#3A3A39"/>
<path d="M182.29 271.67C182.23 271.82 182.18 271.95 182.13 272.05C182.08 272.15 182.04 272.24 182 272.33L177.47 270.66C177.347 270.92 177.282 271.203 177.282 271.49C177.282 271.777 177.347 272.061 177.47 272.32C177.77 272.856 178.269 273.252 178.86 273.42C179.047 273.493 179.237 273.554 179.43 273.6L180 273.75L180.54 273.85L181.03 273.91L180.67 274.79C180.296 274.758 179.925 274.698 179.56 274.61C179.146 274.516 178.738 274.396 178.34 274.25C177.852 274.087 177.398 273.836 177 273.51C176.675 273.244 176.424 272.9 176.27 272.51C176.12 272.125 176.062 271.711 176.1 271.3C176.151 270.815 176.272 270.34 176.46 269.89C176.622 269.464 176.855 269.068 177.15 268.72C177.431 268.392 177.77 268.117 178.15 267.91C178.524 267.709 178.936 267.586 179.36 267.55C179.816 267.51 180.276 267.579 180.7 267.75C181.11 267.891 181.49 268.109 181.82 268.39C182.099 268.637 182.318 268.945 182.46 269.29C182.602 269.642 182.664 270.021 182.64 270.4C182.598 270.84 182.479 271.27 182.29 271.67ZM181.19 271.08C181.311 270.836 181.386 270.571 181.41 270.3C181.435 270.06 181.408 269.818 181.33 269.59C181.248 269.371 181.118 269.173 180.95 269.01C180.751 268.824 180.516 268.682 180.26 268.59C180.027 268.505 179.778 268.468 179.53 268.48C179.296 268.499 179.068 268.563 178.86 268.67C178.639 268.79 178.44 268.946 178.27 269.13C178.083 269.341 177.925 269.577 177.8 269.83L181.19 271.08Z" fill="#3A3A39"/>
<path d="M193.31 271.871L194.37 272.131L194.09 273.321C194.523 273.005 195.007 272.765 195.52 272.611C195.93 272.506 196.36 272.506 196.77 272.611C197.065 272.661 197.345 272.778 197.589 272.951C197.833 273.124 198.035 273.349 198.18 273.611C198.418 274.256 198.418 274.965 198.18 275.611L197 275.321C197.163 274.913 197.188 274.464 197.07 274.041C197.006 273.895 196.909 273.766 196.786 273.665C196.662 273.564 196.516 273.494 196.36 273.461C196.198 273.431 196.032 273.431 195.87 273.461C195.678 273.477 195.489 273.521 195.31 273.591C195.086 273.685 194.869 273.795 194.66 273.921C194.43 274.061 194.17 274.231 193.89 274.441L192.8 278.571L191.62 278.281L193.31 271.871Z" fill="#3A3A39"/>
<path d="M213.39 280.42C213.369 280.633 213.301 280.838 213.19 281.02C213.087 281.195 212.951 281.348 212.79 281.471C212.629 281.601 212.446 281.703 212.25 281.77C212.047 281.851 211.836 281.912 211.62 281.951C211.396 281.991 211.168 282.01 210.94 282.01C210.72 282.025 210.5 282.025 210.28 282.01C209.853 281.958 209.43 281.885 209.01 281.79C208.631 281.702 208.257 281.591 207.89 281.46L208.03 280.411C208.408 280.566 208.796 280.7 209.19 280.81C209.575 280.911 209.966 280.988 210.36 281.04C210.793 281.122 211.239 281.098 211.66 280.971C211.79 280.932 211.905 280.857 211.992 280.754C212.079 280.651 212.134 280.524 212.15 280.39C212.175 280.282 212.175 280.169 212.15 280.06C212.109 279.946 212.04 279.842 211.95 279.76C211.802 279.629 211.637 279.519 211.46 279.431C211.23 279.311 210.92 279.17 210.52 279C210.238 278.882 209.964 278.745 209.7 278.59C209.472 278.461 209.263 278.299 209.08 278.11C208.909 277.946 208.778 277.744 208.7 277.52C208.61 277.281 208.585 277.022 208.63 276.77C208.667 276.567 208.738 276.371 208.84 276.19C208.974 275.964 209.159 275.772 209.38 275.63C209.664 275.453 209.98 275.331 210.31 275.27C210.77 275.194 211.24 275.194 211.7 275.27C211.97 275.27 212.27 275.361 212.59 275.431C212.91 275.501 213.25 275.591 213.59 275.701L213.45 276.701C213.124 276.569 212.79 276.459 212.45 276.37C212.167 276.297 211.88 276.241 211.59 276.201C211.337 276.177 211.083 276.177 210.83 276.201C210.655 276.213 210.482 276.253 210.32 276.32C210.198 276.372 210.091 276.455 210.01 276.56C209.942 276.654 209.9 276.765 209.89 276.88C209.865 276.989 209.865 277.102 209.89 277.21C209.943 277.329 210.022 277.435 210.12 277.52C210.276 277.653 210.447 277.767 210.63 277.86C210.85 277.97 211.14 278.11 211.5 278.26C211.844 278.397 212.178 278.558 212.5 278.74C212.728 278.878 212.937 279.047 213.12 279.24C213.262 279.405 213.365 279.6 213.42 279.81C213.448 280.014 213.438 280.221 213.39 280.42Z" fill="#3A3A39"/>
<path d="M245.52 282.049L245.4 281.169C245.102 281.524 244.743 281.822 244.34 282.049C243.973 282.251 243.567 282.374 243.15 282.41C242.819 282.465 242.481 282.465 242.15 282.41C241.884 282.36 241.633 282.247 241.42 282.08C241.223 281.938 241.065 281.748 240.96 281.529C240.842 281.302 240.771 281.054 240.75 280.799C240.702 280.5 240.731 280.193 240.834 279.908C240.938 279.623 241.111 279.369 241.34 279.169C241.978 278.678 242.755 278.399 243.56 278.37L244.98 278.229L244.92 277.649C244.906 277.472 244.854 277.3 244.768 277.145C244.682 276.99 244.563 276.855 244.42 276.75C244.05 276.53 243.613 276.452 243.19 276.529C242.805 276.563 242.425 276.644 242.06 276.77C241.672 276.898 241.295 277.055 240.93 277.239L240.81 276.239C240.969 276.163 241.133 276.097 241.3 276.04C241.48 275.97 241.67 275.899 241.87 275.839L242.5 275.68C242.72 275.63 242.95 275.599 243.18 275.569C243.559 275.524 243.941 275.524 244.32 275.569C244.634 275.613 244.936 275.718 245.21 275.879C245.458 276.037 245.664 276.254 245.81 276.509C245.976 276.793 246.075 277.111 246.1 277.439L246.61 281.989L245.52 282.049ZM245.06 279.049L243.55 279.209C243.291 279.23 243.035 279.284 242.79 279.37C242.604 279.434 242.434 279.536 242.29 279.669C242.166 279.779 242.076 279.921 242.03 280.08C241.977 280.241 241.96 280.411 241.98 280.58C241.996 280.704 242.03 280.825 242.08 280.939C242.141 281.05 242.222 281.149 242.32 281.229C242.432 281.316 242.562 281.377 242.7 281.41C242.879 281.441 243.061 281.441 243.24 281.41C243.563 281.362 243.872 281.25 244.15 281.08C244.523 280.835 244.86 280.539 245.15 280.2L245.06 279.049Z" fill="#3A3A39"/>
<path d="M256.14 273.7L257.14 273.47L257.43 274.47C257.556 274.231 257.703 274.003 257.87 273.79C258.005 273.613 258.159 273.452 258.33 273.31C258.479 273.185 258.643 273.08 258.82 273C259.001 272.924 259.188 272.863 259.38 272.82C259.666 272.737 259.966 272.715 260.261 272.757C260.555 272.798 260.838 272.902 261.09 273.06C261.616 273.472 261.972 274.063 262.09 274.72L263.09 278.94L261.92 279.2L260.92 275.07C260.852 274.663 260.652 274.291 260.35 274.01C260.209 273.903 260.045 273.832 259.871 273.803C259.697 273.773 259.518 273.786 259.35 273.84C259.21 273.87 259.076 273.921 258.95 273.99C258.807 274.071 258.678 274.176 258.57 274.3C258.427 274.457 258.3 274.628 258.19 274.81C258.06 275.02 257.92 275.28 257.77 275.58L258.77 279.87L257.6 280.13L256.14 273.7Z" fill="#3A3A39"/>
<path d="M272.38 273.069C272.201 272.592 272.1 272.089 272.08 271.58C272.072 271.143 272.157 270.71 272.33 270.31C272.508 269.923 272.771 269.581 273.1 269.31C273.46 269.007 273.874 268.776 274.32 268.629C274.53 268.559 274.74 268.509 274.95 268.459C275.158 268.418 275.369 268.391 275.58 268.379L274.58 265.75L275.71 265.359L279.01 274.14L278.01 274.489L277.52 273.33C277.4 273.811 277.179 274.261 276.87 274.649C276.585 274.989 276.211 275.242 275.79 275.379C275.452 275.506 275.088 275.547 274.73 275.5C274.386 275.449 274.06 275.315 273.78 275.109C273.47 274.881 273.204 274.6 272.99 274.279C272.742 273.9 272.537 273.494 272.38 273.069ZM273.51 272.6C273.696 273.204 274.041 273.746 274.51 274.169C274.672 274.307 274.867 274.4 275.076 274.439C275.285 274.478 275.5 274.461 275.7 274.39C276.025 274.255 276.297 274.016 276.47 273.709C276.732 273.262 276.931 272.781 277.06 272.279L275.98 269.379C275.751 269.355 275.519 269.355 275.29 269.379C275.055 269.415 274.824 269.472 274.6 269.549C274.33 269.624 274.081 269.757 273.87 269.941C273.659 270.124 273.491 270.353 273.38 270.609C273.179 271.267 273.229 271.976 273.52 272.6H273.51Z" fill="#3A3A39"/>
<path d="M307.01 256.142C307.318 256.57 307.545 257.051 307.68 257.562C307.78 257.989 307.78 258.434 307.68 258.861C307.599 259.268 307.42 259.649 307.16 259.972C306.884 260.327 306.545 260.628 306.16 260.861C305.977 260.979 305.786 261.087 305.59 261.182C305.389 261.282 305.182 261.369 304.97 261.442L306.57 263.752L305.57 264.392L300.21 256.591L301.1 256.031L301.8 256.912C301.807 256.428 301.934 255.954 302.17 255.531C302.399 255.171 302.706 254.867 303.07 254.642C303.37 254.444 303.713 254.32 304.07 254.281C304.412 254.261 304.754 254.319 305.07 254.452C305.439 254.599 305.778 254.812 306.07 255.082C306.421 255.4 306.736 255.755 307.01 256.142ZM306.01 256.832C305.827 256.563 305.623 256.308 305.4 256.071C305.212 255.877 304.997 255.712 304.76 255.582C304.56 255.474 304.337 255.416 304.11 255.412C303.886 255.413 303.667 255.479 303.48 255.602C303.35 255.685 303.232 255.785 303.13 255.901C303.022 256.04 302.931 256.191 302.86 256.352C302.774 256.559 302.708 256.772 302.66 256.991C302.604 257.278 302.567 257.569 302.55 257.861L304.4 260.542C304.639 260.5 304.873 260.437 305.1 260.352C305.324 260.271 305.538 260.167 305.74 260.042C305.983 259.903 306.19 259.712 306.348 259.482C306.506 259.251 306.609 258.988 306.65 258.712C306.671 258.028 306.444 257.36 306.01 256.832Z" fill="#3A3A39"/>
<path d="M313.78 244.901L312.22 246.171L311.58 245.451L314.07 243.451L319.71 249.851L321.28 248.571L321.93 249.301L317.69 252.741L317.05 252.001L318.78 250.601L313.78 244.901Z" fill="#3A3A39"/>
<path d="M333.01 238.81L332.31 238.22C332.335 238.672 332.271 239.124 332.12 239.55C331.971 239.923 331.75 240.263 331.47 240.55C331.239 240.8 330.964 241.007 330.66 241.16C330.421 241.284 330.159 241.356 329.89 241.37C329.64 241.383 329.39 241.338 329.16 241.24C328.916 241.141 328.693 240.999 328.5 240.82C328.265 240.628 328.082 240.38 327.966 240.099C327.851 239.818 327.808 239.512 327.84 239.21C327.988 238.438 328.385 237.736 328.97 237.21L329.97 236.21L329.53 235.81C329.397 235.684 329.24 235.587 329.068 235.525C328.896 235.463 328.712 235.438 328.53 235.45C328.107 235.506 327.721 235.72 327.45 236.05C327.184 236.317 326.952 236.616 326.76 236.94C326.55 237.279 326.372 237.637 326.23 238.01L325.43 237.3C325.5 237.16 325.57 237 325.66 236.84C325.75 236.68 325.85 236.5 325.96 236.33C326.07 236.16 326.19 235.99 326.33 235.81C326.47 235.63 326.61 235.47 326.77 235.31C327.025 235.037 327.318 234.801 327.64 234.61C327.911 234.441 328.214 234.332 328.53 234.29C328.826 234.251 329.128 234.281 329.41 234.38C329.729 234.494 330.021 234.671 330.27 234.9L333.75 238.02L333.01 238.81ZM330.62 236.81L329.62 237.88C329.444 238.061 329.289 238.263 329.16 238.48C329.066 238.643 329.008 238.823 328.99 239.01C328.971 239.174 328.998 239.341 329.07 239.49C329.141 239.648 329.247 239.788 329.38 239.9C329.474 239.985 329.583 240.053 329.7 240.1C329.815 240.156 329.942 240.184 330.07 240.18C330.213 240.176 330.354 240.138 330.48 240.07C330.642 239.991 330.788 239.883 330.91 239.75C331.125 239.512 331.282 239.228 331.37 238.92C331.499 238.495 331.563 238.054 331.56 237.61L330.62 236.81Z" fill="#3A3A39"/>
<path d="M335.33 225.85L335.96 225.02L336.89 225.62C336.822 225.362 336.779 225.097 336.76 224.83C336.734 224.614 336.734 224.396 336.76 224.18C336.786 223.993 336.84 223.811 336.92 223.64C337.003 223.467 337.104 223.303 337.22 223.15C337.384 222.902 337.6 222.693 337.854 222.539C338.109 222.385 338.394 222.29 338.69 222.26C339.364 222.252 340.019 222.482 340.54 222.91L344.18 225.47L343.47 226.4L339.91 223.89C339.583 223.626 339.18 223.472 338.76 223.45C338.592 223.457 338.427 223.503 338.279 223.584C338.132 223.666 338.005 223.781 337.91 223.92C337.826 224.033 337.759 224.158 337.71 224.29C337.661 224.442 337.634 224.6 337.63 224.76C337.632 224.972 337.655 225.183 337.7 225.39C337.7 225.63 337.81 225.91 337.9 226.24L341.6 228.84L340.89 229.77L335.33 225.85Z" fill="#3A3A39"/>
<path d="M352.94 211.739C352.866 212.003 352.773 212.26 352.66 212.509C352.541 212.77 352.407 213.024 352.26 213.27C351.956 213.885 351.431 214.363 350.79 214.609C350.471 214.69 350.138 214.705 349.813 214.651C349.488 214.598 349.177 214.478 348.9 214.299L345.76 212.589L344.81 214.209L343.93 213.729L344.93 212.12L343.27 211.22L343.59 210.069L345.52 211.12L347.04 208.52L347.92 209L346.39 211.589L349.45 213.25C349.619 213.361 349.81 213.436 350.01 213.468C350.21 213.501 350.414 213.491 350.61 213.439C351.002 213.298 351.324 213.012 351.51 212.64C351.629 212.438 351.733 212.227 351.82 212.009C351.923 211.762 352.01 211.508 352.08 211.25L352.94 211.739Z" fill="#3A3A39"/>
<path d="M358.3 196.61C358.507 196.69 358.697 196.809 358.86 196.96C359 197.104 359.115 197.27 359.2 197.451C359.284 197.634 359.337 197.83 359.36 198.03C359.385 198.24 359.385 198.451 359.36 198.661C359.343 198.877 359.307 199.091 359.25 199.3C359.192 199.504 359.122 199.705 359.04 199.9C358.875 200.284 358.688 200.659 358.48 201.021C358.3 201.354 358.093 201.672 357.86 201.971L356.86 201.561C357.121 201.248 357.355 200.913 357.56 200.561C357.766 200.24 357.949 199.906 358.11 199.561C358.302 199.187 358.395 198.77 358.38 198.351C358.37 198.214 358.322 198.083 358.24 197.974C358.159 197.864 358.047 197.779 357.92 197.73C357.814 197.692 357.702 197.672 357.59 197.67C357.467 197.678 357.348 197.712 357.24 197.771C357.072 197.875 356.918 197.999 356.78 198.141C356.534 198.38 356.304 198.633 356.09 198.9C355.896 199.129 355.689 199.346 355.47 199.55C355.275 199.729 355.056 199.881 354.82 200C354.602 200.112 354.364 200.177 354.12 200.19C353.857 200.209 353.593 200.164 353.35 200.061C353.153 199.974 352.973 199.852 352.82 199.701C352.629 199.528 352.487 199.307 352.41 199.061C352.298 198.74 352.257 198.399 352.29 198.061C352.332 197.614 352.45 197.177 352.64 196.771C352.754 196.503 352.884 196.242 353.03 195.99C353.188 195.694 353.369 195.41 353.57 195.141L354.57 195.53C354.354 195.809 354.154 196.1 353.97 196.4C353.822 196.646 353.688 196.9 353.57 197.161C353.469 197.381 353.395 197.613 353.35 197.851C353.321 198.019 353.321 198.192 353.35 198.36C353.372 198.486 353.428 198.604 353.51 198.701C353.585 198.794 353.685 198.864 353.8 198.9C353.903 198.948 354.016 198.972 354.13 198.971C354.265 198.952 354.395 198.904 354.51 198.831C354.683 198.725 354.841 198.598 354.98 198.451C355.16 198.281 355.37 198.05 355.62 197.76C355.844 197.48 356.091 197.219 356.36 196.98C356.558 196.798 356.784 196.65 357.03 196.541C357.229 196.445 357.449 196.401 357.67 196.411C357.889 196.445 358.101 196.512 358.3 196.61Z" fill="#3A3A39"/>
<path d="M147.59 201.83C168.76 197.09 189.94 192.35 211.38 188.92C232.817 185.482 254.48 183.637 276.19 183.4C288.477 183.28 300.757 183.677 313.03 184.59C315.39 184.76 315.37 181.24 313.03 181.07C291.196 179.447 269.271 179.464 247.44 181.12C225.719 182.943 204.131 186.105 182.8 190.59C170.7 193.04 158.66 195.74 146.62 198.44C144.32 198.95 145.29 202.34 147.62 201.83H147.59Z" fill="#3A3A39"/>
</g>
<defs>
<clipPath id="clip0_271_2979">
<rect width="457.34" height="282.44" fill="white"/>
</clipPath>
</defs>
</svg>
