<svg width="103" height="92" viewBox="0 0 103 92" fill="none" xmlns="http://www.w3.org/2000/svg">
<g clip-path="url(#clip0_271_3882)">
<path d="M0 26.4859L2.55284 25.9622C2.81346 25.9007 3.04812 25.7575 3.22325 25.5532C3.40308 25.3508 3.50049 25.0873 3.49596 24.8154V3.19062C3.50421 2.91013 3.40675 2.63691 3.22325 2.42609C3.04812 2.22179 2.81346 2.07862 2.55284 2.01706L0 1.51249V0.598867H10.0031C11.667 0.561554 13.3294 0.728421 14.9534 1.09581C16.0378 1.33774 17.0663 1.78669 17.9835 2.41846C18.6574 2.89827 19.1827 3.56098 19.4986 4.32979C19.7775 5.03503 19.9202 5.78759 19.919 6.54693C19.942 8.12481 19.3598 9.65061 18.2941 10.8054C17.7457 11.3949 17.1061 11.8906 16.4003 12.2733C15.6269 12.6973 14.8035 13.021 13.9497 13.2366C14.9802 13.265 16.001 13.4453 16.9798 13.7717C17.8715 14.0598 18.7079 14.4994 19.4531 15.0715C20.1427 15.6097 20.7108 16.2899 21.1197 17.0669C21.5369 17.8774 21.7478 18.7799 21.7333 19.6931C21.7508 20.6147 21.5966 21.5315 21.2787 22.3957C21.0028 23.1413 20.5875 23.8266 20.0553 24.414C19.5166 24.9927 18.8854 25.476 18.1881 25.8437C17.4528 26.2333 16.6782 26.5422 15.8776 26.765C15.0333 27.0038 14.1704 27.1701 13.2983 27.2619C12.4037 27.358 11.5048 27.4065 10.6053 27.4072H0V26.4859ZM8.93874 12.9461C10.0772 12.9683 11.2142 12.8515 12.3249 12.5982C13.1241 12.4191 13.8792 12.0784 14.5444 11.5966C15.0855 11.1874 15.5048 10.636 15.7564 10.0026C16.0166 9.3239 16.1452 8.60106 16.1352 7.87338C16.1564 6.96374 16.0166 6.05757 15.7223 5.19752C15.4723 4.49409 15.0471 3.86746 14.4876 3.37793C13.8873 2.8788 13.1829 2.52333 12.4271 2.33817C11.4846 2.10209 10.5157 1.9903 9.54476 2.0056H7.10175V12.9461H8.93874ZM11.3514 25.9431C13.4902 25.9431 15.0961 25.515 16.1693 24.6587C17.2424 23.8024 17.7777 22.4008 17.7752 20.4538C17.7999 19.473 17.6511 18.4957 17.3358 17.5677C17.0654 16.8145 16.5918 16.1525 15.9685 15.6563C15.2684 15.1331 14.4628 14.7716 13.6088 14.5975C12.4884 14.3589 11.345 14.2474 10.2 14.2649H7.10175V25.9355L11.3514 25.9431Z" fill="#3A3A39"/>
<path d="M37.3798 28.0053C35.514 28.0405 33.6611 27.6865 31.9371 26.9655C30.4068 26.3101 29.0394 25.3206 27.9336 24.0679C26.8179 22.7757 25.9762 21.2666 25.4602 19.6336C24.8832 17.8076 24.5993 15.9002 24.6194 13.9837C24.6058 12.1266 24.9003 10.2802 25.4905 8.52114C26.0362 6.88742 26.8931 5.37716 28.0131 4.07538C29.1282 2.803 30.5013 1.78744 32.0393 1.09754C33.7347 0.347288 35.5706 -0.0243371 37.4215 0.0080898C39.3666 -0.0407687 41.299 0.338829 43.084 1.12047C44.6165 1.81636 45.9754 2.84949 47.0609 4.14419C48.1303 5.45135 48.9288 6.96184 49.4093 8.58614C49.9274 10.3371 50.1827 12.1565 50.1668 13.9837C50.1667 15.1192 50.0589 16.2521 49.8448 17.3668C49.6351 18.4838 49.3022 19.5737 48.8525 20.616C48.4048 21.6523 47.831 22.6282 47.1443 23.5213C46.4511 24.4271 45.6217 25.2177 44.6861 25.8646C43.6881 26.5483 42.5939 27.0766 41.4401 27.4319C40.1232 27.8289 38.7542 28.0222 37.3798 28.0053ZM37.7586 26.6062C39.0469 26.6364 40.3197 26.3169 41.4439 25.6811C42.5137 25.0579 43.4222 24.1881 44.0952 23.1428C44.8355 21.9757 45.3723 20.6893 45.6822 19.3393C46.0451 17.7952 46.2232 16.2128 46.2125 14.6259C46.2289 12.8269 46.0447 11.0317 45.6633 9.27422C45.3496 7.79039 44.7777 6.37447 43.974 5.09223C43.2541 3.96256 42.271 3.02809 41.1106 2.37049C39.8536 1.69834 38.4459 1.3652 37.0238 1.40335C35.6818 1.3642 34.356 1.70734 33.1983 2.39343C32.1345 3.05225 31.2392 3.95452 30.5849 5.02725C29.8814 6.19759 29.3794 7.47975 29.1001 8.81932C28.7809 10.2921 28.6222 11.7957 28.6267 13.3033C28.6139 15.0816 28.7955 16.8558 29.1683 18.5939C29.4786 20.0823 30.0425 21.505 30.8348 22.7988C31.5466 23.9465 32.5224 24.9038 33.6793 25.5893C34.9314 26.2939 36.3483 26.6452 37.7813 26.6062H37.7586Z" fill="#3A3A39"/>
<path d="M22.9301 58.2191L25.483 57.6954C25.7447 57.6338 25.9805 57.4907 26.1572 57.2864C26.3343 57.0826 26.4302 56.8197 26.4261 56.5486V34.9238C26.4317 34.6444 26.3361 34.3725 26.1572 34.1593C25.9802 33.9561 25.7443 33.8143 25.483 33.7541L22.9301 33.2456V32.332H33.5354V33.2456L31.0015 33.7541C30.7365 33.8172 30.4979 33.963 30.3197 34.1707C30.1328 34.38 30.0325 34.6536 30.0394 34.9353V44.4422H43.5006V34.9238C43.5056 34.7887 43.4841 34.654 43.4373 34.5274C43.3905 34.4008 43.3193 34.2848 43.2279 34.186C43.0446 33.9875 42.8137 33.8401 42.5575 33.7579L40.0046 33.2495V32.3358H50.6099V33.2495L48.0609 33.7579C47.7956 33.8079 47.5566 33.9515 47.3867 34.1631C47.2063 34.3758 47.1094 34.6477 47.114 34.9276V56.5524C47.1022 56.8335 47.2001 57.108 47.3867 57.3169C47.5683 57.5097 47.8032 57.6429 48.0609 57.6992L50.6099 58.2229V59.1365H40.0046V58.2229L42.5575 57.6992C42.8181 57.6376 43.0527 57.4945 43.2279 57.2902C43.4077 57.0878 43.5051 56.8242 43.5006 56.5524V45.9484H30.0432V56.5486C30.032 56.8289 30.1283 57.1027 30.3122 57.3131C30.4992 57.5089 30.741 57.6422 31.0053 57.6954L33.5392 58.2191V59.1327H22.9339L22.9301 58.2191Z" fill="#3A3A39"/>
<path d="M52.5189 58.2191L55.0717 57.6954C55.332 57.6329 55.5663 57.4898 55.7421 57.2864C55.9219 57.0839 56.0194 56.8204 56.0148 56.5486V34.9238C56.0223 34.6434 55.925 34.3705 55.7421 34.1593C55.5659 33.957 55.3316 33.8153 55.0717 33.7541L52.5189 33.2456V32.332H72.6841V38.6127H71.5478L70.1236 34.4727C70.0636 34.2935 69.9683 34.1283 69.8434 33.9872C69.7709 33.9182 69.6849 33.8652 69.591 33.8317C69.4971 33.7981 69.3973 33.7847 69.2979 33.7923H59.6282V44.4269H65.9762C66.1852 44.4457 66.3935 44.3843 66.5595 44.2549C66.6844 44.1285 66.7801 43.9757 66.8398 43.8076L67.9761 40.6157H68.9608V49.7366H67.9761L66.8398 46.5867C66.7848 46.4018 66.6889 46.2319 66.5595 46.0898C66.4791 46.0219 66.3861 45.9707 66.286 45.9393C66.1859 45.9078 66.0806 45.8966 65.9762 45.9063H59.6282V57.6724H71.0402C71.1384 57.6801 71.2371 57.6674 71.3302 57.6352C71.4233 57.603 71.509 57.5519 71.5819 57.4851C71.7121 57.3451 71.8081 57.1762 71.8621 56.992L73.2068 52.3054H74.343V59.148H52.5189V58.2191Z" fill="#3A3A39"/>
<path d="M0.109863 90.8911L2.6627 90.2527C2.9251 90.1887 3.16014 90.0413 3.3331 89.8322C3.51052 89.6313 3.6077 89.3711 3.60581 89.102V67.611C3.61521 67.3304 3.51761 67.0567 3.3331 66.8465C3.15832 66.6418 2.92352 66.4986 2.6627 66.4375L0.109863 65.9329V65.0155H8.3441L14.783 82.3054L16.192 86.2656L24.146 65.0078H32.2893V65.9253L29.7365 66.4298C29.4754 66.4922 29.2415 66.6384 29.0699 66.8465C28.8867 67.0575 28.7893 67.3306 28.7972 67.611V89.2358C28.7854 89.5169 28.8833 89.7914 29.0699 90.0004C29.2501 90.1931 29.4837 90.3263 29.7403 90.3826L32.2931 90.9063V91.8238H21.6613V90.9063L24.2141 90.3826C24.4764 90.3226 24.7127 90.1792 24.8883 89.9736C25.0662 89.7702 25.1621 89.507 25.1573 89.2358V66.8771L24.0929 69.832L17.5442 87.3551L15.4572 91.8085H14.6315L6.43894 69.8702L5.33296 66.8465V89.1097C5.32013 89.3902 5.41667 89.6647 5.60188 89.8742C5.78007 90.0752 6.01562 90.2154 6.27608 90.2756L8.82891 90.914V91.8314H0.117434L0.109863 90.8911Z" fill="#3A3A39"/>
<path d="M34.1755 90.8912L36.7284 90.3675C36.9896 90.3075 37.2247 90.164 37.3988 89.9585C37.5793 89.7565 37.6768 89.4927 37.6715 89.2207V67.6112C37.6809 67.3305 37.5833 67.0569 37.3988 66.8467C37.2247 66.6411 36.9896 66.4977 36.7284 66.4376L34.1755 65.933V65.0156H44.7808V65.933L42.2507 66.4376C41.9863 66.4977 41.7476 66.6409 41.5689 66.8467C41.3793 67.0545 41.2774 67.3288 41.2849 67.6112V89.236C41.2731 89.5171 41.371 89.7916 41.5576 90.0005C41.7446 90.1963 41.9865 90.3297 42.2507 90.3828L44.7808 90.9065V91.824H34.1755V90.8912Z" fill="#3A3A39"/>
<path d="M44.599 90.89L46.3261 90.4045C46.5973 90.3248 46.8428 90.1745 47.0382 89.9687C47.2389 89.7638 47.3995 89.5226 47.5117 89.2577L55.4656 69.0741L57.8973 64.6016H58.6775L68.5253 89.2577C68.6359 89.5235 68.7967 89.765 68.9987 89.9687C69.1928 90.1761 69.4389 90.3267 69.7108 90.4045L71.4379 90.89V91.8074H61.6735V90.89L65.1695 90.2516L61.8364 81.8418H52.1136L49.0002 90.1637L52.409 90.8824V91.7998H44.599V90.89ZM61.2076 80.37L57.9162 72.1666L56.9087 69.5404L52.7423 80.37H61.2076Z" fill="#3A3A39"/>
<path d="M71.294 90.8911L73.8468 90.2527C74.1096 90.1898 74.345 90.0422 74.5172 89.8322C74.6946 89.6313 74.7918 89.3711 74.79 89.102V67.6722C74.8017 67.3911 74.7038 67.1166 74.5172 66.9077C74.337 66.715 74.1033 66.5817 73.8468 66.5254L71.1122 65.9253V65.0078H77.8617L91.1372 83.4827L93.031 86.1586V67.7143C93.0377 67.575 93.017 67.4357 92.9702 67.3045C92.9234 67.1733 92.8514 67.0528 92.7583 66.9497C92.5789 66.7561 92.3449 66.6227 92.0879 66.5675L89.5351 65.9291V65.0116H98.2731V65.9291L95.724 66.5675C95.4597 66.6306 95.2206 66.7732 95.0384 66.9765C94.855 67.1787 94.7547 67.4439 94.7582 67.7181V87.3589L94.156 92.0034H93.0197L78.6268 72.0148L76.5171 69.0369V89.1059C76.5104 89.2451 76.5311 89.3844 76.5779 89.5156C76.6247 89.6468 76.6967 89.7674 76.7898 89.8704C76.9666 90.0711 77.2009 90.2113 77.4602 90.2718L80.013 90.9102V91.8276H71.3016L71.294 90.8911Z" fill="#3A3A39"/>
<path d="M62.3363 20.7881C62.3127 20.8647 62.2796 20.9379 62.2378 21.006C62.1985 21.0657 62.1528 21.1208 62.1015 21.1704C62.0543 21.2137 62.005 21.2545 61.9538 21.2927C61.8802 21.3432 61.798 21.3795 61.7113 21.3998C61.63 21.415 61.5465 21.415 61.4652 21.3998C61.301 21.3686 61.154 21.2774 61.0523 21.1436C60.9979 21.0744 60.9587 20.9943 60.9372 20.9086C60.9156 20.823 60.9123 20.7337 60.9273 20.6467C60.9429 20.5632 60.9697 20.4821 61.0069 20.4059C61.0442 20.3272 61.0899 20.2528 61.1432 20.1841C61.1926 20.1152 61.2484 20.0512 61.3099 19.993C61.3652 19.9398 61.4248 19.8912 61.4879 19.8478L61.5447 19.8095L61.6204 19.7675L61.7 19.7178L61.7568 19.6796L61.4917 19.324C61.451 19.2713 61.4053 19.2226 61.3553 19.1788C61.3178 19.1484 61.2737 19.1274 61.2265 19.1176C61.1843 19.1065 61.14 19.1065 61.0978 19.1176C61.0461 19.1371 60.9976 19.1641 60.9538 19.1979C60.888 19.2439 60.8304 19.3008 60.7834 19.3661C60.7378 19.431 60.6985 19.5001 60.666 19.5725C60.6335 19.6402 60.6069 19.7105 60.5864 19.7828C60.5637 19.8478 60.5448 19.9089 60.5296 19.9586L60.488 19.9892L60.1887 19.7216C60.2136 19.6679 60.2415 19.6155 60.2721 19.5649C60.3047 19.5054 60.3427 19.4491 60.3857 19.3967C60.4307 19.3382 60.4801 19.2832 60.5334 19.2323C60.5911 19.1753 60.6532 19.1229 60.719 19.0756C60.8065 19.0153 60.9005 18.9653 60.9993 18.9265C61.0999 18.8887 61.2063 18.8693 61.3137 18.8692C61.4234 18.8686 61.5319 18.892 61.6318 18.938C61.7468 18.9954 61.8448 19.0825 61.9159 19.1903L62.6734 20.23C62.6878 20.2473 62.7044 20.2627 62.7226 20.2759C62.7439 20.2798 62.7657 20.2798 62.787 20.2759C62.8108 20.2809 62.8353 20.2809 62.859 20.2759C62.8873 20.2657 62.9141 20.2515 62.9385 20.2338C62.9506 20.2274 62.9609 20.2183 62.9688 20.2071L63.0105 20.1612C63.0287 20.1466 63.0453 20.1299 63.0597 20.1115L63.0976 20.0656L63.1696 20.1612C63.1696 20.188 63.1468 20.2224 63.1317 20.2644C63.1161 20.3074 63.0958 20.3484 63.0711 20.3868C63.0482 20.4298 63.0215 20.4707 62.9916 20.5091C62.9647 20.5467 62.9314 20.5791 62.8931 20.6047C62.849 20.6401 62.7989 20.6672 62.7454 20.6849C62.7006 20.6961 62.6538 20.6961 62.609 20.6849C62.561 20.6764 62.5156 20.6568 62.4764 20.6276C62.4246 20.5872 62.3787 20.5396 62.3401 20.4861C62.3553 20.5863 62.354 20.6884 62.3363 20.7881ZM61.8325 19.7866C61.719 19.865 61.6126 19.9532 61.5144 20.0504C61.435 20.1246 61.3696 20.2126 61.3212 20.3103C61.2799 20.3889 61.2615 20.4777 61.2682 20.5664C61.2752 20.6563 61.3096 20.7418 61.3667 20.8111C61.4088 20.8725 61.4629 20.9245 61.5258 20.964C61.5771 20.9932 61.6338 21.0114 61.6924 21.0175C61.7448 21.0289 61.7991 21.0289 61.8515 21.0175C61.9011 21.0041 61.9475 20.9807 61.9878 20.9487C62.0293 20.9214 62.0675 20.8894 62.1015 20.8531C62.1373 20.8135 62.1702 20.7713 62.1999 20.727C62.2282 20.6819 62.2499 20.633 62.2643 20.5817C62.2832 20.5304 62.291 20.4757 62.2871 20.4212L61.8325 19.7866Z" fill="#3A3A39"/>
<path d="M65.5671 20.1866L65.7906 20.0184C65.8162 19.998 65.8348 19.9699 65.8436 19.9381C65.8501 19.9237 65.8535 19.9081 65.8535 19.8923C65.8535 19.8764 65.8501 19.8608 65.8436 19.8464L64.643 17.3426C64.6257 17.3069 64.598 17.2775 64.5634 17.2585C64.5176 17.2454 64.4691 17.2454 64.4233 17.2585H64.1809L64.1506 17.2011L64.7983 16.7233L64.9687 17.0788C64.9858 16.979 65.0178 16.8823 65.0634 16.7921C65.1007 16.7184 65.1479 16.6503 65.2035 16.5895C65.2502 16.5388 65.3037 16.495 65.3626 16.4595L65.5103 16.3792C65.6387 16.3207 65.7785 16.292 65.9194 16.2952C66.0512 16.2973 66.1808 16.33 66.2981 16.3907C66.4232 16.4524 66.5351 16.5381 66.6277 16.643C66.7305 16.7579 66.8171 16.8865 66.8852 17.0253C66.9631 17.1825 67.0143 17.3517 67.0367 17.526C67.0611 17.6838 67.0547 17.8448 67.0178 18C66.9807 18.1489 66.9108 18.2874 66.8133 18.4053C66.7103 18.5306 66.5809 18.6312 66.4345 18.6996C66.3749 18.7263 66.3127 18.7468 66.2489 18.7608C66.1935 18.7663 66.1377 18.7663 66.0822 18.7608C66.0319 18.7668 65.9811 18.7668 65.9308 18.7608C65.8854 18.7543 65.8409 18.7428 65.7982 18.7264L65.8399 18.8143L66.2451 19.6591C66.2583 19.6909 66.2826 19.7167 66.3133 19.7317C66.3439 19.7431 66.3774 19.7431 66.408 19.7317L66.7489 19.6476L66.7981 19.747L65.6391 20.2669L65.5671 20.1866ZM65.7186 18.6308C65.7626 18.6372 65.8072 18.6372 65.8512 18.6308H66.0103L66.1618 18.5964C66.2005 18.5849 66.2385 18.5708 66.2754 18.5543C66.3828 18.5093 66.4768 18.4369 66.5481 18.3441C66.6097 18.2591 66.6512 18.1611 66.6693 18.0574C66.69 17.9475 66.69 17.8347 66.6693 17.7248C66.6462 17.604 66.6067 17.4869 66.5519 17.377C66.4917 17.2496 66.418 17.1291 66.3322 17.0176C66.2583 16.9204 66.1687 16.8363 66.0671 16.7692C65.9752 16.709 65.8696 16.6734 65.7603 16.6659C65.643 16.6565 65.5252 16.6789 65.4194 16.7309C65.3792 16.7482 65.3411 16.77 65.3058 16.7959C65.2632 16.8246 65.2238 16.858 65.1884 16.8953C65.1506 16.9336 65.1187 16.9774 65.0937 17.0253C65.0631 17.0766 65.0437 17.134 65.0369 17.1935L65.7186 18.6308Z" fill="#3A3A39"/>
<path d="M69.8471 18.4781L70.1047 18.3596C70.1334 18.3454 70.1571 18.3227 70.1729 18.2946C70.1794 18.2796 70.1828 18.2633 70.1828 18.2469C70.1828 18.2304 70.1794 18.2141 70.1729 18.1991L69.5214 15.5232C69.5119 15.4856 69.4907 15.4521 69.4608 15.4277C69.4213 15.401 69.3756 15.3852 69.3282 15.3818L69.082 15.355V15.2939L69.8168 14.9536L69.9077 15.3359C69.9442 15.2409 69.9968 15.1529 70.063 15.076C70.1553 14.9541 70.2801 14.8612 70.4228 14.8084C70.476 14.7882 70.5304 14.7716 70.5857 14.7587C70.7227 14.7263 70.8653 14.7263 71.0023 14.7587C71.1289 14.7873 71.2478 14.8434 71.3508 14.9231C71.4586 15.0102 71.5497 15.1164 71.6197 15.2365C71.6984 15.3707 71.7559 15.5164 71.7902 15.6685C71.8351 15.8391 71.8505 16.0163 71.8356 16.1922C71.8271 16.3515 71.7872 16.5074 71.7182 16.6509C71.6489 16.7965 71.5467 16.9236 71.4197 17.0219C71.2927 17.1202 71.1445 17.1869 70.9872 17.2167C70.9236 17.2307 70.859 17.2396 70.794 17.2434C70.7367 17.2431 70.6796 17.2367 70.6236 17.2243C70.5741 17.2161 70.5258 17.202 70.4797 17.1823L70.3585 17.1211L70.3812 17.2128L70.6009 18.1226C70.6038 18.1395 70.61 18.1556 70.6191 18.17C70.6282 18.1844 70.64 18.1969 70.6539 18.2067C70.6806 18.2252 70.7124 18.2346 70.7448 18.2335H71.097L71.1236 18.3405L69.8812 18.6234L69.8471 18.4781ZM70.3206 16.9873C70.3621 17.0044 70.4053 17.0172 70.4493 17.0255C70.501 17.0295 70.5529 17.0295 70.6046 17.0255H70.7599H70.8811C70.996 17.0023 71.1029 16.9497 71.1917 16.8726C71.2704 16.8028 71.3314 16.7149 71.3697 16.6165C71.411 16.5118 71.4328 16.4004 71.4341 16.2878C71.4366 16.1591 71.4226 16.0306 71.3925 15.9055C71.3594 15.7734 71.3124 15.6452 71.2523 15.5232C71.2009 15.4133 71.1303 15.3136 71.044 15.2289C70.9656 15.1514 70.8693 15.0949 70.7637 15.0645C70.6493 15.0357 70.5297 15.0357 70.4153 15.0645L70.2903 15.1066C70.2434 15.1254 70.1989 15.1498 70.1577 15.1792C70.1125 15.2119 70.0706 15.249 70.0327 15.29C69.9957 15.336 69.9663 15.3876 69.9456 15.443L70.3206 16.9873Z" fill="#3A3A39"/>
<path d="M75.6876 16.4268C75.624 16.478 75.554 16.5204 75.4793 16.553C75.4126 16.5827 75.3427 16.6045 75.271 16.6179C75.2067 16.623 75.1421 16.623 75.0778 16.6179C74.9887 16.6239 74.8994 16.6095 74.8165 16.5759C74.7388 16.5478 74.6678 16.5036 74.6082 16.4459C74.549 16.391 74.5014 16.3247 74.468 16.251C74.4331 16.1769 74.4149 16.096 74.415 16.014C74.4085 15.9227 74.4228 15.8312 74.4567 15.7464C74.4893 15.6666 74.5369 15.5939 74.5968 15.5323C74.6556 15.4687 74.7248 15.4157 74.8013 15.3756C74.8771 15.3309 74.9571 15.2938 75.0399 15.2647C75.1213 15.2359 75.2049 15.2142 75.2899 15.1997C75.3673 15.1839 75.4459 15.175 75.5248 15.173H75.8391V14.7334C75.8396 14.6674 75.8307 14.6018 75.8126 14.5384C75.7997 14.493 75.7748 14.4521 75.7406 14.4199C75.7092 14.3892 75.6698 14.3681 75.627 14.3587C75.573 14.3506 75.5181 14.3506 75.4642 14.3587C75.381 14.3601 75.2988 14.3769 75.2217 14.4084C75.147 14.4366 75.0748 14.4712 75.0059 14.5117C74.9377 14.5537 74.8771 14.5996 74.8203 14.6416L74.6726 14.7601H74.6195L74.5248 14.3779L74.6839 14.2938C74.7451 14.2637 74.8084 14.2381 74.8733 14.2173C74.9452 14.1932 75.0186 14.1741 75.093 14.16C75.1738 14.1416 75.2563 14.1313 75.3392 14.1294C75.4448 14.1265 75.5504 14.1367 75.6535 14.16C75.7595 14.181 75.8609 14.2211 75.9528 14.2785C76.0502 14.3426 76.1301 14.4306 76.1851 14.5341C76.24 14.6377 76.2682 14.7535 76.2671 14.871L76.3012 16.1478C76.2952 16.169 76.2952 16.1915 76.3012 16.2127C76.3106 16.2327 76.3249 16.2498 76.3429 16.2624C76.3618 16.2765 76.384 16.2857 76.4073 16.2892C76.4385 16.2954 76.4707 16.2954 76.502 16.2892H76.5398H76.6004H76.6686L76.7292 16.2701H76.7519V16.3848L76.661 16.4536L76.5398 16.5224L76.4035 16.5797C76.3595 16.5952 76.3136 16.6043 76.2671 16.6065C76.2106 16.6147 76.1532 16.6147 76.0967 16.6065C76.0514 16.5968 76.0087 16.5772 75.9717 16.5491C75.935 16.5168 75.9087 16.4742 75.8959 16.4268C75.8749 16.3666 75.8634 16.3033 75.8618 16.2395C75.8136 16.3105 75.7548 16.3737 75.6876 16.4268ZM75.8467 15.3221C75.707 15.3281 75.5678 15.3434 75.4301 15.3679C75.3214 15.3902 75.2167 15.4289 75.1195 15.4826C75.0409 15.5248 74.9744 15.5866 74.9263 15.6623C74.8806 15.7408 74.8594 15.8314 74.8657 15.9222C74.8663 15.9964 74.8832 16.0695 74.9149 16.1363C74.9384 16.1893 74.9749 16.2353 75.021 16.2701C75.0622 16.3039 75.1099 16.3287 75.1612 16.3427C75.2114 16.35 75.2624 16.35 75.3127 16.3427C75.3625 16.34 75.412 16.3323 75.4604 16.3198C75.5136 16.3085 75.5657 16.2918 75.6157 16.2701C75.6652 16.2472 75.7122 16.219 75.7558 16.186C75.7981 16.1522 75.8351 16.1123 75.8656 16.0675L75.8467 15.3221Z" fill="#3A3A39"/>
<path d="M78.9374 16.556L79.2252 16.533C79.2578 16.5309 79.2886 16.5174 79.3124 16.4948C79.336 16.4724 79.352 16.4429 79.3578 16.4107L79.5926 14.8243C79.6043 14.787 79.6043 14.7469 79.5926 14.7096C79.5658 14.6688 79.5276 14.6368 79.4828 14.6179L79.2669 14.507V14.442L80.0699 14.3809L79.9903 14.9122L80.1494 14.7364C80.2087 14.6792 80.2734 14.628 80.3426 14.5835C80.4113 14.5411 80.4852 14.5077 80.5623 14.4841C80.647 14.4647 80.735 14.4647 80.8198 14.4841L80.9372 14.507L81.0243 14.5376L81.0963 14.5682L81.1721 14.6102L81.0887 15.1722H80.96L80.9107 14.9581C80.9082 14.9476 80.9036 14.9377 80.897 14.9291C80.8905 14.9206 80.8823 14.9135 80.8728 14.9084C80.8519 14.8926 80.829 14.8798 80.8047 14.8702L80.7213 14.8396H80.638C80.5803 14.8301 80.5215 14.8301 80.4638 14.8396C80.4082 14.8477 80.3536 14.8618 80.3009 14.8816C80.2481 14.9052 80.1974 14.9334 80.1494 14.9657C80.0961 15.0057 80.0455 15.0491 79.9979 15.0957L79.7896 16.5215C79.7775 16.5522 79.7775 16.5864 79.7896 16.6171C79.8077 16.6443 79.8344 16.6645 79.8653 16.6745L80.1759 16.7815V16.8885L78.9336 16.7165L78.9374 16.556Z" fill="#3A3A39"/>
<path d="M85.1263 17.559L85.0695 17.7233C85.0008 17.7553 84.93 17.7821 84.8574 17.8036C84.7746 17.8291 84.6897 17.847 84.6036 17.8571C84.5105 17.8668 84.4165 17.8668 84.3234 17.8571C84.2267 17.8523 84.1312 17.8343 84.0393 17.8036C83.8928 17.7597 83.7563 17.6869 83.6378 17.5895C83.5275 17.5013 83.4404 17.3871 83.384 17.257C83.3216 17.1205 83.2905 16.9715 83.2931 16.8212C83.2937 16.6411 83.3257 16.4625 83.3878 16.2937C83.4399 16.1394 83.5166 15.9947 83.6151 15.8655C83.7086 15.7407 83.8241 15.6344 83.956 15.5521C84.0886 15.4724 84.2352 15.4192 84.3877 15.3953C84.551 15.3745 84.7168 15.3915 84.8726 15.445C85.0019 15.4825 85.121 15.5491 85.221 15.64C85.3103 15.7215 85.3824 15.8203 85.4331 15.9305C85.4797 16.0351 85.5043 16.1484 85.5051 16.2631C85.5082 16.3785 85.4915 16.4936 85.4558 16.6033L85.4369 16.6492C85.4369 16.6492 85.4369 16.6759 85.4369 16.695L85.4142 16.7371L85.3953 16.7715L83.8802 16.286C83.7713 16.5523 83.7475 16.8463 83.812 17.127C83.8493 17.2397 83.9145 17.3409 84.0013 17.4212C84.0881 17.5015 84.1937 17.5581 84.3082 17.5857C84.3916 17.6141 84.4781 17.6321 84.5658 17.6392C84.6401 17.6452 84.7149 17.6452 84.7892 17.6392C84.8533 17.6317 84.9166 17.6189 84.9786 17.601L85.1225 17.5513L85.1263 17.559ZM85.0203 16.4963C85.0531 16.4019 85.0772 16.3046 85.0922 16.2057C85.1074 16.1185 85.1074 16.0292 85.0922 15.942C85.0804 15.8633 85.0477 15.7893 84.9975 15.7279C84.9468 15.6625 84.8764 15.6155 84.7968 15.5941C84.7149 15.568 84.6283 15.5602 84.543 15.5712C84.4599 15.5869 84.3803 15.618 84.3082 15.6629C84.229 15.7164 84.1587 15.7822 84.0999 15.8579C84.0315 15.9474 83.9719 16.0434 83.9219 16.1446L85.0203 16.4963Z" fill="#3A3A39"/>
<path d="M87.1224 18.8543L87.3913 18.9231C87.4236 18.9317 87.4579 18.9293 87.4888 18.9161C87.5196 18.903 87.5452 18.8799 87.5617 18.8505L88.9366 16.3161C88.9549 16.2822 88.9628 16.2436 88.9593 16.2052C88.9458 16.1602 88.921 16.1194 88.8874 16.0867L88.7207 15.9109L88.751 15.8535L89.5578 16.0523L87.9329 19.0416C87.9222 19.0726 87.9222 19.1062 87.9329 19.1372C87.9417 19.168 87.9588 19.1957 87.9821 19.2175L88.1677 19.378L88.1147 19.4774L87.0845 18.9537L87.1224 18.8543Z" fill="#3A3A39"/>
<path d="M93.762 23.5063C93.6805 23.495 93.6004 23.4745 93.5234 23.4451C93.4563 23.4172 93.3927 23.3813 93.334 23.3381C93.2839 23.3 93.2358 23.2592 93.1901 23.2158C93.1259 23.1547 93.0755 23.0804 93.0424 22.9979C93.0139 22.9235 92.9998 22.8444 93.0007 22.7647C93.0048 22.684 93.0241 22.6049 93.0575 22.5315C93.0915 22.456 93.1405 22.3883 93.2015 22.3327C93.2676 22.2649 93.3478 22.2127 93.4363 22.1798C93.5182 22.1526 93.6038 22.1384 93.6901 22.1378C93.7773 22.1371 93.8642 22.15 93.9476 22.176C94.0327 22.1992 94.1152 22.2312 94.1938 22.2716C94.2701 22.3108 94.3436 22.3555 94.4135 22.4054C94.4766 22.4503 94.5361 22.5001 94.5915 22.5544L94.637 22.6041L94.6938 22.6691L94.7544 22.7379L94.7998 22.7838L95.1256 22.478C95.175 22.4329 95.2183 22.3816 95.2543 22.3251C95.2795 22.2863 95.2938 22.2414 95.296 22.1951C95.2972 22.1523 95.2868 22.11 95.2657 22.0728C95.1921 21.9572 95.0868 21.8655 94.9627 21.809C94.8205 21.7419 94.6682 21.6992 94.512 21.6829L94.3226 21.6561L94.2847 21.6179L94.512 21.293L94.6862 21.3465C94.7494 21.3713 94.8114 21.3994 94.8718 21.4306C94.9386 21.4658 95.0032 21.5054 95.065 21.5491C95.1303 21.5956 95.1923 21.6467 95.2505 21.702C95.3249 21.7764 95.3898 21.8599 95.4437 21.9505C95.4978 22.0396 95.5351 22.1381 95.5536 22.241C95.5692 22.3474 95.5601 22.456 95.5271 22.5583C95.483 22.6777 95.4101 22.7841 95.315 22.8679L94.3643 23.7548C94.3491 23.772 94.3363 23.7913 94.3264 23.8121C94.3203 23.832 94.3203 23.8533 94.3264 23.8733C94.3311 23.8958 94.3388 23.9177 94.3491 23.9382C94.3641 23.9653 94.3833 23.9898 94.4059 24.0109L94.4362 24.0338L94.4892 24.0682L94.5461 24.1064L94.5991 24.137L94.512 24.2211L94.4021 24.1982C94.3567 24.1903 94.3123 24.1775 94.2696 24.16C94.2223 24.1455 94.1767 24.1263 94.1332 24.1026C94.0913 24.0822 94.0529 24.0551 94.0196 24.0223C93.9778 23.9848 93.9421 23.9409 93.9135 23.8924C93.8901 23.853 93.877 23.8083 93.8756 23.7624C93.8762 23.7152 93.8893 23.669 93.9135 23.6286C93.9478 23.5719 93.9899 23.5204 94.0385 23.4757C93.9487 23.5013 93.8552 23.5117 93.762 23.5063ZM94.7089 22.8717C94.6101 22.7768 94.5051 22.6886 94.3945 22.608C94.3038 22.545 94.2042 22.4961 94.0991 22.4627C94.0094 22.4419 93.9161 22.4419 93.8264 22.4627C93.737 22.4836 93.6555 22.53 93.5916 22.5965C93.5358 22.6452 93.4907 22.7051 93.459 22.7723C93.4365 22.8254 93.4261 22.8829 93.4287 22.9405C93.4309 22.9928 93.4452 23.0439 93.4704 23.0896C93.4915 23.1345 93.5211 23.1747 93.5575 23.2081C93.5934 23.2438 93.6327 23.2759 93.6749 23.3037C93.7196 23.3317 93.7665 23.356 93.8151 23.3763C93.8657 23.3991 93.9192 23.4146 93.9741 23.4222C94.0305 23.4317 94.0882 23.4317 94.1446 23.4222L94.7089 22.8717Z" fill="#3A3A39"/>
<path d="M95.8717 25.8982L96.0763 26.0855C96.0996 26.1092 96.1304 26.124 96.1634 26.1275C96.197 26.1289 96.2301 26.1195 96.2581 26.1008L97.6443 25.2177C97.6771 25.1971 97.7024 25.1662 97.7163 25.1298C97.7313 25.0852 97.7313 25.0368 97.7163 24.9922L97.6595 24.759L97.7163 24.7246L98.3034 25.2751L97.9625 25.493C98.0582 25.4964 98.1533 25.5092 98.2466 25.5312C98.3238 25.551 98.3977 25.5819 98.4662 25.6229C98.5266 25.6562 98.5816 25.6988 98.6291 25.7491C98.6749 25.7979 98.7166 25.8503 98.7541 25.9058C98.8121 25.9896 98.8556 26.0826 98.8829 26.181C98.9057 26.2739 98.9057 26.371 98.8829 26.4639C98.8593 26.5655 98.814 26.6608 98.7503 26.743C98.6675 26.8462 98.5675 26.9342 98.4549 27.0029L97.3565 27.7025C97.325 27.7202 97.3008 27.7486 97.2883 27.7827C97.2808 27.8128 97.2808 27.8444 97.2883 27.8745L97.3716 28.1039L97.2731 28.165L96.633 27.2246L96.7277 27.1635L96.9323 27.3546C96.9571 27.3748 96.9875 27.3869 97.0194 27.389C97.056 27.3913 97.0922 27.3805 97.1216 27.3584L98.0875 26.743C98.174 26.6896 98.2563 26.6295 98.3337 26.5633C98.3969 26.5125 98.4485 26.4487 98.4852 26.376C98.5194 26.3103 98.5313 26.2351 98.5193 26.1619C98.5044 26.0698 98.4666 25.983 98.4094 25.9096C98.381 25.8666 98.3479 25.8269 98.3109 25.7911C98.2733 25.7494 98.2299 25.7134 98.1822 25.6841C98.1346 25.652 98.0838 25.6251 98.0307 25.6038C97.9754 25.5848 97.9182 25.572 97.8602 25.5656L96.4853 26.4448C96.4563 26.4616 96.4346 26.489 96.4247 26.5213C96.4152 26.5511 96.4152 26.5832 96.4247 26.613L96.5043 26.8424L96.4096 26.9035L95.777 25.944L95.8717 25.8982Z" fill="#3A3A39"/>
<path d="M99.3109 31.5799C99.2057 31.5561 99.1048 31.5162 99.0117 31.4614C98.9395 31.4195 98.8733 31.3681 98.8147 31.3085C98.7685 31.2598 98.7278 31.2059 98.6935 31.1479C98.667 31.0944 98.6443 31.0486 98.6291 31.0103C98.5727 30.8889 98.548 30.7549 98.5573 30.6211C98.5665 30.4873 98.6095 30.3581 98.6821 30.2458C98.7532 30.1263 98.8472 30.0223 98.9587 29.94C99.0856 29.8433 99.226 29.766 99.3753 29.7106C99.5442 29.6451 99.7214 29.6039 99.9018 29.5883C100.068 29.5752 100.234 29.592 100.394 29.638C100.544 29.6787 100.682 29.7532 100.799 29.8559C100.922 29.9585 101.018 30.0897 101.08 30.2381C101.105 30.2971 101.124 30.3586 101.137 30.4216C101.142 30.475 101.142 30.5288 101.137 30.5822C101.128 30.675 101.104 30.7656 101.065 30.8498L101.167 30.8115L102 30.4905C102.037 30.4787 102.069 30.4544 102.091 30.4216C102.115 30.3816 102.125 30.3342 102.118 30.2878V30.0202L102.178 29.9973L102.67 30.6816L99.5685 31.8781C99.5312 31.8898 99.4992 31.9141 99.4776 31.9469C99.4527 31.9881 99.4446 32.0374 99.4548 32.0845V32.3177L99.3904 32.3444L98.9359 31.7443L98.917 31.6984L99.3109 31.5799ZM100.958 30.9148C100.971 30.8738 100.979 30.8314 100.981 30.7886C100.981 30.7389 100.981 30.6892 100.981 30.6357C100.981 30.5822 100.962 30.5363 100.951 30.4905C100.942 30.4527 100.931 30.4156 100.917 30.3796C100.875 30.2716 100.806 30.1766 100.716 30.1044C100.631 30.0389 100.533 29.9921 100.428 29.9667C100.314 29.9491 100.198 29.9491 100.084 29.9667C99.9541 29.9816 99.8269 30.0124 99.7048 30.0585C99.5718 30.1108 99.4448 30.1774 99.326 30.2573C99.2222 30.3214 99.1311 30.4043 99.0571 30.5019C98.9937 30.5872 98.9521 30.687 98.9359 30.7924C98.9216 30.9058 98.9387 31.0209 98.9852 31.125C99.0025 31.1647 99.0227 31.203 99.0458 31.2397C99.0728 31.2838 99.1045 31.3249 99.1405 31.362C99.1786 31.4005 99.2205 31.4351 99.2654 31.4652C99.3153 31.4922 99.369 31.5116 99.4245 31.5226L100.958 30.9148Z" fill="#3A3A39"/>
<path d="M100.546 37.7571L100.614 38.0246C100.622 38.0557 100.641 38.0829 100.667 38.1011C100.697 38.1184 100.731 38.1276 100.765 38.1279L102.424 38.1011C102.464 38.1025 102.502 38.0904 102.534 38.0667C102.566 38.0349 102.59 37.9954 102.602 37.952L102.682 37.7227H102.75L102.943 38.4872H102.549C102.625 38.5368 102.694 38.5945 102.758 38.6592C102.812 38.7105 102.858 38.7698 102.894 38.835C102.927 38.8934 102.952 38.9566 102.966 39.0224C102.981 39.0902 102.99 39.1593 102.992 39.2288C102.993 39.3046 102.985 39.3801 102.97 39.4543C102.952 39.5245 102.924 39.5915 102.886 39.6531C102.849 39.7153 102.8 39.7698 102.742 39.8137C102.679 39.8621 102.607 39.8983 102.53 39.9207C102.627 39.9807 102.716 40.0526 102.795 40.1348C102.853 40.195 102.901 40.2633 102.939 40.3374C102.97 40.397 102.991 40.4617 103 40.5285C103.005 40.5883 103.005 40.6484 103 40.7082C103.004 40.8055 102.99 40.9028 102.958 40.9949C102.926 41.0841 102.874 41.165 102.807 41.2319C102.73 41.3032 102.64 41.3579 102.542 41.3924C102.419 41.4326 102.292 41.4545 102.163 41.4574H100.83C100.797 41.4562 100.764 41.467 100.739 41.488C100.717 41.51 100.701 41.5378 100.693 41.5683L100.637 41.8053H100.519L100.5 40.6814H100.61L100.678 40.9452C100.686 40.9762 100.705 41.0034 100.731 41.0216C100.761 41.0402 100.795 41.0496 100.83 41.0484L101.996 41.0293C102.099 41.0282 102.201 41.0205 102.303 41.0063C102.384 40.9954 102.462 40.9695 102.534 40.9299C102.598 40.8962 102.65 40.8426 102.682 40.777C102.72 40.6961 102.737 40.6065 102.731 40.517C102.73 40.468 102.724 40.4193 102.712 40.3718C102.701 40.3192 102.684 40.268 102.663 40.2189C102.631 40.1702 102.593 40.1264 102.549 40.0889C102.513 40.0426 102.469 40.0026 102.42 39.9704L100.777 39.9933C100.743 39.9928 100.711 40.0051 100.686 40.0277C100.662 40.0486 100.646 40.0769 100.64 40.108L100.58 40.3412H100.466V39.1944H100.576L100.644 39.4581C100.647 39.4735 100.653 39.4882 100.661 39.5013C100.67 39.5145 100.681 39.5258 100.693 39.5346C100.721 39.5536 100.754 39.563 100.788 39.5614L101.958 39.5422C102.061 39.543 102.164 39.5353 102.265 39.5193C102.348 39.5101 102.428 39.4841 102.5 39.4429C102.563 39.4082 102.615 39.3548 102.648 39.2899C102.685 39.2074 102.701 39.1166 102.693 39.0262C102.698 38.9766 102.698 38.9267 102.693 38.8771C102.68 38.8263 102.664 38.7765 102.644 38.728C102.621 38.678 102.593 38.6306 102.561 38.5866C102.524 38.5435 102.482 38.505 102.436 38.4719L100.788 38.4987C100.772 38.4962 100.755 38.4977 100.739 38.503C100.723 38.5083 100.709 38.5173 100.697 38.5292C100.671 38.5485 100.653 38.5773 100.648 38.6095L100.587 38.8465H100.477L100.458 37.7227L100.546 37.7571Z" fill="#3A3A39"/>
<path d="M99.7919 45.0763C99.8279 44.9204 99.8949 44.7734 99.9889 44.6444C100.078 44.5252 100.192 44.4273 100.322 44.3577C100.462 44.2872 100.614 44.2431 100.769 44.2277C100.948 44.214 101.128 44.2282 101.303 44.2698C101.47 44.3043 101.631 44.3677 101.777 44.4571C101.913 44.5349 102.032 44.6388 102.129 44.7629C102.219 44.8845 102.282 45.0239 102.314 45.1719C102.352 45.3328 102.352 45.5003 102.314 45.6612C102.277 45.8309 102.2 45.9892 102.091 46.1238C101.995 46.2419 101.873 46.3361 101.735 46.399C101.594 46.4636 101.443 46.5011 101.288 46.5098C101.124 46.5186 100.96 46.5045 100.799 46.4678C100.634 46.4321 100.476 46.3702 100.33 46.2843C100.194 46.2042 100.075 46.0992 99.9775 45.9747C99.8865 45.8538 99.8231 45.7142 99.7919 45.5657C99.7543 45.4048 99.7543 45.2372 99.7919 45.0763ZM99.9472 45.1452C99.9149 45.2568 99.9243 45.3765 99.9737 45.4816C100.021 45.5829 100.095 45.6699 100.186 45.7339C100.281 45.8093 100.387 45.8698 100.5 45.9135C100.613 45.9568 100.728 45.9926 100.845 46.0206C100.982 46.0518 101.121 46.0697 101.262 46.0741C101.389 46.0792 101.516 46.0676 101.64 46.0397C101.756 46.0124 101.865 45.9602 101.958 45.8868C102.048 45.8108 102.11 45.7075 102.136 45.5924C102.153 45.5156 102.153 45.436 102.136 45.3592C102.121 45.2901 102.091 45.225 102.049 45.1681C102.008 45.1055 101.955 45.0511 101.894 45.0075C101.832 44.9577 101.764 44.9141 101.693 44.8776L101.466 44.7858C101.387 44.7591 101.311 44.74 101.235 44.7208C101.15 44.7004 101.064 44.6863 100.977 44.6788C100.888 44.6732 100.798 44.6732 100.709 44.6788C100.621 44.6829 100.533 44.6931 100.447 44.7094C100.367 44.7245 100.289 44.7515 100.216 44.7896C100.146 44.8263 100.084 44.8771 100.034 44.9387C99.9902 45 99.9604 45.0706 99.9472 45.1452Z" fill="#3A3A39"/>
<path d="M98.9397 48.3936L98.8867 48.665C98.8753 48.6945 98.8753 48.7273 98.8867 48.7568C98.9028 48.786 98.9281 48.8088 98.9586 48.8217L100.474 49.464C100.512 49.4768 100.553 49.4768 100.591 49.464C100.637 49.4492 100.679 49.4229 100.712 49.3875L100.883 49.2117L100.943 49.2384L100.788 50.003L100.284 49.7851L100.413 49.9838C100.455 50.0526 100.489 50.1257 100.515 50.2017C100.539 50.2785 100.552 50.3583 100.553 50.4387C100.557 50.5219 100.54 50.6047 100.504 50.6796C100.487 50.7165 100.468 50.7522 100.447 50.7866C100.447 50.8134 100.413 50.8363 100.398 50.8592C100.382 50.8801 100.364 50.8993 100.345 50.9166L100.288 50.9739L99.7465 50.7446L99.7995 50.6337H100.023C100.043 50.6399 100.064 50.6399 100.084 50.6337L100.14 50.5802C100.159 50.5575 100.175 50.5332 100.19 50.5075C100.206 50.4846 100.219 50.4603 100.231 50.4349C100.255 50.3838 100.271 50.3298 100.281 50.2744C100.288 50.2211 100.288 50.167 100.281 50.1138C100.274 50.0562 100.26 49.9996 100.239 49.9456C100.214 49.886 100.185 49.8285 100.152 49.7736L98.7882 49.1926C98.7553 49.1796 98.7188 49.1796 98.6859 49.1926C98.6551 49.2006 98.6282 49.2196 98.6102 49.2461L98.4208 49.5098L98.3185 49.464L98.8223 48.3516L98.9397 48.3936Z" fill="#3A3A39"/>
<path d="M96.2921 53.8871L96.1407 53.7877C96.1267 53.7147 96.1191 53.6405 96.1179 53.566C96.1086 53.4835 96.1086 53.4001 96.1179 53.3175C96.1304 53.2289 96.152 53.1418 96.1823 53.0576C96.2151 52.9667 96.2597 52.8806 96.3149 52.8015C96.4002 52.6764 96.5081 52.5688 96.633 52.4842C96.7536 52.4073 96.8893 52.3577 97.0307 52.3389C97.184 52.3175 97.3399 52.328 97.489 52.3695C97.6668 52.4183 97.8357 52.4958 97.989 52.5989C98.1324 52.6866 98.2604 52.7977 98.3678 52.9277C98.4633 53.0406 98.5377 53.1701 98.5874 53.3099C98.6334 53.4515 98.6477 53.6017 98.6291 53.7495C98.6059 53.9089 98.5462 54.0608 98.4549 54.193C98.3782 54.3047 98.2788 54.3985 98.1632 54.4682C98.0567 54.529 97.9398 54.5692 97.8186 54.5867C97.7008 54.6019 97.5812 54.5942 97.4663 54.5637C97.351 54.5362 97.2409 54.4897 97.1406 54.4261L97.1027 54.3994L97.061 54.3688L97.0269 54.342L96.9929 54.3115L97.8829 53.0232C97.6441 52.848 97.3598 52.747 97.0648 52.7327C96.9477 52.7392 96.8339 52.7747 96.7335 52.836C96.6331 52.8973 96.5492 52.9826 96.4891 53.0844C96.4412 53.1545 96.4018 53.2303 96.3717 53.3099C96.3456 53.3789 96.3278 53.4507 96.3187 53.524C96.3114 53.5849 96.3114 53.6465 96.3187 53.7075C96.3143 53.7571 96.3143 53.807 96.3187 53.8566L96.2921 53.8871ZM97.3754 54.0706C97.4605 54.1272 97.5505 54.1758 97.6443 54.2159C97.7289 54.2517 97.8182 54.2749 97.9095 54.2847C97.99 54.2938 98.0715 54.2846 98.1481 54.2579C98.2243 54.226 98.2891 54.1713 98.3337 54.1012C98.3843 54.0347 98.4158 53.9553 98.4246 53.8718C98.4331 53.789 98.4227 53.7053 98.3943 53.6272C98.3636 53.5381 98.3174 53.4552 98.2579 53.3825C98.1881 53.293 98.108 53.2121 98.0193 53.1417L97.3754 54.0706Z" fill="#3A3A39"/>
</g>
<defs>
<clipPath id="clip0_271_3882">
<rect width="103" height="92" fill="white"/>
</clipPath>
</defs>
</svg>
