<svg width="146" height="63" viewBox="0 0 146 63" fill="none" xmlns="http://www.w3.org/2000/svg">
<g clip-path="url(#clip0_271_3593)">
<path d="M141.464 14.8613C141.464 10.6893 138.17 7.1729 133.849 6.72888C132.352 6.57392 130.855 6.43088 129.376 6.28188C129.094 6.25506 128.813 6.24318 128.531 6.24318C126.899 6.23792 125.3 6.69584 123.92 7.56329C123.883 7.58738 123.841 7.6038 123.797 7.6116C123.753 7.6194 123.708 7.6184 123.665 7.60869C123.621 7.59898 123.58 7.58078 123.544 7.55507C123.507 7.52936 123.477 7.49666 123.453 7.45896L122.839 6.41C122.694 6.16761 122.492 5.96366 122.251 5.81531C122.009 5.66697 121.736 5.57863 121.453 5.55776L118.414 5.3104C116.917 5.1912 115.395 5.07202 113.901 4.96176C113.686 4.94686 113.47 4.9379 113.255 4.9379C111.986 4.93511 110.732 5.21298 109.584 5.75143C107.289 4.58112 104.772 3.90492 102.197 3.76679C101.841 3.74593 101.484 3.73696 101.131 3.73696C99.7703 3.73252 98.4137 3.88554 97.0886 4.1929C96.3377 3.01078 95.3055 2.03117 94.0833 1.34089C92.8612 0.650598 91.4868 0.270921 90.082 0.235466C88.6029 0.184806 87.1028 0.140118 85.6236 0.0983982H85.3781C84.0567 0.0925092 82.7518 0.389422 81.5643 0.966132C80.3768 1.54284 79.3386 2.38391 78.5302 3.42412C74.7515 3.36452 70.9607 3.33172 67.2059 3.33172H66.8286C66.2747 2.97412 65.7178 2.64034 65.1518 2.34234C63.6929 1.56399 62.1446 0.96461 60.5407 0.557329C59.0285 0.182624 57.4759 -0.00648893 55.9176 -0.0058578H55.4983C52.4056 0.0163305 49.3618 0.764682 46.6144 2.17843C44.8488 3.11219 43.2682 4.35717 41.9493 5.85278C40.5059 4.88058 38.8027 4.36156 37.0598 4.36278C36.8981 4.36278 36.7363 4.36278 36.5777 4.36278L33.0025 4.5654C31.5562 4.65428 30.1552 5.102 28.9273 5.86769C28.2535 5.4212 27.5434 5.03141 26.8044 4.70247C24.6923 3.79238 22.4106 3.33741 20.1092 3.36744C19.5104 3.36744 18.8666 3.39725 18.2318 3.45089C14.7016 3.74889 11.1265 4.10057 7.60821 4.46413C3.27852 4.90815 -0.00616455 8.41256 -0.00616455 12.5965V37.0146C-0.00616455 41.1866 3.2875 44.7029 7.61121 45.1469C10.6384 45.4598 13.7015 45.743 16.7407 46.0261C17.4757 47.0226 18.4206 47.8472 19.5094 48.4423C20.5981 49.0373 21.8043 49.3883 23.0436 49.4709C24.6635 49.5901 26.3044 49.7063 27.9123 49.8136C28.1069 49.8285 28.3075 49.8345 28.5111 49.8345C29.7366 49.843 30.9496 49.5908 32.0692 49.0948C33.1887 48.5989 34.1889 47.8706 35.0027 46.9588C35.7578 48.0365 36.7526 48.9263 37.9097 49.5589C39.0668 50.1915 40.3549 50.55 41.6739 50.6063C43.2728 50.6808 44.8987 50.7553 46.5096 50.8208H46.8719C49.1631 50.8212 51.3621 49.923 52.9922 48.3206C53.1239 48.3206 53.2557 48.3206 53.3875 48.3206H53.4233C53.9713 48.3564 54.5192 48.3743 55.0522 48.3743C57.9876 48.4208 60.896 47.8098 63.5619 46.5863C63.8614 46.4522 64.1218 46.3091 64.3973 46.1572C65.0458 47.7192 66.1486 49.0527 67.564 49.9867C68.9794 50.9207 70.6429 51.4125 72.341 51.399H72.4159C73.8891 51.399 75.3892 51.3721 76.8654 51.3513C78.2683 51.337 79.6463 50.9811 80.8791 50.3146C82.112 49.6481 83.1621 48.6914 83.9378 47.528C84.4128 47.6071 84.8935 47.647 85.3751 47.6472H85.6236C87.0908 47.6054 88.5909 47.5578 90.079 47.5071C90.5261 47.4915 90.9714 47.4437 91.4115 47.3641C91.7249 47.5846 92.0483 47.7961 92.3817 47.9988C95.0174 49.5878 98.0464 50.4134 101.128 50.3828C101.478 50.3828 101.838 50.3828 102.194 50.353C104.794 50.2138 107.334 49.5261 109.647 48.3356C110.807 48.8771 112.074 49.157 113.356 49.1551C113.575 49.1551 113.797 49.155 114.015 49.1312C115.491 49.0209 116.982 48.9047 118.447 48.7885C120.537 48.6254 122.496 47.7113 123.959 46.2167C125.437 47.2586 127.205 47.8168 129.016 47.8141C129.316 47.8141 129.588 47.7991 129.873 47.7723C131.193 47.6442 132.535 47.5101 133.858 47.373C138.185 46.929 141.461 43.4215 141.461 39.2436L141.464 14.8613Z" fill="#3A3A39"/>
<path d="M112.94 42.7902C112.441 42.7982 111.959 42.6088 111.6 42.2636C111.241 41.9184 111.034 41.4455 111.024 40.9486V12.9367C111.033 12.4698 111.226 12.0253 111.563 11.6999C111.899 11.3745 112.352 11.1945 112.821 11.1993H112.961C114.449 11.3086 115.938 11.4248 117.429 11.5479L117.926 11.5867L118.168 12.0039C120.908 16.6765 123.591 21.0601 126.139 25.0324L126.172 25.0593C126.238 25.0593 126.238 25.0176 126.238 25.0027V14.2747C126.247 13.7925 126.448 13.3337 126.797 12.9987C127.145 12.6636 127.613 12.4795 128.097 12.4867C128.161 12.4867 128.224 12.4867 128.286 12.4867C129.765 12.6297 131.244 12.7777 132.723 12.9307C133.191 12.9706 133.627 13.182 133.947 13.524C134.267 13.866 134.448 14.3141 134.454 14.7813V39.1815C134.448 39.6483 134.267 40.096 133.947 40.4375C133.627 40.779 133.191 40.9899 132.723 41.0291C131.408 41.1661 130.093 41.2982 128.78 41.4253C128.714 41.4253 128.651 41.4253 128.585 41.4253C128.272 41.4272 127.964 41.3543 127.685 41.2128C127.406 41.0712 127.166 40.8651 126.983 40.6118C124.522 37.1312 121.95 33.29 119.339 29.1925C119.321 29.1627 119.315 29.1627 119.303 29.1627C119.281 29.1629 119.259 29.1702 119.24 29.1836C119.239 29.1945 119.239 29.2055 119.24 29.2163V40.5671C119.23 41.0404 119.043 41.4929 118.715 41.8358C118.387 42.1787 117.942 42.3874 117.468 42.4207C116.007 42.5369 114.542 42.6532 113.078 42.7604L112.94 42.7902Z" fill="#3A3A39"/>
<path d="M112.833 12.0928H112.902C114.213 12.1901 115.525 12.2894 116.839 12.3908C116.999 12.4032 117.154 12.4538 117.291 12.5384C117.427 12.6229 117.541 12.7389 117.623 12.8765C120.198 17.2601 122.777 21.4797 125.352 25.4938C125.439 25.6348 125.562 25.751 125.707 25.8309C125.853 25.9108 126.017 25.9517 126.184 25.9497C126.314 25.9537 126.443 25.9319 126.564 25.8856C126.685 25.8393 126.796 25.7694 126.889 25.6801C126.983 25.5908 127.058 25.4838 127.11 25.3653C127.161 25.2468 127.189 25.1193 127.19 24.9902V14.2622C127.19 14.143 127.214 14.025 127.26 13.9152C127.307 13.8053 127.375 13.7059 127.461 13.6226C127.546 13.5393 127.648 13.4739 127.759 13.4302C127.871 13.3865 127.99 13.3654 128.109 13.3682H128.202C129.681 13.5093 131.159 13.6563 132.637 13.8092C132.879 13.8278 133.106 13.936 133.272 14.1125C133.438 14.289 133.532 14.5209 133.535 14.7628V39.163C133.531 39.4044 133.437 39.6356 133.271 39.8115C133.105 39.9873 132.878 40.0951 132.637 40.1136C131.325 40.2487 130.013 40.3799 128.699 40.507H128.597C128.437 40.5078 128.278 40.4703 128.135 40.3977C127.992 40.3252 127.868 40.2195 127.774 40.0898C125.235 36.4989 122.684 32.6934 120.154 28.7062C120.066 28.5636 119.943 28.446 119.796 28.3651C119.649 28.2841 119.483 28.2425 119.315 28.2443C119.186 28.2399 119.057 28.2613 118.935 28.3073C118.814 28.3533 118.704 28.4229 118.61 28.512C118.516 28.6011 118.441 28.708 118.39 28.8263C118.338 28.9446 118.311 29.072 118.309 29.2009V40.5517C118.306 40.7936 118.212 41.0256 118.046 41.202C117.88 41.3785 117.653 41.4867 117.411 41.5053C115.95 41.6245 114.488 41.7377 113.027 41.845H112.952C112.698 41.849 112.452 41.7525 112.269 41.5765C112.086 41.4005 111.981 41.1595 111.976 40.9063V12.8944C111.978 12.7828 112.002 12.6728 112.047 12.5705C112.092 12.4682 112.156 12.3756 112.237 12.2981C112.317 12.2207 112.413 12.1598 112.517 12.1189C112.621 12.078 112.732 12.0581 112.845 12.06M112.845 10.2541C112.43 10.2488 112.021 10.3385 111.647 10.5163C111.19 10.7284 110.804 11.0649 110.532 11.4869C110.26 11.9089 110.114 12.399 110.111 12.9003V40.8258C110.114 41.5734 110.412 42.29 110.94 42.8212C111.469 43.3523 112.186 43.6556 112.937 43.6658H113.189C114.65 43.5585 116.126 43.4423 117.581 43.3261C118.288 43.2805 118.951 42.9719 119.44 42.4617C119.928 41.9515 120.205 41.277 120.216 40.5726V32.2137C122.271 35.3754 124.295 38.3643 126.247 41.1238C126.517 41.5002 126.874 41.8066 127.287 42.0172C127.701 42.2277 128.16 42.3363 128.624 42.3337C128.72 42.3337 128.819 42.3337 128.924 42.3188C130.232 42.1907 131.562 42.0596 132.873 41.9255C133.567 41.8651 134.214 41.5507 134.688 41.0432C135.163 40.5357 135.432 39.8711 135.442 39.1779V14.7777C135.432 14.0838 135.163 13.4184 134.688 12.9104C134.212 12.4023 133.565 12.0876 132.87 12.0272C131.394 11.8752 129.9 11.7292 128.427 11.5862C128.334 11.5862 128.238 11.5713 128.145 11.5713C127.418 11.5601 126.715 11.8358 126.191 12.3383C125.667 12.8408 125.364 13.5292 125.349 14.2533V21.9446C123.304 18.6875 121.187 15.195 119.037 11.5147L118.806 11.1243C118.725 10.9867 118.611 10.8707 118.475 10.7862C118.339 10.7016 118.185 10.651 118.025 10.6386L117.558 10.6028C116.06 10.4806 114.563 10.3644 113.066 10.2541H112.854H112.845Z" fill="#F8F4EF"/>
<path d="M100.709 44.0179C98.8661 44.043 97.0527 43.5569 95.4718 42.6143C93.6751 41.4977 92.2606 39.8655 91.4147 37.9327C90.4453 35.7274 89.979 33.3358 90.0493 30.9297V23.0686C89.9796 20.6645 90.4459 18.2749 91.4147 16.0715C92.2611 14.1399 93.6756 12.5088 95.4718 11.393C97.0531 10.4486 98.8679 9.96246 100.712 9.98934C100.937 9.98934 101.165 9.99532 101.394 10.0072C103.491 10.1046 105.519 10.7804 107.251 11.9591C108.989 13.1569 110.372 14.7961 111.258 16.7063C112.217 18.7896 112.684 21.0638 112.623 23.3546V30.6556C112.683 32.9444 112.216 35.2164 111.258 37.298C110.373 39.2078 108.989 40.8462 107.251 42.0421C105.519 43.2217 103.491 43.8976 101.394 43.9941C101.164 44.0119 100.936 44.0179 100.709 44.0179ZM101.185 18.986C100.691 18.9675 100.203 19.0961 99.7836 19.3555C99.3532 19.6385 99.0191 20.0448 98.8255 20.5207C98.5284 21.2381 98.3865 22.0098 98.4092 22.7855V31.1771C98.3845 31.9568 98.5264 32.7327 98.8255 33.4538C99.0191 33.9305 99.3531 34.3377 99.7836 34.622C100.205 34.8801 100.693 35.0086 101.188 34.9915H101.311C101.867 34.9943 102.412 34.8302 102.874 34.5206C103.311 34.2143 103.651 33.7906 103.856 33.2989C104.156 32.5885 104.298 31.822 104.272 31.052V22.9076C104.291 22.1477 104.149 21.3924 103.856 20.6905C103.65 20.1991 103.308 19.7755 102.871 19.4687C102.409 19.1611 101.866 18.9971 101.311 18.9978L101.185 18.986Z" fill="#3A3A39"/>
<path d="M103.419 18.7354C102.804 18.3247 102.081 18.1039 101.341 18.1007H101.185C100.507 18.0836 99.839 18.2638 99.2627 18.6192C98.6828 18.9992 98.2302 19.543 97.9631 20.1808C97.6145 21.0104 97.4461 21.9041 97.4691 22.8031V31.1948C97.4445 32.0988 97.6128 32.9976 97.9631 33.832C98.2302 34.469 98.6829 35.0118 99.2627 35.3906C99.8391 35.7487 100.509 35.9301 101.188 35.9121H101.341C102.081 35.9078 102.804 35.686 103.419 35.2744C103.994 34.874 104.444 34.3204 104.718 33.6771C105.069 32.8512 105.238 31.96 105.212 31.0637V22.9074C105.233 22.024 105.065 21.1463 104.718 20.3327C104.444 19.6896 103.994 19.1362 103.419 18.7354Z" fill="#F8F4EF"/>
<path d="M112.114 16.3312C111.16 14.2757 109.669 12.5129 107.796 11.2265C105.92 9.94644 103.721 9.21266 101.448 9.10772C101.203 9.09282 100.954 9.08691 100.712 9.08691C98.6905 9.05993 96.7017 9.59448 94.9689 10.6305C93.0176 11.8371 91.4789 13.6032 90.5554 15.6965C89.5319 18.0174 89.0389 20.5355 89.1121 23.069V30.9212C89.0388 33.4538 89.5318 35.971 90.5554 38.2908C91.4797 40.3846 93.0195 42.1507 94.9719 43.3568C96.7028 44.3922 98.6895 44.9268 100.709 44.9004C100.954 44.9004 101.203 44.9004 101.448 44.8795C103.721 44.7737 105.919 44.04 107.796 42.7608C109.668 41.4737 111.159 39.711 112.114 37.656C113.128 35.4539 113.623 33.0507 113.563 30.6292V23.3551C113.623 20.9345 113.128 18.5322 112.114 16.3312ZM111.686 30.659C111.742 32.8149 111.304 34.9552 110.404 36.917C109.588 38.6814 108.311 40.1953 106.706 41.3006C105.12 42.3815 103.262 43.0007 101.341 43.0886C101.128 43.0886 100.918 43.1065 100.709 43.1065C99.0421 43.1322 97.4014 42.6935 95.972 41.84C94.332 40.8182 93.0425 39.3249 92.2741 37.5577C91.3587 35.4702 90.92 33.2067 90.9895 30.9302V23.0601C90.9201 20.7826 91.3588 18.5181 92.2741 16.4296C93.0441 14.6634 94.3333 13.1705 95.972 12.1473C97.4031 11.2956 99.0446 10.858 100.712 10.8838C100.911 10.8838 101.121 10.8898 101.341 10.9017C103.261 10.9903 105.119 11.6094 106.706 12.6897C108.311 13.7968 109.588 15.3115 110.404 17.0762C111.305 19.0378 111.743 21.1783 111.686 23.3342V30.659Z" fill="#F8F4EF"/>
<path d="M84.9561 41.2913C84.452 41.2993 83.9653 41.108 83.6027 40.7594C83.2401 40.4109 83.0312 39.9334 83.0218 39.4318V8.20741C83.0312 7.70577 83.2401 7.22837 83.6027 6.8798C83.9653 6.53122 84.452 6.33992 84.9561 6.3479H85.0129C86.4861 6.38962 87.9583 6.4353 89.4295 6.48496C89.922 6.4919 90.3925 6.68976 90.7408 7.03644C91.0892 7.38311 91.2879 7.85134 91.2949 8.34157V39.2977C91.2887 39.7884 91.0903 40.2574 90.7419 40.6047C90.3935 40.952 89.9226 41.1502 89.4295 41.1572C87.9563 41.2049 86.4861 41.2525 85.0129 41.2913H84.9561Z" fill="#3A3A39"/>
<path d="M84.9561 7.25157H84.986C86.4561 7.29031 87.9264 7.33797 89.3966 7.38565C89.6498 7.39026 89.8912 7.49265 90.07 7.67114C90.2488 7.84962 90.3509 8.0903 90.3547 8.34229V39.2984C90.3509 39.5504 90.2488 39.7911 90.07 39.9696C89.8912 40.148 89.6498 40.2504 89.3966 40.255C87.9274 40.3066 86.4571 40.3523 84.986 40.392H84.9561C84.6971 40.3952 84.4473 40.2965 84.2612 40.1174C84.075 39.9382 83.9675 39.6932 83.9619 39.4355V8.20813C83.9667 7.9502 84.074 7.70466 84.2603 7.52534C84.4467 7.34602 84.6969 7.24758 84.9561 7.25157ZM84.9561 5.44568C84.2071 5.43371 83.4839 5.7178 82.9451 6.23564C82.4063 6.75347 82.0957 7.46279 82.0815 8.20813V39.4325C82.0957 40.1776 82.4064 40.8866 82.9453 41.404C83.4842 41.9213 84.2074 42.2047 84.9561 42.192H85.0399C86.5071 42.1502 87.9952 42.1056 89.4624 42.0549C90.1949 42.0456 90.8947 41.7519 91.4127 41.2364C91.9307 40.7209 92.2258 40.0244 92.2351 39.2954V8.34229C92.2243 7.61379 91.9287 6.91808 91.411 6.4029C90.8934 5.88771 90.1944 5.59359 89.4624 5.58282C87.9982 5.53216 86.5101 5.4874 85.0399 5.44568H84.9561Z" fill="#F8F4EF"/>
<path d="M71.9191 45.0431C71.415 45.051 70.9283 44.8597 70.5658 44.5112C70.2032 44.1626 69.9943 43.6852 69.9848 43.1835V19.138C69.9844 19.1071 69.9779 19.0765 69.9657 19.0481C69.9534 19.0197 69.9356 18.9939 69.9134 18.9723C69.8911 18.9508 69.8648 18.9338 69.836 18.9223C69.8071 18.9108 69.7763 18.9052 69.7453 18.9056H64.7329C64.2288 18.9143 63.7418 18.7238 63.3787 18.3758C63.0155 18.0277 62.8058 17.5507 62.7956 17.049V11.4437C62.8058 10.9428 63.0145 10.4663 63.3763 10.1179C63.7381 9.76961 64.2236 9.57774 64.7269 9.58414H66.8049C72.3652 9.58414 78.0094 9.65266 83.5727 9.78378C84.0678 9.79058 84.5409 9.98812 84.8927 10.3349C85.2445 10.6817 85.4475 11.1507 85.4591 11.6433V17.1593C85.4548 17.4074 85.4015 17.6522 85.3021 17.8798C85.2027 18.1074 85.0593 18.3133 84.8799 18.4857C84.7006 18.6581 84.4889 18.7937 84.2569 18.8846C84.0249 18.9756 83.7771 19.0201 83.5278 19.0158L78.5065 18.9592C78.4751 18.9584 78.444 18.9638 78.4148 18.9751C78.3856 18.9864 78.3589 19.0033 78.3363 19.025C78.3138 19.0466 78.2958 19.0724 78.2833 19.1011C78.2709 19.1297 78.2643 19.1605 78.2639 19.1916V43.1388C78.2537 43.6355 78.0483 44.1085 77.6917 44.4562C77.3351 44.8038 76.8558 44.9984 76.3566 44.9983C74.8834 45.0202 73.4102 45.0361 71.9371 45.046L71.9191 45.0431Z" fill="#3A3A39"/>
<path d="M66.7869 10.4836C72.3762 10.4836 77.9655 10.5502 83.5548 10.6833C83.8098 10.6855 84.0539 10.7868 84.2351 10.9655C84.4162 11.1441 84.5202 11.386 84.5249 11.6398V17.1558C84.523 17.2832 84.4957 17.4091 84.4448 17.526C84.3939 17.643 84.3203 17.7488 84.2283 17.8374C84.1362 17.9259 84.0274 17.9956 83.9082 18.0423C83.7891 18.089 83.6618 18.1117 83.5338 18.1094H83.5188L78.5214 18.0528C78.2138 18.048 77.9168 18.1648 77.6957 18.3777C77.4745 18.5905 77.3472 18.882 77.3417 19.1882V43.1353C77.337 43.3915 77.2314 43.6356 77.0477 43.815C76.8641 43.9945 76.617 44.095 76.3596 44.095C74.8904 44.1128 73.4202 44.1277 71.949 44.1396C71.6899 44.1436 71.4397 44.0452 71.2533 43.8659C71.067 43.6865 70.9596 43.441 70.9549 43.1831V19.1375C70.9494 18.8319 70.8225 18.5408 70.602 18.3281C70.3815 18.1153 70.0853 17.9982 69.7782 18.0021H64.7328C64.6046 18.0045 64.4772 17.9817 64.3579 17.9351C64.2386 17.8884 64.1296 17.8188 64.0373 17.7303C63.945 17.6417 63.8711 17.5359 63.8199 17.4189C63.7686 17.302 63.7411 17.1761 63.7387 17.0486V11.4432C63.7407 11.3153 63.768 11.1892 63.8191 11.0718C63.8701 10.9545 63.9439 10.8484 64.0363 10.7595C64.1286 10.6706 64.2377 10.6007 64.3572 10.5539C64.4768 10.5071 64.6044 10.4842 64.7328 10.4866H66.7959M66.7959 8.68072H64.7328C63.9852 8.67113 63.264 8.95616 62.7266 9.47366C62.1893 9.99116 61.8793 10.6991 61.8643 11.4432V17.0486C61.8793 17.7934 62.1901 18.5019 62.7289 19.0191C63.2676 19.5363 63.9904 19.82 64.7388 19.808H69.0625V43.1711C69.0767 43.9165 69.3872 44.6258 69.9261 45.1436C70.4649 45.6615 71.1881 45.9456 71.937 45.9336H71.9579C73.4311 45.9336 74.9193 45.9068 76.3835 45.8859C77.125 45.8853 77.8369 45.5959 78.3668 45.0797C78.8967 44.5634 79.2026 43.8613 79.219 43.1235V19.8676C80.6443 19.8795 82.0716 19.8954 83.5008 19.9153H83.5428C84.2909 19.9272 85.0133 19.6435 85.5516 19.1262C86.0898 18.6089 86.4001 17.9003 86.4142 17.1558V11.6398C86.4056 10.9052 86.1067 10.2035 85.5822 9.68654C85.0577 9.16957 84.3498 8.87889 83.6116 8.87737C78.0363 8.74625 72.3801 8.67773 66.8018 8.67773L66.7959 8.68072Z" fill="#F8F4EF"/>
<path d="M63.7687 24.9005C63.0345 23.5923 61.938 22.5217 60.6097 21.8162C59.3165 21.1897 57.9565 20.7099 56.5555 20.3858L56.3219 20.3322L56.2112 20.3083L55.9956 20.2577L55.9208 20.2398C54.9553 20.0261 54.0051 19.7494 53.0762 19.4114C52.6007 19.2337 52.1811 18.9334 51.8605 18.5412C51.7887 18.4488 51.5611 18.1717 51.5611 17.3313C51.5611 16.4046 51.8066 15.7728 52.3576 15.293C53.0372 14.697 54.0793 14.399 55.4506 14.399C56.2517 14.4066 57.0418 14.5844 57.7682 14.9205C58.6702 15.3465 59.502 15.9062 60.2355 16.5804L60.5199 16.8337C60.6307 16.9321 60.762 17.005 60.9043 17.0472C61.0467 17.0895 61.1966 17.1 61.3435 17.0781C61.4904 17.0562 61.6307 17.0024 61.7543 16.9205C61.8779 16.8386 61.982 16.7306 62.059 16.6042L64.7538 12.0299C64.8655 11.842 64.9069 11.6208 64.8707 11.4055C64.8346 11.1901 64.7231 10.9944 64.5562 10.8528L63.9573 10.3224C63.1217 9.58635 62.2104 8.9401 61.2386 8.39434C60.3429 7.89583 59.3911 7.50467 58.403 7.22911C57.4421 6.96665 56.4501 6.8334 55.4536 6.83282C53.5983 6.79227 51.7609 7.20136 50.0999 8.02482C48.5162 8.84884 47.23 10.1436 46.42 11.7289C45.5816 13.3351 45.1564 15.2662 45.1564 17.4893C45.1564 20.0163 45.6355 22.0457 46.5787 23.5148C47.3648 24.8288 48.539 25.8694 49.9412 26.4948C51.3233 27.0375 52.7526 27.4525 54.2111 27.7345L54.3937 27.7792C54.4912 27.809 54.5915 27.829 54.6931 27.8388C55.5641 28.0082 56.4186 28.2525 57.2472 28.5689C57.6939 28.7464 58.0818 29.0446 58.367 29.43C58.5996 29.8338 58.704 30.2983 58.6665 30.7622C58.6665 31.6562 58.4179 32.2283 57.8341 32.7051C57.0945 33.3011 55.9627 33.614 54.4685 33.614C53.3664 33.6255 52.274 33.4073 51.2617 32.9733C50.2542 32.5227 49.3488 31.8739 48.5998 31.0661L48.3183 30.7681C48.2138 30.6602 48.0866 30.5768 47.9458 30.5238C47.805 30.4707 47.6542 30.4494 47.5041 30.4614C47.354 30.4734 47.2085 30.5183 47.078 30.5929C46.9475 30.6676 46.8352 30.7702 46.7493 30.8933L43.8209 35.2589C43.7003 35.4367 43.6455 35.6507 43.6657 35.8642C43.6859 36.0778 43.7799 36.2778 43.9317 36.43L44.5066 37.026C45.3703 37.9218 46.3489 38.7003 47.417 39.3415C48.4587 39.9605 49.584 40.4282 50.7587 40.7302C51.9711 41.0365 53.2176 41.1887 54.4685 41.1832C56.3672 41.2298 58.2503 40.8317 59.966 40.021C61.5753 39.2226 62.8972 37.9486 63.7507 36.3734C64.628 34.7732 65.0742 32.8511 65.0742 30.6191C65.0742 28.2679 64.64 26.3428 63.7777 24.8945L63.7687 24.9005Z" fill="#3A3A39"/>
<path d="M54.4595 42.092C53.1267 42.0973 51.7986 41.9341 50.5071 41.6063C49.2437 41.2841 48.0335 40.7823 46.914 40.1163C45.7757 39.4339 44.7327 38.6053 43.8119 37.6518L43.2341 37.0558C42.9406 36.7588 42.7592 36.37 42.7204 35.9552C42.6817 35.5403 42.7881 35.125 43.0215 34.7792L45.9499 30.4134C46.1135 30.1713 46.3304 29.9696 46.5841 29.8235C46.8378 29.6773 47.1216 29.5907 47.414 29.5701C47.7071 29.5434 48.0024 29.5831 48.2778 29.6863C48.5532 29.7896 48.8015 29.9536 49.004 30.1661L49.2854 30.4641C49.9473 31.1804 50.7479 31.7561 51.639 32.1568C52.5297 32.537 53.4904 32.7277 54.4595 32.717C55.7081 32.717 56.6603 32.4786 57.2142 32.0227C57.5137 31.7694 57.7173 31.4713 57.7173 30.768C57.7173 30.1542 57.6005 29.9754 57.5855 29.9575C57.4032 29.7059 57.1515 29.5123 56.8609 29.4003C56.1077 29.1086 55.3315 28.8793 54.5404 28.7148C54.4034 28.6991 54.2682 28.6712 54.1362 28.6314L53.9775 28.5927C52.4687 28.301 50.9902 27.871 49.561 27.3083C47.9847 26.6107 46.663 25.4463 45.7762 23.9737C44.7402 22.3586 44.2132 20.1712 44.2132 17.4743C44.2132 15.1172 44.6743 13.0431 45.5786 11.3087C46.4747 9.55712 47.8971 8.12698 49.6478 7.21722C51.4475 6.32221 53.4392 5.87724 55.4506 5.9209C56.5342 5.92123 57.6128 6.06655 58.6575 6.35298C59.72 6.64798 60.7432 7.06814 61.7056 7.60456C62.7346 8.18216 63.7 8.86534 64.5861 9.6429L65.185 10.1763C65.5126 10.4503 65.7313 10.8317 65.8015 11.2518C65.8718 11.6719 65.7891 12.1031 65.5683 12.4679L62.8734 17.0422C62.7261 17.2894 62.5247 17.5002 62.2841 17.6591C62.0436 17.818 61.7701 17.9209 61.484 17.96C61.197 18.0049 60.9036 17.9857 60.625 17.9038C60.3463 17.8218 60.0895 17.6792 59.8732 17.4863L59.5887 17.2359C58.9274 16.6298 58.1772 16.1273 57.3639 15.7459C56.7632 15.4643 56.1086 15.3149 55.4447 15.3079C54.3128 15.3079 53.4864 15.5314 52.9834 15.9694C52.7319 16.1899 52.4953 16.5118 52.4953 17.3402C52.4758 17.5591 52.5076 17.7794 52.5881 17.9839C52.8077 18.2537 53.0963 18.4596 53.4235 18.5799C54.3119 18.8999 55.2201 19.1627 56.1423 19.3667H56.2022C56.2711 19.3816 56.3519 19.3994 56.4388 19.4233H56.5046L56.7771 19.4858C58.2513 19.829 59.6824 20.3348 61.0439 20.9937C62.5287 21.7773 63.7561 22.9689 64.5801 24.4267L64.628 24.51C65.5263 26.0835 65.9994 28.1338 65.9994 30.6012C65.9994 32.9673 65.5173 35.0444 64.5651 36.7757C63.6239 38.5148 62.1648 39.9211 60.3882 40.8017C58.5409 41.6884 56.51 42.1303 54.4595 42.092ZM47.5727 31.364C47.5643 31.3641 47.5561 31.3667 47.5491 31.3715C47.5422 31.3762 47.5369 31.383 47.5338 31.3909L44.6055 35.7536C44.5976 35.7628 44.5933 35.7744 44.5933 35.7864C44.5933 35.7984 44.5976 35.81 44.6055 35.8192L45.1803 36.4152C45.9877 37.2514 46.9018 37.9788 47.8991 38.5786C48.8624 39.1533 49.9043 39.5858 50.9922 39.863C52.1241 40.1505 53.2883 40.2928 54.4565 40.2862C56.2045 40.3328 57.9391 39.9693 59.5199 39.2253C60.9626 38.5081 62.1459 37.3627 62.9063 35.9473C63.7148 34.4782 64.122 32.6842 64.122 30.6161C64.122 28.4228 63.7298 26.6467 62.9513 25.3385L62.9183 25.2879C62.2768 24.152 61.3234 23.2217 60.1696 22.6059C58.9408 22.0126 57.6492 21.5578 56.319 21.25L56.1214 21.2053L55.9926 21.1784H55.9417L55.8249 21.1487L55.6662 21.1129C54.6663 20.8901 53.682 20.6024 52.7198 20.2517C52.0926 20.0153 51.5398 19.6173 51.118 19.0984C50.9054 18.8362 50.6179 18.3683 50.6179 17.3343C50.6179 16.1423 50.9683 15.287 51.7228 14.6284C52.5822 13.8775 53.8337 13.496 55.4476 13.496C56.3852 13.5001 57.3111 13.7033 58.1635 14.092C59.1498 14.556 60.0587 15.1681 60.8583 15.9069L61.1427 16.1602C61.1478 16.1669 61.1548 16.1719 61.1628 16.1745C61.1708 16.1772 61.1795 16.1773 61.1876 16.175C61.1957 16.1738 61.2035 16.1708 61.2102 16.1661C61.217 16.1615 61.2226 16.1554 61.2266 16.1482L63.9214 11.5739C63.9287 11.5645 63.9327 11.5531 63.9327 11.5412C63.9327 11.5293 63.9287 11.5178 63.9214 11.5084L63.3226 10.9779C62.5371 10.2855 61.6799 9.67814 60.7655 9.16608C59.9375 8.70283 59.057 8.33972 58.1425 8.08437C57.2643 7.84539 56.358 7.72414 55.4476 7.72381C53.7496 7.68054 52.0664 8.04866 50.5431 8.79656C49.1251 9.53403 47.9737 10.6935 47.2494 12.1133C46.4769 13.6033 46.0846 15.3913 46.0846 17.4773C46.0846 19.8345 46.5158 21.7029 47.3661 23.029C48.0509 24.1838 49.0766 25.1005 50.3035 25.6544C51.6281 26.1763 52.9983 26.5753 54.3967 26.8464L54.6691 26.9119C54.705 26.9241 54.7422 26.9322 54.7799 26.9358L54.8997 26.9537C55.8196 27.1427 56.7213 27.4109 57.5945 27.7553C58.199 27.9982 58.7236 28.4037 59.1096 28.9264C59.4599 29.478 59.6255 30.1259 59.5827 30.777C59.5827 31.9243 59.2114 32.7617 58.4179 33.4083C57.5047 34.1533 56.1692 34.5318 54.4445 34.5318C53.2096 34.5418 51.986 34.2963 50.8514 33.8107C49.7289 33.3095 48.7196 32.5878 47.8842 31.6889L47.6027 31.3909C47.5999 31.3857 47.5961 31.3812 47.5915 31.3776C47.5868 31.374 47.5814 31.3714 47.5757 31.37L47.5727 31.364Z" fill="#F8F4EF"/>
<path d="M46.372 44.4726C44.7751 44.4091 43.1782 44.3385 41.5812 44.261C41.1839 44.2468 40.8008 44.1102 40.4849 43.8699C40.169 43.6297 39.9359 43.2978 39.8176 42.92C39.3046 41.2254 38.7946 39.5367 38.2875 37.854C36.0029 37.7795 33.6914 37.6991 31.4008 37.6127C30.9097 39.1444 30.4197 40.6661 29.9306 42.178C29.8021 42.5627 29.5536 42.8967 29.2214 43.1314C28.8892 43.3661 28.4905 43.4894 28.0832 43.4833H27.9484C26.3414 43.374 24.7336 43.2597 23.1247 43.1405C22.8321 43.1212 22.5479 43.0361 22.2932 42.8916C22.0385 42.747 21.8201 42.5469 21.6544 42.3062C21.492 42.0717 21.3883 41.8019 21.3519 41.5194C21.3154 41.2369 21.3473 40.9498 21.4448 40.682C24.5768 32.0013 27.7867 22.6651 31.26 12.1397C31.3865 11.7776 31.6182 11.4609 31.9258 11.2301C32.2335 10.9993 32.6031 10.8647 32.9877 10.8434C34.1675 10.7719 35.3462 10.7044 36.524 10.6408H36.6347C37.0379 10.6356 37.4324 10.7568 37.7625 10.9873C38.0925 11.2179 38.3412 11.546 38.4732 11.9251C41.5244 21.0111 44.7372 30.8719 48.2944 42.0767C48.384 42.3553 48.4035 42.6515 48.3513 42.9393C48.2991 43.2271 48.1768 43.4978 47.995 43.7276C47.8128 43.9643 47.5778 44.1555 47.3086 44.2863C47.0395 44.4171 46.7434 44.4839 46.4439 44.4815L46.372 44.4726ZM35.5658 28.9379L34.8651 26.6701C34.6296 27.423 34.395 28.174 34.1614 28.923L35.5658 28.9379Z" fill="#3A3A39"/>
<path d="M36.6437 11.5377C36.8505 11.5351 37.0529 11.5973 37.2222 11.7155C37.3915 11.8337 37.5191 12.0019 37.5869 12.1963C40.8597 21.9349 44.1323 32.0251 47.4051 42.3359C47.4485 42.4813 47.4569 42.6349 47.4293 42.7841C47.4018 42.9333 47.3392 43.074 47.2466 43.1946C47.1541 43.3152 47.0343 43.4123 46.8969 43.478C46.7594 43.5437 46.6083 43.5761 46.4559 43.5726H46.411C44.8141 43.5071 43.2171 43.4365 41.6202 43.361C41.4175 43.3508 41.2227 43.2791 41.0621 43.1555C40.9015 43.0319 40.7828 42.8624 40.7219 42.6697C40.175 40.8419 39.627 39.0261 39.0781 37.2222C39.0544 37.1485 39.0083 37.0838 38.9461 37.0374C38.8838 36.9909 38.8085 36.9649 38.7307 36.9629C36.1596 36.8835 33.5886 36.7941 31.0175 36.6948H31.0026C30.9219 36.6939 30.843 36.7185 30.7774 36.7651C30.7117 36.8117 30.6626 36.8778 30.6372 36.954C30.1082 38.6168 29.5763 40.2688 29.0413 41.9098C28.9748 42.1071 28.847 42.2784 28.6765 42.3989C28.5059 42.5194 28.3012 42.5829 28.0921 42.5803H28.0232C26.4163 42.473 24.8104 42.3597 23.2055 42.2405C23.0569 42.2332 22.912 42.1917 22.7823 42.1192C22.6526 42.0466 22.5416 41.9451 22.458 41.8226C22.3744 41.7001 22.3205 41.56 22.3006 41.4133C22.2807 41.2666 22.2952 41.1172 22.3431 40.977C25.6159 31.897 28.8886 22.3342 32.1643 12.4138C32.2294 12.2254 32.3499 12.0608 32.51 11.9413C32.6702 11.8217 32.8626 11.7528 33.0626 11.7433L36.5928 11.5407H36.6497M36.3234 29.8497C36.3811 29.8511 36.4384 29.8388 36.4905 29.814C36.5426 29.7892 36.5882 29.7526 36.6235 29.707C36.6587 29.6615 36.6827 29.6083 36.6935 29.5518C36.7043 29.4953 36.7017 29.4371 36.6857 29.3819C36.2026 27.8084 35.7185 26.2439 35.2334 24.6884C35.2099 24.6117 35.1617 24.5447 35.0962 24.4979C35.0308 24.4511 34.9517 24.427 34.8711 24.4292C34.7895 24.4277 34.7097 24.4527 34.6437 24.5006C34.5778 24.5485 34.5293 24.6165 34.5058 24.6943C34.0208 26.2559 33.5357 27.8094 33.0506 29.355C33.0347 29.41 33.032 29.468 33.0426 29.5242C33.0533 29.5805 33.077 29.6335 33.1119 29.679C33.1469 29.7245 33.192 29.7612 33.2437 29.7862C33.2955 29.8112 33.3524 29.8237 33.4099 29.8229L36.3204 29.8497M36.6467 9.7348H36.482C35.3023 9.80036 34.1226 9.86889 32.9429 9.94041C32.3712 9.97087 31.8218 10.1703 31.3647 10.5133C30.9075 10.8562 30.5636 11.327 30.3768 11.8655C26.9064 22.3789 23.6966 31.7062 20.5706 40.384C20.4239 40.781 20.3745 41.2071 20.4266 41.627C20.4787 42.0468 20.6307 42.4482 20.87 42.7978C21.1156 43.1556 21.4397 43.4532 21.8179 43.6679C22.1961 43.8827 22.6183 44.009 23.0528 44.0374C24.6547 44.1566 26.2806 44.2729 27.8825 44.3802H28.0832C28.6884 44.3885 29.2806 44.2049 29.7742 43.8562C30.2677 43.5075 30.6371 43.0116 30.8289 42.4402C31.2481 41.1469 31.6673 39.8456 32.0865 38.5364C33.91 38.6049 35.7455 38.6676 37.569 38.7272C38.0161 40.1993 38.4622 41.6783 38.9074 43.1643C39.0838 43.7252 39.4304 44.218 39.8995 44.575C40.3686 44.9319 40.9373 45.1355 41.5274 45.1579C43.1173 45.2324 44.7312 45.3039 46.3182 45.3695H46.4439C46.8888 45.3702 47.3279 45.2699 47.7279 45.0763C48.128 44.8827 48.4784 44.6007 48.7525 44.252C49.0177 43.9081 49.1961 43.5059 49.2727 43.0791C49.3493 42.6524 49.3219 42.2135 49.1927 41.7995C45.6355 30.5977 42.4197 20.728 39.3655 11.633C39.1689 11.0694 38.799 10.5817 38.3084 10.2388C37.8178 9.89602 37.2312 9.7155 36.6317 9.72287L36.6467 9.7348Z" fill="#F8F4EF"/>
<path d="M19.819 39.9101C19.4567 39.9101 19.0824 39.8922 18.7021 39.8594C15.109 39.5614 11.474 39.2008 7.87791 38.8313C7.41018 38.7914 6.97401 38.58 6.65418 38.238C6.33435 37.896 6.15367 37.4479 6.14722 36.9808V12.5627C6.15441 12.0961 6.33544 11.6487 6.6552 11.3074C6.97496 10.966 7.41069 10.755 7.87791 10.7151C11.3542 10.3575 14.8964 10.0178 18.4057 9.71085C18.8429 9.67211 19.274 9.65425 19.6872 9.65425C21.0371 9.62747 22.3775 9.88332 23.6217 10.4052C25.1479 11.0678 26.398 12.2339 27.1609 13.707C27.9253 15.2459 28.3024 16.9466 28.2598 18.6628C28.2671 19.8895 28.0279 21.1054 27.5562 22.2387C27.2241 23.0329 26.7594 23.7654 26.1818 24.4052C26.8556 25.1172 27.3988 25.9412 27.7867 26.8398C28.3272 28.0925 28.6015 29.443 28.5922 30.8062V30.8598C28.6286 32.6025 28.2064 34.3243 27.3675 35.8543C26.55 37.311 25.2768 38.4621 23.7415 39.1323C22.5054 39.6661 21.1693 39.9323 19.822 39.9131L19.819 39.9101ZM15.2138 31.5661C15.5821 31.5633 15.9502 31.5842 16.3157 31.6287C16.8853 31.7073 17.4594 31.7491 18.0344 31.7538C19.3549 31.7538 19.831 31.4558 19.9268 31.3784C20.0226 31.3009 20.2981 31.0803 20.2981 30.3234V30.2698C20.3147 29.8522 20.2422 29.4358 20.0854 29.0481C20.0082 28.8818 19.8746 28.7478 19.7081 28.6696C19.2703 28.4774 18.794 28.3876 18.3158 28.4073L14.3634 28.3388L14.3814 31.5929L14.573 31.5751L15.2138 31.5661ZM18.253 17.7628H17.8937L14.3664 17.9446V20.5551C15.6659 20.5104 16.9804 20.4806 18.2979 20.4537C18.9656 20.4388 19.4956 20.3107 19.6992 20.1081C19.9028 19.9054 19.9537 19.369 19.9537 19.071C19.9537 18.7044 19.9058 18.2306 19.6932 18.0578C19.6274 18.0012 19.265 17.7688 18.262 17.7688L18.253 17.7628Z" fill="#3A3A39"/>
<path d="M14.3725 21.4581H14.3964L18.3428 21.3747C18.9986 21.3747 19.8878 21.2466 20.3879 20.7787C20.5166 20.6536 20.9149 20.2721 20.9149 19.1009C20.9149 18.0043 20.5765 17.611 20.316 17.3964C19.8998 17.0567 19.1932 16.8809 18.259 16.8809C18.1272 16.8809 17.9925 16.8809 17.8517 16.8809L14.3215 17.0596C14.0874 17.0658 13.8651 17.1628 13.7018 17.3297C13.5385 17.4967 13.4471 17.7206 13.4472 17.9536V20.579C13.4491 20.6974 13.4747 20.8143 13.5224 20.9228C13.5701 21.0314 13.639 21.1294 13.7251 21.2112C13.8111 21.293 13.9127 21.3569 14.0238 21.3993C14.135 21.4417 14.2535 21.4617 14.3725 21.4581Z" fill="#F8F4EF"/>
<path d="M20.1783 27.8907C19.6045 27.6238 18.976 27.4942 18.3428 27.5122L14.3904 27.4437H14.3725C14.2525 27.4405 14.1331 27.4613 14.0213 27.5048C13.9096 27.5483 13.8077 27.6136 13.7217 27.6969C13.6357 27.7803 13.5674 27.8799 13.5208 27.99C13.4742 28.1 13.4502 28.2182 13.4502 28.3377V31.6157C13.4501 31.7354 13.4742 31.8538 13.521 31.9641C13.5678 32.0743 13.6364 32.1741 13.7227 32.2575C13.809 32.3409 13.9113 32.4062 14.0234 32.4495C14.1355 32.4928 14.2552 32.5133 14.3754 32.5097H14.3964C14.6718 32.5097 14.9443 32.5395 15.2168 32.5395C15.5432 32.5395 15.8007 32.5633 16.2019 32.5722C16.9295 32.5871 17.5254 32.6825 18.0434 32.6825C19.4807 32.6825 20.1902 32.3845 20.5376 32.0865C20.8849 31.7885 21.2473 31.3832 21.2473 30.3372V30.2836C21.2646 29.7369 21.1624 29.1929 20.9478 28.6893C20.7887 28.3447 20.5176 28.0634 20.1783 27.8907Z" fill="#F8F4EF"/>
<path d="M28.664 26.4828C28.3372 25.7295 27.9124 25.0222 27.4004 24.379C27.8187 23.8204 28.1666 23.2129 28.4364 22.5701C28.9524 21.3309 29.215 20.0017 29.209 18.6604C29.2531 16.8021 28.842 14.9611 28.0113 13.2964C27.1485 11.6369 25.7349 10.326 24.0109 9.5863C22.6438 9.00818 21.1694 8.72383 19.6842 8.75189C19.2441 8.75189 18.7859 8.77274 18.3158 8.81446C14.8156 9.11246 11.2704 9.45817 7.77607 9.81577C7.08164 9.87487 6.43406 10.1888 5.95926 10.6966C5.48446 11.2044 5.21632 11.8697 5.20697 12.5633V36.9813C5.21632 37.6749 5.48446 38.3403 5.95926 38.8481C6.43406 39.3558 7.08164 39.6698 7.77607 39.7289C11.3692 40.0984 15.0192 40.4441 18.6153 40.76C19.0225 40.7927 19.4267 40.8136 19.813 40.8136C21.2974 40.8326 22.769 40.538 24.1307 39.9494C25.8487 39.2006 27.2728 37.912 28.1849 36.281C29.1011 34.62 29.5636 32.7489 29.5263 30.8545V30.8008C29.5409 29.3177 29.2474 27.8477 28.664 26.4828ZM27.6609 30.8515C27.696 32.4413 27.3142 34.0127 26.553 35.4109C25.8336 36.697 24.7118 37.7141 23.3582 38.3074C22.2413 38.7857 21.0347 39.0214 19.819 38.9988C19.4836 38.9988 19.1393 38.9839 18.789 38.9512C15.1839 38.6392 11.5807 38.2975 7.97966 37.926C7.73781 37.9061 7.51205 37.7976 7.34608 37.6214C7.18011 37.4452 7.08575 37.2139 7.08138 36.9724V12.5544C7.08581 12.3132 7.18027 12.0823 7.3463 11.9066C7.51233 11.7309 7.73807 11.623 7.97966 11.6038C11.4789 11.2422 14.9823 10.9084 18.4895 10.6025C18.9027 10.5667 19.301 10.5488 19.6872 10.5488C20.901 10.5217 22.1068 10.7491 23.2264 11.2164C24.5622 11.7961 25.6559 12.8171 26.3225 14.1069C27.0191 15.5204 27.3622 17.0805 27.3226 18.6544C27.3281 19.7636 27.1112 20.8629 26.6848 21.8877C26.3879 22.5964 25.9718 23.2494 25.4542 23.8187C25.3082 23.9784 25.2288 24.1875 25.2321 24.4034C25.2354 24.6193 25.3212 24.8258 25.4721 24.9809C26.0814 25.6212 26.5721 26.3638 26.9213 27.1742C27.4113 28.3176 27.66 29.5489 27.6519 30.7919L27.6609 30.8515Z" fill="#F8F4EF"/>
<path d="M82.3061 57.9281C82.2205 57.9492 82.1335 57.9642 82.0457 57.9728C81.9559 57.9773 81.8659 57.9773 81.7762 57.9728C81.5622 57.9882 81.3498 57.9269 81.1773 57.8C81.1072 57.7302 81.0532 57.646 81.0191 57.5534C80.985 57.4608 80.9715 57.3619 80.9797 57.2636V56.1967H80.3809V55.8987H80.9797V55.3385L81.348 55.2461V55.8987H82.3061V56.1967H81.348V57.2367C81.3434 57.2969 81.352 57.3575 81.3732 57.4141C81.3944 57.4707 81.4277 57.522 81.4707 57.5645C81.5728 57.644 81.7008 57.6832 81.8301 57.6748C81.9052 57.6739 81.9801 57.6689 82.0547 57.6599C82.1325 57.6599 82.2193 57.633 82.3061 57.6122V57.9281Z" fill="#3A3A39"/>
<path d="M85.2645 56.9181C85.2669 57.067 85.2436 57.2152 85.1956 57.3562C85.1529 57.482 85.0846 57.5976 84.9949 57.6959C84.9047 57.7908 84.7957 57.8659 84.6746 57.9164C84.5382 57.9694 84.3928 57.9957 84.2464 57.9939C84.1066 57.9957 83.9677 57.9725 83.8362 57.9254C83.7226 57.882 83.6203 57.8138 83.5368 57.7257C83.4495 57.6318 83.3841 57.5198 83.3451 57.3979C83.2976 57.2526 83.2744 57.1006 83.2762 56.9479C83.2743 56.7998 83.2986 56.6525 83.3481 56.5129C83.3908 56.3871 83.4591 56.2714 83.5488 56.1731C83.6381 56.0771 83.7474 56.0019 83.8691 55.9526C84.0055 55.8996 84.1509 55.8733 84.2973 55.8751C84.4371 55.8733 84.576 55.8966 84.7075 55.9437C84.8207 55.9878 84.9229 56.0559 85.0069 56.1433C85.0943 56.2372 85.1598 56.3491 85.1986 56.4711C85.2455 56.6154 85.2677 56.7665 85.2645 56.9181ZM84.8872 56.9181C84.89 56.8064 84.8758 56.6949 84.8452 56.5874C84.8193 56.5014 84.7766 56.4214 84.7195 56.3519C84.6669 56.2895 84.6003 56.2405 84.5249 56.2089C84.4427 56.1774 84.3554 56.1612 84.2674 56.1612C84.1688 56.1585 84.0711 56.18 83.9829 56.2238C83.9067 56.2636 83.841 56.3208 83.7912 56.3907C83.739 56.4633 83.7014 56.5452 83.6805 56.632C83.6552 56.7293 83.6431 56.8295 83.6445 56.93C83.6425 57.0429 83.6577 57.1555 83.6895 57.2638C83.7138 57.3498 83.7555 57.43 83.8122 57.4992C83.8637 57.5627 83.9308 57.612 84.0069 57.6423C84.0896 57.6755 84.1782 57.6917 84.2674 57.6899C84.3646 57.6931 84.4612 57.6727 84.5488 57.6303C84.6259 57.5906 84.6925 57.5334 84.7435 57.4635C84.7957 57.3909 84.8333 57.3089 84.8542 57.2221C84.876 57.1272 84.887 57.0303 84.8872 56.933V56.9181Z" fill="#3A3A39"/>
<path d="M88.1509 57.9566H87.6419L86.6508 56.8599V57.9566H86.2915V55.0898H86.6598V56.857L87.6149 55.9213H88.103L87.1059 56.8659L88.1509 57.9566Z" fill="#3A3A39"/>
<path d="M90.9506 55.9113L90.2259 57.741C90.1613 57.9069 90.0833 58.0674 89.9924 58.2208C89.9232 58.3446 89.8353 58.4571 89.7319 58.5546C89.6453 58.6359 89.5436 58.6997 89.4325 58.7423C89.3105 58.7855 89.1817 58.8066 89.0522 58.8049H88.9534H88.8546V58.483H88.9564H89.0732C89.1373 58.4842 89.2012 58.4742 89.2618 58.4532C89.323 58.4331 89.3799 58.4017 89.4295 58.3608C89.4867 58.3122 89.5371 58.256 89.5792 58.1939C89.6336 58.117 89.6807 58.0353 89.7199 57.9496L88.8696 55.9023H89.2888L89.8277 57.2553L89.9355 57.5742L90.0583 57.2463L90.5583 55.9023L90.9506 55.9113Z" fill="#3A3A39"/>
<path d="M93.7323 56.9181C93.7333 57.0669 93.71 57.2149 93.6634 57.3562C93.6196 57.4821 93.5503 57.5977 93.4598 57.6959C93.3707 57.7907 93.2625 57.8659 93.1424 57.9164C93.005 57.9698 92.8586 57.9961 92.7112 57.9939C92.5715 57.9954 92.4326 57.9722 92.301 57.9254C92.1876 57.8817 92.0854 57.8135 92.0016 57.7258C91.9145 57.6312 91.8482 57.5195 91.8069 57.3979C91.7605 57.2525 91.7383 57.1005 91.7411 56.9479C91.7396 56.8001 91.7629 56.6531 91.8099 56.5129C91.8538 56.387 91.9231 56.2713 92.0136 56.1731C92.1029 56.0772 92.2122 56.0019 92.3339 55.9526C92.4702 55.8993 92.6157 55.873 92.7622 55.8751C92.9019 55.8736 93.0408 55.8969 93.1723 55.9437C93.2857 55.9875 93.388 56.0556 93.4718 56.1434C93.5602 56.237 93.6266 56.3489 93.6664 56.4711C93.7132 56.6154 93.7356 56.7665 93.7323 56.9181ZM93.355 56.9181C93.3563 56.8065 93.3422 56.6952 93.3131 56.5874C93.2871 56.5014 93.2444 56.4214 93.1873 56.3519C93.1341 56.2903 93.0675 56.2414 92.9927 56.2089C92.9105 56.1774 92.8232 56.1613 92.7352 56.1613C92.6366 56.1585 92.539 56.18 92.4508 56.2238C92.3739 56.2627 92.308 56.3201 92.2591 56.3907C92.2056 56.4626 92.1679 56.5448 92.1483 56.632C92.123 56.7293 92.1109 56.8296 92.1124 56.93C92.1103 57.0429 92.1255 57.1555 92.1573 57.2638C92.18 57.3505 92.2219 57.431 92.2801 57.4993C92.3316 57.5627 92.3986 57.612 92.4747 57.6423C92.5573 57.6758 92.646 57.692 92.7352 57.69C92.8325 57.6932 92.9291 57.6727 93.0166 57.6304C93.0929 57.5894 93.1593 57.5325 93.2113 57.4635C93.2626 57.3907 93.2992 57.3087 93.3191 57.2221C93.3433 57.1276 93.3554 57.0305 93.355 56.933V56.9181Z" fill="#3A3A39"/>
<path d="M99.2357 57.9566H98.8674V56.6484C98.8754 56.5243 98.8429 56.4009 98.7745 56.2968C98.7429 56.2581 98.7026 56.2273 98.6568 56.2071C98.611 56.1869 98.5611 56.1778 98.5111 56.1805C98.4636 56.1802 98.4162 56.1862 98.3703 56.1984C98.3221 56.214 98.2765 56.2371 98.2355 56.2669C98.1813 56.3055 98.1302 56.3483 98.0828 56.395C98.0289 56.4487 97.9661 56.5173 97.8942 56.5977V57.9566H97.5229V55.0898H97.8942V55.9213L97.8792 56.2431C97.9323 56.1837 97.9893 56.128 98.0499 56.0762C98.102 56.034 98.1582 55.9971 98.2176 55.9659C98.2713 55.9373 98.3287 55.9162 98.3883 55.9034C98.4474 55.8915 98.5076 55.8855 98.5679 55.8855C98.6587 55.8802 98.7496 55.8939 98.8347 55.9257C98.9198 55.9575 98.9972 56.0068 99.062 56.0703C99.1883 56.23 99.2502 56.4308 99.2357 56.6335V57.9566Z" fill="#3A3A39"/>
<path d="M101.071 56.2051H100.442V55.9071H101.445V57.6564H102.077V57.9544H100.37V57.6564H101.071V56.2051ZM101.2 55.0548C101.239 55.0537 101.278 55.0608 101.314 55.0757C101.349 55.0884 101.38 55.1087 101.406 55.1353C101.433 55.1605 101.455 55.1909 101.469 55.2247C101.484 55.2585 101.491 55.2952 101.49 55.332C101.491 55.3688 101.484 55.4054 101.469 55.4392C101.456 55.4734 101.434 55.504 101.406 55.5287C101.381 55.5561 101.349 55.5775 101.314 55.5912C101.277 55.6047 101.239 55.6118 101.2 55.6121C101.161 55.6112 101.123 55.6041 101.086 55.5912C101.051 55.5764 101.02 55.5551 100.993 55.5287C100.967 55.5038 100.946 55.4732 100.933 55.4392C100.918 55.4056 100.91 55.3691 100.909 55.332C100.91 55.2949 100.918 55.2583 100.933 55.2247C100.947 55.1911 100.967 55.1606 100.993 55.1353C101.02 55.1094 101.051 55.0891 101.086 55.0757C101.122 55.0614 101.161 55.0543 101.2 55.0548Z" fill="#3A3A39"/>
<path d="M104.7 56.1982C104.742 56.2471 104.774 56.3039 104.793 56.3651C104.817 56.4311 104.828 56.5008 104.826 56.5707C104.828 56.6732 104.807 56.7749 104.766 56.8687C104.728 56.9568 104.67 57.0345 104.595 57.0952C104.517 57.1594 104.428 57.2089 104.332 57.2412C104.222 57.2756 104.108 57.2927 103.994 57.2919C103.909 57.2924 103.825 57.2835 103.742 57.2651C103.678 57.2518 103.616 57.2287 103.559 57.1966C103.535 57.2311 103.512 57.2669 103.49 57.3038C103.472 57.3388 103.463 57.3777 103.464 57.4171C103.463 57.4435 103.471 57.4695 103.484 57.4921C103.498 57.5147 103.518 57.5331 103.541 57.5452C103.602 57.5833 103.673 57.603 103.745 57.6018L104.305 57.6227C104.406 57.6239 104.506 57.6368 104.604 57.6614C104.686 57.6802 104.765 57.7135 104.835 57.7597C104.898 57.801 104.95 57.8561 104.988 57.9207C105.024 57.9894 105.043 58.0663 105.042 58.1442C105.041 58.2343 105.02 58.3232 104.979 58.4035C104.933 58.4883 104.868 58.5617 104.79 58.618C104.69 58.6847 104.58 58.7341 104.464 58.764C104.31 58.805 104.152 58.8241 103.994 58.8206C103.847 58.8226 103.7 58.8085 103.556 58.7789C103.452 58.7584 103.351 58.7223 103.257 58.6716C103.186 58.631 103.127 58.5724 103.086 58.5018C103.052 58.4364 103.035 58.3638 103.035 58.2902C103.034 58.1978 103.059 58.1069 103.107 58.028C103.166 57.9428 103.242 57.8699 103.329 57.8134C103.294 57.7988 103.261 57.7787 103.233 57.7538C103.208 57.7292 103.186 57.7023 103.167 57.6733C103.151 57.6428 103.138 57.611 103.128 57.578C103.125 57.5463 103.125 57.5143 103.128 57.4826C103.127 57.3976 103.15 57.3141 103.194 57.2412C103.237 57.1661 103.288 57.0961 103.347 57.0326C103.32 57.0039 103.296 56.973 103.275 56.9402C103.256 56.9098 103.239 56.8779 103.224 56.8449C103.208 56.8083 103.196 56.7704 103.188 56.7317C103.185 56.686 103.185 56.6402 103.188 56.5946C103.185 56.492 103.205 56.39 103.248 56.2966C103.286 56.2095 103.343 56.1321 103.416 56.0701C103.494 56.0059 103.583 55.9564 103.679 55.9241C103.79 55.8895 103.905 55.8724 104.02 55.8734C104.07 55.8703 104.12 55.8703 104.17 55.8734L104.299 55.9002H105.068V56.1982H104.7ZM103.422 58.2515C103.421 58.2987 103.436 58.3447 103.464 58.3828C103.492 58.4209 103.532 58.449 103.577 58.4631C103.718 58.5117 103.866 58.5339 104.014 58.5286C104.115 58.5303 104.216 58.5192 104.314 58.4958C104.382 58.4818 104.447 58.4556 104.506 58.4183C104.55 58.389 104.586 58.3491 104.61 58.3021C104.631 58.2615 104.643 58.2167 104.643 58.171C104.645 58.1335 104.636 58.0963 104.617 58.0639C104.598 58.0316 104.569 58.0056 104.535 57.9892C104.435 57.9412 104.324 57.9168 104.212 57.9177L103.658 57.8998C103.616 57.9252 103.577 57.9552 103.541 57.9892C103.513 58.0143 103.489 58.0435 103.47 58.0756C103.455 58.1031 103.442 58.1321 103.434 58.1621C103.427 58.1914 103.423 58.2214 103.422 58.2515ZM103.532 56.5797C103.532 56.6411 103.544 56.7019 103.568 56.7585C103.589 56.8102 103.621 56.8569 103.661 56.8956C103.704 56.9349 103.753 56.9653 103.808 56.985C103.867 57.006 103.93 57.016 103.994 57.0147C104.06 57.0158 104.126 57.0037 104.188 56.979C104.244 56.9598 104.295 56.927 104.335 56.8836C104.373 56.8431 104.402 56.7955 104.422 56.7436C104.443 56.6915 104.454 56.6359 104.455 56.5797C104.455 56.5173 104.443 56.4554 104.419 56.3979C104.398 56.3454 104.365 56.2985 104.323 56.2608C104.282 56.2209 104.233 56.1904 104.179 56.1714C104.12 56.1504 104.057 56.1403 103.994 56.1416C103.926 56.1403 103.859 56.1524 103.796 56.1773C103.742 56.1995 103.693 56.2319 103.652 56.2727C103.613 56.3132 103.583 56.3607 103.562 56.4128C103.543 56.4664 103.533 56.5228 103.532 56.5797Z" fill="#3A3A39"/>
<path d="M107.7 57.9566H107.332V56.6484C107.342 56.5241 107.309 56.4003 107.239 56.2968C107.209 56.2569 107.169 56.2253 107.123 56.205C107.077 56.1847 107.026 56.1762 106.976 56.1805C106.929 56.1802 106.883 56.1862 106.838 56.1984C106.79 56.2134 106.744 56.2366 106.703 56.2669C106.648 56.304 106.597 56.3469 106.551 56.395C106.497 56.4487 106.431 56.5173 106.359 56.5977V57.9566H105.991V55.0898H106.359V55.9213V56.2431C106.411 56.1823 106.468 56.1264 106.53 56.0762C106.581 56.0334 106.637 55.9963 106.697 55.9659C106.751 55.9373 106.808 55.9162 106.868 55.9034C106.927 55.8912 106.987 55.8852 107.048 55.8855C107.138 55.8798 107.229 55.8934 107.313 55.9253C107.398 55.9571 107.475 56.0066 107.539 56.0703C107.666 56.2293 107.728 56.4306 107.712 56.6335L107.7 57.9566Z" fill="#3A3A39"/>
<path d="M113.455 56.8963C113.459 57.0589 113.432 57.2207 113.375 57.3731C113.329 57.5014 113.254 57.6177 113.156 57.7129C113.061 57.8027 112.948 57.8708 112.824 57.9125C112.691 57.9588 112.551 57.982 112.41 57.981C112.344 57.9855 112.277 57.9855 112.21 57.981C112.14 57.9745 112.071 57.9636 112.003 57.9483V58.8035H111.635V55.9219H111.964L111.988 56.2645C112.075 56.1392 112.191 56.0368 112.327 55.9666C112.448 55.9101 112.581 55.8816 112.716 55.8831C112.827 55.8798 112.938 55.9054 113.036 55.9576C113.13 56.0048 113.209 56.0758 113.267 56.1633C113.334 56.2607 113.382 56.3699 113.408 56.4851C113.441 56.6196 113.457 56.7578 113.455 56.8963ZM113.078 56.9142C113.078 56.8144 113.07 56.7148 113.054 56.6162C113.04 56.5363 113.014 56.4589 112.976 56.3868C112.944 56.3265 112.896 56.2753 112.839 56.2378C112.78 56.2005 112.711 56.1818 112.641 56.1841C112.593 56.1839 112.546 56.191 112.5 56.205C112.447 56.222 112.397 56.2461 112.351 56.2765C112.293 56.3153 112.239 56.3591 112.189 56.4076C112.123 56.4722 112.061 56.5409 112.003 56.6133V57.6055C112.074 57.6323 112.146 57.6542 112.219 57.6711C112.292 57.6854 112.366 57.6924 112.44 57.692C112.528 57.6956 112.615 57.6801 112.696 57.6467C112.776 57.6132 112.849 57.5626 112.907 57.4983C113.034 57.3306 113.094 57.1231 113.078 56.9142Z" fill="#3A3A39"/>
<path d="M116.255 56.8246V56.9527V57.0481H114.758C114.752 57.1364 114.765 57.225 114.796 57.3079C114.828 57.3907 114.877 57.4657 114.941 57.5278C115.088 57.6499 115.276 57.7108 115.468 57.6977H115.653C115.713 57.695 115.773 57.689 115.833 57.6798L116.001 57.653C116.05 57.6436 116.099 57.6316 116.147 57.6172V57.9152C116.035 57.9456 115.921 57.9675 115.806 57.9808C115.676 57.9989 115.545 58.0079 115.414 58.0076C115.254 58.0111 115.095 57.9869 114.944 57.9361C114.821 57.8942 114.71 57.8237 114.62 57.7305C114.534 57.6341 114.469 57.5202 114.432 57.3967C114.39 57.2523 114.37 57.1028 114.372 56.9527C114.37 56.8139 114.392 56.6758 114.438 56.5444C114.477 56.4199 114.541 56.3045 114.626 56.2047C114.708 56.1079 114.811 56.0297 114.926 55.9752C115.054 55.9166 115.194 55.8871 115.336 55.8888C115.471 55.8867 115.605 55.9099 115.731 55.9573C115.844 55.9979 115.946 56.0631 116.03 56.1481C116.111 56.2331 116.171 56.3349 116.207 56.4461C116.244 56.5688 116.26 56.6966 116.255 56.8246ZM115.872 56.7739C115.875 56.6895 115.866 56.6052 115.845 56.5236C115.824 56.4524 115.788 56.3864 115.74 56.3298C115.69 56.2757 115.63 56.2322 115.563 56.2017C115.485 56.1706 115.402 56.1555 115.318 56.157C115.242 56.156 115.166 56.1712 115.096 56.2017C115.031 56.2316 114.972 56.2742 114.923 56.3269C114.873 56.3852 114.835 56.4518 114.809 56.5236C114.779 56.6041 114.76 56.6883 114.752 56.7739H115.872Z" fill="#3A3A39"/>
<path d="M117.366 55.9103H117.704V56.2888C117.809 56.1616 117.935 56.0545 118.079 55.9729C118.191 55.9096 118.318 55.8758 118.447 55.8745C118.541 55.868 118.635 55.8832 118.722 55.9189C118.81 55.9545 118.888 56.0098 118.95 56.0802C119.071 56.2542 119.126 56.4654 119.106 56.6762H118.734C118.747 56.5409 118.719 56.4049 118.653 56.2858C118.624 56.2463 118.585 56.2147 118.54 56.1939C118.495 56.1731 118.445 56.1637 118.396 56.1666C118.345 56.1656 118.294 56.1736 118.246 56.1904C118.191 56.2107 118.139 56.2377 118.091 56.2709C118.03 56.3143 117.974 56.3631 117.923 56.4169C117.854 56.4828 117.79 56.5535 117.731 56.6285V57.9427H117.357L117.366 55.9103Z" fill="#3A3A39"/>
<path d="M121.992 55.4064C121.828 55.3715 121.66 55.3525 121.492 55.3498C121.424 55.3403 121.354 55.3466 121.289 55.3685C121.224 55.3903 121.165 55.427 121.116 55.4756C121.068 55.5242 121.031 55.5833 121.01 55.6484C120.988 55.7134 120.982 55.7826 120.992 55.8504V56.208H121.926V56.506H120.992V57.9602H120.618V56.506H119.932V56.208H120.618V55.8713C120.618 55.3259 120.917 55.0547 121.516 55.0547C121.68 55.0558 121.843 55.0718 122.004 55.1024L121.992 55.4064Z" fill="#3A3A39"/>
<path d="M124.777 56.9181C124.779 57.067 124.756 57.2152 124.708 57.3562C124.664 57.4815 124.596 57.5968 124.507 57.6959C124.416 57.7902 124.307 57.8652 124.187 57.9164C124.05 57.9694 123.905 57.9958 123.759 57.9939C123.619 57.9957 123.48 57.9725 123.348 57.9254C123.235 57.882 123.132 57.8138 123.049 57.7258C122.962 57.6312 122.896 57.5195 122.854 57.3979C122.809 57.2522 122.787 57.1004 122.788 56.9479C122.786 56.7998 122.811 56.6526 122.86 56.5129C122.903 56.3871 122.971 56.2714 123.061 56.1731C123.15 56.0772 123.26 56.0019 123.381 55.9526C123.518 55.8993 123.663 55.873 123.81 55.8751C123.949 55.8734 124.088 55.8966 124.22 55.9437C124.333 55.9885 124.435 56.0565 124.519 56.1434C124.607 56.2372 124.672 56.3491 124.711 56.4711C124.758 56.6154 124.78 56.7665 124.777 56.9181ZM124.399 56.9181C124.401 56.8065 124.387 56.6952 124.357 56.5874C124.331 56.5014 124.289 56.4214 124.232 56.3519C124.179 56.2896 124.112 56.2405 124.037 56.2089C123.955 56.1774 123.868 56.1613 123.78 56.1613C123.681 56.1585 123.583 56.18 123.495 56.2238C123.419 56.2636 123.353 56.3208 123.304 56.3907C123.251 56.4633 123.214 56.5452 123.193 56.632C123.167 56.7293 123.155 56.8296 123.157 56.93C123.155 57.0429 123.17 57.1555 123.202 57.2638C123.224 57.3505 123.266 57.431 123.324 57.4993C123.376 57.5627 123.443 57.612 123.519 57.6423C123.602 57.6755 123.69 57.6917 123.78 57.69C123.877 57.6932 123.973 57.6727 124.061 57.6304C124.138 57.5906 124.205 57.5334 124.256 57.4635C124.308 57.3909 124.345 57.3089 124.366 57.2221C124.388 57.1272 124.399 57.0303 124.399 56.933V56.9181Z" fill="#3A3A39"/>
<path d="M125.834 55.9103H126.172V56.2888C126.276 56.1624 126.402 56.0554 126.543 55.9729C126.657 55.9096 126.784 55.8758 126.915 55.8745C127.009 55.868 127.103 55.8832 127.19 55.9189C127.277 55.9545 127.355 56.0098 127.418 56.0802C127.539 56.2542 127.594 56.4654 127.573 56.6762H127.202C127.216 56.5405 127.187 56.4039 127.118 56.2858C127.089 56.2463 127.05 56.2147 127.005 56.1939C126.96 56.1731 126.91 56.1637 126.861 56.1666C126.81 56.166 126.759 56.174 126.711 56.1904C126.657 56.2107 126.606 56.2378 126.558 56.2709C126.498 56.3149 126.44 56.3637 126.388 56.4169C126.321 56.4836 126.258 56.5543 126.199 56.6285V57.9427H125.825L125.834 55.9103Z" fill="#3A3A39"/>
<path d="M130.089 57.9587V56.4895C130.092 56.4369 130.092 56.3842 130.089 56.3316C130.086 56.2987 130.077 56.2666 130.065 56.2363C130.057 56.2157 130.044 56.1978 130.026 56.1856C130.007 56.1757 129.987 56.1707 129.966 56.1707C129.937 56.1713 129.909 56.1795 129.885 56.1945C129.856 56.2178 129.831 56.2449 129.81 56.275C129.775 56.3208 129.744 56.3697 129.717 56.421C129.685 56.4806 129.646 56.5551 129.6 56.6445V57.9587H129.262V56.5283C129.262 56.4538 129.262 56.3912 129.262 56.3465C129.26 56.3097 129.252 56.2736 129.238 56.2393C129.231 56.2171 129.216 56.1981 129.196 56.1856C129.178 56.1757 129.157 56.1707 129.136 56.1707C129.111 56.1699 129.086 56.1771 129.064 56.1915C129.035 56.2122 129.009 56.2373 128.987 56.266C128.953 56.3112 128.923 56.359 128.897 56.4091C128.861 56.4716 128.822 56.5491 128.774 56.6445V57.9587H128.436V55.9114H128.717L128.735 56.3018C128.766 56.2336 128.802 56.1678 128.843 56.1051C128.872 56.0559 128.907 56.0108 128.948 55.971C128.983 55.9401 129.024 55.9159 129.067 55.8995C129.112 55.8836 129.158 55.8755 129.205 55.8756C129.254 55.8726 129.303 55.8807 129.348 55.8993C129.393 55.9179 129.433 55.9465 129.466 55.9829C129.533 56.0807 129.565 56.1985 129.556 56.3167C129.589 56.2492 129.622 56.1866 129.654 56.129C129.684 56.0794 129.719 56.0334 129.759 55.9919C129.795 55.9549 129.838 55.9255 129.885 55.9055C129.934 55.8842 129.987 55.874 130.041 55.8756C130.307 55.8756 130.442 56.0723 130.442 56.4716V57.9616L130.089 57.9587Z" fill="#3A3A39"/>
<path d="M132.759 57.9585V57.6813C132.658 57.7823 132.538 57.8632 132.406 57.9197C132.287 57.9698 132.158 57.9952 132.029 57.9942C131.927 57.9951 131.826 57.9801 131.729 57.9496C131.65 57.9237 131.578 57.881 131.517 57.8243C131.462 57.7743 131.42 57.712 131.394 57.6426C131.367 57.5681 131.354 57.4893 131.355 57.4102C131.352 57.3167 131.372 57.224 131.414 57.1403C131.456 57.0566 131.518 56.9844 131.595 56.9303C131.805 56.7995 132.051 56.738 132.298 56.7546H132.738V56.5757C132.742 56.5203 132.733 56.4647 132.713 56.4131C132.692 56.3615 132.66 56.3153 132.619 56.2777C132.514 56.1961 132.383 56.1568 132.25 56.1675C132.131 56.167 132.011 56.1799 131.894 56.2062C131.771 56.2346 131.65 56.2715 131.532 56.3165V55.9976C131.583 55.9791 131.635 55.9632 131.687 55.9499C131.748 55.9329 131.809 55.919 131.87 55.9082C131.936 55.8947 132.003 55.8848 132.071 55.8784C132.14 55.8739 132.211 55.8739 132.28 55.8784C132.397 55.8776 132.514 55.8917 132.628 55.9202C132.722 55.9431 132.81 55.9847 132.888 56.0423C132.959 56.0989 133.015 56.1714 133.053 56.2539C133.093 56.3479 133.113 56.4496 133.11 56.5519V57.9614L132.759 57.9585ZM132.717 57.0257H132.25C132.171 57.0242 132.091 57.0332 132.014 57.0526C131.954 57.0659 131.898 57.0912 131.849 57.1271C131.807 57.1579 131.774 57.1989 131.753 57.2462C131.734 57.2945 131.723 57.3461 131.723 57.3982C131.723 57.437 131.73 57.4755 131.744 57.5115C131.757 57.5474 131.777 57.58 131.804 57.6068C131.836 57.637 131.874 57.6604 131.915 57.6753C131.968 57.6919 132.024 57.6999 132.08 57.6992C132.184 57.6966 132.286 57.6712 132.379 57.6247C132.505 57.5632 132.621 57.4839 132.723 57.3893L132.717 57.0257Z" fill="#3A3A39"/>
<path d="M134.215 55.9103H134.541L134.556 56.2411C134.611 56.1772 134.673 56.1183 134.739 56.0653C134.791 56.0214 134.848 55.9834 134.909 55.952C134.963 55.9234 135.02 55.9033 135.08 55.8924C135.139 55.8803 135.199 55.8742 135.26 55.8745C135.351 55.8684 135.442 55.8817 135.528 55.9136C135.614 55.9454 135.692 55.9951 135.757 56.0593C135.88 56.2205 135.939 56.4207 135.924 56.6225V57.9576H135.556V56.6493C135.566 56.5241 135.533 56.3992 135.463 56.2947C135.429 56.2556 135.386 56.225 135.337 56.2053C135.289 56.1856 135.237 56.1774 135.185 56.1814C135.14 56.1813 135.096 56.1874 135.053 56.1993C135.004 56.2137 134.958 56.2369 134.918 56.2679C134.863 56.3049 134.812 56.3479 134.765 56.396C134.701 56.4605 134.64 56.5281 134.583 56.5987V57.9576H134.215V55.9103Z" fill="#3A3A39"/>
<path d="M138.691 57.8796C138.594 57.9156 138.494 57.9425 138.392 57.96C138.288 57.9756 138.182 57.9835 138.077 57.9838C137.937 57.9933 137.796 57.9751 137.663 57.9301C137.53 57.8851 137.407 57.8142 137.302 57.7216C137.206 57.6189 137.132 57.4977 137.085 57.3654C137.038 57.2332 137.019 57.0927 137.029 56.9528C137.026 56.8031 137.053 56.6543 137.107 56.5147C137.155 56.3869 137.231 56.2709 137.329 56.175C137.425 56.0797 137.54 56.0056 137.667 55.9574C137.806 55.9061 137.953 55.8808 138.101 55.8829C138.201 55.8826 138.301 55.8896 138.401 55.9038C138.495 55.9181 138.587 55.9431 138.676 55.9783V56.3151C138.586 56.2717 138.492 56.2377 138.395 56.2137C138.296 56.193 138.196 56.183 138.095 56.1839C138.003 56.184 137.912 56.2012 137.826 56.2346C137.743 56.2705 137.667 56.3221 137.604 56.3866C137.538 56.4545 137.487 56.5358 137.454 56.6249C137.418 56.7262 137.399 56.8332 137.4 56.9408C137.393 57.0413 137.406 57.1423 137.438 57.2379C137.469 57.3335 137.52 57.422 137.586 57.4981C137.656 57.5614 137.739 57.61 137.828 57.6412C137.918 57.6725 138.013 57.6856 138.107 57.6799C138.208 57.6815 138.309 57.6706 138.407 57.6471C138.501 57.6252 138.592 57.5932 138.679 57.5518L138.691 57.8796Z" fill="#3A3A39"/>
<path d="M141.655 56.8246V56.9527C141.655 56.9855 141.655 57.0183 141.655 57.0481H140.158C140.152 57.1364 140.165 57.225 140.197 57.3079C140.228 57.3907 140.277 57.4657 140.341 57.5278C140.488 57.6499 140.677 57.7108 140.868 57.6977C140.931 57.6977 140.991 57.6977 141.053 57.6977C141.114 57.695 141.174 57.689 141.233 57.6798L141.401 57.653C141.45 57.6436 141.499 57.6316 141.548 57.6172V57.9152C141.436 57.9456 141.321 57.9675 141.206 57.9808C141.076 57.9989 140.945 58.0079 140.814 58.0076C140.654 58.0111 140.495 57.9869 140.344 57.9361C140.221 57.8942 140.11 57.8237 140.02 57.7305C139.934 57.6341 139.87 57.5202 139.832 57.3967C139.791 57.2523 139.771 57.1028 139.772 56.9527C139.772 56.814 139.794 56.6761 139.838 56.5444C139.878 56.4199 139.942 56.3045 140.026 56.2047C140.109 56.1079 140.211 56.0297 140.326 55.9752C140.453 55.9163 140.593 55.8868 140.733 55.8888C140.868 55.8867 141.002 55.9099 141.128 55.9573C141.241 55.9979 141.343 56.0631 141.428 56.1481C141.508 56.2331 141.569 56.3349 141.604 56.4461C141.642 56.5686 141.659 56.6965 141.655 56.8246ZM141.272 56.7739C141.279 56.6895 141.27 56.6047 141.245 56.5236C141.224 56.4524 141.189 56.3864 141.14 56.3298C141.091 56.2757 141.031 56.2322 140.964 56.2017C140.886 56.1706 140.802 56.1555 140.718 56.157C140.642 56.156 140.566 56.1712 140.497 56.2017C140.431 56.231 140.373 56.2736 140.326 56.3269C140.277 56.3858 140.237 56.4522 140.209 56.5236C140.179 56.6041 140.16 56.6883 140.152 56.7739H141.272Z" fill="#3A3A39"/>
<path d="M90.9476 60.4133C90.7821 60.3782 90.6137 60.3592 90.4446 60.3566C90.3765 60.3469 90.3071 60.3533 90.2419 60.3751C90.1768 60.397 90.1177 60.4337 90.0694 60.4824C90.0211 60.5311 89.9849 60.5903 89.9637 60.6554C89.9425 60.7205 89.937 60.7897 89.9475 60.8573V61.2149H90.8817V61.5129H89.9475V62.9671H89.5852V61.5129H88.8995V61.2149H89.5852V60.8781C89.5852 60.3328 89.8846 60.0586 90.4834 60.0586C90.6473 60.0609 90.8106 60.0779 90.9715 60.1093L90.9476 60.4133Z" fill="#3A3A39"/>
<path d="M92.6034 61.2119H91.9746V60.9139H92.9777V62.6631H93.6125V62.9611H91.9058V62.6631H92.6034V61.2119ZM92.7352 60.0586C92.7743 60.0591 92.8129 60.0672 92.8489 60.0825C92.8842 60.0948 92.916 60.1152 92.9418 60.142C92.967 60.168 92.9873 60.1983 93.0016 60.2315C93.0173 60.2651 93.0255 60.3017 93.0256 60.3388C93.0255 60.3758 93.0173 60.4124 93.0016 60.446C92.9877 60.4794 92.9674 60.5098 92.9418 60.5354C92.9151 60.5619 92.8835 60.5831 92.8489 60.598C92.8124 60.6109 92.774 60.618 92.7352 60.6189C92.6954 60.6182 92.6559 60.6112 92.6184 60.598C92.5837 60.5831 92.5523 60.5619 92.5256 60.5354C92.5 60.5098 92.4796 60.4794 92.4657 60.446C92.45 60.4124 92.4418 60.3758 92.4417 60.3388C92.4418 60.3017 92.45 60.2651 92.4657 60.2315C92.4801 60.1983 92.5004 60.168 92.5256 60.142C92.5514 60.1152 92.5831 60.0948 92.6184 60.0825C92.6553 60.0668 92.695 60.0587 92.7352 60.0586Z" fill="#3A3A39"/>
<path d="M95.427 60.3742H94.7982V60.0762H95.8013V62.6568H96.4331V62.9548H94.7263V62.6568H95.427V60.3742Z" fill="#3A3A39"/>
<path d="M99.2387 62.9359C99.1541 62.9571 99.068 62.972 98.9812 62.9806C98.8904 62.9851 98.7995 62.9851 98.7087 62.9806C98.4948 62.996 98.2823 62.9346 98.1099 62.8077C98.0408 62.7373 97.9876 62.6531 97.9541 62.5606C97.9205 62.468 97.9073 62.3694 97.9153 62.2714V61.2045H97.3164V60.9065H97.9153V60.3462L98.2835 60.2539V60.9065H99.2387V61.2045H98.2835V62.2445C98.2783 62.3048 98.2866 62.3655 98.3078 62.4222C98.329 62.4789 98.3627 62.5302 98.4063 62.5723C98.5084 62.6518 98.6363 62.691 98.7656 62.6826C98.8397 62.6816 98.9136 62.6766 98.9872 62.6677C99.072 62.6559 99.156 62.639 99.2387 62.617V62.9359Z" fill="#3A3A39"/>
<path d="M102.143 61.8307V61.9588C102.143 61.9916 102.143 62.0244 102.143 62.0542H100.646C100.64 62.1425 100.654 62.2309 100.685 62.3136C100.717 62.3963 100.766 62.4714 100.829 62.5339C100.976 62.656 101.164 62.7169 101.356 62.7038C101.418 62.7038 101.478 62.7038 101.541 62.7038C101.601 62.7011 101.661 62.6951 101.721 62.6859L101.889 62.659L102.035 62.6233V62.9213C101.923 62.9517 101.809 62.9736 101.694 62.9869C101.564 63.005 101.433 63.014 101.302 63.0137C101.142 63.0172 100.983 62.993 100.832 62.9422C100.709 62.9003 100.598 62.8297 100.508 62.7365C100.422 62.6407 100.358 62.5266 100.323 62.4028C100.279 62.2589 100.258 62.1091 100.26 61.9588C100.26 61.8201 100.282 61.6822 100.326 61.5505C100.365 61.426 100.43 61.3106 100.514 61.2108C100.597 61.114 100.699 61.0358 100.814 60.9813C100.941 60.9224 101.08 60.8929 101.221 60.8949C101.356 60.8913 101.49 60.9146 101.616 60.9634C101.728 61.0034 101.831 61.0675 101.915 61.1512C101.995 61.2369 102.055 61.3385 102.092 61.4492C102.13 61.5726 102.148 61.7016 102.143 61.8307ZM101.76 61.7799C101.766 61.6956 101.757 61.6108 101.733 61.5297C101.712 61.4585 101.676 61.3924 101.628 61.3359C101.578 61.2818 101.518 61.2383 101.451 61.2078C101.373 61.1767 101.29 61.1615 101.206 61.1631C101.13 61.162 101.054 61.1773 100.984 61.2078C100.919 61.2371 100.861 61.2797 100.814 61.3329C100.764 61.3919 100.725 61.4583 100.697 61.5297C100.667 61.6102 100.648 61.6943 100.64 61.7799H101.76Z" fill="#3A3A39"/>
<path d="M103.254 60.9162H103.592V61.2946C103.696 61.1676 103.821 61.0605 103.964 60.9787C104.076 60.9158 104.203 60.882 104.332 60.8804C104.426 60.8739 104.52 60.8891 104.608 60.9247C104.695 60.9604 104.773 61.0156 104.835 61.086C104.961 61.2637 105.017 61.4808 104.994 61.6969H104.619C104.634 61.5615 104.606 61.4251 104.539 61.3066C104.509 61.267 104.47 61.2354 104.425 61.2146C104.38 61.1938 104.331 61.1844 104.281 61.1873C104.23 61.1865 104.179 61.1946 104.131 61.2112C104.076 61.2315 104.024 61.2585 103.976 61.2916C103.916 61.3358 103.86 61.3846 103.808 61.4377C103.74 61.5043 103.676 61.575 103.616 61.6492V62.9634H103.242L103.254 60.9162Z" fill="#3A3A39"/>
<path d="M110.332 62.964V61.4949C110.336 61.4423 110.336 61.3895 110.332 61.3369C110.331 61.3039 110.323 61.2714 110.308 61.2415C110.301 61.2209 110.288 61.2032 110.27 61.1909C110.25 61.1857 110.229 61.1857 110.21 61.1909C110.181 61.1914 110.153 61.1997 110.129 61.2148C110.1 61.238 110.075 61.2651 110.054 61.2952C110.019 61.341 109.988 61.3899 109.961 61.4412C109.927 61.5008 109.888 61.5753 109.844 61.6647V62.9789H109.506V61.5485C109.51 61.4879 109.51 61.4273 109.506 61.3667C109.504 61.33 109.495 61.2938 109.482 61.2594C109.476 61.2368 109.461 61.2175 109.44 61.2058C109.42 61.2006 109.4 61.2006 109.38 61.2058C109.355 61.2049 109.329 61.2123 109.308 61.2267C109.279 61.2474 109.252 61.2725 109.231 61.3012C109.197 61.3463 109.167 61.3942 109.141 61.4442C109.105 61.5068 109.066 61.5843 109.018 61.6797V62.9938H108.68V60.9465H108.961L108.979 61.3369C109.01 61.2687 109.046 61.203 109.087 61.1403C109.115 61.0911 109.151 61.046 109.192 61.0062C109.227 60.9753 109.267 60.9511 109.311 60.9347C109.355 60.9188 109.402 60.9107 109.449 60.9108C109.498 60.9077 109.547 60.9158 109.592 60.9344C109.637 60.953 109.677 60.9816 109.71 61.018C109.777 61.1158 109.809 61.2336 109.799 61.3518C109.832 61.2833 109.865 61.2177 109.898 61.1641C109.928 61.1145 109.963 61.0685 110.003 61.027C110.039 60.99 110.081 60.9606 110.129 60.9406C110.178 60.9193 110.231 60.9092 110.284 60.9108C110.551 60.9108 110.686 61.1075 110.686 61.5068V62.9968L110.332 62.964Z" fill="#3A3A39"/>
<path d="M113.003 62.9643V62.6872C112.902 62.7881 112.782 62.869 112.65 62.9256C112.531 62.9757 112.402 63.0011 112.273 63.0001C112.171 63.001 112.07 62.9858 111.973 62.9553C111.894 62.9288 111.822 62.8862 111.761 62.8302C111.706 62.7801 111.664 62.7179 111.638 62.6485C111.611 62.574 111.598 62.4952 111.599 62.416C111.596 62.3226 111.616 62.2298 111.658 62.1461C111.7 62.0624 111.762 61.9903 111.839 61.9362C112.049 61.8053 112.295 61.7438 112.542 61.7604H112.985V61.5816C112.989 61.526 112.979 61.4703 112.958 61.4187C112.937 61.3671 112.904 61.321 112.863 61.2836C112.758 61.202 112.627 61.1626 112.494 61.1733C112.374 61.1728 112.255 61.1858 112.138 61.2121C112.015 61.2405 111.894 61.2773 111.776 61.3223V61.0035C111.828 60.9846 111.881 60.9686 111.934 60.9558C111.993 60.9384 112.053 60.9245 112.114 60.9141C112.18 60.9008 112.247 60.8908 112.315 60.8843C112.384 60.8797 112.454 60.8797 112.524 60.8843C112.641 60.8835 112.758 60.8975 112.872 60.926C112.966 60.949 113.054 60.9905 113.132 61.0482C113.204 61.1039 113.26 61.1766 113.297 61.2597C113.337 61.3537 113.357 61.4555 113.354 61.5577V62.9673L113.003 62.9643ZM112.964 62.0316H112.494C112.415 62.03 112.335 62.039 112.258 62.0584C112.198 62.0717 112.142 62.097 112.093 62.1329C112.052 62.1633 112.02 62.2046 112 62.2521C111.978 62.2997 111.967 62.3516 111.967 62.4041C111.967 62.4428 111.974 62.4813 111.988 62.5173C112.001 62.5532 112.021 62.5859 112.048 62.6127C112.08 62.6429 112.118 62.6662 112.159 62.6812C112.212 62.6977 112.268 62.7058 112.324 62.7051C112.427 62.7009 112.529 62.6756 112.623 62.6306C112.749 62.5684 112.866 62.4892 112.97 62.3951L112.964 62.0316Z" fill="#3A3A39"/>
<path d="M114.458 60.9162H114.785L114.8 61.2469C114.855 61.183 114.916 61.1242 114.982 61.0711C115.035 61.0273 115.092 60.9893 115.153 60.9578C115.207 60.9292 115.264 60.9091 115.324 60.8983C115.383 60.8861 115.443 60.8801 115.503 60.8804C115.595 60.8742 115.686 60.8876 115.772 60.9194C115.858 60.9513 115.936 61.001 116.001 61.0651C116.123 61.2263 116.183 61.4265 116.168 61.6283V62.9634H115.8V61.6462C115.81 61.521 115.777 61.3961 115.707 61.2916C115.673 61.2525 115.63 61.2218 115.581 61.2021C115.533 61.1825 115.481 61.1743 115.429 61.1784C115.384 61.1782 115.34 61.1843 115.297 61.1963C115.248 61.2106 115.202 61.2338 115.162 61.2648C115.107 61.3018 115.055 61.3448 115.009 61.3929C114.945 61.4574 114.884 61.5251 114.827 61.5956V62.9544H114.458V60.9162Z" fill="#3A3A39"/>
<path d="M118.992 62.9652H118.659V62.6344C118.604 62.6984 118.543 62.7572 118.477 62.8102C118.424 62.854 118.367 62.8921 118.306 62.9235C118.253 62.9518 118.195 62.9719 118.135 62.9831C118.076 62.9952 118.016 63.0012 117.956 63.001C117.864 63.0073 117.773 62.9941 117.687 62.9622C117.601 62.9303 117.524 62.8805 117.459 62.8162C117.336 62.6562 117.276 62.4569 117.291 62.256V60.918H117.659V62.2262C117.659 62.5242 117.782 62.697 118.031 62.697C118.075 62.6969 118.119 62.6909 118.162 62.6791C118.21 62.6623 118.255 62.6392 118.297 62.6106C118.352 62.5726 118.403 62.5297 118.45 62.4825C118.504 62.4258 118.567 62.3573 118.632 62.2769V60.918H119.004L118.992 62.9652Z" fill="#3A3A39"/>
<path d="M121.992 60.4133C121.828 60.3784 121.66 60.3593 121.492 60.3566C121.424 60.3471 121.354 60.3535 121.289 60.3754C121.224 60.3972 121.165 60.4339 121.116 60.4825C121.068 60.531 121.031 60.5902 121.01 60.6552C120.988 60.7203 120.982 60.7895 120.992 60.8573V61.2149H121.926V61.5129H120.992V62.9671H120.618V61.5129H119.932V61.2149H120.618V60.8781C120.618 60.3328 120.917 60.0586 121.516 60.0586C121.68 60.0609 121.843 60.0779 122.004 60.1093L121.992 60.4133Z" fill="#3A3A39"/>
<path d="M124.292 62.9643V62.6872C124.191 62.7887 124.071 62.8697 123.938 62.9256C123.82 62.9756 123.693 63.001 123.564 63.0001C123.462 63.0014 123.361 62.9863 123.265 62.9553C123.185 62.9292 123.111 62.8865 123.049 62.8302C122.995 62.7793 122.953 62.7173 122.926 62.6485C122.901 62.5736 122.888 62.4951 122.887 62.416C122.884 62.3226 122.905 62.2298 122.946 62.1461C122.988 62.0624 123.05 61.9903 123.127 61.9362C123.337 61.8053 123.583 61.7438 123.831 61.7604H124.274V61.5816C124.277 61.526 124.268 61.4703 124.246 61.4187C124.225 61.3671 124.192 61.321 124.151 61.2836C124.046 61.202 123.915 61.1626 123.783 61.1733C123.663 61.1728 123.543 61.1858 123.426 61.2121C123.304 61.2405 123.184 61.2773 123.067 61.3223V61.0035C123.118 60.9846 123.17 60.9686 123.223 60.9558C123.282 60.9384 123.342 60.9245 123.402 60.9141C123.468 60.9141 123.534 60.8902 123.603 60.8843C123.673 60.8797 123.743 60.8797 123.813 60.8843C123.93 60.8833 124.046 60.8973 124.16 60.926C124.255 60.949 124.345 60.9905 124.423 61.0482C124.494 61.1054 124.55 61.1777 124.588 61.2597C124.627 61.3542 124.647 61.4556 124.645 61.5577V62.9673L124.292 62.9643ZM124.253 62.0316H123.783C123.703 62.03 123.623 62.039 123.546 62.0584C123.487 62.0723 123.431 62.0976 123.381 62.1329C123.341 62.164 123.309 62.2051 123.289 62.2521C123.267 62.2999 123.257 62.3519 123.259 62.4041C123.258 62.4425 123.265 62.4807 123.277 62.5173C123.289 62.5532 123.309 62.5859 123.336 62.6127C123.368 62.6429 123.406 62.6662 123.447 62.6812C123.502 62.6979 123.558 62.706 123.615 62.7051C123.719 62.7009 123.821 62.6756 123.914 62.6306C124.04 62.5684 124.157 62.4892 124.262 62.3951L124.253 62.0316Z" fill="#3A3A39"/>
<path d="M127.4 62.8873C127.303 62.9231 127.202 62.9501 127.1 62.9678C127.001 62.9827 126.901 62.9906 126.801 62.9917C126.661 63.0012 126.52 62.9829 126.387 62.9379C126.254 62.8929 126.131 62.822 126.025 62.7294C125.929 62.6269 125.854 62.5058 125.807 62.3735C125.76 62.2413 125.74 62.1007 125.75 61.9606C125.748 61.8107 125.775 61.6619 125.831 61.5225C125.879 61.3954 125.953 61.2797 126.049 61.1828C126.147 61.0881 126.263 61.0141 126.391 60.9652C126.529 60.9139 126.677 60.8886 126.825 60.8907C126.925 60.8902 127.025 60.8972 127.124 60.9116C127.219 60.9254 127.311 60.9505 127.4 60.9861V61.3228C127.311 61.2795 127.217 61.2456 127.121 61.2216C127.023 61.2008 126.922 61.1908 126.822 61.1917C126.73 61.1915 126.638 61.2087 126.552 61.2424C126.469 61.2775 126.393 61.3292 126.331 61.3943C126.264 61.4623 126.213 61.5436 126.181 61.6328C126.143 61.7337 126.123 61.8408 126.124 61.9487C126.116 62.0494 126.129 62.1506 126.162 62.2464C126.194 62.3421 126.245 62.4303 126.313 62.5059C126.383 62.5691 126.465 62.6178 126.555 62.6491C126.644 62.6803 126.739 62.6934 126.834 62.6877C126.935 62.6898 127.035 62.6788 127.133 62.6549C127.227 62.6339 127.319 62.6019 127.406 62.5596L127.4 62.8873Z" fill="#3A3A39"/>
<path d="M130.283 62.9359C130.199 62.9573 130.112 62.9722 130.026 62.9806C129.935 62.9851 129.844 62.9851 129.753 62.9806C129.539 62.9982 129.326 62.9366 129.154 62.8077C129.084 62.7379 129.03 62.6538 128.996 62.5612C128.962 62.4686 128.948 62.3697 128.957 62.2714V61.2045H128.358V60.9065H128.957V60.3462L129.325 60.2539V60.9065H130.28V61.2045H129.325V62.2445C129.32 62.3047 129.329 62.3652 129.35 62.4218C129.371 62.4784 129.405 62.5298 129.448 62.5723C129.55 62.6518 129.678 62.691 129.807 62.6826C129.881 62.6816 129.955 62.6766 130.029 62.6677C130.113 62.6559 130.197 62.639 130.28 62.617L130.283 62.9359Z" fill="#3A3A39"/>
<path d="M133.104 62.9652H132.771V62.6344C132.715 62.6977 132.654 62.7564 132.589 62.8102C132.536 62.854 132.479 62.8921 132.418 62.9235C132.364 62.9512 132.307 62.9713 132.247 62.9831C132.188 62.9952 132.128 63.0012 132.068 63.001C131.976 63.0073 131.885 62.9941 131.799 62.9622C131.713 62.9303 131.635 62.8805 131.571 62.8162C131.448 62.6562 131.388 62.4569 131.403 62.256V60.918H131.771V62.2262C131.771 62.5242 131.894 62.697 132.14 62.697C132.185 62.6971 132.23 62.6911 132.274 62.6791C132.322 62.6623 132.367 62.6392 132.409 62.6106C132.464 62.5726 132.515 62.5297 132.562 62.4825C132.616 62.4258 132.678 62.3573 132.744 62.2769V60.918H133.116L133.104 62.9652Z" fill="#3A3A39"/>
<path d="M134.301 60.9165H134.637V61.2949C134.74 61.1679 134.866 61.0608 135.008 60.979C135.122 60.9158 135.249 60.8819 135.379 60.8807C135.473 60.8735 135.567 60.8884 135.654 60.9241C135.741 60.9598 135.818 61.0154 135.879 61.0863C136.005 61.264 136.062 61.4811 136.038 61.6972H135.664C135.68 61.5618 135.652 61.4249 135.583 61.3069C135.553 61.2673 135.514 61.2357 135.469 61.2149C135.424 61.1941 135.375 61.1847 135.325 61.1876C135.275 61.1868 135.224 61.1949 135.176 61.2115C135.121 61.2318 135.068 61.2588 135.02 61.2919C134.961 61.3369 134.905 61.3856 134.852 61.438C134.784 61.5046 134.72 61.5753 134.661 61.6495V62.9637H134.289L134.301 60.9165Z" fill="#3A3A39"/>
<path d="M138.835 61.8306C138.835 61.8813 138.835 61.923 138.835 61.9587C138.835 61.9945 138.835 62.0243 138.835 62.0541H137.338C137.331 62.1424 137.345 62.231 137.376 62.3138C137.408 62.3966 137.457 62.4717 137.52 62.5338C137.666 62.6558 137.854 62.7167 138.044 62.7037C138.108 62.7037 138.171 62.7037 138.233 62.7037C138.295 62.7037 138.355 62.6977 138.413 62.6858L138.577 62.659L138.727 62.6233V62.9212C138.615 62.9511 138.501 62.973 138.386 62.9868C138.256 63.0049 138.125 63.0139 137.993 63.0136C137.833 63.0172 137.673 62.993 137.52 62.9421C137.398 62.9002 137.287 62.8297 137.197 62.7365C137.11 62.6407 137.047 62.5266 137.011 62.4027C136.969 62.2586 136.948 62.1089 136.951 61.9587C136.95 61.8202 136.972 61.6823 137.014 61.5504C137.056 61.427 137.12 61.312 137.203 61.2107C137.286 61.1148 137.388 61.0367 137.502 60.9813C137.631 60.9224 137.771 60.8929 137.912 60.8948C138.047 60.8915 138.18 60.9148 138.305 60.9634C138.418 61.0025 138.52 61.0668 138.604 61.1512C138.684 61.2375 138.745 61.3388 138.784 61.4492C138.821 61.5729 138.838 61.7016 138.835 61.8306ZM138.451 61.7799C138.456 61.6954 138.445 61.6108 138.422 61.5296C138.402 61.458 138.366 61.3917 138.317 61.3359C138.268 61.2805 138.208 61.2367 138.14 61.2078C138.062 61.1764 137.979 61.1612 137.895 61.163C137.818 61.1622 137.743 61.1775 137.673 61.2078C137.608 61.237 137.55 61.2796 137.502 61.3329C137.453 61.3918 137.414 61.4583 137.385 61.5296C137.355 61.6099 137.337 61.6942 137.332 61.7799H138.451Z" fill="#3A3A39"/>
<path d="M139.946 60.9165H140.281V61.2949C140.384 61.1679 140.51 61.0608 140.652 60.979C140.766 60.9158 140.893 60.8819 141.024 60.8807C141.117 60.8735 141.211 60.8884 141.298 60.9241C141.385 60.9598 141.462 61.0154 141.524 61.0863C141.649 61.264 141.706 61.4811 141.682 61.6972H141.308C141.324 61.5618 141.296 61.4249 141.227 61.3069C141.197 61.2673 141.158 61.2357 141.113 61.2149C141.069 61.1941 141.019 61.1847 140.97 61.1876C140.919 61.187 140.868 61.1951 140.82 61.2115C140.765 61.2318 140.713 61.2588 140.664 61.2919C140.605 61.3369 140.549 61.3856 140.497 61.438C140.428 61.5046 140.364 61.5753 140.305 61.6495V62.9637H139.934L139.946 60.9165Z" fill="#3A3A39"/>
<path d="M144.626 49.2639H144.302L144.003 48.6173C143.983 48.5726 143.958 48.5306 143.928 48.4921C143.906 48.4627 143.88 48.4366 143.85 48.4146C143.822 48.3962 143.79 48.3831 143.757 48.3759C143.72 48.3712 143.681 48.3712 143.644 48.3759H143.506V49.2699H143.206V47.2464H143.769C143.875 47.2438 143.981 47.2569 144.084 47.2852C144.163 47.3069 144.237 47.3433 144.302 47.3924C144.357 47.4381 144.399 47.4965 144.425 47.5623C144.452 47.6316 144.466 47.7055 144.464 47.7799C144.464 47.8405 144.455 47.9008 144.437 47.9587C144.418 48.0142 144.388 48.0657 144.35 48.1107C144.31 48.1574 144.262 48.1976 144.209 48.2298C144.149 48.2648 144.083 48.2899 144.015 48.3043C144.073 48.3249 144.125 48.361 144.165 48.4087C144.214 48.4682 144.256 48.5331 144.29 48.6023L144.626 49.2639ZM144.165 47.7948C144.168 47.7491 144.161 47.7031 144.142 47.6611C144.124 47.619 144.096 47.582 144.06 47.5534C143.972 47.4938 143.866 47.4655 143.76 47.4729H143.488V48.1404H143.721C143.783 48.1416 143.844 48.1346 143.904 48.1196C143.954 48.1066 144.001 48.0832 144.042 48.051C144.08 48.0228 144.111 47.9861 144.132 47.9438C144.154 47.8973 144.165 47.8463 144.165 47.7948Z" fill="#3A3A39"/>
<path d="M143.916 50.2636C143.645 50.2691 143.377 50.2214 143.125 50.1232C142.873 50.025 142.643 49.8782 142.448 49.6913C142.253 49.5044 142.098 49.281 141.99 49.0341C141.882 48.7871 141.824 48.5213 141.82 48.2521C141.825 47.983 141.883 47.7174 141.991 47.4706C142.098 47.2238 142.254 47.0006 142.449 46.8138C142.644 46.6269 142.873 46.4802 143.125 46.3818C143.377 46.2835 143.646 46.2355 143.916 46.2406C144.186 46.2355 144.455 46.2835 144.707 46.3818C144.959 46.4802 145.188 46.6269 145.383 46.8138C145.578 47.0006 145.734 47.2238 145.841 47.4706C145.949 47.7174 146.007 47.983 146.012 48.2521C146.007 48.5212 145.949 48.7867 145.841 49.0335C145.734 49.2804 145.578 49.5035 145.383 49.6904C145.188 49.8772 144.959 50.024 144.707 50.1224C144.455 50.2207 144.186 50.2687 143.916 50.2636ZM143.916 46.6637C143.484 46.6558 143.067 46.8185 142.755 47.1162C142.444 47.4139 142.264 47.8224 142.254 48.2521C142.264 48.6821 142.444 49.0908 142.755 49.389C143.067 49.6872 143.484 49.8506 143.916 49.8434C144.348 49.8506 144.765 49.6872 145.077 49.389C145.388 49.0908 145.568 48.6821 145.578 48.2521C145.568 47.8224 145.388 47.4139 145.077 47.1162C144.765 46.8185 144.348 46.6558 143.916 46.6637Z" fill="#3A3A39"/>
</g>
<defs>
<clipPath id="clip0_271_3593">
<rect width="146" height="63" fill="white"/>
</clipPath>
</defs>
</svg>
