<svg width="124" height="70" viewBox="0 0 124 70" fill="none" xmlns="http://www.w3.org/2000/svg">
<g clip-path="url(#clip0_271_3652)">
<path d="M14.9834 55.0409C14.8213 55.0426 14.6648 54.9814 14.5469 54.8703C14.4852 54.8168 14.4361 54.7503 14.4033 54.6755C14.3705 54.6008 14.3547 54.5197 14.3572 54.4381V38.8488C14.355 38.7678 14.3709 38.6874 14.4037 38.6133C14.4365 38.5392 14.4855 38.4733 14.5469 38.4204C14.6648 38.3093 14.8213 38.2481 14.9834 38.2498H17.6856C17.9095 38.2347 18.1303 38.3082 18.3004 38.4545C18.4071 38.5461 18.4959 38.6567 18.5622 38.7806L22.9684 46.3629L27.3708 38.7806C27.4503 38.6648 27.5392 38.5558 27.6365 38.4545C27.7182 38.3794 27.8149 38.3223 27.9201 38.287C28.0254 38.2518 28.137 38.2391 28.2475 38.2498H30.927C31.0975 38.2451 31.2633 38.3063 31.39 38.4204C31.451 38.4735 31.4993 38.5395 31.5315 38.6136C31.5636 38.6877 31.5788 38.7681 31.5759 38.8488V54.4267C31.5791 54.508 31.5641 54.589 31.5319 54.6638C31.4997 54.7386 31.4513 54.8053 31.39 54.8589C31.2633 54.9731 31.0975 55.0341 30.927 55.0295H27.9629C27.7924 55.0341 27.6266 54.9731 27.4999 54.8589C27.4386 54.8053 27.3901 54.7386 27.3579 54.6638C27.3257 54.589 27.3107 54.508 27.3139 54.4267V45.4341L24.4827 50.446C24.4118 50.5928 24.3095 50.7222 24.1829 50.8251C24.025 50.944 23.83 51.0031 23.6326 50.9919H22.3309C22.1335 51.0025 21.9387 50.9434 21.7805 50.8251C21.6515 50.7176 21.5412 50.5895 21.4542 50.446L18.6268 45.4341V54.4267C18.6304 54.507 18.6166 54.5872 18.5865 54.6617C18.5564 54.7363 18.5106 54.8036 18.4522 54.8589C18.3922 54.9161 18.3213 54.9607 18.2437 54.99C18.1661 55.0193 18.0834 55.0327 18.0006 55.0295L14.9834 55.0409Z" fill="#3A3A39"/>
<path d="M30.9269 55.356H27.9629C27.7101 55.3606 27.4648 55.2699 27.2759 55.102C27.1822 55.019 27.1076 54.9167 27.0572 54.8022C27.0068 54.6877 26.9817 54.5636 26.9837 54.4385V46.6932L24.7749 50.6095C24.6847 50.7922 24.5551 50.9528 24.3954 51.0796C24.1804 51.2505 23.9108 51.338 23.6364 51.326H22.3346C22.0601 51.338 21.7906 51.2505 21.5756 51.0796C21.4225 50.9477 21.294 50.7898 21.1961 50.6132L18.9835 46.6932V54.4272C18.9861 54.5494 18.9631 54.6709 18.9161 54.7839C18.869 54.8968 18.7989 54.9987 18.7102 55.083C18.5262 55.2572 18.2805 55.3513 18.0271 55.3446H15.0251C14.7797 55.3457 14.5428 55.2551 14.361 55.0906C14.2673 55.0076 14.1926 54.9053 14.1422 54.7908C14.0918 54.6763 14.0667 54.5522 14.0687 54.4272V38.8379C14.067 38.713 14.0925 38.5893 14.1437 38.4754C14.1948 38.3614 14.2703 38.26 14.3648 38.1782C14.5449 38.0133 14.7808 37.9226 15.0251 37.9242H17.7273C18.0375 37.9069 18.3418 38.0133 18.5736 38.2199C18.7127 38.3387 18.8264 38.4845 18.9076 38.6483L23.0101 45.6999L27.128 38.6142C27.2167 38.4784 27.3183 38.3514 27.4315 38.2351C27.5453 38.127 27.6803 38.0436 27.8279 37.9901C27.9755 37.9366 28.1326 37.9142 28.2893 37.9242H30.9687C31.2215 37.9196 31.4667 38.0103 31.6556 38.1782C31.749 38.2607 31.8234 38.3623 31.8739 38.4761C31.9243 38.59 31.9495 38.7134 31.9478 38.8379V54.4272C31.9498 54.5522 31.9248 54.6763 31.8743 54.7908C31.8239 54.9053 31.7493 55.0076 31.6556 55.0906C31.5578 55.1808 31.443 55.2507 31.3179 55.2963C31.1928 55.3418 31.0599 55.3621 30.9269 55.356ZM27.6251 44.2024V54.4385C27.6218 54.4763 27.6277 54.5143 27.6422 54.5492C27.6567 54.5842 27.6795 54.6152 27.7086 54.6395C27.7407 54.6688 27.7785 54.6912 27.8196 54.7056C27.8607 54.7199 27.9043 54.7258 27.9477 54.7229H30.9269C31.0139 54.7281 31.0996 54.6996 31.166 54.6432C31.1949 54.618 31.2175 54.5863 31.232 54.5508C31.2465 54.5152 31.2525 54.4768 31.2495 54.4385V38.8493C31.2514 38.8117 31.2448 38.7742 31.2304 38.7394C31.2159 38.7047 31.1939 38.6736 31.166 38.6483C31.0998 38.5916 31.014 38.5631 30.9269 38.5687H28.2475C28.1136 38.5517 27.9782 38.5856 27.868 38.6635C27.7844 38.7492 27.7082 38.8418 27.6403 38.9403L22.9533 47.0041L18.2586 38.9327C18.2096 38.8342 18.1396 38.7475 18.0537 38.6787C17.9453 38.596 17.8099 38.5568 17.6741 38.5687H14.972C14.933 38.5674 14.8942 38.5737 14.8578 38.5874C14.8213 38.6011 14.7879 38.6218 14.7594 38.6483C14.7308 38.673 14.7084 38.7041 14.6939 38.739C14.6794 38.7738 14.6732 38.8116 14.6759 38.8493V54.4272C14.6726 54.4649 14.6785 54.5029 14.693 54.5379C14.7076 54.5728 14.7303 54.6038 14.7594 54.6281C14.7872 54.6559 14.8204 54.6777 14.8569 54.692C14.8935 54.7064 14.9327 54.713 14.972 54.7115H17.974C18.0136 54.7149 18.0535 54.7103 18.0914 54.6979C18.1292 54.6855 18.1641 54.6657 18.1941 54.6395C18.2222 54.6122 18.244 54.579 18.2578 54.5422C18.2716 54.5055 18.277 54.4662 18.2738 54.4272V44.191L21.7198 50.2986C21.7849 50.4114 21.8697 50.5115 21.9703 50.5943C22.0678 50.6621 22.1858 50.6943 22.3042 50.6853H23.606C23.7246 50.6956 23.843 50.6633 23.94 50.5943C24.0328 50.5202 24.1069 50.4254 24.1563 50.3175L27.6251 44.2024Z" fill="#3A3A39"/>
<path d="M41.5648 55.04C41.494 55.0414 41.4236 55.0279 41.3583 55.0005C41.2929 54.9731 41.234 54.9323 41.1853 54.8808C41.1349 54.8384 41.0943 54.7856 41.0661 54.7261C41.038 54.6665 41.023 54.6017 41.0222 54.5358C41.0206 54.4629 41.0295 54.3901 41.0487 54.3197L46.9388 38.92C47.0007 38.7132 47.1316 38.5338 47.3097 38.4117C47.4879 38.2896 47.7026 38.2321 47.918 38.249H51.6221C51.8609 38.2352 52.0967 38.3079 52.2862 38.4537C52.4333 38.5755 52.5415 38.7376 52.5975 38.92L58.4534 54.3197C58.4874 54.3866 58.5044 54.4608 58.5027 54.5358C58.5019 54.6017 58.4869 54.6665 58.4588 54.7261C58.4306 54.7856 58.39 54.8384 58.3396 54.8808C58.2902 54.9314 58.2312 54.9716 58.166 54.9989C58.1008 55.0263 58.0308 55.0403 57.9601 55.04H54.8822C54.7811 55.0487 54.6793 55.0371 54.5828 55.0058C54.4864 54.9746 54.3971 54.9243 54.3204 54.8581C54.2174 54.7701 54.1356 54.6599 54.0813 54.5358L53.106 52.0867H46.4227L45.4701 54.5358C45.4209 54.6588 45.3444 54.769 45.2462 54.8581C45.1632 54.9264 45.0675 54.9776 44.9646 55.0088C44.8617 55.0401 44.7536 55.0507 44.6465 55.04H41.5648ZM47.4436 48.6368H52.1003L49.7473 42.3017L47.4436 48.6368Z" fill="#3A3A39"/>
<path d="M57.9448 55.3557H54.867C54.5757 55.3726 54.2895 55.2746 54.07 55.0827C53.9307 54.9609 53.8226 54.8075 53.7549 54.6354L52.8631 52.4062H46.6352L45.7661 54.6467C45.6974 54.808 45.5967 54.9537 45.4701 55.0751C45.3561 55.1754 45.2232 55.2519 45.0791 55.3001C44.9351 55.3483 44.7828 55.3672 44.6314 55.3557H41.5535C41.4425 55.3554 41.3327 55.3332 41.2304 55.2902C41.1281 55.2473 41.0354 55.1845 40.9576 55.1055C40.8759 55.0348 40.8104 54.9475 40.7652 54.8494C40.72 54.7513 40.6964 54.6448 40.6958 54.5368C40.6938 54.4382 40.7066 54.3398 40.7337 54.2449L46.6238 38.8148C46.6966 38.5813 46.8365 38.3744 47.0261 38.2196C47.2762 38.0201 47.5908 37.9189 47.9104 37.9353H51.6145C51.9329 37.9195 52.2461 38.0207 52.495 38.2196C52.6918 38.3804 52.8347 38.5973 52.9048 38.8414L58.757 54.2108C58.8272 54.3602 58.8466 54.5284 58.8124 54.6899C58.7781 54.8514 58.6921 54.9973 58.5673 55.1055C58.401 55.2677 58.1772 55.3576 57.9448 55.3557ZM46.1798 51.773H53.3147L54.3736 54.4269C54.4099 54.5098 54.4659 54.5827 54.5368 54.6392C54.6335 54.7054 54.7501 54.7362 54.867 54.7264H57.9448C57.9736 54.7282 58.0025 54.7238 58.0294 54.7133C58.0563 54.7028 58.0805 54.6866 58.1005 54.6657C58.1688 54.6013 58.1687 54.5596 58.1687 54.5406C58.1753 54.5158 58.1753 54.4896 58.1687 54.4648L52.2976 39.0348C52.262 38.9007 52.185 38.7813 52.0775 38.6935C51.9477 38.6036 51.791 38.5608 51.6335 38.5722H47.9294C47.7716 38.5582 47.614 38.6012 47.4853 38.6935C47.3825 38.7737 47.307 38.8836 47.269 39.0082L41.3713 54.4269C41.3713 54.4269 41.3713 54.48 41.3713 54.5368C41.3722 54.5611 41.3786 54.5849 41.3897 54.6065C41.4008 54.6281 41.4166 54.647 41.4358 54.6619C41.4527 54.6805 41.4732 54.6954 41.496 54.7058C41.5189 54.7163 41.5435 54.722 41.5686 54.7226H44.6617C44.9236 54.7226 45.0033 54.6619 45.0412 54.6429C45.1076 54.5863 45.1596 54.5149 45.193 54.4345L46.1798 51.773ZM52.5557 48.9524H46.973L49.7321 41.3701L52.5557 48.9524ZM47.8952 48.3193H51.6221L49.7245 43.2543L47.8952 48.3193Z" fill="#3A3A39"/>
<path d="M68.6169 55.0415C68.5346 55.0447 68.4525 55.0312 68.3755 55.0019C68.2985 54.9726 68.2283 54.9281 68.169 54.8709C68.1106 54.8156 68.0648 54.7484 68.0347 54.6738C68.0046 54.5992 67.9909 54.5191 67.9945 54.4387V38.8495C67.9914 38.7698 68.0054 38.6903 68.0355 38.6165C68.0656 38.5426 68.1111 38.476 68.169 38.4211C68.2283 38.364 68.2985 38.3194 68.3755 38.2901C68.4525 38.2608 68.5346 38.2473 68.6169 38.2505H75.4255C77.5786 38.2505 79.2763 38.7269 80.5186 39.6797C81.7608 40.6326 82.3833 41.9797 82.3858 43.7211C82.4183 44.7488 82.1145 45.7589 81.5205 46.5986C80.937 47.3858 80.1498 47.9993 79.2434 48.3729L82.697 54.2719C82.7446 54.3524 82.7708 54.4438 82.7729 54.5373C82.7721 54.6032 82.7571 54.668 82.7289 54.7276C82.7008 54.7871 82.6601 54.8398 82.6097 54.8823C82.5604 54.9329 82.5014 54.9731 82.4362 55.0004C82.371 55.0278 82.3009 55.0417 82.2302 55.0415H78.9246C78.7986 55.0525 78.6716 55.0376 78.5516 54.9978C78.4315 54.9581 78.3208 54.8942 78.2263 54.8103C78.0975 54.6881 77.9875 54.5476 77.8999 54.3933L75.0459 49.1159H72.469V54.4236C72.4726 54.5039 72.4589 54.584 72.4287 54.6586C72.3986 54.7332 72.3528 54.8004 72.2944 54.8558C72.2344 54.913 72.1635 54.9576 72.086 54.9869C72.0084 55.0162 71.9257 55.0296 71.8428 55.0263L68.6169 55.0415ZM72.4728 45.7342H75.3761C76.0132 45.784 76.645 45.5872 77.1408 45.1845C77.3408 44.9878 77.4967 44.7509 77.5981 44.4894C77.6996 44.228 77.7442 43.948 77.7291 43.668C77.7426 43.3905 77.6998 43.1131 77.6032 42.8525C77.5067 42.5919 77.3585 42.3535 77.1674 42.1516C76.7879 41.7725 76.1921 41.5753 75.3761 41.5753H72.4728V45.7342Z" fill="#3A3A39"/>
<path d="M82.2339 55.3539H78.9284C78.7578 55.3659 78.5866 55.3429 78.4254 55.2862C78.2641 55.2294 78.1162 55.1402 77.9909 55.024C77.8389 54.881 77.7108 54.7147 77.6114 54.5312L74.8523 49.4283H72.8029V54.4251C72.8051 54.5473 72.7819 54.6686 72.7349 54.7815C72.6879 54.8944 72.618 54.9963 72.5297 55.0809C72.3452 55.2544 72.0998 55.3484 71.8465 55.3425H68.6168C68.3636 55.3484 68.1181 55.2544 67.9337 55.0809C67.8462 54.9958 67.7772 54.8938 67.7309 54.7809C67.6845 54.6681 67.6618 54.547 67.6642 54.4251V38.8358C67.6622 38.7141 67.6854 38.5934 67.7324 38.4811C67.7794 38.3689 67.8493 38.2676 67.9375 38.1837C68.1205 38.0105 68.3647 37.9164 68.6168 37.9221H75.4254C77.6456 37.9221 79.4255 38.4263 80.7387 39.4386C82.0518 40.4508 82.7273 41.8915 82.7273 43.7264C82.7584 44.8189 82.4349 45.8921 81.8051 46.7859C81.2632 47.5213 80.5508 48.1145 79.7291 48.5146L83.012 54.1255C83.0848 54.2528 83.1252 54.3961 83.1296 54.5426C83.1276 54.6503 83.1033 54.7564 83.0582 54.8543C83.0131 54.9522 82.9483 55.0397 82.8678 55.1113C82.7837 55.1919 82.6843 55.2549 82.5754 55.2966C82.4666 55.3383 82.3505 55.3578 82.2339 55.3539ZM72.1426 48.799H75.2508L78.1959 54.2469C78.2684 54.3754 78.3606 54.4918 78.4691 54.5918C78.5995 54.6929 78.7643 54.7392 78.9284 54.7208H82.2339C82.2627 54.7226 82.2916 54.7182 82.3185 54.7077C82.3454 54.6972 82.3696 54.681 82.3896 54.6601C82.409 54.6454 82.4249 54.6265 82.436 54.6048C82.4472 54.5832 82.4533 54.5594 82.4541 54.535C82.4505 54.4911 82.4376 54.4484 82.4161 54.4099L78.7917 48.2227L79.1219 48.0824C79.9695 47.7288 80.7053 47.1524 81.251 46.4143C81.8041 45.6264 82.0864 44.6806 82.0556 43.7188C82.0556 42.0621 81.4863 40.8186 80.3136 39.9277C79.1409 39.0367 77.4938 38.5704 75.4254 38.5704H68.6168C68.5778 38.5673 68.5385 38.5721 68.5013 38.5845C68.4642 38.5969 68.4299 38.6166 68.4005 38.6424C68.3727 38.6692 68.3511 38.7017 68.3373 38.7378C68.3235 38.7738 68.3179 38.8125 68.3208 38.851V54.4251C68.317 54.4636 68.3223 54.5025 68.3361 54.5387C68.3499 54.5749 68.372 54.6074 68.4005 54.6336C68.4291 54.6609 68.4631 54.6818 68.5005 54.6949C68.5378 54.7079 68.5774 54.7129 68.6168 54.7094H71.8465C71.8865 54.7132 71.9268 54.7084 71.9648 54.6953C72.0028 54.6822 72.0375 54.6612 72.0666 54.6336C72.0938 54.6065 72.1147 54.5738 72.1278 54.5377C72.141 54.5017 72.146 54.4632 72.1426 54.4251V48.799ZM75.3761 46.0466H72.1426V41.2697H75.3761C76.2831 41.2697 76.9662 41.4972 77.4065 41.9445C77.6254 42.1738 77.7959 42.4446 77.908 42.7409C78.0202 43.0372 78.0716 43.353 78.0592 43.6695C78.0742 43.991 78.0207 44.312 77.9023 44.6114C77.7839 44.9107 77.6032 45.1815 77.3723 45.4059C76.8133 45.8664 76.099 46.0957 75.3761 46.0466ZM72.8029 45.4173H75.3761C75.9222 45.4585 76.464 45.2934 76.8941 44.9547C77.0631 44.788 77.1943 44.587 77.2787 44.3653C77.3632 44.1436 77.399 43.9063 77.3837 43.6695C77.396 43.4326 77.3604 43.1957 77.2789 42.9729C77.1973 42.7502 77.0716 42.5461 76.9093 42.3729C76.6952 42.196 76.4481 42.063 76.1824 41.9817C75.9167 41.9004 75.6375 41.8723 75.3609 41.899H72.7877L72.8029 45.4173Z" fill="#3A3A39"/>
<path d="M91.87 55.041C91.7993 55.0412 91.7292 55.0273 91.664 54.9999C91.5988 54.9725 91.5398 54.9323 91.4905 54.8818C91.4205 54.8238 91.3697 54.7462 91.3447 54.6589C91.3196 54.5717 91.3215 54.4789 91.35 54.3927C91.3693 54.3418 91.3948 54.2934 91.4259 54.2487L96.8834 46.4768L91.8282 39.0423C91.7802 38.9537 91.7541 38.8549 91.7523 38.7542C91.7526 38.6894 91.7663 38.6253 91.7924 38.566C91.8185 38.5066 91.8565 38.4532 91.9041 38.4092C91.952 38.3567 92.0108 38.3153 92.0763 38.2878C92.1419 38.2603 92.2126 38.2474 92.2836 38.2499H95.8967C96.1039 38.2359 96.3087 38.301 96.4697 38.4319C96.5811 38.5214 96.6751 38.6306 96.7468 38.7542L99.7488 43.1216L102.785 38.7542C102.873 38.6362 102.973 38.5281 103.085 38.4319C103.247 38.3014 103.453 38.2364 103.662 38.2499H107.077C107.22 38.2507 107.356 38.308 107.457 38.4092C107.507 38.4521 107.547 38.505 107.575 38.5644C107.603 38.6238 107.618 38.6885 107.62 38.7542C107.623 38.8596 107.586 38.9623 107.517 39.0423L102.459 46.4654L107.962 54.26C107.994 54.3024 108.016 54.3517 108.026 54.4041C108.03 54.452 108.03 54.5002 108.026 54.5481C108.026 54.6126 108.013 54.6764 107.987 54.7356C107.962 54.7949 107.925 54.8485 107.878 54.8931C107.83 54.945 107.771 54.9861 107.705 55.0135C107.64 55.041 107.569 55.0542 107.499 55.0524H103.768C103.556 55.0651 103.347 55.0004 103.18 54.8704C103.069 54.7851 102.972 54.6842 102.891 54.5709L99.5628 49.9646L96.3103 54.5709C96.2319 54.6827 96.1387 54.7835 96.0333 54.8704C95.8722 55.0014 95.6674 55.0664 95.4602 55.0524L91.87 55.041Z" fill="#3A3A39"/>
<path d="M107.514 55.3554H103.783C103.492 55.3695 103.206 55.2764 102.979 55.0938C102.841 54.9873 102.722 54.8593 102.626 54.7147L99.5894 50.5027L96.6064 54.7299C96.5145 54.8607 96.406 54.9792 96.2838 55.0824C96.0591 55.2671 95.7737 55.3617 95.4831 55.3479H91.8776C91.6454 55.349 91.422 55.2591 91.2552 55.0976C91.1424 54.9984 91.0617 54.868 91.0232 54.7229C90.9846 54.5778 90.9901 54.4245 91.0389 54.2825C91.0675 54.2041 91.1072 54.13 91.1565 54.0626L96.4698 46.4803L91.5361 39.2164C91.4548 39.0769 91.4104 38.9191 91.407 38.7577C91.4103 38.5467 91.4961 38.3452 91.6461 38.1966C91.7254 38.1137 91.8209 38.0481 91.9266 38.0038C92.0324 37.9594 92.1462 37.9373 92.2609 37.9388H95.8967C96.1874 37.925 96.4728 38.0196 96.6975 38.2042C96.8353 38.3213 96.9521 38.4611 97.0429 38.6175L99.7526 42.5527L102.504 38.5833C102.606 38.4444 102.723 38.3172 102.853 38.2042C103.078 38.0196 103.363 37.925 103.654 37.9388H107.07C107.301 37.9379 107.523 38.0278 107.688 38.1891C107.768 38.2609 107.833 38.3485 107.877 38.4464C107.921 38.5443 107.945 38.6503 107.946 38.7577C107.95 38.9348 107.889 39.107 107.776 39.243L102.842 46.4462L108.223 54.0664C108.281 54.1466 108.32 54.2385 108.337 54.3356C108.343 54.4012 108.343 54.4672 108.337 54.5327C108.334 54.7438 108.248 54.9452 108.098 55.0938C108.023 55.1737 107.932 55.2379 107.832 55.2828C107.732 55.3277 107.624 55.3524 107.514 55.3554ZM99.5742 49.3957L103.18 54.3811C103.243 54.4745 103.321 54.5565 103.411 54.6237C103.522 54.7008 103.656 54.7357 103.791 54.7223H107.521C107.546 54.7236 107.571 54.7195 107.594 54.7103C107.617 54.7012 107.637 54.6871 107.654 54.6692C107.674 54.6528 107.689 54.6326 107.701 54.6097C107.712 54.5869 107.718 54.5619 107.719 54.5365C107.722 54.5051 107.722 54.4732 107.719 54.4418L102.06 46.4651L107.263 38.8828C107.278 38.8678 107.29 38.8501 107.297 38.8305C107.305 38.811 107.309 38.7901 107.309 38.7691C107.308 38.7447 107.302 38.7209 107.291 38.6992C107.28 38.6776 107.264 38.6587 107.244 38.644C107.224 38.6237 107.2 38.6079 107.173 38.5974C107.146 38.587 107.117 38.5822 107.089 38.5833H103.673C103.549 38.5707 103.425 38.6045 103.324 38.6781C103.229 38.7552 103.145 38.8444 103.073 38.9435L99.7678 43.7052L96.4925 38.9435C96.4328 38.8413 96.3557 38.7502 96.2648 38.6743C96.1628 38.6039 96.0392 38.5717 95.9157 38.5833H92.2837C92.259 38.582 92.2344 38.5861 92.2115 38.5953C92.1885 38.6045 92.1679 38.6185 92.1509 38.6364C92.1323 38.6533 92.1173 38.6737 92.1069 38.6966C92.0965 38.7194 92.0908 38.744 92.0901 38.7691C92.0906 38.8207 92.1036 38.8715 92.1281 38.9169L97.2858 46.4993L91.7068 54.4607C91.6934 54.481 91.682 54.5026 91.6727 54.5252V54.5744C91.6737 54.5987 91.6799 54.6225 91.6911 54.6441C91.7022 54.6658 91.718 54.6846 91.7372 54.6995C91.7571 54.7204 91.7814 54.7366 91.8083 54.7471C91.8352 54.7576 91.864 54.7621 91.8928 54.7602H95.4982C95.6223 54.7728 95.7467 54.739 95.8474 54.6654C95.9288 54.5991 96.0015 54.5226 96.0637 54.438L99.5742 49.3957Z" fill="#3A3A39"/>
<path d="M14.5204 54.5936C14.3576 54.5965 14.2 54.5368 14.0802 54.4268C14.0189 54.3731 13.9704 54.3065 13.9382 54.2317C13.906 54.1569 13.891 54.0759 13.8942 53.9946V38.4053C13.8918 38.3241 13.9072 38.2433 13.9393 38.1686C13.9714 38.094 14.0195 38.0273 14.0802 37.9731C14.2009 37.8644 14.3579 37.8049 14.5204 37.8063H17.2226C17.4464 37.7916 17.6671 37.8651 17.8374 38.011C17.9428 38.1023 18.0315 38.2114 18.0993 38.3333L22.5055 45.9156L26.9079 38.3333C26.9858 38.2186 27.0734 38.1108 27.1698 38.011C27.2523 37.936 27.3496 37.879 27.4555 37.8438C27.5614 37.8085 27.6735 37.7958 27.7846 37.8063H30.464C30.6337 37.8022 30.799 37.8617 30.927 37.9731C30.9877 38.0273 31.0357 38.094 31.0678 38.1686C31.1 38.2433 31.1154 38.3241 31.113 38.4053V53.9946C31.1162 54.0759 31.1011 54.1569 31.069 54.2317C31.0368 54.3065 30.9883 54.3731 30.927 54.4268C30.8 54.5399 30.634 54.5996 30.464 54.5936H27.4847C27.3146 54.6 27.1486 54.5402 27.0217 54.4268C26.96 54.3733 26.9109 54.3068 26.8781 54.232C26.8453 54.1573 26.8295 54.0762 26.832 53.9946V45.0019L24.0045 50.0139C23.935 50.1615 23.8324 50.2912 23.7048 50.393C23.5479 50.5142 23.3524 50.5748 23.1544 50.5636H21.8527C21.6546 50.5755 21.4589 50.5148 21.3024 50.393C21.1721 50.2868 21.0616 50.1584 20.976 50.0139L18.1486 45.0019V53.9946C18.1522 54.0749 18.1385 54.1551 18.1084 54.2296C18.0782 54.3042 18.0324 54.3714 17.974 54.4268C17.9136 54.4831 17.8426 54.5269 17.765 54.5556C17.6875 54.5842 17.605 54.5971 17.5224 54.5936H14.5204Z" fill="#F8F4EF"/>
<path d="M30.4639 54.9075H27.4847C27.2322 54.9142 26.9866 54.8248 26.7978 54.6572C26.7037 54.5745 26.6288 54.4724 26.5783 54.3578C26.5278 54.2432 26.503 54.119 26.5055 53.9938V46.2447L24.2929 50.1647C24.2044 50.3486 24.0745 50.5094 23.9134 50.6348C23.6984 50.8058 23.4288 50.8933 23.1544 50.8813H21.8526C21.5781 50.8933 21.3086 50.8058 21.0936 50.6348C20.9338 50.503 20.7989 50.3439 20.6951 50.1647L18.4863 46.2447V53.9938C18.4885 54.116 18.4653 54.2374 18.4183 54.3502C18.3712 54.4631 18.3014 54.565 18.2131 54.6497C18.0282 54.8221 17.7827 54.9148 17.5299 54.9075H14.5279C14.2832 54.9089 14.0466 54.8197 13.8638 54.6572C13.7701 54.5742 13.6955 54.472 13.645 54.3575C13.5946 54.2429 13.5695 54.1189 13.5715 53.9938V38.4045C13.5698 38.28 13.595 38.1567 13.6455 38.0428C13.6959 37.929 13.7704 37.8273 13.8638 37.7449C14.0453 37.5797 14.2824 37.489 14.5279 37.4909H17.2301C17.5401 37.4744 17.8442 37.5806 18.0764 37.7866C18.2132 37.9076 18.3265 38.0528 18.4104 38.215L22.513 45.2627L26.6308 38.1809C26.718 38.045 26.8184 37.918 26.9306 37.8018C27.0448 37.6932 27.1803 37.6095 27.3286 37.556C27.4769 37.5025 27.6348 37.4803 27.7921 37.4909H30.4715C30.7242 37.487 30.9692 37.5776 31.1584 37.7449C31.2518 37.8273 31.3263 37.929 31.3767 38.0428C31.4272 38.1567 31.4523 38.28 31.4506 38.4045V53.9938C31.4524 54.1188 31.4272 54.2428 31.3768 54.3573C31.3264 54.4718 31.2519 54.5741 31.1584 54.6572C30.9659 54.8236 30.7184 54.9128 30.4639 54.9075ZM27.1621 43.7539V53.99C27.1588 54.0277 27.1646 54.0657 27.1791 54.1007C27.1937 54.1357 27.2165 54.1666 27.2456 54.1909C27.3112 54.249 27.3971 54.279 27.4847 54.2743H30.4639C30.5503 54.2788 30.6349 54.2488 30.6992 54.1909C30.7283 54.1666 30.7511 54.1357 30.7656 54.1007C30.7802 54.0657 30.786 54.0277 30.7827 53.99V38.4007C30.7854 38.3631 30.7792 38.3253 30.7647 38.2904C30.7502 38.2555 30.7278 38.2245 30.6992 38.1998C30.6349 38.1419 30.5503 38.112 30.4639 38.1164H27.7845C27.6502 38.102 27.5152 38.137 27.405 38.215C27.3233 38.3013 27.2484 38.3939 27.181 38.4917L22.494 46.5555L17.8108 38.5031C17.7598 38.4037 17.6887 38.3159 17.602 38.2453C17.4937 38.1626 17.3583 38.1235 17.2225 38.1354H14.5203C14.4811 38.1345 14.4422 38.1415 14.4057 38.1558C14.3692 38.1701 14.3359 38.1915 14.3078 38.2188C14.2792 38.2435 14.2568 38.2745 14.2423 38.3094C14.2278 38.3443 14.2216 38.382 14.2243 38.4197V54.009C14.2217 54.0463 14.2275 54.0837 14.2413 54.1185C14.2551 54.1532 14.2765 54.1845 14.304 54.2099C14.3627 54.2645 14.4401 54.2944 14.5203 54.2933H17.5223C17.5623 54.2971 17.6027 54.2923 17.6406 54.2792C17.6786 54.2662 17.7133 54.2451 17.7424 54.2175C17.7692 54.1901 17.7898 54.1573 17.8029 54.1214C17.816 54.0854 17.8213 54.0471 17.8184 54.009V43.7728L21.2644 49.8804C21.3319 49.9936 21.4178 50.0949 21.5187 50.1799C21.6172 50.2453 21.7347 50.276 21.8526 50.2671H23.1544C23.2723 50.276 23.3898 50.2453 23.4883 50.1799C23.5795 50.1043 23.6534 50.0098 23.7047 49.9031L27.1621 43.7539Z" fill="#3A3A39"/>
<path d="M41.098 54.5918C41.0305 54.5917 40.9637 54.5779 40.9017 54.5512C40.8398 54.5244 40.7839 54.4854 40.7375 54.4364C40.687 54.3932 40.6463 54.3398 40.6182 54.2796C40.59 54.2194 40.5751 54.154 40.5743 54.0876C40.5733 54.0162 40.581 53.9449 40.5971 53.8753L46.4796 38.4756C46.5356 38.2922 46.6453 38.1298 46.7946 38.0093C46.9823 37.8628 47.2172 37.79 47.455 37.8046H51.1591C51.398 37.7901 51.634 37.8628 51.8232 38.0093C51.9725 38.1298 52.0822 38.2922 52.1382 38.4756L57.9942 53.8753C58.0287 53.9406 58.0457 54.0138 58.0435 54.0876C58.0428 54.154 58.0278 54.2194 57.9997 54.2796C57.9715 54.3398 57.9308 54.3932 57.8803 54.4364C57.8304 54.486 57.7712 54.5252 57.7061 54.5519C57.641 54.5785 57.5712 54.5921 57.5008 54.5918H54.4229C54.2184 54.6085 54.0154 54.5445 53.8574 54.4136C53.7538 54.3255 53.6731 54.2137 53.6221 54.0876L52.6468 51.6423H45.9635L45.0109 54.0876C44.9605 54.2111 44.8841 54.3223 44.7869 54.4136C44.7036 54.4813 44.6078 54.5318 44.5049 54.5624C44.402 54.593 44.2941 54.603 44.1873 54.5918H41.098ZM46.9806 48.1886H51.6373L49.2843 41.8573L46.9806 48.1886Z" fill="#F8F4EF"/>
<path d="M57.4932 54.9065H54.4153C54.1249 54.9217 53.8398 54.8254 53.6183 54.6373C53.4801 54.5137 53.3712 54.3609 53.2995 54.19L52.4114 51.957H46.1797L45.3068 54.1976C45.2422 54.3612 45.1425 54.5087 45.0146 54.6298C44.9003 54.7294 44.7672 54.8052 44.6232 54.8527C44.4792 54.9002 44.3271 54.9185 44.1759 54.9065H41.0942C40.8709 54.9057 40.6569 54.8172 40.4984 54.6601C40.4186 54.5872 40.3545 54.4989 40.3101 54.4004C40.2658 54.302 40.242 54.1956 40.2403 54.0876C40.2395 53.9893 40.251 53.8912 40.2744 53.7957L46.1683 38.3695C46.2397 38.1353 46.3798 37.9278 46.5707 37.7742C46.8196 37.5752 47.1327 37.4741 47.4511 37.4899H51.1552C51.4748 37.4742 51.7891 37.5753 52.0395 37.7742C52.2342 37.9352 52.3769 38.1503 52.4494 38.3922L58.2978 53.7654C58.3469 53.8656 58.3716 53.976 58.3699 54.0876C58.3681 54.1959 58.344 54.3027 58.2989 54.4012C58.2538 54.4998 58.1889 54.5879 58.108 54.6601C57.9437 54.8201 57.7227 54.9087 57.4932 54.9065ZM45.7281 51.3276H52.8631L53.9219 53.9814C53.9582 54.0644 54.0142 54.1373 54.0851 54.1938C54.1818 54.26 54.2984 54.2908 54.4153 54.281H57.4932C57.5222 54.2818 57.5511 54.2766 57.5779 54.2654C57.6048 54.2543 57.6289 54.2376 57.6488 54.2165C57.6784 54.1934 57.6994 54.1611 57.7084 54.1246C57.7173 54.0882 57.7137 54.0497 57.6981 54.0156L51.827 38.5893C51.7908 38.4546 51.7123 38.335 51.6031 38.2481C51.4749 38.1544 51.3173 38.11 51.159 38.123H47.4549C47.2979 38.1106 47.1416 38.155 47.0147 38.2481C46.9119 38.3283 46.8363 38.4382 46.7984 38.5628L40.9082 53.9852C40.9082 53.9852 40.9082 54.0383 40.9082 54.0914C40.9089 54.1157 40.9151 54.1396 40.9263 54.1613C40.9375 54.1829 40.9533 54.2018 40.9728 54.2165C40.9884 54.2358 41.008 54.2516 41.0303 54.2627C41.0526 54.2738 41.0769 54.28 41.1018 54.281H44.1835C44.4453 54.281 44.5251 54.2203 44.5402 54.2014C44.6061 54.1434 44.659 54.0724 44.6958 53.9928L45.7281 51.3276ZM52.104 48.5032H46.5175L49.2804 40.9209L52.104 48.5032ZM47.4435 47.8739H51.1704L49.2728 42.8051L47.4435 47.8739Z" fill="#3A3A39"/>
<path d="M68.1539 54.5923C68.0719 54.5962 67.9898 54.5835 67.9129 54.5548C67.8359 54.5261 67.7655 54.4822 67.7061 54.4256C67.6472 54.3704 67.6008 54.3033 67.57 54.2288C67.5393 54.1542 67.5248 54.0739 67.5277 53.9934V38.4041C67.5256 38.3236 67.5403 38.2436 67.5711 38.1691C67.6018 38.0947 67.6478 38.0275 67.7061 37.9719C67.766 37.916 67.8365 37.8725 67.9133 37.8439C67.9902 37.8152 68.0719 37.8021 68.1539 37.8051H74.9625C77.1156 37.8051 78.8133 38.2803 80.0556 39.2306C81.2979 40.1809 81.919 41.528 81.919 43.2719C81.9515 44.3002 81.6492 45.3112 81.0575 46.1533C80.473 46.9394 79.686 47.5525 78.7804 47.9275L82.234 53.8266C82.2798 53.9065 82.3058 53.9962 82.3099 54.0881C82.3084 54.1544 82.2932 54.2196 82.2651 54.2797C82.237 54.3397 82.1967 54.3933 82.1468 54.4369C82.0968 54.4865 82.0376 54.5257 81.9725 54.5524C81.9073 54.5791 81.8376 54.5926 81.7672 54.5923H78.4616C78.3359 54.6031 78.2093 54.5886 78.0894 54.5495C77.9694 54.5104 77.8585 54.4476 77.7633 54.3649C77.6342 54.243 77.5242 54.1024 77.4369 53.9479L74.5829 48.6706H72.006V53.9782C72.0087 54.0584 71.9945 54.1383 71.9644 54.2127C71.9344 54.2871 71.889 54.3545 71.8314 54.4104C71.771 54.4667 71.7 54.5105 71.6224 54.5392C71.5449 54.5678 71.4624 54.5808 71.3798 54.5772L68.1539 54.5923ZM72.0098 45.2889H74.9131C75.5505 45.336 76.1819 45.138 76.6779 44.7353C76.8781 44.5388 77.0341 44.3019 77.1355 44.0404C77.2369 43.7789 77.2815 43.4989 77.2662 43.2189C77.2787 42.9411 77.235 42.6637 77.1379 42.4032C77.0407 42.1426 76.8921 41.9043 76.7007 41.7024C76.3237 41.3182 75.7278 41.1262 74.9131 41.1262H72.0098V45.2889Z" fill="#F8F4EF"/>
<path d="M81.7711 54.9071H78.4654C78.2952 54.9188 78.1245 54.8959 77.9634 54.8399C77.8023 54.7838 77.6542 54.6958 77.528 54.5811C77.3783 54.436 77.2505 54.27 77.1485 54.0882L74.3894 48.9853H72.34V53.9934C72.3429 54.1154 72.3204 54.2367 72.2741 54.3495C72.2277 54.4624 72.1584 54.5645 72.0706 54.6493C71.8857 54.8217 71.6403 54.9144 71.3874 54.9071H68.1577C67.9049 54.9144 67.6594 54.8217 67.4746 54.6493C67.3868 54.5645 67.3175 54.4624 67.2711 54.3495C67.2247 54.2367 67.2023 54.1154 67.2051 53.9934V38.4042C67.2019 38.2827 67.2241 38.1619 67.2706 38.0496C67.317 37.9373 67.3865 37.8359 67.4746 37.7521C67.659 37.5786 67.9045 37.4846 68.1577 37.4905H74.9663C77.1827 37.4905 78.9664 37.9947 80.2795 39.007C81.5927 40.0192 82.2682 41.4599 82.2682 43.291C82.2998 44.3836 81.9763 45.457 81.346 46.3504C80.8042 47.0869 80.0919 47.6814 79.27 48.083L82.5528 53.6902C82.6257 53.8174 82.6661 53.9606 82.6705 54.1072C82.6688 54.2155 82.6446 54.3222 82.5995 54.4208C82.5545 54.5193 82.4895 54.6075 82.4086 54.6797C82.323 54.7583 82.2224 54.8188 82.1129 54.8579C82.0034 54.897 81.8872 54.9137 81.7711 54.9071ZM71.6796 48.3598H74.7879L77.733 53.8039C77.805 53.9328 77.8958 54.0504 78.0024 54.1527C78.1346 54.2533 78.3003 54.2994 78.4654 54.2816H81.7711C81.8 54.282 81.8288 54.2765 81.8555 54.2654C81.8823 54.2543 81.9065 54.2379 81.9266 54.2171C81.9463 54.2026 81.9623 54.1838 81.9735 54.1621C81.9847 54.1404 81.9907 54.1164 81.9912 54.092C81.9873 54.0493 81.9744 54.008 81.9532 53.9707L78.3288 47.7835L78.659 47.6432C79.506 47.2886 80.2415 46.7123 80.7881 45.9751C81.3417 45.1861 81.6241 44.2389 81.5927 43.2758C81.5927 41.6191 81.0234 40.3794 79.8507 39.4846C78.678 38.5899 77.0271 38.1274 74.9625 38.1274H68.1539C68.1146 38.1244 68.075 38.1296 68.0378 38.1426C68.0006 38.1557 67.9664 38.1763 67.9376 38.2032C67.9095 38.2298 67.8878 38.2623 67.874 38.2984C67.8602 38.3345 67.8547 38.3733 67.8579 38.4118V54.001C67.8547 54.0395 67.8602 54.0783 67.874 54.1144C67.8878 54.1504 67.9095 54.183 67.9376 54.2096C67.9661 54.2369 68.0003 54.2577 68.0376 54.2708C68.0749 54.2839 68.1146 54.2889 68.1539 54.2854H71.3836C71.4236 54.2889 71.4639 54.284 71.5018 54.271C71.5398 54.2579 71.5745 54.237 71.6038 54.2096C71.6305 54.1822 71.6511 54.1494 71.6642 54.1134C71.6773 54.0775 71.6825 54.0392 71.6796 54.001V48.3598ZM74.9131 45.6074H71.6796V40.8267H74.9131C75.8202 40.8267 76.5034 41.0542 76.9436 41.5016C77.1609 41.7325 77.33 42.0042 77.4414 42.301C77.5528 42.5977 77.6042 42.9136 77.5926 43.2303C77.6068 43.5476 77.5544 43.8643 77.4387 44.1601C77.323 44.4558 77.1466 44.7242 76.9208 44.9477C76.3619 45.4179 75.6421 45.6531 74.9131 45.6036V45.6074ZM72.3362 44.978H74.9131C75.4593 45.0193 76.0011 44.8542 76.4312 44.5155C76.5996 44.3484 76.7303 44.1473 76.8148 43.9257C76.8992 43.704 76.9353 43.467 76.9208 43.2303C76.9331 42.9934 76.8974 42.7565 76.8159 42.5337C76.7344 42.3109 76.6087 42.1069 76.4464 41.9338C76.0135 41.5771 75.4566 41.4067 74.898 41.4599H72.321L72.3362 44.978Z" fill="#3A3A39"/>
<path d="M91.407 54.5919C91.3365 54.5928 91.2666 54.5795 91.2013 54.5528C91.1361 54.5261 91.077 54.4866 91.0275 54.4365C90.977 54.3933 90.9363 54.3398 90.9081 54.2797C90.88 54.2195 90.865 54.1541 90.8643 54.0877C90.8644 54.04 90.8721 53.9927 90.8871 53.9474C90.9055 53.8961 90.931 53.8476 90.9629 53.8033L96.4204 46.0315L91.3425 38.597C91.2959 38.508 91.2712 38.4093 91.2704 38.3089C91.2716 38.1776 91.3248 38.0522 91.4183 37.9601C91.4675 37.9094 91.5266 37.8695 91.5919 37.8428C91.6572 37.8161 91.7273 37.8031 91.7979 37.8047H95.4261C95.6345 37.7904 95.8406 37.8554 96.003 37.9866C96.1133 38.0772 96.207 38.1862 96.28 38.3089L99.282 42.6725L102.318 38.3089C102.405 38.19 102.506 38.0818 102.618 37.9866C102.78 37.8554 102.986 37.7904 103.195 37.8047H106.61C106.752 37.8061 106.888 37.8617 106.99 37.9601C107.039 38.0042 107.079 38.058 107.106 38.118C107.133 38.178 107.148 38.2429 107.149 38.3089C107.153 38.4137 107.118 38.5163 107.051 38.597L101.969 46.0087L107.476 53.8033C107.507 53.8463 107.529 53.8954 107.54 53.9474C107.544 53.9941 107.544 54.041 107.54 54.0877C107.54 54.1531 107.526 54.2177 107.5 54.2777C107.474 54.3377 107.436 54.3917 107.388 54.4365C107.34 54.4885 107.282 54.5293 107.216 54.5562C107.15 54.583 107.08 54.5952 107.009 54.5919H103.282C103.071 54.6057 102.862 54.5424 102.694 54.4137C102.584 54.3285 102.486 54.2276 102.405 54.1143L99.077 49.508L95.8246 54.1143C95.7439 54.2243 95.6509 54.3247 95.5475 54.4137C95.3845 54.5436 95.1786 54.6072 94.9707 54.5919H91.407Z" fill="#F8F4EF"/>
<path d="M107.047 54.9072H103.32C103.028 54.9205 102.742 54.829 102.512 54.6494C102.376 54.5419 102.259 54.414 102.163 54.2703L99.1264 50.0621L96.1395 54.2855C96.0498 54.418 95.9411 54.5368 95.817 54.6381C95.5939 54.8257 95.3073 54.9207 95.0162 54.9034H91.4145C91.1826 54.9068 90.9588 54.8182 90.7922 54.657C90.7124 54.5842 90.6483 54.4958 90.6039 54.3974C90.5595 54.2989 90.5358 54.1925 90.5341 54.0845C90.535 54.002 90.5491 53.92 90.5758 53.8419C90.6046 53.7642 90.6429 53.6904 90.6897 53.622L96.0257 46.0397L91.0919 38.7796C91.0107 38.6401 90.9663 38.4823 90.9629 38.3209C90.9637 38.2162 90.9852 38.1127 91.0262 38.0164C91.0673 37.9201 91.127 37.8329 91.202 37.7598C91.2805 37.676 91.3759 37.6097 91.4818 37.5653C91.5878 37.5209 91.702 37.4993 91.8168 37.502H95.445C95.7361 37.4848 96.0228 37.5798 96.2458 37.7674C96.3847 37.8835 96.5016 38.0234 96.5912 38.1806L99.3009 42.1159L102.056 38.1465C102.156 38.006 102.273 37.8786 102.405 37.7674C102.628 37.5798 102.915 37.4848 103.206 37.502H106.622C106.853 37.5007 107.076 37.589 107.244 37.7484C107.324 37.8213 107.388 37.9096 107.432 38.0081C107.477 38.1065 107.501 38.2129 107.502 38.3209C107.506 38.4979 107.445 38.6702 107.332 38.8062L102.398 46.0094L107.783 53.6296C107.841 53.7098 107.88 53.8017 107.897 53.8988C107.909 53.9625 107.915 54.0272 107.916 54.0921C107.914 54.3045 107.828 54.5074 107.677 54.657C107.595 54.74 107.497 54.8052 107.388 54.8482C107.28 54.8913 107.164 54.9114 107.047 54.9072ZM99.1112 48.9513L102.713 53.9329C102.779 54.0255 102.859 54.1085 102.948 54.1793C103.06 54.2546 103.194 54.2894 103.328 54.2779H107.054C107.08 54.2797 107.105 54.2759 107.129 54.2667C107.152 54.2575 107.174 54.2432 107.191 54.2248C107.21 54.2073 107.225 54.1862 107.236 54.1628C107.246 54.1393 107.252 54.114 107.252 54.0883C107.254 54.058 107.254 54.0276 107.252 53.9973L101.589 46.0094L106.793 38.4271C106.822 38.3963 106.838 38.3556 106.838 38.3133C106.838 38.3133 106.838 38.2527 106.77 38.1882C106.75 38.1669 106.726 38.1501 106.699 38.1389C106.672 38.1278 106.643 38.1226 106.614 38.1238H103.199C103.074 38.1139 102.949 38.1474 102.846 38.2185C102.753 38.2989 102.669 38.3891 102.595 38.4877L99.2933 43.2494L96.0105 38.5029C95.9525 38.4006 95.8766 38.3094 95.7866 38.2337C95.6833 38.1626 95.5587 38.1291 95.4337 38.1389H91.8054C91.7804 38.1373 91.7553 38.1415 91.7322 38.1514C91.7091 38.1613 91.6887 38.1765 91.6726 38.1958C91.6528 38.2118 91.6368 38.2321 91.6256 38.255C91.6145 38.2779 91.6085 38.303 91.6081 38.3285C91.6104 38.3803 91.6248 38.4309 91.6499 38.4764L96.8037 46.0587L91.2286 54.0201C91.2135 54.0395 91.202 54.0612 91.1944 54.0845V54.13C91.1953 54.1547 91.2019 54.1789 91.2138 54.2006C91.2256 54.2224 91.2424 54.241 91.2627 54.2552C91.2825 54.2765 91.3066 54.2933 91.3334 54.3044C91.3603 54.3155 91.3893 54.3207 91.4183 54.3196H95.0199C95.1452 54.3314 95.2705 54.2977 95.3729 54.2248C95.4549 54.1576 95.5277 54.0799 95.5892 53.9935L99.1112 48.9513Z" fill="#3A3A39"/>
<path d="M15.8184 31.9665C15.6559 31.9679 15.4988 31.9083 15.3781 31.7996C15.3174 31.7455 15.2694 31.6787 15.2373 31.6041C15.2051 31.5294 15.1897 31.4487 15.1921 31.3675V15.7782C15.1897 15.697 15.2051 15.6162 15.2373 15.5415C15.2694 15.4669 15.3174 15.4002 15.3781 15.346C15.498 15.236 15.6556 15.1763 15.8184 15.1792H18.5205C18.7426 15.1644 18.9617 15.2365 19.1315 15.3801C19.2396 15.4714 19.3297 15.5819 19.3972 15.7062L23.7996 23.2885L28.2058 15.7062C28.2835 15.5901 28.3711 15.481 28.4677 15.3801C28.551 15.3065 28.6486 15.2508 28.7543 15.2162C28.86 15.1817 28.9717 15.169 29.0825 15.1792H31.7391C31.9094 15.1719 32.0758 15.2318 32.2022 15.346C32.2633 15.4 32.312 15.4665 32.3447 15.5412C32.3775 15.6158 32.3936 15.6967 32.3919 15.7782V31.3675C32.3936 31.449 32.3775 31.5298 32.3447 31.6045C32.312 31.6791 32.2633 31.7457 32.2022 31.7996C32.0747 31.9121 31.9091 31.9718 31.7391 31.9665H28.7637C28.5938 31.9714 28.4284 31.9117 28.3007 31.7996C28.2396 31.7457 28.1909 31.6791 28.1581 31.6045C28.1253 31.5298 28.1093 31.449 28.111 31.3675V22.3748L25.2835 27.3867C25.2119 27.5331 25.1097 27.6624 24.9837 27.7659C24.8256 27.8842 24.6307 27.9432 24.4334 27.9327H23.1317C22.9343 27.9439 22.7392 27.8848 22.5814 27.7659C22.4509 27.6599 22.3404 27.5315 22.255 27.3867L19.4276 22.3748V31.3675C19.4295 31.4476 19.415 31.5273 19.385 31.6016C19.355 31.6759 19.3101 31.7433 19.253 31.7996C19.1301 31.9121 18.9679 31.972 18.8014 31.9665H15.8184Z" fill="#3A3A39"/>
<path d="M31.7581 32.2831H28.7827C28.5294 32.2904 28.2832 32.1994 28.0957 32.0291C28.0017 31.9472 27.9268 31.8456 27.8763 31.7316C27.8259 31.6177 27.801 31.4941 27.8035 31.3695V23.6203L25.5909 27.5366C25.5008 27.7194 25.3712 27.88 25.2114 28.0067C24.9954 28.1759 24.7265 28.2631 24.4523 28.2531H23.1506C22.8761 28.2651 22.6065 28.1777 22.3915 28.0067C22.2378 27.8755 22.1092 27.7175 22.012 27.5404L19.7994 23.6203V31.3695C19.8027 31.4909 19.7804 31.6117 19.734 31.7241C19.6876 31.8364 19.6181 31.9377 19.53 32.0215C19.3455 32.195 19.1001 32.289 18.8468 32.2831H15.8183C15.5728 32.285 15.3356 32.1943 15.1541 32.0291C15.0607 31.9467 14.9863 31.845 14.9358 31.7312C14.8854 31.6173 14.8602 31.494 14.8619 31.3695V15.7802C14.8601 15.6552 14.8853 15.5312 14.9358 15.4167C14.9862 15.3022 15.0606 15.1999 15.1541 15.1168C15.337 14.9543 15.5736 14.8651 15.8183 14.8665H18.5205C18.8287 14.8504 19.131 14.9552 19.363 15.1585C19.5011 15.2792 19.6156 15.4245 19.7008 15.5869L23.7996 22.6384L27.9173 15.5527C28.008 15.4183 28.1096 15.2915 28.221 15.1736C28.3342 15.0636 28.4696 14.9791 28.6182 14.9254C28.7667 14.8718 28.925 14.8505 29.0824 14.8627H31.7391C31.9926 14.8565 32.2392 14.9459 32.4298 15.113C32.5233 15.1962 32.5978 15.2984 32.6482 15.4129C32.6986 15.5274 32.7238 15.6514 32.7221 15.7764V31.3657C32.7238 31.4902 32.6986 31.6135 32.6481 31.7274C32.5977 31.8412 32.5232 31.9429 32.4298 32.0253C32.2458 32.1917 32.0063 32.2836 31.7581 32.2831ZM28.4601 21.1295V31.3657C28.4574 31.4033 28.4635 31.4411 28.478 31.476C28.4925 31.5109 28.5149 31.5419 28.5436 31.5666C28.6092 31.6247 28.6951 31.6546 28.7827 31.65H31.7581C31.8015 31.6527 31.845 31.6467 31.886 31.6324C31.9271 31.6181 31.9649 31.5957 31.9972 31.5666C32.0258 31.5419 32.0482 31.5109 32.0627 31.476C32.0772 31.4411 32.0833 31.4033 32.0806 31.3657V15.7764C32.084 15.7387 32.0781 15.7007 32.0636 15.6657C32.0491 15.6307 32.0263 15.5998 31.9972 15.5755C31.9649 15.5464 31.9271 15.524 31.886 15.5097C31.845 15.4953 31.8015 15.4894 31.7581 15.4921H29.1014C28.9676 15.4758 28.8324 15.5096 28.7219 15.5869C28.6393 15.6734 28.5632 15.7659 28.4942 15.8636L23.7882 23.935L19.0973 15.8598C19.0446 15.7626 18.9737 15.6764 18.8886 15.6058C18.7806 15.5225 18.6449 15.4832 18.5091 15.4959H15.8183C15.7381 15.4948 15.6607 15.5247 15.602 15.5793C15.5736 15.6042 15.5513 15.6352 15.5368 15.67C15.5223 15.7049 15.5161 15.7426 15.5185 15.7802V31.3695C15.5166 31.407 15.5232 31.4445 15.5376 31.4793C15.552 31.514 15.574 31.5451 15.602 31.5704C15.6607 31.625 15.7381 31.6549 15.8183 31.6538H18.8203C18.8596 31.6568 18.8992 31.6516 18.9364 31.6386C18.9737 31.6255 19.0078 31.6049 19.0366 31.578C19.0647 31.5514 19.0864 31.5189 19.1002 31.4828C19.114 31.4467 19.1195 31.408 19.1163 31.3695V21.1333L22.5623 27.2409C22.6288 27.3538 22.7149 27.4539 22.8166 27.5366C22.9138 27.605 23.032 27.6372 23.1506 27.6276H24.4523C24.5708 27.6366 24.6888 27.6044 24.7863 27.5366C24.8772 27.4621 24.9509 27.369 25.0026 27.2636L28.4601 21.1295Z" fill="#3A3A39"/>
<path d="M42.3846 31.9669C42.314 31.9685 42.2439 31.9555 42.1786 31.9287C42.1133 31.902 42.0542 31.8621 42.0051 31.8114C41.9548 31.7681 41.9142 31.7146 41.8861 31.6545C41.858 31.5944 41.8429 31.529 41.8418 31.4627C41.8411 31.39 41.8488 31.3175 41.8646 31.2466L47.7472 15.8507C47.802 15.6657 47.9119 15.5017 48.0622 15.3806C48.2509 15.2363 48.4854 15.165 48.7225 15.1796H52.4266C52.6649 15.1658 52.9003 15.237 53.0908 15.3806C53.24 15.5019 53.3486 15.666 53.402 15.8507L59.2617 31.2466C59.294 31.314 59.3109 31.3879 59.3111 31.4627C59.3091 31.5289 59.2937 31.5939 59.2656 31.6539C59.2375 31.7139 59.1975 31.7675 59.1479 31.8114C59.0462 31.9102 58.9102 31.9659 58.7684 31.9669H55.6905C55.4854 31.9825 55.2824 31.9172 55.125 31.7849C55.0216 31.6981 54.9409 31.5875 54.8897 31.4627L53.9105 29.0173H47.231L46.2784 31.4627C46.2264 31.5841 46.1503 31.6938 46.0545 31.7849C45.971 31.8535 45.8746 31.9049 45.771 31.9362C45.6674 31.9674 45.5587 31.9778 45.4511 31.9669H42.3846ZM48.2671 25.5636H52.9238L50.5708 19.2324L48.2671 25.5636Z" fill="#3A3A39"/>
<path d="M58.7836 32.2814H55.7057C55.4143 32.2991 55.1278 32.201 54.9087 32.0084C54.7684 31.8866 54.6592 31.7333 54.5899 31.561L53.7018 29.3319H47.4739L46.601 31.5724C46.5362 31.7349 46.4364 31.8811 46.3088 32.0008C46.1943 32.1016 46.0608 32.1784 45.9161 32.2266C45.7713 32.2748 45.6184 32.2934 45.4663 32.2814H42.3846C42.1616 32.279 41.9482 32.1907 41.7888 32.0349C41.709 31.9621 41.6449 31.8738 41.6005 31.7753C41.5562 31.6769 41.5324 31.5704 41.5307 31.4625C41.5299 31.3642 41.5414 31.2661 41.5648 31.1706L47.4587 15.7405C47.5319 15.5072 47.6718 15.3003 47.8611 15.1453C48.1113 14.9492 48.4238 14.8497 48.7415 14.8648H52.4456C52.7645 14.8498 53.0781 14.9493 53.3299 15.1453C53.5256 15.307 53.6684 15.5236 53.7398 15.7671L59.5881 31.1402C59.6362 31.2407 59.6596 31.3512 59.6565 31.4625C59.6554 31.5706 59.632 31.6772 59.5875 31.7758C59.5431 31.8743 59.4787 31.9625 59.3984 32.0349C59.2331 32.1935 59.0127 32.2819 58.7836 32.2814ZM47.0185 28.7025H54.1497L55.2085 31.3563C55.2434 31.4558 55.3114 31.5403 55.4013 31.5955C55.4912 31.6507 55.5973 31.6734 55.7019 31.6596H58.7798C58.8087 31.66 58.8375 31.6545 58.8643 31.6434C58.891 31.6324 58.9152 31.6159 58.9354 31.5952C58.9546 31.5803 58.9703 31.5613 58.9815 31.5397C58.9926 31.5181 58.9989 31.4943 58.9999 31.47C59.0063 31.4452 59.0063 31.4191 58.9999 31.3942L53.1288 15.9642C53.0928 15.8191 53.0051 15.6921 52.8822 15.607C52.7592 15.5218 52.6094 15.4844 52.4608 15.5017H48.7567C48.5992 15.4902 48.4424 15.533 48.3127 15.623C48.2114 15.7054 48.1373 15.8164 48.1002 15.9415L42.21 31.3639C42.208 31.3993 42.208 31.4347 42.21 31.47C42.2112 31.4947 42.2179 31.5188 42.2298 31.5405C42.2416 31.5621 42.2582 31.5809 42.2783 31.5952C42.294 31.6145 42.3136 31.6302 42.3359 31.6413C42.3581 31.6524 42.3825 31.6587 42.4074 31.6596H45.4853C45.7471 31.6596 45.8268 31.599 45.8648 31.58C45.9283 31.52 45.9809 31.4494 46.0204 31.3715L47.0185 28.7025ZM53.3944 25.8781H47.8117L50.5746 18.2958L53.3944 25.8781ZM48.7377 25.2488H52.4646L50.567 20.18L48.7377 25.2488Z" fill="#3A3A39"/>
<path d="M69.4443 31.9675C69.2777 31.973 69.1155 31.9131 68.9926 31.8007C68.9355 31.7444 68.8906 31.677 68.8606 31.6027C68.8306 31.5283 68.8161 31.4487 68.818 31.3685V15.7793C68.8161 15.6992 68.8306 15.6195 68.8606 15.5452C68.8906 15.4708 68.9355 15.4034 68.9926 15.3471C69.053 15.2907 69.1241 15.2469 69.2016 15.2183C69.2792 15.1897 69.3617 15.1767 69.4443 15.1803H76.2528C78.4059 15.1803 80.1037 15.6554 81.3459 16.6057C82.5882 17.5561 83.2093 18.9032 83.2093 20.6471C83.2418 21.6742 82.9395 22.684 82.3479 23.5246C81.7655 24.3129 80.9779 24.9266 80.0708 25.2989L83.5244 31.2017C83.5701 31.2817 83.5961 31.3713 83.6003 31.4633C83.5983 31.5295 83.5828 31.5946 83.5548 31.6546C83.5267 31.7145 83.4867 31.7681 83.4371 31.8121C83.3354 31.9108 83.1994 31.9665 83.0576 31.9675H79.7519C79.6257 31.9778 79.4987 31.9629 79.3782 31.9239C79.2577 31.8849 79.1461 31.8224 79.0498 31.7401C78.9219 31.6167 78.8132 31.4748 78.7273 31.3193L75.8733 26.0419H73.2963V31.3496C73.2983 31.4297 73.2838 31.5094 73.2538 31.5837C73.2238 31.658 73.1788 31.7254 73.1218 31.7818C72.9988 31.8942 72.8367 31.9541 72.6702 31.9486L69.4443 31.9675ZM73.3001 22.6602H76.2035C76.8404 22.7084 77.4716 22.5118 77.9682 22.1105C78.1682 21.9138 78.3241 21.6769 78.4255 21.4155C78.5269 21.154 78.5716 20.874 78.5565 20.5941C78.5692 20.3163 78.5257 20.0388 78.4285 19.7782C78.3314 19.5176 78.1825 19.2793 77.991 19.0776C77.6165 18.6959 77.0207 18.5039 76.2035 18.5013H73.3001V22.6602Z" fill="#3A3A39"/>
<path d="M83.0614 32.2803H79.7557C79.5855 32.2919 79.4148 32.269 79.2537 32.213C79.0926 32.157 78.9445 32.069 78.8183 31.9542C78.6676 31.8087 78.5396 31.6413 78.4388 31.4576L75.6797 26.3585H73.6303V31.3666C73.6331 31.488 73.6106 31.6087 73.5642 31.7209C73.5178 31.8332 73.4486 31.9346 73.3608 32.0187C73.1764 32.1922 72.931 32.2861 72.6777 32.2803H69.448C69.1948 32.2861 68.9493 32.1922 68.7649 32.0187C68.6763 31.9351 68.6062 31.8338 68.5591 31.7215C68.5121 31.6092 68.4891 31.4883 68.4916 31.3666V15.7774C68.4895 15.6551 68.5126 15.5337 68.5597 15.4209C68.6067 15.308 68.6766 15.2061 68.7649 15.1215C68.9497 14.949 69.1952 14.8564 69.448 14.8637H76.2566C78.473 14.8637 80.2567 15.3641 81.5698 16.3574C82.883 17.3507 83.5585 18.8103 83.5585 20.6452C83.5871 21.7444 83.2553 22.8227 82.6135 23.716C82.0717 24.4525 81.3594 25.047 80.5376 25.4486L83.8204 31.0557C83.8949 31.1823 83.9354 31.3259 83.938 31.4727C83.937 31.5808 83.9136 31.6875 83.8691 31.786C83.8247 31.8846 83.7603 31.9728 83.68 32.0452C83.5116 32.1999 83.2901 32.2841 83.0614 32.2803ZM72.9699 25.7254H76.0782L79.0233 31.1733C79.0963 31.3016 79.187 31.419 79.2927 31.522C79.4257 31.6209 79.5907 31.6669 79.7557 31.651H83.0614C83.0903 31.6514 83.1191 31.6458 83.1458 31.6348C83.1726 31.6237 83.1968 31.6073 83.2169 31.5865C83.2362 31.5716 83.2519 31.5527 83.2631 31.531C83.2742 31.5094 83.2805 31.4857 83.2815 31.4614C83.2783 31.418 83.264 31.3762 83.2397 31.3401L79.6191 25.1491L79.9455 25.0088C80.7957 24.658 81.5334 24.081 82.0784 23.3407C82.6305 22.5524 82.9127 21.6069 82.8829 20.6452C82.8829 18.9885 82.3137 17.7488 81.141 16.854C79.9683 15.9593 78.3174 15.4968 76.2528 15.4968H69.4442C69.4048 15.4925 69.3649 15.4971 69.3274 15.5102C69.29 15.5233 69.256 15.5447 69.2279 15.5726C69.1998 15.5992 69.1781 15.6317 69.1643 15.6678C69.1505 15.7039 69.145 15.7426 69.1482 15.7811V31.3704C69.145 31.4089 69.1505 31.4476 69.1643 31.4837C69.1781 31.5198 69.1998 31.5523 69.2279 31.5789C69.2564 31.6062 69.2905 31.6271 69.3278 31.6402C69.3651 31.6533 69.4049 31.6582 69.4442 31.6547H72.6739C72.7133 31.6577 72.7528 31.6526 72.79 31.6395C72.8273 31.6265 72.8614 31.6058 72.8902 31.5789C72.9183 31.5523 72.9401 31.5198 72.9539 31.4837C72.9677 31.4476 72.9731 31.4089 72.9699 31.3704V25.7254ZM76.2034 22.9768H72.9699V18.1961H76.2034C77.1105 18.1961 77.7936 18.4236 78.2301 18.8709C78.4484 19.1005 78.6186 19.3714 78.7307 19.6676C78.8428 19.9638 78.8946 20.2794 78.8829 20.5959C78.8978 20.9174 78.8444 21.2384 78.7259 21.5377C78.6075 21.8371 78.4269 22.1078 78.1959 22.3323C77.6398 22.7957 76.9259 23.0266 76.2034 22.9768ZM73.6265 22.3436H76.2034C76.7489 22.3841 77.29 22.2206 77.7215 21.8849C77.8904 21.7173 78.0214 21.5156 78.1058 21.2933C78.1903 21.071 78.2262 20.8332 78.2111 20.5959C78.2236 20.3596 78.1879 20.1232 78.1064 19.901C78.0249 19.6788 77.8991 19.4754 77.7367 19.3031C77.5231 19.1251 77.2762 18.9913 77.0104 18.9093C76.7446 18.8273 76.4651 18.7988 76.1882 18.8254H73.6113L73.6265 22.3436Z" fill="#3A3A39"/>
<path d="M98.0752 31.9684C97.9138 31.9696 97.758 31.91 97.6387 31.8016C97.5775 31.7476 97.5289 31.6811 97.4961 31.6064C97.4634 31.5318 97.4472 31.4509 97.4489 31.3694V26.2134L91.6461 15.947C91.6461 15.8977 91.612 15.856 91.593 15.8143C91.5775 15.7718 91.5698 15.7268 91.5702 15.6816C91.5713 15.6158 91.5864 15.551 91.6145 15.4915C91.6427 15.432 91.6832 15.3792 91.7334 15.3366C91.783 15.2865 91.8421 15.2469 91.9073 15.2202C91.9725 15.1935 92.0425 15.1802 92.1129 15.1812H95.2402C95.4512 15.169 95.6596 15.2322 95.8284 15.3593C95.9417 15.4427 96.0319 15.5537 96.0903 15.6816L99.6957 21.8726L103.301 15.6816C103.376 15.5571 103.474 15.4477 103.59 15.3593C103.757 15.2327 103.964 15.1696 104.174 15.1812H107.305C107.376 15.1786 107.446 15.1911 107.512 15.2179C107.577 15.2448 107.636 15.2852 107.685 15.3366C107.731 15.3815 107.768 15.4352 107.793 15.4944C107.818 15.5536 107.832 15.6172 107.833 15.6816C107.837 15.7257 107.837 15.7702 107.833 15.8143C107.822 15.8592 107.81 15.9035 107.795 15.947L101.969 26.2134V31.3694C101.971 31.4499 101.956 31.53 101.926 31.6044C101.895 31.6788 101.849 31.746 101.791 31.8016C101.731 31.8575 101.66 31.9011 101.583 31.9297C101.507 31.9583 101.425 31.9715 101.343 31.9684H98.0752Z" fill="#3A3A39"/>
<path d="M101.331 32.281H98.0751C97.8308 32.2827 97.5949 32.192 97.4148 32.0271C97.3214 31.9446 97.2469 31.843 97.1965 31.7291C97.146 31.6153 97.1208 31.4919 97.1225 31.3674V26.291L91.3311 16.0549C91.3311 16.0094 91.3007 15.9715 91.2855 15.9336C91.2556 15.8548 91.2402 15.7713 91.24 15.6871C91.2422 15.5798 91.2662 15.4741 91.3106 15.3764C91.355 15.2786 91.4188 15.1908 91.4981 15.1184C91.6647 14.9573 91.8886 14.8687 92.1205 14.8721H95.2477C95.4834 14.8626 95.7167 14.9222 95.919 15.0434C96.1212 15.1647 96.2837 15.3423 96.3863 15.5544L99.6919 21.2412L103.009 15.5544C103.102 15.3985 103.223 15.2611 103.366 15.1488C103.594 14.9697 103.88 14.8783 104.17 14.891H107.301C107.416 14.8889 107.53 14.9104 107.637 14.9541C107.743 14.9978 107.84 15.0627 107.92 15.145C108.067 15.2949 108.152 15.4958 108.155 15.7061C108.162 15.7704 108.162 15.8352 108.155 15.8995C108.155 15.9525 108.14 16.0094 108.11 16.07L108.083 16.1231L102.292 26.3176V31.3939C102.294 31.5153 102.272 31.636 102.225 31.7483C102.179 31.8605 102.11 31.9619 102.022 32.046C101.832 32.2117 101.584 32.2961 101.331 32.281ZM91.9459 15.8199L97.7791 26.1318V31.3674C97.7772 31.405 97.7838 31.4425 97.7982 31.4772C97.8127 31.512 97.8347 31.5431 97.8626 31.5683C97.9197 31.623 97.996 31.653 98.0751 31.6517H101.331C101.371 31.6548 101.41 31.6496 101.448 31.6365C101.485 31.6235 101.519 31.6028 101.548 31.5759C101.576 31.5493 101.598 31.5168 101.611 31.4807C101.625 31.4446 101.631 31.4059 101.627 31.3674V26.128L101.665 26.0598L107.483 15.8236C107.485 15.8009 107.485 15.7781 107.483 15.7554C107.485 15.7314 107.485 15.7073 107.483 15.6834C107.483 15.6579 107.477 15.6328 107.466 15.6098C107.455 15.5869 107.439 15.5667 107.419 15.5506C107.402 15.5327 107.381 15.5187 107.358 15.5096C107.335 15.5004 107.311 15.4963 107.286 15.4976H104.155C104.02 15.4849 103.886 15.5213 103.775 15.5999C103.691 15.6616 103.619 15.7388 103.563 15.8274L99.6919 22.515L95.7753 15.7819C95.7753 15.7819 95.7525 15.7175 95.6082 15.5961C95.4981 15.5178 95.3634 15.4815 95.2287 15.4938H92.1015C92.0728 15.4929 92.0442 15.4978 92.0175 15.5082C91.9907 15.5186 91.9664 15.5344 91.9459 15.5544C91.927 15.5697 91.9115 15.5887 91.9004 15.6102C91.8893 15.6317 91.8829 15.6554 91.8814 15.6796C91.9156 15.7327 91.9307 15.7744 91.9459 15.8199Z" fill="#3A3A39"/>
<path d="M15.344 31.5231C15.1819 31.5248 15.0254 31.4637 14.9075 31.3526C14.8461 31.2997 14.7972 31.2338 14.7643 31.1597C14.7315 31.0856 14.7156 31.0051 14.7178 30.9241V15.3349C14.7153 15.2533 14.7311 15.1722 14.7639 15.0974C14.7967 15.0227 14.8458 14.9561 14.9075 14.9027C15.0254 14.7915 15.1819 14.7304 15.344 14.7321H18.05C18.2727 14.7168 18.4925 14.7904 18.661 14.9368C18.7677 15.0284 18.8565 15.1389 18.9229 15.2628L23.3291 22.8452L27.7353 15.2628C27.812 15.1461 27.8997 15.0369 27.9971 14.9368C28.0797 14.8618 28.177 14.8048 28.2829 14.7696C28.3888 14.7343 28.5008 14.7216 28.6119 14.7321H31.2686C31.4392 14.7271 31.6052 14.7882 31.7316 14.9027C31.7934 14.9561 31.8425 15.0227 31.8753 15.0974C31.9081 15.1722 31.9239 15.2533 31.9214 15.3349V30.9204C31.9236 31.0014 31.9076 31.0818 31.8748 31.1559C31.842 31.23 31.7931 31.2959 31.7316 31.3488C31.6052 31.4633 31.4392 31.5244 31.2686 31.5193H28.2894C28.1188 31.524 27.953 31.4629 27.8264 31.3488C27.7654 31.2957 27.717 31.2297 27.6848 31.1556C27.6527 31.0815 27.6375 31.0011 27.6404 30.9204V21.9239L24.813 26.9358C24.7408 27.0818 24.6386 27.211 24.5132 27.315C24.3547 27.4327 24.1601 27.4917 23.9628 27.4818H22.6611C22.4626 27.4923 22.2666 27.4333 22.107 27.315C21.9789 27.2076 21.8698 27.0794 21.7844 26.9358L18.957 21.9239V30.9204C18.9593 31.0003 18.9446 31.0798 18.9139 31.1537C18.8831 31.2275 18.8371 31.294 18.7787 31.3488C18.7194 31.4059 18.6491 31.4505 18.5722 31.4798C18.4952 31.5091 18.4131 31.5225 18.3308 31.5193L15.344 31.5231Z" fill="#F8F4EF"/>
<path d="M31.2875 31.8369H28.3083C28.0557 31.8408 27.8106 31.7502 27.6214 31.5829C27.528 31.5005 27.4535 31.3988 27.4031 31.285C27.3527 31.1711 27.3274 31.0478 27.3291 30.9233V23.1741L25.1204 27.0904C25.0292 27.2726 24.8998 27.4329 24.7409 27.5605C24.5246 27.7291 24.2559 27.8163 23.9818 27.8069H22.6801C22.406 27.816 22.1374 27.7288 21.921 27.5605C21.769 27.4276 21.6407 27.27 21.5415 27.0942L19.3289 23.1741V30.9195C19.3308 31.0408 19.3079 31.1611 19.2616 31.2733C19.2152 31.3854 19.1465 31.4869 19.0595 31.5715C18.875 31.745 18.6296 31.839 18.3763 31.8331H15.3705C15.1262 31.8348 14.8903 31.744 14.7102 31.5791C14.6162 31.4972 14.5413 31.3957 14.4909 31.2817C14.4404 31.1677 14.4155 31.0441 14.418 30.9195V15.3302C14.4149 15.205 14.4395 15.0806 14.49 14.966C14.5405 14.8513 14.6157 14.7491 14.7102 14.6668C14.8903 14.5019 15.1262 14.4111 15.3705 14.4127H18.0765C18.3851 14.3981 18.6874 14.5042 18.9191 14.7085C19.058 14.8284 19.1727 14.9738 19.2568 15.1369L23.3556 22.1884L27.4734 15.1028C27.5618 14.9667 27.6636 14.8397 27.777 14.7236C27.8912 14.6151 28.0268 14.5313 28.1751 14.4778C28.3234 14.4243 28.4812 14.4021 28.6385 14.4127H31.2951C31.5481 14.4074 31.7936 14.4982 31.982 14.6668C32.0765 14.7491 32.1517 14.8513 32.2022 14.966C32.2528 15.0806 32.2773 15.205 32.2743 15.3302V30.9195C32.2768 31.0441 32.2519 31.1677 32.2014 31.2817C32.1509 31.3957 32.076 31.4972 31.982 31.5791C31.7922 31.7509 31.5436 31.8432 31.2875 31.8369ZM27.9895 20.6833V30.9195C27.9868 30.9571 27.993 30.9949 28.0075 31.0298C28.022 31.0647 28.0444 31.0957 28.073 31.1204C28.105 31.1486 28.1423 31.1701 28.1827 31.1837C28.2231 31.1974 28.2658 31.2029 28.3083 31.2H31.2875C31.3746 31.2057 31.4604 31.1771 31.5266 31.1204C31.5546 31.0952 31.5766 31.0641 31.591 31.0293C31.6054 30.9946 31.612 30.957 31.6101 30.9195V15.3302C31.6126 15.292 31.6063 15.2538 31.5918 15.2183C31.5774 15.1829 31.5551 15.1511 31.5266 15.1255C31.4604 15.0688 31.3746 15.0402 31.2875 15.0459H28.6309C28.497 15.0292 28.3617 15.063 28.2514 15.1407C28.1678 15.2263 28.0916 15.3189 28.0237 15.4174L23.3367 23.4812L18.6458 15.4098C18.5925 15.313 18.5217 15.2269 18.4371 15.1558C18.3292 15.0722 18.1935 15.0328 18.0575 15.0459H15.3516C15.3127 15.0445 15.2738 15.0509 15.2374 15.0645C15.2009 15.0782 15.1675 15.0989 15.139 15.1255C15.1106 15.1511 15.0883 15.1829 15.0738 15.2183C15.0594 15.2538 15.0531 15.292 15.0555 15.3302V30.9195C15.0537 30.957 15.0602 30.9946 15.0747 31.0293C15.0891 31.0641 15.1111 31.0952 15.139 31.1204C15.1675 31.147 15.2009 31.1677 15.2374 31.1814C15.2738 31.195 15.3127 31.2014 15.3516 31.2H18.3573C18.3964 31.2031 18.4357 31.1983 18.4728 31.1859C18.51 31.1736 18.5443 31.1539 18.5737 31.128C18.6015 31.1013 18.6231 31.0687 18.6369 31.0326C18.6507 30.9966 18.6563 30.9579 18.6534 30.9195V20.6833L22.0994 26.7909C22.1654 26.903 22.2501 27.0031 22.3499 27.0866C22.4486 27.155 22.5679 27.1871 22.6876 27.1776H23.9894C24.1079 27.1866 24.2259 27.1544 24.3234 27.0866C24.4143 27.0107 24.4881 26.9164 24.5397 26.8099L27.9895 20.6833Z" fill="#3A3A39"/>
<path d="M41.9254 31.5233C41.855 31.524 41.7851 31.5107 41.7199 31.484C41.6547 31.4573 41.5956 31.4178 41.5459 31.3679C41.4963 31.324 41.4562 31.2703 41.4282 31.2104C41.4001 31.1504 41.3846 31.0853 41.3827 31.0191C41.3831 30.9463 41.392 30.8737 41.4093 30.803L47.2918 15.4071C47.3452 15.2224 47.4538 15.0584 47.603 14.937C47.7922 14.7905 48.0282 14.7178 48.2672 14.7323H51.9713C52.2102 14.7178 52.4462 14.7905 52.6354 14.937C52.7834 15.0595 52.8917 15.2231 52.9466 15.4071L58.8026 30.803C58.8379 30.8695 58.8562 30.9438 58.8557 31.0191C58.8538 31.0853 58.8383 31.1504 58.8102 31.2104C58.7822 31.2703 58.7421 31.324 58.6925 31.3679C58.5906 31.4663 58.4547 31.5219 58.313 31.5233H55.2351C55.1341 31.532 55.0323 31.5204 54.9358 31.4891C54.8394 31.4579 54.7501 31.4076 54.6734 31.3413C54.5703 31.2534 54.4886 31.1432 54.4343 31.0191L53.459 28.57H46.7756L45.8268 31.0191C45.7747 31.1414 45.6971 31.2513 45.5991 31.3413C45.5163 31.41 45.4207 31.4615 45.3177 31.4928C45.2147 31.524 45.1066 31.5344 44.9995 31.5233H41.9254ZM47.808 25.12H52.4609L50.1078 18.7888L47.808 25.12Z" fill="#F8F4EF"/>
<path d="M58.3243 31.838H55.2464C55.1027 31.847 54.9587 31.8274 54.8226 31.7806C54.6865 31.7338 54.561 31.6605 54.4533 31.565C54.313 31.4433 54.2037 31.2899 54.1344 31.1177L53.2464 28.8885H47.0147L46.1456 31.1291C46.0784 31.2903 45.979 31.4361 45.8534 31.5575C45.7389 31.6583 45.6053 31.735 45.4606 31.7832C45.3159 31.8314 45.1629 31.85 45.0108 31.838H41.933C41.709 31.8367 41.4947 31.7467 41.3371 31.5878C41.2561 31.5167 41.1912 31.4293 41.1467 31.3312C41.1022 31.2332 41.0792 31.1268 41.079 31.0191C41.078 30.9208 41.0895 30.8227 41.1132 30.7272L47.0033 15.2972C47.0779 15.0645 47.2174 14.858 47.4056 14.702C47.6568 14.5046 47.9706 14.4037 48.2899 14.4176H51.9939C52.3123 14.4018 52.6256 14.503 52.8745 14.702C53.0712 14.8634 53.2153 15.0799 53.2881 15.3237L59.1365 30.6931C59.1841 30.7951 59.2074 30.9066 59.2048 31.0191C59.2035 31.1266 59.1799 31.2326 59.1354 31.3305C59.091 31.4284 59.0268 31.516 58.9467 31.5878C58.7805 31.75 58.5567 31.84 58.3243 31.838ZM46.5593 28.2554H53.698L54.753 30.9092C54.7909 30.9912 54.8467 31.0638 54.9163 31.1215C55.0132 31.1871 55.1297 31.2179 55.2464 31.2087H58.3243C58.3531 31.2106 58.382 31.2061 58.4089 31.1956C58.4358 31.1851 58.46 31.1689 58.4799 31.148C58.5001 31.1337 58.5167 31.115 58.5285 31.0933C58.5403 31.0716 58.5471 31.0476 58.5482 31.0229C58.5532 30.9979 58.5532 30.9721 58.5482 30.9471L52.6771 15.5171C52.6412 15.372 52.5535 15.245 52.4305 15.1598C52.3076 15.0747 52.1577 15.0373 52.0091 15.0546H48.305C48.1611 15.0371 48.0156 15.0714 47.8946 15.1513C47.7736 15.2311 47.6851 15.3514 47.6447 15.4905L41.7318 30.9206C41.7318 30.9206 41.7318 30.9774 41.7318 31.0305C41.733 31.0552 41.7397 31.0792 41.7515 31.1009C41.7634 31.1226 41.78 31.1413 41.8001 31.1556C41.8161 31.1742 41.8359 31.1893 41.8581 31.1997C41.8804 31.2102 41.9046 31.2158 41.9292 31.2163H45.007C45.2689 31.2163 45.3486 31.1556 45.3676 31.1366C45.4339 31.08 45.4859 31.0086 45.5194 30.9281L46.5593 28.2554ZM52.9352 25.4348H47.3524L50.1153 17.8524L52.9352 25.4348ZM48.2785 24.8054H52.0015L50.104 19.7366L48.2785 24.8054Z" fill="#3A3A39"/>
<path d="M68.9812 31.5239C68.8983 31.5272 68.8157 31.5138 68.7381 31.4844C68.6605 31.4551 68.5896 31.4106 68.5296 31.3533C68.4717 31.2984 68.4262 31.2318 68.3961 31.158C68.366 31.0841 68.352 31.0046 68.3551 30.9249V15.3357C68.3515 15.2554 68.3651 15.1752 68.3953 15.1006C68.4254 15.0261 68.4712 14.9588 68.5296 14.9035C68.5896 14.8463 68.6605 14.8016 68.7381 14.7723C68.8157 14.743 68.8983 14.7296 68.9812 14.7329H75.7822C77.9353 14.7329 79.6331 15.2093 80.8754 16.1621C82.1176 17.115 82.7388 18.4621 82.7388 20.2035C82.7712 21.2312 82.4675 22.2413 81.8735 23.081C81.2917 23.8698 80.504 24.4837 79.5964 24.8553L83.0538 30.7544C83.0982 30.836 83.1229 30.9268 83.1259 31.0197C83.1249 31.0861 83.1098 31.1514 83.0817 31.2115C83.0536 31.2717 83.013 31.3252 82.9627 31.3685C82.8617 31.4683 82.7253 31.5241 82.5832 31.5239H79.2814C79.1551 31.5346 79.0279 31.5199 78.9073 31.4809C78.7868 31.4418 78.6753 31.3791 78.5793 31.2965C78.4523 31.1712 78.3425 31.0297 78.2529 30.8757L75.4027 25.6135H72.8219V30.9211C72.825 31.0008 72.811 31.0803 72.7809 31.1542C72.7508 31.228 72.7053 31.2946 72.6474 31.3495C72.5874 31.4068 72.5165 31.4514 72.4389 31.4807C72.3613 31.51 72.2787 31.5234 72.1958 31.5201L68.9812 31.5239ZM72.8333 22.2167H75.7367C76.3737 22.2664 77.0056 22.0696 77.5014 21.6669C77.7022 21.4708 77.8586 21.2339 77.9601 20.9724C78.0616 20.7108 78.1057 20.4305 78.0897 20.1504C78.1031 19.8729 78.0603 19.5956 77.9638 19.335C77.8673 19.0744 77.719 18.8359 77.528 18.634C77.1485 18.2549 76.5564 18.0577 75.7367 18.0577H72.8333V22.2167Z" fill="#F8F4EF"/>
<path d="M82.6135 31.8386H79.3118C79.141 31.8504 78.9696 31.8275 78.8078 31.7715C78.6461 31.7155 78.4973 31.6274 78.3705 31.5126C78.2203 31.3665 78.0924 31.1992 77.991 31.0159L75.2319 25.913H73.1825V30.9211C73.1842 31.0424 73.1612 31.1627 73.1148 31.2748C73.0685 31.3869 72.9998 31.4884 72.913 31.5732C72.727 31.7466 72.4805 31.8404 72.2261 31.8348H69.0002C68.7468 31.8415 68.5011 31.7474 68.3171 31.5732C68.2289 31.4893 68.159 31.388 68.112 31.2758C68.065 31.1636 68.0418 31.0428 68.0438 30.9211V15.3319C68.0417 15.2096 68.0649 15.0883 68.1119 14.9754C68.1589 14.8626 68.2288 14.7606 68.3171 14.676C68.5011 14.5018 68.7468 14.4077 69.0002 14.4144H75.7822C77.9986 14.4144 79.7823 14.9186 81.0955 15.9309C82.4086 16.9431 83.0841 18.3838 83.0841 20.2187C83.1158 21.3118 82.7908 22.3856 82.1581 23.2781C81.6156 24.0139 80.9034 24.6082 80.0821 25.0107L83.365 30.6178C83.4378 30.7451 83.4782 30.8883 83.4827 31.0349C83.4804 31.1422 83.4564 31.2479 83.4121 31.3456C83.3677 31.4434 83.3039 31.5312 83.2246 31.6036C83.0587 31.7575 82.8399 31.8416 82.6135 31.8386ZM72.526 25.2837H75.6304L78.5755 30.7316C78.6505 30.8584 78.7424 30.9745 78.8487 31.0766C78.9803 31.1782 79.1465 31.2245 79.3118 31.2055H82.6135C82.6423 31.2073 82.6712 31.2028 82.6981 31.1924C82.725 31.1819 82.7492 31.1657 82.7692 31.1448C82.7893 31.1305 82.8059 31.1118 82.8177 31.0901C82.8296 31.0684 82.8363 31.0444 82.8375 31.0197C82.8328 30.9766 82.8186 30.9351 82.7957 30.8984L79.1713 24.7074L79.5015 24.5671C80.3502 24.2136 81.0872 23.6372 81.6344 22.899C82.1847 22.11 82.4655 21.1647 82.4352 20.2035C82.4352 18.5468 81.8659 17.3033 80.697 16.4123C79.528 15.5214 77.8733 15.0551 75.8088 15.0551H69.0002C68.9606 15.0517 68.9207 15.0564 68.8828 15.0687C68.845 15.0811 68.8101 15.101 68.7801 15.1271C68.7535 15.1554 68.7329 15.1888 68.7199 15.2253C68.7068 15.2619 68.7015 15.3008 68.7042 15.3395V30.9211C68.7018 30.9592 68.7073 30.9974 68.7203 31.0333C68.7334 31.0692 68.7538 31.102 68.7801 31.1297C68.8101 31.1558 68.845 31.1757 68.8828 31.1881C68.9207 31.2004 68.9606 31.2051 69.0002 31.2017H72.2261C72.2658 31.2051 72.3057 31.2004 72.3435 31.1881C72.3814 31.1757 72.4163 31.1558 72.4462 31.1297C72.4741 31.1029 72.4957 31.0703 72.5095 31.0343C72.5233 30.9982 72.5289 30.9596 72.526 30.9211V25.2837ZM75.7557 22.5313H72.526V17.7544H75.7557C76.6665 17.7544 77.3496 17.9819 77.7861 18.4293C78.0046 18.6587 78.1749 18.9296 78.287 19.2258C78.3991 19.5221 78.4508 19.8377 78.4388 20.1542C78.4538 20.4757 78.4003 20.7967 78.2819 21.096C78.1635 21.3954 77.9828 21.6662 77.7519 21.8906C77.188 22.3558 76.466 22.5854 75.7367 22.5313H75.7557ZM73.1825 21.9019H75.7557C76.3018 21.9428 76.8434 21.7778 77.2737 21.4394C77.4421 21.2723 77.5728 21.0712 77.6573 20.8496C77.7417 20.6279 77.7778 20.3909 77.7633 20.1542C77.7756 19.9173 77.74 19.6804 77.6585 19.4576C77.5769 19.2348 77.4512 19.0308 77.2889 18.8577C76.8544 18.5012 76.2964 18.3308 75.7367 18.3838H73.1635L73.1825 21.9019Z" fill="#3A3A39"/>
<path d="M97.6121 31.5229C97.45 31.5246 97.2936 31.4635 97.1757 31.3523C97.1142 31.2995 97.0653 31.2336 97.0325 31.1595C96.9997 31.0854 96.9837 31.0049 96.9859 30.9239V25.7642L91.1793 15.5015C91.1793 15.4522 91.1451 15.4105 91.1299 15.3688C91.1145 15.3263 91.1068 15.2813 91.1072 15.2361C91.108 15.1706 91.1227 15.1061 91.1501 15.0466C91.1776 14.9872 91.2173 14.9342 91.2666 14.8911C91.3673 14.7903 91.5036 14.7331 91.6461 14.7319H94.7734C94.949 14.7228 95.1235 14.7658 95.2748 14.8556C95.426 14.9453 95.5473 15.0777 95.6235 15.2361L99.2289 21.4233L102.831 15.2361C102.908 15.1134 103.005 15.0045 103.119 14.9139C103.287 14.7845 103.496 14.7198 103.707 14.7319H106.838C106.909 14.7301 106.98 14.7433 107.045 14.7708C107.111 14.7982 107.169 14.8392 107.218 14.8911C107.264 14.9358 107.301 14.9893 107.327 15.0486C107.352 15.1078 107.365 15.1716 107.366 15.2361C107.37 15.2802 107.37 15.3247 107.366 15.3688C107.356 15.4137 107.343 15.458 107.328 15.5015L101.495 25.7642V30.9201C101.498 30.9998 101.484 31.0793 101.454 31.1532C101.423 31.227 101.378 31.2936 101.32 31.3485C101.261 31.4055 101.19 31.4499 101.113 31.4792C101.036 31.5085 100.954 31.5221 100.872 31.5191L97.6121 31.5229Z" fill="#F8F4EF"/>
<path d="M100.868 31.839H97.6121C97.3677 31.8407 97.1318 31.7499 96.9517 31.585C96.8577 31.5031 96.7828 31.4015 96.7324 31.2876C96.6819 31.1736 96.657 31.05 96.6595 30.9254V25.8452L90.868 15.6091C90.868 15.5673 90.8377 15.5257 90.8225 15.4915C90.791 15.4133 90.7755 15.3295 90.7769 15.2451C90.7792 15.1378 90.8032 15.0321 90.8475 14.9343C90.8919 14.8366 90.9557 14.7488 91.035 14.6764C91.201 14.5139 91.4249 14.4239 91.6574 14.4262H94.7846C95.0202 14.42 95.2527 14.4813 95.4544 14.6029C95.6562 14.7245 95.8189 14.9014 95.9232 15.1124L99.2288 20.7992L102.546 15.1124C102.638 14.9558 102.759 14.8181 102.903 14.7068C103.13 14.5242 103.416 14.4311 103.707 14.4452H106.838C106.953 14.4437 107.067 14.4658 107.172 14.5101C107.278 14.5545 107.374 14.6201 107.453 14.703C107.603 14.8516 107.689 15.053 107.692 15.264C107.698 15.3283 107.698 15.3931 107.692 15.4574C107.68 15.5154 107.663 15.5725 107.643 15.628L107.62 15.6811L101.829 25.8755V30.9216C101.83 31.0428 101.807 31.1632 101.761 31.2753C101.715 31.3874 101.646 31.4888 101.559 31.5736C101.373 31.7496 101.125 31.8451 100.868 31.839ZM91.4828 15.3778L97.316 25.6897V30.9216C97.3133 30.9592 97.3195 30.997 97.334 31.0319C97.3485 31.0668 97.3709 31.0978 97.3995 31.1225C97.428 31.1491 97.4614 31.1698 97.4979 31.1834C97.5343 31.1971 97.5731 31.2034 97.6121 31.2021H100.868C100.907 31.2052 100.947 31.2004 100.984 31.188C101.021 31.1757 101.055 31.156 101.085 31.1301C101.112 31.1028 101.133 31.0701 101.146 31.0342C101.16 30.9983 101.166 30.9599 101.164 30.9216V25.6822L101.202 25.6139L107.02 15.3778C107.022 15.3538 107.022 15.3298 107.02 15.3058C107.022 15.2831 107.022 15.2602 107.02 15.2375C107.02 15.2124 107.014 15.1877 107.004 15.1648C106.993 15.142 106.978 15.1216 106.96 15.1048C106.943 15.0869 106.922 15.0729 106.899 15.0637C106.876 15.0546 106.851 15.0505 106.827 15.0518H103.696C103.562 15.0387 103.427 15.0736 103.316 15.1503C103.231 15.2127 103.159 15.2913 103.104 15.3816L99.206 22.073L95.2894 15.3399C95.2894 15.3399 95.2666 15.2754 95.1224 15.1503C95.0109 15.0751 94.877 15.0403 94.7429 15.0518H91.6157C91.5869 15.0499 91.558 15.0543 91.5311 15.0648C91.5042 15.0753 91.48 15.0916 91.4601 15.1124C91.44 15.1268 91.4233 15.1455 91.4115 15.1671C91.3997 15.1888 91.3929 15.2129 91.3918 15.2375L91.4828 15.3778Z" fill="#3A3A39"/>
<path d="M120.372 55.0365C122.193 55.0365 123.67 53.6209 123.67 51.8747C123.67 50.1285 122.193 48.7129 120.372 48.7129C118.55 48.7129 117.074 50.1285 117.074 51.8747C117.074 53.6209 118.55 55.0365 120.372 55.0365Z" fill="#3A3A39"/>
<path d="M120.368 55.356C119.686 55.3278 119.027 55.0998 118.473 54.7005C117.919 54.3011 117.495 53.748 117.253 53.1099C117.012 52.4718 116.963 51.7768 117.114 51.1114C117.265 50.4459 117.608 49.8394 118.1 49.3671C118.593 48.8948 119.214 48.5777 119.886 48.4551C120.558 48.3325 121.251 48.4099 121.879 48.6776C122.507 48.9453 123.043 49.3915 123.419 49.9608C123.796 50.5301 123.996 51.1973 123.996 51.8795C123.974 52.8204 123.58 53.7143 122.9 54.3658C122.22 55.0173 121.31 55.3733 120.368 55.356ZM120.368 49.0324C119.81 49.0561 119.271 49.2431 118.819 49.57C118.366 49.897 118.02 50.3495 117.823 50.8714C117.626 51.3933 117.586 51.9616 117.71 52.5056C117.833 53.0497 118.114 53.5456 118.517 53.9317C118.92 54.3179 119.427 54.5773 119.977 54.6776C120.526 54.778 121.093 54.715 121.606 54.4964C122.12 54.2778 122.558 53.9132 122.866 53.448C123.175 52.9827 123.339 52.4374 123.34 51.8795C123.322 51.1089 122.999 50.3768 122.442 49.8432C121.885 49.3097 121.139 49.0181 120.368 49.0324Z" fill="#3A3A39"/>
<path d="M119.958 54.642C121.78 54.642 123.256 53.2264 123.256 51.4802C123.256 49.734 121.78 48.3184 119.958 48.3184C118.137 48.3184 116.66 49.734 116.66 51.4802C116.66 53.2264 118.137 54.642 119.958 54.642Z" fill="#F8F4EF"/>
<path d="M119.954 54.9576C119.272 54.9294 118.613 54.7014 118.059 54.3021C117.505 53.9027 117.081 53.3496 116.84 52.7115C116.598 52.0734 116.55 51.3784 116.7 50.7129C116.851 50.0475 117.194 49.4409 117.687 48.9687C118.18 48.4964 118.801 48.1792 119.472 48.0567C120.144 47.9341 120.837 48.0114 121.466 48.2791C122.094 48.5468 122.629 48.993 123.006 49.5623C123.382 50.1316 123.583 50.7989 123.582 51.4811C123.562 52.4223 123.168 53.3168 122.488 53.9685C121.808 54.6202 120.897 54.9759 119.954 54.9576ZM119.954 48.6339C119.395 48.657 118.855 48.8437 118.402 49.1708C117.948 49.4979 117.601 49.951 117.403 50.4738C117.205 50.9965 117.165 51.5659 117.288 52.111C117.412 52.6562 117.693 53.1531 118.096 53.54C118.5 53.9269 119.009 54.1867 119.559 54.2871C120.11 54.3875 120.678 54.324 121.192 54.1046C121.707 53.8852 122.145 53.5196 122.454 53.0531C122.762 52.5867 122.926 52.04 122.926 51.4811C122.909 50.7102 122.587 49.9774 122.029 49.4437C121.472 48.9099 120.726 48.6187 119.954 48.6339Z" fill="#3A3A39"/>
<path d="M24.1677 1.31917C24.1638 1.168 24.1 1.02453 23.9905 0.920109C23.881 0.815692 23.7346 0.758779 23.5833 0.761836H1.37765C1.30289 0.760327 1.22858 0.773563 1.15893 0.800756C1.08929 0.82795 1.02569 0.868588 0.971769 0.920341C0.917847 0.972094 0.874654 1.03397 0.844668 1.1024C0.814683 1.17083 0.798477 1.24449 0.796997 1.31917V22.599C0.798477 22.6736 0.814683 22.7473 0.844668 22.8157C0.874654 22.8842 0.917847 22.946 0.971769 22.9977C1.02569 23.0495 1.08929 23.0901 1.15893 23.1173C1.22858 23.1445 1.30289 23.1578 1.37765 23.1563H4.88439C5.03575 23.1593 5.1822 23.1024 5.29171 22.998C5.40121 22.8936 5.46489 22.7501 5.46887 22.599V5.8003C5.47035 5.72512 5.48664 5.65099 5.51681 5.5821C5.54699 5.51321 5.59045 5.45089 5.64473 5.39879C5.699 5.34668 5.76303 5.3058 5.83314 5.27842C5.90325 5.25103 5.97808 5.23771 6.05334 5.23922H23.5833C23.6585 5.24073 23.7334 5.22741 23.8035 5.20002C23.8736 5.17264 23.9376 5.13171 23.9919 5.0796C24.0461 5.0275 24.0896 4.96523 24.1198 4.89634C24.15 4.82745 24.1663 4.75332 24.1677 4.67814V1.31917Z" fill="#F8F4EF"/>
<path d="M4.88068 23.471H1.39668C1.27906 23.4735 1.1621 23.4528 1.05247 23.4102C0.942836 23.3675 0.842667 23.3038 0.75773 23.2224C0.672792 23.1411 0.604736 23.0439 0.557431 22.9363C0.510127 22.8286 0.484521 22.7128 0.482056 22.5953V1.31927C0.488028 1.08229 0.5875 0.857249 0.758819 0.693213C0.930138 0.529176 1.15941 0.439416 1.39668 0.443492H23.5985C23.8358 0.439416 24.065 0.529176 24.2363 0.693213C24.4077 0.857249 24.5072 1.08229 24.5132 1.31927V4.67824C24.5107 4.79574 24.485 4.91161 24.4377 5.01922C24.3904 5.12683 24.3224 5.22408 24.2375 5.30541C24.1525 5.38673 24.0524 5.45055 23.9427 5.49321C23.8331 5.53586 23.7161 5.55649 23.5985 5.55397H6.06858C6.03568 5.55347 6.00298 5.55944 5.9724 5.57156C5.94182 5.58367 5.91392 5.60171 5.89031 5.62459C5.86669 5.64748 5.84785 5.67476 5.83481 5.70493C5.82176 5.7351 5.81478 5.76755 5.81428 5.80041V22.5801C5.81388 22.7005 5.78914 22.8196 5.74155 22.9303C5.69395 23.0409 5.62447 23.1409 5.53729 23.2241C5.45011 23.3072 5.34704 23.372 5.23421 23.4144C5.12138 23.4569 5.00114 23.4761 4.88068 23.471ZM1.37769 1.07663C1.34479 1.07562 1.31206 1.08109 1.28128 1.09274C1.2505 1.10439 1.22232 1.12199 1.19835 1.14452C1.17439 1.16706 1.15506 1.19409 1.14156 1.22408C1.12805 1.25406 1.12063 1.28641 1.11964 1.31927V22.5801C1.12013 22.6133 1.12721 22.646 1.14049 22.6764C1.15378 22.7069 1.17299 22.7344 1.19701 22.7573C1.22103 22.7802 1.24938 22.7982 1.2804 22.81C1.31142 22.8219 1.34448 22.8275 1.37769 22.8265H4.88068C4.94748 22.8275 5.01196 22.8022 5.06025 22.7561C5.10854 22.71 5.13674 22.6468 5.13873 22.5801V5.78523C5.14371 5.54858 5.24237 5.32358 5.41308 5.15944C5.5838 4.9953 5.81267 4.90543 6.04958 4.90949H23.5795C23.6124 4.90999 23.6451 4.90402 23.6757 4.89191C23.7063 4.87979 23.7342 4.86175 23.7578 4.83887C23.7814 4.81599 23.8002 4.7887 23.8133 4.75853C23.8263 4.72836 23.8333 4.69592 23.8338 4.66306V1.30409C23.8318 1.23839 23.804 1.17609 23.7564 1.13069C23.7089 1.08528 23.6453 1.06043 23.5795 1.06145L1.37769 1.07663Z" fill="#3A3A39"/>
<path d="M5.46505 22.9124C5.42269 22.9129 5.38064 22.9051 5.34131 22.8893C5.30198 22.8736 5.26613 22.8503 5.23582 22.8207C5.20551 22.7912 5.18133 22.7559 5.16466 22.717C5.14799 22.6781 5.13917 22.6363 5.13867 22.594V5.79912C5.13916 5.75697 5.14804 5.71536 5.16475 5.67666C5.18147 5.63796 5.20569 5.60296 5.23605 5.57369C5.26641 5.54442 5.30228 5.52144 5.34159 5.50612C5.3809 5.49081 5.42287 5.48346 5.46505 5.48447C5.50742 5.48346 5.54959 5.49081 5.58912 5.50608C5.62864 5.52135 5.66478 5.54424 5.69544 5.57346C5.7261 5.60268 5.75068 5.63766 5.7678 5.67638C5.78493 5.71511 5.79425 5.75679 5.79523 5.79912V22.5788C5.79625 22.6226 5.78844 22.6661 5.77225 22.7068C5.75607 22.7475 5.73186 22.7845 5.70105 22.8156C5.67023 22.8467 5.63346 22.8714 5.59292 22.888C5.55237 22.9046 5.50888 22.9129 5.46505 22.9124Z" fill="#3A3A39"/>
<path d="M23.701 0.875653C23.6995 0.800471 23.6832 0.726338 23.653 0.657448C23.6228 0.588558 23.5794 0.526243 23.5251 0.474138C23.4708 0.422033 23.4068 0.38115 23.3367 0.353766C23.2666 0.326383 23.1917 0.31306 23.1165 0.314568H0.910866C0.835605 0.31306 0.7608 0.326383 0.690692 0.353766C0.620585 0.38115 0.556552 0.422033 0.502277 0.474138C0.448002 0.526243 0.404541 0.588558 0.374365 0.657448C0.34419 0.726338 0.327896 0.800471 0.326416 0.875653V22.1516C0.327896 22.2268 0.34419 22.301 0.374365 22.3699C0.404541 22.4387 0.448002 22.5011 0.502277 22.5532C0.556552 22.6053 0.620585 22.6462 0.690692 22.6735C0.7608 22.7009 0.835605 22.7142 0.910866 22.7127H4.43281C4.50807 22.7142 4.5829 22.7009 4.653 22.6735C4.72311 22.6462 4.78714 22.6053 4.84142 22.5532C4.89569 22.5011 4.93915 22.4387 4.96933 22.3699C4.99951 22.301 5.0158 22.2268 5.01728 22.1516V5.35679C5.01876 5.2816 5.03505 5.20747 5.06523 5.13858C5.0954 5.06969 5.13887 5.00742 5.19314 4.95532C5.24742 4.90321 5.31145 4.86228 5.38156 4.8349C5.45166 4.80752 5.52645 4.79419 5.60171 4.7957H23.1317C23.2069 4.79721 23.2818 4.78389 23.3519 4.7565C23.422 4.72912 23.486 4.68824 23.5402 4.63613C23.5945 4.58403 23.638 4.52176 23.6682 4.45287C23.6984 4.38398 23.7147 4.3098 23.7162 4.23462L23.701 0.875653Z" fill="#F8F4EF"/>
<path d="M4.43273 23.0277H0.92599C0.68908 23.0318 0.460206 22.9419 0.289491 22.7777C0.118775 22.6136 0.0201218 22.3885 0.0151367 22.1519V0.875912C0.0201218 0.639272 0.118775 0.414223 0.289491 0.250084C0.460206 0.0859447 0.68908 -0.00393207 0.92599 0.000132069H23.1316C23.3685 -0.00393207 23.5974 0.0859447 23.7681 0.250084C23.9388 0.414223 24.0375 0.639272 24.0425 0.875912V4.23488C24.0375 4.47152 23.9388 4.69656 23.7681 4.8607C23.5974 5.02484 23.3685 5.11472 23.1316 5.11066H5.57129C5.53839 5.11015 5.50574 5.11613 5.47516 5.12824C5.44458 5.14036 5.41668 5.15835 5.39307 5.18123C5.36945 5.20411 5.35057 5.23145 5.33752 5.26162C5.32447 5.29179 5.31749 5.32418 5.317 5.35704V22.1519C5.31115 22.3836 5.21591 22.6042 5.05112 22.7674C4.88633 22.9306 4.66476 23.0238 4.43273 23.0277ZM0.92599 0.629478C0.893095 0.628976 0.860418 0.63495 0.829836 0.647064C0.799254 0.659177 0.771356 0.677216 0.747743 0.700099C0.724131 0.722983 0.705266 0.75027 0.692219 0.780439C0.679172 0.810608 0.672214 0.843052 0.671719 0.875912V22.1519C0.672214 22.1848 0.679172 22.2172 0.692219 22.2474C0.705266 22.2775 0.724131 22.3048 0.747743 22.3277C0.771356 22.3506 0.799254 22.3686 0.829836 22.3808C0.860418 22.3929 0.893095 22.3988 0.92599 22.3983H4.43273C4.46563 22.3988 4.49828 22.3929 4.52886 22.3808C4.55945 22.3686 4.58735 22.3506 4.61096 22.3277C4.63457 22.3048 4.65346 22.2775 4.66651 22.2474C4.67955 22.2172 4.68653 22.1848 4.68703 22.1519V5.35704C4.68949 5.23954 4.7151 5.12367 4.7624 5.01606C4.80971 4.90845 4.87779 4.81125 4.96273 4.72992C5.04766 4.64859 5.14779 4.58477 5.25742 4.54212C5.36705 4.49947 5.48401 4.47879 5.60163 4.48131H23.1316C23.1645 4.48181 23.1972 4.47584 23.2277 4.46372C23.2583 4.45161 23.2862 4.43357 23.3098 4.41069C23.3334 4.38781 23.3523 4.36052 23.3654 4.33035C23.3784 4.30018 23.3854 4.26774 23.3859 4.23488V0.875912C23.3854 0.843052 23.3784 0.810608 23.3654 0.780439C23.3523 0.75027 23.3334 0.722983 23.3098 0.700099C23.2862 0.677216 23.2583 0.659177 23.2277 0.647064C23.1972 0.63495 23.1645 0.628976 23.1316 0.629478H0.92599Z" fill="#3A3A39"/>
<path d="M5.00205 22.4667C4.95969 22.4677 4.91756 22.4604 4.87803 22.4451C4.83851 22.4298 4.80237 22.4069 4.77171 22.3777C4.74105 22.3485 4.71643 22.3135 4.6993 22.2748C4.68217 22.2361 4.67286 22.1944 4.67188 22.152V5.35717C4.67188 5.2697 4.70664 5.18583 4.76856 5.12397C4.83048 5.06212 4.91448 5.02734 5.00205 5.02734C5.08962 5.02734 5.17363 5.06212 5.23555 5.12397C5.29747 5.18583 5.33223 5.2697 5.33223 5.35717V22.152C5.33125 22.1944 5.32194 22.2361 5.30481 22.2748C5.28768 22.3135 5.26306 22.3485 5.2324 22.3777C5.20173 22.4069 5.1656 22.4298 5.12607 22.4451C5.08655 22.4604 5.04442 22.4677 5.00205 22.4667Z" fill="#3A3A39"/>
<path d="M76.7121 69.6853H47.2842C47.2072 69.6873 47.1305 69.6741 47.0585 69.6463C46.9866 69.6186 46.9208 69.5769 46.8651 69.5237C46.8094 69.4705 46.7648 69.4068 46.7338 69.3363C46.7028 69.2658 46.686 69.1898 46.6846 69.1128V65.4202C46.6886 65.265 46.7539 65.1177 46.8662 65.0105C46.9786 64.9032 47.1289 64.8447 47.2842 64.8478H76.7121C76.8655 64.8477 77.0129 64.9076 77.1228 65.0145C77.2326 65.1215 77.2964 65.267 77.3003 65.4202V69.1166C77.2964 69.2695 77.2325 69.4147 77.1225 69.521C77.0125 69.6273 76.8651 69.6863 76.7121 69.6853Z" fill="#F8F4EF"/>
<path d="M76.712 70.0039H47.2842C47.0433 70.008 46.8105 69.9165 46.637 69.7495C46.4634 69.5825 46.3631 69.3537 46.3582 69.113V65.4204C46.3601 65.3011 46.3857 65.1834 46.4333 65.0739C46.481 64.9645 46.5498 64.8655 46.6359 64.7827C46.7219 64.7 46.8235 64.635 46.9348 64.5915C47.046 64.548 47.1648 64.527 47.2842 64.5295H76.712C76.8315 64.527 76.9502 64.548 77.0615 64.5915C77.1727 64.635 77.2743 64.7 77.3604 64.7827C77.4464 64.8655 77.5152 64.9645 77.5629 65.0739C77.6105 65.1834 77.6361 65.3011 77.6381 65.4204V69.113C77.6331 69.3537 77.5328 69.5825 77.3593 69.7495C77.1857 69.9165 76.953 70.008 76.712 70.0039ZM47.2842 65.1588C47.2493 65.1583 47.2147 65.1647 47.1822 65.1776C47.1498 65.1905 47.1203 65.2096 47.0952 65.2339C47.0702 65.2582 47.0502 65.2871 47.0364 65.3192C47.0226 65.3512 47.0152 65.3856 47.0147 65.4204V69.113C47.0152 69.1477 47.0226 69.1819 47.0364 69.2137C47.0503 69.2455 47.0704 69.2743 47.0955 69.2983C47.1205 69.3222 47.1501 69.341 47.1825 69.3535C47.2149 69.3659 47.2495 69.3718 47.2842 69.3708H76.712C76.7467 69.3718 76.7813 69.3659 76.8137 69.3535C76.8461 69.341 76.8757 69.3222 76.9008 69.2983C76.9259 69.2743 76.9459 69.2455 76.9598 69.2137C76.9736 69.1819 76.981 69.1477 76.9815 69.113V65.4204C76.981 65.3856 76.9736 65.3512 76.9598 65.3192C76.946 65.2871 76.926 65.2582 76.901 65.2339C76.876 65.2096 76.8464 65.1905 76.814 65.1776C76.7816 65.1647 76.7469 65.1583 76.712 65.1588H47.2842Z" fill="#3A3A39"/>
<path d="M76.7121 69.2418H47.2842C47.2072 69.2438 47.1305 69.2306 47.0585 69.2029C46.9866 69.1751 46.9208 69.1334 46.8651 69.0802C46.8094 69.027 46.7648 68.9633 46.7338 68.8928C46.7028 68.8223 46.686 68.7463 46.6846 68.6693V64.9729C46.6886 64.8177 46.7539 64.6704 46.8662 64.5632C46.9786 64.4559 47.1289 64.3974 47.2842 64.4005H76.7121C76.8674 64.3974 77.0177 64.4559 77.1301 64.5632C77.2424 64.6704 77.3077 64.8177 77.3117 64.9729V68.6693C77.3102 68.7463 77.2935 68.8223 77.2625 68.8928C77.2315 68.9633 77.1869 69.027 77.1312 69.0802C77.0754 69.1334 77.0097 69.1751 76.9378 69.2029C76.8658 69.2306 76.7891 69.2438 76.7121 69.2418Z" fill="#F8F4EF"/>
<path d="M76.712 69.5568H47.2842C47.1651 69.5593 47.0466 69.5383 46.9356 69.4951C46.8246 69.4519 46.7232 69.3872 46.6372 69.3049C46.5512 69.2225 46.4823 69.124 46.4344 69.015C46.3865 68.906 46.3606 68.7886 46.3582 68.6696V64.9733C46.3606 64.8543 46.3865 64.7369 46.4344 64.6279C46.4823 64.5189 46.5512 64.4205 46.6372 64.3381C46.7232 64.2557 46.8246 64.1911 46.9356 64.1478C47.0466 64.1046 47.1651 64.0836 47.2842 64.0861H76.712C76.8311 64.0836 76.9496 64.1046 77.0606 64.1478C77.1716 64.1911 77.273 64.2557 77.359 64.3381C77.445 64.4205 77.5139 64.5189 77.5618 64.6279C77.6097 64.7369 77.6356 64.8543 77.6381 64.9733V68.6696C77.6356 68.7886 77.6097 68.906 77.5618 69.015C77.5139 69.124 77.445 69.2225 77.359 69.3049C77.273 69.3872 77.1716 69.4519 77.0606 69.4951C76.9496 69.5383 76.8311 69.5593 76.712 69.5568ZM47.2842 64.7155C47.2144 64.7145 47.147 64.7409 47.0965 64.7892C47.0461 64.8374 47.0167 64.9035 47.0147 64.9733V68.6696C47.0152 68.7043 47.0226 68.7386 47.0364 68.7704C47.0503 68.8022 47.0704 68.8309 47.0955 68.8549C47.1205 68.8789 47.1501 68.8976 47.1825 68.9101C47.2149 68.9226 47.2495 68.9285 47.2842 68.9275H76.712C76.7467 68.9285 76.7813 68.9226 76.8137 68.9101C76.8461 68.8976 76.8757 68.8789 76.9008 68.8549C76.9259 68.8309 76.9459 68.8022 76.9598 68.7704C76.9736 68.7386 76.981 68.7043 76.9815 68.6696V64.9733C76.9795 64.9035 76.9501 64.8374 76.8997 64.7892C76.8493 64.7409 76.7818 64.7145 76.712 64.7155H47.2842Z" fill="#3A3A39"/>
</g>
<defs>
<clipPath id="clip0_271_3652">
<rect width="124" height="70" fill="white"/>
</clipPath>
</defs>
</svg>
