<svg width="95" height="128" viewBox="0 0 95 128" fill="none" xmlns="http://www.w3.org/2000/svg">
<path d="M52.098 80.9237C50.6588 80.9446 49.2346 80.6279 47.9392 79.9989C46.7858 79.4422 45.6969 78.7599 44.6923 77.9643C43.6163 77.0713 42.6247 76.0806 41.7301 75.0049L26.2284 54.5375L23.1661 57.127L21.706 73.1553C21.6576 73.8154 21.6877 74.4788 21.7957 75.1318C21.9095 75.8815 22.1388 76.6089 22.4756 77.2879C22.7822 77.9375 23.2077 78.5237 23.73 79.016C24.2297 79.4663 24.8821 79.7083 25.5538 79.6924L25.4431 80.9237H0.390625L0.501293 79.6924C1.12853 79.6924 8.63427 79.6924 9.86766 79.016C10.4964 78.5939 11.0107 78.0219 11.3646 77.3513C11.7802 76.6887 12.1164 75.9792 12.3661 75.2375C12.5969 74.5522 12.7507 73.8431 12.8246 73.1236L18.533 10.3579C18.6384 9.21113 18.6437 7.82655 17.6369 6.90702C16.6302 5.9875 5.2082 9.60219 3.86939 9.51764L3.98534 8.28632L28.3579 0L23.6826 51.4196L47.196 32.6802C47.4229 32.5008 47.6113 32.2772 47.7499 32.0229C47.8885 31.7687 47.9744 31.4889 48.0025 31.2005C48.0552 30.6245 47.7653 30.3338 47.138 30.3338L47.2487 29.1025H65.0538L64.9378 30.3338C64.4107 30.3338 58.1647 30.5294 57.5586 30.7038C56.9324 30.9043 56.3392 31.1963 55.7981 31.5705C55.0984 31.9229 54.43 32.3349 53.8004 32.8018L33.2019 49.0785L51.0068 72.1829C51.9467 73.5475 53.005 74.8261 54.1694 76.0037C55.0841 76.9177 56.0655 77.762 57.1053 78.5298C57.888 79.206 58.8639 79.6167 59.8935 79.703L59.7776 80.9343L52.098 80.9237Z" fill="#3A3A39"/>
<path d="M30.8828 126.365L31.0726 124.251H31.4942C32.0593 124.232 32.5983 124.009 33.0122 123.622C33.5757 123.139 34.0768 122.587 34.5039 121.979C34.9417 121.352 35.2828 120.662 35.5159 119.934C35.7405 119.264 35.8908 118.571 35.9639 117.867L41.6406 55.4717C41.7039 54.7477 41.7461 54.029 41.7672 53.3578C41.7951 52.7862 41.7017 52.2152 41.4931 51.6826C41.2865 51.2056 40.9411 50.8023 40.5022 50.5252C39.8287 50.1449 39.0717 49.9379 38.2989 49.9228L37.8403 49.8858L38.0301 47.8142H52.1403L51.7081 52.5334C53.5462 50.9018 55.6429 49.589 57.9119 48.6492C60.8222 47.4829 63.9336 46.9046 67.0674 46.9475C71.9535 46.9475 76.1808 47.7297 79.6332 49.2728C82.8757 50.6616 85.7771 52.7428 88.1351 55.3713C90.3189 57.8719 91.9036 60.8399 92.7682 64.0486C93.658 67.3159 93.9508 70.7176 93.6326 74.0894C93.3075 77.5004 92.428 80.835 91.0288 83.9612C89.5844 87.2261 87.5549 90.1976 85.0411 92.7284C82.3803 95.3835 79.2413 97.5085 75.7907 98.9907C71.8267 100.643 67.5645 101.454 63.2723 101.374C60.2967 101.341 57.3676 100.629 54.7072 99.2919C52.2235 98.0994 49.9173 96.5663 47.855 94.7366L45.7467 117.989C45.6922 118.676 45.7152 119.368 45.8152 120.05C45.912 120.754 46.1277 121.437 46.4529 122.069C46.7571 122.658 47.1343 123.207 47.5756 123.702C47.7528 123.898 47.9706 124.052 48.2138 124.154C48.457 124.257 48.7195 124.304 48.983 124.294H49.4837L49.2887 126.407L30.8828 126.365ZM66.4138 52.0102C64.5319 52.0196 62.6648 52.3447 60.8899 52.972C57.2725 54.205 54.214 56.6942 52.2667 59.99C51.2856 61.6454 50.6943 63.5035 50.5379 65.4226L49.0515 81.5725C48.8367 83.5808 49.1435 85.6107 49.9423 87.4649C50.7145 89.2291 51.8352 90.8183 53.2366 92.1365C54.6552 93.4576 56.3141 94.4928 58.1227 95.1857C59.9247 95.8854 61.8407 96.2438 63.7731 96.2427C66.6082 96.2157 69.402 95.5587 71.9535 94.3191C74.269 93.1662 76.3371 91.5702 78.0414 89.621C79.6984 87.7035 81.0126 85.5134 81.926 83.1473C82.8531 80.7526 83.4387 78.2388 83.6654 75.6801C83.9339 72.7952 83.7561 69.8861 83.1383 67.0556C82.5565 64.3614 81.4844 61.7978 79.9758 59.4933C78.5176 57.2999 76.6002 55.4514 74.357 54.0765C71.9522 52.6612 69.2016 51.9456 66.4138 52.0102Z" fill="#3A3A39"/>
<path d="M67.0619 47.3809C71.9111 47.3809 76.0382 48.1401 79.4432 49.6586C82.6254 51.0176 85.4717 53.0596 87.7817 55.6408C89.9273 58.0897 91.482 61.001 92.3252 64.149C93.2005 67.3594 93.4897 70.7019 93.1791 74.0155C92.8588 77.3806 91.9917 80.6706 90.6122 83.7551C89.1881 86.9714 87.1872 89.8983 84.7088 92.3902C82.0906 95.0054 78.9995 97.0966 75.6007 98.5521C71.6978 100.182 67.4994 100.981 63.2721 100.898C60.3674 100.868 57.508 100.172 54.9125 98.8638C52.1904 97.5558 49.6898 95.8279 47.5017 93.743L45.3037 117.915C45.2434 118.634 45.2681 119.358 45.3775 120.071C45.4746 120.824 45.703 121.554 46.0522 122.227C46.3743 122.852 46.7745 123.433 47.2434 123.955C47.4639 124.199 47.7347 124.391 48.0369 124.519C48.3391 124.647 48.6655 124.707 48.9933 124.695L48.8827 125.927H31.3833L31.494 124.695C32.1691 124.676 32.8147 124.413 33.3125 123.955C33.9113 123.45 34.4427 122.869 34.8937 122.227C35.3523 121.566 35.7078 120.839 35.9479 120.071C36.1799 119.371 36.3354 118.648 36.4117 117.915L42.0885 55.5192C42.157 54.7794 42.1992 54.0607 42.2203 53.3578C42.248 52.7266 42.1438 52.0966 41.9145 51.5082C41.6734 50.9516 41.2713 50.4804 40.7602 50.1553C40.0194 49.7289 39.1843 49.4946 38.3304 49.4736L38.441 48.2423H51.6182L51.1597 53.6854C53.1515 51.7011 55.514 50.1298 58.1119 49.0614C60.959 47.9158 64.005 47.3499 67.0724 47.3967M63.8098 96.7024C66.7182 96.6785 69.5847 96.0052 72.201 94.7313C74.5705 93.5532 76.6856 91.9191 78.4259 89.9222C80.1197 87.9697 81.461 85.7361 82.3896 83.3217C83.3303 80.8892 83.9264 78.3366 84.1606 75.7383C84.44 72.8114 84.2622 69.8588 83.6335 66.9869C83.0543 64.2398 81.9693 61.625 80.4341 59.2766C78.9413 57.029 76.9769 55.1352 74.6783 53.7277C72.1948 52.2512 69.3475 51.5041 66.461 51.5716C64.5268 51.5788 62.6077 51.9129 60.7843 52.5598C57.0656 53.8272 53.9212 56.3857 51.9186 59.7733C50.9057 61.4823 50.293 63.3995 50.1266 65.3804L48.656 81.5355C48.4324 83.6163 48.7521 85.7197 49.5837 87.6393C50.3776 89.4581 51.5346 91.0948 52.9834 92.4483C54.4422 93.8136 56.1518 94.8815 58.0171 95.5927C59.8642 96.3206 61.8304 96.6969 63.815 96.7024M67.0882 46.4983C63.8944 46.4549 60.7237 47.0458 57.7588 48.237C55.7935 49.0517 53.9519 50.1385 52.2876 51.4659L52.5775 48.2951L52.6618 47.3439H37.6398L37.566 48.1419L37.4501 49.3785L37.371 50.2557L38.2881 50.3297C38.9821 50.3396 39.6628 50.5212 40.27 50.8582C40.6353 51.0865 40.9237 51.4198 41.0976 51.8147C41.2801 52.2948 41.3608 52.8077 41.3347 53.3208C41.3347 54.0025 41.2768 54.7107 41.2082 55.4347L35.5368 117.83C35.4632 118.503 35.3183 119.165 35.1046 119.807C34.8877 120.494 34.5658 121.143 34.1505 121.731C33.75 122.32 33.2732 122.853 32.7327 123.316C32.4054 123.633 31.9748 123.821 31.5204 123.844H30.6823L30.6085 124.642L30.4978 125.879L30.4082 126.835H49.747L49.8156 126.032L49.9316 124.796L50.0159 123.844H49.0196C48.8224 123.855 48.6254 123.821 48.443 123.745C48.2606 123.669 48.0974 123.553 47.9655 123.406C47.5489 122.937 47.1946 122.417 46.9113 121.857C46.609 121.27 46.4093 120.636 46.321 119.981C46.2238 119.331 46.2008 118.671 46.2524 118.015L48.2871 95.6402C50.2003 97.2357 52.3015 98.5899 54.5436 99.6724C57.2688 101.037 60.2685 101.759 63.3143 101.786C67.6722 101.868 71.9995 101.042 76.0224 99.3606C79.5253 97.8615 82.7125 95.7096 85.4151 93.019C87.9656 90.4514 90.0254 87.4369 91.4924 84.125C92.9076 80.9544 93.7977 77.5737 94.1279 74.1159C94.4426 70.7029 94.1445 67.261 93.2476 63.9535C92.3595 60.6792 90.7369 57.6515 88.5038 55.1017C86.1022 52.4258 83.1491 50.3053 79.8491 48.887C76.3334 47.3016 72.0376 46.5248 67.083 46.5248L67.0882 46.4983ZM63.8045 95.8252C61.9312 95.8154 60.0761 95.457 58.3333 94.7682C56.5763 94.0981 54.9654 93.0932 53.5895 91.8089C52.2294 90.5342 51.1426 88.995 50.3954 87.2852C49.6257 85.4973 49.3298 83.5405 49.5362 81.6042L51.0068 65.4491C51.1593 63.5954 51.7307 61.8008 52.6777 60.2014C54.5718 56.9959 57.5459 54.5745 61.0637 53.3737C62.7881 52.7656 64.6014 52.4495 66.4294 52.4383C69.1422 52.3777 71.8182 53.0767 74.1565 54.457C76.3439 55.7978 78.2129 57.6014 79.633 59.7416C81.1038 61.9972 82.1473 64.5053 82.7111 67.1401C83.321 69.9288 83.4988 72.795 83.2382 75.6379C83.0115 78.1562 82.4349 80.6304 81.5252 82.9888C80.6272 85.3062 79.3381 87.4514 77.7144 89.3304C76.0503 91.2353 74.0304 92.7954 71.7688 93.9227C69.2785 95.1275 66.5536 95.7663 63.7887 95.7935L63.8045 95.8252Z" fill="#F6F1EA"/>
<path d="M74.568 121.43C74.6491 120.516 74.9102 119.628 75.3364 118.816C75.7625 118.004 76.3452 117.285 77.0505 116.7C78.5025 115.412 80.3831 114.717 82.3214 114.75C83.2419 114.718 84.1593 114.875 85.0175 115.21C85.8757 115.545 86.6567 116.052 87.3129 116.7C87.9401 117.304 88.4196 118.045 88.714 118.866C89.0084 119.686 89.1098 120.564 89.0102 121.43C88.9305 122.339 88.6641 123.222 88.2278 124.024C87.7915 124.825 87.1947 125.527 86.4749 126.086C84.9731 127.326 83.0808 127.991 81.1355 127.962C80.2309 128 79.328 127.853 78.4817 127.531C77.6354 127.208 76.8634 126.717 76.2125 126.086C75.5994 125.489 75.132 124.758 74.8468 123.951C74.5615 123.143 74.4661 122.281 74.568 121.43Z" fill="#3A3A39"/>
</svg>
