<svg width="116" height="107" viewBox="0 0 116 107" fill="none" xmlns="http://www.w3.org/2000/svg">
<g clip-path="url(#clip0_271_3473)">
<path d="M19.0797 19.0774C19.5 19.0983 19.5593 19.1673 19.5356 19.5897L18.4285 40.7039C18.395 40.9987 18.4237 41.2974 18.5127 41.5801C18.6017 41.8629 18.749 42.1233 18.9449 42.3442C19.1407 42.5651 19.3807 42.7413 19.6488 42.8614C19.917 42.9814 20.2073 43.0425 20.5005 43.0405L25.491 43.3102C26.8229 43.3821 27.7316 42.5552 27.7997 41.2131L28.9097 20.0989C28.9304 19.6975 29.0222 19.6166 29.4188 19.6376L35.6584 19.9731C36.9903 20.045 37.8961 19.2182 37.9671 17.8761L38.2335 12.8252C38.3045 11.4352 37.529 10.5634 36.1615 10.4885L13.3404 9.26021C12.0084 9.18831 11.1027 10.0122 11.0317 11.3573L10.7682 16.4112C10.7347 16.706 10.7634 17.0046 10.8524 17.2874C10.9414 17.5702 11.0887 17.8306 11.2846 18.0515C11.4804 18.2724 11.7203 18.4486 11.9885 18.5687C12.2567 18.6887 12.547 18.7498 12.8402 18.7478L19.0797 19.0774Z" fill="#3A3A39"/>
<path d="M46.6956 13.8006L41.7952 14.0692C40.5841 14.1356 39.6553 15.1832 39.7209 16.4091L41.2658 45.279C41.3314 46.5048 42.3664 47.4447 43.5776 47.3783L48.478 47.1097C49.6892 47.0433 50.6179 45.9958 50.5523 44.7699L49.0075 15.9C48.9419 14.6742 47.9068 13.7342 46.6956 13.8006Z" fill="#3A3A39"/>
<path d="M72.6458 43.9421C74.0163 44.0589 74.9043 43.304 75.0138 41.917L75.437 36.8751C75.5525 35.4881 74.8066 34.5893 73.4361 34.4785L62.6738 33.5528C62.2979 33.5198 62.2002 33.403 62.2327 33.0255L62.3541 31.5846C62.3867 31.1831 62.4784 31.1052 62.8751 31.1382L69.7688 31.7373C71.0978 31.8512 72.0302 31.0573 72.1367 29.7122L72.56 24.6703C72.6754 23.2833 71.9295 22.3846 70.5591 22.2737L63.6654 21.6746C63.2924 21.6416 63.1918 21.5248 63.2243 21.1473L63.3457 19.7063C63.3782 19.3049 63.473 19.227 63.8666 19.2599L74.6319 20.1857C75.9609 20.3025 76.8904 19.5056 76.9999 18.1605L77.4232 13.1186C77.5386 11.7316 76.7897 10.8358 75.4193 10.722L56.7391 9.11627C55.4101 9.00243 54.4807 9.79631 54.3712 11.1414L51.9499 39.9518C51.908 40.2452 51.928 40.5443 52.0087 40.8294C52.0894 41.1144 52.2288 41.3789 52.4179 41.6054C52.607 41.8319 52.8414 42.0152 53.1057 42.1433C53.3699 42.2714 53.658 42.3413 53.9508 42.3484L72.6458 43.9421Z" fill="#3A3A39"/>
<path d="M88.8929 47.174L88.5969 40.041C88.5877 39.9696 88.5941 39.8971 88.6157 39.8285C88.6373 39.7598 88.6735 39.6969 88.7218 39.644C88.7701 39.5911 88.8293 39.5496 88.8951 39.5225C88.961 39.4953 89.032 39.4831 89.1031 39.4868L90.6067 39.4209L95.4847 48.0368C95.6592 48.3718 95.9261 48.6484 96.2529 48.833C96.5797 49.0175 96.9524 49.102 97.3258 49.0763L102.411 48.8576C102.853 48.8514 103.286 48.7284 103.667 48.5009C104.048 48.2734 104.364 47.9493 104.584 47.5604C104.784 47.1685 104.88 46.7303 104.861 46.2893C104.842 45.8484 104.71 45.4201 104.477 45.047L99.5517 36.6588C101.801 34.7026 102.808 31.593 102.618 27.1742C102.449 23.1539 101.393 20.3109 99.3918 18.4865C97.3909 16.662 94.3185 15.8143 90.1183 15.997L80.3505 16.4194C80.0544 16.4248 79.7624 16.4911 79.4924 16.6141C79.2223 16.7371 78.9797 16.9143 78.7793 17.135C78.5789 17.3558 78.425 17.6154 78.3267 17.8982C78.2284 18.1809 78.1878 18.481 78.2075 18.78L79.427 47.5784C79.4328 47.878 79.4985 48.1733 79.6202 48.4464C79.7419 48.7196 79.917 48.9649 80.135 49.1676C80.353 49.3704 80.6094 49.5263 80.8886 49.6259C81.1678 49.7255 81.464 49.7668 81.7595 49.7473L86.7529 49.5287C87.0482 49.5228 87.3393 49.4565 87.6086 49.3336C87.8779 49.2108 88.1199 49.034 88.3199 48.814C88.5198 48.5939 88.6737 48.3352 88.7722 48.0533C88.8707 47.7715 88.9118 47.4723 88.8929 47.174ZM88.144 29.4809L88.0049 26.1407C87.9948 26.0692 88.0004 25.9964 88.0214 25.9274C88.0424 25.8584 88.0782 25.7949 88.1263 25.7416C88.1745 25.6883 88.2336 25.6465 88.2997 25.6192C88.3657 25.5918 88.4369 25.5796 88.5081 25.5835L90.7814 25.4846C92.6876 25.4037 93.1493 25.4636 93.2322 27.5816C93.315 29.6996 92.874 29.8045 90.9678 29.8854L88.6946 29.9842C88.6246 29.9939 88.5533 29.9879 88.4858 29.9668C88.4184 29.9457 88.3562 29.9099 88.3038 29.862C88.2514 29.8141 88.2099 29.7552 88.1823 29.6893C88.1547 29.6235 88.1417 29.5524 88.144 29.4809Z" fill="#3A3A39"/>
<path d="M33.8202 51.6686L11.0287 53.3073C9.69673 53.4032 8.89754 54.3349 8.99226 55.68L9.34746 60.7279C9.34994 61.025 9.41481 61.3182 9.53775 61.5881C9.66069 61.858 9.8389 62.0984 10.0606 62.2932C10.2822 62.4881 10.5423 62.6331 10.8235 62.7185C11.1047 62.804 11.4007 62.828 11.6917 62.7889L17.9254 62.3396C18.3457 62.3096 18.4108 62.3695 18.4404 62.7919L19.9204 83.8822C19.9232 84.1794 19.9884 84.4726 20.1117 84.7423C20.235 85.012 20.4136 85.2522 20.6355 85.4468C20.8575 85.6414 21.1178 85.7861 21.3991 85.8711C21.6805 85.9562 21.9765 85.9798 22.2676 85.9403L27.2551 85.5838C28.5841 85.4879 29.3833 84.5562 29.2886 83.2081L27.8086 62.1179C27.779 61.7195 27.8589 61.6266 28.2556 61.5966L34.4892 61.1503C35.8182 61.0544 36.6174 60.1227 36.5227 58.7746L36.1704 53.7267C36.0846 52.3397 35.1966 51.5698 33.8202 51.6686Z" fill="#3A3A39"/>
<path d="M38.8738 58.5204L37.1349 87.3789C37.061 88.6043 37.9826 89.6582 39.1933 89.733L44.0918 90.0353C45.3026 90.1101 46.3439 89.1773 46.4177 87.9519L48.1567 59.0933C48.2305 57.868 47.3089 56.814 46.0982 56.7393L41.1997 56.4369C39.989 56.3622 38.9477 57.295 38.8738 58.5204Z" fill="#3A3A39"/>
<path d="M71.3937 72.3063C73.6344 70.341 74.626 67.2314 74.4247 62.8126C74.2382 58.7923 73.1726 55.9553 71.1688 54.1249C69.1649 52.2945 66.0866 51.4737 61.8894 51.6714L52.1216 52.1327C51.8255 52.1397 51.5339 52.2074 51.2645 52.3316C50.995 52.4558 50.7532 52.6341 50.5538 52.8556C50.3543 53.0771 50.2013 53.3372 50.1039 53.6203C50.0066 53.9033 49.9669 54.2034 49.9874 54.5024L51.3135 83.2947C51.3203 83.5942 51.3872 83.8892 51.51 84.1618C51.6328 84.4344 51.809 84.6789 52.0279 84.8806C52.2468 85.0822 52.5038 85.2368 52.7835 85.335C53.0631 85.4331 53.3595 85.4729 53.6548 85.4517L58.6512 85.218C58.9472 85.2107 59.2387 85.1426 59.508 85.018C59.7774 84.8934 60.019 84.7148 60.2182 84.493C60.4174 84.2713 60.5701 84.0109 60.6671 83.7277C60.764 83.4445 60.8032 83.1443 60.7823 82.8454L60.4538 75.7154C60.4441 75.6441 60.4502 75.5714 60.4714 75.5027C60.4926 75.4339 60.5284 75.3707 60.5764 75.3176C60.6244 75.2644 60.6834 75.2226 60.7492 75.195C60.8149 75.1675 60.8859 75.1549 60.957 75.1582L62.4606 75.0863L67.3711 83.6842C67.5469 84.0191 67.815 84.2951 68.143 84.4786C68.4709 84.6621 68.8444 84.7452 69.2181 84.7177L74.3004 84.4781C74.7426 84.4702 75.1752 84.3455 75.5552 84.1164C75.9353 83.8873 76.2496 83.5618 76.4671 83.1719C76.6667 82.78 76.7614 82.342 76.7417 81.9015C76.722 81.461 76.5885 81.0335 76.3546 80.6615L71.3937 72.3063ZM65.0446 63.256C65.1423 65.377 64.6954 65.4789 62.7892 65.5688L60.5159 65.6766C60.4454 65.6863 60.3737 65.6803 60.3057 65.6588C60.2378 65.6373 60.1754 65.601 60.1228 65.5525C60.0703 65.5039 60.029 65.4442 60.0018 65.3776C59.9745 65.3111 59.9621 65.2393 59.9654 65.1673L59.8115 61.83C59.8014 61.7587 59.807 61.686 59.8278 61.6171C59.8486 61.5482 59.8842 61.4847 59.9319 61.4313C59.9796 61.3778 60.0384 61.3357 60.104 61.3078C60.1697 61.2799 60.2406 61.2669 60.3117 61.2698L62.5879 61.165C64.5 61.0721 64.947 61.132 65.0446 63.256Z" fill="#3A3A39"/>
<path d="M89.4582 65.9309L100.224 66.8536C101.553 66.9674 102.482 66.1706 102.591 64.8255L103.015 59.7836C103.13 58.3995 102.381 57.5008 101.014 57.387L82.3307 55.7842C81.0017 55.6704 80.0723 56.4643 79.9627 57.8094L77.5504 86.6197C77.5084 86.9132 77.5285 87.2123 77.6092 87.4974C77.6898 87.7824 77.8293 88.0469 78.0184 88.2734C78.2075 88.4999 78.4419 88.6832 78.7061 88.8113C78.9704 88.9393 79.2584 89.0092 79.5513 89.0163L98.2433 90.6131C99.6108 90.7299 100.499 89.972 100.611 88.5849L101.035 83.5431C101.15 82.156 100.401 81.2603 99.0307 81.1465L88.2683 80.2237C87.8954 80.1908 87.7977 80.071 87.8273 79.6935L87.9487 78.2525C87.9812 77.8541 88.0759 77.7732 88.4696 77.8092L95.3633 78.4083C96.6923 78.5222 97.6247 77.7253 97.7313 76.3832L98.1545 71.3413C98.27 69.9543 97.5211 69.0555 96.1507 68.9447L89.257 68.3455C88.884 68.3126 88.7863 68.1927 88.8159 67.8153L88.9373 66.3743C88.9699 65.9758 89.0675 65.895 89.4582 65.9309Z" fill="#3A3A39"/>
<path d="M98.5008 99.7195C98.1604 99.7195 97.8141 99.7045 97.4707 99.6745L78.7906 98.0718C77.3234 97.9591 75.893 97.5529 74.5821 96.8766C73.2713 96.2004 72.106 95.2676 71.1539 94.1323C71.0576 94.0143 70.9356 93.9203 70.7975 93.858C70.6593 93.7956 70.5088 93.7665 70.3577 93.7729L69.6325 93.8088C67.9592 93.888 66.2901 93.5806 64.7515 92.9101C64.621 92.8534 64.4795 92.8273 64.3375 92.8335C64.1956 92.8397 64.0569 92.8782 63.9316 92.946C62.4317 93.7682 60.7667 94.2343 59.0625 94.3091L54.0691 94.5457C53.933 94.5457 53.7998 94.5457 53.6636 94.5457C53.5237 94.5497 53.3864 94.5854 53.2619 94.6502C53.1374 94.715 53.0289 94.8073 52.9443 94.9202C52.5546 95.4139 52.1239 95.873 51.6568 96.2923C50.5483 97.272 49.2599 98.0209 47.8652 98.4964C46.4706 98.9719 44.997 99.1646 43.5288 99.0634L38.6271 98.7638C37.0938 98.6814 35.5941 98.2782 34.2227 97.5795C32.8512 96.8808 31.6377 95.9019 30.659 94.7045C30.5458 94.5637 30.3962 94.4575 30.2268 94.3977C30.0575 94.3379 29.8751 94.327 29.7 94.366C29.1033 94.5064 28.4966 94.5985 27.8855 94.6416L22.898 94.9981C21.4306 95.1205 19.9538 94.9447 18.5545 94.4811C17.1552 94.0175 15.8615 93.2755 14.7496 92.2986C13.6377 91.3217 12.73 90.1298 12.0798 88.7927C11.4296 87.4557 11.0501 86.0005 10.9635 84.5129L10.1229 72.5568C10.1087 72.3393 10.0233 72.1329 9.88013 71.9702C9.737 71.8074 9.54433 71.6975 9.33261 71.658C7.42416 71.2939 5.64508 70.4246 4.1764 69.1386C3.06744 68.1583 2.16159 66.9651 1.51126 65.6282C0.86093 64.2912 0.479035 62.8369 0.38768 61.3496L0.0354464 56.3017C-0.198279 53.5553 0.583646 50.8188 2.22969 48.6226C3.87574 46.4264 6.26869 44.9269 8.94486 44.4145C9.0698 44.3892 9.18851 44.339 9.29405 44.2668C9.3996 44.1945 9.48987 44.1017 9.55959 43.9938C9.62931 43.8859 9.67708 43.765 9.70011 43.6381C9.72313 43.5113 9.72097 43.3811 9.69373 43.2551C9.4846 42.2512 9.40598 41.224 9.45988 40.1994L10.0904 28.2163C10.1011 27.9989 10.0404 27.784 9.9178 27.6052C9.79518 27.4264 9.61752 27.2937 9.41253 27.2278C7.56431 26.6263 5.90599 25.5412 4.60559 24.0822C3.62534 22.9712 2.87259 21.6745 2.39093 20.267C1.90927 18.8596 1.70826 17.3694 1.79956 15.8828L2.063 10.8319C2.12063 9.34229 2.47271 7.87956 3.09843 6.53005C3.72416 5.18055 4.61084 3.97167 5.70605 2.97491C6.80126 1.97815 8.0828 1.21373 9.47489 0.726802C10.867 0.239875 12.3414 0.0403297 13.811 0.139972L36.6351 1.36823C39.3538 1.48725 41.9373 2.60191 43.9047 4.5048C43.9989 4.5986 44.111 4.67199 44.2342 4.72041C44.3573 4.76883 44.4889 4.79128 44.621 4.78642L46.2016 4.69953C46.4473 4.69953 46.69 4.67858 46.9357 4.68157C47.0829 4.68286 47.2284 4.64973 47.3608 4.58477C47.4933 4.51982 47.6091 4.4248 47.6993 4.3071C48.1782 3.6736 48.7241 3.09497 49.3273 2.58153C50.4563 1.62448 51.7621 0.904109 53.1686 0.462332C54.5751 0.0205539 56.0544 -0.13381 57.5204 0.00817513L76.1976 1.6139C79.788 1.91348 82.8368 3.75888 84.6631 6.62883C84.7546 6.77136 84.8815 6.88703 85.0311 6.96431C85.1807 7.0416 85.3478 7.07777 85.5155 7.06919L89.7275 6.88946C96.3992 6.58988 101.52 8.17762 105.392 11.7066C109.263 15.2357 111.311 20.2626 111.581 26.7544C111.732 30.3493 111.285 33.5788 110.269 36.3738C110.218 36.5127 110.198 36.6615 110.211 36.8092C110.224 36.9569 110.269 37.0999 110.343 37.2276L112.188 40.3672C113.222 42.0877 113.794 44.0523 113.846 46.0657C113.898 48.0791 113.428 50.0712 112.484 51.844C112.115 52.5319 111.679 53.1803 111.181 53.7793C111.066 53.9188 110.992 54.0883 110.967 54.2684C110.943 54.4484 110.969 54.6319 111.042 54.7978C111.822 56.5937 112.142 58.5597 111.971 60.5138L111.548 65.5556C111.442 67.1324 111.007 68.6685 110.272 70.0627C109.537 71.4569 108.518 72.6776 107.283 73.6442C107.178 73.727 107.091 73.831 107.028 73.9496C106.965 74.0683 106.926 74.1989 106.916 74.3333L106.874 74.8605C106.862 74.9949 106.877 75.1304 106.919 75.2584C106.962 75.3864 107.03 75.5039 107.12 75.6035C108.175 76.7658 108.975 78.1406 109.469 79.6378C109.962 81.1349 110.137 82.7208 109.982 84.2912L109.559 89.3331C109.044 95.3636 104.397 99.7195 98.5008 99.7195ZM72.326 89.7136C72.5022 89.7035 72.6778 89.7418 72.8342 89.8247C72.9905 89.9075 73.1218 90.0316 73.214 90.1839L73.51 90.6872C74.1081 91.6732 74.9307 92.4999 75.9092 93.0983C76.8876 93.6966 77.9933 94.0491 79.1339 94.1263L97.817 95.7291C98.0509 95.75 98.2847 95.759 98.5156 95.759C102.396 95.759 105.341 92.988 105.673 89.0186L106.096 83.9767C106.306 81.4632 105.389 79.1595 103.577 77.6616L103.177 77.329C103.055 77.228 102.959 77.0982 102.898 76.9509C102.836 76.8037 102.811 76.6434 102.825 76.4842L103.192 72.0775C103.206 71.918 103.258 71.7643 103.344 71.6297C103.429 71.4951 103.546 71.3835 103.684 71.3046L104.131 71.0469C106.164 69.8785 107.452 67.7515 107.662 65.2501L108.085 60.2082C108.266 58.3966 107.776 56.5816 106.709 55.1154L106.117 54.3365C105.964 54.1295 105.897 53.87 105.932 53.614C105.966 53.3579 106.098 53.1257 106.3 52.9674L107.058 52.3683C107.874 51.7287 108.548 50.9236 109.038 50.0046C109.659 48.8325 109.967 47.5165 109.931 46.1871C109.894 44.8576 109.515 43.5608 108.831 42.4253L105.969 37.5572C105.888 37.419 105.842 37.2631 105.834 37.1029C105.827 36.9426 105.857 36.7829 105.924 36.6375L106.146 36.1611C107.312 33.6387 107.83 30.5441 107.677 26.9641C107.449 21.5717 105.8 17.4376 102.778 14.6815C99.7025 11.8774 95.4846 10.6312 89.8903 10.8738L83.1594 11.1734C82.9613 11.1825 82.7651 11.1299 82.5974 11.0228C82.4296 10.9157 82.2983 10.7592 82.2211 10.5742L81.9577 9.93613C80.9335 7.46162 78.6573 5.84092 75.8632 5.60126L57.186 3.99553C56.2309 3.89893 55.2664 3.99565 54.3486 4.28008C53.4308 4.5645 52.5782 5.03095 51.8403 5.6522C51.1542 6.23533 50.5863 6.94746 50.1679 7.74924L49.8394 8.37835C49.7444 8.56123 49.5949 8.70916 49.4121 8.80113C49.2293 8.89309 49.0225 8.92441 48.8212 8.89061L48.1285 8.77677C47.5611 8.68434 46.9857 8.65323 46.4118 8.68392L42.9427 8.87565C42.7861 8.88446 42.6297 8.85472 42.4869 8.78898C42.3441 8.72325 42.2192 8.62346 42.1228 8.49818L41.809 8.09076C41.6936 7.94397 41.5989 7.82711 41.5131 7.72525C40.8631 7.00941 40.0792 6.43137 39.2068 6.02459C38.3344 5.61781 37.3908 5.39042 36.4309 5.35562L13.6097 4.12736C12.6519 4.05492 11.6895 4.17942 10.7804 4.49335C9.87137 4.80728 9.03451 5.30414 8.3202 5.95404C7.60589 6.60395 7.02892 7.39346 6.62402 8.275C6.21912 9.15654 5.99467 10.1119 5.96419 11.0835L5.69781 16.1344C5.63099 17.0831 5.74986 18.0357 6.04762 18.9378C6.34539 19.8399 6.81619 20.6736 7.433 21.3911C8.04981 22.1086 8.80051 22.6959 9.64204 23.1191C10.4836 23.5423 11.3994 23.7933 12.337 23.8575L13.2841 23.9384C13.5359 23.9598 13.7695 24.0798 13.9353 24.2728C14.1012 24.4657 14.1861 24.7166 14.1721 24.9719L13.3581 40.4361C13.2602 42.0319 13.6756 43.6169 14.5421 44.9537L15.4745 46.3678C15.5686 46.5113 15.6238 46.6774 15.6347 46.8493C15.6456 47.0212 15.6118 47.193 15.5366 47.3476C15.4614 47.5022 15.3475 47.6342 15.2063 47.7303C15.065 47.8264 14.9013 47.8834 14.7315 47.8956L10.6557 48.1952C9.69556 48.2411 8.75461 48.4837 7.88982 48.9084C7.02503 49.3331 6.2544 49.931 5.62457 50.6659C4.99475 51.4009 4.51883 52.2575 4.22565 53.184C3.93246 54.1105 3.8281 55.0876 3.91888 56.0561L4.27408 61.1039C4.32324 62.0536 4.55727 62.9841 4.96274 63.8419C5.36821 64.6997 5.93712 65.4681 6.63681 66.1027C7.3365 66.7374 8.15319 67.2259 9.03996 67.5402C9.92672 67.8546 10.8661 67.9885 11.8041 67.9343L12.7513 67.8954C13.002 67.8844 13.2471 67.9717 13.4357 68.1391C13.6243 68.3065 13.7418 68.5412 13.7636 68.7941L14.847 84.2403C14.8981 85.2101 15.1416 86.1595 15.5631 87.0319C15.9846 87.9044 16.5754 88.6819 17.3003 89.3182C18.0251 89.9546 18.8692 90.4366 19.7821 90.7356C20.695 91.0347 21.6581 91.1445 22.6139 91.0587L27.6013 90.7022C28.5236 90.6378 29.4264 90.4033 30.2653 90.0101L31.1178 89.6117C31.3454 89.5048 31.6051 89.4912 31.8424 89.5739C32.0797 89.6566 32.2761 89.829 32.3905 90.0551L32.8286 90.9119C33.4074 92.0422 34.2691 92.999 35.3276 93.6866C36.3862 94.3742 37.6046 94.7686 38.861 94.8303L43.7597 95.1299C44.7172 95.1985 45.6786 95.075 46.5888 94.7666C47.4991 94.4581 48.3402 93.9707 49.0639 93.3324C49.6443 92.8106 50.1354 92.1952 50.5172 91.511L50.8428 90.9119C50.9388 90.7393 51.0838 90.6 51.2591 90.5118C51.4343 90.4237 51.6316 90.3909 51.8255 90.4176L52.4856 90.5105C52.9483 90.5759 53.4159 90.598 53.8826 90.5763L58.8761 90.3397C60.3802 90.276 61.8278 89.7423 63.02 88.8118L63.5646 88.3864C63.7237 88.2622 63.9168 88.1906 64.1176 88.1815C64.3183 88.1724 64.517 88.2262 64.6864 88.3355L65.2784 88.713C66.5203 89.5178 67.979 89.9115 69.4519 89.8394L72.326 89.7136Z" fill="#3A3A39"/>
<path d="M108.976 106.151C112.393 106.151 115.162 103.348 115.162 99.8901C115.162 96.4321 112.393 93.6289 108.976 93.6289C105.559 93.6289 102.79 96.4321 102.79 99.8901C102.79 103.348 105.559 106.151 108.976 106.151Z" fill="#3A3A39" stroke="#F8F4EF" stroke-width="2" stroke-miterlimit="10"/>
<path d="M110.58 101.73C110.602 101.765 110.613 101.806 110.614 101.847C110.614 101.888 110.603 101.928 110.582 101.963C110.56 101.999 110.53 102.027 110.494 102.046C110.457 102.064 110.417 102.072 110.376 102.069H109.678C109.648 102.07 109.618 102.062 109.593 102.046C109.568 102.03 109.548 102.006 109.535 101.979L108.896 100.73C108.891 100.721 108.883 100.714 108.875 100.708C108.866 100.703 108.856 100.7 108.846 100.7H108.603C108.578 100.699 108.553 100.703 108.53 100.713C108.506 100.722 108.485 100.736 108.467 100.754C108.45 100.772 108.436 100.794 108.426 100.817C108.417 100.841 108.413 100.866 108.414 100.892V101.874C108.415 101.9 108.411 101.926 108.402 101.95C108.392 101.974 108.378 101.996 108.36 102.015C108.342 102.033 108.32 102.047 108.296 102.057C108.272 102.066 108.247 102.07 108.221 102.069H107.535C107.509 102.07 107.484 102.065 107.46 102.056C107.437 102.046 107.415 102.032 107.398 102.014C107.38 101.995 107.366 101.973 107.357 101.949C107.348 101.925 107.344 101.9 107.345 101.874V97.9047C107.344 97.8793 107.349 97.854 107.358 97.8304C107.367 97.8067 107.381 97.7853 107.399 97.7673C107.417 97.7493 107.438 97.7352 107.461 97.7259C107.484 97.7166 107.509 97.7122 107.535 97.713H108.881C109.974 97.713 110.418 98.1863 110.418 99.2109C110.418 99.7891 110.275 100.194 109.95 100.43C109.939 100.44 109.931 100.453 109.928 100.468C109.924 100.482 109.926 100.497 109.932 100.511L110.58 101.73ZM108.6 98.7825C108.575 98.7817 108.55 98.786 108.527 98.7954C108.503 98.8047 108.482 98.8188 108.464 98.8368C108.447 98.8548 108.433 98.8763 108.423 98.8999C108.414 98.9235 108.41 98.9488 108.411 98.9742V99.4356C108.41 99.461 108.414 99.4863 108.423 99.5099C108.433 99.5335 108.447 99.555 108.464 99.573C108.482 99.591 108.503 99.6051 108.527 99.6144C108.55 99.6238 108.575 99.6281 108.6 99.6273H108.914C109.21 99.6273 109.358 99.5914 109.358 99.2049C109.358 98.8185 109.21 98.7825 108.914 98.7825H108.6Z" fill="#F8F4EF"/>
</g>
<defs>
<clipPath id="clip0_271_3473">
<rect width="116" height="107" fill="white"/>
</clipPath>
</defs>
</svg>
