<svg width="110" height="110" viewBox="0 0 110 110" fill="none" xmlns="http://www.w3.org/2000/svg">
<g clip-path="url(#clip0_271_3981)">
<path d="M55.5199 -0.00144208C44.6431 -0.104381 33.98 3.01992 24.8787 8.97646C15.7773 14.933 8.64645 23.4543 4.3875 33.4631C0.128541 43.4719 -1.06724 54.5188 0.951361 65.2071C2.96996 75.8954 8.1123 85.7452 15.7282 93.5113C23.3442 101.277 33.0917 106.611 43.7386 108.838C54.3855 111.065 65.4536 110.085 75.5436 106.022C85.6336 101.959 94.2925 94.9963 100.426 86.013C106.559 77.0296 109.891 66.4296 110 55.5529C110.125 40.9666 104.459 26.9263 94.2461 16.5117C84.0328 6.09705 70.1058 0.158478 55.5199 -0.00144208ZM54.5008 107.506C44.1161 107.405 33.9947 104.226 25.4162 98.3731C16.8378 92.5197 10.1876 84.2541 6.30657 74.6214C2.42553 64.9887 1.48793 54.4215 3.61232 44.2559C5.73671 34.0904 10.8277 24.7831 18.2415 17.5108C25.6554 10.2385 35.0591 5.3278 45.2637 3.39973C55.4683 1.47165 66.0155 2.61275 75.5716 6.67872C85.1278 10.7447 93.2636 17.5529 98.9506 26.2426C104.637 34.9323 107.62 45.1131 107.521 55.4978C107.374 69.4213 101.708 82.7176 91.768 92.4682C81.8276 102.219 68.4246 107.627 54.5008 107.506Z" fill="#3A3A39"/>
<path d="M95.354 55.3813C95.4285 47.4666 93.1545 39.7076 88.8193 33.0852C84.4842 26.4629 78.2827 21.2748 70.9991 18.177C63.7155 15.0791 55.6767 14.2106 47.8995 15.6813C40.1223 17.152 32.9558 20.8959 27.3063 26.4395C21.6568 31.9831 17.778 39.0774 16.1604 46.8254C14.5428 54.5734 15.259 62.6271 18.2184 69.9681C21.1779 77.309 26.2477 83.6075 32.7868 88.0672C39.3259 92.5269 47.0405 94.9474 54.9552 95.0227C65.5655 95.1108 75.7776 90.9867 83.3512 83.5552C90.9247 76.1236 95.2413 65.9914 95.354 55.3813ZM54.9828 92.5644C47.559 92.4974 40.3219 90.2303 34.1867 86.0499C28.0515 81.8696 23.2938 75.9637 20.5153 69.0792C17.7368 62.1947 17.0624 54.6409 18.5772 47.373C20.092 40.1052 23.7281 33.4498 29.0257 28.2486C34.3232 23.0474 41.0442 19.534 48.3386 18.1528C55.633 16.7715 63.1732 17.5845 70.0055 20.4888C76.8379 23.3932 82.6555 28.2584 86.7226 34.4693C90.7897 40.6802 92.9236 47.9576 92.8544 55.3813C92.7418 65.3291 88.6888 74.8263 81.5842 81.7902C74.4796 88.7541 64.9033 92.6163 54.9552 92.53L54.9828 92.5644Z" fill="#3A3A39"/>
<path d="M48.5446 41.9011L65.8898 42.0664L65.9587 35.0291L40.0338 34.7812L39.6482 75.1593L48.221 75.242L48.3724 59.3014L63.0185 59.4392L63.0873 52.3813L48.4413 52.2367L48.5446 41.9011Z" fill="#3A3A39"/>
<path d="M71.3365 67.8238C70.9117 67.3923 70.4064 67.0484 69.8492 66.8115C69.2651 66.5591 68.6366 66.426 68.0004 66.4201C67.3642 66.4142 66.7332 66.5356 66.1446 66.7771C65.5826 67.0048 65.0687 67.3366 64.6298 67.7549C64.1895 68.1763 63.8423 68.6854 63.6107 69.2491C63.1288 70.4298 63.1288 71.7523 63.6107 72.933C63.8341 73.4964 64.1717 74.0075 64.6022 74.4341C65.0339 74.86 65.5436 75.199 66.1033 75.4325C66.6908 75.6752 67.3199 75.8015 67.9556 75.8043C68.5847 75.8143 69.2095 75.6997 69.7941 75.4669C70.3595 75.246 70.8747 74.9134 71.3089 74.4892C71.7364 74.0704 72.0779 73.5722 72.3143 73.0225C72.5777 72.4405 72.7138 71.809 72.7136 71.1702C72.7224 69.9218 72.2402 68.7199 71.3709 67.8238H71.3365Z" fill="#3A3A39"/>
<path d="M13.2895 44.4L12.4357 44.2003L12.0157 46.0457L10.4801 45.6876L10.79 44.3449L9.93616 44.1521L9.6263 45.4948L8.09767 45.1437L8.5177 43.3052L7.67075 43.1055L7.0166 45.9424L12.6354 47.2369L13.2895 44.4Z" fill="#3A3A39"/>
<path d="M9.36461 42.0375C9.63953 42.1131 9.92976 42.1131 10.2047 42.0375C10.5381 41.9343 10.8538 41.7811 11.1411 41.583L12.1189 40.9495C12.2341 40.87 12.365 40.816 12.5027 40.7911C12.6404 40.7661 12.7819 40.7709 12.9177 40.8049C13.0487 40.8368 13.1652 40.9121 13.2482 41.0184C13.3091 41.1029 13.35 41.2 13.3679 41.3026C13.3858 41.4052 13.3801 41.5105 13.3515 41.6106C13.3315 41.6865 13.2953 41.7572 13.2453 41.8178C13.1954 41.8785 13.133 41.9275 13.0623 41.9617C12.8164 42.0828 12.5348 42.1097 12.2704 42.0375L12.0294 42.9808C12.3054 43.0557 12.5944 43.0698 12.8764 43.0221C13.1298 42.9749 13.3668 42.8635 13.5649 42.6985C13.8273 42.4676 14.0184 42.1666 14.1158 41.8309C14.175 41.6502 14.212 41.4629 14.226 41.2732C14.2558 40.9953 14.1955 40.7152 14.0538 40.4744C13.8662 40.1426 13.5579 39.896 13.1931 39.7858C13.0047 39.7458 12.81 39.7458 12.6216 39.7858C12.5167 39.801 12.4131 39.8241 12.3117 39.8547C12.0329 39.9321 11.768 40.0529 11.5268 40.2127C11.36 40.3162 11.1991 40.4289 11.0447 40.5502C10.8937 40.6731 10.7298 40.7793 10.5559 40.8669C10.4238 40.9464 10.2773 40.999 10.1248 41.0214C9.97236 41.0439 9.81693 41.0358 9.66759 40.9977C9.52298 40.9592 9.39487 40.8746 9.30264 40.7567C9.25065 40.6905 9.21693 40.6117 9.20484 40.5283C9.19276 40.445 9.20274 40.3599 9.23378 40.2816C9.25082 40.21 9.28298 40.1428 9.32811 40.0846C9.37324 40.0264 9.43029 39.9785 9.49544 39.9442C9.68064 39.8583 9.88977 39.8389 10.0876 39.8891L10.2529 38.9113C10.0268 38.8551 9.79038 38.8551 9.5643 38.9113C9.34362 38.9645 9.1414 39.0763 8.97901 39.235C8.75218 39.4661 8.58652 39.7501 8.497 40.0613C8.37925 40.3737 8.35767 40.7142 8.43503 41.039C8.48528 41.2739 8.59826 41.4908 8.76194 41.6666C8.92562 41.8424 9.1339 41.9706 9.36461 42.0375Z" fill="#3A3A39"/>
<path d="M10.8382 36.4871L15.3208 38.4496L15.7271 37.5062L11.2513 35.5507L11.6851 34.5591L10.8795 34.2148L9.60562 37.1344L10.4044 37.4856L10.8382 36.4871Z" fill="#3A3A39"/>
<path d="M16.3124 34.4212L15.8364 35.3301L16.605 35.7326L17.0809 34.8237L16.3124 34.4212Z" fill="#3A3A39"/>
<path d="M15.1211 29.8975L15.2451 29.9801L15.8166 29.1539L15.6376 29.0299C15.5408 28.9679 15.4586 28.8857 15.3966 28.7889C15.3177 28.6823 15.2752 28.5531 15.2752 28.4205C15.2752 28.2879 15.3177 28.1588 15.3966 28.0521C15.4474 27.9774 15.5125 27.9133 15.5881 27.8637C15.6638 27.8141 15.7484 27.7798 15.8372 27.7629C15.9176 27.7485 16 27.7509 16.0794 27.7698C16.1588 27.7888 16.2334 27.8239 16.2986 27.8731C16.4968 28.0162 16.6575 28.2053 16.7668 28.424C16.9548 28.7895 17.1003 29.1753 17.2006 29.5739C17.3452 30.0765 17.4416 30.4415 17.5036 30.6687L17.6275 31.075C17.662 31.2058 17.7033 31.3229 17.7377 31.433C17.7681 31.559 17.8119 31.6814 17.8685 31.798L18.5571 32.2456L20.3956 29.567L19.707 29.085L18.5709 30.7376C18.5709 30.7376 18.5709 30.7376 18.5296 30.6618C18.4883 30.5861 18.4401 30.414 18.3781 30.228L18.2955 29.9457C18.1784 29.6014 18.1026 29.3467 18.0544 29.1745C17.9509 28.7521 17.8104 28.3397 17.6344 27.942C17.4677 27.5805 17.2059 27.2711 16.877 27.0468C16.7188 26.9386 16.5387 26.8664 16.3495 26.8355C16.1603 26.8046 15.9666 26.8156 15.7822 26.8678C15.3755 26.9656 15.0197 27.211 14.7837 27.5564C14.5254 27.8974 14.4006 28.321 14.4326 28.7476C14.4534 28.9787 14.5262 29.2022 14.6454 29.4013C14.7646 29.6004 14.9272 29.77 15.1211 29.8975Z" fill="#3A3A39"/>
<path d="M20.0376 27.8254C20.181 27.9477 20.3505 28.0355 20.5331 28.0821C20.7158 28.1286 20.9066 28.1327 21.0911 28.0939C21.5021 28.0216 21.8735 27.8041 22.1377 27.4811C22.4163 27.1681 22.5706 26.7639 22.5715 26.3449C22.5791 26.1569 22.5433 25.9697 22.4669 25.7977C22.3905 25.6258 22.2755 25.4738 22.1308 25.3534L19.7346 23.3221C19.5902 23.2015 19.4206 23.1148 19.2383 23.0683C19.056 23.0219 18.8656 23.0168 18.6811 23.0535C18.2678 23.1197 17.8944 23.3384 17.6344 23.6664C17.357 23.98 17.2028 24.3838 17.2006 24.8025C17.1931 24.9905 17.2289 25.1778 17.3053 25.3497C17.3817 25.5217 17.4967 25.6737 17.6413 25.7941L20.0376 27.8254ZM18.2679 24.2448C18.3665 24.1281 18.503 24.0501 18.6535 24.0244C18.7198 24.0097 18.7886 24.0108 18.8544 24.0276C18.9202 24.0443 18.9811 24.0763 19.0323 24.1208L21.4354 26.1521C21.4885 26.1963 21.5306 26.2523 21.5581 26.3157C21.5856 26.3791 21.5978 26.4481 21.5938 26.5171C21.5949 26.6686 21.5411 26.8153 21.4423 26.9302C21.3454 27.0488 21.208 27.1273 21.0567 27.1506C20.9903 27.1632 20.922 27.1611 20.8566 27.1445C20.7912 27.1278 20.7302 27.097 20.6779 27.0542L18.2748 24.9884C18.223 24.9446 18.1818 24.8897 18.1544 24.8277C18.127 24.7656 18.114 24.6982 18.1164 24.6304C18.1189 24.4878 18.1726 24.3509 18.2679 24.2448Z" fill="#3A3A39"/>
<path d="M20.2992 21.896L20.7261 22.3229L21.3459 21.71L24.4789 24.8431L25.2019 24.1545L21.1255 20.0781L20.6229 20.5808C20.6864 20.8059 20.6864 21.0442 20.6229 21.2693C20.5564 21.4971 20.4465 21.7099 20.2992 21.896Z" fill="#3A3A39"/>
<path d="M25.1537 22.3371C25.274 22.4817 25.4261 22.5967 25.598 22.6731C25.77 22.7496 25.9572 22.7854 26.1452 22.7778C26.564 22.7756 26.9678 22.6214 27.2814 22.344C27.6054 22.0835 27.8233 21.7139 27.8942 21.3042C27.935 21.1204 27.9326 20.9295 27.8872 20.7467C27.8418 20.5639 27.7546 20.3942 27.6326 20.2507L25.6081 17.8476C25.4868 17.7041 25.3346 17.59 25.1628 17.5137C24.9911 17.4374 24.8044 17.4009 24.6166 17.4069C24.198 17.4033 23.7931 17.5555 23.4805 17.8338C23.1529 18.0952 22.9325 18.4675 22.8607 18.8804C22.822 19.0649 22.826 19.2558 22.8726 19.4384C22.9191 19.6211 23.0069 19.7906 23.1293 19.934L25.1537 22.3371ZM24.0107 18.5086C24.1255 18.4098 24.2723 18.356 24.4238 18.3571C24.4916 18.3547 24.559 18.3676 24.6211 18.3951C24.6831 18.4225 24.7381 18.4637 24.7819 18.5155L26.8132 20.9255C26.8564 20.9775 26.8875 21.0385 26.9041 21.104C26.9208 21.1695 26.9227 21.2379 26.9096 21.3042C26.8827 21.4559 26.802 21.5928 26.6823 21.6898C26.5702 21.7887 26.4255 21.8427 26.2761 21.8413C26.2082 21.8443 26.1406 21.8316 26.0785 21.8041C26.0164 21.7766 25.9615 21.7351 25.918 21.6829L23.8523 19.2729C23.8077 19.2217 23.7758 19.1608 23.759 19.095C23.7423 19.0293 23.7412 18.9605 23.7559 18.8942C23.7879 18.7376 23.8792 18.5995 24.0107 18.5086Z" fill="#3A3A39"/>
<path d="M31.6299 15.1592L29.0647 16.7715L29.5301 17.5119L32.0952 15.8996L31.6299 15.1592Z" fill="#3A3A39"/>
<path d="M36.8801 16.1472L35.8748 13.9162L37.128 13.3447L36.77 12.5528L35.5099 13.1243L34.8626 11.6921L36.5772 10.9071L36.2191 10.1152L33.5681 11.3134L35.9506 16.5672L36.8801 16.1472Z" fill="#3A3A39"/>
<path d="M40.4125 14.6804L39.7239 12.6146L40.2817 12.4287L40.3712 12.3943L41.6451 14.2397L42.6917 13.8816L41.1562 11.747C41.2785 11.5836 41.3588 11.3926 41.39 11.1909C41.4212 10.9892 41.4024 10.783 41.3352 10.5902L41.0667 9.79833C41.0184 9.62653 40.9354 9.46645 40.8229 9.3279C40.7104 9.18935 40.5707 9.07528 40.4125 8.99271C39.9911 8.82014 39.5187 8.82014 39.0973 8.99271L37.5756 9.52291L39.4485 14.9695L40.4125 14.6804ZM38.8219 10.1082L39.4072 9.90851C39.7722 9.78456 40.0132 9.87408 40.0958 10.1908L40.3712 10.9896C40.3923 11.0546 40.3989 11.1234 40.3906 11.1912C40.3823 11.259 40.3592 11.3241 40.323 11.3821C40.2446 11.5104 40.1223 11.6058 39.9787 11.6506L39.3934 11.8503L38.8219 10.1082Z" fill="#3A3A39"/>
<path d="M43.2426 12.3808C43.2865 12.5637 43.3713 12.7343 43.4905 12.8798C43.6098 13.0253 43.7604 13.1419 43.9311 13.2209C44.3032 13.4112 44.7331 13.4555 45.1362 13.3448C45.5466 13.2595 45.9116 13.0268 46.1621 12.6907C46.2795 12.5435 46.3617 12.3715 46.4023 12.1876C46.4428 12.0038 46.4408 11.8131 46.3962 11.6303L45.7077 8.57298C45.6633 8.39026 45.5783 8.21989 45.4591 8.07447C45.3399 7.92905 45.1895 7.81231 45.0191 7.73291C44.6453 7.54043 44.2134 7.4938 43.8072 7.60208C43.3997 7.69009 43.0378 7.92242 42.7881 8.25624C42.6707 8.40338 42.5885 8.57545 42.548 8.75926C42.5074 8.94308 42.5094 9.13375 42.554 9.31665L43.2426 12.3808ZM43.5731 8.69004C43.664 8.56757 43.796 8.48199 43.9449 8.44904C44.0906 8.41197 44.2447 8.4291 44.3787 8.49724C44.4415 8.52382 44.4969 8.5653 44.5401 8.61809C44.5833 8.67088 44.613 8.73339 44.6266 8.80022L45.3565 11.8644C45.3736 11.9306 45.3751 12 45.3607 12.0669C45.3464 12.1339 45.3166 12.1965 45.2739 12.25C45.1822 12.3703 45.0502 12.4535 44.902 12.4841C44.7575 12.5267 44.6021 12.5119 44.4682 12.4428C44.4059 12.4144 44.3508 12.3724 44.3067 12.32C44.2626 12.2676 44.2308 12.2061 44.2135 12.1398L43.4836 9.06875C43.4695 9.00294 43.4703 8.93483 43.4857 8.86933C43.5012 8.80384 43.531 8.7426 43.5731 8.69004Z" fill="#3A3A39"/>
<path d="M47.5944 11.4162C47.6218 11.6013 47.6897 11.7781 47.7933 11.934C47.8968 12.0899 48.0334 12.2211 48.1934 12.3182C48.5497 12.543 48.9753 12.631 49.3915 12.5661C49.8045 12.5188 50.1863 12.323 50.4657 12.0152C50.5982 11.8823 50.6983 11.7205 50.758 11.5425C50.8177 11.3646 50.8355 11.1752 50.81 10.9892L50.5415 8.99238L48.9302 9.20584L49.0473 10.0734L49.605 9.99769L49.7565 11.1201C49.767 11.1874 49.7613 11.2564 49.7397 11.3211C49.7182 11.3857 49.6814 11.4443 49.6326 11.4919C49.5298 11.6033 49.3906 11.6741 49.2401 11.6916C49.0894 11.7156 48.9351 11.6837 48.8063 11.6021C48.7485 11.5661 48.6994 11.5178 48.6625 11.4607C48.6256 11.4036 48.6018 11.339 48.5928 11.2716L48.1796 8.14542C48.1704 8.07864 48.176 8.01063 48.1963 7.94632C48.2165 7.88201 48.2508 7.823 48.2967 7.77359C48.4035 7.66741 48.5421 7.59917 48.6913 7.57927C48.8405 7.55937 48.9922 7.58894 49.123 7.66343C49.1814 7.69936 49.2313 7.74749 49.2694 7.80454C49.3074 7.86159 49.3326 7.92621 49.3433 7.99394L49.4329 8.68251L50.4795 8.54481L50.3969 7.89065C50.3699 7.70538 50.3021 7.52839 50.1986 7.37241C50.095 7.21644 49.9581 7.08537 49.7978 6.98862C49.4411 6.77305 49.0215 6.6856 48.6084 6.74068C48.1953 6.79576 47.8133 6.9901 47.5255 7.2916C47.393 7.42455 47.293 7.58631 47.2332 7.76428C47.1735 7.94224 47.1557 8.13159 47.1812 8.31757L47.5944 11.4162Z" fill="#3A3A39"/>
<path d="M56.5183 11.9269C56.7378 11.8216 56.9255 11.6601 57.0623 11.4586C57.2333 11.1791 57.3216 10.8568 57.3171 10.5291C57.3202 10.3951 57.3086 10.2612 57.2826 10.1297C57.2471 9.92555 57.1698 9.73097 57.0554 9.55819C56.9175 9.35188 56.7172 9.19504 56.4839 9.1106C56.6182 9.06481 56.7405 8.98953 56.8419 8.89027C56.9662 8.77161 57.0641 8.62814 57.1294 8.46918C57.1946 8.31022 57.2257 8.13933 57.2206 7.96758C57.2259 7.7597 57.1957 7.55242 57.1311 7.35474C57.0267 7.0614 56.8185 6.81645 56.5459 6.66616C56.2117 6.4775 55.8347 6.3779 55.451 6.37695H53.9224L53.8535 12.1404H55.7471C56.0181 12.1358 56.2835 12.0623 56.5183 11.9269ZM55.0172 7.2308H55.4166C55.5086 7.22472 55.6008 7.23834 55.6871 7.27079C55.7734 7.30324 55.8518 7.35376 55.917 7.41896C55.9822 7.48415 56.0327 7.56253 56.0651 7.64883C56.0976 7.73513 56.1112 7.82738 56.1052 7.91938C56.1055 8.04367 56.0845 8.16711 56.0432 8.28432C55.9908 8.40942 55.8996 8.5144 55.7831 8.58381C55.6666 8.65322 55.5309 8.6834 55.3959 8.66992H54.969L55.0172 7.2308ZM54.969 11.2521V9.53064H55.4166C55.5198 9.52471 55.6232 9.53998 55.7203 9.57551C55.8174 9.61103 55.9062 9.66606 55.9812 9.73721C56.1362 9.93182 56.2124 10.1776 56.1947 10.4258C56.193 10.5489 56.1673 10.6706 56.1189 10.7839C56.0623 10.9189 55.9664 11.0338 55.8436 11.1137C55.7208 11.1935 55.5768 11.2345 55.4303 11.2314L54.969 11.2521Z" fill="#3A3A39"/>
<path d="M59.6651 11.0318L60.7255 11.1557L60.8081 12.5329L61.8754 12.6568L61.4141 6.80394L60.0369 6.63867L58.2053 12.1748L59.2657 12.2988L59.6651 11.0318ZM60.5603 7.99517L60.6704 10.295L59.9199 10.2055L60.5603 7.99517Z" fill="#3A3A39"/>
<path d="M65.8554 12.5862L64.0169 12.1662L66.7505 8.66824L66.9502 7.8144L64.0375 7.14648L63.8447 8.00032L65.6832 8.41346L62.9427 11.9114L62.7499 12.7584L65.6626 13.4263L65.8554 12.5862Z" fill="#3A3A39"/>
<path d="M67.5768 13.9574L68.2172 12.7731L69.2363 13.1036L69.0573 14.4325L70.0832 14.7631L70.7718 8.93082L69.436 8.50391L66.5784 13.6338L67.5768 13.9574ZM69.6839 9.97056L69.3465 12.2497L68.6579 12.0156L69.6839 9.97056Z" fill="#3A3A39"/>
<path d="M72.872 13.5512L73.416 13.7922L73.4986 13.8266L73.1818 16.0645L74.194 16.512L74.5246 13.9023C74.7242 13.8646 74.9117 13.7791 75.0712 13.6532C75.2307 13.5273 75.3573 13.3647 75.4404 13.1793L75.7778 12.415C75.86 12.2571 75.9092 12.084 75.9222 11.9064C75.9352 11.7288 75.9119 11.5504 75.8535 11.3822C75.6542 10.9717 75.3 10.6571 74.8689 10.5077L73.3953 9.85352L71.061 15.1211L71.9975 15.5343L72.872 13.5512ZM73.9668 11.0792L74.5315 11.3271C74.8895 11.4854 74.9997 11.7195 74.862 12.0156L74.5246 12.7869C74.4966 12.8494 74.4547 12.9048 74.4023 12.949C74.3498 12.9931 74.288 13.0248 74.2216 13.0416C74.0778 13.0849 73.923 13.0726 73.7878 13.0072L73.2232 12.7593L73.9668 11.0792Z" fill="#3A3A39"/>
<path d="M78.4997 15.1203L78.0354 15.8613L80.6028 17.47L81.0672 16.729L78.4997 15.1203Z" fill="#3A3A39"/>
<path d="M82.9596 22.3854C83.1035 22.5113 83.2632 22.6178 83.4347 22.7022C83.6797 22.8315 83.9594 22.8797 84.2335 22.8399C84.6095 22.7908 84.951 22.5954 85.1837 22.2959C85.2951 22.1384 85.3747 21.9606 85.4178 21.7726C85.4447 21.6733 85.4631 21.572 85.4729 21.4696C85.5048 21.1803 85.4932 20.8879 85.4385 20.602C85.4048 20.4094 85.3611 20.2186 85.3077 20.0305C85.2559 19.8432 85.219 19.6521 85.1975 19.459C85.1523 19.1508 85.2288 18.8372 85.411 18.5845C85.5038 18.4659 85.6314 18.3792 85.7759 18.3366C85.8564 18.3145 85.9412 18.3137 86.022 18.3342C86.1029 18.3547 86.1771 18.3959 86.2373 18.4537C86.2987 18.496 86.3502 18.5512 86.3882 18.6154C86.4262 18.6796 86.4499 18.7513 86.4576 18.8255C86.4656 19.0299 86.405 19.2311 86.2854 19.397L87.1324 19.9134C87.2676 19.7185 87.3549 19.4944 87.3872 19.2593C87.4238 19.0266 87.3952 18.7882 87.3045 18.5707C87.1743 18.2741 86.9762 18.0123 86.7261 17.8064C86.4765 17.5829 86.1684 17.4348 85.8379 17.3795C85.6039 17.3506 85.3664 17.3824 85.1482 17.4716C84.93 17.5608 84.7383 17.7045 84.5916 17.889C84.4062 18.1057 84.2867 18.371 84.2473 18.6534C84.2172 19.0011 84.2381 19.3514 84.3092 19.6931C84.4056 20.2027 84.4814 20.5814 84.5296 20.8361C84.5615 20.9722 84.5633 21.1136 84.5347 21.2504C84.5062 21.3872 84.448 21.5161 84.3643 21.628C84.2874 21.7403 84.1724 21.821 84.0407 21.8552C83.9386 21.8801 83.8321 21.8812 83.7294 21.8585C83.6268 21.8359 83.5307 21.79 83.4485 21.7244C83.386 21.6774 83.3345 21.6173 83.2976 21.5483C83.2608 21.4793 83.2394 21.4031 83.2351 21.325C83.2177 21.0535 83.2983 20.7847 83.4623 20.5676L82.6842 19.9823C82.5111 20.2108 82.3889 20.4738 82.3261 20.7535C82.2717 21.007 82.2836 21.2703 82.3606 21.5178C82.4705 21.8597 82.6789 22.1615 82.9596 22.3854Z" fill="#3A3A39"/>
<path d="M85.5624 24.6915L86.6848 23.9479L87.4285 24.7191L86.6435 25.807L87.3872 26.5851L90.7405 21.7651L89.7628 20.7598L84.8188 23.9341L85.5624 24.6915ZM89.3014 22.1713L87.9242 24.0236L87.3941 23.4728L89.3014 22.1713Z" fill="#3A3A39"/>
<path d="M88.6955 28.1848L90.41 26.8489L90.775 27.3171C90.7894 27.343 90.808 27.3662 90.83 27.386L89.5011 29.2107L90.1897 30.0852L91.7114 27.9369C91.905 27.9988 92.1107 28.013 92.3109 27.9782C92.5111 27.9434 92.7 27.8607 92.8614 27.7372L93.5499 27.2208C93.696 27.1197 93.8202 26.9902 93.9149 26.8399C94.0095 26.6896 94.0728 26.5217 94.1008 26.3462C94.1115 26.1198 94.0768 25.8935 93.9987 25.6806C93.9207 25.4678 93.8009 25.2727 93.6463 25.1068L92.5997 23.8398L88.0551 27.3791L88.6955 28.1848ZM92.5446 25.1894L92.9233 25.6783C93.1574 25.9813 93.1506 26.2361 92.882 26.4427L92.1934 26.9591C92.1408 27.0034 92.0782 27.0341 92.0109 27.0485C91.9437 27.0629 91.874 27.0606 91.8078 27.0417C91.6604 27.014 91.5296 26.93 91.4429 26.8076L91.0573 26.3187L92.5446 25.1894Z" fill="#3A3A39"/>
<path d="M91.3396 31.7994L94.4313 29.9265L91.8491 32.6463L92.276 33.3487L95.836 32.2332L92.7374 34.113L93.2607 34.9806L98.1978 31.9991L97.4679 30.7941L93.4466 32.1574L96.497 29.1966L95.7396 27.9434L90.8094 30.9249L91.3396 31.7994Z" fill="#3A3A39"/>
<path d="M98.9152 33.4699L93.7311 35.9883L94.1764 36.9049L99.3605 34.3866L98.9152 33.4699Z" fill="#3A3A39"/>
<path d="M95.7465 40.6669L96.559 40.3432L95.8566 38.5942L97.3164 38.009L97.826 39.2897L98.6385 38.9661L98.1289 37.6853L99.5887 37.1L100.291 38.8559L101.097 38.5254L100.023 35.8262L94.6654 37.9676L95.7465 40.6669Z" fill="#3A3A39"/>
<path d="M96.3387 42.4993L99.8848 41.4596L96.738 43.8489L97.0479 44.9024L102.577 43.2843L102.295 42.2996L98.5765 43.3876L101.909 40.9982L101.586 39.8965L96.0563 41.5146L96.3387 42.4993Z" fill="#3A3A39"/>
<path d="M102.274 46.0733L97.4679 46.9616L97.6538 47.9669L102.46 47.0786L102.66 48.1391L103.521 47.9807L102.935 44.8477L102.081 45.006L102.274 46.0733Z" fill="#3A3A39"/>
<path d="M102.419 49.5576L99.2857 49.8261C99.0996 49.8432 98.9197 49.9016 98.7589 49.9969C98.5981 50.0921 98.4606 50.222 98.3562 50.377C98.114 50.7191 98.004 51.1374 98.0463 51.5544C98.0726 51.973 98.2515 52.3674 98.549 52.663C98.6762 52.8018 98.8337 52.9094 99.0092 52.9775C99.1848 53.0456 99.3736 53.0722 99.5612 53.0555L102.694 52.7801C102.881 52.7675 103.063 52.7111 103.225 52.6154C103.386 52.5197 103.523 52.3874 103.624 52.2292C103.859 51.8841 103.969 51.4683 103.934 51.052C103.898 50.6356 103.721 50.244 103.431 49.9432C103.302 49.8065 103.145 49.7008 102.969 49.634C102.794 49.5672 102.606 49.541 102.419 49.5576ZM102.963 51.52C102.924 51.5754 102.874 51.6218 102.816 51.6563C102.757 51.6907 102.693 51.7123 102.625 51.7197L99.4785 51.9951C99.4108 51.9998 99.3428 51.9893 99.2797 51.9642C99.2165 51.9392 99.1598 51.9004 99.1136 51.8505C99.0139 51.739 98.9533 51.598 98.9409 51.4489C98.9284 51.2998 98.9649 51.1507 99.0447 51.0242C99.0805 50.966 99.1299 50.9174 99.1887 50.8826C99.2475 50.8478 99.3139 50.8279 99.3822 50.8246L102.522 50.5491C102.59 50.5423 102.659 50.5518 102.722 50.577C102.786 50.6021 102.842 50.6422 102.887 50.6937C102.992 50.8013 103.056 50.9429 103.066 51.0931C103.083 51.2431 103.046 51.3943 102.963 51.52Z" fill="#3A3A39"/>
<path d="M102.481 58.6398C102.235 58.6247 101.998 58.5465 101.792 58.4126C101.44 58.1956 101.112 57.9417 100.814 57.6552C100.436 57.2971 100.16 57.0423 99.995 56.8771L99.6851 56.5879L99.4028 56.34C99.3085 56.2516 99.2072 56.1709 99.0998 56.099L98.3011 56.0508L98.1152 59.3009L98.9621 59.3491L99.0792 57.3453C99.0792 57.3453 99.1136 57.3453 99.1618 57.3935C99.21 57.4417 99.3615 57.5519 99.5061 57.6827L99.7333 57.8824L100.332 58.4126C100.641 58.7203 100.975 59.0013 101.331 59.2527C101.663 59.4735 102.048 59.6019 102.446 59.6245C102.636 59.6351 102.826 59.6036 103.002 59.5322C103.178 59.4608 103.337 59.3512 103.465 59.2114C103.768 58.9168 103.945 58.5175 103.961 58.0959C104.007 57.6711 103.894 57.2442 103.644 56.8978C103.501 56.7116 103.316 56.5613 103.105 56.4585C102.893 56.3558 102.661 56.3034 102.426 56.3056H102.274L102.219 57.3109H102.439C102.552 57.3135 102.663 57.3418 102.763 57.3935C102.887 57.4412 102.992 57.5284 103.062 57.6416C103.132 57.7548 103.162 57.8879 103.149 58.0201C103.147 58.1103 103.127 58.1991 103.089 58.281C103.051 58.3628 102.996 58.4358 102.928 58.4953C102.867 58.548 102.796 58.5879 102.719 58.6127C102.642 58.6376 102.561 58.6468 102.481 58.6398Z" fill="#3A3A39"/>
<path d="M103.128 61.752C103.029 61.5218 102.982 61.2726 102.99 61.0221L102.391 60.9395L102.24 61.752L97.8466 61.1322L97.7089 62.1514L103.417 62.9432L103.514 62.2546C103.344 62.1226 103.212 61.9496 103.128 61.752Z" fill="#3A3A39"/>
<path d="M99.5548 65.6731L98.7706 68.5996L99.6153 68.8259L100.399 65.8994L99.5548 65.6731Z" fill="#3A3A39"/>
<path d="M99.5405 73.6153L95.0441 71.7148L94.6447 72.6582L99.148 74.5587L98.7211 75.5571L99.5267 75.8945L100.773 72.9543L99.9674 72.6169L99.5405 73.6153Z" fill="#3A3A39"/>
<path d="M93.7442 74.5795L93.2792 75.4863L98.4075 78.1163L98.8726 77.2095L93.7442 74.5795Z" fill="#3A3A39"/>
<path d="M96.5521 78.829L93.8667 77.1833C93.7078 77.0843 93.5281 77.0235 93.3417 77.0056C93.1553 76.9876 92.9674 77.0131 92.7925 77.0801C92.3945 77.2135 92.0591 77.4878 91.8492 77.8513C91.6222 78.199 91.5315 78.6183 91.5944 79.0288C91.6142 79.2155 91.6766 79.3952 91.7769 79.554C91.8772 79.7128 92.0127 79.8464 92.1728 79.9445L93.8942 80.9981L94.7412 79.6209L93.9975 79.1596L93.7014 79.6485L92.7374 79.0494C92.6802 79.0145 92.6313 78.9675 92.5944 78.9115C92.5575 78.8556 92.5335 78.7921 92.524 78.7258C92.4979 78.5723 92.5246 78.4145 92.5997 78.2782C92.6747 78.1455 92.798 78.0468 92.944 78.0027C93.0041 77.9735 93.07 77.9584 93.1368 77.9584C93.2036 77.9584 93.2695 77.9735 93.3296 78.0027L96.015 79.6553C96.0753 79.6883 96.1264 79.7359 96.1636 79.7936C96.2009 79.8513 96.2232 79.9174 96.2285 79.9858C96.2563 80.1344 96.2241 80.2879 96.139 80.4128C96.0627 80.5458 95.9402 80.6463 95.7947 80.6951C95.7304 80.7182 95.6617 80.7264 95.5937 80.7193C95.5258 80.7121 95.4603 80.6897 95.4022 80.6538L94.8307 80.3026L94.2729 81.2046L94.8376 81.5489C94.9967 81.6471 95.176 81.708 95.362 81.7271C95.5481 81.7462 95.736 81.7229 95.9117 81.6591C96.3097 81.5256 96.6452 81.2514 96.8551 80.8879C97.0856 80.539 97.1765 80.1163 97.1099 79.7036C97.0865 79.5259 97.0244 79.3555 96.9281 79.2044C96.8317 79.0533 96.7034 78.9252 96.5521 78.829Z" fill="#3A3A39"/>
<path d="M89.8454 80.9619L91.5668 82.284L91.2088 82.7522C91.1927 82.779 91.1742 82.8044 91.1537 82.8279L89.0535 82.0016L88.3649 82.8761L90.8232 83.8057C90.8124 84.0089 90.8514 84.2116 90.9365 84.3963C91.0217 84.5811 91.1506 84.7423 91.312 84.8661L92.0006 85.3757C92.1355 85.493 92.2933 85.5811 92.4639 85.6344C92.6346 85.6878 92.8144 85.7052 92.9922 85.6855C93.4368 85.5863 93.8249 85.3169 94.0732 84.935L95.051 83.6542L90.472 80.1562L89.8454 80.9619ZM91.8767 83.2962L92.2554 82.8073L93.7152 83.9228L93.3433 84.4185C93.1092 84.7215 92.8544 84.7766 92.5859 84.5769L91.8973 84.0674C91.8443 84.0253 91.8013 83.972 91.7715 83.9113C91.7418 83.8505 91.7259 83.7839 91.7252 83.7162C91.7178 83.5628 91.7695 83.4125 91.8698 83.2962H91.8767Z" fill="#3A3A39"/>
<path d="M85.6864 85.8172L86.3199 86.4162L87.6144 85.0391L88.7643 86.1064L87.821 87.1186L88.4614 87.7107L89.3978 86.7054L90.5477 87.7796L89.2601 89.1567L89.9005 89.7558L91.8836 87.6281L87.6695 83.6895L85.6864 85.8172Z" fill="#3A3A39"/>
<path d="M85.1073 89.7109L82.7587 91.625L83.3112 92.3029L85.6597 90.3888L85.1073 89.7109Z" fill="#3A3A39"/>
<path d="M77.2376 92.3723C77.0076 92.5141 76.816 92.7104 76.6798 92.9438C76.5512 93.151 76.4799 93.3886 76.4732 93.6324C76.4702 93.9597 76.5636 94.2806 76.7418 94.5551C76.8114 94.6706 76.8921 94.779 76.9828 94.8787C77.1178 95.0339 77.2845 95.1584 77.4717 95.2437C77.6983 95.346 77.9518 95.3725 78.1947 95.3194C78.1071 95.4314 78.0438 95.5604 78.0088 95.6981C77.9652 95.8646 77.9575 96.0385 77.986 96.2082C78.0144 96.3779 78.0785 96.5396 78.174 96.6828C78.2778 96.8617 78.4131 97.0203 78.5734 97.151C78.8197 97.3574 79.1337 97.4653 79.4548 97.454C79.8352 97.4376 80.2051 97.3238 80.529 97.1235L81.8373 96.3316L78.8626 91.3945L77.2376 92.3723ZM79.6751 94.8856L80.4395 96.1457L80.0745 96.3661C79.9257 96.4682 79.7427 96.5077 79.565 96.4762C79.4665 96.454 79.3742 96.4104 79.2945 96.3485C79.2147 96.2867 79.1496 96.208 79.1036 96.1182C79.0386 96.0127 78.9942 95.8959 78.9728 95.7739C78.9436 95.6379 78.961 95.4961 79.0222 95.3712C79.0834 95.2463 79.1848 95.1456 79.3102 95.0853L79.6751 94.8856ZM78.8833 94.3967C78.7973 94.4575 78.6998 94.4999 78.5967 94.5212C78.4936 94.5426 78.3872 94.5424 78.2842 94.5207C78.046 94.4313 77.8512 94.2538 77.7402 94.0249C77.6739 93.9207 77.6316 93.8031 77.6163 93.6806C77.586 93.5302 77.6068 93.374 77.6754 93.2368C77.744 93.0996 77.8565 92.9892 77.995 92.9232L78.36 92.7028L79.2482 94.1764L78.8833 94.3967Z" fill="#3A3A39"/>
<path d="M74.6967 94.1834C74.2927 94.0931 73.8701 94.1403 73.4959 94.3174C73.1217 94.4946 72.8173 94.7915 72.631 95.1612C72.5463 95.3288 72.5021 95.5139 72.5021 95.7017C72.5021 95.8895 72.5463 96.0747 72.631 96.2423L74.5315 100.277L75.4955 99.8229L73.595 95.8016C73.5661 95.7402 73.5512 95.6732 73.5512 95.6053C73.5512 95.5375 73.5661 95.4705 73.595 95.4091C73.6593 95.272 73.7696 95.1618 73.9067 95.0977C74.0438 95.0335 74.1991 95.0194 74.3455 95.0579C74.4117 95.0708 74.4737 95.0995 74.5264 95.1414C74.5792 95.1834 74.621 95.2374 74.6485 95.2989L76.549 99.3202L77.451 98.8933L75.5505 94.8651C75.4702 94.6935 75.3514 94.5427 75.2033 94.4245C75.0552 94.3063 74.8819 94.2238 74.6967 94.1834Z" fill="#3A3A39"/>
<path d="M68.2654 96.4612L68.5546 97.2806L70.338 96.6471L70.8682 98.1276L69.5668 98.5889L69.8629 99.4152L71.1643 98.947L71.6945 100.427L69.918 101.068L70.2141 101.887L72.9477 100.903L70.9991 95.4766L68.2654 96.4612Z" fill="#3A3A39"/>
<path d="M66.4063 96.992L67.3152 100.573L65.0429 97.3363L63.9825 97.6117L65.401 103.196L66.3925 102.948L65.4354 99.1886L67.7077 102.611L68.8163 102.328L67.3978 96.7441L66.4063 96.992Z" fill="#3A3A39"/>
<path d="M63.1011 99.1129C63.0752 98.9273 63.0072 98.7501 62.9021 98.595C62.7971 98.4398 62.6579 98.3108 62.4951 98.2178C62.1415 97.9929 61.7171 97.907 61.3039 97.9768C60.8873 98.0286 60.5034 98.2291 60.2229 98.5414C60.0921 98.678 59.9943 98.8427 59.937 99.023C59.8797 99.2032 59.8644 99.3941 59.8923 99.5812L60.3468 102.694C60.3736 102.879 60.4421 103.056 60.547 103.211C60.652 103.366 60.7907 103.495 60.9527 103.589C61.3106 103.809 61.7363 103.892 62.1509 103.823C62.5658 103.772 62.9478 103.571 63.225 103.258C63.3552 103.123 63.4527 102.959 63.51 102.78C63.5673 102.601 63.5829 102.411 63.5556 102.225L63.1011 99.1129ZM62.4125 102.762C62.3098 102.874 62.1705 102.945 62.02 102.962C61.8703 102.983 61.7178 102.954 61.5862 102.879C61.528 102.846 61.4784 102.799 61.4413 102.743C61.4043 102.687 61.3808 102.623 61.3728 102.556L60.9183 99.4366C60.9069 99.3687 60.9115 99.2991 60.9319 99.2333C60.9522 99.1675 60.9876 99.1074 61.0354 99.0578C61.1344 98.9454 61.272 98.8742 61.421 98.8582C61.5707 98.8373 61.7232 98.8664 61.8548 98.9408C61.914 98.9741 61.9646 99.0207 62.0029 99.0768C62.0411 99.1329 62.0658 99.1971 62.0751 99.2644L62.5296 102.384C62.5436 102.449 62.5435 102.517 62.5293 102.582C62.515 102.647 62.487 102.709 62.4469 102.762H62.4125Z" fill="#3A3A39"/>
<path d="M57.7371 101.269L56.8006 100.581C56.6866 100.502 56.5908 100.4 56.5195 100.281C56.4483 100.163 56.4033 100.03 56.3875 99.8923C56.3733 99.7583 56.4023 99.6232 56.4701 99.5067C56.5285 99.4197 56.6061 99.3472 56.6968 99.2947C56.7874 99.2422 56.8889 99.2111 56.9934 99.2037C57.0708 99.1964 57.1488 99.2055 57.2224 99.2304C57.2959 99.2553 57.3634 99.2955 57.4204 99.3483C57.6132 99.5297 57.7352 99.7738 57.7646 100.037L58.7355 99.9336C58.7084 99.6501 58.6216 99.3756 58.4808 99.128C58.3484 98.9012 58.1583 98.7135 57.9299 98.584C57.6216 98.42 57.2726 98.3483 56.9246 98.3774C56.7333 98.3832 56.5436 98.4133 56.3599 98.467C56.0911 98.5408 55.851 98.6944 55.6714 98.9076C55.4308 99.1981 55.3145 99.5717 55.3477 99.9474C55.3686 100.138 55.4271 100.323 55.5199 100.491C55.5681 100.574 55.6232 100.664 55.692 100.76C55.8662 100.99 56.0726 101.194 56.3049 101.366C56.4589 101.488 56.6198 101.6 56.7869 101.703C56.9527 101.804 57.1094 101.919 57.2551 102.048C57.3766 102.142 57.4776 102.261 57.5522 102.396C57.6267 102.531 57.6732 102.679 57.6889 102.832C57.7056 102.984 57.6717 103.136 57.5925 103.266C57.5478 103.337 57.4857 103.395 57.4121 103.435C57.3386 103.474 57.2561 103.495 57.1725 103.494C57.0238 103.508 56.8756 103.463 56.7593 103.37C56.6161 103.221 56.5244 103.03 56.4977 102.826L55.5268 103.018C55.5571 103.265 55.6443 103.5 55.7815 103.707C55.9109 103.892 56.0866 104.039 56.2911 104.134C56.5876 104.264 56.9113 104.321 57.2344 104.299C57.5696 104.298 57.8972 104.2 58.1778 104.017C58.3717 103.882 58.5262 103.698 58.6254 103.484C58.7247 103.27 58.765 103.033 58.7424 102.798C58.7358 102.512 58.6448 102.234 58.4808 101.999C58.2732 101.718 58.0222 101.472 57.7371 101.269Z" fill="#3A3A39"/>
<path d="M50.9684 99.6239L49.908 99.5069L49.8116 98.1297L48.7374 98.0195L49.2607 103.866L50.6379 104.017L52.3937 98.412L51.3333 98.295L50.9684 99.6239ZM50.1077 102.667L49.97 100.368L50.7205 100.443L50.1077 102.667Z" fill="#3A3A39"/>
<path d="M46.6705 97.656L45.6064 103.32L46.608 103.508L47.6721 97.8442L46.6705 97.656Z" fill="#3A3A39"/>
<path d="M43.9862 99.2861L43.4216 99.1346H43.3321L43.2908 96.8761L42.2235 96.5938L42.3061 99.2172C42.1143 99.2871 41.9418 99.4016 41.8029 99.5513C41.664 99.7009 41.5627 99.8814 41.5074 100.078L41.2939 100.884C41.2373 101.053 41.216 101.232 41.2314 101.409C41.2468 101.587 41.2985 101.76 41.3834 101.916C41.5129 102.099 41.6778 102.255 41.8682 102.373C42.0585 102.491 42.2707 102.57 42.492 102.605L44.0482 103.025L45.5355 97.4614L44.5509 97.1928L43.9862 99.2861ZM43.2977 101.896L42.6986 101.737C42.3268 101.634 42.1753 101.421 42.2648 101.104L42.4852 100.291C42.5015 100.225 42.533 100.163 42.5772 100.11C42.6214 100.058 42.6771 100.016 42.7399 99.9885C42.8798 99.9362 43.0339 99.9362 43.1737 99.9885L43.7728 100.147L43.2977 101.896Z" fill="#3A3A39"/>
<path d="M38.1747 96.0225L39.9443 96.6836L39.3866 98.1571L38.0989 97.6682L37.7891 98.4876L39.0836 98.9765L38.5258 100.443L36.7631 99.7822L36.4532 100.602L39.18 101.621L41.2044 96.2222L38.4845 95.2031L38.1747 96.0225Z" fill="#3A3A39"/>
<path d="M36.9696 96.2639C37.0795 96.0001 37.1334 95.7164 37.128 95.4307C37.1168 95.1718 37.0385 94.9203 36.9008 94.7008C36.7149 94.3997 36.4442 94.1601 36.1227 94.0122C35.9509 93.9252 35.7678 93.8627 35.5787 93.8263C35.3111 93.7593 35.0291 93.7785 34.7731 93.8814C34.4213 94.0233 34.1394 94.2979 33.9881 94.6457C33.9144 94.8246 33.8792 95.017 33.8848 95.2104C33.8789 95.3136 33.8789 95.417 33.8848 95.5202C33.9235 95.8069 34.0072 96.0858 34.1327 96.3465C34.2099 96.527 34.2997 96.7018 34.4013 96.8698C34.4963 97.0405 34.5791 97.2177 34.6491 97.4C34.7638 97.6898 34.7638 98.0123 34.6491 98.3021C34.5867 98.4401 34.4834 98.5555 34.353 98.6326C34.2804 98.673 34.1986 98.6942 34.1155 98.6942C34.0324 98.6942 33.9506 98.673 33.8779 98.6326C33.8095 98.6052 33.7474 98.5643 33.6954 98.5122C33.6433 98.4601 33.6023 98.398 33.575 98.3296C33.5073 98.1333 33.5073 97.92 33.575 97.7237L32.6316 97.4345C32.5463 97.6533 32.5156 97.8897 32.5421 98.123C32.5661 98.3473 32.6493 98.5611 32.7831 98.7427C32.9781 99.0032 33.2365 99.2094 33.5336 99.3418C33.8303 99.4965 34.164 99.5656 34.4976 99.5415C34.7318 99.5112 34.9542 99.4211 35.1435 99.28C35.3328 99.1389 35.4827 98.9516 35.5787 98.7359C35.7008 98.4785 35.753 98.1935 35.7302 97.9096C35.6716 97.5672 35.5626 97.2353 35.4066 96.9249L34.9108 95.8645C34.8498 95.7399 34.8152 95.6039 34.8093 95.4653C34.8033 95.3266 34.8262 95.1883 34.8764 95.0589C34.9317 94.9342 35.0227 94.8287 35.138 94.7559C35.2313 94.7065 35.3354 94.6806 35.441 94.6806C35.5466 94.6806 35.6506 94.7065 35.744 94.7559C35.8156 94.7866 35.8802 94.8318 35.9335 94.8887C35.9868 94.9456 36.0278 95.0129 36.0538 95.0864C36.135 95.3468 36.1203 95.6277 36.0125 95.8783L36.9696 96.2639Z" fill="#3A3A39"/>
<path d="M28.2387 92.2547L27.748 92.9785L30.2556 94.6788L30.7463 93.955L28.2387 92.2547Z" fill="#3A3A39"/>
<path d="M25.4635 88.5292L24.6717 87.8407L25.3602 86.6976L24.5615 85.9746L21.5111 90.9875L22.5508 91.9377L27.2882 88.4948L26.5033 87.8062L25.4635 88.5292ZM22.9571 90.471L24.2172 88.5361L24.775 89.0457L22.9571 90.471Z" fill="#3A3A39"/>
<path d="M23.1912 84.4203L21.5593 85.8526L21.1668 85.4119L21.1117 85.343L22.3236 83.4426L21.5937 82.6094L20.2166 84.8404C20.0189 84.7928 19.8128 84.793 19.6152 84.8409C19.4177 84.8888 19.2344 84.983 19.0804 85.1158L18.4538 85.6735C18.3124 85.7827 18.1949 85.9197 18.1084 86.076C18.022 86.2323 17.9685 86.4047 17.9512 86.5825C17.9649 87.0377 18.155 87.4698 18.4814 87.7875L19.5487 88.9925L23.8729 85.1847L23.1912 84.4203ZM19.5349 87.6498L19.1218 87.1884C18.867 86.8923 18.8601 86.6376 19.1218 86.4172L19.7484 85.8595C19.7997 85.8147 19.8601 85.7816 19.9256 85.7626C19.991 85.7435 20.0597 85.739 20.1271 85.7493C20.2774 85.7708 20.4146 85.8467 20.5127 85.9627L20.9189 86.4241L19.5349 87.6498Z" fill="#3A3A39"/>
<path d="M20.4851 81.7205C20.5178 81.3013 20.3952 80.8847 20.1408 80.55C19.9008 80.2087 19.5467 79.9645 19.1424 79.8614C18.9621 79.809 18.7722 79.7986 18.5872 79.8308C18.4022 79.863 18.2271 79.9371 18.0751 80.0473L16.4432 81.2248L17.3934 82.5468L18.082 82.0373L17.7515 81.5759L18.6673 80.8874C18.7221 80.8474 18.7853 80.8204 18.8521 80.8085C18.9189 80.7966 18.9876 80.8 19.0529 80.8185C19.2008 80.8576 19.3301 80.9479 19.4178 81.0733C19.5113 81.1923 19.5556 81.3426 19.5418 81.4933C19.5384 81.5609 19.5199 81.6269 19.4878 81.6865C19.4556 81.7461 19.4105 81.7977 19.3559 81.8376L16.8563 83.6968C16.8002 83.7368 16.7358 83.7638 16.6679 83.7758C16.6 83.7877 16.5302 83.7842 16.4638 83.7656C16.3187 83.7201 16.1928 83.6279 16.1056 83.5034C16.0184 83.3788 15.9749 83.2289 15.9818 83.077C15.9852 83.0094 16.0037 82.9434 16.0358 82.8839C16.068 82.8243 16.1131 82.7726 16.1677 82.7327L16.7117 82.3334L16.092 81.4796L15.5618 81.8583C15.4093 81.9688 15.2838 82.1122 15.1943 82.2779C15.1049 82.4436 15.054 82.6273 15.0454 82.8154C15.0254 83.2316 15.1474 83.6422 15.3913 83.98C15.6353 84.3178 15.9867 84.5626 16.3881 84.6745C16.5682 84.7285 16.7584 84.7397 16.9437 84.7075C17.1289 84.6752 17.3041 84.6003 17.4554 84.4886L20.01 82.6501C20.152 82.539 20.2681 82.3983 20.3502 82.2378C20.4323 82.0772 20.4783 81.9007 20.4851 81.7205Z" fill="#3A3A39"/>
<path d="M17.0767 75.8457L16.3192 76.2864L17.2764 77.9114L15.9199 78.7102L15.2244 77.5189L14.467 77.9596L15.1624 79.1509L13.8059 79.9427L12.8557 78.3108L12.0983 78.7584L13.5718 81.2717L18.5433 78.359L17.0767 75.8457Z" fill="#3A3A39"/>
<path d="M16.216 74.1248L12.8626 75.681L15.6238 72.8509L15.1624 71.8594L9.92926 74.2832L10.3631 75.2127L13.8748 73.5808L10.9346 76.4384L11.4166 77.485L16.6429 75.0544L16.216 74.1248Z" fill="#3A3A39"/>
<path d="M9.8122 71.4814L14.4325 69.8839L14.0951 68.9199L9.48168 70.5174L9.12362 69.4983L8.29733 69.7806L9.34397 72.7966L10.1703 72.5143L9.8122 71.4814Z" fill="#3A3A39"/>
<path d="M13.2012 65.8979L7.6319 67.3809L7.89411 68.3656L13.4634 66.8827L13.2012 65.8979Z" fill="#3A3A39"/>
<path d="M12.7318 63.7815L9.0961 64.4425L12.477 62.3975L12.2773 61.3164L6.60345 62.3562L6.78937 63.3615L10.6041 62.6591L7.03726 64.6904L7.24383 65.8197L12.9108 64.7868L12.7318 63.7815Z" fill="#3A3A39"/>
<path d="M12.0363 59.225L10.7005 59.0735L10.6247 58.0131L11.9261 57.6757L11.8504 56.6016L6.18341 58.1509L6.28669 59.528L12.112 60.2648L12.0363 59.225ZM7.55367 58.7637L9.79154 58.2266L9.84664 58.9771L7.55367 58.7637Z" fill="#3A3A39"/>
<path d="M9.12364 48.7125L8.91156 51.7422L9.78606 51.8034L9.99815 48.7737L9.12364 48.7125Z" fill="#3A3A39"/>
</g>
<defs>
<clipPath id="clip0_271_3981">
<rect width="110" height="110" fill="white"/>
</clipPath>
</defs>
</svg>
