<svg width="138" height="49" viewBox="0 0 138 49" fill="none" xmlns="http://www.w3.org/2000/svg">
<g clip-path="url(#clip0_271_3932)">
<path d="M137.02 8.66747C135.992 7.38148 134.171 6.72841 131.58 6.72266C130.441 6.77662 129.326 7.05884 128.307 7.55125C127.287 8.04366 126.386 8.7354 125.66 9.58231L125.062 7.3038H119.682L109.957 43.2655H1.73047L-0.00598145 48.9906H108.394V49.0079H114.894C115.21 49.0076 115.517 48.9066 115.767 48.7208C116.016 48.535 116.195 48.2748 116.275 47.9808L119.485 36.053C120.307 37.1463 121.622 37.7533 123.424 37.854C128.675 37.854 132.053 35.1871 133.457 29.9626L137.549 14.8558C138.296 12.1198 138.117 10.0369 137.02 8.66747ZM130.014 14.6141L125.923 29.7238C125.543 31.1363 124.572 31.7923 122.868 31.7923C122.294 31.7923 121.547 31.7088 121.227 31.3118C121.003 31.0241 120.973 30.5811 121.138 29.9626L125.229 14.8558C125.609 13.4432 126.571 12.7844 128.263 12.7844C128.843 12.7844 129.602 12.8707 129.925 13.2706C130.149 13.5468 130.179 13.9984 130.014 14.6141Z" fill="#3A3A39"/>
<path d="M13.1951 0.886119C13.2609 0.644456 13.494 0 14.4952 0C15.3918 0 15.3918 0.520737 15.3171 0.802677C15.31 0.829114 15.2949 0.852906 15.2735 0.870878C15.2522 0.88885 15.2257 0.900188 15.1976 0.903398L14.7074 0.995409C14.6147 1.00979 14.5609 0.95804 14.5699 0.883239C14.5938 0.722131 14.546 0.627223 14.3189 0.627223C14.02 0.627223 13.9393 0.799789 13.8616 1.07885L13.7152 1.60535C13.6375 1.89305 13.6106 2.05705 13.9214 2.05705C14.0083 2.06531 14.0955 2.0435 14.1672 1.99552C14.2389 1.94755 14.2906 1.87651 14.3129 1.79521C14.3265 1.7579 14.3536 1.72662 14.3893 1.70706C14.425 1.6875 14.4669 1.68101 14.5072 1.6888L14.9555 1.778C14.9676 1.77956 14.9792 1.78387 14.9893 1.79057C14.9994 1.79727 15.0077 1.80618 15.0135 1.81656C15.0194 1.82694 15.0225 1.83848 15.0228 1.85027C15.0231 1.86207 15.0205 1.87377 15.0152 1.88441C14.9226 2.1721 14.6386 2.68421 13.748 2.68421C12.7528 2.68421 12.8753 2.03687 12.9411 1.79809L13.1951 0.886119Z" fill="#3A3A39"/>
<path d="M17.7978 2.49435C17.7906 2.53013 17.7704 2.56227 17.7408 2.58496C17.7112 2.60765 17.6742 2.61938 17.6364 2.61804H17.1671C17.0864 2.61804 17.0506 2.5806 17.0715 2.50868L17.1582 2.19226C17.1791 2.11746 17.1582 2.0829 17.0655 2.0829H16.7039C16.6685 2.07933 16.633 2.08855 16.6043 2.10875C16.5756 2.12895 16.5557 2.15873 16.5485 2.19226L16.4588 2.50868C16.451 2.5419 16.431 2.57132 16.4024 2.59142C16.3739 2.61152 16.3387 2.62097 16.3034 2.61804H15.8342C15.7535 2.61804 15.7206 2.57491 15.7415 2.49435L16.1719 0.946524C16.3004 0.489091 16.5215 0 17.463 0C18.4044 0 18.3596 0.489091 18.2281 0.946524L17.7978 2.49435ZM17.4989 0.946524C17.5497 0.773907 17.5437 0.684748 17.2658 0.684748C16.9878 0.684748 16.937 0.773907 16.8892 0.946524L16.7786 1.34646C16.7577 1.4155 16.7935 1.45575 16.8742 1.45575H17.2329C17.2693 1.45793 17.3051 1.44756 17.3342 1.42646C17.3633 1.40535 17.3835 1.37493 17.3913 1.3407L17.4989 0.946524Z" fill="#3A3A39"/>
<path d="M21.0523 2.4188C21.0566 2.4448 21.0546 2.47134 21.0465 2.49648C21.0384 2.52162 21.0245 2.54468 21.0057 2.56384C20.987 2.58299 20.964 2.59777 20.9384 2.60704C20.9128 2.6163 20.8853 2.6198 20.8581 2.61729H20.3799C20.3381 2.61729 20.3052 2.60005 20.2992 2.56552L20.0661 1.83189C20.0636 1.82703 20.0598 1.82284 20.055 1.81981C20.0503 1.81679 20.0449 1.81502 20.0392 1.81461H19.8718C19.8357 1.81449 19.8005 1.82526 19.771 1.84538C19.7415 1.86549 19.7193 1.89392 19.7074 1.92678L19.5491 2.50217C19.5382 2.53504 19.5166 2.56373 19.4876 2.58393C19.4585 2.60413 19.4235 2.61481 19.3877 2.61441H18.9185C18.8437 2.61441 18.8019 2.56546 18.8198 2.50217L19.4684 0.174773C19.4783 0.141885 19.4991 0.113026 19.5278 0.0927357C19.5564 0.0724459 19.5912 0.0618223 19.6267 0.0625335H20.5592C21.3034 0.0625335 21.5276 0.350227 21.3632 0.925615C21.3335 1.0727 21.2722 1.21222 21.1832 1.3351C21.0941 1.45798 20.9793 1.5615 20.8461 1.63909C20.8371 1.64367 20.8296 1.6508 20.8248 1.65953C20.82 1.66826 20.8181 1.67823 20.8193 1.68805L21.0523 2.4188ZM20.1827 0.692636C20.1467 0.691772 20.1115 0.702221 20.0823 0.722487C20.0532 0.742753 20.0317 0.771686 20.0213 0.804806L19.9465 1.07522C19.9286 1.14139 19.9705 1.18746 20.0452 1.18746H20.2574C20.4606 1.18746 20.5562 1.16729 20.628 0.940013C20.6997 0.712735 20.5981 0.692636 20.3978 0.692636H20.1827Z" fill="#3A3A39"/>
<path d="M24.2264 0.886119C24.2921 0.644456 24.5253 0 25.5265 0C26.4231 0 26.4231 0.520737 26.3484 0.802677C26.3413 0.829114 26.3261 0.852906 26.3048 0.870878C26.2834 0.88885 26.257 0.900188 26.2288 0.903398L25.7387 0.995409C25.646 1.00979 25.5922 0.95804 25.6012 0.883239C25.6251 0.722131 25.5773 0.627223 25.3501 0.627223C25.0513 0.627223 24.9706 0.799789 24.8929 1.07885L24.7464 1.60535C24.6687 1.89305 24.6418 2.05705 24.9526 2.05705C25.0395 2.06531 25.1267 2.0435 25.1984 1.99552C25.2702 1.94755 25.3218 1.87651 25.3442 1.79521C25.3578 1.7579 25.3849 1.72662 25.4206 1.70706C25.4563 1.6875 25.4981 1.68101 25.5384 1.6888L25.9867 1.778C25.9988 1.77956 26.0105 1.78387 26.0205 1.79057C26.0306 1.79727 26.0389 1.80618 26.0448 1.81656C26.0506 1.82694 26.0538 1.83848 26.0541 1.85027C26.0544 1.86207 26.0518 1.87377 26.0465 1.88441C25.9539 2.1721 25.67 2.68421 24.7793 2.68421C23.7841 2.68421 23.9066 2.03687 23.9723 1.79809L24.2264 0.886119Z" fill="#3A3A39"/>
<path d="M29.0501 1.79809C28.9844 2.03687 28.7513 2.68421 27.7531 2.68421C26.7548 2.68421 26.8804 2.03687 26.9461 1.79809L27.2001 0.886119C27.2689 0.644456 27.499 0 28.5002 0C29.5015 0 29.3729 0.644456 29.3042 0.886119L29.0501 1.79809ZM28.5301 1.07885C28.6078 0.791158 28.6347 0.627223 28.3239 0.627223C28.0131 0.627223 27.9473 0.799789 27.8696 1.07885L27.7202 1.60535C27.6425 1.89305 27.6155 2.05705 27.9264 2.05705C28.2372 2.05705 28.3059 1.88442 28.3836 1.60535L28.5301 1.07885Z" fill="#3A3A39"/>
<path d="M32.1165 1.79809C32.0507 2.03687 31.8176 2.68421 30.8194 2.68421C29.8212 2.68421 29.9467 2.03687 30.0124 1.79809L30.2665 0.886119C30.3352 0.644456 30.5654 0 31.5666 0C32.5678 0 32.4393 0.644456 32.3705 0.886119L32.1165 1.79809ZM31.5964 1.07885C31.6741 0.791158 31.7011 0.627223 31.3932 0.627223C31.0854 0.627223 31.0136 0.799789 30.9329 1.07885L30.7895 1.60535C30.7088 1.89305 30.6849 2.05705 30.9927 2.05705C31.3005 2.05705 31.3723 1.88442 31.45 1.60535L31.5964 1.07885Z" fill="#3A3A39"/>
<path d="M34.1996 0.0652042C34.2833 0.0652042 34.3162 0.099764 34.2953 0.174564L33.8201 1.88057C33.8022 1.94962 33.835 1.98993 33.9157 1.98993H34.8512C34.9349 1.98993 34.9647 2.0273 34.9438 2.09922L34.8302 2.50772C34.823 2.54125 34.8031 2.57103 34.7744 2.59123C34.7457 2.61143 34.7102 2.62065 34.6748 2.61708H33.0191C32.9414 2.61708 32.9056 2.57677 32.9235 2.50772L33.575 0.174564C33.5822 0.141039 33.6021 0.111253 33.6308 0.0910517C33.6595 0.0708507 33.695 0.0616389 33.7304 0.0652042H34.1996Z" fill="#3A3A39"/>
<path d="M36.9971 0.0652042C37.0808 0.0652042 37.1137 0.099764 37.0927 0.174564L36.4442 2.50772C36.4357 2.54117 36.4151 2.57061 36.3861 2.59067C36.357 2.61073 36.3214 2.62012 36.2858 2.61708H35.8016C35.7239 2.61708 35.688 2.57677 35.706 2.50772L36.3575 0.174564C36.3648 0.141039 36.3846 0.111253 36.4134 0.0910517C36.4421 0.0708507 36.4775 0.0616389 36.5129 0.0652042H36.9971Z" fill="#3A3A39"/>
<path d="M38.9009 0.0652042C38.9726 0.0652042 39.0115 0.0911079 39.0234 0.148647L39.2565 1.36271C39.2565 1.39435 39.2984 1.3886 39.3103 1.36271L39.6361 0.186083C39.644 0.152325 39.6645 0.122519 39.6937 0.10236C39.7229 0.0822008 39.7588 0.0730601 39.7945 0.0767232H40.2637C40.3474 0.0767232 40.3773 0.111283 40.3593 0.186083L39.7078 2.51924C39.7 2.55246 39.6799 2.58188 39.6514 2.60198C39.6228 2.62208 39.5877 2.63153 39.5524 2.6286H38.9367C38.865 2.6286 38.8262 2.6027 38.8142 2.54516L38.5811 1.3311C38.5811 1.29658 38.5363 1.30521 38.5273 1.3311L38.1985 2.50772C38.1907 2.54094 38.1707 2.57036 38.1421 2.59046C38.1136 2.61056 38.0784 2.62001 38.0431 2.61708H37.5739C37.4932 2.61708 37.4603 2.57677 37.4783 2.50772L38.1298 0.174564C38.137 0.141039 38.1569 0.111253 38.1856 0.0910517C38.2143 0.0708507 38.2498 0.0616389 38.2852 0.0652042H38.9009Z" fill="#3A3A39"/>
<path d="M41.1812 0.886119C41.2469 0.644456 41.4801 0 42.4783 0C43.36 0 43.3749 0.503461 43.3062 0.788278C43.2992 0.819916 43.2817 0.848558 43.2564 0.869824C43.231 0.89109 43.1992 0.90388 43.1657 0.906277L42.6666 0.998289C42.5769 0.998289 42.5411 0.981075 42.553 0.903398C42.5859 0.727904 42.553 0.615704 42.3049 0.615704C42.0061 0.615704 41.9254 0.78827 41.8477 1.06733L41.7012 1.59383C41.6235 1.88153 41.5966 2.04553 41.9074 2.04553C42.2183 2.04553 42.2841 1.87293 42.3349 1.69456H42.0778C41.9971 1.69456 41.9612 1.65424 41.9821 1.5852L42.0628 1.2975C42.0701 1.26398 42.0899 1.23426 42.1187 1.21406C42.1474 1.19386 42.1829 1.18465 42.2183 1.18821H43.0581C43.1418 1.18821 43.1717 1.2227 43.1508 1.2975L43.0162 1.78945C42.9475 2.02823 42.7174 2.67557 41.7162 2.67557C40.715 2.67557 40.8435 2.02823 40.9122 1.78945L41.1812 0.886119Z" fill="#3A3A39"/>
<path d="M47.7354 2.49435C47.7283 2.53013 47.7081 2.56227 47.6785 2.58496C47.6489 2.60765 47.6119 2.61938 47.574 2.61804H47.1049C47.0272 2.61804 46.9913 2.5806 47.0092 2.50868L47.0989 2.19226C47.1198 2.11746 47.0989 2.0829 47.0032 2.0829H46.6446C46.6089 2.07924 46.573 2.08838 46.5438 2.10854C46.5146 2.1287 46.4941 2.1585 46.4862 2.19226L46.3995 2.50868C46.3911 2.54213 46.3704 2.57157 46.3414 2.59163C46.3123 2.61169 46.2767 2.62108 46.2411 2.61804H45.7719C45.6942 2.61804 45.6583 2.57491 45.6822 2.49435L46.1126 0.946524C46.2411 0.489091 46.4593 0 47.4037 0C48.3482 0 48.3004 0.489091 48.1659 0.946524L47.7354 2.49435ZM47.4366 0.946524C47.4844 0.773907 47.4784 0.684748 47.2034 0.684748C46.9285 0.684748 46.8717 0.773907 46.8239 0.946524L46.7133 1.34646C46.6954 1.4155 46.7283 1.45575 46.809 1.45575H47.1706C47.2064 1.45723 47.2416 1.44652 47.2701 1.42547C47.2985 1.40443 47.3183 1.37441 47.326 1.3407L47.4366 0.946524Z" fill="#3A3A39"/>
<path d="M49.8185 0.803438C49.8394 0.728638 49.8186 0.694148 49.7229 0.694148H49.1252C49.0445 0.694148 49.0116 0.653835 49.0295 0.584788L49.1431 0.176285C49.1509 0.143064 49.171 0.113713 49.1996 0.0936156C49.2281 0.0735187 49.2632 0.0639992 49.2985 0.0669253H51.4444C51.5281 0.0669253 51.5609 0.101485 51.54 0.176285L51.4265 0.584788C51.4187 0.618009 51.3986 0.647361 51.3701 0.667458C51.3415 0.687555 51.3063 0.697074 51.2711 0.694148H50.6733C50.6376 0.690485 50.6017 0.699556 50.5725 0.719715C50.5433 0.739874 50.5228 0.76968 50.5149 0.803438L50.0397 2.50944C50.0319 2.54266 50.0119 2.57209 49.9833 2.59218C49.9547 2.61228 49.9196 2.62173 49.8843 2.6188H49.4151C49.3344 2.6188 49.3015 2.57849 49.3194 2.50944L49.8185 0.803438Z" fill="#3A3A39"/>
<path d="M54.9292 0.0669253C55.0129 0.0669253 55.0428 0.101485 55.0248 0.176285L54.3733 2.50944C54.3654 2.54266 54.3454 2.57209 54.3169 2.59218C54.2883 2.61228 54.2532 2.62173 54.2179 2.6188H53.7576C53.6769 2.6188 53.6411 2.57849 53.662 2.50944L54.3105 0.176285C54.3183 0.143064 54.3384 0.113713 54.367 0.0936156C54.3956 0.0735187 54.4307 0.0639992 54.4659 0.0669253H54.9292Z" fill="#3A3A39"/>
<path d="M56.573 0.801717C56.594 0.726917 56.573 0.692427 56.4774 0.692427H55.8796C55.799 0.692427 55.7631 0.652113 55.7841 0.583067L55.8976 0.174564C55.9048 0.141039 55.9247 0.111253 55.9534 0.0910517C55.9821 0.0708507 56.0176 0.0616389 56.053 0.0652042H58.2168C58.3005 0.0652042 58.3334 0.099764 58.3125 0.174564L58.1989 0.583067C58.1911 0.616288 58.171 0.64564 58.1425 0.665737C58.1139 0.685834 58.0787 0.695353 58.0435 0.692427H57.4457C57.4105 0.689501 57.3753 0.69895 57.3468 0.719047C57.3182 0.739144 57.2981 0.768496 57.2903 0.801717L56.8151 2.50772C56.8073 2.54094 56.7872 2.57036 56.7587 2.59046C56.7301 2.61056 56.695 2.62001 56.6597 2.61708H56.1905C56.1098 2.61708 56.0739 2.57677 56.0948 2.50772L56.573 0.801717Z" fill="#3A3A39"/>
<path d="M60.3089 0.969303C60.2222 0.969303 60.1893 0.952022 60.1982 0.877222C60.1982 0.727621 60.0966 0.632654 59.8994 0.632654C59.7021 0.632654 59.6005 0.718987 59.6005 0.802418C59.5796 1.09011 60.9066 1.09015 60.6735 1.91871C60.6436 2.02803 60.3208 2.67243 59.3286 2.67243C58.4469 2.67243 58.3991 2.16897 58.4559 1.88415C58.4634 1.85196 58.4813 1.82292 58.5071 1.8012C58.5329 1.77947 58.5652 1.76621 58.5993 1.76334L59.0984 1.67414C59.1851 1.65975 59.224 1.69142 59.209 1.7691C59.1792 1.94172 59.3047 2.05679 59.5079 2.05679C59.7111 2.05679 59.8935 1.95036 59.8965 1.85254C59.8965 1.54183 58.6202 1.61088 58.8563 0.773691C58.9413 0.533768 59.108 0.328474 59.3293 0.191139C59.5506 0.0538043 59.8136 -0.00755777 60.0757 0.01702C60.9395 0.01702 61.0022 0.506133 60.9544 0.770811C60.9474 0.802449 60.93 0.831021 60.9046 0.852287C60.8793 0.873553 60.8474 0.886343 60.8139 0.888741L60.3089 0.969303Z" fill="#3A3A39"/>
<path d="M65.9277 0.0669253C66.0114 0.0669253 66.0442 0.101485 66.0233 0.176285L65.9097 0.584788C65.9019 0.618009 65.8819 0.647361 65.8533 0.667458C65.8247 0.687555 65.7896 0.697074 65.7543 0.694148H64.6963C64.661 0.691222 64.6259 0.700671 64.5974 0.720768C64.5688 0.740865 64.5487 0.770217 64.5409 0.803438L64.508 0.918558C64.4901 0.987604 64.526 1.02785 64.6037 1.02785H65.297C65.3807 1.02785 65.4106 1.06521 65.3897 1.13714L65.2762 1.54571C65.2683 1.57893 65.2482 1.60828 65.2197 1.62838C65.1911 1.64848 65.156 1.65793 65.1207 1.655H64.4303C64.3951 1.65207 64.3599 1.66152 64.3313 1.68162C64.3027 1.70172 64.2827 1.73114 64.2749 1.76436L64.0657 2.50944C64.0579 2.54266 64.0378 2.57209 64.0092 2.59218C63.9807 2.61228 63.9456 2.62173 63.9103 2.6188H63.4171C63.3364 2.6188 63.3006 2.57849 63.3215 2.50944L63.9701 0.176285C63.9779 0.143064 63.9979 0.113713 64.0265 0.0936156C64.055 0.0735187 64.0902 0.0639992 64.1255 0.0669253H65.9277Z" fill="#3A3A39"/>
<path d="M67.5206 0.0669253C67.6043 0.0669253 67.6342 0.101485 67.6163 0.176285L66.9648 2.50944C66.9569 2.54266 66.9369 2.57209 66.9084 2.59218C66.8798 2.61228 66.8446 2.62173 66.8093 2.6188H66.3491C66.2684 2.6188 66.2325 2.57849 66.2534 2.50944L66.902 0.176285C66.9098 0.143064 66.9298 0.113713 66.9584 0.0936156C66.987 0.0735187 67.0222 0.0639992 67.0574 0.0669253H67.5206Z" fill="#3A3A39"/>
<path d="M69.4334 0.0657579C69.4615 0.0614892 69.4902 0.0677851 69.5135 0.0833173C69.5369 0.0988495 69.5531 0.122439 69.5589 0.1492L69.7891 1.36326C69.7891 1.39491 69.8339 1.38915 69.8428 1.36326L70.1716 0.186637C70.1788 0.153111 70.1987 0.123325 70.2274 0.103124C70.2562 0.0829234 70.2917 0.0737116 70.327 0.0772769H70.7963C70.88 0.0772769 70.9128 0.111837 70.8919 0.186637L70.2433 2.51979C70.2349 2.55325 70.2143 2.58268 70.1852 2.60274C70.1561 2.6228 70.1206 2.63219 70.0849 2.62915H69.4692C69.3975 2.62915 69.3587 2.60325 69.3467 2.54571L69.1136 1.33165C69.1136 1.29713 69.0718 1.30576 69.0628 1.33165L68.734 2.50827C68.7262 2.5415 68.7062 2.57092 68.6776 2.59101C68.6491 2.61111 68.6139 2.62056 68.5786 2.61764H68.1094C68.0288 2.61764 67.9929 2.57732 68.0138 2.50827L68.6623 0.175118C68.6701 0.141897 68.6902 0.112545 68.7188 0.0924482C68.7474 0.0723512 68.7825 0.0628318 68.8177 0.0657579H69.4334Z" fill="#3A3A39"/>
<path d="M73.8536 0.0669253C73.9373 0.0669253 73.9701 0.101485 73.9492 0.176285L73.8357 0.584788C73.8279 0.618009 73.8078 0.647361 73.7793 0.667458C73.7507 0.687555 73.7155 0.697074 73.6803 0.694148H72.6671C72.6314 0.690485 72.5955 0.699556 72.5663 0.719715C72.5371 0.739874 72.5166 0.76968 72.5087 0.803438L72.4758 0.918558C72.4579 0.987604 72.4938 1.02785 72.5715 1.02785H73.223C73.3067 1.02785 73.3366 1.06521 73.3186 1.13714L73.205 1.54571C73.196 1.57887 73.1753 1.60792 73.1464 1.62789C73.1174 1.64786 73.0822 1.65745 73.0467 1.655H72.3981C72.3628 1.65207 72.3277 1.66152 72.2992 1.68162C72.2706 1.70172 72.2505 1.73114 72.2427 1.76436L72.2098 1.88229C72.1889 1.95134 72.2098 1.99165 72.3054 1.99165H73.3186C73.4023 1.99165 73.4352 2.02902 73.4143 2.10094L73.3007 2.50944C73.2929 2.54266 73.2729 2.57209 73.2443 2.59218C73.2157 2.61228 73.1805 2.62173 73.1453 2.6188H71.385C71.3043 2.6188 71.2684 2.57849 71.2893 2.50944L71.9378 0.176285C71.9456 0.143064 71.9657 0.113713 71.9943 0.0936156C72.0229 0.0735187 72.058 0.0639992 72.0932 0.0669253H73.8536Z" fill="#3A3A39"/>
<path d="M76.0593 0.968898C75.9696 0.968898 75.9368 0.951616 75.9458 0.876816C75.9458 0.727215 75.8471 0.632248 75.6469 0.632248C75.4467 0.632248 75.348 0.718582 75.348 0.802013C75.3271 1.08971 76.654 1.08974 76.4209 1.9183C76.391 2.02762 76.0683 2.67202 75.076 2.67202C74.1943 2.67202 74.1466 2.16856 74.2063 1.88374C74.2128 1.85158 74.23 1.82234 74.2554 1.80051C74.2807 1.77868 74.3129 1.76549 74.3468 1.76294L74.8459 1.67373C74.9355 1.65935 74.9714 1.69102 74.9595 1.76869C74.9266 1.94131 75.0521 2.05639 75.2584 2.05639C75.4646 2.05639 75.6439 1.94995 75.6469 1.85214C75.6469 1.54143 74.3737 1.61047 74.6068 0.773286C74.6927 0.533942 74.8595 0.329261 75.0806 0.192068C75.3017 0.0548756 75.5643 -0.00692374 75.8262 0.0166145C76.6899 0.0166145 76.7557 0.505728 76.7228 0.770406C76.7147 0.802068 76.6966 0.830432 76.6708 0.851601C76.6451 0.872769 76.6131 0.885645 76.5793 0.888335L76.0593 0.968898Z" fill="#3A3A39"/>
<path d="M78.2948 0.803438C78.3158 0.728638 78.2949 0.694148 78.1993 0.694148H77.6015C77.5208 0.694148 77.4879 0.653835 77.5059 0.584788L77.6194 0.176285C77.6272 0.143064 77.6473 0.113713 77.6759 0.0936156C77.7044 0.0735187 77.7396 0.0639992 77.7748 0.0669253H79.9207C80.0074 0.0669253 80.0373 0.101485 80.0163 0.176285L79.9028 0.584788C79.895 0.618009 79.8749 0.647361 79.8463 0.667458C79.8178 0.687555 79.7826 0.697074 79.7474 0.694148H79.1496C79.1139 0.690485 79.078 0.699556 79.0488 0.719715C79.0196 0.739874 78.9991 0.76968 78.9912 0.803438L78.516 2.50944C78.5082 2.54266 78.4882 2.57209 78.4596 2.59218C78.431 2.61228 78.3958 2.62173 78.3606 2.6188H77.8914C77.8137 2.6188 77.7778 2.57849 77.7958 2.50944L78.2948 0.803438Z" fill="#3A3A39"/>
<path d="M15.7266 37.4926L21.9311 14.5634C22.0745 14.0226 22.0566 13.6169 21.8772 13.3954C21.6979 13.1739 21.136 12.9869 20.3829 12.9869C18.7839 12.9869 17.9113 13.5795 17.5556 14.9029L11.4437 37.4926H3.40417L11.6291 7.10356H17.3554L17.8874 9.16054C18.6262 8.37457 19.519 7.73671 20.5145 7.28351C21.5099 6.8303 22.5885 6.57069 23.6884 6.51953C26.3543 6.51953 28.2402 7.20712 29.3072 8.53339C30.4459 9.97186 30.6371 12.1008 29.878 14.8971L23.7661 37.4926H15.7266Z" fill="#3A3A39"/>
<path d="M23.7004 6.72388C26.2945 6.72388 28.1146 7.3827 29.1398 8.66869C30.2366 10.0381 30.416 12.121 29.6718 14.8541L23.6017 37.2942H15.9985L22.1343 14.6211C22.2987 14.0054 22.2688 13.5537 22.0446 13.2747C21.7218 12.8748 20.9627 12.7884 20.3829 12.7884C18.6943 12.7884 17.7289 13.4473 17.3524 14.8599L11.2793 37.3H3.6761L11.7934 7.31655H17.173L17.7708 9.59506C18.4969 8.74842 19.3985 8.0568 20.4179 7.56442C21.4373 7.07203 22.5522 6.78971 23.6914 6.7354M23.6914 6.32683C21.5474 6.42464 19.5202 7.29558 18.0129 8.76647L17.6124 7.21871L17.5317 6.91086H11.4766L11.3959 7.21583L3.27858 37.1964L3.14111 37.7056H11.6201L11.7008 37.4006L17.7738 14.9605C18.1055 13.7234 18.8885 13.197 20.3948 13.197C21.0613 13.197 21.5574 13.3207 21.7218 13.5249C21.8862 13.7292 21.8623 14.0456 21.7368 14.5175L15.601 37.1906L15.4635 37.6998H23.9395L24.0232 37.3949L30.0931 14.9548C30.8732 12.0778 30.67 9.89136 29.4954 8.41549C28.3836 7.02593 26.441 6.31825 23.7183 6.3125L23.6914 6.32683Z" fill="#F8F4EF"/>
<path d="M32.6903 38.0679C29.086 38.0679 26.5994 37.2451 25.2963 35.6196C24.1576 34.2013 23.9275 32.2047 24.6119 29.6817L28.7034 14.5374C30.1529 9.21221 34.2474 6.51367 40.8733 6.51367C44.4926 6.51367 46.9882 7.33936 48.2943 8.96771C49.427 10.3803 49.6571 12.3711 48.9727 14.8826L44.8811 30.024C43.4316 35.3492 39.3312 38.0564 32.6903 38.0794V38.0679ZM39.4776 12.9637C37.8906 12.9637 37.0209 13.5564 36.6503 14.8855L32.5588 30.024C32.4123 30.5677 32.4303 30.9763 32.6126 31.1978C32.7949 31.4193 33.3418 31.6006 34.086 31.6006C35.6999 31.6006 36.5786 31.0079 36.9343 29.6845L41.0258 14.5374C41.1722 13.9966 41.1543 13.5938 40.978 13.3722C40.8016 13.1507 40.2547 12.9695 39.5194 12.9637H39.4776Z" fill="#3A3A39"/>
<path d="M40.8824 6.72415C44.4299 6.72415 46.8597 7.52106 48.1329 9.09763C49.2268 10.4584 49.4419 12.3888 48.7755 14.8371L44.687 29.9784C43.2643 35.2029 39.2296 37.8584 32.6993 37.8728C29.1637 37.8728 26.7219 37.073 25.4726 35.5022C24.3758 34.1356 24.1606 32.1966 24.8271 29.7483L28.9186 14.6041C30.3412 9.37953 34.364 6.73279 40.8734 6.73279M34.0861 31.8197C35.7896 31.8197 36.7609 31.1609 37.1405 29.7483L41.232 14.6041C41.3964 13.9913 41.3665 13.5396 41.1453 13.2605C40.8285 12.8664 40.0873 12.7772 39.5225 12.7744H39.4777C37.801 12.7744 36.8386 13.4332 36.4471 14.8486L32.3556 29.987C32.1882 30.6056 32.2181 31.0602 32.4453 31.3392C32.7621 31.7363 33.5122 31.8197 34.0861 31.8197ZM40.8734 6.32422C34.1398 6.32422 29.9766 9.07462 28.5002 14.5005L24.4086 29.6447C23.7063 32.2339 23.9484 34.2881 25.129 35.7582C26.4739 37.4383 29.0143 38.287 32.6904 38.287C39.4388 38.287 43.611 35.5165 45.0875 30.0906L49.179 14.9493C49.8783 12.36 49.6363 10.3232 48.4617 8.85594C47.1138 7.17581 44.5614 6.32422 40.8734 6.32422ZM34.0861 31.4112C33.4285 31.4112 32.9414 31.2903 32.78 31.0889C32.6186 30.8875 32.6365 30.5653 32.78 30.0906L36.8715 14.9493C37.2152 13.7122 37.9983 13.1829 39.4926 13.1829H39.5374C40.18 13.1829 40.6642 13.3094 40.8256 13.5108C40.987 13.7122 40.9631 14.0316 40.8256 14.5034L36.7341 29.6476C36.4023 30.8847 35.6133 31.4112 34.092 31.4112H34.0861Z" fill="#F8F4EF"/>
<path d="M53.9161 37.4926L60.1235 14.5634C60.267 14.0226 60.2491 13.6169 60.0698 13.3925C59.8904 13.1681 59.3286 12.9869 58.5754 12.9869C56.9735 12.9869 56.1038 13.5795 55.7481 14.9029L49.6363 37.4926H41.5936L49.8215 7.10356H55.5449L56.0799 9.16054C56.8188 8.37457 57.7115 7.73671 58.707 7.28351C59.7024 6.8303 60.781 6.57069 61.8809 6.51953C64.5439 6.51953 66.4327 7.20712 67.4997 8.53339C68.6384 9.97186 68.8296 12.1008 68.0675 14.8971L61.9556 37.4926H53.9161Z" fill="#3A3A39"/>
<path d="M61.8929 6.72388C64.4841 6.72388 66.3042 7.3827 67.3323 8.66869C68.4291 10.0381 68.6085 12.121 67.8643 14.8541L61.7942 37.2942H54.191L60.3268 14.6211C60.4912 14.0054 60.4613 13.5537 60.2371 13.2747C59.9143 12.8748 59.1552 12.7884 58.5754 12.7884C56.8838 12.7884 55.9214 13.4473 55.5419 14.8599L49.4718 37.3H41.8686L49.9859 7.31655H55.3805L55.9782 9.59506C56.7041 8.74815 57.6057 8.05634 58.6251 7.56393C59.6446 7.07152 60.7596 6.78936 61.8988 6.7354M61.8988 6.32683H61.8839C59.7397 6.4238 57.7122 7.29487 56.2054 8.76647L55.8019 7.21871L55.7242 6.91086H49.6691L49.5854 7.21583L41.4711 37.1964L41.3336 37.7056H49.8096L49.8932 37.4006L55.9633 14.9605C56.295 13.7234 57.081 13.197 58.5873 13.197C59.2538 13.197 59.7499 13.3207 59.9143 13.5249C60.0787 13.7292 60.0548 14.0456 59.9293 14.5175L53.7935 37.1906L53.656 37.6998H62.132L62.2156 37.3949L68.2856 14.9548C69.0657 12.0778 68.8595 9.89136 67.6879 8.41549C66.5791 7.02593 64.6335 6.31825 61.9138 6.3125L61.8988 6.32683Z" fill="#F8F4EF"/>
<path d="M70.9038 38.0675C67.2845 38.0675 64.7889 37.2447 63.4829 35.6163C62.3502 34.2009 62.12 32.21 62.8044 29.6985L63.5665 26.8215H71.6031L70.7513 30.0409C70.6049 30.5817 70.6229 30.9845 70.8022 31.2089C70.9815 31.4333 71.5344 31.6146 72.2816 31.6203H72.3234C73.9044 31.6203 74.7712 31.0449 75.1268 29.7042L75.1896 29.4165C75.5393 28.1305 74.0598 26.3526 70.9217 24.2611C67.1799 21.7955 65.7632 18.769 66.7106 15.2649L66.893 14.5457C68.3455 9.20031 72.44 6.49023 79.0659 6.49023C82.6822 6.49023 85.1808 7.32745 86.4839 8.95867C87.6196 10.377 87.8467 12.3678 87.1653 14.8794L86.4002 17.7391H78.3635L79.2153 14.537C79.3678 13.9904 79.3558 13.5847 79.1794 13.3632C79.0031 13.1417 78.4442 12.9605 77.6851 12.9605C76.0802 12.9605 75.2016 13.5531 74.8339 14.8822L74.7681 15.1498C74.3856 16.5883 75.8052 18.3748 78.9912 20.4951C82.733 22.9607 84.1407 26.0304 83.1754 29.6179L83.0558 30.0438C81.6243 35.3747 77.5297 38.0675 70.9038 38.0675Z" fill="#3A3A39"/>
<path d="M79.0659 6.70975C82.6135 6.70975 85.0433 7.52107 86.3165 9.10051C87.4103 10.4642 87.6255 12.3975 86.959 14.8544L86.2358 17.5644H78.6355L79.4215 14.6156C79.5949 13.997 79.568 13.5425 79.3468 13.2663C79.03 12.8664 78.2709 12.783 77.6941 12.783C75.9995 12.783 75.0311 13.4418 74.6366 14.8573L74.5709 15.145C74.1644 16.6611 75.6139 18.5282 78.8806 20.7031C82.5387 23.114 83.9225 26.1118 82.9841 29.6073L82.8675 30.0302C81.4449 35.2519 77.4221 37.9015 70.9127 37.9015C67.3651 37.9015 64.9353 37.1017 63.6621 35.5251C62.5683 34.1643 62.3531 32.2339 63.0196 29.7857L63.7399 27.0583H71.3401L70.5571 30.0245C70.3897 30.6373 70.4196 31.086 70.6408 31.3651C70.9606 31.765 71.7137 31.8542 72.2875 31.857H72.3324C74.006 31.857 74.9624 31.1982 75.339 29.7885L75.4047 29.5008C75.7783 28.1285 74.272 26.2816 71.0502 24.1383C67.389 21.7245 66.0023 18.7699 66.9228 15.3607L67.1081 14.6386C68.5307 9.39395 72.5565 6.73855 79.0629 6.73855M79.0629 6.33286C72.3264 6.33286 68.1632 9.09184 66.6867 14.535L66.5014 15.2629C65.5301 18.8533 66.9766 21.9546 70.7992 24.4691C73.8148 26.4829 75.3002 28.2091 74.9834 29.3944V29.4116L74.9205 29.6993C74.5888 30.9307 73.8117 31.4543 72.3264 31.4543H72.2816C71.627 31.4543 71.1339 31.3277 70.9725 31.1235C70.8111 30.9192 70.832 30.6027 70.9725 30.1338L71.7585 27.1648L71.893 26.6556H63.4171L63.3364 26.9634L62.6131 29.6907C61.9138 32.2627 62.1559 34.314 63.3304 35.7812C64.6783 37.4614 67.2307 38.3129 70.9187 38.3129C77.6522 38.3129 81.8155 35.5625 83.2919 30.1395L83.4085 29.7166C84.3947 26.0341 82.9572 22.8925 79.1346 20.3723C76.0742 18.3355 74.6516 16.5632 74.9953 15.2514L75.0641 14.9637C75.4078 13.7266 76.1997 13.2001 77.709 13.2001C78.3725 13.2001 78.8656 13.3209 79.027 13.5223C79.1884 13.7237 79.1585 14.043 79.027 14.5177L78.241 17.4695L78.1035 17.9787H86.5794L86.6631 17.6738L87.3834 14.9637C88.0858 12.3917 87.8437 10.3405 86.6691 8.87034C85.3212 7.18733 82.7689 6.32997 79.0808 6.32422L79.0629 6.33286Z" fill="#F8F4EF"/>
<path d="M82.5298 37.4928L89.2005 12.8432H84.5023L86.1312 6.88509H90.8234L92.5927 0.351562H100.632L98.866 6.88509H103.561L101.935 12.8432H97.2401L90.5694 37.4928H82.5298Z" fill="#3A3A39"/>
<path d="M100.357 0.554957L98.5911 7.08559H103.289L101.774 12.6381H97.0699L90.3961 37.2877H82.7959L89.4666 12.6381H84.7684L86.2866 7.08559H90.9819L92.7482 0.554957H100.357ZM100.907 0.146384H92.4284L92.3477 0.451357L90.6621 6.6799H85.9669L85.8832 6.96759L84.3679 12.5201L84.2185 13.038H88.9167L82.3805 37.1783L82.2429 37.6875H90.7219L90.8026 37.3826L97.3777 13.038H102.073L102.157 12.7359L103.672 7.18336L103.812 6.67414H99.1142L100.74 0.652728L100.88 0.140625L100.907 0.146384Z" fill="#F8F4EF"/>
<path d="M102.378 38.0679C98.7733 38.0679 96.2867 37.2451 94.9837 35.6196C93.845 34.2013 93.6148 32.2047 94.2992 29.6817L98.3937 14.5374C99.8403 9.21221 103.935 6.51367 110.561 6.51367C114.177 6.51367 116.676 7.33936 117.982 8.96771C119.114 10.3803 119.345 12.3711 118.66 14.8826L114.569 30.024C113.119 35.3492 109.019 38.0564 102.378 38.0794V38.0679ZM109.165 12.9637C107.578 12.9637 106.708 13.5564 106.338 14.8855L102.246 30.024C102.103 30.5677 102.118 30.9763 102.3 31.1978C102.482 31.4193 103.029 31.6006 103.773 31.6006C105.387 31.6006 106.266 31.0079 106.622 29.6845L110.713 14.5374C110.86 13.9966 110.842 13.5938 110.665 13.3722C110.489 13.1507 109.942 12.9695 109.207 12.9637H109.165Z" fill="#3A3A39"/>
<path d="M110.561 6.72415C114.108 6.72415 116.538 7.52106 117.814 9.09763C118.905 10.4584 119.12 12.3888 118.457 14.8371L114.365 29.9784C112.943 35.2029 108.908 37.8584 102.378 37.8728C98.8421 37.8728 96.4004 37.073 95.1511 35.5022C94.0543 34.1356 93.839 32.1966 94.5055 29.7483L98.5971 14.6041C100.02 9.37953 104.045 6.73279 110.552 6.73279M103.764 31.8197C105.468 31.8197 106.454 31.1609 106.819 29.7483L110.91 14.6041C111.075 13.9913 111.045 13.5396 110.824 13.2605C110.507 12.8664 109.766 12.7772 109.201 12.7744H109.156C107.479 12.7744 106.517 13.4332 106.126 14.8486L102.034 29.987C101.867 30.6056 101.897 31.0602 102.124 31.3392C102.443 31.7363 103.191 31.8197 103.764 31.8197ZM110.552 6.32422C103.818 6.32422 99.655 9.07462 98.1786 14.5005L94.0871 29.6447C93.3848 32.2339 93.6268 34.2881 94.8074 35.7582C96.1523 37.4383 98.6927 38.287 102.369 38.287C109.117 38.287 113.289 35.5165 114.766 30.0906L118.857 14.9493C119.557 12.36 119.315 10.3232 118.14 8.85594C116.792 7.17581 114.24 6.32422 110.552 6.32422ZM103.764 31.4112C103.107 31.4112 102.62 31.2903 102.458 31.0889C102.297 30.8875 102.315 30.5653 102.458 30.0906L106.55 14.9493C106.894 13.7122 107.677 13.1829 109.171 13.1829H109.216C109.858 13.1829 110.343 13.3094 110.504 13.5108C110.665 13.7122 110.641 14.0316 110.504 14.5034L106.412 29.6476C106.078 30.8847 105.289 31.4112 103.767 31.4112H103.764Z" fill="#F8F4EF"/>
</g>
<defs>
<clipPath id="clip0_271_3932">
<rect width="138" height="49" fill="white"/>
</clipPath>
</defs>
</svg>
