<svg width="142" height="99" viewBox="0 0 142 99" fill="none" xmlns="http://www.w3.org/2000/svg">
<g clip-path="url(#clip0_271_3905)">
<path d="M53.9084 4.64677V26.8198C53.9071 27.833 53.502 28.8043 52.7822 29.5203C52.0625 30.2363 51.0869 30.6384 50.0696 30.6384H48.6814C47.6651 30.6371 46.6907 30.2344 45.972 29.5185C45.2533 28.8027 44.849 27.8322 44.8476 26.8198V4.64677C44.8476 3.634 45.2515 2.66271 45.9705 1.94658C46.6895 1.23045 47.6646 0.828128 48.6814 0.828128H50.0696C50.5735 0.827472 51.0725 0.925762 51.5382 1.11737C52.004 1.30898 52.4272 1.59015 52.7837 1.94481C53.1402 2.29947 53.4231 2.72066 53.6161 3.18429C53.809 3.64791 53.9084 4.14488 53.9084 4.64677Z" fill="#3A3A39"/>
<path d="M66.1313 7.8669C70.4512 2.62563 76.019 0.00333132 82.8346 3.53518e-06C89.6502 -0.00332425 94.9958 2.34277 98.8713 7.03828C102.169 11.0316 104.21 15.9334 104.995 21.7438C105.069 22.2843 105.026 22.8344 104.868 23.3569C104.711 23.8794 104.443 24.3623 104.083 24.7732C103.722 25.1841 103.278 25.5134 102.779 25.7391C102.281 25.9647 101.739 26.0815 101.192 26.0815H100.57C99.6665 26.0857 98.7907 25.7697 98.0994 25.1899C97.4081 24.6102 96.9463 23.8045 96.7965 22.9168C96.1283 18.6539 94.7752 15.2929 92.7373 12.8336C90.011 9.50584 86.7168 7.85026 82.8546 7.8669C78.7652 7.8669 75.1286 9.79867 71.9447 13.6622C67.8553 18.6306 65.8106 26.2213 65.8106 36.4343C65.8106 46.6473 67.8553 54.2396 71.9447 59.2113C74.9014 62.802 78.538 64.5957 82.8546 64.5923C87.395 64.5923 90.9164 63.0749 93.4188 60.0399C96.0715 56.8186 97.6184 52.4476 98.0594 46.9268C98.1436 45.9815 98.5814 45.1022 99.2859 44.4633C99.9905 43.8244 100.91 43.4726 101.863 43.4775H102.294C102.833 43.4787 103.366 43.5927 103.858 43.812C104.35 44.0312 104.79 44.351 105.15 44.7505C105.51 45.15 105.782 45.6204 105.947 46.1311C106.113 46.6419 106.17 47.1816 106.113 47.7155C105.385 55.0932 103.198 60.995 99.5528 65.421C95.6907 70.1165 90.1246 72.4626 82.8546 72.4592C76.039 72.4592 70.4713 69.8369 66.1514 64.5923C60.4717 57.7005 57.6319 48.3145 57.6319 36.4343C57.6185 24.2945 60.4517 14.7721 66.1313 7.8669Z" fill="#3A3A39"/>
<path d="M82.6993 22.9972H84.0724C85.0905 22.9972 86.0669 23.4 86.7868 24.1171C87.5067 24.8341 87.9112 25.8067 87.9112 26.8208C87.9125 27.8331 88.3169 28.8037 89.0356 29.5195C89.7542 30.2353 90.7286 30.6381 91.745 30.6394H116.386C117.404 30.6394 118.379 30.2373 119.099 29.5213C119.819 28.8053 120.224 27.834 120.225 26.8208V12.0804C120.225 11.0676 120.629 10.0963 121.348 9.38017C122.067 8.66404 123.042 8.26172 124.059 8.26172H125.452C126.469 8.26172 127.444 8.66404 128.163 9.38017C128.882 10.0963 129.286 11.0676 129.286 12.0804V67.7975C129.286 68.8102 128.882 69.7815 128.163 70.4977C127.444 71.2138 126.469 71.6161 125.452 71.6161H124.059C123.042 71.6161 122.067 71.2138 121.348 70.4977C120.629 69.7815 120.225 68.8102 120.225 67.7975V42.3399C120.225 41.3258 119.821 40.3533 119.101 39.6362C118.381 38.9191 117.404 38.5163 116.386 38.5163H91.745C90.7278 38.5176 89.7526 38.921 89.0338 39.638C88.315 40.3549 87.9112 41.3267 87.9112 42.3399V49.6028C87.9112 50.1047 87.8119 50.6017 87.6189 51.0653C87.4259 51.5289 87.143 51.9501 86.7865 52.3048C86.43 52.6594 86.0068 52.9406 85.5411 53.1322C85.0753 53.3238 84.5763 53.4221 84.0724 53.4215H82.6842C82.1804 53.4221 81.6813 53.3238 81.2156 53.1322C80.7499 52.9406 80.3267 52.6594 79.9701 52.3048C79.6136 51.9501 79.3308 51.5289 79.1378 51.0653C78.9448 50.6017 78.8454 50.1047 78.8454 49.6028V26.8208C78.8454 26.3174 78.9452 25.819 79.1391 25.3541C79.3329 24.8892 79.6171 24.467 79.9752 24.1118C80.3332 23.7565 80.7582 23.4752 81.2256 23.2839C81.6931 23.0926 82.1939 22.9952 82.6993 22.9972Z" fill="#3A3A39"/>
<path d="M142 4.08729V34.8909C142 35.9037 141.596 36.875 140.877 37.5911C140.158 38.3073 139.183 38.7096 138.166 38.7096H136.778C136.274 38.7103 135.775 38.612 135.309 38.4203C134.844 38.2287 134.42 37.9476 134.064 37.5929C133.707 37.2383 133.425 36.8171 133.232 36.3534C133.039 35.8898 132.939 35.3928 132.939 34.8909V4.08729C132.939 3.58517 133.039 3.08796 133.232 2.62406C133.424 2.16015 133.707 1.73864 134.064 1.38359C134.42 1.02853 134.843 0.746876 135.309 0.554721C135.775 0.362566 136.274 0.263672 136.778 0.263672H138.166C139.183 0.264995 140.159 0.668419 140.877 1.38535C141.596 2.10227 142 3.07407 142 4.08729Z" fill="#3A3A39"/>
<path d="M36.1878 0.808594H35.3359C33.912 0.809023 32.5436 1.35817 31.5171 2.34104L21.0632 12.3244C20.8126 12.5621 20.4797 12.6947 20.1336 12.6947C19.7875 12.6947 19.4546 12.5621 19.204 12.3244L8.75001 2.34104C7.72355 1.35817 6.35511 0.809023 4.93127 0.808594H4.07934C2.99698 0.809917 1.95939 1.23911 1.19451 2.00191C0.429626 2.76471 -8.1476e-07 3.79872 0 4.87681V48.9933C-7.93361e-07 50.1005 0.44125 51.1625 1.22681 51.9458C2.01236 52.7292 3.07797 53.17 4.18958 53.1713C4.82927 53.1713 5.46272 53.0458 6.05371 52.802C6.64471 52.5582 7.18166 52.2008 7.63399 51.7502C8.08632 51.2997 8.44513 50.7648 8.68993 50.1762C8.93473 49.5875 9.06072 48.9566 9.06072 48.3194V18.1597C9.06072 17.8954 9.13937 17.637 9.28664 17.4172C9.4339 17.1974 9.64324 17.0259 9.88823 16.9244C10.1332 16.823 10.4029 16.7961 10.6632 16.8471C10.9235 16.8982 11.1629 17.0249 11.351 17.2113L15.4454 21.2845C15.4605 21.3073 15.4772 21.329 15.4955 21.3494L18.3771 24.2196C18.8463 24.6831 19.4803 24.9432 20.1411 24.9434C20.7992 24.9393 21.4292 24.6775 21.8951 24.2146L24.7717 21.3494L24.8268 21.2845L28.9162 17.2113C29.104 17.0252 29.3429 16.8986 29.6027 16.8474C29.8626 16.7962 30.1319 16.8226 30.3767 16.9235C30.6214 17.0243 30.8308 17.195 30.9785 17.4141C31.1261 17.6332 31.2054 17.8908 31.2064 18.1547V68.6206C31.2064 69.1227 31.3057 69.6199 31.4987 70.0838C31.6916 70.5477 31.9743 70.9692 32.3308 71.3243C32.6872 71.6793 33.1104 71.961 33.5762 72.1532C34.0419 72.3453 34.5411 72.4442 35.0452 72.4442H36.4334C37.4506 72.4429 38.4258 72.0394 39.1446 71.3225C39.8634 70.6056 40.2671 69.6338 40.2671 68.6206V4.90177C40.2711 4.36566 40.1685 3.83408 39.9653 3.33764C39.7621 2.84121 39.4622 2.38974 39.083 2.00925C38.7038 1.62877 38.2528 1.32679 37.7559 1.12073C37.259 0.91466 36.726 0.808579 36.1878 0.808594Z" fill="#3A3A39"/>
<path d="M0 47.9355V50.2717C0 50.7738 0.0993167 51.271 0.292234 51.7349C0.485151 52.1988 0.767874 52.6203 1.12434 52.9754C1.4808 53.3304 1.904 53.6121 2.36974 53.8042C2.83549 53.9964 3.33469 54.0953 3.8388 54.0953H5.22699C6.24423 54.094 7.21932 53.6905 7.93815 52.9736C8.65698 52.2567 9.06072 51.2849 9.06072 50.2717V47.9355H0Z" fill="#3A3A39"/>
<path d="M53.9084 42.5432V45.6481C53.9084 46.6622 53.5039 47.6347 52.784 48.3518C52.0641 49.0689 51.0877 49.4717 50.0696 49.4717H48.6814C47.6642 49.4704 46.689 49.0669 45.9702 48.35C45.2514 47.6331 44.8476 46.6613 44.8476 45.6481V42.5432C44.849 41.5309 45.2533 40.5604 45.972 39.8445C46.6907 39.1287 47.6651 38.7259 48.6814 38.7246H50.0696C51.0869 38.7246 52.0625 39.1268 52.7822 39.8428C53.502 40.5587 53.9071 41.53 53.9084 42.5432Z" fill="#3A3A39"/>
<path d="M34.7595 88.4511C34.7636 88.603 34.731 88.7537 34.6644 88.8904C34.5997 89.0188 34.5052 89.1301 34.3887 89.2149C34.2595 89.3088 34.1131 89.3767 33.9577 89.4145C33.7745 89.462 33.5858 89.4855 33.3964 89.4844H32.4893V86.0352H33.4916C34.2634 86.0352 34.6543 86.3147 34.6543 86.8738C34.6628 87.0501 34.6154 87.2247 34.519 87.3729C34.4122 87.5194 34.2584 87.625 34.083 87.6724C34.176 87.6872 34.2658 87.7176 34.3486 87.7623C34.4323 87.8022 34.5072 87.8582 34.5691 87.927C34.6351 87.9939 34.6863 88.0738 34.7195 88.1616C34.7511 88.2547 34.7646 88.353 34.7595 88.4511ZM34.1482 86.9536C34.1496 86.8854 34.1377 86.8176 34.1131 86.754C34.0951 86.69 34.0563 86.6338 34.0028 86.5942C33.9401 86.542 33.8665 86.5045 33.7873 86.4844C33.6761 86.4558 33.5614 86.4423 33.4465 86.4445H32.9454V87.5227H33.4165C33.5142 87.5237 33.6117 87.5136 33.7071 87.4927C33.7893 87.4726 33.8662 87.4352 33.9326 87.3829C33.9966 87.3395 34.047 87.2789 34.078 87.2082C34.1225 87.1252 34.1465 87.0328 34.1482 86.9386V86.9536ZM34.2584 88.4811C34.2611 88.3994 34.2421 88.3185 34.2033 88.2465C34.1653 88.1744 34.1103 88.1127 34.0429 88.0668C33.9654 88.0145 33.8787 87.9773 33.7873 87.957C33.6745 87.9277 33.5581 87.9143 33.4415 87.917H32.9404V89.105H33.4415C33.6553 89.1215 33.8685 89.0671 34.048 88.9503C34.1207 88.8934 34.178 88.8193 34.2147 88.7348C34.2515 88.6502 34.2665 88.5579 34.2584 88.4661V88.4811Z" fill="#3A3A39"/>
<path d="M41.3547 89.4844H39.3851V86.0352H41.3547V86.4295H39.8512V87.4977H41.2895V87.897H39.8512V89.0851H41.3547V89.4844Z" fill="#3A3A39"/>
<path d="M48.5912 89.4844H48.09L47.8495 88.7307H46.4112L46.1657 89.4844H45.6645L46.8172 86.0352H47.4636L48.5912 89.4844ZM47.6992 88.3114L47.1128 86.4694L46.5315 88.3114H47.6992Z" fill="#3A3A39"/>
<path d="M55.051 89.3567C54.7747 89.4708 54.4782 89.5285 54.179 89.5264C53.9708 89.5392 53.7622 89.507 53.5676 89.432C53.373 89.3571 53.1969 89.2411 53.0514 89.0921C52.7655 88.7239 52.6263 88.2635 52.6605 87.7993C52.6566 87.5454 52.6939 87.2926 52.7708 87.0505C52.8333 86.8413 52.9392 86.6474 53.0815 86.4815C53.2183 86.3245 53.3899 86.2015 53.5827 86.1221C53.7849 86.0341 54.0035 85.9898 54.2241 85.9923C54.374 85.9911 54.5235 86.0062 54.6701 86.0372C54.8073 86.0604 54.9405 86.1024 55.0661 86.162V86.6212C54.9443 86.554 54.8147 86.502 54.6802 86.4665C54.5361 86.4295 54.3879 86.4111 54.2392 86.4116C54.0873 86.409 53.9368 86.4397 53.7981 86.5014C53.6667 86.5618 53.5517 86.6525 53.4624 86.766C53.3657 86.8928 53.2943 87.0368 53.2519 87.1903C53.199 87.3753 53.1737 87.567 53.1767 87.7593C53.1533 88.1128 53.2485 88.464 53.4474 88.7577C53.5448 88.8731 53.6682 88.964 53.8075 89.023C53.9468 89.0819 54.0981 89.1074 54.2492 89.0971C54.3927 89.0986 54.5359 89.0818 54.6751 89.0472C54.8098 89.0116 54.9408 88.9632 55.0661 88.9024L55.051 89.3567Z" fill="#3A3A39"/>
<path d="M61.8916 89.4844H61.4206V87.902H59.9622V89.4844H59.5162V86.0352H59.9873V87.4927H61.4456V86.0352H61.9167L61.8916 89.4844Z" fill="#3A3A39"/>
<path d="M75.4577 88.4511C75.4602 88.6034 75.4258 88.7541 75.3575 88.8904C75.2928 89.0188 75.1983 89.1301 75.0819 89.2149C74.9532 89.3098 74.8066 89.3777 74.6508 89.4145C74.4676 89.462 74.2789 89.4855 74.0895 89.4844H73.1825V86.0352H74.1848C74.9566 86.0352 75.3424 86.3147 75.3424 86.8738C75.3509 87.0501 75.3036 87.2247 75.2071 87.3729C75.1004 87.5194 74.9465 87.625 74.7711 87.6724C74.8641 87.6872 74.9539 87.7176 75.0367 87.7623C75.1211 87.801 75.1963 87.8572 75.2573 87.927C75.3232 87.9939 75.3744 88.0738 75.4076 88.1616C75.4426 88.2541 75.4596 88.3523 75.4577 88.4511ZM74.8413 86.9536C74.8418 86.8859 74.8317 86.8185 74.8112 86.754C74.7895 86.6905 74.7494 86.635 74.696 86.5942C74.6346 86.5429 74.5627 86.5055 74.4855 86.4844C74.3725 86.4558 74.2562 86.4424 74.1397 86.4445H73.6386V87.5227H74.1096C74.209 87.5236 74.3081 87.5136 74.4053 87.4927C74.4867 87.4704 74.5632 87.4332 74.6308 87.3829C74.6921 87.3365 74.7418 87.2768 74.7761 87.2082C74.8162 87.1238 74.8384 87.032 74.8413 86.9386V86.9536ZM74.9566 88.4811C74.9577 88.3996 74.9387 88.319 74.9014 88.2465C74.8601 88.1753 74.8037 88.1139 74.736 88.0668C74.6585 88.0145 74.5718 87.9773 74.4804 87.957C74.3676 87.9275 74.2513 87.914 74.1347 87.917H73.6335V89.105H74.1347C74.3484 89.1218 74.5617 89.0674 74.7411 88.9503C74.8147 88.8939 74.873 88.8201 74.9106 88.7355C74.9483 88.6509 74.9641 88.5583 74.9566 88.4661V88.4811Z" fill="#3A3A39"/>
<path d="M80.7999 86.4295H80.0031V86.0352H82.0678V86.4295H81.271V89.0851H82.0678V89.4844H79.9981V89.0851H80.7949L80.7999 86.4295Z" fill="#3A3A39"/>
<path d="M88.9686 88.5527C88.9731 88.702 88.9385 88.85 88.8684 88.982C88.8025 89.1058 88.7059 89.2106 88.5877 89.2865C88.4571 89.3747 88.3109 89.4373 88.1568 89.4712C87.8833 89.5276 87.6031 89.5444 87.3248 89.5211H87.0592L86.8237 89.4862L86.6232 89.4412V88.987C86.768 89.0388 86.9174 89.0773 87.0693 89.1018C87.2548 89.1317 87.4426 89.145 87.6305 89.1418C87.7617 89.1446 87.8929 89.1329 88.0214 89.1068C88.1146 89.09 88.2033 89.0543 88.2821 89.002C88.3474 88.9608 88.3995 88.9019 88.4324 88.8323C88.4636 88.7598 88.4791 88.6815 88.4775 88.6026C88.4812 88.5157 88.4527 88.4304 88.3973 88.3631C88.3406 88.2924 88.2708 88.2331 88.1918 88.1883C88.0997 88.1312 88.0024 88.0827 87.9012 88.0436L87.5704 87.9088L87.2396 87.764C87.1358 87.712 87.0383 87.6484 86.949 87.5744C86.8643 87.5019 86.7945 87.4138 86.7435 87.3148C86.6872 87.2071 86.6596 87.0868 86.6634 86.9654C86.6637 86.845 86.6892 86.7259 86.7385 86.616C86.7907 86.4981 86.8696 86.3939 86.9691 86.3115C87.088 86.2155 87.2239 86.1426 87.3699 86.0968C87.5596 86.0374 87.7575 86.0088 87.9563 86.012H88.1467H88.3522L88.5576 86.0469L88.7481 86.0868V86.5111C88.6135 86.4712 88.4762 86.4411 88.3372 86.4213C88.2078 86.4018 88.0771 86.3917 87.9463 86.3913C87.7384 86.3756 87.5306 86.4225 87.3499 86.5261C87.2899 86.5647 87.2407 86.618 87.2074 86.681C87.174 86.7439 87.1576 86.8143 87.1595 86.8855C87.1565 86.9716 87.183 87.0561 87.2347 87.1251C87.291 87.1975 87.3607 87.2585 87.4401 87.3048C87.5323 87.362 87.6296 87.4104 87.7308 87.4496L88.0615 87.5844C88.1768 87.6293 88.2871 87.6792 88.3973 87.7341C88.5023 87.7861 88.6 87.8515 88.688 87.9288C88.7712 88.0026 88.8408 88.0904 88.8934 88.1883C88.9471 88.3022 88.9729 88.427 88.9686 88.5527Z" fill="#3A3A39"/>
<path d="M95.8644 86.4345H94.8621V89.4844H94.361V86.4345H93.3587V86.0352H95.8644V86.4345Z" fill="#3A3A39"/>
<path d="M102.68 89.4862H102.144L101.643 88.383C101.609 88.3096 101.569 88.2394 101.522 88.1734C101.487 88.1215 101.443 88.0759 101.392 88.0386C101.346 88.0072 101.295 87.9835 101.242 87.9687C101.178 87.9633 101.115 87.9633 101.051 87.9687H100.831V89.5062H100.36V86.0569H101.287C101.456 86.0539 101.625 86.0758 101.788 86.1218C101.92 86.1582 102.042 86.2211 102.149 86.3065C102.238 86.3832 102.307 86.481 102.349 86.591C102.422 86.8115 102.422 87.0494 102.349 87.2699C102.316 87.3639 102.267 87.4517 102.204 87.5295C102.139 87.6102 102.061 87.6794 101.973 87.7341C101.874 87.7927 101.766 87.8348 101.653 87.8589C101.752 87.8941 101.838 87.9564 101.903 88.0386C101.983 88.1427 102.052 88.2548 102.109 88.3731L102.68 89.4862ZM101.923 86.9904C101.929 86.9125 101.916 86.8344 101.885 86.7624C101.855 86.6905 101.808 86.6266 101.748 86.5761C101.603 86.4707 101.425 86.4211 101.247 86.4363H100.801V87.5794H101.182C101.283 87.5797 101.384 87.5663 101.482 87.5394C101.566 87.5165 101.644 87.4775 101.713 87.4246C101.774 87.3747 101.824 87.3116 101.858 87.24C101.897 87.1606 101.92 87.0738 101.923 86.9854V86.9904Z" fill="#3A3A39"/>
<path d="M109.516 87.7633C109.519 88.0351 109.482 88.3059 109.405 88.5669C109.342 88.7693 109.24 88.9576 109.105 89.121C108.989 89.2653 108.839 89.3785 108.669 89.4504C108.51 89.5173 108.34 89.5529 108.168 89.5553C107.967 89.5602 107.768 89.5193 107.586 89.4355C107.422 89.3578 107.28 89.2392 107.175 89.091C107.058 88.924 106.975 88.7358 106.93 88.537C106.875 88.2962 106.848 88.05 106.85 87.8032C106.846 87.533 106.883 87.2637 106.96 87.0045C107.022 86.8013 107.123 86.6117 107.255 86.4454C107.374 86.3051 107.523 86.1941 107.691 86.121C107.866 86.0438 108.054 86.0039 108.245 86.0039C108.436 86.0039 108.625 86.0438 108.799 86.121C108.964 86.2 109.107 86.3183 109.215 86.4654C109.33 86.6315 109.411 86.8179 109.456 87.0145C109.507 87.2606 109.527 87.5122 109.516 87.7633ZM109.015 87.7982C109.017 87.6106 109 87.4233 108.964 87.2391C108.938 87.0879 108.889 86.9415 108.819 86.8048C108.755 86.69 108.661 86.5937 108.548 86.5253C108.43 86.4562 108.295 86.4216 108.158 86.4255C108.023 86.4213 107.89 86.4578 107.777 86.5303C107.667 86.6054 107.576 86.7044 107.511 86.8198C107.438 86.956 107.385 87.1024 107.356 87.2541C107.323 87.427 107.306 87.6024 107.306 87.7782C107.303 87.9641 107.32 88.1498 107.356 88.3323C107.38 88.4848 107.431 88.6318 107.506 88.7666C107.567 88.8809 107.657 88.9773 107.767 89.0461C107.885 89.1163 108.02 89.1509 108.158 89.1459C108.294 89.1493 108.428 89.1129 108.543 89.0411C108.653 88.9659 108.744 88.8669 108.809 88.7516C108.883 88.6173 108.935 88.4725 108.964 88.3223C109.002 88.1383 109.023 87.9511 109.025 87.7633L109.015 87.7982Z" fill="#3A3A39"/>
<path d="M56.6597 98.2012H55.6574V97.9316H56.6597V98.2012Z" fill="#3A3A39"/>
<path d="M61.1349 97.1771C61.0561 97.1367 60.974 97.1033 60.8893 97.0773C60.7974 97.0549 60.7033 97.0432 60.6087 97.0424C60.5031 97.0395 60.3983 97.0618 60.303 97.1072C60.215 97.1447 60.1376 97.2029 60.0775 97.277C60.0132 97.3566 59.9654 97.4483 59.9371 97.5465C59.9019 97.6579 59.885 97.7742 59.887 97.8909C59.8862 98.0102 59.8996 98.1292 59.9271 98.2453C59.9492 98.3415 59.992 98.4318 60.0524 98.5099C60.1087 98.5837 60.1828 98.6421 60.2679 98.6796C60.3681 98.7197 60.4757 98.7384 60.5836 98.7345H60.6538H60.724H60.7941C60.814 98.7381 60.8344 98.7381 60.8543 98.7345V98.0507H60.4133V97.7462H61.1449V98.8493L61.0046 98.9043C60.9537 98.9222 60.9019 98.9372 60.8493 98.9492L60.6939 98.9741H60.5436C60.4065 98.9784 60.2701 98.9546 60.1426 98.9043C60.0262 98.8606 59.9215 98.7905 59.8369 98.6996C59.7511 98.6004 59.6863 98.485 59.6465 98.3602C59.5999 98.2082 59.5779 98.0498 59.5813 97.8909C59.579 97.7298 59.6045 97.5694 59.6565 97.4167C59.7006 97.2846 59.7704 97.1625 59.8619 97.0573C59.9533 96.9615 60.0645 96.8866 60.1877 96.8377C60.3216 96.7844 60.4645 96.7573 60.6087 96.7578C60.7014 96.7577 60.7938 96.7677 60.8843 96.7878C60.9714 96.8015 61.056 96.8284 61.1349 96.8676V97.1771Z" fill="#3A3A39"/>
<path d="M65.4498 98.9659H65.1191L64.7933 98.2771C64.7716 98.232 64.7464 98.1886 64.7181 98.1473C64.6967 98.1145 64.6695 98.0857 64.6379 98.0624C64.6096 98.0421 64.5771 98.0284 64.5427 98.0225C64.5045 98.0173 64.4657 98.0173 64.4275 98.0225H64.2871V98.9809H63.9915V96.8245H64.5728C64.6814 96.822 64.7898 96.8372 64.8935 96.8694C64.976 96.8913 65.0529 96.9304 65.1191 96.9842C65.1751 97.0329 65.2181 97.0946 65.2444 97.1639C65.2735 97.2369 65.2871 97.3151 65.2844 97.3935C65.2851 97.458 65.2749 97.5221 65.2543 97.5832C65.2365 97.6429 65.2076 97.6988 65.1692 97.7479C65.128 97.7973 65.0789 97.8394 65.0238 97.8727C64.963 97.9124 64.8948 97.9395 64.8233 97.9526C64.8829 97.9769 64.9361 98.0145 64.9787 98.0624C65.0271 98.1292 65.0706 98.1992 65.109 98.2721L65.4498 98.9659ZM64.9787 97.4035C64.9823 97.3546 64.9742 97.3056 64.955 97.2605C64.9358 97.2154 64.9062 97.1754 64.8685 97.1439C64.7785 97.0834 64.6712 97.0536 64.5627 97.0591H64.2871V97.7729H64.5227C64.587 97.7729 64.651 97.7646 64.7131 97.7479C64.7643 97.7349 64.8122 97.711 64.8534 97.678C64.8917 97.647 64.9225 97.6077 64.9436 97.5632C64.9682 97.5136 64.9803 97.4588 64.9787 97.4035Z" fill="#3A3A39"/>
<path d="M69.5392 98.965H68.3064V96.8086H69.5392V97.0582H68.602V97.747H69.4991V97.9916H68.602V98.7354H69.5392V98.965Z" fill="#3A3A39"/>
<path d="M73.7488 98.965H72.546V96.8086H73.7738V97.0582H72.8417V97.747H73.7388V97.9916H72.8417V98.7354H73.7738L73.7488 98.965Z" fill="#3A3A39"/>
<path d="M78.0586 98.8849C77.8855 98.9567 77.6999 98.994 77.5124 98.9948C77.3825 99.0021 77.2525 98.9814 77.1314 98.934C77.0103 98.8866 76.9009 98.8137 76.8108 98.7202C76.6305 98.4906 76.5429 98.2022 76.5652 97.9115C76.5626 97.7527 76.5846 97.5945 76.6304 97.4423C76.6706 97.3122 76.7371 97.1915 76.8258 97.0879C76.9109 96.9926 77.015 96.9161 77.1315 96.8633C77.2576 96.8076 77.3945 96.7803 77.5324 96.7834C77.6265 96.7839 77.7204 96.7922 77.8131 96.8084C77.8972 96.8275 77.9794 96.8542 78.0586 96.8883V97.1778C77.9827 97.1352 77.9019 97.1017 77.8181 97.0779C77.7279 97.0556 77.6354 97.0438 77.5424 97.043C77.4471 97.0409 77.3527 97.0614 77.2668 97.1029C77.183 97.1378 77.1102 97.1947 77.0563 97.2676C76.9946 97.3464 76.9487 97.4362 76.921 97.5322C76.889 97.6476 76.8738 97.7669 76.8759 97.8866C76.8605 98.1093 76.9205 98.3308 77.0463 98.5156C77.1067 98.5885 77.1837 98.646 77.2708 98.6833C77.358 98.7206 77.4528 98.7367 77.5475 98.7302C77.6369 98.7307 77.726 98.7206 77.8131 98.7002C77.897 98.6764 77.9791 98.6463 78.0586 98.6104V98.8849Z" fill="#3A3A39"/>
<path d="M82.2282 98.965H81.0004V96.8086H82.2282V97.0582H81.291V97.747H82.1931V97.9916H81.291V98.7354H82.2282V98.965Z" fill="#3A3A39"/>
<path d="M86.3326 98.2012H85.3303V97.9316H86.3326V98.2012Z" fill="#3A3A39"/>
</g>
<defs>
<clipPath id="clip0_271_3905">
<rect width="142" height="99" fill="white"/>
</clipPath>
</defs>
</svg>
