<svg width="134" height="86" viewBox="0 0 134 86" fill="none" xmlns="http://www.w3.org/2000/svg">
<g clip-path="url(#clip0_271_3701)">
<path d="M18.0896 5.33501C17.8419 4.92713 17.715 4.45644 17.7237 3.97833C17.7325 3.50022 17.8766 3.03458 18.1391 2.63619C18.4139 2.24497 18.7801 1.92802 19.2054 1.71343C19.6308 1.49884 20.1021 1.39323 20.5776 1.4059H113.426C113.901 1.39323 114.373 1.49884 114.798 1.71343C115.223 1.92802 115.59 2.24497 115.864 2.63619C116.127 3.03458 116.271 3.50022 116.28 3.97833C116.288 4.45644 116.162 4.92713 115.914 5.33501L110.327 14.6654C110.301 14.7111 110.287 14.7632 110.287 14.8163C110.287 14.8693 110.302 14.9213 110.329 14.9668C110.356 15.0123 110.394 15.0496 110.441 15.0748C110.487 15.0999 110.539 15.112 110.592 15.1098H111.739C111.747 15.1092 111.755 15.1066 111.761 15.1022C111.768 15.0979 111.774 15.092 111.778 15.085L117.181 6.03909C117.545 5.44017 117.74 4.75212 117.745 4.04951C117.749 3.34691 117.563 2.65649 117.205 2.05304C116.799 1.40839 116.235 0.880657 115.566 0.521127C114.898 0.161597 114.148 -0.0174898 113.391 0.00134635H20.6235C19.866 -0.0174898 19.1165 0.161597 18.4479 0.521127C17.7794 0.880657 17.2147 1.40839 16.8086 2.05304C16.4507 2.65623 16.2637 3.34679 16.2681 4.04956C16.2724 4.75233 16.468 5.44045 16.8334 6.03909L22.2362 15.085C22.2402 15.092 22.2458 15.0979 22.2526 15.1022C22.2593 15.1066 22.2671 15.1092 22.2751 15.1098H23.3937C23.4464 15.1113 23.4986 15.0985 23.5448 15.0729C23.591 15.0473 23.6295 15.0097 23.6565 14.964C23.6835 14.9184 23.6979 14.8663 23.6982 14.8132C23.6986 14.7601 23.6848 14.7078 23.6584 14.6618L18.0896 5.33501Z" fill="#3A3A39"/>
<path d="M69.3485 83.2871C69.0999 83.6883 68.754 84.0191 68.3435 84.2485C67.9329 84.4779 67.4712 84.5983 67.0018 84.5983C66.5323 84.5983 66.0706 84.4779 65.66 84.2485C65.2495 84.0191 64.9036 83.6883 64.655 83.2871L33.875 31.7603C33.8431 31.7102 33.7992 31.669 33.7474 31.6404C33.6956 31.6119 33.6376 31.5968 33.5785 31.5967H32.6892C32.6303 31.5943 32.5719 31.6079 32.52 31.6361C32.4681 31.6643 32.4247 31.7061 32.3944 31.757C32.3641 31.8079 32.3479 31.8662 32.3476 31.9256C32.3473 31.985 32.3629 32.0433 32.3927 32.0945L63.3916 83.9769C63.775 84.5918 64.3071 85.0985 64.9379 85.4498C65.5686 85.8011 66.2775 85.9853 66.9982 85.9853C67.7189 85.9853 68.4279 85.8011 69.0587 85.4498C69.6895 85.0985 70.2214 84.5918 70.6049 83.9769L101.604 32.0625C101.634 32.0113 101.649 31.953 101.649 31.8936C101.649 31.8342 101.632 31.776 101.602 31.725C101.572 31.6741 101.528 31.6323 101.476 31.6041C101.425 31.5759 101.366 31.5623 101.307 31.5647H100.421C100.362 31.5648 100.304 31.5799 100.253 31.6084C100.201 31.637 100.157 31.6782 100.125 31.7283L69.3485 83.2871Z" fill="#3A3A39"/>
<path d="M0.06353 19.1016H4.96175V20.058H3.16554L3.13022 26.3126H6.13694L6.75805 24.8405L7.81675 25.1464L6.9768 27.2798H0.0741274V26.3233H1.888V20.0687H0.0599976L0.06353 19.1016Z" fill="#3A3A39"/>
<path d="M7.00505 27.3254H2.31154e-05V26.2587H1.8139V20.1214H-0.0176392V19.0547H5.00413V20.1214H3.20784L3.17613 26.2587H6.07697L6.70514 24.7759L7.86964 25.1315L7.845 25.192L7.00505 27.3254ZM0.123487 27.2081H6.92743L7.72852 25.1848L6.79681 24.9146L6.18277 26.3689H3.07378V26.312L3.10548 19.9969H4.90178V19.1578H0.127019V19.9969H1.95502V20.0574V26.3689H0.141149L0.123487 27.2081Z" fill="#3A3A39"/>
<path d="M8.73083 27.2692V26.3126H10.2553L12.895 20.058H11.2894V19.1016H14.3737L17.2534 26.3126H18.7638V27.2692H14.8995V26.3126H15.9017L15.3936 25.0504H11.9563L11.4164 26.3126H12.4363V27.2692H8.73083ZM12.355 24.0938H15.0124L13.7526 20.5025L12.355 24.0938Z" fill="#3A3A39"/>
<path d="M18.8237 27.3254H14.8395V26.2587H15.8099L15.3512 25.1137H11.9987L11.5081 26.2587H12.4962V27.3254H8.66724V26.2587H10.213L12.8032 20.1214H11.2293V19.0547H14.4054V19.0938L17.271 26.2658H18.799L18.8237 27.3254ZM14.9595 27.2081H18.7038V26.3725H17.211V26.3369L14.3454 19.1613H11.3634V20.0005H13.0009L12.9656 20.0823L10.3118 26.3725H8.80492V27.2116H12.3868V26.3725H11.3281L11.921 24.9928H15.45L16.0041 26.3725H14.9736L14.9595 27.2081ZM15.0971 24.1501H12.2739L13.7632 20.3241L15.0971 24.1501ZM12.4433 24.0328H14.9136L13.742 20.6761L12.4433 24.0328Z" fill="#3A3A39"/>
<path d="M23.5808 27.4752C22.9225 27.4835 22.265 27.4239 21.6187 27.2974C21.0611 27.1765 20.5953 27.0556 20.2071 26.9418L19.9072 25.2492L20.9659 25.1675L21.1882 26.2093C21.5204 26.3049 21.8573 26.3832 22.1975 26.444C22.648 26.5151 23.1037 26.5473 23.5596 26.54C23.927 26.5446 24.2932 26.4955 24.6466 26.3942C24.9542 26.3142 25.2346 26.1521 25.4583 25.9248C25.5653 25.8058 25.6478 25.6666 25.7011 25.5152C25.7544 25.3639 25.7774 25.2034 25.7688 25.043C25.7756 24.6938 25.6565 24.354 25.4336 24.0865C25.0885 23.7618 24.6353 23.5791 24.1632 23.5745L22.9527 23.4216C22.1958 23.3617 21.4714 23.0867 20.8635 22.6286C20.4813 22.3151 20.2321 21.8667 20.1666 21.3745C20.101 20.8824 20.224 20.3836 20.5106 19.9796C20.7961 19.6152 21.1796 19.3412 21.6152 19.1902C22.2244 18.9792 22.8663 18.8804 23.5103 18.8986C23.9232 18.8986 24.2902 18.8986 24.6149 18.9413C24.9302 18.9688 25.2437 19.0151 25.5536 19.08C25.8847 19.1524 26.2111 19.2451 26.5311 19.3573L26.7993 21.0783L25.7406 21.1743L25.5324 20.0649C25.2638 19.9785 24.987 19.9201 24.7066 19.8907C24.3105 19.8462 23.9123 19.826 23.5138 19.8302C22.9588 19.8032 22.4054 19.9118 21.901 20.1467C21.722 20.2261 21.5701 20.3567 21.464 20.5223C21.358 20.6879 21.3026 20.8812 21.3046 21.0783C21.2967 21.2532 21.3326 21.4274 21.4091 21.5846C21.4855 21.7418 21.6001 21.8771 21.7422 21.9779C22.1056 22.2175 22.5232 22.3606 22.9562 22.394L24.4067 22.5895C25.1364 22.6381 25.8331 22.9139 26.4005 23.3789C26.6092 23.5696 26.7749 23.8032 26.8863 24.0639C26.9977 24.3246 27.0522 24.6063 27.0463 24.8901C27.053 25.2851 26.9569 25.6749 26.7675 26.0209C26.5821 26.3468 26.3235 26.6245 26.0124 26.8316C25.6718 27.0536 25.2974 27.2182 24.9042 27.3187C24.4715 27.4276 24.0268 27.4802 23.5808 27.4752Z" fill="#3A3A39"/>
<path d="M23.5808 27.5352C22.9176 27.544 22.2554 27.4832 21.6047 27.3539C21.0471 27.233 20.5777 27.1121 20.193 26.9983H20.1577L19.8401 25.2204L21.0082 25.1279L21.2341 26.1947C21.5411 26.28 21.8658 26.3547 22.2046 26.4187C22.6505 26.4883 23.1014 26.5204 23.5527 26.5147C23.9106 26.5165 24.267 26.4674 24.6114 26.3689C24.9088 26.2919 25.1796 26.1345 25.3948 25.9137C25.497 25.8007 25.5758 25.6683 25.6267 25.5242C25.6776 25.3801 25.6995 25.2273 25.6912 25.0746C25.6975 24.7387 25.5835 24.4118 25.3701 24.1537C25.0323 23.8448 24.5945 23.6703 24.1385 23.663L22.928 23.51C22.1613 23.4479 21.4275 23.1694 20.8106 22.7064C20.5749 22.5199 20.3849 22.281 20.2558 22.0084C20.1266 21.7358 20.0617 21.4368 20.066 21.1348C20.0583 20.7215 20.1819 20.3166 20.4189 19.9792C20.7093 19.6028 21.1033 19.3208 21.5517 19.1684C22.1675 18.9545 22.8168 18.8545 23.468 18.8733C23.8809 18.8733 24.2549 18.8733 24.5761 18.9124C24.894 18.9391 25.2099 18.9866 25.5218 19.0547C25.8564 19.127 26.1864 19.2196 26.5099 19.332H26.5417L26.8275 21.1455L25.6595 21.2557L25.4477 20.125C25.1936 20.0464 24.9324 19.994 24.6678 19.9685C24.2742 19.9226 23.8782 19.9013 23.482 19.9045C22.9367 19.8804 22.3935 19.9877 21.8975 20.2174C21.7281 20.2916 21.5841 20.4145 21.4837 20.5707C21.3832 20.7269 21.3308 20.9096 21.3329 21.0957C21.3245 21.2615 21.3579 21.4268 21.4301 21.576C21.5023 21.7253 21.6109 21.8537 21.7458 21.9491C22.1027 22.1815 22.5114 22.3208 22.9351 22.3544L24.3819 22.5464C25.1246 22.5989 25.8332 22.8807 26.4111 23.3536C26.6252 23.5501 26.7951 23.7903 26.9095 24.0583C27.024 24.3263 27.0802 24.6158 27.0746 24.9075C27.0824 25.3125 26.9838 25.7124 26.7887 26.0667C26.5982 26.4014 26.3323 26.6864 26.0124 26.8987C25.6671 27.1232 25.2881 27.2901 24.8901 27.393C24.4611 27.4944 24.0214 27.5422 23.5808 27.5352ZM20.2813 26.8916C20.6342 27.0054 21.0964 27.1227 21.6293 27.2472C22.2717 27.3767 22.9258 27.4374 23.5808 27.4285C24.0235 27.4295 24.4645 27.3746 24.8936 27.265C25.2796 27.1661 25.6469 27.004 25.9806 26.7849C26.2841 26.5832 26.5366 26.3129 26.7182 25.9955C26.9005 25.6576 26.9929 25.2778 26.9864 24.8932C26.9916 24.6178 26.9386 24.3444 26.8309 24.0912C26.7232 23.838 26.5633 23.6108 26.3618 23.4247C25.8025 22.969 25.1172 22.6983 24.3996 22.6496L22.9527 22.4575C22.5084 22.4205 22.0803 22.2727 21.7069 22.0273C21.5583 21.9204 21.4383 21.7781 21.3576 21.613C21.277 21.448 21.2381 21.2653 21.2447 21.0815C21.2437 20.8737 21.3029 20.6701 21.4151 20.4957C21.5273 20.3214 21.6877 20.1839 21.8764 20.1001C22.3895 19.8601 22.9522 19.7479 23.5173 19.7729C23.9182 19.7697 24.3189 19.7911 24.7172 19.8369C25.0025 19.8648 25.2841 19.9232 25.5571 20.0112H25.5924L25.7935 21.1028L26.7252 21.0174L26.4676 19.3925C26.161 19.2872 25.8488 19.1994 25.5324 19.1293C25.2251 19.0639 24.9139 19.0188 24.6008 18.9942C24.2832 18.9658 23.9126 18.9516 23.5032 18.9516C22.8675 18.9318 22.2336 19.0294 21.6328 19.2395C21.2068 19.3851 20.8318 19.6519 20.553 20.0076C20.3223 20.3226 20.1986 20.7042 20.2001 21.0957C20.1976 21.3807 20.2598 21.6626 20.3822 21.9196C20.5045 22.1766 20.6837 22.402 20.9059 22.5784C21.5069 23.0269 22.2212 23.2956 22.9668 23.3536L24.1738 23.5065C24.6615 23.5162 25.1286 23.706 25.4866 24.0398C25.7182 24.3187 25.8434 24.6718 25.8395 25.0355C25.856 25.3736 25.7392 25.7046 25.5147 25.9564C25.2834 26.192 24.9932 26.3603 24.6749 26.4436C24.3156 26.546 23.9436 26.5963 23.5702 26.5929C23.1107 26.5992 22.6514 26.5659 22.1975 26.4933C21.8547 26.4327 21.5153 26.3532 21.1811 26.2551H21.1459L20.927 25.2311L19.9989 25.3057L20.2813 26.8916Z" fill="#3A3A39"/>
<path d="M32.9645 19.1016H41.1588V21.3737H39.9519V20.058H37.711L37.6792 26.3126H39.1896V27.2692H34.8948V26.3126H36.4052V20.058H34.1608V21.3737H32.9539L32.9645 19.1016Z" fill="#3A3A39"/>
<path d="M39.2426 27.3247H34.8278V26.258H36.3382V20.1207H34.2208V21.4399H32.8868V19.0469H41.2012V21.4399H39.8708V20.1207H37.7534L37.7216 26.258H39.232L39.2426 27.3247ZM34.9477 27.2074H39.119V26.3718H37.6086V26.3149L37.6404 19.9998H40.0048V21.319H41.0918V19.1606H33.0421V21.319H34.1008V19.9998H36.4652V20.0603L36.4476 26.3718H34.9372L34.9477 27.2074Z" fill="#3A3A39"/>
<path d="M42.6304 27.269V26.3125H44.1267V20.0579H42.6304V19.1014H46.8476C47.5393 19.0772 48.2301 19.1709 48.8908 19.3787C49.3351 19.5188 49.717 19.8105 49.9707 20.2037C50.2017 20.62 50.3141 21.0925 50.2954 21.5691C50.3175 21.9181 50.2604 22.2677 50.1283 22.5912C49.9962 22.9147 49.7927 23.2035 49.5331 23.4358C49.025 23.8625 48.1216 24.0795 46.8476 24.0795H45.3936V26.3125H46.3959V27.269H42.6304ZM45.4148 23.0945H46.8476C47.2317 23.1023 47.6154 23.0653 47.991 22.9843C48.2702 22.9273 48.5203 22.7723 48.6968 22.5469C48.8587 22.2519 48.9436 21.9204 48.9436 21.5833C48.9436 21.2462 48.8587 20.9146 48.6968 20.6197C48.5201 20.3932 48.2704 20.2361 47.991 20.1752C47.616 20.0896 47.232 20.0502 46.8476 20.0579H45.4148V23.0945ZM49.0073 27.269L46.9569 24.0083L48.3086 23.8696L49.932 26.3125H51.3788V27.269H49.0073Z" fill="#3A3A39"/>
<path d="M51.4388 27.3261H48.9685L48.9509 27.2977L46.9605 24.1366H45.4536V26.27H46.4523V27.3368H42.5704V26.27H44.0667V20.115H42.5704V19.0483H46.8476C47.5465 19.0253 48.2443 19.1202 48.9121 19.3292C49.3694 19.4736 49.7625 19.7741 50.0237 20.179C50.2657 20.6037 50.3877 21.0869 50.3766 21.5764C50.3977 21.9337 50.3381 22.2911 50.2024 22.6218C50.0667 22.9525 49.8584 23.2479 49.5931 23.4859C49.264 23.7391 48.8811 23.9119 48.4745 23.9908L49.9814 26.2594H51.4565L51.4388 27.3261ZM49.0427 27.2088H51.3189V26.3732H49.9073L48.3404 24.0121C47.9378 24.0901 47.5292 24.1329 47.1193 24.1401L49.0427 27.2088ZM42.6905 27.2088H46.3359V26.3732H45.3337V24.0228H46.8899L46.8511 23.9659L48.3369 23.813L48.3827 23.8806C48.7856 23.8104 49.1658 23.6433 49.4909 23.3934C49.7429 23.1662 49.9405 22.8843 50.0689 22.5689C50.1973 22.2536 50.253 21.913 50.2319 21.5729C50.2486 21.1064 50.1389 20.6442 49.9143 20.2359C49.6651 19.8527 49.2905 19.5696 48.8556 19.4359C48.2028 19.231 47.5204 19.1384 46.837 19.1621H42.6834V20.0012H44.1762V26.3732H42.6834L42.6905 27.2088ZM46.8441 23.1552H45.3513V19.9977H46.8441C47.2333 19.9913 47.6219 20.0319 48.0015 20.1186C48.2949 20.1821 48.557 20.3469 48.7427 20.5844C48.9137 20.8892 49.0036 21.2334 49.0036 21.5836C49.0036 21.9337 48.9137 22.2779 48.7427 22.5827C48.5573 22.8192 48.2947 22.9817 48.0015 23.0414C47.6231 23.1295 47.236 23.1736 46.8476 23.173L46.8441 23.1552ZM45.4713 23.0343H46.8441C47.2233 23.0414 47.6021 23.0056 47.9734 22.9277C48.2391 22.8742 48.4769 22.7266 48.6438 22.5116C48.7989 22.2272 48.8803 21.908 48.8803 21.5836C48.8803 21.2591 48.7989 20.9399 48.6438 20.6555C48.4754 20.4408 48.2386 20.2913 47.9734 20.2323C47.6031 20.1471 47.2239 20.1077 46.8441 20.115H45.4713V23.0343Z" fill="#3A3A39"/>
<path d="M52.7305 19.1016H59.7885L60.6002 21.235L59.5661 21.5408L58.931 20.058H55.529V22.5684H58.5004V23.5285H55.529V26.3162H59.2662L59.9015 24.8299L60.9354 25.1357L60.1273 27.2692H52.7164V26.3126H54.2445V20.058H52.7199L52.7305 19.1016Z" fill="#3A3A39"/>
<path d="M60.152 27.3254H52.6528V26.2587H54.1773L54.195 20.1214H52.667V19.0547H59.8343L60.6813 21.2877L59.5309 21.6255L58.8921 20.1285H55.5889V22.5216H58.5639V23.5883H55.5889V26.2587H59.2238L59.8626 24.7617L61.013 25.1173L60.152 27.3254ZM52.7728 27.2081H60.0673L60.8401 25.1706L59.919 24.9004L59.2908 26.3689H55.4513L55.469 23.4638H58.451V22.6247H55.476V19.9969H58.9839L59.612 21.469L60.5331 21.1988L59.7567 19.1578H52.8046V19.9969H54.3326V20.0574L54.315 26.3689H52.7869L52.7728 27.2081Z" fill="#3A3A39"/>
<path d="M66.1195 27.4752C65.46 27.4835 64.8013 27.4239 64.1538 27.2974C63.5998 27.1765 63.134 27.0556 62.7634 26.9418L62.46 25.2492L63.5187 25.1675L63.7409 26.2093C64.0731 26.3053 64.41 26.3836 64.7503 26.444C65.1996 26.515 65.6541 26.5471 66.1089 26.54C66.4774 26.5443 66.8447 26.4953 67.1994 26.3942C67.5069 26.3142 67.7874 26.1521 68.0111 25.9248C68.2258 25.6836 68.3374 25.3667 68.3216 25.043C68.3284 24.6938 68.2093 24.354 67.9864 24.0865C67.6413 23.7618 67.188 23.5791 66.7159 23.5745L65.5055 23.4216C64.7476 23.3616 64.0221 23.0867 63.4128 22.6286C63.1843 22.4472 63.0002 22.2153 62.8747 21.9508C62.7493 21.6863 62.6858 21.3964 62.6893 21.1032C62.6837 20.7002 62.8075 20.306 63.0422 19.9796C63.3269 19.6143 63.7105 19.3401 64.1468 19.1902C64.7547 18.9791 65.3955 18.8803 66.0383 18.8986C66.4548 18.8986 66.8217 18.8986 67.1429 18.9413C67.4583 18.9683 67.7718 19.0146 68.0816 19.08C68.4129 19.152 68.7394 19.2446 69.0592 19.3573L69.3309 21.0783L68.2722 21.1743L68.064 20.0649C67.7954 19.9785 67.5186 19.9201 67.2382 19.8907C66.8421 19.8462 66.4439 19.826 66.0454 19.8302C65.4893 19.8036 64.9349 19.9122 64.4291 20.1467C64.2503 20.2265 64.0987 20.3572 63.9927 20.5227C63.8867 20.6882 63.8311 20.8814 63.8327 21.0783C63.827 21.2529 63.8638 21.4263 63.9401 21.5831C64.0164 21.74 64.1298 21.8756 64.2703 21.9779C64.6353 22.217 65.0538 22.36 65.4878 22.394L66.9347 22.5895C67.6657 22.6374 68.3637 22.9133 68.9321 23.3789C69.1396 23.5703 69.3042 23.8042 69.4149 24.0647C69.5257 24.3253 69.5801 24.6067 69.5744 24.8901C69.5829 25.2853 69.4867 25.6756 69.2956 26.0209C69.1113 26.3477 68.8525 26.6256 68.5404 26.8316C68.2011 27.0536 67.8279 27.2182 67.4358 27.3187C67.0054 27.4268 66.5631 27.4794 66.1195 27.4752Z" fill="#3A3A39"/>
<path d="M66.1195 27.5352C65.4552 27.544 64.7917 27.4832 64.1398 27.3539C63.5857 27.233 63.1163 27.1121 62.7458 26.9983H62.7105L62.3893 25.2204L63.561 25.1279L63.7869 26.1947C64.0904 26.28 64.4186 26.3547 64.7538 26.4187C65.1998 26.488 65.6507 26.5201 66.1019 26.5147C66.4598 26.516 66.8161 26.4669 67.1606 26.3689C67.4576 26.291 67.7283 26.1338 67.944 25.9138C68.1478 25.684 68.2532 25.3823 68.2369 25.0746C68.2442 24.7391 68.1315 24.4123 67.9194 24.1537C67.5802 23.8448 67.1413 23.6705 66.6842 23.663L65.4772 23.51C64.7106 23.4474 63.977 23.1689 63.3598 22.7064C63.1247 22.5193 62.9353 22.2803 62.8062 22.0079C62.6771 21.7354 62.6118 21.4367 62.6152 21.1348C62.606 20.7213 62.7298 20.3159 62.9681 19.9792C63.2586 19.6028 63.6525 19.3208 64.1009 19.1685C64.7156 18.9544 65.3636 18.8545 66.0136 18.8733C66.4265 18.8733 66.8007 18.8733 67.1253 18.9125C67.4433 18.9396 67.7591 18.9872 68.0711 19.0547C68.4046 19.1266 68.7335 19.2192 69.0557 19.332H69.0909L69.3768 21.1455L68.2051 21.2557L67.997 20.125C67.7428 20.0468 67.4816 19.9943 67.2171 19.9685C66.8235 19.9227 66.4275 19.9013 66.0313 19.9045C65.4859 19.8796 64.9425 19.9869 64.4468 20.2174C64.2771 20.2912 64.1329 20.414 64.0324 20.5703C63.9319 20.7266 63.8795 20.9095 63.8821 21.0957C63.8737 21.2615 63.9072 21.4268 63.9794 21.576C64.0516 21.7253 64.1602 21.8537 64.2951 21.9491C64.651 22.181 65.0583 22.3202 65.4808 22.3544L66.9312 22.5464C67.6737 22.5996 68.3821 22.8814 68.9604 23.3536C69.1737 23.5506 69.3432 23.791 69.4575 24.0589C69.5719 24.3267 69.6285 24.6159 69.6238 24.9075C69.6304 25.3128 69.5306 25.7127 69.3345 26.0667C69.1462 26.402 68.8812 26.6873 68.5616 26.8987C68.2163 27.1232 67.8374 27.2901 67.4394 27.393C67.0069 27.4951 66.5636 27.5429 66.1195 27.5352ZM62.8164 26.8916C63.1693 27.0054 63.6316 27.1227 64.168 27.2472C64.8103 27.3767 65.4645 27.4374 66.1195 27.4285C66.561 27.4298 67.0009 27.3749 67.4288 27.265C67.8153 27.1675 68.1827 27.0053 68.5157 26.7849C68.8201 26.5843 69.0729 26.3137 69.2533 25.9955C69.4384 25.6585 69.532 25.2783 69.525 24.8932C69.5296 24.6176 69.476 24.3441 69.3677 24.0909C69.2594 23.8378 69.0989 23.6107 68.8969 23.4247C68.3386 22.9697 67.6547 22.699 66.9383 22.6496L65.4914 22.4575C65.047 22.4211 64.6187 22.2732 64.2456 22.0273C64.0963 21.9211 63.9757 21.7789 63.8949 21.6137C63.8142 21.4485 63.7759 21.2655 63.7834 21.0815C63.7821 20.8741 63.8408 20.6708 63.9523 20.4965C64.0639 20.3222 64.2234 20.1844 64.4115 20.1001C64.9256 19.8595 65.4897 19.7473 66.056 19.7729C66.4569 19.7698 66.8576 19.7912 67.2559 19.8369C67.5412 19.8648 67.8228 19.9232 68.0958 20.0112H68.1275L68.3322 21.1028L69.2603 21.0174L69.0062 19.3925C68.6995 19.2877 68.3873 19.1999 68.0711 19.1293C67.7637 19.0642 67.4526 19.0191 67.1395 18.9942C66.8183 18.9658 66.4336 18.9516 66.0384 18.9516C65.4027 18.9323 64.7689 19.0299 64.168 19.2396C63.7488 19.3871 63.3811 19.6539 63.1093 20.0076C62.8786 20.3226 62.7548 20.7042 62.7564 21.0957C62.7539 21.3807 62.8162 21.6626 62.9385 21.9196C63.0609 22.1766 63.24 22.402 63.4622 22.5784C64.0619 23.0268 64.7751 23.2955 65.5196 23.3536L66.73 23.5065C67.2177 23.5162 67.6849 23.706 68.0428 24.0399C68.2745 24.3187 68.3996 24.6718 68.3957 25.0355C68.4123 25.3736 68.2956 25.7046 68.0711 25.9564C67.8386 26.1905 67.5488 26.3585 67.2311 26.4436C66.8707 26.546 66.4976 26.5963 66.1231 26.5929C65.6647 26.5991 65.2066 26.5657 64.7538 26.4933C64.4108 26.4335 64.0715 26.354 63.7374 26.2551H63.7021L63.4834 25.2311L62.5552 25.3057L62.8164 26.8916Z" fill="#3A3A39"/>
<path d="M75.5173 27.2692V26.3126H77.0276V20.058H75.5173V19.1016H79.5721C80.7061 19.1016 81.573 19.2841 82.1729 19.6491C82.453 19.8044 82.685 20.0348 82.8432 20.3147C83.0014 20.5945 83.0796 20.9131 83.0693 21.235C83.0693 21.6197 82.9455 21.994 82.7164 22.3018C82.4763 22.6396 82.1493 22.9051 81.7707 23.0698C82.2042 23.1992 82.5945 23.445 82.8999 23.7809C83.2087 24.1266 83.3741 24.5784 83.3623 25.0433C83.3675 25.3513 83.3012 25.6564 83.1689 25.9341C83.0366 26.2119 82.8418 26.4548 82.5999 26.6433C82.0882 27.0665 81.3013 27.2763 80.2284 27.2763L75.5173 27.2692ZM78.284 26.2984H80.1755C80.6579 26.3299 81.1376 26.2053 81.5448 25.9429C81.706 25.8191 81.8341 25.6567 81.9173 25.4704C82.0005 25.2841 82.0362 25.0799 82.0212 24.8761C82.0308 24.6874 81.9946 24.4991 81.9159 24.3275C81.8372 24.1559 81.7184 24.0062 81.5695 23.8912C81.1865 23.6335 80.7306 23.5087 80.2708 23.5356H78.2981L78.284 26.2984ZM78.284 22.7213H80.2744C80.66 22.7482 81.0406 22.6204 81.3331 22.3657C81.4551 22.2372 81.5494 22.0846 81.6102 21.9175C81.6709 21.7505 81.6967 21.5726 81.686 21.395C81.686 20.5084 81.0284 20.0652 79.7132 20.0652H78.2663L78.284 22.7213Z" fill="#3A3A39"/>
<path d="M80.2391 27.3247H75.4573V26.258H76.9677V20.1136H75.4573V19.0469H79.5722C80.712 19.0469 81.5978 19.2353 82.2048 19.6051C82.4936 19.7656 82.733 20.0031 82.8967 20.2917C83.0604 20.5802 83.1421 20.9085 83.1329 21.2408C83.1266 21.6244 83.0034 21.9968 82.78 22.3075C82.5606 22.6103 82.2711 22.8545 81.9366 23.0186C82.3273 23.163 82.6773 23.401 82.9564 23.7121C83.2749 24.0683 83.4455 24.5342 83.4329 25.0135C83.4373 25.3302 83.3688 25.6436 83.2329 25.9292C83.097 26.2149 82.8973 26.4649 82.6494 26.6598C82.1307 27.1078 81.319 27.3247 80.2391 27.3247ZM75.5773 27.2074H80.2391C81.2978 27.2074 82.0742 27.0011 82.5683 26.5922C82.8036 26.4084 82.9932 26.1721 83.1224 25.9018C83.2517 25.6316 83.3168 25.3347 83.3129 25.0348C83.3226 24.5846 83.1624 24.1474 82.8647 23.8116C82.569 23.4777 82.1882 23.2318 81.7637 23.1005L81.6154 23.0542L81.7566 22.9902C82.1253 22.8286 82.4436 22.5694 82.6776 22.24C82.89 21.9451 83.006 21.5909 83.0094 21.2266C83.0184 20.9149 82.9422 20.6068 82.7891 20.3358C82.636 20.0649 82.4118 19.8416 82.1412 19.6904C81.5519 19.3349 80.6873 19.15 79.5722 19.15H75.5773V19.9892H77.0877V26.3718H75.5773V27.2074ZM80.165 26.354H78.2135V23.5093H80.2462C80.7173 23.4788 81.1856 23.6036 81.5801 23.8649C81.7365 23.9851 81.8615 24.1417 81.9445 24.3213C82.0275 24.501 82.0659 24.6982 82.0565 24.8961C82.0692 25.1082 82.0302 25.3202 81.9429 25.5136C81.8555 25.707 81.7225 25.8759 81.5554 26.0055C81.1442 26.2685 80.6621 26.3965 80.1756 26.3718L80.165 26.354ZM78.3335 26.2366H80.165C80.6347 26.2634 81.1007 26.1389 81.4954 25.8811C81.6481 25.7628 81.7695 25.6085 81.849 25.4318C81.9284 25.255 81.9633 25.0613 81.9507 24.8677C81.9609 24.6876 81.927 24.5078 81.8519 24.3441C81.7768 24.1804 81.6629 24.0378 81.5202 23.9289C81.1469 23.6837 80.705 23.5664 80.2603 23.5947H78.351L78.3335 26.2366ZM80.278 22.7769H78.2276V19.9962H79.7345C81.0861 19.9962 81.7707 20.4656 81.7707 21.3866C81.7789 21.573 81.749 21.7592 81.6828 21.9335C81.6167 22.1078 81.5156 22.2666 81.386 22.3999C81.0839 22.6667 80.6894 22.8022 80.2885 22.7769H80.278ZM78.351 22.6596H80.278C80.6512 22.6818 81.018 22.5539 81.2978 22.304C81.4174 22.1817 81.5104 22.0358 81.5712 21.8754C81.6319 21.7151 81.659 21.5438 81.6507 21.3723C81.6507 20.5154 81.0261 20.0994 79.738 20.0994H78.3546L78.351 22.6596Z" fill="#3A3A39"/>
<path d="M83.5634 27.2692V26.3126H85.0914L87.7311 20.058H86.1254V19.1016H89.2098L92.086 26.3126H93.5964V27.2692H89.7145V26.3126H90.7167L90.2085 25.0504H86.7748L86.2348 26.3126H87.2512V27.2692H83.5634ZM87.1877 24.0938H89.8591L88.6028 20.5025L87.1877 24.0938Z" fill="#3A3A39"/>
<path d="M93.6599 27.3254H89.6721V26.2587H90.6461L90.1838 25.1137H86.8313L86.3443 26.2587H87.3289V27.3254H83.507V26.2587H85.0526L87.6429 20.1214H86.0655V19.0547H89.2416V19.0938L92.1037 26.2658H93.6352L93.6599 27.3254ZM89.7957 27.2081H93.5364V26.3725H92.0436V26.3369L89.1816 19.1613H86.1996V20.0005H87.8335L87.8017 20.0823L85.1303 26.3725H83.6234V27.2116H87.2089V26.3725H86.1502L86.7395 24.9928H90.2685L90.8261 26.3725H89.7957V27.2081ZM89.9297 24.1501H87.1065L88.5993 20.3241L89.9297 24.1501ZM87.2759 24.0328H89.7462L88.5711 20.6761L87.2759 24.0328Z" fill="#3A3A39"/>
<path d="M94.6797 19.1016H98.2087L102.264 25.5766V20.058H100.926V19.1016H105.076V20.058H103.534V27.2692H101.974L97.4606 20.058L97.4924 26.3126H98.8263V27.2692H94.6762V26.3126H96.2043L96.1866 20.058H94.6939L94.6797 19.1016Z" fill="#3A3A39"/>
<path d="M103.58 27.3247H101.928V27.2963L97.5242 20.27L97.556 26.2509H98.8935V27.3176H94.6198V26.2509H96.1444V20.1136H94.6481V19.0469H98.2582L98.2759 19.0753L102.218 25.3726V20.1136H100.884V19.0469H105.157V20.1136H103.612L103.58 27.3247ZM101.995 27.2074H103.46V19.9962H105.002V19.1571H100.972V19.9962H102.31V25.7886L98.1594 19.1571H94.7398V19.9962H96.2361V20.0567V26.3682H94.708V27.2074H98.7381V26.3718H97.4042V26.3149L97.3725 19.8469L101.995 27.2074Z" fill="#3A3A39"/>
<path d="M110.627 19.1016C112.145 19.1016 113.327 19.4737 114.174 20.218C114.601 20.6069 114.937 21.0865 115.157 21.6221C115.377 22.1578 115.477 22.736 115.448 23.3151C115.475 23.8629 115.377 24.4096 115.162 24.9132C114.947 25.4169 114.62 25.864 114.206 26.2202C113.38 26.9313 112.23 27.2869 110.754 27.2869H106.4V26.3304H107.91V20.0758H106.4V19.1193L110.627 19.1016ZM110.469 26.3126C111.668 26.3126 112.573 26.0578 113.182 25.5482C113.494 25.2712 113.739 24.9258 113.897 24.5387C114.055 24.1516 114.124 23.733 114.096 23.3151C114.096 22.246 113.801 21.4353 113.211 20.883C112.62 20.3307 111.759 20.0557 110.627 20.058H109.18V26.3126H110.469Z" fill="#3A3A39"/>
<path d="M110.754 27.3247H106.336V26.258H107.857V20.1136H106.347V19.0469H110.638C112.162 19.0469 113.369 19.4273 114.227 20.1776C114.66 20.5723 115.001 21.0591 115.224 21.6027C115.447 22.1464 115.548 22.7333 115.519 23.3209C115.545 23.8774 115.445 24.4326 115.226 24.9441C115.007 25.4557 114.675 25.9099 114.255 26.2722C113.412 26.9691 112.237 27.3247 110.754 27.3247ZM106.46 27.2074H110.754C112.208 27.2074 113.355 26.8518 114.167 26.1762C114.57 25.8253 114.888 25.3871 115.099 24.8945C115.31 24.4019 115.408 23.8675 115.384 23.3316C115.414 22.7606 115.317 22.1903 115.1 21.6619C114.883 21.1336 114.553 20.6605 114.132 20.2772C113.299 19.566 112.12 19.1749 110.627 19.1749H106.445V20.014H107.956V26.3718H106.445L106.46 27.2074ZM110.469 26.3682H109.12V19.9962H110.627C111.774 19.9962 112.657 20.2807 113.256 20.839C113.856 21.3972 114.156 22.2293 114.156 23.328C114.183 23.7546 114.113 24.1818 113.951 24.5769C113.789 24.972 113.539 25.3244 113.221 25.6073C112.604 26.1086 111.675 26.3718 110.469 26.3718V26.3682ZM109.244 26.2509H110.469C111.647 26.2509 112.544 25.9984 113.14 25.5042C113.444 25.2317 113.683 24.8926 113.838 24.5131C113.993 24.1335 114.059 23.7233 114.033 23.3138C114.033 22.2471 113.743 21.4613 113.168 20.9243C112.593 20.3874 111.739 20.1136 110.627 20.1136H109.244V26.2509Z" fill="#3A3A39"/>
<path d="M115.621 27.2692V26.3126H117.149L119.789 20.058H118.183V19.1016H121.267L124.143 26.3126H125.657V27.2692H121.775V26.3126H122.774L122.266 25.0504H118.832L118.292 26.3126H119.309V27.2692H115.621ZM119.245 24.0938H121.903L120.646 20.5025L119.245 24.0938Z" fill="#3A3A39"/>
<path d="M125.717 27.3254H121.73V26.2587H122.704L122.241 25.1137H118.889L118.402 26.2587H119.386V27.3254H115.561V26.2587H117.107L119.697 20.1214H118.12V19.0547H121.296V19.0938L124.158 26.2658H125.689L125.717 27.3254ZM121.836 27.2081H125.576V26.3725H124.091V26.3369L121.228 19.1613H118.247V20.0005H119.88L119.849 20.0823L117.191 26.3725H115.684V27.2116H119.27V26.3725H118.211L118.801 24.9928H122.33L122.887 26.3725H121.857L121.836 27.2081ZM121.97 24.1501H119.146L120.639 20.3241L121.97 24.1501ZM119.319 24.0328H121.79L120.614 20.6761L119.319 24.0328Z" fill="#3A3A39"/>
<path d="M130.475 27.4752C129.815 27.4835 129.156 27.4239 128.509 27.2974C127.951 27.1765 127.489 27.0556 127.118 26.9418L126.815 25.2492L127.874 25.1675L128.096 26.2093C128.428 26.3053 128.765 26.3836 129.105 26.444C129.555 26.515 130.009 26.5471 130.464 26.54C130.833 26.5443 131.2 26.4953 131.554 26.3942C131.862 26.3142 132.142 26.1521 132.366 25.9248C132.581 25.6836 132.692 25.3667 132.677 25.043C132.683 24.6938 132.564 24.354 132.341 24.0865C131.996 23.7618 131.543 23.5791 131.071 23.5745L129.861 23.4216C129.103 23.3616 128.377 23.0867 127.768 22.6286C127.539 22.4472 127.355 22.2153 127.23 21.9508C127.104 21.6863 127.041 21.3964 127.044 21.1032C127.039 20.7002 127.163 20.306 127.397 19.9796C127.682 19.6143 128.066 19.3401 128.502 19.1902C129.11 18.9791 129.751 18.8803 130.393 18.8986C130.806 18.8986 131.177 18.8986 131.498 18.9413C131.813 18.9683 132.127 19.0146 132.437 19.08C132.768 19.152 133.094 19.2446 133.414 19.3573L133.686 21.0783L132.627 21.1743L132.419 20.0649C132.15 19.9785 131.874 19.9201 131.593 19.8907C131.197 19.8463 130.799 19.8261 130.4 19.8302C129.844 19.8032 129.29 19.9118 128.784 20.1467C128.605 20.2265 128.454 20.3572 128.348 20.5227C128.242 20.6882 128.186 20.8814 128.188 21.0783C128.182 21.2529 128.219 21.4263 128.295 21.5831C128.372 21.74 128.485 21.8756 128.625 21.9779C128.99 22.217 129.409 22.36 129.843 22.394L131.29 22.5895C132.021 22.6374 132.719 22.9133 133.287 23.3789C133.495 23.5703 133.659 23.8042 133.77 24.0647C133.881 24.3253 133.935 24.6067 133.929 24.8901C133.938 25.2853 133.842 25.6756 133.651 26.0209C133.466 26.3477 133.207 26.6256 132.895 26.8316C132.556 27.0536 132.183 27.2182 131.791 27.3187C131.36 27.4268 130.918 27.4794 130.475 27.4752Z" fill="#3A3A39"/>
<path d="M130.475 27.5351C129.81 27.5439 129.147 27.4832 128.495 27.3538C127.941 27.2329 127.471 27.112 127.083 26.9982H127.051L126.73 25.2203L127.902 25.1279L128.128 26.1946C128.431 26.2799 128.756 26.3546 129.095 26.4186C129.541 26.4879 129.992 26.52 130.443 26.5146C130.801 26.5159 131.157 26.4668 131.501 26.3688C131.799 26.291 132.069 26.1337 132.285 25.9137C132.489 25.6839 132.594 25.3822 132.578 25.0745C132.586 24.7384 132.471 24.4109 132.257 24.1536C131.919 23.8441 131.481 23.6696 131.025 23.6629L129.818 23.51C129.052 23.4473 128.318 23.1688 127.701 22.7064C127.466 22.5192 127.276 22.2803 127.147 22.0078C127.018 21.7353 126.953 21.4366 126.956 21.1347C126.952 20.7192 127.082 20.3137 127.327 19.9791C127.616 19.6036 128.009 19.3217 128.456 19.1684C129.072 18.9547 129.721 18.8547 130.372 18.8733C130.785 18.8733 131.159 18.8733 131.484 18.9124C131.802 18.9396 132.118 18.9871 132.43 19.0546C132.763 19.1265 133.092 19.2191 133.414 19.3319H133.449L133.735 21.1454L132.564 21.2556L132.355 20.1249C132.101 20.0467 131.84 19.9943 131.576 19.9684C131.182 19.9227 130.786 19.9013 130.39 19.9045C129.844 19.8795 129.301 19.9868 128.805 20.2173C128.636 20.2911 128.491 20.4139 128.391 20.5702C128.29 20.7266 128.238 20.9094 128.241 21.0956C128.232 21.2615 128.266 21.4267 128.338 21.576C128.41 21.7252 128.519 21.8536 128.654 21.949C129.009 22.1814 129.417 22.3207 129.839 22.3543L131.286 22.5464C132.03 22.5988 132.74 22.8806 133.319 23.3535C133.532 23.5507 133.701 23.7912 133.814 24.0591C133.928 24.327 133.984 24.6161 133.979 24.9074C133.987 25.3124 133.888 25.7124 133.693 26.0666C133.505 26.4019 133.24 26.6872 132.92 26.8986C132.574 27.1237 132.194 27.2907 131.794 27.3929C131.362 27.4955 130.919 27.5433 130.475 27.5351ZM127.171 26.8915C127.524 27.0053 127.987 27.1226 128.523 27.2471C129.165 27.3766 129.82 27.4374 130.475 27.4284C130.916 27.4297 131.356 27.3748 131.784 27.2649C132.17 27.1668 132.537 27.0045 132.871 26.7849C133.175 26.5842 133.428 26.3136 133.608 25.9955C133.793 25.6584 133.887 25.2783 133.88 24.8932C133.885 24.6175 133.831 24.344 133.723 24.0909C133.614 23.8377 133.454 23.6106 133.252 23.4246C132.694 22.9696 132.01 22.6989 131.293 22.6495L129.846 22.4575C129.402 22.4218 128.973 22.2738 128.601 22.0272C128.451 21.921 128.331 21.7789 128.25 21.6136C128.169 21.4484 128.131 21.2654 128.138 21.0814C128.137 20.874 128.196 20.6707 128.307 20.4964C128.419 20.3221 128.578 20.1843 128.766 20.1C129.281 19.8594 129.845 19.7472 130.411 19.7728C130.812 19.7698 131.213 19.7912 131.611 19.8369C131.896 19.8648 132.178 19.9232 132.451 20.0111H132.483L132.687 21.1027L133.615 21.0174L133.361 19.3924C133.054 19.2876 132.742 19.1998 132.426 19.1293C132.119 19.0641 131.807 19.019 131.494 18.9942C131.173 18.9657 130.789 18.9515 130.393 18.9515C129.758 18.9323 129.124 19.0298 128.523 19.2395C128.104 19.387 127.736 19.6538 127.464 20.0075C127.234 20.3226 127.11 20.7041 127.111 21.0956C127.109 21.3807 127.171 21.6625 127.294 21.9195C127.416 22.1765 127.595 22.4019 127.817 22.5784C128.417 23.0267 129.13 23.2954 129.875 23.3535L131.085 23.5064C131.572 23.5153 132.038 23.7053 132.394 24.0398C132.627 24.3179 132.753 24.6715 132.747 25.0354C132.756 25.2032 132.731 25.3709 132.675 25.529C132.618 25.6871 132.531 25.8324 132.419 25.9563C132.188 26.1911 131.9 26.3593 131.583 26.4435C131.222 26.546 130.849 26.5963 130.475 26.5928C130.016 26.5991 129.558 26.5658 129.105 26.4933C128.762 26.4334 128.423 26.3539 128.089 26.2551H128.054L127.835 25.231L126.907 25.3057L127.171 26.8915Z" fill="#3A3A39"/>
<path d="M67.0018 69.3989C62.3611 69.3989 58.5886 65.7507 58.5886 61.2668C58.5886 56.783 62.3611 53.1348 67.0018 53.1348C71.6424 53.1348 75.4149 56.783 75.4149 61.2668C75.4149 65.7507 71.6424 69.3989 67.0018 69.3989ZM67.0018 54.3153C63.0387 54.3153 59.8097 57.4337 59.8097 61.2668C59.8097 65.1 63.0387 68.2148 67.0018 68.2148C70.9648 68.2148 74.1904 65.1 74.1904 61.2668C74.1904 57.4337 70.9648 54.3046 67.0018 54.3046V54.3153Z" fill="#3A3A39"/>
<path d="M63.9245 63.0581C63.9245 61.8278 64.8526 61.1416 65.7384 60.8678C64.8526 60.5442 64.3268 59.9219 64.3268 59.1148C64.3268 57.9307 65.2549 57.0098 67.0688 57.0098C68.7274 57.0098 69.6839 57.9307 69.6839 59.1006C69.6782 59.5051 69.5387 59.8962 69.2875 60.2118C69.0362 60.5274 68.6876 60.7495 68.2969 60.8429C68.7938 60.9524 69.2391 61.2289 69.5597 61.6268C69.8803 62.0248 70.0572 62.5207 70.0614 63.0332C70.0614 64.516 68.7769 65.501 66.9489 65.501C65.2091 65.4867 63.9245 64.516 63.9245 63.0581ZM69.3062 63.0332C69.3062 61.8385 68.4663 61.1807 67.0088 61.1807C65.3961 61.1807 64.6973 62.0021 64.6973 63.0332C64.6973 64.0644 65.509 64.9142 66.9947 64.9142C68.364 64.9142 69.3062 64.2422 69.3062 63.0332ZM65.1103 59.0863C65.1103 59.8722 65.6537 60.594 67.0653 60.594C68.3781 60.594 68.9215 59.9966 68.9215 59.1361C68.9215 58.3538 68.364 57.6071 67.0371 57.6071C65.622 57.5964 65.1103 58.2436 65.1103 59.0863Z" fill="#3A3A39"/>
<path d="M66.9665 65.7963C64.9937 65.7963 63.6174 64.6691 63.6174 63.0584C63.621 62.5929 63.7556 62.1381 64.0055 61.7466C64.2553 61.3551 64.6102 61.043 65.029 60.8467C64.7294 60.6695 64.4809 60.4165 64.3082 60.1128C64.1355 59.809 64.0447 59.465 64.0445 59.115C64.0445 57.6571 65.2408 56.7148 67.09 56.7148C68.8086 56.7148 70.0085 57.6963 70.0085 59.1008C70.0095 59.4451 69.9231 59.7839 69.7576 60.0851C69.5921 60.3864 69.3529 60.6399 69.0628 60.8218C69.4643 61.0322 69.8008 61.3498 70.0354 61.7399C70.27 62.1299 70.3938 62.5774 70.3932 63.0335C70.3826 64.662 68.978 65.7963 66.9665 65.7963ZM64.9303 61.6147C64.7083 61.7825 64.5286 62.0006 64.4059 62.2515C64.2833 62.5023 64.2212 62.7788 64.2245 63.0584C64.2245 64.1571 65.075 64.9678 66.3419 65.1598C64.9832 64.9358 64.3692 63.9828 64.3692 63.0263C64.3676 62.5003 64.5688 61.9943 64.9303 61.6147ZM68.8333 61.3836C69.0873 61.5734 69.2912 61.8231 69.4272 62.1107C69.5632 62.3983 69.627 62.7152 69.6132 63.0335C69.6202 63.5156 69.4597 63.9849 69.1593 64.3603C68.859 64.7356 68.4378 64.9933 67.9687 65.0887C69.0768 64.8078 69.7721 64.054 69.7721 63.0335C69.7727 62.6997 69.6863 62.3717 69.5215 62.0821C69.3568 61.7926 69.1195 61.5517 68.8333 61.3836ZM67.0088 61.476C65.7137 61.476 65.0009 62.0307 65.0009 63.0335C65.0009 64.0362 65.7843 64.6194 66.9947 64.6194C68.2052 64.6194 69.0027 64.0255 69.0027 63.0335C69.0027 61.7463 67.9193 61.476 67.0088 61.476ZM66.5289 60.8431L66.6665 60.8929H66.6453C66.8803 60.8753 67.1162 60.8753 67.3512 60.8929L67.2629 60.8716C67.0179 60.8837 66.7722 60.8742 66.5289 60.8431ZM65.7772 57.5291C65.4454 57.6374 65.1566 57.8497 64.9528 58.1349C64.749 58.4202 64.641 58.7635 64.6444 59.115C64.6441 59.3712 64.7124 59.6228 64.8422 59.8431C64.9721 60.0634 65.1585 60.2443 65.3819 60.3666C65.1978 60.2094 65.0505 60.0132 64.9505 59.7919C64.8504 59.5706 64.8001 59.3297 64.8032 59.0866C64.7892 58.758 64.8749 58.4329 65.0489 58.1546C65.223 57.8764 65.477 57.6582 65.7772 57.5291ZM67.0371 57.8847C65.9466 57.8847 65.4173 58.2723 65.4173 59.0688C65.4173 59.8653 66.0172 60.2813 67.0653 60.2813C68.1134 60.2813 68.6146 59.9008 68.6146 59.1186C68.6146 58.3363 68.0252 57.8918 67.0371 57.8918V57.8847ZM67.5135 57.3229C68.7698 57.4971 69.2286 58.3648 69.2286 59.1008C69.2436 59.4943 69.1184 59.8802 68.8757 60.1888C69.0373 60.055 69.1672 59.8867 69.2564 59.6961C69.3455 59.5055 69.3914 59.2973 69.3909 59.0866C69.3909 58.1443 68.6498 57.4687 67.5135 57.33V57.3229Z" fill="#3A3A39"/>
<path d="M35.6324 13.9851V14.6963H35.3995V12.769H35.9465C36.1236 12.7579 36.2987 12.8109 36.4405 12.9184C36.5004 12.9711 36.5475 13.037 36.5781 13.111C36.6087 13.185 36.622 13.2651 36.617 13.3451C36.6194 13.4295 36.6034 13.5135 36.5698 13.591C36.5363 13.6685 36.4861 13.7375 36.4229 13.7931C36.2744 13.916 36.0855 13.9782 35.8936 13.9673L35.6324 13.9851ZM35.6324 12.993V13.7824H35.8759C36.0021 13.7876 36.1263 13.7501 36.2288 13.6758C36.2715 13.6385 36.305 13.5919 36.327 13.5395C36.3491 13.4871 36.3589 13.4303 36.3558 13.3735C36.3558 13.1175 36.2006 12.993 35.8901 12.993H35.6324Z" fill="#3A3A39"/>
<path d="M40.2166 14.7455C40.0911 14.7515 39.9658 14.7305 39.849 14.6839C39.7322 14.6373 39.6265 14.5662 39.539 14.4753C39.4508 14.3803 39.3825 14.2683 39.3383 14.1462C39.294 14.024 39.2747 13.894 39.2814 13.7641C39.2686 13.4926 39.3625 13.2269 39.5425 13.0245C39.6342 12.9309 39.7445 12.8578 39.8661 12.81C39.9878 12.7622 40.118 12.7408 40.2483 12.7472C40.3717 12.7419 40.4947 12.7633 40.6092 12.8099C40.7236 12.8565 40.8268 12.9272 40.9118 13.0174C40.9992 13.1128 41.0667 13.2249 41.1103 13.3471C41.154 13.4692 41.1729 13.5989 41.1659 13.7285C41.1806 14.0025 41.0866 14.2711 40.9048 14.4753C40.815 14.5661 40.7075 14.637 40.589 14.6836C40.4705 14.7301 40.3437 14.7512 40.2166 14.7455ZM40.2342 12.9677C40.1381 12.9644 40.0425 12.9824 39.954 13.0205C39.8656 13.0586 39.7866 13.1158 39.7225 13.1881C39.598 13.3533 39.5306 13.555 39.5306 13.7624C39.5306 13.9698 39.598 14.1715 39.7225 14.3366C39.7841 14.4079 39.8609 14.4644 39.947 14.5019C40.0331 14.5395 40.1264 14.5571 40.2202 14.5535C40.3163 14.5587 40.4123 14.5429 40.5018 14.5073C40.5913 14.4717 40.6722 14.4172 40.7389 14.3473C40.8715 14.1847 40.9383 13.9777 40.926 13.7677C40.9406 13.5547 40.875 13.344 40.7425 13.1774C40.6797 13.1044 40.6015 13.0467 40.5134 13.0085C40.4254 12.9704 40.3299 12.9527 40.2342 12.957V12.9677Z" fill="#3A3A39"/>
<path d="M44.7831 14.7455C44.6576 14.7515 44.5323 14.7305 44.4155 14.6839C44.2987 14.6373 44.1931 14.5662 44.1056 14.4753C44.0187 14.3796 43.9515 14.2674 43.9079 14.1453C43.8643 14.0233 43.845 13.8937 43.8514 13.7641C43.8373 13.4931 43.93 13.2273 44.1091 13.0245C44.2008 12.9309 44.311 12.8578 44.4327 12.81C44.5543 12.7622 44.6845 12.7408 44.8149 12.7472C44.9383 12.7414 45.0614 12.7626 45.1759 12.8092C45.2904 12.8559 45.3936 12.9269 45.4783 13.0174C45.5657 13.1128 45.6333 13.2249 45.6769 13.3471C45.7206 13.4692 45.7394 13.5989 45.7324 13.7285C45.7446 14.0015 45.6524 14.2688 45.4748 14.4753C45.3844 14.5662 45.2762 14.6372 45.1572 14.6837C45.0381 14.7302 44.9107 14.7513 44.7831 14.7455ZM44.8008 12.9677C44.7048 12.9651 44.6094 12.9835 44.5211 13.0215C44.4327 13.0596 44.3536 13.1164 44.2891 13.1881C44.1646 13.3533 44.0972 13.555 44.0972 13.7624C44.0972 13.9698 44.1646 14.1715 44.2891 14.3366C44.3507 14.4079 44.4274 14.4644 44.5135 14.5019C44.5996 14.5395 44.6929 14.5571 44.7867 14.5535C44.8828 14.5587 44.9788 14.5429 45.0683 14.5073C45.1578 14.4717 45.2387 14.4172 45.3054 14.3473C45.4396 14.1856 45.5066 13.978 45.4925 13.7677C45.5071 13.5547 45.4415 13.344 45.309 13.1774C45.2462 13.1044 45.168 13.0467 45.08 13.0085C44.992 12.9704 44.8965 12.9527 44.8008 12.957V12.9677Z" fill="#3A3A39"/>
<path d="M49.5826 14.7124H48.5486V12.7852H48.7816V14.5097H49.5826V14.7124Z" fill="#3A3A39"/>
<path d="M53.3657 14.7124H52.307V12.7852H53.3198V12.9914H52.5434V13.6314H53.2492V13.8341H52.5434V14.5097H53.3657V14.7124Z" fill="#3A3A39"/>
<path d="M56.076 14.6398V14.3731C56.1103 14.4028 56.1482 14.4279 56.1889 14.4477C56.2343 14.4698 56.2815 14.4876 56.3301 14.5011L56.4747 14.5366H56.6124C56.7249 14.545 56.8372 14.5177 56.9335 14.4584C56.9683 14.4337 56.9962 14.4006 57.0148 14.362C57.0333 14.3235 57.0418 14.2807 57.0394 14.238C57.0418 14.1903 57.0294 14.1431 57.0041 14.1028C56.9779 14.0615 56.9445 14.0253 56.9053 13.9962C56.8588 13.9609 56.8091 13.93 56.7571 13.9037L56.5735 13.8113C56.507 13.7805 56.4422 13.7461 56.3794 13.7082C56.3226 13.6761 56.2694 13.6379 56.2206 13.5944C56.1793 13.5527 56.1447 13.5047 56.1183 13.4522C56.0903 13.3935 56.077 13.3288 56.0795 13.2637C56.0767 13.1824 56.0975 13.102 56.1395 13.0326C56.179 12.9684 56.232 12.9138 56.2947 12.8726C56.3626 12.8282 56.438 12.7969 56.5171 12.7801C56.6001 12.7588 56.6855 12.748 56.7712 12.7481C56.9179 12.7388 57.0648 12.7618 57.2017 12.8157V13.0717C57.0651 12.9871 56.9067 12.9451 56.7465 12.9508C56.696 12.9455 56.6452 12.9455 56.5947 12.9508C56.5464 12.9593 56.4998 12.9761 56.4571 13.0006C56.419 13.0224 56.3864 13.0529 56.3619 13.0895C56.3359 13.1296 56.3224 13.1767 56.323 13.2246C56.3224 13.2689 56.3321 13.3127 56.3513 13.3526C56.3722 13.3914 56.4011 13.4254 56.436 13.4522C56.478 13.4846 56.5229 13.5131 56.57 13.5375L56.7571 13.6264C56.8276 13.6619 56.8947 13.6975 56.9582 13.7366C57.0195 13.7711 57.0763 13.8129 57.1276 13.8611C57.1732 13.9055 57.2114 13.9572 57.2406 14.014C57.2698 14.0723 57.2843 14.137 57.2829 14.2024C57.2865 14.2867 57.267 14.3704 57.2264 14.4442C57.1888 14.5098 57.1355 14.5649 57.0712 14.6042C57.0019 14.6474 56.9253 14.6776 56.8453 14.6931C56.7559 14.7119 56.6649 14.7214 56.5735 14.7215H56.4571L56.3159 14.7002L56.1783 14.6646C56.1433 14.6609 56.1089 14.6526 56.076 14.6398Z" fill="#3A3A39"/>
<path d="M64.5985 12.7868L63.9421 14.0028V14.714H63.7056V14.0028L63.067 12.7832H63.3316L63.7763 13.6544C63.7958 13.6921 63.8123 13.7314 63.8257 13.7717C63.8257 13.7433 63.8433 13.7041 63.8786 13.6544L64.3479 12.7832L64.5985 12.7868Z" fill="#3A3A39"/>
<path d="M70.4954 14.7132V12.786H71.0636C71.2097 12.7787 71.3539 12.8212 71.473 12.9068C71.5217 12.9442 71.5609 12.9927 71.5873 13.0483C71.6137 13.104 71.6266 13.1652 71.6248 13.2269C71.628 13.3296 71.5956 13.4302 71.533 13.5113C71.4698 13.5945 71.3821 13.6555 71.2825 13.6855C71.4032 13.6946 71.5169 13.7462 71.6036 13.8313C71.644 13.8745 71.6754 13.9253 71.696 13.9809C71.7166 14.0365 71.726 14.0957 71.7236 14.1549C71.7261 14.2317 71.7107 14.3079 71.6789 14.3776C71.647 14.4474 71.5995 14.5087 71.5401 14.5567C71.4088 14.6613 71.245 14.7155 71.0778 14.7096L70.4954 14.7132ZM70.7319 12.9922V13.6109H70.9683C71.0767 13.6178 71.1841 13.5863 71.2719 13.522C71.3089 13.4918 71.3381 13.4532 71.3572 13.4092C71.3762 13.3653 71.3844 13.3174 71.3812 13.2695C71.3812 13.0846 71.2542 12.9922 71.0001 12.9922H70.7319ZM70.7319 13.8171V14.5283H71.046C71.1609 14.5352 71.2746 14.5013 71.3672 14.4323C71.404 14.401 71.4333 14.3617 71.4529 14.3174C71.4725 14.273 71.4817 14.2247 71.48 14.1762C71.48 13.9487 71.3213 13.8207 71.0001 13.8207L70.7319 13.8171Z" fill="#3A3A39"/>
<path d="M74.9774 12.7852V12.9771H74.7833V14.5204H74.9774V14.7124H74.3563V14.5204H74.5504V12.9771H74.3563V12.7852H74.9774Z" fill="#3A3A39"/>
<path d="M78.7604 14.7124H77.7264V12.7852H77.9593V14.5097H78.7604V14.7124Z" fill="#3A3A39"/>
<path d="M82.5224 14.7124H81.4884V12.7852H81.7213V14.5097H82.5224V14.7124Z" fill="#3A3A39"/>
<path d="M86.7924 14.7124H86.5348L86.3231 14.1719H85.4761L85.2785 14.7124H85.0173L85.7831 12.7852H86.023L86.7924 14.7124ZM86.2454 13.9692L85.9314 13.1479C85.9185 13.106 85.909 13.0632 85.9031 13.0198C85.8951 13.0631 85.8844 13.1059 85.8713 13.1479L85.5608 13.9692H86.2454Z" fill="#3A3A39"/>
<path d="M90.9355 14.7142H90.6567L90.325 14.1737C90.2966 14.1295 90.266 14.0867 90.2332 14.0457C90.2084 14.0128 90.1786 13.984 90.145 13.9604C90.1168 13.9376 90.0844 13.9207 90.0497 13.9106C90.0099 13.9046 89.9695 13.9046 89.9297 13.9106H89.7391V14.732H89.5062V12.8047H90.0991C90.1813 12.8039 90.2634 12.8147 90.3426 12.8368C90.4119 12.8556 90.4766 12.8882 90.5331 12.9327C90.5885 12.9741 90.6323 13.0293 90.6602 13.0928C90.6927 13.1628 90.7084 13.2395 90.7061 13.3168C90.707 13.3799 90.6963 13.4426 90.6743 13.5017C90.6555 13.5581 90.6255 13.6101 90.5861 13.6546C90.5458 13.6978 90.4994 13.735 90.4484 13.7648C90.3913 13.7979 90.3294 13.8219 90.2649 13.8359C90.2966 13.8482 90.3263 13.8649 90.3532 13.8857C90.3772 13.9051 90.3997 13.9265 90.4203 13.9497C90.4454 13.9759 90.4678 14.0045 90.4873 14.0351L90.5614 14.1453L90.9355 14.7142ZM89.7391 12.9932V13.7044H90.0568C90.1119 13.7053 90.1668 13.6969 90.2191 13.6795C90.2659 13.6632 90.309 13.6378 90.3461 13.6048C90.3835 13.5707 90.4134 13.529 90.4335 13.4824C90.4535 13.4358 90.4635 13.3854 90.4626 13.3345C90.4647 13.2891 90.4566 13.2437 90.4389 13.2018C90.4212 13.16 90.3942 13.1227 90.3602 13.0928C90.2729 13.0305 90.1671 13.0003 90.0603 13.0074L89.7391 12.9932Z" fill="#3A3A39"/>
<path d="M94.6868 14.7124H93.6281V12.7852H94.641V12.9914H93.8611V13.6314H94.5669V13.8341H93.8611V14.5097H94.6868V14.7124Z" fill="#3A3A39"/>
<path d="M97.3972 14.6396V14.373C97.4308 14.4035 97.4689 14.4286 97.51 14.4476C97.5542 14.4696 97.6003 14.4875 97.6477 14.501L97.7959 14.5365H97.93C98.0437 14.5454 98.1573 14.518 98.2547 14.4583C98.2894 14.4336 98.3174 14.4005 98.3359 14.3619C98.3544 14.3233 98.3629 14.2806 98.3606 14.2378C98.3611 14.1904 98.3489 14.1437 98.3252 14.1027C98.299 14.0614 98.2655 14.0252 98.2264 13.996C98.1799 13.9608 98.1303 13.9299 98.0782 13.9036L97.8947 13.8112C97.8282 13.7804 97.7634 13.746 97.7006 13.708C97.6438 13.6759 97.5906 13.6378 97.5418 13.5943C97.5005 13.5518 97.4648 13.5039 97.4359 13.452C97.4107 13.3925 97.3987 13.3282 97.4007 13.2636C97.3978 13.1823 97.4187 13.1019 97.4607 13.0324C97.5002 12.9683 97.5531 12.9137 97.6159 12.8724C97.6834 12.8275 97.759 12.7961 97.8383 12.78C97.9213 12.7584 98.0067 12.7477 98.0924 12.748C98.239 12.739 98.3859 12.762 98.5229 12.8155V13.0715C98.3861 12.9874 98.2278 12.9454 98.0676 12.9507C98.0172 12.9454 97.9664 12.9454 97.9159 12.9507C97.8674 12.9586 97.8207 12.9754 97.7782 13.0004C97.7401 13.0223 97.7075 13.0527 97.6829 13.0893C97.6555 13.1288 97.6419 13.1763 97.6442 13.2245C97.6436 13.2688 97.6532 13.3126 97.6723 13.3525C97.6933 13.3913 97.7221 13.4252 97.757 13.452C97.7991 13.4845 97.844 13.513 97.8912 13.5374L98.0747 13.6263C98.1448 13.6594 98.2131 13.6961 98.2794 13.7365C98.3406 13.7709 98.3975 13.8128 98.4488 13.861C98.4944 13.9054 98.5325 13.957 98.5617 14.0138C98.5909 14.0722 98.6055 14.1369 98.604 14.2023C98.6077 14.2866 98.5882 14.3702 98.5476 14.4441C98.51 14.5097 98.4565 14.5647 98.3923 14.6041C98.323 14.6473 98.2465 14.6774 98.1665 14.693C98.0771 14.7118 97.986 14.7213 97.8947 14.7214H97.7782L97.6371 14.7001L97.4994 14.6645C97.4644 14.6608 97.43 14.6525 97.3972 14.6396Z" fill="#3A3A39"/>
<path d="M48.6474 33.5483V31.6211H49.1979C49.9037 31.6211 50.2566 31.934 50.2566 32.5598C50.2616 32.6926 50.238 32.8249 50.1875 32.9477C50.1369 33.0705 50.0606 33.1808 49.9637 33.271C49.7463 33.4584 49.4661 33.5551 49.1803 33.5412L48.6474 33.5483ZM48.8803 31.8238V33.3421H49.1768C49.3985 33.3557 49.617 33.2832 49.7873 33.1394C49.8623 33.0646 49.9207 32.9746 49.9585 32.8752C49.9962 32.7759 50.0125 32.6696 50.0061 32.5634C50.0061 32.0727 49.7343 31.8238 49.1909 31.8238H48.8803Z" fill="#3A3A39"/>
<path d="M54.1209 33.5483H53.0622V31.6211H54.0751V31.8238H53.2951V32.4638H54.0009V32.67H53.2951V33.3421H54.1209V33.5483Z" fill="#3A3A39"/>
<path d="M56.8311 33.485V33.2183C56.8658 33.2464 56.9038 33.2703 56.9441 33.2894C56.9888 33.3111 57.0348 33.3301 57.0817 33.3463L57.2299 33.3783C57.2745 33.383 57.3194 33.383 57.364 33.3783C57.4775 33.3854 57.5906 33.3581 57.6887 33.3001C57.7238 33.2749 57.7519 33.2411 57.7704 33.2019C57.7889 33.1627 57.7972 33.1194 57.7945 33.0761C57.7941 33.0288 57.782 32.9823 57.7593 32.941C57.733 32.9007 57.6995 32.8658 57.6605 32.8379C57.6139 32.8026 57.5643 32.7717 57.5123 32.7454L57.3288 32.653C57.2582 32.6174 57.1946 32.5854 57.1346 32.5498C57.0777 32.5165 57.0245 32.4772 56.9759 32.4325C56.9329 32.3922 56.8981 32.3439 56.8735 32.2903C56.845 32.2317 56.8317 32.1669 56.8346 32.1018C56.8319 32.0216 56.8528 31.9424 56.8947 31.8742C56.9342 31.8101 56.9872 31.7555 57.05 31.7142C57.118 31.6696 57.1932 31.6371 57.2722 31.6182C57.3557 31.5996 57.4409 31.5901 57.5263 31.5898C57.673 31.5808 57.8199 31.6038 57.9569 31.6573V31.9098C57.8197 31.8269 57.6615 31.7861 57.5017 31.7924C57.4512 31.7889 57.4004 31.7889 57.3499 31.7924C57.3011 31.8015 57.2545 31.8195 57.2123 31.8458C57.1742 31.8677 57.1416 31.8981 57.117 31.9347C57.089 31.9739 57.0753 32.0216 57.0782 32.0698C57.0776 32.1141 57.0872 32.1579 57.1064 32.1978C57.1266 32.2362 57.1556 32.2691 57.1911 32.2938C57.2314 32.3287 57.2767 32.3574 57.3252 32.3792L57.5087 32.4716L57.7134 32.5783C57.773 32.6151 57.8297 32.6568 57.8828 32.7027C57.9276 32.7479 57.9656 32.7994 57.9957 32.8556C58.0246 32.9154 58.0391 32.9812 58.0381 33.0476C58.0412 33.1319 58.0216 33.2154 57.9816 33.2894C57.9421 33.3536 57.8891 33.4082 57.8263 33.4495C57.7563 33.4911 57.68 33.5212 57.6005 33.5383C57.5111 33.5572 57.4201 33.5667 57.3288 33.5668H57.2123L57.0712 33.5455L56.9335 33.5099C56.8984 33.5062 56.864 33.4978 56.8311 33.485Z" fill="#3A3A39"/>
<path d="M60.8578 33.5483V31.6211H61.4082C62.114 31.6211 62.467 31.934 62.467 32.5598C62.4719 32.6926 62.4484 32.8249 62.3979 32.9477C62.3473 33.0705 62.271 33.1808 62.1741 33.271C61.9567 33.4584 61.6765 33.5551 61.3907 33.5412L60.8578 33.5483ZM61.0907 31.8238V33.3421H61.3871C61.6089 33.3557 61.8274 33.2832 61.9977 33.1394C62.0727 33.0646 62.1311 32.9746 62.1688 32.8752C62.2066 32.7759 62.2228 32.6696 62.2164 32.5634C62.2164 32.0727 61.9447 31.8238 61.4013 31.8238H61.0907Z" fill="#3A3A39"/>
<path d="M66.3313 33.5483H65.2726V31.6211H66.2854V31.8238H65.509V32.4638H66.2148V32.67H65.509V33.3421H66.3348L66.3313 33.5483Z" fill="#3A3A39"/>
<path d="M73.4069 33.5484H72.2141V33.3493L72.7928 32.7875C72.9116 32.6803 73.0193 32.5612 73.114 32.4319C73.1739 32.3413 73.2058 32.2349 73.2058 32.1261C73.2087 32.0791 73.2017 32.032 73.1853 31.9878C73.1689 31.9437 73.1434 31.9036 73.1105 31.8701C73.031 31.8051 72.9304 31.7721 72.8282 31.7776C72.6363 31.7842 72.4538 31.8628 72.3165 31.9981V31.767C72.4734 31.6496 72.6646 31.5883 72.8599 31.5928C73.0123 31.5842 73.1622 31.6336 73.2799 31.7314C73.3285 31.7767 73.367 31.8317 73.3932 31.893C73.4193 31.9542 73.4324 32.0203 73.4316 32.087C73.4292 32.213 73.3926 32.336 73.3257 32.4425C73.2192 32.6053 73.0923 32.7535 72.9482 32.8835L72.4859 33.3209H73.4139L73.4069 33.5484Z" fill="#3A3A39"/>
<path d="M76.7771 33.5817C76.6855 33.585 76.5947 33.564 76.5136 33.521C76.4326 33.478 76.364 33.4143 76.3149 33.3364C76.1906 33.1212 76.1328 32.8736 76.1489 32.6252C76.1309 32.3554 76.191 32.0862 76.3219 31.8501C76.3747 31.7664 76.4486 31.6983 76.536 31.6527C76.6234 31.6071 76.7212 31.5857 76.8195 31.5905C77.2395 31.5905 77.4477 31.9176 77.4477 32.5754C77.4638 32.8365 77.4024 33.0965 77.2712 33.3222C77.2182 33.4048 77.1448 33.4721 77.0582 33.5176C76.9716 33.5631 76.8747 33.5852 76.7771 33.5817ZM76.8089 31.7754C76.5231 31.7754 76.3819 32.0563 76.3819 32.6146C76.3819 33.1728 76.5195 33.3968 76.8018 33.3968C77.0842 33.3968 77.2147 33.1301 77.2147 32.6003C77.2147 32.0705 77.0771 31.7754 76.8018 31.7754H76.8089Z" fill="#3A3A39"/>
<path d="M81.3542 33.548H80.2285V33.3525H80.6838V31.8555L80.2214 31.9906V31.7808L80.9272 31.5781V33.356H81.3754L81.3542 33.548Z" fill="#3A3A39"/>
<path d="M84.6857 33.5817C84.5942 33.5843 84.5036 33.563 84.4227 33.52C84.3417 33.4771 84.273 33.4138 84.2234 33.3363C84.1007 33.1206 84.0431 32.8734 84.0575 32.6252C84.0409 32.3555 84.1009 32.0866 84.2304 31.8501C84.2841 31.7664 84.3586 31.6983 84.4465 31.6528C84.5345 31.6072 84.6328 31.5858 84.7315 31.5905C85.148 31.5905 85.3562 31.9176 85.3562 32.5754C85.3741 32.8366 85.3125 33.0971 85.1797 33.3221C85.1269 33.405 85.0536 33.4726 84.9669 33.5181C84.8803 33.5636 84.7833 33.5855 84.6857 33.5817ZM84.7174 31.7754C84.4351 31.7754 84.2939 32.0563 84.2939 32.6146C84.2939 33.1728 84.4315 33.3968 84.7103 33.3968C84.9891 33.3968 85.1233 33.1301 85.1233 32.6003C85.1233 32.0705 84.9891 31.7754 84.7174 31.7754Z" fill="#3A3A39"/>
</g>
<defs>
<clipPath id="clip0_271_3701">
<rect width="134" height="86" fill="white"/>
</clipPath>
</defs>
</svg>
