<svg width="110" height="105" viewBox="0 0 110 105" fill="none" xmlns="http://www.w3.org/2000/svg">
<g clip-path="url(#clip0_271_3860)">
<path d="M25.8195 29.824L29.2583 26.2141L30.487 27.2812L25.604 32.4144L18.9856 26.6743L23.7729 21.6641L25.0016 22.7312L21.6824 26.2141L25.8195 29.824ZM22.9869 27.5748L26.0269 24.4012L27.2237 25.4366L24.1838 28.6101L22.9869 27.5748Z" fill="#3A3A39"/>
<path d="M32.8887 25.508L28.1014 18.3041L29.9325 17.1934L33.8262 23.0366L37.8156 20.6287L38.7212 21.9854L32.8887 25.508Z" fill="#3A3A39"/>
<path d="M48.9022 19.0437L43.6761 11.1099L46.0019 10.8045L50.5817 17.8338L49.2134 18.0123L51.7028 10.0785L53.8451 9.79688L51.0285 18.778L48.9022 19.0437Z" fill="#3A3A39"/>
<path d="M57.2401 18.6338L58.0379 10.1367L60.2042 10.3232L59.4063 18.8203L57.2401 18.6338Z" fill="#3A3A39"/>
<path d="M65.5859 18.4038L70.453 19.9033L69.9384 21.4107L63.0208 19.2765L65.7734 11.1562L72.5275 13.2389L72.0168 14.7463L67.3174 13.2984L65.5859 18.4038ZM66.5673 15.016L70.8679 16.341L70.3732 17.8008L66.0726 16.4759L66.5673 15.016Z" fill="#3A3A39"/>
<path d="M73.9796 23.8119C73.472 23.5081 73.0332 23.1028 72.6911 22.6218C72.3762 22.1963 72.1757 21.6979 72.1086 21.1739L73.8719 20.6899C73.9033 21.0425 74.0021 21.3858 74.1631 21.7015C74.3122 21.9811 74.5358 22.2144 74.8094 22.3759C75.5515 22.836 76.1938 22.6654 76.7283 21.8721L79.0263 18.4566L76.2337 16.7547L77.1313 15.4219L81.7271 18.2384L78.5914 22.8955C77.993 23.7841 77.3028 24.2998 76.5289 24.4426C75.7549 24.5854 74.9132 24.3831 73.9796 23.8119Z" fill="#3A3A39"/>
<path d="M82.5329 30.7449C82.0703 30.2471 81.7014 29.6707 81.4438 29.0432C81.2099 28.4773 81.0958 27.8697 81.1087 27.258C81.1165 26.6726 81.2527 26.0959 81.5076 25.5681C81.7819 25.0194 82.1725 24.5362 82.6526 24.152C83.1329 23.7496 83.6929 23.4523 84.2962 23.2792C84.8858 23.1121 85.5031 23.0649 86.1114 23.1404C86.7444 23.2171 87.3573 23.4109 87.9186 23.7116C88.5205 24.033 89.0607 24.4573 89.5144 24.9652C89.9741 25.4592 90.3403 26.0317 90.5955 26.6551C90.8222 27.2201 90.9347 27.824 90.9266 28.4322C90.9133 29.0183 90.7774 29.5951 90.5277 30.1261C90.2589 30.6828 89.8692 31.1733 89.3867 31.5621C88.9041 31.9654 88.3413 32.2628 87.7351 32.4349C87.1455 32.6015 86.5282 32.6487 85.9199 32.5737C85.2917 32.4952 84.6832 32.3029 84.1247 32.0064C83.5244 31.6811 82.9858 31.2542 82.5329 30.7449ZM83.8574 29.6342C84.1151 29.924 84.425 30.1635 84.771 30.3403C85.0999 30.5099 85.4591 30.6137 85.8282 30.6458C86.1966 30.6808 86.5683 30.6417 86.9213 30.5307C87.2971 30.4102 87.6454 30.2175 87.9466 29.9635C88.2488 29.7193 88.4984 29.4171 88.6806 29.0749C88.843 28.7605 88.9382 28.4161 88.9599 28.0633C88.9789 27.709 88.9217 27.3547 88.7923 27.024C88.6512 26.6664 88.4442 26.3381 88.1819 26.0561C87.9232 25.7662 87.6137 25.5256 87.2683 25.346C86.9397 25.1799 86.5823 25.0776 86.2152 25.0445C85.8454 25.0099 85.4724 25.049 85.1181 25.1595C84.7431 25.2793 84.3959 25.4721 84.0968 25.7268C83.7974 25.9696 83.5493 26.2689 83.3667 26.6075C83.1981 26.9216 83.1 27.2683 83.0794 27.6238C83.0587 27.9793 83.1159 28.335 83.247 28.6663C83.3867 29.0228 83.5909 29.3509 83.8494 29.6342H83.8574Z" fill="#3A3A39"/>
<path d="M27.6666 86.4668C27.0984 86.0479 26.6095 85.5321 26.2224 84.9435C25.8686 84.4163 25.6281 83.822 25.5163 83.198C25.4061 82.5912 25.4327 81.9676 25.5941 81.3722C25.7555 80.7767 26.0478 80.2243 26.4498 79.7548C26.854 79.2579 27.3599 78.8523 27.9338 78.5647C28.4992 78.2865 29.1153 78.1246 29.745 78.0887C30.4037 78.0516 31.0635 78.135 31.6919 78.3346C32.3681 78.5487 33.0014 78.879 33.5629 79.3105C34.13 79.7233 34.6167 80.2355 34.9991 80.8219C35.3462 81.3489 35.5836 81.9397 35.6973 82.5594C35.8013 83.1535 35.7809 83.7625 35.6374 84.3484C35.4781 84.9601 35.1822 85.5282 34.7717 86.0106C34.3677 86.5108 33.8584 86.917 33.2797 87.2007C32.7132 87.4804 32.0958 87.6436 31.4645 87.6807C30.8112 87.7154 30.157 87.6321 29.5336 87.4347C28.8593 87.2226 28.2275 86.8951 27.6666 86.4668ZM28.7836 85.0942C29.1026 85.3412 29.4653 85.5269 29.8528 85.6417C30.2194 85.7527 30.6042 85.7917 30.9858 85.7567C31.3644 85.7239 31.7322 85.6145 32.0669 85.4354C32.4228 85.2462 32.7364 84.9871 32.9884 84.6737C33.2482 84.3719 33.4412 84.0192 33.555 83.6384C33.6566 83.2872 33.6822 82.9185 33.6299 82.5568C33.5776 82.195 33.4487 81.8484 33.2518 81.5399C32.8088 80.8644 32.1429 80.3636 31.3687 80.1237C31.0017 80.0146 30.6173 79.9756 30.2357 80.0086C29.8564 80.0442 29.4878 80.1534 29.1506 80.33C28.7961 80.5228 28.483 80.7829 28.2291 81.0956C27.9754 81.3973 27.7855 81.7467 27.6706 82.123C27.5676 82.4744 27.5391 82.8431 27.5868 83.206C27.6455 83.5701 27.7815 83.9176 27.9857 84.2255C28.1992 84.5625 28.4738 84.857 28.7956 85.0942H28.7836Z" fill="#3A3A39"/>
<path d="M39.4393 92.6264L37.3209 91.9242L40.3409 83.5938L47.2586 85.8827L46.696 87.4258L41.9087 85.839L39.4393 92.6264ZM40.9433 88.001L45.3316 89.4529L44.7692 90.996L40.3808 89.5441L40.9433 88.001Z" fill="#3A3A39"/>
<path d="M49.337 94.9328L50.2187 86.1738L52.4528 86.3801L51.5671 95.1589L49.337 94.9328Z" fill="#3A3A39"/>
<path d="M62.1869 94.7627C61.4858 94.8743 60.7708 94.8662 60.0725 94.7389C59.4335 94.6269 58.8224 94.3925 58.2733 94.0486C57.7507 93.7211 57.3013 93.2904 56.9528 92.7832C56.6033 92.2587 56.3696 91.6665 56.2671 91.0456C56.1647 90.4247 56.1958 89.7893 56.3584 89.1812C56.5313 88.5984 56.8249 88.058 57.2201 87.5945C57.6351 87.1053 58.1419 86.7011 58.7121 86.4044C59.3369 86.0841 60.0111 85.8696 60.7068 85.7697C61.4748 85.6438 62.2597 85.6626 63.0207 85.8252C63.7077 85.9739 64.3499 86.281 64.8957 86.7218L63.671 88.1261C63.3126 87.8428 62.8983 87.6377 62.4549 87.5242C62.0116 87.4108 61.5491 87.3915 61.0978 87.4675C60.6789 87.5306 60.2741 87.6648 59.901 87.8642C59.562 88.0412 59.2633 88.2856 59.0233 88.5822C58.7929 88.8698 58.6258 89.2023 58.5326 89.5581C58.437 89.9384 58.4233 90.3345 58.4927 90.7204C58.5467 91.1104 58.6827 91.4848 58.8916 91.8192C59.0989 92.1362 59.3707 92.4065 59.6895 92.6126C60.0128 92.8229 60.3749 92.9671 60.7547 93.0371C61.173 93.1108 61.6011 93.1108 62.0194 93.0371C62.4687 92.9761 62.9006 92.8235 63.288 92.5888C63.6746 92.3475 64.0051 92.027 64.2574 91.6487L65.8532 92.6285C65.4709 93.2071 64.9571 93.6882 64.3531 94.0328C63.6836 94.4093 62.9487 94.6569 62.1869 94.7627Z" fill="#3A3A39"/>
<path d="M71.0315 92.2067L67.3412 84.1419L69.3958 83.2891L73.086 91.3538L71.0315 92.2067Z" fill="#3A3A39"/>
<path d="M82.3374 85.9548C81.7789 86.3992 81.1472 86.7441 80.4704 86.9743C79.8464 87.1889 79.1872 87.2845 78.5275 87.256C77.8985 87.228 77.2814 87.0756 76.7123 86.8077C76.1329 86.5303 75.619 86.1342 75.2043 85.6454C74.7874 85.1717 74.4809 84.6123 74.3067 84.0071C74.144 83.4235 74.11 82.8119 74.207 82.214C74.3119 81.5895 74.5412 80.992 74.8812 80.4567C75.2506 79.8648 75.7251 79.3446 76.2815 78.9215C76.8366 78.4783 77.4659 78.1358 78.1405 77.9099C78.7599 77.6995 79.4136 77.6067 80.0675 77.6362C80.6967 77.6648 81.3145 77.8144 81.8866 78.0765C82.4712 78.3493 82.9886 78.746 83.4026 79.2388C83.8214 79.7158 84.128 80.2795 84.3002 80.8891C84.4626 81.4714 84.4966 82.0816 84.3999 82.6781C84.2959 83.298 84.0695 83.8912 83.7337 84.4236C83.3646 85.0133 82.8916 85.532 82.3374 85.9548ZM81.1765 84.6219C81.4962 84.3813 81.767 84.0824 81.9744 83.7413C82.166 83.428 82.2883 83.0778 82.3334 82.7139C82.3806 82.3518 82.3493 81.9839 82.2417 81.6348C82.0603 81.0725 81.7167 80.5756 81.2535 80.206C80.7903 79.8364 80.2279 79.6104 79.6366 79.5562C79.255 79.5282 78.8716 79.574 78.5076 79.6911C78.1209 79.8163 77.76 80.0098 77.4424 80.2623C77.124 80.5043 76.8535 80.8029 76.6445 81.1429C76.4564 81.4579 76.3343 81.8074 76.2855 82.1704C76.2377 82.5327 76.2704 82.901 76.3812 83.2494C76.5011 83.6273 76.6996 83.976 76.9637 84.2728C77.2211 84.5805 77.5387 84.8329 77.8972 85.0147C78.2357 85.19 78.606 85.2966 78.9863 85.328C79.3679 85.356 79.7513 85.3103 80.1153 85.1932C80.5006 85.0675 80.8601 84.874 81.1765 84.6219Z" fill="#3A3A39"/>
<path d="M38.9725 49.4952C40.8356 47.7815 42.4673 46.4328 43.9074 44.9135C45.9939 42.7158 48.3516 40.9981 51.3756 40.1532C52.3856 39.8575 53.3669 39.4725 54.3078 39.0028C55.2413 38.5545 55.7121 39.1813 56.0392 39.7128C56.2028 39.9786 55.9475 40.6768 55.6403 40.9624C51.7506 44.731 47.8091 48.448 43.9114 52.2086C43.2651 52.8314 42.8223 52.8869 42.1521 52.2324C41.2545 51.3438 40.2252 50.5623 38.9725 49.4952Z" fill="#3A3A39"/>
<path d="M48.0245 49.1425L50.2546 46.9766C52.0778 48.7736 53.8131 50.5468 55.5964 52.2407C60.4582 56.911 65.3345 61.5721 70.2255 66.224C71.3226 67.2752 71.1392 68.3463 69.6591 68.8739C69.2881 69.0088 68.558 68.6518 68.1989 68.3185C64.7242 65.0617 61.2933 61.7652 57.8265 58.4806L48.0245 49.1425Z" fill="#3A3A39"/>
<path d="M43.2372 44.2904C42.942 43.3582 43.9992 42.307 45.4952 42.5569L43.2372 44.2904Z" fill="#3A3A39"/>
<path d="M13.8313 52.5032C13.8306 59.4879 15.7778 66.3359 19.4564 72.2862C19.5608 72.4495 19.7053 72.5836 19.8763 72.6759C20.0474 72.7682 20.2392 72.8157 20.4338 72.8138C20.6278 72.8213 20.8202 72.7769 20.9911 72.6852C21.1619 72.5936 21.305 72.458 21.4052 72.2927C21.5054 72.1274 21.5592 71.9384 21.561 71.7454C21.5627 71.5523 21.5124 71.3624 21.4152 71.1953C18.8525 67.0503 17.1689 62.4283 16.4678 57.6129C15.7666 52.7975 16.0628 47.8904 17.338 43.1929C17.3786 43.0299 17.3808 42.8598 17.3444 42.6958C17.308 42.5318 17.234 42.3783 17.1283 42.2474C17.0225 42.1165 16.8878 42.0117 16.7345 41.941C16.5813 41.8704 16.4137 41.8359 16.2449 41.8402C16.0007 41.836 15.7617 41.9111 15.5643 42.0544C15.367 42.1976 15.2222 42.401 15.1518 42.6336C14.2741 45.8508 13.83 49.1697 13.8313 52.5032Z" fill="#3A3A39"/>
<path d="M93.6554 41.8461C93.4865 41.8418 93.319 41.8763 93.1658 41.9469C93.0125 42.0175 92.8778 42.1224 92.772 42.2533C92.6662 42.3842 92.5923 42.5376 92.5559 42.7016C92.5195 42.8656 92.5217 43.0358 92.5623 43.1988C93.8403 47.8944 94.1382 52.8005 93.4377 57.6149C92.7372 62.4294 91.0531 67.0503 88.4891 71.1932C88.3919 71.3603 88.3415 71.5503 88.3433 71.7433C88.3451 71.9363 88.3989 72.1254 88.4991 72.2907C88.5993 72.456 88.7423 72.5915 88.9132 72.6832C89.084 72.7748 89.2765 72.8192 89.4705 72.8117C89.6651 72.8136 89.8569 72.7662 90.0279 72.6739C90.199 72.5815 90.3435 72.4474 90.4479 72.2841C93.1572 67.896 94.9367 63.004 95.6776 57.9078C96.4185 52.8117 96.105 47.6188 94.7565 42.6474C94.6847 42.4148 94.539 42.2117 94.3411 42.0686C94.1432 41.9255 93.904 41.8502 93.6594 41.854L93.6554 41.8461Z" fill="#3A3A39"/>
<path d="M28.9272 51.804C28.9423 52.1865 28.8421 52.5649 28.6393 52.8904C28.4365 53.2159 28.1405 53.4736 27.7893 53.6306C27.4381 53.7875 27.0477 53.8365 26.6683 53.7711C26.2889 53.7058 25.9378 53.5291 25.6601 53.2638C25.3824 52.9986 25.1909 52.6568 25.11 52.2825C25.0291 51.9081 25.0627 51.5183 25.2064 51.163C25.35 50.8078 25.5972 50.5034 25.9162 50.2889C26.2351 50.0744 26.6113 49.9596 26.9963 49.9593C27.4983 49.9498 27.9835 50.1386 28.3455 50.4845C28.7075 50.8303 28.9167 51.3049 28.9272 51.804Z" fill="#3A3A39"/>
<path d="M84.8388 51.804C84.8547 52.1876 84.7548 52.5673 84.5519 52.894C84.3491 53.2207 84.0525 53.4796 83.7004 53.6374C83.3483 53.7951 82.9568 53.8445 82.5763 53.7792C82.1957 53.7138 81.8436 53.5367 81.5651 53.2707C81.2866 53.0046 81.0945 52.6618 81.0136 52.2864C80.9327 51.9109 80.9667 51.5199 81.1111 51.1638C81.2555 50.8076 81.5038 50.5026 81.824 50.288C82.1442 50.0733 82.5217 49.9589 82.9079 49.9593C83.4098 49.9498 83.8951 50.1386 84.2571 50.4845C84.6191 50.8303 84.8283 51.3049 84.8388 51.804Z" fill="#3A3A39"/>
<path d="M54.0286 105.005H53.9727C53.5389 105 53.1117 104.899 52.7223 104.709C52.3329 104.519 51.9914 104.245 51.7227 103.906C51.5918 103.743 51.4287 103.608 51.2435 103.511C51.0582 103.413 50.8548 103.354 50.6457 103.338C50.4366 103.321 50.2264 103.348 50.0281 103.416C49.8297 103.483 49.6475 103.591 49.4926 103.731C49.1729 104.022 48.7926 104.239 48.3788 104.367C47.965 104.494 47.528 104.529 47.099 104.469C46.6704 104.414 46.26 104.263 45.8987 104.027C45.5373 103.791 45.2343 103.477 45.0125 103.109C44.9043 102.931 44.7601 102.778 44.589 102.659C44.418 102.54 44.2239 102.458 44.0191 102.418C43.8128 102.378 43.6002 102.379 43.3944 102.423C43.1887 102.466 42.994 102.551 42.8223 102.672C42.4666 102.924 42.0591 103.094 41.6293 103.17C41.1996 103.246 40.7582 103.226 40.3369 103.113C39.9203 103.01 39.533 102.814 39.205 102.539C38.8771 102.264 38.6173 101.917 38.4459 101.526C38.3621 101.338 38.239 101.17 38.0849 101.033C37.9309 100.897 37.7493 100.794 37.5523 100.732C37.3517 100.666 37.1398 100.641 36.9293 100.659C36.7187 100.677 36.514 100.737 36.3275 100.836C35.9433 101.043 35.5176 101.164 35.081 101.188C34.6444 101.213 34.2077 101.141 33.8023 100.978C33.4031 100.824 33.045 100.58 32.7559 100.265C32.4667 99.9509 32.2542 99.5746 32.1347 99.1655C32.0754 98.9663 31.9733 98.7823 31.8356 98.6262C31.6978 98.47 31.5277 98.3454 31.3368 98.261C31.1456 98.1713 30.9379 98.1215 30.7265 98.1147C30.5152 98.1078 30.3047 98.1441 30.1081 98.2213C29.7021 98.3818 29.2654 98.4507 28.8295 98.4233C28.3935 98.3959 27.9691 98.2727 27.5867 98.0627C27.2121 97.864 26.8891 97.5813 26.6433 97.2371C26.3975 96.8928 26.2357 96.4964 26.1705 96.0792C26.1391 95.8765 26.064 95.683 25.9504 95.5118C25.8368 95.3407 25.6873 95.1959 25.5123 95.0875C25.3358 94.9776 25.1388 94.9044 24.933 94.8723C24.7273 94.8403 24.5172 94.85 24.3154 94.901C23.8934 95.0118 23.4518 95.028 23.0227 94.9484C22.5936 94.8688 22.1876 94.6955 21.834 94.4409C21.487 94.1972 21.2027 93.8754 21.0045 93.5018C20.8062 93.1282 20.6994 92.7132 20.693 92.2908C20.6879 92.0867 20.6386 91.886 20.5484 91.7025C20.4582 91.5191 20.3293 91.3571 20.1704 91.2277C20.0085 91.0937 19.82 90.9952 19.6173 90.9384C19.4145 90.8817 19.202 90.8681 18.9936 90.8984C18.5634 90.9566 18.1255 90.9192 17.7116 90.7888C17.2977 90.6585 16.9181 90.4385 16.5999 90.1447C16.2867 89.8602 16.0458 89.5058 15.8974 89.1106C15.749 88.7154 15.6972 88.2907 15.7462 87.8717C15.7692 87.6699 15.7476 87.4656 15.6828 87.2731C15.618 87.0805 15.5116 86.9044 15.3712 86.757C15.2284 86.6075 15.0564 86.4889 14.8656 86.4084C14.6748 86.3278 14.4694 86.2872 14.2621 86.2889H14.2102C13.7816 86.2918 13.3577 86.2006 12.9688 86.0216C12.5798 85.8426 12.2354 85.5803 11.9603 85.2535C11.6869 84.9333 11.4946 84.5527 11.3995 84.1434C11.3044 83.7341 11.3093 83.3082 11.4137 82.9011C11.4656 82.7041 11.4722 82.498 11.4328 82.2981C11.3934 82.0982 11.3091 81.9098 11.1863 81.7468C11.0618 81.58 10.904 81.4407 10.7228 81.3376C10.5415 81.2345 10.3407 81.1699 10.1331 81.1478C9.70209 81.1054 9.28644 80.9663 8.9174 80.7409C8.54837 80.5155 8.23561 80.2097 8.00274 79.8466C7.77712 79.4967 7.63814 79.0984 7.59723 78.6847C7.55631 78.271 7.61464 77.8535 7.76738 77.4665C7.84704 77.2757 7.88194 77.0694 7.8695 76.8632C7.85706 76.657 7.79758 76.4564 7.69555 76.2764C7.5943 76.0949 7.4556 75.9367 7.28852 75.8123C7.12145 75.6879 6.9298 75.6 6.72615 75.5545C6.30537 75.4617 5.91152 75.2744 5.57476 75.0069C5.23801 74.7394 4.96728 74.3989 4.78331 74.0113C4.60229 73.6318 4.51572 73.2145 4.531 72.7947C4.54628 72.375 4.66293 71.965 4.87106 71.5994C4.97122 71.4233 5.03038 71.2272 5.04419 71.0253C5.058 70.8235 5.02609 70.6211 4.95083 70.4332C4.87378 70.2415 4.7568 70.0681 4.6076 69.9246C4.4584 69.781 4.28038 69.6704 4.08516 69.6001C3.68007 69.4578 3.31344 69.2245 3.01384 68.9183C2.71423 68.6122 2.48969 68.2414 2.35772 67.8348C2.22935 67.4351 2.19859 67.0107 2.26796 66.5968C2.33734 66.1829 2.50485 65.7914 2.75666 65.4547C2.88012 65.2928 2.96509 65.1052 3.00517 64.9059C3.04524 64.7067 3.03942 64.501 2.98807 64.3043C2.93755 64.1056 2.84482 63.92 2.71614 63.7599C2.58746 63.5998 2.42577 63.4689 2.24201 63.376C1.85941 63.1869 1.52646 62.9116 1.26954 62.5722C1.01262 62.2327 0.838815 61.8383 0.761952 61.4204C0.687302 61.0059 0.712757 60.5797 0.836218 60.1769C0.959679 59.7742 1.17762 59.4063 1.47208 59.1037C1.61483 58.9571 1.72319 58.7809 1.78945 58.5877C1.85571 58.3946 1.87821 58.1893 1.85534 57.9865C1.83247 57.7837 1.76478 57.5884 1.65713 57.4146C1.54949 57.2409 1.40459 57.0929 1.23272 56.9814C0.880725 56.7458 0.589108 56.4314 0.381274 56.0636C0.173439 55.6957 0.0551674 55.2846 0.0359013 54.8631C0.0170919 54.4413 0.0991099 54.0212 0.275256 53.6371C0.451402 53.253 0.716622 52.9159 1.04918 52.6535C1.20915 52.5257 1.33895 52.3646 1.42937 52.1815C1.51979 51.9983 1.56864 51.7977 1.57245 51.5937C1.57625 51.3897 1.5349 51.1874 1.45138 51.0011C1.36786 50.8147 1.24421 50.6489 1.08911 50.5154C0.767652 50.2404 0.516461 49.8935 0.356242 49.5031C0.196023 49.1128 0.131336 48.6902 0.167534 48.2701C0.204435 47.8483 0.340657 47.441 0.565209 47.0813C0.789761 46.7215 1.09633 46.4194 1.4601 46.1994C1.62968 46.0826 1.77173 45.9306 1.87643 45.7539C1.98112 45.5772 2.04598 45.38 2.0665 45.1759C2.09889 44.9748 2.08523 44.7691 2.02652 44.574C1.9678 44.379 1.86556 44.1996 1.72741 44.0493C1.44485 43.736 1.2414 43.3603 1.13387 42.9533C1.02634 42.5463 1.0178 42.1197 1.10903 41.7088C1.20236 41.2938 1.39153 40.906 1.66157 40.5763C1.9316 40.2465 2.27511 39.9837 2.66491 39.8087C2.85592 39.7245 3.02624 39.6 3.16402 39.4438C3.3018 39.2876 3.40374 39.1035 3.46279 38.9042C3.52095 38.7102 3.53431 38.5056 3.50185 38.3057C3.46938 38.1058 3.39193 37.9158 3.2753 37.7499C3.03909 37.4053 2.88811 37.01 2.83472 36.5964C2.78134 36.1828 2.82706 35.7624 2.96811 35.3697C3.11488 34.9681 3.35289 34.6057 3.66358 34.3105C3.97426 34.0153 4.34923 33.7954 4.75935 33.6679C4.95699 33.6065 5.13921 33.504 5.29396 33.3672C5.44872 33.2304 5.57247 33.0625 5.65697 32.8745C5.74151 32.6863 5.7822 32.4815 5.77599 32.2754C5.76977 32.0693 5.71682 31.8673 5.62107 31.6844C5.42728 31.3117 5.32611 30.8982 5.32611 30.4785C5.32611 30.0589 5.42728 29.6453 5.62107 29.2726C5.8195 28.8929 6.1022 28.5631 6.44779 28.3081C6.79338 28.0531 7.1928 27.8796 7.61578 27.8009C7.82134 27.763 8.01648 27.6823 8.18838 27.564C8.36029 27.4457 8.50506 27.2925 8.61313 27.1146C8.71924 26.9413 8.78503 26.7467 8.80574 26.5449C8.82644 26.3431 8.80152 26.1393 8.73279 25.9483C8.59297 25.5543 8.54971 25.1328 8.60661 24.7189C8.6635 24.3049 8.81894 23.9104 9.05994 23.5682C9.30669 23.2139 9.63073 22.9196 10.0079 22.7073C10.3851 22.4951 10.8057 22.3703 11.2381 22.3424C11.4468 22.3281 11.6502 22.271 11.8355 22.1747C12.0209 22.0785 12.1842 21.9451 12.3153 21.7831C12.4429 21.6246 12.5335 21.4398 12.5804 21.2422C12.6273 21.0446 12.6294 20.8391 12.5866 20.6406C12.4993 20.2287 12.5116 19.8021 12.6226 19.3959C12.7336 18.9896 12.94 18.6155 13.2249 18.3041C13.5168 17.9843 13.8765 17.733 14.2781 17.5684C14.6796 17.4037 15.113 17.3298 15.5467 17.352C15.757 17.3634 15.9674 17.3311 16.1645 17.2574C16.3616 17.1836 16.5411 17.07 16.6917 16.9236C16.8357 16.7803 16.9461 16.6072 17.015 16.4165C17.084 16.2259 17.1098 16.0225 17.0906 15.8208C17.0578 15.4003 17.126 14.9782 17.2898 14.5891C17.4535 14.2001 17.7079 13.8554 18.0321 13.5835C18.3613 13.299 18.7504 13.0915 19.1708 12.9762C19.5913 12.8609 20.0323 12.8407 20.4617 12.917C20.6704 12.9542 20.8847 12.9477 21.0908 12.8978C21.2969 12.848 21.4902 12.7559 21.6585 12.6274C21.8224 12.5042 21.9576 12.3471 22.0546 12.167C22.1517 11.9869 22.2085 11.7881 22.221 11.5841C22.244 11.1614 22.3669 10.75 22.5797 10.3834C22.7925 10.0167 23.0892 9.70507 23.4457 9.47375C23.8087 9.23246 24.2209 9.07422 24.6528 9.01043C25.0846 8.94664 25.5253 8.97888 25.9431 9.10483C26.1458 9.16506 26.3589 9.18311 26.5689 9.15786C26.7789 9.1326 26.9815 9.0646 27.1639 8.95806C27.3433 8.85744 27.4984 8.719 27.6183 8.55248C27.7382 8.38596 27.82 8.19539 27.858 7.9941C27.9376 7.57655 28.1139 7.18314 28.3728 6.84507C28.6318 6.507 28.9664 6.23354 29.3501 6.04634C29.7404 5.85011 30.1695 5.74196 30.6067 5.72962C31.0439 5.71728 31.4784 5.80105 31.8793 5.97494C32.0733 6.05834 32.2824 6.10137 32.4937 6.10137C32.7051 6.10137 32.9142 6.05834 33.1081 5.97494C33.2957 5.89286 33.4637 5.77234 33.6011 5.62127C33.7386 5.4702 33.8425 5.29197 33.906 5.09824C34.0408 4.69264 34.2678 4.32344 34.5695 4.01933C34.8712 3.71522 35.2394 3.48442 35.6454 3.34488C36.0564 3.19719 36.4952 3.14159 36.9303 3.18205C37.3655 3.22251 37.7863 3.35804 38.1627 3.57894C38.3448 3.68428 38.5465 3.75194 38.7556 3.77784C38.9647 3.80374 39.1769 3.78736 39.3795 3.72968C39.5816 3.67058 39.7688 3.56923 39.9284 3.43241C40.088 3.29558 40.2164 3.12644 40.305 2.9363C40.4917 2.55039 40.7644 2.21189 41.1025 1.94656C41.4405 1.68122 41.835 1.49602 42.2558 1.40506C42.6856 1.30267 43.133 1.29729 43.5651 1.38927C43.9973 1.48125 44.4032 1.66828 44.7532 1.93663C44.921 2.06597 45.1142 2.15892 45.3203 2.20948C45.5265 2.26004 45.741 2.26708 45.95 2.23018C46.1564 2.19862 46.3537 2.12399 46.5291 2.01118C46.7044 1.89837 46.8538 1.74995 46.9673 1.57565C47.2034 1.21512 47.5183 0.912243 47.8886 0.689687C48.2588 0.467131 48.6749 0.330624 49.1056 0.290358C49.541 0.239531 49.9823 0.286974 50.3967 0.429141C50.8112 0.571308 51.188 0.804542 51.4993 1.11151C51.6489 1.25862 51.8275 1.37335 52.0238 1.44844C52.2202 1.52354 52.4301 1.5574 52.6403 1.54788C52.8505 1.54117 53.0569 1.49035 53.246 1.39874C53.435 1.30713 53.6025 1.17679 53.7373 1.01631C54.0205 0.689306 54.3726 0.428403 54.7687 0.252151C55.1648 0.0758991 55.5951 -0.0113617 56.029 -0.00340742C56.4628 0.00454688 56.8896 0.107503 57.2789 0.298154C57.6682 0.488804 58.0105 0.762464 58.2813 1.09962C58.4121 1.26258 58.5752 1.3971 58.7605 1.49484C58.9457 1.59257 59.1492 1.65142 59.3583 1.66778C59.5673 1.68414 59.7775 1.65765 59.9759 1.58994C60.1742 1.52223 60.3565 1.41477 60.5113 1.27417C60.831 0.983424 61.2113 0.766517 61.6251 0.638963C62.0389 0.511409 62.476 0.476343 62.905 0.536304C63.3335 0.590072 63.7442 0.740202 64.1057 0.975268C64.4672 1.21034 64.7701 1.52418 64.9914 1.893C65.0983 2.07198 65.2421 2.22639 65.4133 2.34606C65.5845 2.46572 65.7793 2.54791 65.9848 2.58721C66.1912 2.628 66.4037 2.62653 66.6095 2.58288C66.8153 2.53923 67.01 2.4543 67.1816 2.33332C67.5374 2.08185 67.9447 1.91162 68.3744 1.83482C68.804 1.75802 69.2454 1.77654 69.667 1.88903C70.0824 1.99402 70.4685 2.19139 70.796 2.46625C71.1236 2.7411 71.3841 3.08628 71.558 3.47579C71.6423 3.66321 71.7655 3.83078 71.9195 3.96752C72.0735 4.10425 72.2549 4.20706 72.4517 4.26917C72.6521 4.33664 72.8645 4.36194 73.0754 4.34351C73.2862 4.32507 73.4908 4.26328 73.6764 4.16206C74.0603 3.95563 74.4853 3.83581 74.921 3.81113C75.3568 3.78645 75.7927 3.85751 76.1977 4.01926C76.5969 4.17399 76.9549 4.41796 77.2441 4.73233C77.5332 5.04669 77.7458 5.42301 77.8653 5.83214C77.9236 6.03177 78.0253 6.21624 78.1631 6.37252C78.301 6.52881 78.4717 6.65308 78.6632 6.73658C78.8538 6.82784 79.0614 6.87884 79.2729 6.88635C79.4844 6.89386 79.6952 6.85774 79.8919 6.78023C80.2978 6.6198 80.7345 6.55082 81.1705 6.57825C81.6064 6.60569 82.0309 6.72885 82.4132 6.93889C82.7878 7.1376 83.1108 7.42028 83.3566 7.76452C83.6024 8.10877 83.7643 8.50515 83.8294 8.92235C83.8604 9.12466 83.9353 9.31784 84.049 9.48842C84.1627 9.65901 84.3124 9.8029 84.4877 9.9101C84.6635 10.0216 84.8604 10.096 85.0662 10.1287C85.2721 10.1615 85.4825 10.1519 85.6845 10.1005C86.1065 9.98893 86.5483 9.97233 86.9775 10.0519C87.4068 10.1315 87.8127 10.3053 88.1659 10.5607C88.513 10.8044 88.7972 11.1261 88.9955 11.4998C89.1938 11.8734 89.3005 12.2883 89.3069 12.7107C89.301 12.9262 89.3455 13.1402 89.4369 13.3357C89.5282 13.5312 89.664 13.7029 89.8335 13.8373C89.9986 13.9727 90.1905 14.072 90.3967 14.1287C90.6029 14.1854 90.8188 14.1983 91.0303 14.1666C91.4606 14.1079 91.8985 14.1451 92.3125 14.2754C92.7265 14.4058 93.1062 14.626 93.424 14.9203C93.7369 15.2042 93.9775 15.558 94.126 15.9525C94.2744 16.347 94.3264 16.771 94.2777 17.1894C94.2524 17.3919 94.2729 17.5974 94.3378 17.7909C94.4027 17.9845 94.5103 18.1612 94.6527 18.3081C94.7971 18.4597 94.9718 18.5796 95.1655 18.6602C95.3592 18.7408 95.5678 18.7803 95.7777 18.7761H95.8136C96.2424 18.7724 96.6666 18.8633 97.0557 19.0423C97.4448 19.2214 97.7891 19.4841 98.0637 19.8115C98.3371 20.1317 98.5293 20.5124 98.6244 20.9217C98.7195 21.3309 98.7146 21.7569 98.6102 22.1639C98.5592 22.3603 98.5531 22.5657 98.5925 22.7648C98.6318 22.9639 98.7156 23.1516 98.8376 23.3143C98.9613 23.4821 99.1189 23.6224 99.3002 23.7263C99.4816 23.8301 99.6827 23.8951 99.8908 23.9172C100.321 23.9594 100.737 24.0981 101.106 24.3227C101.475 24.5474 101.788 24.8523 102.021 25.2144C102.25 25.5675 102.391 25.9701 102.431 26.3884C102.471 26.8067 102.41 27.2285 102.253 27.6184C102.177 27.8068 102.144 28.0096 102.158 28.212C102.171 28.4144 102.229 28.6114 102.328 28.7886C102.429 28.97 102.568 29.1279 102.735 29.2517C102.902 29.3756 103.094 29.4625 103.298 29.5066C103.719 29.6006 104.112 29.7888 104.449 30.0569C104.786 30.325 105.056 30.6659 105.241 31.0537C105.421 31.4328 105.507 31.8493 105.491 32.2683C105.476 32.6873 105.36 33.0965 105.153 33.4616C105.05 33.6409 104.989 33.8413 104.975 34.0475C104.961 34.2537 104.995 34.4603 105.073 34.6517C105.149 34.8442 105.265 35.0182 105.415 35.162C105.564 35.3057 105.743 35.4158 105.939 35.4847C106.343 35.6266 106.71 35.8593 107.009 36.1648C107.309 36.4702 107.534 36.8402 107.666 37.2461C107.794 37.6459 107.824 38.0701 107.755 38.4839C107.686 38.8977 107.518 39.2892 107.267 39.6262C107.144 39.7881 107.059 39.9757 107.019 40.175C106.979 40.3742 106.985 40.5799 107.036 40.7766C107.086 40.9753 107.179 41.1609 107.308 41.321C107.436 41.4812 107.598 41.612 107.782 41.7049C108.164 41.894 108.497 42.1693 108.754 42.5087C109.011 42.8482 109.185 43.2426 109.262 43.6605C109.337 44.0744 109.311 44.5 109.188 44.9021C109.064 45.3043 108.846 45.6714 108.552 45.9732C108.405 46.1172 108.293 46.2922 108.224 46.4852C108.155 46.6782 108.131 46.8843 108.153 47.0879C108.178 47.291 108.246 47.4865 108.353 47.661C108.461 47.8355 108.605 47.9851 108.775 48.0995C109.13 48.332 109.425 48.6446 109.635 49.012C109.845 49.3793 109.964 49.7908 109.984 50.2129C110.003 50.635 109.922 51.0557 109.747 51.4406C109.571 51.8255 109.307 52.1636 108.975 52.4274C108.815 52.5548 108.685 52.7157 108.594 52.8988C108.504 53.0819 108.455 53.2826 108.452 53.4866C108.447 53.6902 108.487 53.8925 108.571 54.0785C108.654 54.2645 108.779 54.4296 108.935 54.5616C109.256 54.8386 109.507 55.1872 109.667 55.5788C109.826 55.9705 109.891 56.3942 109.855 56.8154C109.819 57.2366 109.683 57.6433 109.458 58.0024C109.234 58.3615 108.927 58.6627 108.564 58.8815C108.388 58.9881 108.238 59.1319 108.124 59.3026C108.01 59.4733 107.936 59.6667 107.906 59.8693C107.875 60.07 107.889 60.2751 107.947 60.4698C108.004 60.6646 108.105 60.8442 108.241 60.9959C108.524 61.3082 108.728 61.6831 108.836 62.0894C108.944 62.4957 108.953 62.9218 108.863 63.3324C108.77 63.7482 108.581 64.1367 108.311 64.4672C108.041 64.7977 107.697 65.0611 107.307 65.2365C107.117 65.3205 106.947 65.4445 106.809 65.5999C106.671 65.7553 106.569 65.9386 106.509 66.137C106.451 66.3317 106.438 66.5369 106.47 66.7374C106.503 66.938 106.58 67.1287 106.697 67.2954C106.933 67.6398 107.084 68.0351 107.138 68.4487C107.191 68.8624 107.145 69.2828 107.004 69.6755C106.857 70.0771 106.619 70.4396 106.308 70.7347C105.998 71.0299 105.623 71.2498 105.213 71.3773C105.015 71.4387 104.833 71.5412 104.678 71.678C104.523 71.8148 104.4 71.9827 104.315 72.1707C104.229 72.3585 104.188 72.5632 104.193 72.7694C104.199 72.9755 104.251 73.1777 104.347 73.3607C104.541 73.734 104.643 74.1483 104.643 74.5687C104.643 74.9891 104.541 75.4033 104.347 75.7766C104.148 76.1559 103.865 76.4855 103.52 76.7404C103.174 76.9953 102.775 77.169 102.352 77.2483C102.147 77.2867 101.953 77.3677 101.782 77.4859C101.611 77.6042 101.467 77.7571 101.359 77.9346C101.253 78.1078 101.187 78.3025 101.166 78.5043C101.146 78.706 101.17 78.9099 101.239 79.1009C101.379 79.4949 101.422 79.9163 101.365 80.3303C101.309 80.7443 101.153 81.1388 100.912 81.481C100.666 81.8354 100.342 82.1295 99.9644 82.3412C99.5871 82.5528 99.1663 82.6765 98.7339 82.7028C98.5246 82.7159 98.3204 82.7729 98.1348 82.87C97.9491 82.967 97.7862 83.102 97.6567 83.2661C97.5291 83.4246 97.4386 83.6093 97.3917 83.8069C97.3447 84.0045 97.3426 84.2101 97.3855 84.4086C97.4724 84.8205 97.4599 85.247 97.349 85.6532C97.238 86.0593 97.0317 86.4335 96.7471 86.7451C96.4561 87.066 96.0965 87.318 95.6948 87.4828C95.293 87.6475 94.8593 87.7208 94.4253 87.6971C94.215 87.6858 94.0047 87.718 93.8076 87.7918C93.6105 87.8655 93.431 87.9792 93.2804 88.1256C93.1331 88.2665 93.0191 88.4381 92.9467 88.6281C92.8742 88.8182 92.8451 89.0218 92.8615 89.2244C92.8936 89.6454 92.8251 90.0679 92.6615 90.4575C92.4978 90.8471 92.2437 91.1926 91.92 91.4657C91.5901 91.7492 91.201 91.956 90.7808 92.0713C90.3605 92.1866 89.9198 92.2074 89.4904 92.1321C89.2816 92.0969 89.0678 92.1044 88.862 92.1541C88.6562 92.2039 88.4628 92.295 88.2936 92.4217C88.1297 92.545 87.9945 92.702 87.8974 92.8821C87.8003 93.0622 87.7436 93.2611 87.7311 93.465C87.7072 93.8875 87.5839 94.2986 87.3712 94.6651C87.1584 95.0316 86.8623 95.3434 86.5064 95.5754C86.1427 95.8168 85.7298 95.975 85.2973 96.0388C84.8648 96.1026 84.4234 96.0703 84.005 95.9443C83.8058 95.8879 83.5972 95.8719 83.3916 95.8971C83.1861 95.9223 82.9876 95.9883 82.8082 96.0911C82.6293 96.1924 82.4746 96.331 82.3547 96.4974C82.2349 96.6638 82.1528 96.8541 82.114 97.0551C82.0344 97.4726 81.8582 97.866 81.5992 98.2041C81.3402 98.5422 81.0057 98.8156 80.622 99.0028C80.2314 99.1982 79.8024 99.3059 79.3653 99.3183C78.9282 99.3306 78.4938 99.2473 78.0927 99.0742C77.8987 98.9908 77.6896 98.9478 77.4783 98.9478C77.267 98.9478 77.0579 98.9908 76.8639 99.0742C76.6764 99.1563 76.5084 99.2768 76.3709 99.4279C76.2334 99.579 76.1295 99.7572 76.0661 99.9509C75.9313 100.357 75.7042 100.726 75.4025 101.03C75.1009 101.334 74.7327 101.565 74.3267 101.704C73.9156 101.852 73.4769 101.908 73.0417 101.867C72.6066 101.827 72.1857 101.691 71.8093 101.47C71.6302 101.367 71.432 101.3 71.2264 101.274C71.0207 101.248 70.812 101.263 70.6125 101.32C70.4122 101.376 70.2262 101.475 70.0667 101.608C69.9072 101.741 69.7778 101.907 69.687 102.093C69.5001 102.48 69.2269 102.819 68.888 103.084C68.5492 103.349 68.1538 103.534 67.7322 103.624C67.3073 103.723 66.8657 103.727 66.4392 103.635C66.0128 103.543 65.6123 103.358 65.2667 103.093C65.0993 102.963 64.9061 102.869 64.6998 102.819C64.4936 102.768 64.279 102.761 64.0699 102.799C63.8635 102.831 63.6661 102.905 63.4908 103.018C63.3155 103.131 63.1661 103.279 63.0526 103.454C62.8165 103.814 62.5016 104.117 62.1314 104.34C61.7611 104.562 61.345 104.699 60.9143 104.739C60.4789 104.79 60.0376 104.742 59.6233 104.6C59.2089 104.458 58.8321 104.225 58.5206 103.918C58.3706 103.771 58.1919 103.657 57.9957 103.582C57.7994 103.507 57.5898 103.473 57.3797 103.481C57.1699 103.488 56.9639 103.539 56.775 103.63C56.586 103.721 56.4183 103.85 56.2826 104.009C56.0032 104.329 55.6565 104.584 55.267 104.756C54.8775 104.928 54.4547 105.013 54.0286 105.005ZM50.5258 102.014C50.6043 102.01 50.6828 102.01 50.7613 102.014C51.1636 102.043 51.5554 102.155 51.9119 102.343C52.2683 102.53 52.5816 102.79 52.8317 103.105C52.9713 103.281 53.1487 103.423 53.351 103.522C53.5532 103.621 53.7753 103.674 54.0007 103.676C54.2269 103.681 54.4514 103.636 54.6582 103.545C54.8651 103.454 55.0492 103.318 55.1975 103.148C55.4592 102.842 55.7819 102.594 56.1452 102.418C56.5084 102.243 56.9043 102.144 57.3078 102.129C57.7124 102.111 58.1163 102.176 58.4944 102.32C58.8726 102.464 59.2169 102.684 59.506 102.966C59.6675 103.123 59.8623 103.243 60.0762 103.317C60.2901 103.39 60.5178 103.415 60.7427 103.39C60.9661 103.369 61.1818 103.298 61.3738 103.183C61.5658 103.068 61.7292 102.911 61.8518 102.724C62.072 102.389 62.3604 102.103 62.6985 101.886C63.0366 101.669 63.4169 101.524 63.8146 101.462C64.2144 101.397 64.6234 101.413 65.0166 101.511C65.4097 101.608 65.7786 101.785 66.1005 102.03C66.281 102.167 66.4897 102.263 66.7119 102.31C66.934 102.357 67.1639 102.355 67.3851 102.303C67.6039 102.257 67.8092 102.162 67.9849 102.024C68.1607 101.887 68.3021 101.711 68.3984 101.51C68.5733 101.152 68.8222 100.834 69.1288 100.578C69.4353 100.321 69.7927 100.132 70.1777 100.022C70.5678 99.9087 70.9773 99.8758 71.3807 99.9256C71.7842 99.9754 72.1731 100.107 72.5235 100.312C72.7191 100.427 72.938 100.497 73.1643 100.518C73.3906 100.538 73.6186 100.509 73.832 100.431C74.0421 100.358 74.2326 100.238 74.3889 100.081C74.5452 99.9233 74.6631 99.7323 74.7336 99.5225C74.8589 99.1465 75.0636 98.8016 75.3341 98.5108C75.6045 98.22 75.9343 97.9901 76.3014 97.8365C76.675 97.6767 77.0776 97.5942 77.4843 97.5942C77.8911 97.5942 78.2935 97.6767 78.6672 97.8365C78.8751 97.9269 79.1006 97.9705 79.3274 97.9643C79.5543 97.9582 79.777 97.9023 79.9797 97.8008C80.1828 97.7057 80.3606 97.5647 80.4992 97.3891C80.6377 97.2135 80.7331 97.0081 80.7776 96.7893C80.8523 96.4017 81.0104 96.0348 81.2411 95.7137C81.4718 95.3925 81.7695 95.1248 82.114 94.9288C82.4649 94.7249 82.8542 94.595 83.2578 94.5472C83.6614 94.4994 84.0706 94.5348 84.4598 94.6511C84.6769 94.7159 84.9058 94.732 85.13 94.6984C85.3541 94.6648 85.5681 94.5823 85.7563 94.4567C85.9417 94.3369 86.0961 94.1753 86.207 93.9851C86.3178 93.7949 86.3822 93.5814 86.3946 93.3619C86.4168 92.9691 86.525 92.586 86.7118 92.2393C86.8985 91.8925 87.1593 91.5906 87.4758 91.3546C87.7984 91.1102 88.1684 90.9347 88.5624 90.8391C88.9565 90.7436 89.3661 90.73 89.7657 90.7993C89.9893 90.8376 90.2187 90.8262 90.4374 90.7658C90.656 90.7054 90.8586 90.5976 91.0303 90.4502C91.1981 90.3085 91.3296 90.1293 91.4142 89.9272C91.4988 89.7252 91.5341 89.5061 91.517 89.2879C91.4873 88.8984 91.5434 88.5071 91.6811 88.1412C91.8189 87.7754 92.0352 87.4438 92.3149 87.1695C92.6047 86.8893 92.9495 86.6714 93.3277 86.5295C93.7058 86.3875 94.1093 86.3246 94.5131 86.3444C94.7369 86.3538 94.9601 86.3143 95.1669 86.2286C95.3736 86.1429 95.559 86.0132 95.7099 85.8486C95.8581 85.687 95.9655 85.4925 96.023 85.2814C96.0806 85.0703 96.0868 84.8486 96.0411 84.6347C95.9608 84.2527 95.966 83.8578 96.0564 83.478C96.1467 83.0982 96.3198 82.7428 96.5636 82.437C96.8147 82.123 97.1288 81.8644 97.486 81.678C97.8432 81.4915 98.2356 81.3812 98.6381 81.3541C98.8628 81.3396 99.0813 81.275 99.2774 81.1651C99.4735 81.0553 99.6423 80.9029 99.7711 80.7193C99.8968 80.5408 99.9779 80.3351 100.008 80.1192C100.038 79.9032 100.015 79.6833 99.9427 79.4777C99.8117 79.1093 99.7642 78.7166 99.8035 78.3278C99.8428 77.939 99.968 77.5636 100.17 77.2285C100.38 76.8877 100.659 76.5942 100.989 76.3667C101.32 76.1392 101.694 75.9828 102.089 75.9075C102.31 75.8672 102.518 75.7774 102.699 75.6447C102.879 75.512 103.027 75.34 103.13 75.1419C103.23 74.9485 103.282 74.7343 103.282 74.5171C103.282 74.2999 103.23 74.0857 103.13 73.8923C102.951 73.5446 102.852 73.1617 102.841 72.7713C102.829 72.3809 102.905 71.9929 103.062 71.6351C103.225 71.2719 103.463 70.947 103.76 70.6817C104.058 70.4164 104.409 70.2168 104.79 70.096C105.003 70.03 105.198 69.9158 105.359 69.7623C105.52 69.6088 105.644 69.4202 105.719 69.2114C105.796 69.0071 105.821 68.7873 105.794 68.571C105.766 68.3547 105.686 68.1483 105.56 67.9697C105.339 67.6474 105.192 67.2803 105.13 66.895C105.067 66.5096 105.092 66.1153 105.201 65.7403C105.313 65.3602 105.507 65.0085 105.767 64.7088C106.028 64.4091 106.351 64.1684 106.713 64.0028C106.913 63.9098 107.089 63.7724 107.227 63.6012C107.365 63.4299 107.462 63.2294 107.511 63.015C107.557 62.8017 107.553 62.5804 107.496 62.3694C107.44 62.1583 107.334 61.9635 107.187 61.8012C106.926 61.5088 106.732 61.163 106.62 60.7881C106.508 60.4131 106.479 60.0183 106.537 59.6313C106.598 59.2418 106.744 58.8702 106.963 58.5421C107.183 58.214 107.472 57.9373 107.81 57.7312C107.998 57.6159 108.156 57.4587 108.272 57.2722C108.389 57.0856 108.46 56.8747 108.48 56.6561C108.498 56.438 108.464 56.2188 108.38 56.0162C108.297 55.8137 108.167 55.6334 108.001 55.4898C107.702 55.2336 107.463 54.9146 107.301 54.5559C107.14 54.1971 107.06 53.8073 107.068 53.4143C107.075 53.0214 107.17 52.6349 107.345 52.2826C107.52 51.9303 107.772 51.6208 108.081 51.3762C108.253 51.239 108.391 51.0632 108.482 50.8632C108.573 50.6632 108.615 50.4446 108.605 50.2253C108.595 50.006 108.533 49.7922 108.424 49.6013C108.315 49.4104 108.162 49.2479 107.977 49.1269C107.649 48.9067 107.372 48.6187 107.166 48.2826C106.959 47.9465 106.828 47.5702 106.781 47.1792C106.739 46.7902 106.783 46.3968 106.911 46.0267C107.038 45.6566 107.246 45.3188 107.519 45.0371C107.67 44.8815 107.782 44.6927 107.847 44.486C107.911 44.2793 107.926 44.0604 107.89 43.847C107.849 43.63 107.759 43.4252 107.625 43.249C107.491 43.0728 107.318 42.9298 107.12 42.8315C106.765 42.6528 106.452 42.4007 106.203 42.0921C105.954 41.7836 105.774 41.4257 105.675 41.0424C105.583 40.6631 105.576 40.2683 105.653 39.8858C105.731 39.5033 105.893 39.1425 106.126 38.8288C106.258 38.6539 106.345 38.4504 106.381 38.235C106.417 38.0197 106.401 37.799 106.334 37.5912C106.265 37.3807 106.149 37.1886 105.994 37.0298C105.839 36.8709 105.65 36.7495 105.44 36.6748C105.065 36.5427 104.723 36.3329 104.435 36.0594C104.148 35.7858 103.922 35.4548 103.772 35.0881C103.629 34.7247 103.568 34.3342 103.594 33.9445C103.62 33.5549 103.733 33.176 103.924 32.8349C104.032 32.6447 104.092 32.4316 104.1 32.2134C104.108 31.9952 104.062 31.7784 103.968 31.5813C103.871 31.3823 103.731 31.2077 103.557 31.0703C103.383 30.9329 103.18 30.8364 102.963 30.7879C102.571 30.7001 102.202 30.531 101.88 30.2917C101.558 30.0525 101.291 29.7485 101.096 29.3995C100.907 29.0582 100.796 28.6797 100.771 28.2909C100.746 27.902 100.808 27.5126 100.952 27.1503C101.035 26.9478 101.067 26.7285 101.046 26.5109C101.025 26.2933 100.952 26.084 100.832 25.9007C100.711 25.7129 100.549 25.5547 100.357 25.4379C100.166 25.3212 99.9506 25.2488 99.7273 25.2263C99.3267 25.1849 98.9392 25.0608 98.5895 24.862C98.2399 24.6633 97.9358 24.3942 97.6966 24.072C97.4631 23.7576 97.3026 23.3957 97.2267 23.0122C97.1508 22.6288 97.1614 22.2334 97.2578 21.8545C97.3112 21.6431 97.3135 21.422 97.2642 21.2096C97.215 20.9972 97.1157 20.7995 96.9746 20.6327C96.8303 20.4572 96.6473 20.3172 96.4397 20.2236C96.2321 20.13 96.0055 20.0854 95.7777 20.0932C95.3731 20.1045 94.9706 20.0301 94.5971 19.8748C94.2236 19.7196 93.8876 19.487 93.6115 19.1927C93.3403 18.9085 93.1348 18.5688 93.0094 18.1975C92.8839 17.8261 92.8417 17.4319 92.8854 17.0426C92.9132 16.8238 92.8878 16.6016 92.8115 16.3945C92.7351 16.1875 92.61 16.0016 92.4466 15.8525C92.2813 15.6982 92.0833 15.5825 91.8673 15.5139C91.6513 15.4452 91.4226 15.4254 91.1979 15.4559C90.796 15.5099 90.3872 15.4814 89.9968 15.3722C89.6064 15.2631 89.2426 15.0755 88.9279 14.8211C88.6216 14.5736 88.3732 14.2625 88.2003 13.9096C88.0274 13.5568 87.9339 13.1707 87.9266 12.7782C87.9227 12.5584 87.8669 12.3426 87.7637 12.1483C87.6604 11.9539 87.5126 11.7865 87.3321 11.6595C87.1486 11.5273 86.9377 11.4373 86.7148 11.3961C86.492 11.355 86.2627 11.3636 86.0436 11.4215C85.6503 11.5219 85.2406 11.5417 84.8393 11.4797C84.4381 11.4176 84.0538 11.275 83.7098 11.0605C83.3735 10.8515 83.0865 10.5728 82.8683 10.2435C82.65 9.91429 82.5057 9.54214 82.4451 9.15243C82.4126 8.93433 82.3293 8.72679 82.2018 8.54636C82.0744 8.36592 81.9064 8.21757 81.7111 8.11311C81.512 8.00398 81.2911 7.93994 81.0642 7.92553C80.8373 7.91113 80.61 7.94673 80.3985 8.02979C80.0205 8.17831 79.6157 8.24791 79.2094 8.23426C78.8031 8.22061 78.404 8.12401 78.0368 7.95045C77.6749 7.78487 77.3532 7.54357 77.0936 7.24302C76.834 6.94247 76.6428 6.58978 76.5328 6.209C76.4702 5.997 76.3597 5.80205 76.2096 5.63909C76.0596 5.47613 75.874 5.34948 75.6671 5.26884C75.4562 5.18458 75.2293 5.14763 75.0024 5.16066C74.7755 5.17369 74.5543 5.23637 74.3546 5.34421C73.9967 5.53525 73.6034 5.65172 73.1987 5.6865C72.794 5.72129 72.3864 5.67364 72.0009 5.54651C71.6195 5.42615 71.2687 5.22575 70.972 4.95883C70.6754 4.69191 70.4398 4.36472 70.2814 3.99943C70.1915 3.79571 70.0561 3.6151 69.8853 3.47141C69.7145 3.32772 69.513 3.22474 69.296 3.17033C69.0776 3.11107 68.8485 3.10097 68.6256 3.14077C68.4027 3.18057 68.1916 3.26928 68.0075 3.40042C67.6753 3.63359 67.2987 3.79679 66.9008 3.88001C66.5029 3.96324 66.0921 3.96471 65.6936 3.88437C65.3001 3.80729 64.9272 3.64925 64.5988 3.4204C64.2704 3.19154 63.9938 2.89692 63.7866 2.55547C63.6709 2.36417 63.5131 2.20131 63.3253 2.07905C63.1374 1.95679 62.9242 1.87829 62.7015 1.84937C62.4762 1.81833 62.2467 1.83785 62.03 1.90649C61.8132 1.97513 61.6146 2.09116 61.4489 2.24606C61.1504 2.51649 60.7993 2.72322 60.4174 2.85354C60.0354 2.98386 59.6307 3.035 59.2281 3.00378C58.8255 2.97256 58.4336 2.85963 58.0766 2.672C57.7195 2.48437 57.405 2.22601 57.1522 1.91283C57.0129 1.73659 56.8355 1.59376 56.6332 1.49488C56.4309 1.39601 56.2088 1.34361 55.9834 1.3416C55.757 1.33531 55.532 1.37941 55.3249 1.4707C55.1179 1.56198 54.9339 1.69814 54.7866 1.8692C54.5229 2.17377 54.1992 2.42133 53.8355 2.59661C53.4718 2.77188 53.0758 2.87114 52.672 2.88824C52.2682 2.90534 51.8652 2.83991 51.4878 2.69602C51.1104 2.55213 50.7667 2.33283 50.478 2.05166C50.3168 1.89334 50.1222 1.77274 49.9082 1.69863C49.6943 1.62452 49.4665 1.59877 49.2413 1.62326C49.0175 1.64445 48.8014 1.71578 48.6094 1.83189C48.4173 1.948 48.2541 2.10588 48.1322 2.29366C47.9107 2.62764 47.6219 2.91221 47.2841 3.12937C46.9462 3.34652 46.5666 3.49151 46.1694 3.55514C45.769 3.62154 45.3591 3.60545 44.9652 3.50787C44.5713 3.4103 44.2018 3.23331 43.8795 2.98787C43.7003 2.84977 43.4923 2.75316 43.2707 2.70512C43.0492 2.65708 42.8197 2.65882 42.5989 2.71018C42.3805 2.75728 42.1758 2.85319 42.0002 2.99066C41.8247 3.12812 41.6829 3.30352 41.5856 3.50357C41.4111 3.86168 41.1623 4.17901 40.8556 4.43471C40.549 4.69041 40.1914 4.8787 39.8063 4.98718C39.4164 5.10138 39.0071 5.13495 38.6037 5.08582C38.2002 5.0367 37.8112 4.90592 37.4605 4.70155C37.2651 4.58632 37.0464 4.51556 36.8201 4.4943C36.5939 4.47304 36.3657 4.5018 36.152 4.57858C35.9416 4.65211 35.751 4.77259 35.5947 4.93075C35.4384 5.0889 35.3207 5.28055 35.2504 5.49099C35.1247 5.86731 34.9193 6.21249 34.6482 6.50329C34.3771 6.7941 34.0464 7.0238 33.6786 7.17692C33.3057 7.33694 32.9039 7.41948 32.4977 7.41948C32.0916 7.41948 31.6897 7.33694 31.3168 7.17692C31.1089 7.08659 30.8834 7.04294 30.6566 7.04911C30.4297 7.05528 30.207 7.1111 30.0043 7.21261C29.8044 7.30938 29.63 7.45122 29.495 7.62683C29.3599 7.80245 29.2679 8.00698 29.2264 8.22417C29.1517 8.61175 28.9935 8.97868 28.7629 9.29981C28.5322 9.62094 28.2344 9.88867 27.8899 10.0846C27.5387 10.2877 27.1494 10.4171 26.746 10.4648C26.3425 10.5126 25.9335 10.4777 25.5442 10.3623C25.327 10.2976 25.0981 10.2814 24.874 10.315C24.6498 10.3487 24.4359 10.4312 24.2476 10.5567C24.062 10.6763 23.9075 10.8379 23.7966 11.0281C23.6856 11.2184 23.6215 11.432 23.6093 11.6516C23.5864 12.0441 23.4778 12.427 23.2911 12.7736C23.1044 13.1202 22.8441 13.4223 22.5282 13.6588C22.2044 13.9025 21.8337 14.0775 21.4391 14.1731C21.0446 14.2686 20.6345 14.2826 20.2343 14.2142C20.0116 14.1765 19.7832 14.1879 19.5654 14.2475C19.3476 14.3071 19.1456 14.4136 18.9736 14.5593C18.8056 14.7016 18.6738 14.8815 18.5892 15.0843C18.5046 15.287 18.4696 15.5068 18.4869 15.7256C18.5166 16.1151 18.4606 16.5064 18.3228 16.8722C18.185 17.238 17.9688 17.5696 17.689 17.8439C17.3989 18.1248 17.0535 18.3431 16.6746 18.4851C16.2957 18.6271 15.8913 18.6897 15.4869 18.669C15.2625 18.6548 15.0378 18.6921 14.8303 18.7781C14.6227 18.8641 14.4379 18.9964 14.2901 19.1649C14.1452 19.3238 14.0398 19.5142 13.9823 19.7208C13.9248 19.9275 13.9168 20.1447 13.959 20.355C14.0392 20.7376 14.034 21.1331 13.9437 21.5135C13.8534 21.894 13.6802 22.25 13.4363 22.5566C13.1839 22.87 12.8688 23.1281 12.5111 23.3145C12.1534 23.5009 11.7607 23.6116 11.3578 23.6396C11.1336 23.6535 10.9155 23.7179 10.7199 23.8278C10.5243 23.9377 10.3564 24.0904 10.2288 24.2743C10.1022 24.4524 10.0206 24.6582 9.99073 24.8743C9.96087 25.0904 9.98371 25.3104 10.0573 25.5159C10.1871 25.8839 10.234 26.2757 10.1947 26.6637C10.1554 27.0517 10.0309 27.4263 9.82987 27.7612C9.62023 28.1021 9.34126 28.3958 9.01081 28.6233C8.68036 28.8508 8.30575 29.0071 7.91099 29.0822C7.69074 29.1238 7.48277 29.2142 7.3025 29.3468C7.12224 29.4793 6.97432 29.6506 6.86976 29.8478C6.77059 30.042 6.71889 30.2567 6.71889 30.4745C6.71889 30.6924 6.77059 30.9071 6.86976 31.1013C7.04865 31.449 7.1475 31.8319 7.15923 32.2223C7.17096 32.6127 7.09524 33.0008 6.93755 33.3585C6.77473 33.7215 6.53673 34.0462 6.23906 34.3114C5.9414 34.5766 5.59078 34.7764 5.21015 34.8977C4.99682 34.9642 4.80169 35.0786 4.63984 35.2319C4.47799 35.3853 4.35375 35.5736 4.27665 35.7823C4.20192 35.9871 4.17776 36.2068 4.20623 36.4229C4.23469 36.639 4.31491 36.8451 4.44018 37.0239C4.66145 37.3463 4.80836 37.7133 4.87043 38.0987C4.9325 38.4841 4.9082 38.8783 4.79923 39.2533C4.6865 39.6334 4.49327 39.9852 4.23248 40.2849C3.97168 40.5846 3.6494 40.8253 3.28728 40.9908C3.08647 41.0828 2.90987 41.2199 2.77141 41.3913C2.63296 41.5627 2.53643 41.7637 2.4894 41.9786C2.44192 42.1919 2.44648 42.4133 2.50269 42.6245C2.55891 42.8357 2.66513 43.0304 2.81252 43.1924C3.07387 43.484 3.26758 43.8292 3.37995 44.2035C3.49232 44.5778 3.5206 44.972 3.46279 45.3584C3.40175 45.7484 3.25638 46.1206 3.03668 46.4493C2.81697 46.7781 2.52817 47.0555 2.19019 47.2625C2.00233 47.3778 1.84397 47.5349 1.72765 47.7215C1.61134 47.908 1.54023 48.1189 1.51995 48.3375C1.5013 48.5557 1.53495 48.7752 1.61818 48.9779C1.7014 49.1807 1.83179 49.3609 1.99866 49.5038C2.29832 49.7601 2.53742 50.079 2.6988 50.4378C2.86019 50.7966 2.93989 51.1863 2.93227 51.5793C2.92464 51.9723 2.82986 52.3587 2.65468 52.711C2.47951 53.0633 2.22827 53.3729 1.91889 53.6175C1.74581 53.7539 1.60804 53.9295 1.51713 54.1296C1.42621 54.3297 1.38477 54.5486 1.39626 54.7679C1.4071 54.9869 1.46943 55.2004 1.57819 55.3913C1.68696 55.5821 1.83917 55.7449 2.02262 55.8667C2.35252 56.0827 2.63061 56.3682 2.83716 56.7029C3.04371 57.0377 3.17367 57.4135 3.21784 57.8038C3.262 58.1941 3.21926 58.5893 3.09268 58.9613C2.9661 59.3333 2.75879 59.6731 2.4854 59.9566C2.33407 60.1121 2.22162 60.3009 2.15717 60.5076C2.09273 60.7143 2.07806 60.9333 2.11437 61.1467C2.15479 61.3637 2.24538 61.5684 2.379 61.7446C2.51262 61.9209 2.68564 62.0638 2.88435 62.1622C3.23935 62.3409 3.55184 62.5929 3.80091 62.9015C4.04997 63.21 4.22987 63.568 4.32851 63.9513C4.42089 64.3305 4.42837 64.7254 4.35047 65.1078C4.27258 65.4903 4.11121 65.8511 3.8777 66.1648C3.74637 66.3397 3.659 66.5433 3.62291 66.7586C3.58682 66.9739 3.60306 67.1947 3.67025 67.4025C3.73888 67.613 3.85511 67.805 4.01002 67.9638C4.16493 68.1227 4.3544 68.2441 4.56387 68.3188C4.93889 68.451 5.28141 68.6607 5.56887 68.9343C5.85633 69.2078 6.08214 69.5389 6.23142 69.9056C6.37517 70.269 6.43616 70.6595 6.40995 71.0491C6.38373 71.4387 6.27102 71.8177 6.07987 72.1588C5.97231 72.3482 5.91181 72.5604 5.90348 72.7778C5.89515 72.9952 5.93919 73.2113 6.03195 73.4083C6.12857 73.6081 6.26969 73.7834 6.44457 73.9208C6.61945 74.0583 6.82351 74.1544 7.04128 74.2017C7.43261 74.291 7.80087 74.4606 8.12239 74.6997C8.44392 74.9388 8.71164 75.2421 8.90835 75.5901C9.09757 75.9321 9.2082 76.3116 9.23234 76.7012C9.25648 77.0908 9.19353 77.4808 9.04797 77.8433C8.96712 78.0464 8.93617 78.2657 8.95768 78.483C8.97919 78.7004 9.05256 78.9094 9.17166 79.0929C9.29297 79.2808 9.45533 79.4389 9.64667 79.5557C9.838 79.6725 10.0533 79.7448 10.2767 79.7673C10.6775 79.808 11.0652 79.9318 11.415 80.1306C11.7647 80.3295 12.0687 80.5989 12.3073 80.9217C12.5411 81.2359 12.7018 81.5978 12.7777 81.9813C12.8536 82.3648 12.8428 82.7603 12.7462 83.1392C12.692 83.3505 12.6895 83.5717 12.7388 83.7842C12.7881 83.9968 12.8877 84.1945 13.0294 84.361C13.1724 84.5308 13.3513 84.6671 13.5533 84.7604C13.7554 84.8536 13.9756 84.9015 14.1983 84.9005H14.2502C14.6487 84.8989 15.0435 84.9779 15.4104 85.1327C15.7773 85.2875 16.1087 85.5148 16.3845 85.8009C16.6556 86.0844 16.8611 86.4233 16.9865 86.7941C17.1119 87.1648 17.1543 87.5583 17.1105 87.9471C17.0831 88.1658 17.1086 88.388 17.185 88.595C17.2613 88.802 17.3863 88.9878 17.5494 89.1371C17.7144 89.2919 17.9123 89.408 18.1284 89.4766C18.3445 89.5453 18.5733 89.5648 18.7981 89.5338C19.2002 89.4808 19.6091 89.5101 19.9994 89.6199C20.3898 89.7298 20.7534 89.9178 21.0681 90.1725C21.3744 90.4201 21.6227 90.7311 21.7957 91.084C21.9686 91.4369 22.062 91.823 22.0694 92.2155C22.0732 92.4352 22.129 92.651 22.2323 92.8453C22.3356 93.0397 22.4834 93.2071 22.6638 93.3341C22.8478 93.4656 23.0586 93.5551 23.2814 93.5962C23.5041 93.6374 23.7332 93.6291 23.9524 93.5721C24.3456 93.4707 24.7555 93.4505 25.1569 93.5126C25.5582 93.5746 25.9425 93.7178 26.2862 93.9331C26.623 94.1416 26.9104 94.42 27.1287 94.7494C27.347 95.0788 27.491 95.4512 27.5508 95.8412C27.5834 96.0593 27.6667 96.2668 27.7941 96.4473C27.9216 96.6277 28.0896 96.7761 28.2849 96.8805C28.4843 96.989 28.7054 97.0524 28.9322 97.0661C29.1591 97.0798 29.3863 97.0435 29.5974 96.9599C29.976 96.8134 30.3805 96.7449 30.7864 96.7586C31.1924 96.7722 31.5914 96.8677 31.9592 97.0392C32.3202 97.2061 32.6412 97.4478 32.9006 97.7482C33.16 98.0485 33.3518 98.4006 33.4631 98.7807C33.5244 98.9938 33.6344 99.19 33.7846 99.3538C33.9348 99.5175 34.1211 99.6445 34.3288 99.7248C34.5397 99.8091 34.7667 99.846 34.9936 99.833C35.2205 99.8199 35.4417 99.7573 35.6414 99.6494C35.999 99.4577 36.3922 99.3406 36.7969 99.3051C37.2016 99.2696 37.6093 99.3166 37.9951 99.4431C38.3761 99.5653 38.7265 99.7669 39.023 100.034C39.3195 100.302 39.5553 100.629 39.7146 100.994C39.8047 101.198 39.9403 101.378 40.111 101.522C40.2818 101.666 40.4831 101.769 40.6999 101.823C40.9184 101.883 41.1475 101.893 41.3704 101.853C41.5933 101.813 41.8044 101.724 41.9885 101.593C42.3195 101.359 42.6955 101.196 43.0928 101.112C43.4902 101.029 43.9006 101.028 44.2984 101.109C44.6929 101.185 45.067 101.342 45.3962 101.571C45.7255 101.8 46.0025 102.096 46.2093 102.438C46.3251 102.629 46.4828 102.792 46.6707 102.915C46.8586 103.037 47.0718 103.115 47.2944 103.144C47.5198 103.176 47.7493 103.156 47.9661 103.088C48.1829 103.019 48.3815 102.903 48.5471 102.748C49.0915 102.266 49.7973 102.004 50.5258 102.014Z" fill="#3A3A39"/>
</g>
<defs>
<clipPath id="clip0_271_3860">
<rect width="110" height="105" fill="white"/>
</clipPath>
</defs>
</svg>
