<svg width="398" height="155" viewBox="0 0 398 155" fill="none" xmlns="http://www.w3.org/2000/svg">
<g clip-path="url(#clip0_271_3032)">
<path d="M239.52 94.3191C241.533 90.0303 242.532 85.3359 242.44 80.5991C242.44 72.9791 240.897 66.9291 237.81 62.4491C234.918 58.1328 230.856 54.73 226.1 52.6391C220.606 50.3611 214.873 48.7074 209.01 47.7091C208.14 47.5291 207.28 47.3591 206.42 47.2091C205.56 47.0591 204.69 46.9191 203.82 46.7891C199.103 46.0404 194.43 45.0389 189.82 43.7891C186.665 42.9225 183.77 41.2949 181.39 39.0491C179.143 36.8691 178.017 33.8457 178.01 29.979C177.978 28.164 178.445 26.375 179.36 24.8073C180.275 23.2396 181.604 21.9534 183.2 21.0891C186.66 18.9691 191.57 17.9091 197.93 17.9091C202.133 17.9799 206.295 18.7575 210.24 20.2091C214.247 21.6335 218.073 23.5231 221.64 25.8391C222.026 26.0932 222.491 26.1988 222.949 26.1363C223.407 26.0738 223.826 25.8474 224.13 25.4991L234.13 14.1391C234.324 13.9146 234.469 13.6517 234.555 13.3674C234.641 13.0832 234.665 12.7841 234.628 12.4896C234.59 12.1951 234.49 11.9119 234.336 11.6585C234.181 11.4051 233.975 11.1872 233.73 11.0191C230.693 8.98679 227.484 7.22345 224.14 5.74907C219.96 3.90595 215.605 2.48878 211.14 1.51906C206.699 0.543506 202.167 0.0473358 197.62 0.0390625C189.527 0.0390625 182.593 1.2224 176.82 3.58907C171.479 5.61322 166.888 9.22975 163.67 13.9491C160.578 18.8488 159.015 24.5579 159.18 30.3491C159.18 39.1891 161.003 45.9591 164.65 50.6591C164.833 50.8883 164.967 51.1535 165.041 51.4376C165.115 51.7217 165.128 52.0183 165.08 52.3079C165.032 52.5975 164.923 52.8738 164.761 53.1187C164.599 53.3635 164.388 53.5715 164.14 53.729C160.579 55.8757 157.611 58.8806 155.51 62.4691C152.901 67.2021 151.607 72.5469 151.76 77.9491C151.76 84.5757 153.18 89.909 156.02 93.9491C158.78 97.9125 162.589 101.029 167.02 102.949C172.236 105.123 177.67 106.729 183.23 107.739C183.775 107.797 184.316 107.887 184.85 108.009C185.383 108.139 185.924 108.232 186.47 108.289L191.66 109.119C197.66 110.099 202.307 111.019 205.6 111.879C208.623 112.601 211.441 114.003 213.84 115.979C214.934 116.929 215.798 118.115 216.368 119.446C216.937 120.778 217.198 122.222 217.13 123.669C217.13 127.722 215.183 130.869 211.29 133.109C207.397 135.349 201.903 136.469 194.81 136.469C189.814 136.409 184.858 135.555 180.13 133.939C175.428 132.387 170.921 130.297 166.7 127.709C166.302 127.46 165.825 127.368 165.363 127.451C164.901 127.535 164.486 127.787 164.2 128.159L153.87 141.259C157.297 144.125 161.098 146.51 165.17 148.349C169.554 150.359 174.154 151.859 178.88 152.819C183.815 153.837 188.841 154.346 193.88 154.339C202.773 154.339 210.367 153.142 216.66 150.749C222.953 148.356 227.757 144.856 231.07 140.249C234.465 135.398 236.217 129.588 236.07 123.669C236.07 115.869 234.203 109.869 230.47 105.669C230.31 105.499 230.14 105.339 229.98 105.159C230.35 104.919 230.72 104.679 231.07 104.429C234.692 101.823 237.598 98.346 239.52 94.3191ZM194.19 92.3891L191.78 92.0191L190.58 91.8291C186.961 91.3106 183.396 90.4638 179.93 89.2991C177.327 88.4411 174.984 86.9376 173.12 84.9291C171.372 82.8817 170.465 80.2485 170.58 77.5591C170.58 72.8924 172.277 69.4057 175.67 67.0991C179.063 64.7924 184.013 63.6324 190.52 63.6191H191.52C191.854 63.6232 192.188 63.6466 192.52 63.6891L193.65 63.8291L195.3 64.0891L195.76 64.1691L197.76 64.4591C198.25 64.5191 198.76 64.5991 199.29 64.6891C199.82 64.7791 200.29 64.8591 200.82 64.9191C204.941 65.4791 209.013 66.355 213 67.5391C215.911 68.3956 218.555 69.9825 220.68 72.1491C222.627 74.2091 223.6 77.0191 223.6 80.5791C223.681 82.7383 223.23 84.8843 222.284 86.8273C221.339 88.7703 219.929 90.4504 218.18 91.7191C215.967 93.3068 213.463 94.4419 210.81 95.0591C210.524 95.129 210.226 95.129 209.94 95.0591C206.05 94.2091 201.63 93.4291 196.65 92.7191L194.19 92.3891Z" fill="#3A3A39"/>
<path d="M29.71 33.7695H0V117.95H18.6699C19.2159 117.96 19.7445 117.757 20.1426 117.384C20.5406 117.01 20.7766 116.495 20.8 115.95V90.6195C20.8209 90.0731 21.0562 89.5569 21.4548 89.1826C21.8535 88.8083 22.3833 88.606 22.9299 88.6195H29.71C51.81 88.6195 65 78.1695 65 60.6695C65 48.3495 58.88 33.7695 29.71 33.7695ZM20.8 53.4695C20.8235 52.924 21.0595 52.4093 21.4575 52.0355C21.8556 51.6617 22.384 51.4586 22.9299 51.4695H28.52C43.08 51.4695 44.24 55.4695 44.24 60.6295C44.24 65.6295 43.03 70.9095 28.52 70.9095H22.97C22.4233 70.9231 21.8933 70.7208 21.4946 70.3465C21.096 69.9722 20.861 69.456 20.8401 68.9095L20.8 53.4695Z" fill="#3A3A39"/>
<path d="M107.66 32.4102C85.8899 32.4102 71.26 49.7301 71.26 75.5201C71.26 101.71 85.8899 119.3 107.66 119.3C129.43 119.3 144.06 101.71 144.06 75.5201C144.06 49.7301 129.43 32.4102 107.66 32.4102ZM107.66 100.96C96.4299 100.96 92.4299 87.8201 92.4299 75.5201C92.4299 63.5201 96.4299 50.7502 107.66 50.7502C118.89 50.7502 122.89 63.5501 122.89 75.5201C122.89 87.8201 118.89 100.96 107.66 100.96Z" fill="#3A3A39"/>
<path d="M306.08 94.3992C301.65 98.9392 297.21 100.959 291.68 100.959C279.08 100.959 271.25 91.2492 271.25 75.6292C271.25 60.2892 279.08 50.7492 291.68 50.7492C294.03 50.7189 296.362 51.1638 298.536 52.0574C300.71 52.951 302.681 54.2748 304.33 55.9492L306.56 58.1092C306.97 58.5034 307.516 58.7235 308.085 58.7235C308.654 58.7235 309.2 58.5034 309.61 58.1092L319.77 47.8592C319.956 47.6735 320.103 47.4529 320.204 47.2101C320.305 46.9673 320.357 46.7071 320.357 46.4442C320.357 46.1814 320.305 45.9211 320.204 45.6783C320.103 45.4356 319.956 45.215 319.77 45.0292L317.71 43.0292C310.777 36.2151 301.431 32.4191 291.71 32.4692C266.83 32.4692 250.11 49.9292 250.11 75.9192C250.11 101.499 266.81 119.359 290.72 119.359C302.31 119.359 312.07 115.189 319.72 106.949L321.64 104.889C321.997 104.506 322.19 103.998 322.177 103.475C322.164 102.951 321.946 102.454 321.57 102.089L311.35 92.1792C310.944 91.775 310.393 91.5481 309.82 91.5481C309.247 91.5481 308.697 91.775 308.29 92.1792L306.08 94.3992Z" fill="#3A3A39"/>
<path d="M361.1 32.4102C339.33 32.4102 324.7 49.7301 324.7 75.5201C324.7 101.71 339.33 119.3 361.1 119.3C382.87 119.3 397.5 101.71 397.5 75.5201C397.52 49.7301 382.87 32.4102 361.1 32.4102ZM361.1 100.96C349.87 100.96 345.87 87.8201 345.87 75.5201C345.87 63.5201 349.87 50.7502 361.1 50.7502C372.33 50.7502 376.33 63.5501 376.33 75.5201C376.33 87.8201 372.33 100.96 361.1 100.96Z" fill="#3A3A39"/>
<path d="M340.36 152.62H344.28V143.51H341.28V142.42C342.487 142.321 343.668 142.013 344.77 141.51H346.09V152.62H349.62V153.96H340.4L340.36 152.62Z" fill="#3A3A39"/>
<path d="M350.3 152.851L351.3 151.851C352.059 152.49 353.018 152.843 354.01 152.851C356.2 152.851 358.14 151.431 358.14 147.291C358.14 144.231 356.84 142.601 354.6 142.601C354.231 142.576 353.861 142.628 353.513 142.752C353.165 142.877 352.846 143.072 352.577 143.326C352.307 143.579 352.093 143.885 351.948 144.225C351.802 144.565 351.728 144.931 351.73 145.301C351.73 147.001 352.73 147.931 354.63 147.931C355.307 147.898 355.97 147.726 356.578 147.425C357.185 147.123 357.724 146.7 358.16 146.181L358.22 147.441C357.169 148.486 355.761 149.094 354.28 149.141C351.77 149.141 350.07 147.851 350.07 145.301C350.07 142.931 352.18 141.301 354.58 141.301C357.58 141.301 359.8 143.301 359.8 147.301C359.8 152.301 357.05 154.201 354.11 154.201C352.719 154.223 351.367 153.744 350.3 152.851Z" fill="#3A3A39"/>
<path d="M368.25 142.91H360.44V141.51H370.27V142.51C366.68 146.27 365.8 149.07 365.59 153.93H363.74C363.742 149.808 365.362 145.851 368.25 142.91Z" fill="#3A3A39"/>
<path d="M372.05 152.97C376.65 149.25 379.16 147.07 379.16 144.97C379.16 143.55 378.22 142.56 376.22 142.56C374.987 142.618 373.823 143.148 372.97 144.04L371.97 143.12C372.558 142.527 373.257 142.056 374.028 141.733C374.798 141.41 375.625 141.243 376.46 141.24C379.19 141.24 380.89 142.7 380.89 144.89C380.89 147.08 378.34 149.54 374.66 152.6C375.51 152.54 376.38 152.5 377.19 152.5H381.64V153.88H372.08L372.05 152.97Z" fill="#3A3A39"/>
<path d="M391.79 147.72C391.8 147.958 391.739 148.193 391.614 148.395C391.49 148.597 391.307 148.757 391.091 148.855C390.875 148.953 390.634 148.983 390.4 148.943C390.166 148.903 389.949 148.794 389.778 148.63C389.606 148.466 389.488 148.254 389.438 148.022C389.388 147.79 389.408 147.548 389.497 147.327C389.585 147.107 389.737 146.918 389.934 146.785C390.131 146.652 390.363 146.581 390.6 146.58C390.753 146.576 390.906 146.603 391.049 146.658C391.191 146.713 391.322 146.796 391.433 146.902C391.543 147.008 391.632 147.135 391.693 147.276C391.754 147.416 391.787 147.567 391.79 147.72Z" fill="#3A3A39"/>
<path d="M332.08 147.72C332.09 147.958 332.029 148.193 331.904 148.395C331.78 148.597 331.597 148.757 331.381 148.855C331.165 148.953 330.924 148.983 330.69 148.943C330.456 148.903 330.239 148.794 330.068 148.63C329.896 148.466 329.778 148.254 329.728 148.022C329.678 147.79 329.698 147.548 329.787 147.327C329.875 147.107 330.027 146.918 330.224 146.785C330.42 146.652 330.653 146.581 330.89 146.58C331.043 146.576 331.196 146.603 331.339 146.658C331.481 146.713 331.612 146.796 331.723 146.902C331.833 147.008 331.922 147.135 331.983 147.276C332.044 147.416 332.077 147.567 332.08 147.72Z" fill="#3A3A39"/>
</g>
<defs>
<clipPath id="clip0_271_3032">
<rect width="397.49" height="154.28" fill="white"/>
</clipPath>
</defs>
</svg>
