<svg width="317" height="175" viewBox="0 0 317 175" fill="none" xmlns="http://www.w3.org/2000/svg">
<path d="M307.64 38.6012L315.84 38.0112L316.09 35.2912H266.78L266.54 38.0112L274.54 38.6012L269.96 96.8812H269.86L230.07 35.2912H167.99L141.5 98.2912H141.4L125.08 35.2912H72.73L72.48 38.0112L80.5699 38.6012L73.47 116.481L66.47 116.541C65.4935 116.56 64.5205 116.418 63.59 116.121C62.4528 115.617 61.4545 114.845 60.6799 113.871C59.3585 112.328 58.3193 110.565 57.61 108.661C56.45 105.901 55.3166 102.735 54.21 99.1612C53.11 95.5812 52.21 92.9312 51.63 91.1612C50.8678 88.9711 49.8223 86.8901 48.52 84.9713C47.2654 83.2766 45.6043 81.9251 43.6899 81.0412C41.3251 79.9485 38.7448 79.4017 36.14 79.4413V79.3213C43.16 78.2079 48.8667 75.7679 53.26 72.0012C57.6533 68.2345 60.1632 62.9746 60.7899 56.2213C61.1888 52.9294 60.7946 49.5897 59.64 46.4812C58.6061 43.8352 56.8059 41.5581 54.47 39.9413C51.999 38.2634 49.2394 37.0565 46.33 36.3812C42.8832 35.5935 39.3552 35.2176 35.8199 35.2612H7.70996L7.45996 37.9812L15.5499 38.5713L8.44995 116.451L0.25 117.041L0 119.771H29.84L30.09 117.041L21.99 116.451L25.3099 80.0913C26.1299 80.0913 27.31 80.0312 28.86 80.0312C29.7584 80.0275 30.6417 80.2622 31.4199 80.7113C32.3323 81.2853 33.0963 82.0663 33.6499 82.9912C35.1691 85.2373 36.336 87.7025 37.11 90.3013C37.73 92.1813 38.2 93.7112 38.51 94.8912C40.6833 102.891 42.2533 108.135 43.22 110.621C43.9954 112.805 45.2066 114.809 46.7799 116.511C47.9647 117.799 49.485 118.73 51.1699 119.201C53.2372 119.636 55.3482 119.827 57.46 119.771H113.97L114.22 117.041L106.28 116.451L112.34 41.3612H112.44L133.12 120.951H135.12L167.26 44.1412H167.37L160.67 116.451L152.47 117.041L152.22 119.771H231.22L231.47 117.041L223.47 116.451L227.94 59.2412H228.05L267.82 120.951H271.05L277.98 38.5713L286.13 37.9812L294.13 38.5713L287.03 116.451L278.83 117.041L278.58 119.771H308.43L308.67 117.041L300.58 116.451L307.64 38.6012ZM27.7799 76.8013C26.7799 76.8013 26 76.8012 25.62 76.7412L29.0599 39.0212C30.7521 38.7327 32.4636 38.5722 34.1799 38.5412C36.0412 38.5057 37.8948 38.7898 39.6599 39.3812C41.2633 39.9505 42.7023 40.9052 43.85 42.1612C45.2025 43.7305 46.1014 45.639 46.45 47.6813C46.971 50.5381 47.0688 53.456 46.74 56.3413C46.12 63.1413 44.3767 68.2513 41.51 71.6712C38.6433 75.0912 34.0666 76.8013 27.7799 76.8013ZM103.21 116.481L95.08 117.071L87.08 116.481L94.1799 38.6012L102.31 38.0212L110.31 38.6012L103.21 116.481ZM190.33 116.481L182.2 117.071L174.2 116.481L181.31 38.6012L189.44 38.0212L197.44 38.6012L190.33 116.481ZM220.06 116.481L211.92 117.071L203.92 116.481L211.02 38.6012L218.9 38.0312L226.62 38.6012L220.06 116.481Z" fill="#3A3A39"/>
<path d="M82.7799 146.58C83.117 146.578 83.453 146.618 83.7799 146.7C84.0473 146.762 84.2993 146.877 84.52 147.04C84.7118 147.182 84.8633 147.372 84.96 147.59C85.0553 147.822 85.1029 148.07 85.1 148.32C85.0977 148.498 85.0639 148.674 85 148.84C84.9323 149.011 84.8378 149.169 84.72 149.31C84.5882 149.454 84.4367 149.579 84.27 149.68C84.0742 149.786 83.8658 149.866 83.6499 149.92C84.1252 149.956 84.5769 150.141 84.9399 150.45C85.0889 150.591 85.2061 150.762 85.2837 150.952C85.3613 151.141 85.3976 151.345 85.39 151.55C85.3963 151.819 85.3415 152.086 85.23 152.33C85.1201 152.56 84.9594 152.762 84.76 152.92C84.5372 153.092 84.2822 153.218 84.01 153.29C83.6845 153.381 83.3478 153.424 83.01 153.42H80.71V146.58H82.7799ZM81.25 146.98V149.78H82.7899C83.0746 149.786 83.3584 149.746 83.63 149.66C83.8386 149.591 84.032 149.482 84.2 149.34C84.3441 149.218 84.4571 149.064 84.5299 148.89C84.5996 148.729 84.6371 148.556 84.64 148.38C84.6455 148.189 84.6068 148 84.527 147.826C84.4472 147.653 84.3284 147.5 84.1799 147.38C83.7647 147.112 83.2724 146.989 82.7799 147.03L81.25 146.98ZM83.0299 152.98C83.5339 153.016 84.0351 152.879 84.45 152.59C84.6098 152.459 84.7364 152.292 84.8198 152.102C84.9032 151.913 84.9409 151.707 84.9299 151.5C84.9355 151.299 84.8908 151.1 84.7999 150.92C84.7141 150.746 84.5871 150.595 84.4299 150.48C84.2532 150.349 84.0529 150.254 83.84 150.2C83.5785 150.134 83.3097 150.1 83.0399 150.1H81.25V152.98H83.0299Z" fill="#3A3A39"/>
<path d="M98.4499 150C98.4567 150.491 98.3754 150.979 98.2099 151.44C98.0499 151.849 97.8123 152.222 97.5099 152.54C97.2077 152.848 96.8427 153.087 96.4399 153.24C96.0004 153.412 95.5317 153.497 95.0599 153.49C94.5879 153.499 94.1188 153.414 93.6799 153.24C93.2742 153.086 92.906 152.848 92.5999 152.54C92.3006 152.222 92.0661 151.848 91.9098 151.44C91.7409 150.979 91.6563 150.491 91.6598 150C91.6553 149.512 91.74 149.028 91.9098 148.57C92.0615 148.16 92.2965 147.786 92.5999 147.47C92.904 147.158 93.2726 146.916 93.6799 146.76C94.1188 146.587 94.5879 146.502 95.0599 146.51C95.5317 146.503 96.0004 146.588 96.4399 146.76C96.8427 146.914 97.2077 147.153 97.5099 147.46C97.8146 147.78 98.0525 148.158 98.2099 148.57C98.3763 149.028 98.4577 149.513 98.4499 150ZM97.9199 150C97.9243 149.562 97.8568 149.127 97.7199 148.71C97.5972 148.339 97.396 147.998 97.1299 147.71C96.8777 147.44 96.5662 147.231 96.2199 147.1C95.8502 146.957 95.4564 146.886 95.0599 146.89C94.6601 146.886 94.2632 146.957 93.8899 147.1C93.5462 147.236 93.2357 147.444 92.9799 147.71C92.7138 147.998 92.5126 148.339 92.3899 148.71C92.1233 149.55 92.1233 150.451 92.3899 151.29C92.5151 151.661 92.716 152.002 92.9799 152.29C93.2363 152.554 93.5468 152.759 93.8899 152.89C94.2632 153.034 94.6601 153.105 95.0599 153.1C95.4564 153.105 95.8502 153.034 96.2199 152.89C96.5657 152.764 96.8773 152.558 97.1299 152.29C97.3938 152.002 97.5947 151.661 97.7199 151.29C97.8568 150.874 97.9243 150.438 97.9199 150Z" fill="#3A3A39"/>
<path d="M107.71 153.07C108.026 153.075 108.34 153.014 108.63 152.89C108.891 152.784 109.126 152.624 109.32 152.42C109.509 152.21 109.655 151.966 109.75 151.7C109.853 151.415 109.903 151.113 109.9 150.81V146.58H110.41V150.81C110.409 151.152 110.345 151.491 110.22 151.81C110.105 152.131 109.925 152.423 109.69 152.67C109.447 152.913 109.158 153.107 108.84 153.24C108.113 153.52 107.308 153.52 106.58 153.24C106.263 153.107 105.974 152.913 105.73 152.67C105.496 152.423 105.315 152.131 105.2 151.81C105.075 151.491 105.011 151.152 105.01 150.81V146.58H105.53V150.81C105.529 151.113 105.579 151.414 105.68 151.7C105.772 151.964 105.919 152.206 106.11 152.41C106.295 152.622 106.528 152.787 106.79 152.89C107.081 153.014 107.394 153.075 107.71 153.07Z" fill="#3A3A39"/>
<path d="M122.12 147H119.62V153.42H119.1V147H116.58V146.58H122.12V147Z" fill="#3A3A39"/>
<path d="M128.87 153.42H128.35V146.58H128.87V153.42Z" fill="#3A3A39"/>
<path d="M142.63 154.93H142.2C142.14 154.933 142.081 154.923 142.026 154.901C141.97 154.878 141.921 154.844 141.88 154.8L140.36 153.23C139.906 153.402 139.425 153.491 138.94 153.49C138.468 153.497 137.999 153.412 137.56 153.24C137.159 153.084 136.794 152.845 136.49 152.54C136.187 152.225 135.953 151.85 135.8 151.44C135.626 150.981 135.542 150.492 135.55 150C135.541 149.512 135.626 149.027 135.8 148.57C135.947 148.158 136.182 147.782 136.49 147.47C136.791 147.159 137.156 146.917 137.56 146.76C137.999 146.588 138.468 146.503 138.94 146.51C139.412 146.502 139.881 146.587 140.32 146.76C140.726 146.914 141.094 147.153 141.4 147.46C141.705 147.778 141.94 148.156 142.09 148.57C142.366 149.34 142.415 150.174 142.23 150.97C142.168 151.264 142.063 151.547 141.92 151.81C141.795 152.065 141.63 152.298 141.43 152.5C141.238 152.703 141.02 152.878 140.78 153.02L142.63 154.93ZM136.07 150C136.063 150.439 136.134 150.876 136.28 151.29C136.405 151.661 136.606 152.002 136.87 152.29C137.124 152.556 137.435 152.761 137.78 152.89C138.531 153.17 139.358 153.17 140.11 152.89C140.453 152.759 140.764 152.554 141.02 152.29C141.281 152.001 141.478 151.66 141.6 151.29C141.88 150.453 141.88 149.548 141.6 148.71C141.481 148.339 141.283 147.998 141.02 147.71C140.764 147.444 140.454 147.236 140.11 147.1C139.358 146.821 138.531 146.821 137.78 147.1C137.435 147.233 137.124 147.442 136.87 147.71C136.604 147.998 136.403 148.339 136.28 148.71C136.134 149.125 136.063 149.561 136.07 150Z" fill="#3A3A39"/>
<path d="M151.63 153.07C151.943 153.075 152.253 153.014 152.54 152.89C152.802 152.787 153.038 152.626 153.23 152.42C153.423 152.213 153.569 151.968 153.66 151.7C153.762 151.415 153.813 151.113 153.81 150.81V146.58H154.33V150.81C154.324 151.152 154.26 151.49 154.14 151.81C154.022 152.131 153.838 152.424 153.6 152.67C153.358 152.916 153.069 153.11 152.75 153.24C152.395 153.384 152.014 153.456 151.63 153.45C151.243 153.456 150.859 153.384 150.5 153.24C150.181 153.11 149.892 152.916 149.65 152.67C149.416 152.421 149.232 152.129 149.11 151.81C148.994 151.489 148.933 151.151 148.93 150.81V146.58H149.45V150.81C149.445 151.113 149.493 151.414 149.59 151.7C149.687 151.962 149.833 152.203 150.02 152.41C150.211 152.62 150.447 152.784 150.71 152.89C151.001 153.015 151.314 153.076 151.63 153.07Z" fill="#3A3A39"/>
<path d="M165.65 153.01V153.42H161.38V146.58H165.65V146.99H161.9V149.76H165.02V150.16H161.9V153.01H165.65Z" fill="#3A3A39"/>
<path d="M185.52 146.58V153.42H185V150.16H180.54V153.44H180.02V146.6H180.54V149.79H185V146.6L185.52 146.58Z" fill="#3A3A39"/>
<path d="M198.98 150C198.987 150.491 198.906 150.979 198.74 151.44C198.58 151.849 198.342 152.222 198.04 152.54C197.738 152.848 197.373 153.087 196.97 153.24C196.531 153.412 196.062 153.497 195.59 153.49C195.118 153.499 194.649 153.414 194.21 153.24C193.804 153.086 193.436 152.848 193.13 152.54C192.831 152.222 192.596 151.848 192.44 151.44C192.271 150.979 192.187 150.491 192.19 150C192.186 149.512 192.27 149.028 192.44 148.57C192.592 148.16 192.827 147.786 193.13 147.47C193.434 147.158 193.803 146.916 194.21 146.76C194.649 146.587 195.118 146.502 195.59 146.51C196.062 146.503 196.531 146.588 196.97 146.76C197.373 146.914 197.738 147.153 198.04 147.46C198.345 147.78 198.583 148.158 198.74 148.57C198.907 149.028 198.988 149.513 198.98 150ZM198.45 150C198.455 149.562 198.387 149.127 198.25 148.71C198.127 148.339 197.926 147.998 197.66 147.71C197.408 147.44 197.096 147.231 196.75 147.1C196.38 146.957 195.987 146.886 195.59 146.89C195.19 146.886 194.793 146.957 194.42 147.1C194.076 147.236 193.766 147.444 193.51 147.71C193.244 147.998 193.043 148.339 192.92 148.71C192.653 149.55 192.653 150.451 192.92 151.29C193.045 151.661 193.246 152.002 193.51 152.29C193.767 152.554 194.077 152.759 194.42 152.89C194.793 153.034 195.19 153.105 195.59 153.1C195.987 153.105 196.38 153.034 196.75 152.89C197.096 152.764 197.407 152.558 197.66 152.29C197.924 152.002 198.125 151.661 198.25 151.29C198.387 150.874 198.455 150.438 198.45 150Z" fill="#3A3A39"/>
<path d="M209.88 147H207.37V153.42H206.85V147H204.34V146.58H209.88V147Z" fill="#3A3A39"/>
<path d="M220.39 153.01V153.42H216.12V146.58H220.39V146.99H216.64V149.76H219.71V150.16H216.59V153.01H220.39Z" fill="#3A3A39"/>
<path d="M230.88 153V153.42H226.98V146.58H227.5V153H230.88Z" fill="#3A3A39"/>
<path d="M63.8098 174.419V174.769H60.1399V174.419H61.7699V168.869C61.7699 168.759 61.7699 168.649 61.7699 168.519L60.1998 169.859C60.1778 169.869 60.154 169.875 60.1299 169.875C60.1057 169.875 60.0818 169.869 60.0598 169.859C60.0168 169.854 59.9775 169.833 59.9498 169.799L59.7998 169.599L61.8599 167.859H62.2399V174.369L63.8098 174.419Z" fill="#3A3A39"/>
<path d="M73.4402 171.95L73.7203 171.56C73.8003 171.44 73.8802 171.33 73.9502 171.21C73.752 171.423 73.5098 171.59 73.2403 171.7C72.9574 171.814 72.6551 171.871 72.3503 171.87C72.0774 171.871 71.8064 171.824 71.5502 171.73C71.3089 171.646 71.0876 171.513 70.9002 171.34C70.7202 171.163 70.5775 170.953 70.4803 170.72C70.3778 170.466 70.3268 170.194 70.3302 169.92C70.3284 169.638 70.3864 169.358 70.5003 169.1C70.6089 168.852 70.7691 168.631 70.9703 168.45C71.1813 168.263 71.4255 168.117 71.6902 168.02C71.9807 167.909 72.2895 167.855 72.6003 167.86C72.8981 167.854 73.194 167.908 73.4703 168.02C73.7229 168.117 73.9538 168.263 74.1502 168.45C74.3417 168.644 74.4915 168.876 74.5903 169.13C74.7017 169.41 74.7561 169.709 74.7503 170.01C74.7507 170.178 74.7305 170.346 74.6902 170.51C74.6532 170.679 74.5962 170.844 74.5203 171C74.4403 171.16 74.3503 171.32 74.2503 171.49L73.8803 172.04L72.0103 174.66C71.9829 174.7 71.9449 174.731 71.9008 174.75C71.8566 174.77 71.8081 174.776 71.7603 174.77H71.3302L73.4402 171.95ZM72.4402 171.51C72.7035 171.513 72.9648 171.465 73.2102 171.37C73.4212 171.282 73.6144 171.157 73.7802 171C73.9289 170.854 74.0479 170.681 74.1303 170.49C74.2082 170.31 74.249 170.116 74.2503 169.92C74.2497 169.687 74.2056 169.456 74.1203 169.24C74.0431 169.04 73.9237 168.859 73.7703 168.71C73.6168 168.559 73.4326 168.443 73.2303 168.37C73.0153 168.279 72.7835 168.235 72.5502 168.24C72.305 168.237 72.0613 168.278 71.8302 168.36C71.6262 168.442 71.437 168.557 71.2703 168.7C71.1131 168.846 70.9871 169.023 70.9002 169.22C70.815 169.433 70.771 169.66 70.7703 169.89C70.7677 170.122 70.8084 170.353 70.8903 170.57C70.9643 170.763 71.0804 170.937 71.2303 171.08C71.3822 171.223 71.5629 171.332 71.7603 171.4C71.9919 171.479 72.2356 171.516 72.4803 171.51H72.4402Z" fill="#3A3A39"/>
<path d="M82.1099 170.651C82.3162 170.593 82.5269 170.553 82.7399 170.531C82.9296 170.517 83.1201 170.517 83.3098 170.531C83.6492 170.524 83.9874 170.575 84.3098 170.681C84.5704 170.774 84.8088 170.92 85.0099 171.111C85.2022 171.291 85.3494 171.513 85.4398 171.761C85.5421 172.022 85.5931 172.3 85.5898 172.581C85.5975 172.925 85.5293 173.266 85.3899 173.581C85.2634 173.854 85.0831 174.099 84.8599 174.301C84.6298 174.505 84.3612 174.662 84.0698 174.761C83.7655 174.871 83.4436 174.925 83.1199 174.921C82.9335 174.936 82.7462 174.936 82.5598 174.921C82.39 174.891 82.2228 174.847 82.0598 174.791C81.9097 174.732 81.7628 174.665 81.6199 174.591C81.4997 174.525 81.3858 174.448 81.2798 174.361L81.4198 174.171C81.4358 174.149 81.457 174.131 81.4813 174.119C81.5057 174.106 81.5326 174.1 81.5598 174.101C81.6273 174.111 81.692 174.135 81.7499 174.171C81.8513 174.234 81.9584 174.288 82.0698 174.331C82.2169 174.401 82.3711 174.454 82.5298 174.491C82.7318 174.546 82.9404 174.573 83.1498 174.571C83.4118 174.569 83.6718 174.525 83.9198 174.441C84.1479 174.358 84.3582 174.232 84.5398 174.071C84.7174 173.902 84.8572 173.698 84.9498 173.471C85.0541 173.217 85.1052 172.945 85.0999 172.671C85.1024 172.439 85.0617 172.208 84.9799 171.991C84.9076 171.791 84.7915 171.61 84.6399 171.461C84.4719 171.309 84.2744 171.193 84.0598 171.121C83.7949 171.036 83.5179 170.995 83.2399 171.001C83.0368 170.986 82.833 170.986 82.6299 171.001C82.4099 171.001 82.1898 171.081 81.9398 171.141L81.6399 171.051L82.1898 168.051H85.3998V168.251C85.401 168.281 85.3953 168.311 85.3832 168.339C85.3711 168.367 85.3528 168.391 85.3298 168.411C85.2694 168.456 85.1948 168.477 85.1199 168.471H82.5398L82.1099 170.651Z" fill="#3A3A39"/>
<path d="M96.9402 172.45V172.7C96.9502 172.725 96.9502 172.754 96.9402 172.78C96.9044 172.791 96.866 172.791 96.8302 172.78H95.6602V174.78H95.2402V172.78H91.8702C91.8347 172.793 91.7958 172.793 91.7603 172.78C91.7322 172.76 91.7111 172.732 91.7002 172.7V172.47L95.2802 167.93H95.7002V172.45H96.9402ZM95.2102 172.45V168.87C95.2052 168.81 95.2052 168.75 95.2102 168.69C95.2053 168.623 95.2053 168.556 95.2102 168.49L92.1302 172.49L95.2102 172.45Z" fill="#3A3A39"/>
<path d="M110.71 171.301H113.05V171.691H110.71V171.301Z" fill="#3A3A39"/>
<path d="M132.51 174.771H132.07H131.93C131.884 174.749 131.846 174.714 131.82 174.671L129.53 171.901L129.45 171.801L129.35 171.741H129.23H128.12V174.831H127.6V168.001H129.42C130.067 167.951 130.713 168.113 131.26 168.461C131.465 168.616 131.628 168.82 131.734 169.054C131.841 169.288 131.888 169.545 131.87 169.801C131.875 170.04 131.829 170.278 131.736 170.498C131.643 170.719 131.505 170.917 131.33 171.081C131.139 171.247 130.923 171.382 130.69 171.481C130.418 171.589 130.132 171.656 129.84 171.681C129.927 171.731 130.002 171.799 130.06 171.881L132.51 174.771ZM129.35 171.321C129.637 171.324 129.923 171.287 130.2 171.211C130.426 171.145 130.639 171.04 130.83 170.901C131.001 170.772 131.138 170.604 131.23 170.411C131.32 170.21 131.364 169.991 131.36 169.771C131.376 169.563 131.339 169.354 131.254 169.164C131.168 168.973 131.036 168.807 130.87 168.681C130.433 168.421 129.928 168.299 129.42 168.331H128.12V171.331L129.35 171.321Z" fill="#3A3A39"/>
<path d="M139.26 174.771H138.71V167.941H139.22L139.26 174.771Z" fill="#3A3A39"/>
<path d="M153.44 167.941V174.771H152.99V168.951C152.99 168.871 152.99 168.781 152.99 168.681L150.19 173.461C150.17 173.5 150.14 173.533 150.103 173.555C150.066 173.578 150.023 173.591 149.98 173.591H149.9C149.858 173.589 149.818 173.576 149.783 173.553C149.748 173.53 149.719 173.499 149.7 173.461L146.82 168.671C146.82 168.771 146.82 168.861 146.82 168.951V174.771H146.36V167.941H146.83C146.83 167.941 146.83 167.941 146.91 168.021L149.79 172.771C149.839 172.865 149.883 172.962 149.92 173.061L149.98 172.911C149.98 172.911 149.98 172.811 150.06 172.771L152.85 168.021C152.872 167.987 152.903 167.959 152.94 167.941H153.4H153.44Z" fill="#3A3A39"/>
<path d="M161.1 174.771H160.58V167.941H161.1V174.771Z" fill="#3A3A39"/>
<path d="M173.71 167.941V174.771H173.47C173.434 174.783 173.396 174.783 173.36 174.771C173.327 174.757 173.299 174.732 173.28 174.701L168.65 168.771C168.655 168.861 168.655 168.951 168.65 169.041V174.791H168.2V167.961H168.46H168.57C168.602 167.978 168.629 168.002 168.65 168.031L173.27 173.951C173.27 173.851 173.27 173.761 173.27 173.671V167.941H173.71Z" fill="#3A3A39"/>
<path d="M181.4 174.771H180.88V167.941H181.4V174.771Z" fill="#3A3A39"/>
<path d="M195.93 171.301H198.27V171.691H195.93V171.301Z" fill="#3A3A39"/>
<path d="M213.3 174.771H212.79V167.941H213.3V174.771Z" fill="#3A3A39"/>
<path d="M225.08 168.361H222.57V174.771H222.06V168.361H219.54V167.941H225.08V168.361Z" fill="#3A3A39"/>
<path d="M236.03 174.771H235.63C235.591 174.782 235.549 174.782 235.51 174.771C235.484 174.742 235.464 174.708 235.45 174.671L234.61 172.671H231.11L230.27 174.671C230.26 174.712 230.235 174.748 230.2 174.771C230.161 174.783 230.119 174.783 230.08 174.771H229.71L232.63 167.941H233.13L236.03 174.771ZM234.45 172.291L233 168.841C232.941 168.709 232.894 168.572 232.86 168.431C232.86 168.511 232.81 168.581 232.79 168.651C232.77 168.716 232.746 168.779 232.72 168.841L231.27 172.291H234.45Z" fill="#3A3A39"/>
<path d="M246.14 174.351V174.771H242.25V167.941H242.77V174.351H246.14Z" fill="#3A3A39"/>
<path d="M253.63 171.96V174.77H253.12V171.96L250.48 167.96H250.93C250.969 167.948 251.011 167.948 251.05 167.96C251.081 167.983 251.105 168.014 251.12 168.05L253.12 171.19C253.165 171.257 253.205 171.327 253.24 171.4L253.34 171.61L253.43 171.4C253.464 171.327 253.505 171.257 253.55 171.19L255.55 168.05C255.567 168.015 255.591 167.985 255.62 167.96C255.659 167.948 255.701 167.948 255.74 167.96H256.19L253.63 171.96Z" fill="#3A3A39"/>
<path d="M47.5901 158.711H23.1401V159.041H47.5901V158.711Z" fill="#3A3A39"/>
<path d="M292.95 158.711H268.5V159.041H292.95V158.711Z" fill="#3A3A39"/>
<path d="M174.1 1.0311C173.66 1.0311 173.22 1.0311 172.79 1.0311C172.68 0.999948 172.566 0.992767 172.453 1.01011C172.341 1.02745 172.233 1.0689 172.138 1.13157C172.043 1.19424 171.963 1.27669 171.903 1.37327C171.843 1.46984 171.804 1.57828 171.79 1.69114C171.672 2.16782 171.429 2.60446 171.087 2.95603C170.744 3.3076 170.313 3.56136 169.84 3.69114C168.37 4.00114 168.25 4.85111 168.26 5.91111C168.265 6.00104 168.265 6.0912 168.26 6.18113C168.19 7.02113 168.26 7.08111 169.09 6.91111C169.67 6.80111 170.23 6.60114 170.79 6.44114L171.47 6.27109C171.264 7.13178 170.878 7.93891 170.337 8.63889C169.795 9.33887 169.111 9.91575 168.33 10.3312C167.391 10.9054 166.308 11.1992 165.207 11.178C164.107 11.1567 163.036 10.8213 162.12 10.2112C161.446 9.78623 160.892 9.19517 160.512 8.49473C160.132 7.79428 159.939 7.00796 159.95 6.21116C160.3 6.34116 160.5 6.43106 160.7 6.49106L162.33 6.92112C162.9 7.07112 163.14 6.8511 163.15 6.2811C163.157 5.76824 163.204 5.25667 163.29 4.75107C163.37 4.29107 163.21 4.08106 162.74 3.99106C162.242 3.904 161.775 3.68717 161.387 3.3624C160.999 3.03763 160.703 2.61641 160.53 2.14109C160.38 1.77109 160.4 1.21112 160.13 1.05112C159.86 0.891122 159.24 0.981166 158.78 0.971166C158.52 0.971166 158.26 0.971166 158.02 0.971166C157.925 0.9494 157.827 0.947284 157.731 0.965062C157.636 0.982841 157.545 1.02005 157.464 1.07444C157.383 1.12882 157.315 1.19923 157.263 1.28122C157.21 1.36322 157.175 1.45508 157.16 1.55112C156.994 2.07988 156.705 2.56191 156.318 2.9581C155.93 3.3543 155.455 3.65349 154.93 3.83115C153.73 4.28115 153.73 4.2811 153.62 5.5311V5.60105C153.48 7.16105 153.54 7.20106 155.2 6.74106C155.68 6.60106 156.2 6.4411 156.66 6.2811C156.36 8.9311 153.44 11.1211 150.66 11.1411C147.88 11.1611 145.06 8.71114 145.42 6.32114L147.66 6.92112C148.22 7.06112 148.48 6.8311 148.51 6.2811C148.528 5.79252 148.571 5.30523 148.64 4.82114C148.71 4.32114 148.53 4.07115 148.01 3.95115C147.535 3.85586 147.093 3.64032 146.725 3.32517C146.357 3.01002 146.077 2.60573 145.91 2.1511C145.76 1.7811 145.78 1.23113 145.5 1.06113C145.22 0.891132 144.62 0.981166 144.16 0.971166C143.95 0.971166 143.74 0.971166 143.54 0.971166C142.92 0.891166 142.69 1.10105 142.63 1.73105C142.163 7.11105 141.673 12.4944 141.16 17.8811C141.1 18.5311 141.29 18.7111 141.95 18.7011H172.64C173.26 18.7011 173.49 18.5411 173.54 17.9211C173.74 15.3311 174 12.7311 174.24 10.1411L174.99 1.84116C175.03 1.03116 175.03 1.0311 174.1 1.0311Z" fill="#3A3A39"/>
<path d="M172.63 21.0703H141.29C141.075 21.0703 140.9 21.2449 140.9 21.4603V22.7703C140.9 22.9857 141.075 23.1603 141.29 23.1603H172.63C172.845 23.1603 173.02 22.9857 173.02 22.7703V21.4603C173.02 21.2449 172.845 21.0703 172.63 21.0703Z" fill="#3A3A39"/>
</svg>
