<svg width="243" height="320" viewBox="0 0 243 320" fill="none" xmlns="http://www.w3.org/2000/svg">
<g clip-path="url(#clip0_271_2955)">
<path d="M237.96 291.27C230.36 291.27 226.38 287.27 223.47 284.27C220.88 281.63 219.61 280.47 216.72 280.47C213.83 280.47 212.55 281.63 209.96 284.27C207.06 287.27 203.08 291.27 195.47 291.27C187.86 291.27 183.89 287.27 180.98 284.27C178.39 281.63 177.13 280.47 174.24 280.47C171.35 280.47 170.08 281.63 167.49 284.27C164.59 287.27 160.61 291.27 153 291.27C145.39 291.27 141.42 287.27 138.51 284.27C135.92 281.63 134.66 280.47 131.77 280.47C128.88 280.47 127.61 281.63 125.03 284.27C122.12 287.27 118.14 291.27 110.54 291.27C102.94 291.27 98.9601 287.27 96.05 284.27C93.4601 281.63 92.2001 280.47 89.3101 280.47C86.4201 280.47 85.1501 281.63 82.5601 284.27C79.6601 287.27 75.6801 291.27 68.0801 291.27C60.4801 291.27 56.49 287.27 53.59 284.27C51 281.63 49.73 280.47 46.85 280.47C43.97 280.47 42.69 281.63 40.1 284.27C37.19 287.27 33.22 291.27 25.61 291.27C18 291.27 14.03 287.27 11.12 284.27C8.54 281.63 7.27 280.47 4.38 280.47V270.26C11.98 270.26 15.96 274.31 18.87 277.26C21.45 279.89 22.72 281.05 25.61 281.05C28.5 281.05 29.77 279.89 32.36 277.26C35.26 274.26 39.24 270.26 46.85 270.26C54.46 270.26 58.4301 274.31 61.3301 277.26C63.9201 279.89 65.1901 281.05 68.0801 281.05C70.9701 281.05 72.2301 279.89 74.8201 277.26C77.7301 274.26 81.7001 270.26 89.3101 270.26C96.9201 270.26 100.89 274.31 103.8 277.26C106.38 279.89 107.65 281.05 110.54 281.05C113.43 281.05 114.69 279.89 117.28 277.26C120.19 274.26 124.16 270.26 131.77 270.26C139.38 270.26 143.35 274.31 146.25 277.26C148.84 279.89 150.11 281.05 153 281.05C155.89 281.05 157.16 279.89 159.75 277.25C162.65 274.3 166.63 270.25 174.24 270.25C181.85 270.25 185.82 274.3 188.72 277.25C191.31 279.88 192.58 281.04 195.47 281.04C198.36 281.04 199.63 279.88 202.22 277.24C205.13 274.29 209.11 270.24 216.72 270.24C224.33 270.24 228.3 274.29 231.21 277.24C233.8 279.88 235.07 281.04 237.96 281.04V291.27Z" fill="#3A3A39"/>
<path d="M237.96 319.09C230.36 319.09 226.38 315.09 223.47 312.09C220.88 309.46 219.61 308.29 216.72 308.29C213.83 308.29 212.55 309.46 209.96 312.09C207.06 315.09 203.08 319.09 195.47 319.09C187.86 319.09 183.89 315.09 180.98 312.09C178.39 309.46 177.13 308.29 174.24 308.29C171.35 308.29 170.08 309.46 167.49 312.09C164.59 315.09 160.61 319.09 153 319.09C145.39 319.09 141.42 315.09 138.51 312.09C135.92 309.46 134.66 308.29 131.77 308.29C128.88 308.29 127.61 309.46 125.03 312.09C122.12 315.09 118.14 319.09 110.54 319.09C102.94 319.09 98.9601 315.09 96.05 312.09C93.4601 309.46 92.2001 308.29 89.3101 308.29C86.4201 308.29 85.1501 309.46 82.5601 312.09C79.6601 315.09 75.6801 319.09 68.0801 319.09C60.4801 319.09 56.49 315.09 53.59 312.09C51 309.46 49.73 308.29 46.85 308.29C43.97 308.29 42.69 309.46 40.1 312.09C37.19 315.09 33.22 319.09 25.61 319.09C18 319.09 14.03 315.09 11.12 312.09C8.54 309.46 7.27 308.29 4.38 308.29V298.09C11.98 298.09 15.96 302.09 18.87 305.09C21.45 307.72 22.72 308.89 25.61 308.89C28.5 308.89 29.77 307.72 32.36 305.09C35.26 302.09 39.24 298.09 46.85 298.09C54.46 298.09 58.4301 302.09 61.3301 305.09C63.9201 307.72 65.1901 308.89 68.0801 308.89C70.9701 308.89 72.2301 307.72 74.8201 305.09C77.7301 302.09 81.7001 298.09 89.3101 298.09C96.9201 298.09 100.89 302.09 103.8 305.09C106.38 307.72 107.65 308.89 110.54 308.89C113.43 308.89 114.69 307.72 117.28 305.09C120.19 302.09 124.16 298.09 131.77 298.09C139.38 298.09 143.35 302.09 146.25 305.09C148.84 307.72 150.11 308.89 153 308.89C155.89 308.89 157.16 307.72 159.75 305.09C162.65 302.09 166.63 298.09 174.24 298.09C181.85 298.09 185.82 302.09 188.72 305.09C191.31 307.72 192.58 308.89 195.47 308.89C198.36 308.89 199.63 307.72 202.22 305.09C205.13 302.09 209.11 298.09 216.72 298.09C224.33 298.09 228.3 302.09 231.21 305.09C233.8 307.72 235.07 308.89 237.96 308.89V319.09Z" fill="#3A3A39"/>
<path d="M170.55 69.45C150.55 69.45 134.36 53.87 134.36 34.73C134.36 15.59 150.6 0 170.55 0C190.5 0 206.75 15.58 206.75 34.73C206.75 53.88 190.51 69.45 170.55 69.45ZM170.55 10.21C156.46 10.21 145 21.21 145 34.73C145 48.25 156.46 59.2401 170.55 59.2401C184.64 59.2401 196.11 48.24 196.11 34.73C196.11 21.22 184.65 10.21 170.55 10.21Z" fill="#3A3A39"/>
<path d="M26.91 99.2899C23.63 99.2899 21.4301 97.1799 21.4301 94.0399V51.7599H8.14001C4.86001 51.7599 2.66003 49.6499 2.66003 46.5099V36.4199C2.66003 33.2799 4.86001 31.1699 8.14001 31.1699H56.1901C59.5101 31.1699 61.66 33.2299 61.66 36.4199V46.5099C61.66 49.6499 59.4601 51.7599 56.1901 51.7599H42.9V94.0399C42.9 97.1799 40.7001 99.2899 37.4301 99.2899H26.91Z" fill="#3A3A39"/>
<path d="M56.1901 33.7191C58.0601 33.7191 59 34.6191 59 36.4191V46.5091C59.0389 46.8829 58.992 47.2606 58.8628 47.6135C58.7336 47.9664 58.5256 48.2852 58.2546 48.5456C57.9837 48.806 57.6568 49.001 57.2991 49.116C56.9413 49.231 56.562 49.2628 56.1901 49.2091H43.05C41.2701 49.2091 40.23 50.1091 40.23 51.9091V94.0891C40.2688 94.4629 40.2219 94.8406 40.0928 95.1935C39.9636 95.5464 39.7556 95.8652 39.4846 96.1255C39.2136 96.3859 38.8868 96.5811 38.5291 96.696C38.1713 96.811 37.792 96.8429 37.42 96.7891H26.91C26.5391 96.8348 26.1626 96.7973 25.808 96.6796C25.4533 96.5618 25.1293 96.3667 24.8594 96.1082C24.5894 95.8498 24.3804 95.5345 24.2473 95.1853C24.1142 94.8361 24.0605 94.4617 24.09 94.0891V51.9091C24.09 50.1091 23.15 49.2091 21.28 49.2091H8.14001C7.76911 49.2548 7.39275 49.2174 7.03809 49.0996C6.68342 48.9818 6.35929 48.7866 6.08936 48.5282C5.81942 48.2698 5.61036 47.9545 5.47729 47.6053C5.34423 47.2561 5.29058 46.8816 5.32007 46.5091V36.4191C5.32007 34.6191 6.32001 33.7191 8.14001 33.7191H56.1901ZM56.1901 28.6191H8.14001C3.35001 28.6191 0 31.8291 0 36.4191V46.5091C0 51.0291 3.42001 54.3091 8.14001 54.3091H18.77V94.0891C18.77 98.6091 22.19 101.899 26.91 101.899H37.42C42.21 101.899 45.55 98.6891 45.55 94.0891V54.3091H56.1901C60.9801 54.3091 64.3201 51.0991 64.3201 46.5091V36.4191C64.3201 31.8291 60.9801 28.6191 56.1901 28.6191Z" fill="#F7F5F0"/>
<path d="M98.27 99.2899C94.99 99.2899 92.79 97.1799 92.79 94.0399V79.6699H83.48V94.0399C83.48 97.1799 81.28 99.2899 78.01 99.2899H67.49C64.22 99.2899 62.02 97.1799 62.02 94.0399V36.4199C62.02 33.2299 64.17 31.1699 67.49 31.1699H78.01C81.28 31.1699 83.48 33.2799 83.48 36.4199V58.9299C83.4742 58.9764 83.4742 59.0234 83.48 59.0699H92.79V36.4199C92.79 33.2799 94.99 31.1699 98.27 31.1699H108.78C112.11 31.1699 114.25 33.2299 114.25 36.4199V94.0899C114.25 97.2299 112.06 99.3399 108.78 99.3399L98.27 99.2899Z" fill="#3A3A39"/>
<path d="M108.74 33.7191C110.62 33.7191 111.56 34.6191 111.56 36.4191V94.0891C111.56 95.7991 110.62 96.7891 108.74 96.7891H98.27C97.8991 96.8348 97.5226 96.7973 97.168 96.6796C96.8133 96.5618 96.4893 96.3667 96.2194 96.1082C95.9494 95.8498 95.7404 95.5345 95.6073 95.1853C95.4742 94.8361 95.4206 94.4617 95.4501 94.0891V79.8191C95.4501 78.0191 94.51 77.1191 92.64 77.1191H83.64C81.85 77.1191 80.8201 78.0191 80.8201 79.8191V94.0891C80.8589 94.4629 80.8119 94.8406 80.6827 95.1935C80.5536 95.5464 80.3456 95.8652 80.0746 96.1255C79.8036 96.3859 79.4768 96.5811 79.119 96.696C78.7612 96.811 78.3819 96.8429 78.01 96.7891H67.49C67.1195 96.835 66.7434 96.7977 66.3892 96.6799C66.0349 96.5621 65.7115 96.3668 65.4423 96.1081C65.1731 95.8494 64.965 95.534 64.8331 95.1847C64.7013 94.8354 64.649 94.4611 64.6801 94.0891V36.4191C64.6801 34.6191 65.62 33.7191 67.49 33.7191H78.01C78.3805 33.6732 78.7566 33.7105 79.1108 33.8283C79.4651 33.9461 79.7885 34.1415 80.0577 34.4001C80.3269 34.6588 80.5351 34.9743 80.667 35.3235C80.7989 35.6728 80.8512 36.0471 80.8201 36.4191V58.9291C80.7906 59.3017 80.8442 59.6761 80.9773 60.0253C81.1104 60.3745 81.3194 60.6897 81.5894 60.9482C81.8593 61.2066 82.1834 61.4018 82.5381 61.5196C82.8928 61.6374 83.2691 61.6747 83.64 61.6291H92.64C93.012 61.6828 93.3912 61.651 93.749 61.536C94.1068 61.421 94.4336 61.2259 94.7046 60.9656C94.9756 60.7052 95.1836 60.3864 95.3127 60.0335C95.4419 59.6806 95.4889 59.3029 95.4501 58.9291V36.4191C95.4206 36.0466 95.4742 35.6721 95.6073 35.3229C95.7404 34.9737 95.9494 34.6585 96.2194 34.4C96.4893 34.1416 96.8133 33.9464 97.168 33.8286C97.5226 33.7108 97.8991 33.6735 98.27 33.7191H108.78M108.78 28.6191H98.27C93.55 28.6191 90.13 31.8991 90.13 36.4191V56.5291H86.13V36.4191C86.13 31.8991 82.71 28.6191 78 28.6191H67.48C62.69 28.6191 59.35 31.8291 59.35 36.4191V94.0891C59.35 98.6091 62.77 101.899 67.48 101.899H78C82.79 101.899 86.13 98.6891 86.13 94.0891V82.2191H90.13V94.0891C90.13 98.6091 93.55 101.899 98.27 101.899H108.78C113.57 101.899 116.92 98.6891 116.92 94.0891V36.4191C116.92 31.8291 113.57 28.6191 108.78 28.6191Z" fill="#F7F5F0"/>
<path d="M123.75 99.2899C120.48 99.2899 118.28 97.1799 118.28 94.0399V36.4199C118.28 33.2799 120.48 31.1699 123.75 31.1699H163.17C166.5 31.1699 168.64 33.2299 168.64 36.4199V46.5099C168.64 49.6499 166.45 51.7599 163.17 51.7599H140.27V54.7599C140.265 54.8064 140.265 54.8534 140.27 54.8999H154.96C158.29 54.8999 160.44 56.9599 160.44 60.1499V70.2299C160.44 73.3699 158.24 75.4799 154.96 75.4799H140.27V78.4799C140.265 78.5264 140.265 78.5734 140.27 78.6199H163.13C166.46 78.6199 168.6 80.6799 168.6 83.8699V94.0899C168.6 97.2799 166.46 99.3399 163.13 99.3399L123.75 99.2899Z" fill="#3A3A39"/>
<path d="M163.17 33.7191C165.05 33.7191 165.99 34.6191 165.99 36.4191V46.5091C165.99 48.2191 165.05 49.2091 163.17 49.2091H140.46C138.68 49.2091 137.64 50.1091 137.64 51.9091V54.7891C137.611 55.1617 137.664 55.5361 137.797 55.8853C137.93 56.2345 138.139 56.5498 138.409 56.8082C138.679 57.0667 139.003 57.2618 139.358 57.3796C139.713 57.4973 140.089 57.5348 140.46 57.4891H155C156.88 57.4891 157.82 58.3891 157.82 60.1891V70.2691C157.82 71.9791 156.88 72.9691 155 72.9691H140.46C138.68 72.9691 137.64 73.8691 137.64 75.6691V78.5591C137.611 78.9316 137.664 79.3061 137.797 79.6553C137.93 80.0045 138.139 80.3197 138.409 80.5782C138.679 80.8366 139.003 81.0318 139.358 81.1496C139.713 81.2674 140.089 81.3047 140.46 81.2591H163.17C165.05 81.2591 165.99 82.1591 165.99 83.9591V94.0891C165.99 95.8891 165.05 96.7891 163.17 96.7891H123.75C123.38 96.835 123.003 96.7977 122.649 96.6799C122.295 96.5621 121.971 96.3668 121.702 96.1081C121.433 95.8494 121.225 95.534 121.093 95.1847C120.961 94.8354 120.909 94.4611 120.94 94.0891V36.4191C120.94 34.6191 121.94 33.7191 123.75 33.7191H163.17ZM163.17 28.6191H123.75C118.96 28.6191 115.62 31.8291 115.62 36.4191V94.0891C115.62 98.6091 119.04 101.899 123.75 101.899H163.17C167.96 101.899 171.31 98.6891 171.31 94.0891V83.9591C171.31 79.3591 167.96 76.1491 163.17 76.1491H160.59C161.419 75.4147 162.077 74.5077 162.517 73.4919C162.958 72.476 163.17 71.376 163.14 70.2691V60.1891C163.171 59.0821 162.959 57.9819 162.518 56.9659C162.077 55.95 161.419 55.043 160.59 54.3091H163.17C167.96 54.3091 171.31 51.0991 171.31 46.5091V36.4191C171.31 31.8291 167.96 28.6191 163.17 28.6191Z" fill="#F7F5F0"/>
<path d="M42.39 178.51C41.1821 178.571 39.9847 178.258 38.9611 177.614C37.9374 176.969 37.1375 176.025 36.67 174.91L27.88 154.26V173.26C27.88 176.4 25.68 178.51 22.4 178.51H11.89C8.61001 178.51 6.41003 176.4 6.41003 173.26V115.64C6.41003 112.5 8.61001 110.39 11.89 110.39H25.6901C26.8975 110.331 28.0935 110.646 29.1166 111.289C30.1396 111.933 30.9402 112.876 31.41 113.99L40.2001 134.64V115.64C40.2001 112.5 42.4 110.39 45.67 110.39H56.1901C59.5101 110.39 61.66 112.45 61.66 115.64V173.26C61.66 176.4 59.4601 178.51 56.1901 178.51H42.39Z" fill="#3A3A39"/>
<path d="M56.1901 112.94C58.0601 112.94 59 113.84 59 115.64V173.26C59.0389 173.634 58.992 174.011 58.8628 174.364C58.7336 174.717 58.5256 175.036 58.2546 175.296C57.9837 175.557 57.6568 175.752 57.2991 175.867C56.9413 175.982 56.562 176.014 56.1901 175.96H42.39C41.6932 176.015 40.9972 175.843 40.406 175.47C39.8149 175.097 39.3602 174.543 39.11 173.89L26.34 143.89C26.18 143.54 25.95 143.37 25.73 143.37C25.51 143.37 25.22 143.65 25.22 144.16V173.24C25.22 174.95 24.28 175.94 22.4 175.94H11.89C11.5191 175.985 11.1428 175.948 10.7881 175.83C10.4334 175.713 10.1093 175.517 9.83936 175.259C9.56942 175 9.36036 174.685 9.22729 174.336C9.09423 173.987 9.04058 173.612 9.07007 173.24V115.64C9.07007 113.84 10.07 112.94 11.89 112.94H25.6901C26.3867 112.886 27.0818 113.059 27.6726 113.432C28.2634 113.805 28.7184 114.358 28.97 115.01L41.73 145.01C41.9 145.36 42.13 145.53 42.34 145.53C42.55 145.53 42.86 145.25 42.86 144.74V115.64C42.86 113.84 43.86 112.94 45.67 112.94H56.1901ZM56.1901 107.84H45.67C40.88 107.84 37.54 111.05 37.54 115.64V121.64L33.9 113.08V113.02C33.2221 111.439 32.0795 110.102 30.6239 109.186C29.1683 108.27 27.4684 107.818 25.75 107.89H11.9501C7.16007 107.89 3.81006 111.1 3.81006 115.69V173.31C3.81006 177.83 7.23007 181.11 11.9501 181.11H22.46C27.25 181.11 30.6 177.91 30.6 173.31V167.31L34.24 175.87V175.93V175.99C34.9236 177.568 36.0691 178.902 37.5258 179.816C38.9824 180.73 40.6818 181.181 42.4 181.11H56.2001C60.9901 181.11 64.3301 177.91 64.3301 173.31V115.64C64.3301 111.05 60.9901 107.84 56.2001 107.84H56.1901Z" fill="#F7F5F0"/>
<path d="M71.2001 178.511C67.9201 178.511 65.72 176.401 65.72 173.261V115.641C65.72 112.501 67.9201 110.391 71.2001 110.391H110.62C113.94 110.391 116.09 112.451 116.09 115.641V125.731C116.09 128.871 113.89 130.981 110.62 130.981H87.75V134.151H102.45C105.78 134.151 107.93 136.211 107.93 139.401V149.491C107.93 152.631 105.73 154.741 102.45 154.741H87.75V157.911H110.62C113.94 157.911 116.09 159.981 116.09 163.171V173.251C116.09 176.441 113.94 178.501 110.62 178.501L71.2001 178.511Z" fill="#3A3A39"/>
<path d="M110.62 112.94C112.49 112.94 113.43 113.84 113.43 115.64V125.73C113.469 126.104 113.422 126.481 113.293 126.834C113.164 127.187 112.956 127.506 112.685 127.766C112.414 128.027 112.087 128.222 111.729 128.337C111.371 128.452 110.992 128.484 110.62 128.43H87.9C86.12 128.43 85.09 129.33 85.09 131.13V134.01C85.0589 134.382 85.1112 134.756 85.243 135.105C85.3749 135.455 85.5831 135.77 85.8523 136.029C86.1215 136.287 86.4449 136.483 86.7992 136.601C87.1534 136.718 87.5295 136.756 87.9 136.71H102.45C104.33 136.71 105.27 137.61 105.27 139.41V149.49C105.27 151.2 104.33 152.19 102.45 152.19H87.9C86.12 152.19 85.09 153.09 85.09 154.89V157.78C85.0589 158.152 85.1112 158.526 85.243 158.875C85.3749 159.225 85.5831 159.54 85.8523 159.799C86.1215 160.057 86.4449 160.253 86.7992 160.371C87.1534 160.488 87.5295 160.526 87.9 160.48H110.62C112.49 160.48 113.43 161.38 113.43 163.18V173.26C113.43 175.06 112.49 175.96 110.62 175.96H71.2001C70.8292 176.005 70.4527 175.968 70.098 175.85C69.7434 175.733 69.4193 175.537 69.1494 175.279C68.8795 175.02 68.6704 174.705 68.5374 174.356C68.4043 174.007 68.3505 173.632 68.38 173.26V115.64C68.38 113.84 69.3801 112.94 71.2001 112.94H110.62ZM110.62 107.84H71.2001C66.4101 107.84 63.0601 111.05 63.0601 115.64V173.26C63.0601 177.78 66.4801 181.06 71.2001 181.06H110.62C115.41 181.06 118.75 177.86 118.75 173.26V163.18C118.75 158.58 115.41 155.37 110.62 155.37H108.04C108.869 154.636 109.526 153.728 109.967 152.713C110.408 151.697 110.62 150.597 110.59 149.49V139.41C110.618 138.303 110.405 137.204 109.964 136.188C109.524 135.173 108.867 134.266 108.04 133.53H110.62C115.41 133.53 118.75 130.32 118.75 125.73V115.64C118.75 111.05 115.41 107.84 110.62 107.84Z" fill="#F7F5F0"/>
<path d="M162.79 178.51C161.485 178.585 160.196 178.192 159.155 177.402C158.114 176.612 157.389 175.476 157.11 174.2L153.97 160.75L150.84 174.18C150.561 175.46 149.836 176.599 148.793 177.393C147.75 178.186 146.458 178.582 145.15 178.51H131.92C128.92 178.51 126.7 176.81 126.2 174.06L114.66 116.4C114.474 115.653 114.467 114.873 114.641 114.124C114.815 113.375 115.164 112.678 115.66 112.09C116.186 111.51 116.836 111.056 117.561 110.761C118.286 110.467 119.069 110.34 119.85 110.39H131.02C134.11 110.39 136.42 112.24 136.76 114.99L140.19 139.11L144.25 114.88C144.475 113.552 145.187 112.357 146.247 111.527C147.306 110.696 148.637 110.291 149.98 110.39H158.05C161.05 110.39 163.26 112.09 163.76 114.84L167.83 139.12L171.27 114.94C171.6 112.24 173.91 110.39 177 110.39H188.17C188.953 110.341 189.736 110.469 190.463 110.763C191.19 111.057 191.841 111.511 192.37 112.09C192.867 112.675 193.217 113.37 193.391 114.118C193.565 114.866 193.558 115.645 193.37 116.39L181.74 174.09C181.24 176.8 179.05 178.5 176.03 178.5L162.79 178.51Z" fill="#3A3A39"/>
<path d="M188.13 112.939C190.13 112.939 191.04 114.019 190.67 115.939L179.12 173.649C179.006 174.362 178.621 175.004 178.045 175.44C177.47 175.876 176.747 176.073 176.03 175.989H162.79C162.075 176.058 161.361 175.856 160.788 175.422C160.216 174.989 159.827 174.356 159.7 173.649L154.53 151.499C154.44 151.049 154.21 150.829 153.97 150.829C153.73 150.829 153.5 151.049 153.41 151.499L148.27 173.619C148.138 174.326 147.747 174.957 147.174 175.39C146.6 175.823 145.886 176.026 145.17 175.959H131.94C131.221 176.043 130.498 175.847 129.921 175.411C129.343 174.975 128.956 174.333 128.84 173.619L117.27 115.909C116.89 114.019 117.83 112.909 119.8 112.909H130.97C132.66 112.909 133.88 113.719 134.06 115.249L139.41 152.789C139.51 153.239 139.74 153.469 139.98 153.469C140.22 153.469 140.45 153.239 140.54 152.789L146.83 115.249C146.946 114.535 147.333 113.893 147.911 113.457C148.488 113.021 149.211 112.825 149.93 112.909H158C158.717 112.825 159.44 113.022 160.015 113.458C160.591 113.894 160.976 114.536 161.09 115.249L167.38 152.789C167.48 153.239 167.71 153.469 167.94 153.469C168.17 153.469 168.41 153.239 168.51 152.789L173.86 115.249C174.05 113.719 175.26 112.909 176.95 112.909H188.12M188.12 107.809H176.95C172.54 107.809 169.1 110.599 168.58 114.599L167.58 121.719L166.36 114.439C166.002 112.512 164.96 110.78 163.426 109.562C161.891 108.343 159.968 107.721 158.01 107.809H149.94C145.67 107.809 142.32 110.439 141.6 114.369L140.37 121.719L139.37 114.599C138.85 110.599 135.42 107.809 131 107.809H119.83C118.662 107.763 117.497 107.974 116.419 108.427C115.341 108.879 114.375 109.563 113.59 110.429C112.857 111.307 112.339 112.343 112.075 113.455C111.811 114.567 111.81 115.726 112.07 116.839L123.61 174.549C124.32 178.399 127.67 181.029 131.94 181.029H145.17C147.064 181.117 148.93 180.538 150.441 179.392C151.952 178.247 153.014 176.607 153.44 174.759L153.99 172.419L154.52 174.699C154.937 176.561 155.996 178.216 157.512 179.374C159.029 180.531 160.904 181.117 162.81 181.029H176.05C177.994 181.122 179.907 180.511 181.437 179.308C182.967 178.105 184.012 176.39 184.38 174.479L195.91 116.849C196.173 115.735 196.173 114.575 195.911 113.461C195.649 112.347 195.132 111.309 194.4 110.429C193.611 109.565 192.643 108.883 191.564 108.43C190.484 107.978 189.32 107.766 188.15 107.809H188.12Z" fill="#F7F5F0"/>
<path d="M51.2099 257.73C49.9051 257.806 48.6162 257.413 47.5751 256.623C46.5339 255.833 45.8088 254.697 45.53 253.42L42.39 239.97L39.27 253.4C38.9914 254.681 38.2656 255.82 37.2228 256.613C36.1799 257.407 34.8885 257.803 33.5801 257.73H20.35C17.35 257.73 15.13 256.03 14.63 253.28L3.08995 195.61C2.90452 194.866 2.89853 194.087 3.07237 193.34C3.24621 192.592 3.59493 191.897 4.08995 191.31C4.61577 190.73 5.26556 190.276 5.99095 189.982C6.71634 189.688 7.49876 189.561 8.28001 189.61H19.4501C22.5401 189.61 24.85 191.46 25.19 194.2L28.62 218.33L32.68 194.1C32.9053 192.773 33.6173 191.578 34.6769 190.747C35.7364 189.917 37.0675 189.512 38.41 189.61H46.48C49.48 189.61 51.69 191.31 52.19 194.06L56.26 218.34L59.7001 194.16C60.0301 191.45 62.34 189.61 65.43 189.61H76.6C77.3825 189.562 78.166 189.69 78.8928 189.984C79.6196 190.278 80.2713 190.731 80.8 191.31C81.2972 191.895 81.6473 192.591 81.8213 193.339C81.9952 194.087 81.9879 194.866 81.8 195.61L70.26 253.32C69.76 256.03 67.57 257.73 64.55 257.73H51.2099Z" fill="#3A3A39"/>
<path d="M76.5501 192.159C78.5501 192.159 79.46 193.239 79.09 195.159L67.5401 252.869C67.4263 253.582 67.0412 254.224 66.4654 254.66C65.8895 255.096 65.1676 255.293 64.4501 255.209H51.21C50.4953 255.278 49.7807 255.076 49.2082 254.642C48.6357 254.208 48.2473 253.575 48.1201 252.869L42.9501 230.719C42.8601 230.269 42.6201 230.049 42.3901 230.049C42.1601 230.049 41.9201 230.269 41.8301 230.719L36.6701 252.869C36.5385 253.575 36.1475 254.207 35.5739 254.64C35.0003 255.073 34.2856 255.276 33.5701 255.209H20.34C19.6214 255.293 18.8982 255.096 18.3207 254.66C17.7433 254.225 17.3562 253.583 17.24 252.869L5.70013 195.089C5.32013 193.199 6.26004 192.089 8.23004 192.089H19.4001C21.0901 192.089 22.31 192.899 22.49 194.429L27.84 231.969C27.94 232.419 28.1701 232.649 28.4101 232.649C28.6501 232.649 28.88 232.419 28.97 231.969L35.2601 194.429C35.3762 193.715 35.7633 193.073 36.3408 192.637C36.9182 192.201 37.6414 192.005 38.36 192.089H46.4301C47.1475 192.005 47.8695 192.202 48.4454 192.638C49.0212 193.074 49.4063 193.715 49.5201 194.429L55.8101 231.969C55.9101 232.419 56.1401 232.649 56.3701 232.649C56.6001 232.649 56.8401 232.419 56.9401 231.969L62.2901 194.429C62.4801 192.899 63.6901 192.089 65.3801 192.089H76.5501M76.5501 186.989H65.3801C60.9701 186.989 57.5301 189.779 57.0101 193.779L56.0101 200.899L54.7901 193.619C54.4325 191.692 53.3903 189.96 51.8556 188.741C50.321 187.523 48.3977 186.9 46.4401 186.989H38.3701C34.1001 186.989 30.7501 189.619 30.0301 193.549L28.8001 200.899L27.8001 193.779C27.2801 189.779 23.8001 186.989 19.4301 186.989H8.27008C7.1017 186.943 5.93753 187.154 4.85943 187.606C3.78133 188.059 2.81552 188.743 2.03009 189.609C1.29755 190.486 0.778972 191.522 0.515193 192.635C0.251414 193.747 0.24963 194.906 0.510066 196.019L12.0501 253.729C12.7601 257.579 16.1101 260.209 20.3801 260.209H33.61C35.5045 260.297 37.3699 259.718 38.8812 258.572C40.3924 257.426 41.4537 255.787 41.8801 253.939L42.4301 251.599L42.96 253.879C43.3767 255.74 44.4363 257.395 45.9524 258.553C47.4686 259.711 49.3444 260.297 51.2501 260.209H64.49C66.4342 260.302 68.3467 259.69 69.8768 258.487C71.4068 257.284 72.4518 255.57 72.8201 253.659L84.2701 196.089C84.5326 194.976 84.5329 193.818 84.2708 192.706C84.0087 191.593 83.4915 190.557 82.7601 189.679C81.971 188.814 81.0031 188.132 79.9238 187.68C78.8444 187.227 77.6796 187.015 76.5101 187.059L76.5501 186.989Z" fill="#F7F5F0"/>
<path d="M116.34 257.729C113.07 257.729 110.87 255.619 110.87 252.479C110.87 252.479 110.87 244.539 110.87 244.479H102.5V252.479C102.5 255.669 100.35 257.729 97.0301 257.729H86.5201C85.7802 257.763 85.0413 257.641 84.3522 257.369C83.6631 257.098 83.0394 256.683 82.5218 256.153C82.0042 255.624 81.6045 254.99 81.3492 254.295C81.0938 253.6 80.9885 252.858 81.0401 252.119V213.949C81.0401 205.519 81.0401 187.949 106.69 187.949C132.34 187.949 132.35 205.479 132.35 213.949V252.089C132.35 255.499 130.2 257.699 126.87 257.699L116.34 257.729ZM102.64 223.909H110.71H110.86C110.86 223.849 110.86 223.779 110.86 223.689V213.969C110.86 210.479 110.86 210.039 106.66 210.039C102.46 210.039 102.47 210.479 102.47 213.969V223.779C102.47 223.839 102.47 223.879 102.47 223.919L102.64 223.909Z" fill="#3A3A39"/>
<path d="M106.67 190.541C127.79 190.541 129.67 202.601 129.67 213.951V252.091C129.67 254.091 128.73 255.151 126.85 255.151H116.34C114.56 255.151 113.53 254.251 113.53 252.451V244.621C113.53 242.821 112.59 241.921 110.71 241.921H102.64C100.85 241.921 99.8201 242.821 99.8201 244.621V252.451C99.8201 254.251 98.88 255.151 97.01 255.151H86.5C84.71 255.151 83.6801 254.071 83.6801 252.091V213.951C83.6801 202.601 85.5601 190.541 106.68 190.541M102.68 226.461H110.75C112.63 226.371 113.57 225.461 113.57 223.671V213.951C113.57 209.631 112.91 207.461 106.71 207.461C100.51 207.461 99.86 209.631 99.86 213.951V223.761C99.8305 224.134 99.8843 224.508 100.017 224.858C100.15 225.207 100.359 225.522 100.629 225.781C100.899 226.039 101.223 226.234 101.578 226.352C101.933 226.47 102.309 226.507 102.68 226.461ZM106.68 185.461C78.3701 185.461 78.37 205.461 78.37 213.971V252.091C78.3189 253.175 78.4943 254.257 78.885 255.269C79.2757 256.281 79.8731 257.2 80.6392 257.968C81.4052 258.736 82.323 259.336 83.3339 259.729C84.3447 260.122 85.4264 260.3 86.51 260.251H97.02C101.81 260.251 105.15 257.041 105.15 252.451V247.091H108.22V252.521C108.22 257.111 111.56 260.321 116.35 260.321H126.86C127.944 260.37 129.025 260.192 130.036 259.799C131.047 259.406 131.965 258.806 132.731 258.038C133.497 257.27 134.094 256.351 134.485 255.339C134.876 254.327 135.051 253.245 135 252.161V213.951C135 205.421 135 185.441 106.68 185.441V185.461ZM105.19 212.661C106.188 212.567 107.192 212.567 108.19 212.661C108.19 212.961 108.19 213.381 108.19 213.971V221.381H105.12V213.971C105.12 213.381 105.12 212.971 105.12 212.661H105.19Z" fill="#F7F5F0"/>
<path d="M151.44 257.73C150.135 257.807 148.846 257.416 147.804 256.628C146.761 255.84 146.033 254.706 145.75 253.43L132.05 195.7C131.82 194.967 131.772 194.188 131.912 193.431C132.051 192.675 132.373 191.964 132.85 191.36C133.374 190.765 134.028 190.297 134.762 189.994C135.495 189.69 136.288 189.559 137.08 189.61H148.27C149.574 189.537 150.862 189.931 151.903 190.72C152.944 191.51 153.669 192.644 153.95 193.92L160.19 220L166.41 193.93C166.693 192.651 167.421 191.514 168.466 190.722C169.51 189.931 170.802 189.537 172.11 189.61H183.27C184.062 189.559 184.855 189.69 185.588 189.994C186.322 190.297 186.976 190.765 187.5 191.36C187.978 191.967 188.3 192.682 188.44 193.441C188.579 194.201 188.531 194.983 188.3 195.72L174.61 253.41C174.327 254.69 173.599 255.827 172.554 256.618C171.51 257.41 170.218 257.804 168.91 257.73H151.44Z" fill="#3A3A39"/>
<path d="M183.27 192.16C185.27 192.16 186.18 193.24 185.71 195.16L172.01 252.87C171.881 253.577 171.49 254.21 170.916 254.644C170.342 255.077 169.626 255.279 168.91 255.21H151.46C150.744 255.277 150.03 255.074 149.456 254.641C148.883 254.208 148.492 253.576 148.36 252.87L134.64 195.09C134.17 193.2 135.11 192.09 137.08 192.09H148.27C148.985 192.021 149.699 192.223 150.272 192.656C150.844 193.09 151.233 193.723 151.36 194.43L159.62 229C159.72 229.41 159.95 229.61 160.19 229.61C160.43 229.61 160.66 229.41 160.75 229L169.01 194.43C169.139 193.722 169.53 193.089 170.104 192.656C170.678 192.222 171.394 192.02 172.11 192.09H183.27M183.27 186.99H172.11C170.214 186.899 168.346 187.477 166.833 188.623C165.32 189.769 164.257 191.41 163.83 193.26L160.19 208.51L156.55 193.29C156.108 191.454 155.038 189.83 153.527 188.698C152.015 187.566 150.156 186.998 148.27 187.09H137.1C135.911 187.044 134.726 187.265 133.633 187.736C132.539 188.206 131.565 188.915 130.78 189.81C130.06 190.716 129.566 191.782 129.34 192.917C129.114 194.053 129.162 195.226 129.48 196.34L143.17 254C143.591 255.858 144.652 257.508 146.168 258.662C147.684 259.816 149.557 260.399 151.46 260.31H168.91C170.806 260.4 172.674 259.822 174.187 258.676C175.701 257.53 176.763 255.889 177.19 254.04L190.9 196.3C191.214 195.192 191.259 194.025 191.032 192.896C190.804 191.767 190.309 190.709 189.59 189.81C188.805 188.915 187.831 188.206 186.737 187.736C185.644 187.265 184.459 187.044 183.27 187.09V186.99Z" fill="#F7F5F0"/>
<path d="M194.88 257.729C191.61 257.729 189.41 255.619 189.41 252.479V194.859C189.41 191.719 191.61 189.609 194.88 189.609H234.27C237.6 189.609 239.75 191.669 239.75 194.859V204.949C239.75 208.089 237.55 210.199 234.27 210.199H211.41V213.199C211.41 213.199 211.41 213.299 211.41 213.339H226.11C229.43 213.339 231.58 215.399 231.58 218.589V228.669C231.58 231.809 229.38 233.919 226.11 233.919H211.41V236.919C211.41 236.919 211.41 237.029 211.41 237.069H234.27C237.6 237.069 239.75 239.129 239.75 242.329V252.409C239.75 255.599 237.6 257.659 234.27 257.659L194.88 257.729Z" fill="#3A3A39"/>
<path d="M234.27 192.159C236.15 192.159 237.09 193.059 237.09 194.859V204.949C237.09 206.659 236.15 207.649 234.27 207.649H211.56C209.78 207.649 208.74 208.549 208.74 210.349V213.229C208.71 213.601 208.764 213.976 208.897 214.325C209.03 214.674 209.239 214.989 209.509 215.248C209.779 215.506 210.103 215.701 210.458 215.819C210.813 215.937 211.189 215.974 211.56 215.929H226.11C227.98 215.929 228.92 216.829 228.92 218.629V228.709C228.959 229.082 228.912 229.46 228.783 229.813C228.654 230.166 228.446 230.485 228.175 230.745C227.904 231.005 227.577 231.201 227.219 231.316C226.861 231.431 226.482 231.462 226.11 231.409H211.56C209.78 231.409 208.74 232.309 208.74 234.109V236.989C208.709 237.362 208.762 237.738 208.894 238.088C209.026 238.438 209.235 238.755 209.505 239.015C209.775 239.274 210.1 239.47 210.455 239.589C210.811 239.707 211.188 239.744 211.56 239.699H234.27C236.15 239.699 237.09 240.599 237.09 242.399V252.479C237.09 254.279 236.15 255.179 234.27 255.179H194.85C194.479 255.225 194.103 255.187 193.749 255.069C193.395 254.952 193.071 254.756 192.802 254.498C192.533 254.239 192.325 253.923 192.193 253.574C192.061 253.225 192.009 252.851 192.04 252.479V194.859C192.04 193.059 193.04 192.159 194.85 192.159H234.27ZM234.27 187.059H194.85C190.06 187.059 186.72 190.269 186.72 194.859V252.479C186.72 256.999 190.14 260.279 194.85 260.279H234.27C239.06 260.279 242.41 257.069 242.41 252.479V242.399C242.41 237.799 239.06 234.589 234.27 234.589H231.69C232.52 233.855 233.178 232.948 233.619 231.932C234.06 230.916 234.272 229.816 234.24 228.709V218.629C234.271 217.522 234.059 216.421 233.618 215.405C233.177 214.389 232.519 213.483 231.69 212.749H234.27C239.06 212.749 242.41 209.539 242.41 204.949V194.859C242.41 190.269 239.06 187.059 234.27 187.059Z" fill="#F7F5F0"/>
</g>
<defs>
<clipPath id="clip0_271_2955">
<rect width="242.44" height="319.12" fill="white"/>
</clipPath>
</defs>
</svg>
